<svg xmlns="http://www.w3.org/2000/svg" width="289" height="293" viewBox="0 0 289 293"><path d="M6.279,20.043C9.757,12.192,25.415,0,25.415,0s4.753,26.977,1.067,35.3c-3.038,6.859-13.98,19.236-22,15.756S.562,32.949,6.279,20.043Z" transform="translate(49.318 147.574)" fill="#fff"/><path d="M-5.161,16.939C-8.02,10.3-20.891,0-20.891,0s-3.907,22.8-.877,29.83c2.5,5.8,11.491,16.257,18.086,13.316S-.462,27.846-5.161,16.939Z" transform="translate(255.41 143.574)" fill="#fff"/><path d="M0,0H87.837l5.255,14.516S27.546,29.728,4.53,19.936Z" transform="translate(116.954 199.231)" fill="#fff"/><path d="M108.282,203.736A62.818,62.818,0,0,1,91.595,201.6a45.323,45.323,0,0,1-14.851-7.046,50.216,50.216,0,0,1-16.05-20.55,57.1,57.1,0,0,1-4.06-13.54c-.073-.441-.153-.9-.238-1.377-.584-3.314-1.31-7.438-.162-10.514a6.152,6.152,0,0,1,4.16-3.9,21.062,21.062,0,0,1,5.944-.617c.328,0,.667-.007,1-.014,1.656-.033,3.327-.069,4.943-.1,4.2-.091,8.542-.185,12.807-.236,9.185-.1,18.523-.131,27.553-.158h.007c3.181-.01,6.471-.019,9.719-.032,2.392-.011,5-.033,7.759-.058,4.512-.039,9.626-.083,14.619-.083,9.07,0,15.728.143,20.953.451,1.085.064,2.665.643,4.035,3.037a12.953,12.953,0,0,1,1.545,4.693c1.1,10.45-2.144,20.657-9.385,29.517a55.236,55.236,0,0,1-11.8,10.69,61.666,61.666,0,0,1-14.233,7.172,86.534,86.534,0,0,1-13.355,3.5,81.029,81.029,0,0,1-14.216,1.3ZM76.527,157.627c.994,2.412,2.453,4.243,3.807,4.78,2.341.927,18.4,1.836,32.414,1.836,3.789,0,7.176-.067,10.066-.2,4.714-.212,13.452-1.72,21.742-3.753a102.04,102.04,0,0,0,10.021-2.907c2.757-1,4.214-1.853,4.214-2.461,0-2.408-1.008-4.86-2-4.86l-.059,0c-3.86.417-34.134.751-56.24.994h-.006c-9.725.107-17.408.192-20.324.257-.391.009-.794.013-1.232.013-1.081,0-2.185-.025-3.217-.053C75.226,152.789,75.537,155.223,76.527,157.627Zm-65.45-6.261a9.783,9.783,0,0,1-4.822-1.2,11.079,11.079,0,0,1-4.011-4.021C.131,142.676-.493,138.165.389,132.732a52.252,52.252,0,0,1,4.292-13.2,61.351,61.351,0,0,1,11.054-16.039c.194-.207.4-.432.622-.671A59.637,59.637,0,0,1,22.12,97.17c2.63-2.154,4.91-3.245,6.778-3.245a4.6,4.6,0,0,1,.683.049.255.255,0,0,1,.172.112.391.391,0,0,1,.057.293,2.378,2.378,0,0,1-.084.267c-.015.042-.03.084-.044.127a7.488,7.488,0,0,1,2.662-2.4,2.829,2.829,0,0,1,1.327-.35,2.785,2.785,0,0,1,2.624,2.616,19.621,19.621,0,0,1-.8,6.81,26.634,26.634,0,0,0-.889,5.34c-.055,2.116.03,4.266.112,6.345.087,2.2.177,4.469.1,6.7a42.082,42.082,0,0,1-1.906,11.246,37.349,37.349,0,0,1-5.009,10.24c-3.414,4.867-10.47,10.039-16.822,10.039Zm15.969-53.28c-.424.369-.862.751-1.265,1.159-2.194,2.224-4.157,4.244-5.951,6.46a62.962,62.962,0,0,0-8.346,13.67,66.664,66.664,0,0,0-4.076,10.857,25.19,25.19,0,0,0-.859,5.97,12.2,12.2,0,0,0,1.067,5.374,4.364,4.364,0,0,0,4.193,2.51,9.438,9.438,0,0,0,4.587-1.356,18.707,18.707,0,0,0,6.46-6.824,34.712,34.712,0,0,0,3.567-8.794c1.212-4.657,1.03-9.453.855-14.091-.067-1.776-.137-3.612-.128-5.421.014-3.051.033-7.663,1.582-11.141A14.963,14.963,0,0,1,27.046,98.086Zm174.467,43.242a18.227,18.227,0,0,1-3.96-.445,16.782,16.782,0,0,1-7.535-3.851,21.8,21.8,0,0,1-5-6.7,32.626,32.626,0,0,1-2.734-8.222,39.371,39.371,0,0,1-.728-8.42A84.889,84.889,0,0,1,183.7,98.831c.135-.657.275-1.337.409-2,.273-1.354.475-2.784.671-4.167a53.6,53.6,0,0,1,1.046-5.835A12.207,12.207,0,0,1,185,82.183a3.207,3.207,0,0,1,.991-2.25,3.16,3.16,0,0,1,2.167-.84,3.491,3.491,0,0,1,1.568.377c3.062,1.53,4.622,4.31,6.272,7.253.326.582.663,1.184,1.01,1.767l7.087,11.945c.994,1.676,2.052,3.342,3.172,5.107,3.533,5.566,7.187,11.32,8.786,17.4a14.288,14.288,0,0,1-2.263,12.639,14.5,14.5,0,0,1-5.28,4.208,16.472,16.472,0,0,1-6.995,1.534h0Zm-11.627-40.943c-.253,1.308-.492,2.543-.645,3.589a57.626,57.626,0,0,0-.681,14.313,24.231,24.231,0,0,0,1.713,6.9,16.653,16.653,0,0,0,4.061,5.8,10.836,10.836,0,0,0,7.141,2.753,8.158,8.158,0,0,0,4.919-1.544,5.15,5.15,0,0,0,2.076-3.135,7.791,7.791,0,0,0-.285-3.751,31.293,31.293,0,0,0-3.764-7.357c-.267-.423-.518-.82-.742-1.187-3.246-5.306-6.758-11.146-10.738-17.854-.626-1.053-1.362-2.156-2.189-3.386C190.5,97.214,190.174,98.9,189.886,100.385Zm-77.134,31.334a62.889,62.889,0,0,1-14.639-8.307,5.627,5.627,0,0,1-2.043-3.249,6.731,6.731,0,0,1,.29-3.649,8.3,8.3,0,0,1,2.464-3.562,6,6,0,0,1,3.84-1.5,5.449,5.449,0,0,1,2.971.912q.479.367,1,.772a79.251,79.251,0,0,0,9.165,6.373c4.14,2.357,7.734,3.5,10.985,3.5a11.872,11.872,0,0,0,4.641-.912,12.974,12.974,0,0,0,4.322-3.063,13.253,13.253,0,0,0,2.515-10.671,20.154,20.154,0,0,0-5.35-9.464,39.006,39.006,0,0,0-8.1-6.537,2.513,2.513,0,0,1-.679-2.887,3.769,3.769,0,0,1,1.248-1.8,3.831,3.831,0,0,1,2.391-.789,5.076,5.076,0,0,1,.859.076,27.146,27.146,0,0,1,9.55,3.45,21.677,21.677,0,0,1,6.423,5.922,23.523,23.523,0,0,1,4.1,15.719,25.9,25.9,0,0,1-2.1,8.249,24.078,24.078,0,0,1-4.734,7.088,22.626,22.626,0,0,1-16.673,6.83A34.905,34.905,0,0,1,112.751,131.719ZM68.406,74.879c-3.478-2.766-5.132-7.209-8.952-9.723-3.232-2.129-7.564-2.24-11.28-1.625-8.738,1.446-15.606,7.085-23.587,10.379-1.119.463-1.774-.973-1.4-1.818C28.023,61.228,38.116,51.539,50.122,49.6c12.555-2.03,26.139,6.239,30.522,18.157,1.106,3.008-.732,6.731-3.364,8.269a6.785,6.785,0,0,1-3.461.96A8.828,8.828,0,0,1,68.406,74.879Zm82.886-1.913c-4.064-5.472-.567-12.956,3.923-16.911a28.393,28.393,0,0,1,16.626-6.95c10.035-.861,21.992,3.486,25.166,13.811a.364.364,0,0,1-.444.445c-6.072-2.251-12.787-3.619-19.278-2.474-4.18.738-12.431,3.7-12.747,8.492a6.93,6.93,0,0,1-6.959,6.885A7.832,7.832,0,0,1,151.292,72.967ZM13.233,36.5a1.451,1.451,0,0,1-.087-1.421,49.351,49.351,0,0,1,11.061-14,68.4,68.4,0,0,1,14.8-10.111A63.663,63.663,0,0,1,56.588,4.83L58.465,4.5a45.8,45.8,0,0,1,7.672-.831c4.28,0,7.376,1.155,9.466,3.53a8.037,8.037,0,0,1,1.9,5.713,5.231,5.231,0,0,1-1.9,3.735c-3.008,2.434-6.171,2.932-10,2.932-.787,0-1.6-.02-2.39-.04h-.029c-.757-.019-1.616-.04-2.468-.04-.785,0-1.485.018-2.14.056A67.578,67.578,0,0,0,43.7,22.091C33.12,25.115,24.446,30.6,15.006,36.934a1.23,1.23,0,0,1-.691.225A1.293,1.293,0,0,1,13.233,36.5Zm187.115-6.908c-.271-.065-.537-.131-.791-.2A44.785,44.785,0,0,1,190.877,26l-2.819-1.389a78.376,78.376,0,0,0-10.066-4.289,118.741,118.741,0,0,0-22.932-5.064,9.368,9.368,0,0,1-4.6-1.746,6.9,6.9,0,0,1-2.573-3.919,7.01,7.01,0,0,1,.793-5.874A7.481,7.481,0,0,1,152.311.591a8.174,8.174,0,0,1,3.1-.591,9.117,9.117,0,0,1,1.786.179l1.437.294C168.609,2.56,176.711,5.19,183.4,8.518a50.08,50.08,0,0,1,10.892,7.162,31.789,31.789,0,0,1,7.7,9.95c.271,2.076.021,2.592-.258,2.942l-.081.1-.069.094a1.991,1.991,0,0,1-1.23.819Z" transform="translate(46 52)"/></svg>