<svg xmlns="http://www.w3.org/2000/svg" width="289" height="293" viewBox="0 0 289 293"><path d="M71.359,182.259a2.426,2.426,0,0,1-1.849-.791A6.42,6.42,0,0,1,68.17,177c-.05-6.442,4.148-15.807,5.94-19.806l.069-.154c.169-.377.331-.739.458-1.03a91.542,91.542,0,0,1,12.41-20.784,62.644,62.644,0,0,1,18.242-15.756,50.491,50.491,0,0,1,24.345-6.532,43.217,43.217,0,0,1,19.718,4.682,34.37,34.37,0,0,1,9.742,7.291,37.091,37.091,0,0,1,6.307,9.518,55.175,55.175,0,0,1,3.706,11.057,102.487,102.487,0,0,1,1.937,11.908,7.945,7.945,0,0,1-2.568,6.473,10.709,10.709,0,0,1-7.22,3.2,9.651,9.651,0,0,1-6.844-2.893,9.832,9.832,0,0,1-2.936-6.9l-.017-1.548c-.089-5.862-.534-10.612-2.417-14.74a18.144,18.144,0,0,0-8.393-8.675,26.32,26.32,0,0,0-12.481-3.035A33.485,33.485,0,0,0,114,132.592a57.961,57.961,0,0,0-13.868,9.345A100.754,100.754,0,0,0,88.7,154.22c-2.714,3.379-5.284,6.947-7.769,10.4l-.045.062c-1.01,1.4-2.053,2.85-3.09,4.263-.2.267-.428.554-.665.858l0,.006c-1.579,2.03-3.965,5.1-4.865,7.879a6.622,6.622,0,0,0-.327,3.1,4.458,4.458,0,0,0,.437,1.329A4.066,4.066,0,0,1,71.359,182.259ZM120.2,101.8h0a34.911,34.911,0,0,1-12.448-2.509,62.869,62.869,0,0,1-14.639-8.307,5.626,5.626,0,0,1-2.043-3.25,6.732,6.732,0,0,1,.29-3.649,8.3,8.3,0,0,1,2.464-3.562,6,6,0,0,1,3.841-1.5,5.45,5.45,0,0,1,2.971.912q.473.363.99.763l.013.01a79.246,79.246,0,0,0,9.164,6.373c4.14,2.357,7.733,3.5,10.984,3.5a11.862,11.862,0,0,0,4.642-.913,12.972,12.972,0,0,0,4.322-3.063,13.253,13.253,0,0,0,2.515-10.67,20.157,20.157,0,0,0-5.35-9.466,39,39,0,0,0-8.1-6.537,2.51,2.51,0,0,1-.679-2.886,3.768,3.768,0,0,1,1.248-1.8,3.829,3.829,0,0,1,2.391-.79,5.1,5.1,0,0,1,.86.076,27.156,27.156,0,0,1,9.55,3.45,21.663,21.663,0,0,1,6.423,5.922,23.527,23.527,0,0,1,4.1,15.718,25.9,25.9,0,0,1-2.1,8.25,24.071,24.071,0,0,1-4.734,7.089A22.625,22.625,0,0,1,120.2,101.8ZM51.6,62.573a9.1,9.1,0,0,1-1.855-.19A10.26,10.26,0,0,1,44.117,58.9a13.963,13.963,0,0,1-2.771-4.717,8.709,8.709,0,0,1-.149-5.433l.327-.937a13.2,13.2,0,0,1,1.542-3.037,28.862,28.862,0,0,0,.565-4.519c.02-.315.04-.627.061-.936a19.9,19.9,0,0,1,.956-5.2c.1-.3.226-.612.362-.93l-.96-.337-.013,0c-2.708-.955-4.775-1.706-6.7-2.435a202.692,202.692,0,0,1-18.633-8.1c-3.017-1.5-6.005-3.226-8.786-4.865-1.257-.836-4.331-2.993-5.742-4.189l-1.027-.869-.536,1.233a1.556,1.556,0,0,1-1.079.556,1.116,1.116,0,0,1-.357-.06,1.649,1.649,0,0,1-.929-.87,2.494,2.494,0,0,1,.672-3.012,4.365,4.365,0,0,1,2.9-.919,15.814,15.814,0,0,1,3.061.41l.433.086.105.021c.266.052.517.1.769.148C11.569,10.6,15,11.355,17.9,12.012l3.888.886,2.964.678,1.486.34c16.543,3.791,33.648,7.711,50.881,9.405l1.814.17a11.236,11.236,0,0,1,7.6,3.652,9.165,9.165,0,0,1,2.1,7.448,9.766,9.766,0,0,1-12.222,8.141c-5.514-1.478-10.892-3.006-15.983-4.541l1.241,2.949a23.969,23.969,0,0,1,2.168,7.949A12.635,12.635,0,0,1,61.9,56.23a13.951,13.951,0,0,1-5.654,5.214A10.523,10.523,0,0,1,51.6,62.573ZM155.11,54.82a11.358,11.358,0,0,1-5.605-1.455,10.387,10.387,0,0,1-4.883-6.24,43.992,43.992,0,0,1-1.892-12.448c.007-.682.036-1.386.087-2.091a7.152,7.152,0,0,1-1.579,1.21,7.265,7.265,0,0,1-3.619.933,8.8,8.8,0,0,1-2.3-.317,11.155,11.155,0,0,1-5.747-3.875,8.553,8.553,0,0,1-1.941-5.673,8.487,8.487,0,0,1,2.475-5.408l1.535-1.563a9.8,9.8,0,0,1,4.389-2.5,9.045,9.045,0,0,1,2.348-.322,7.054,7.054,0,0,1,2.282.362,22.381,22.381,0,0,0,4.438-1.767l.023-.011c.836-.417,1.626-.811,2.33-1.117,3.382-1.47,6.865-3.019,10.352-4.6,2.981-1.357,6.06-2.629,9.038-3.86C169.96,2.785,173.19,1.451,176.352,0A44.452,44.452,0,0,1,172.1,4.786l-.087.089-.019.019c-3.2,3.263-6.507,6.638-9.991,9.725-1.2,1.062-2.427,2.125-3.616,3.153l-.208.18q-.715.618-1.425,1.232l-.747.648.639.754a5.01,5.01,0,0,1,.469.633,43.669,43.669,0,0,1,4.024,9.849l.036.115a69.415,69.415,0,0,0,2.478,6.969l.321.714a12.278,12.278,0,0,1,.957,8.331,10.636,10.636,0,0,1-4.75,6.295,8.993,8.993,0,0,1-2.452,1.039A12.111,12.111,0,0,1,155.11,54.82Z" transform="translate(54.999 73.429)"/></svg>