<svg xmlns="http://www.w3.org/2000/svg" width="289" height="293" viewBox="0 0 289 293"><path d="M139.856,163.2c-4.1,0-7.673-.141-10.932-.431-4.167-.371-8.444-.968-12.712-1.775l-2.481-.486c-2.6-.526-5.042-1.2-6.339-3.634a1.613,1.613,0,0,1-.053-1.487c.589-1.307,2.852-2.648,6.725-3.986,3.179-1.1,6.742-1.948,8.656-2.4.656-.156,1.129-.269,1.384-.342,4.549-1.3,9.25-2.362,13.8-3.39l1.345-.3.692-.159c.5-.119,1.015-.244,1.508-.364a33,33,0,0,1,7.734-1.272,11.8,11.8,0,0,1,6.743,1.984,9.072,9.072,0,0,1,4.141,6.327,9.288,9.288,0,0,1-2.377,7.366c-3.685,4.246-8.519,4.284-13.637,4.324h-.008l-1,.009-.344,0C141.712,163.2,140.757,163.2,139.856,163.2Zm-13.55-62.313a56.968,56.968,0,0,1-19.045-3.246,8.264,8.264,0,0,1-4.212-3.532,5.814,5.814,0,0,1-.482-4.969c.181-.5.407-1.006.623-1.479a6.047,6.047,0,0,1,3.273-2.932,7.542,7.542,0,0,1,2.813-.558,5.86,5.86,0,0,1,1.756.254l.564.178.144.045c4.866,1.534,12.22,3.853,18.815,3.853.638,0,1.263-.022,1.856-.067a14.812,14.812,0,0,0,5.821-1.512,9.349,9.349,0,0,0,4.086-4.188,6.44,6.44,0,0,0-.166-5.927c-1.4-2.878-4.244-5.343-6.382-6.9-3.2-2.333-6.56-3.272-10.122-4.265l-.138-.039c-1.328-.37-2.7-.753-4.084-1.211a2.423,2.423,0,0,1-1.148-.825,2.737,2.737,0,0,1-.547-1.3,2.26,2.26,0,0,1,.237-1.369,2.118,2.118,0,0,1,1.028-.937,17.758,17.758,0,0,1,7.311-1.485,27.355,27.355,0,0,1,15.53,5.347,25.5,25.5,0,0,1,8,9.155,18.4,18.4,0,0,1,1.689,5.126,16.056,16.056,0,0,1-.009,5.418,18.486,18.486,0,0,1-4.884,9.874,23.149,23.149,0,0,1-10.266,5.9A42.472,42.472,0,0,1,126.306,100.891ZM51.43,56.916a16.564,16.564,0,0,1-3.52-.376A21.257,21.257,0,0,1,37.9,51.147a24.072,24.072,0,0,1-6.2-9.578l-.129-.382A30.129,30.129,0,0,1,30.2,31.575a13.442,13.442,0,0,1,.97-4.872,5.819,5.819,0,0,1,2.965-3.149,1.361,1.361,0,0,1,.551-.12c1.638,0,2.944,3.082,3.429,4.408l.835,2.291c1.342,3.635,2.895,7.416,5.794,10.189.9.859,3.266,2.857,5.87,2.857a4.42,4.42,0,0,0,3.156-1.3c1.846-1.78,1.772-3.729,1.694-5.791a16.853,16.853,0,0,1,.048-2.75A9.456,9.456,0,0,1,58.389,27.9a8.077,8.077,0,0,1,5.43-2.47,5.958,5.958,0,0,1,4.737,2.5,14.98,14.98,0,0,1,3.305,8.411,16.806,16.806,0,0,1-1.76,8.364,22.518,22.518,0,0,1-7.665,8.678A19.851,19.851,0,0,1,51.43,56.916Zm115.064-1.9a16.384,16.384,0,0,1-7.067-1.539,17.13,17.13,0,0,1-5.415-4.105,26.452,26.452,0,0,1-5.588-10.912,34.686,34.686,0,0,1-.967-12.309,1.991,1.991,0,0,1,1.947-1.907,2.1,2.1,0,0,1,1.92,1.384l.182.452c.417,1.063.832,2.294,1.272,3.6a45.252,45.252,0,0,0,4.292,10c2.221,3.423,4.889,5.087,8.156,5.087h.015a4.356,4.356,0,0,0,3.858-1.953,8.809,8.809,0,0,0,1.141-4.95,14.515,14.515,0,0,0-1.017-5.026l-.073-.169a7.974,7.974,0,0,1,.269-7.753,9,9,0,0,1,7.432-3.836,6.947,6.947,0,0,1,4.261,1.331,6.317,6.317,0,0,1,2.346,4.227l.1.687a38.557,38.557,0,0,1-.229,11.655,22.762,22.762,0,0,1-4.407,10.415,14.941,14.941,0,0,1-10.833,5.563C167.548,55,167.014,55.02,166.493,55.02ZM58.046,15.851c-16.6,0-36.28-.229-56.426-1.924A1.653,1.653,0,0,1,0,12.156a1.6,1.6,0,0,1,1.553-1.644c.039,0,.078,0,.116,0,26.019-3.7,52.729-5.1,78.56-6.449l.065,0c3.2-.167,6.514-.34,9.768-.515,23.491-1.261,47.4-2.073,70.53-2.858,6.52-.221,13.263-.45,19.9-.686.1,0,.2-.005.3-.005a6.072,6.072,0,0,1,4.77,2.059,7.14,7.14,0,0,1,1.629,4.586,7.546,7.546,0,0,1-1.643,4.9,6.519,6.519,0,0,1-5.052,2.34c-6.869.161-13.855.338-20.612.509h-.026c-22.551.57-45.869,1.16-68.8,1.283l-5.419.033-5.587.039C72.84,15.8,65.383,15.851,58.046,15.851Z" transform="translate(43 81)"/></svg>