<svg xmlns="http://www.w3.org/2000/svg" width="289" height="293" viewBox="0 0 289 293"><path d="M74.624,144.239a.453.453,0,0,1-.43-.367.436.436,0,0,1,.212-.507c7.173-3.684,15.274-5.94,23.107-8.121l.7-.2c9.981-2.78,18.27-4.868,26.087-6.569,8.549-1.861,17.144-3.193,23.677-4.145-.045-.115-.113-.29-.17-.479a36.831,36.831,0,0,1-1.085-8.68c-.032-.695-.066-1.413-.107-2.1l-.124-1.885c-.252-4.183-.272-9.534,1.057-11.272a.642.642,0,0,1,.516-.287c1.253,0,3.24,3.874,4.427,6.189.395.769.706,1.377.871,1.608l.035.047a28.68,28.68,0,0,1,6.19,14.792c.011.149.011.3.011.437,5.71-.784,10.516-1.46,15.408-2.211a4.788,4.788,0,0,1,2.948-.925,10.188,10.188,0,0,1,4.505,1.255,5.769,5.769,0,0,1,2.853,3.094,6.766,6.766,0,0,1,.213,4.015,7.481,7.481,0,0,1-2.174,3.762,6.018,6.018,0,0,1-4.122,1.619l-.153,0c-1.4-.033-2.846-.05-4.3-.05-15.066,0-30.433,1.8-45.294,3.541l-3.047.356c-8.437.983-17.507,2.094-26.669,3.55-2.122.337-4.3.717-6.4,1.084h0a147.228,147.228,0,0,1-18.725,2.451Zm47.578-44.01h0a34.914,34.914,0,0,1-12.448-2.509,62.872,62.872,0,0,1-14.639-8.307,5.624,5.624,0,0,1-2.043-3.249,6.731,6.731,0,0,1,.29-3.648,8.3,8.3,0,0,1,2.464-3.562,6,6,0,0,1,3.841-1.5,5.45,5.45,0,0,1,2.971.912q.472.362.988.762l.014.01a79.252,79.252,0,0,0,9.165,6.373c4.141,2.357,7.734,3.5,10.984,3.5a11.863,11.863,0,0,0,4.641-.912,12.972,12.972,0,0,0,4.322-3.062,13.254,13.254,0,0,0,2.514-10.671,20.156,20.156,0,0,0-5.35-9.465,39.007,39.007,0,0,0-8.1-6.536,2.511,2.511,0,0,1-.679-2.887,3.767,3.767,0,0,1,1.248-1.8,3.83,3.83,0,0,1,2.39-.789,5.1,5.1,0,0,1,.86.076,27.157,27.157,0,0,1,9.55,3.45,21.664,21.664,0,0,1,6.423,5.922,23.526,23.526,0,0,1,4.1,15.718,25.9,25.9,0,0,1-2.1,8.25,24.07,24.07,0,0,1-4.734,7.088A22.625,22.625,0,0,1,122.2,100.229ZM53.9,49.263a8.408,8.408,0,0,1-4.173-1.048A5.913,5.913,0,0,1,47,44.989a13.583,13.583,0,0,1-1.072-7.572,44.485,44.485,0,0,1,1.605-7.692l.1-.354c-7.535-1.792-15.256-3.394-22.721-4.944C16.847,22.753,8.51,21.022.4,19.052a.577.577,0,0,1-.4-.6.475.475,0,0,1,.4-.482,170.4,170.4,0,0,1,25.887-1.822c3.892,0,8.012.107,12.246.319,6.569.327,13.221.822,19.772,1.471,3.481.346,6.943.733,10.289,1.152.777.1,1.684.3,2.643.523a21.768,21.768,0,0,0,4.538.717,5.272,5.272,0,0,0,1.4-.165,9.531,9.531,0,0,1,2.516-.342,9.864,9.864,0,0,1,7.766,3.931A9.514,9.514,0,0,1,89.114,32.1a9.3,9.3,0,0,1-3.559,5.187,9.683,9.683,0,0,1-5.661,1.769A10.473,10.473,0,0,1,73.423,36.8c-2.592-.914-5.181-1.771-7.7-2.547a10.453,10.453,0,0,1-.894,2.394c-.494.938-.924,1.8-1.317,2.635.006-.008.007-.009.007-.009.013.019-.319.827-.57,1.433l-.057.139-.553,1.443c-.968,2.5-2.053,4.853-4.657,6.137A8.61,8.61,0,0,1,53.9,49.263Zm97.846-1.719h-.011a7.29,7.29,0,0,1-5.162-2.478,5.248,5.248,0,0,1-1.421-4.106c.056-.453.106-.906.16-1.386.094-.838.191-1.7.314-2.558a10.22,10.22,0,0,1-3.232.509,11.958,11.958,0,0,1-5.041-1.139,10.88,10.88,0,0,1-4-3.148,11.287,11.287,0,0,1-1.97-9.217,9.858,9.858,0,0,1,5.027-6.794,38.9,38.9,0,0,1,9.924-3.14c1.206-.265,2.454-.539,3.678-.853,4.541-1.162,9.128-2.518,13.635-4.03,3.873-1.3,7.789-2.7,11.577-4.057l1.661-.594c2.311-.827,4.453-1.533,6.548-2.157.359-.106.772-.275,1.209-.453a8.617,8.617,0,0,1,2.257-.7A2.037,2.037,0,0,1,188.709,0a2.468,2.468,0,0,1,1.952,1.135,3.312,3.312,0,0,1,.564,2.55A7.346,7.346,0,0,1,190.068,6.4a29.211,29.211,0,0,1-4.167,4.733l-.009.009c-.2.193-.383.374-.551.54l-.229.229c-5.338,5.415-11.906,9.722-17.627,13.221-1.425.87-2.863,1.689-3.956,2.306a13.748,13.748,0,0,1,.653,1.515,13.887,13.887,0,0,1,.112,8.519,15.493,15.493,0,0,1-4.653,7.134A12.126,12.126,0,0,1,151.745,47.544Z" transform="translate(48.999 85.999)"/></svg>