<svg xmlns="http://www.w3.org/2000/svg" width="289" height="293" viewBox="0 0 289 293"><path d="M0,14.135S14.168,25.073,40.591,25.073s41.77-9.786,41.77-9.786S59.2,1.219,40.591.079,0,14.135,0,14.135Z" transform="translate(127.787 232.543)" fill="#ff6c6c"/><path d="M113.385,218.984c-11.581,0-28.711-1.5-44.556-8.649a67.876,67.876,0,0,1-15.75-9.747,52.5,52.5,0,0,1-10.151-11.21c-3.118-4.816-4.68-9.58-4.643-14.157.039-4.16,1.43-7.287,4.134-9.3,2.309-1.716,5.5-2.586,9.491-2.586a32.07,32.07,0,0,1,5.1.433,331.836,331.836,0,0,0,46.33,4.548l2.682.047a2.9,2.9,0,0,1,2.134-1.213c6.268-.677,12.728-.784,18.974-.888,2.347-.039,4.769-.079,7.139-.149,2.128-.063,4.312-.169,6.423-.272,3.378-.165,6.869-.336,10.293-.336,2.257,0,4.283.073,6.193.223l.6.053a29.89,29.89,0,0,1,8.5,2.044,16.859,16.859,0,0,1,6.695,4.73,12.694,12.694,0,0,1,2.69,9.693c-.461,4.508-2.7,9.2-6.66,13.939a64.868,64.868,0,0,1-11.643,10.59c-1.643,1.185-3.2,2.207-4.769,3.124a3.115,3.115,0,0,1-2.122,1.2,63.709,63.709,0,0,1-24.517,7.3C121.808,218.788,117.579,218.984,113.385,218.984ZM109.4,195.037a63.773,63.773,0,0,0-19.686,3.1,52.288,52.288,0,0,0-8.431,3.894c-1.678.9-3.413,1.829-5.151,2.61A94.175,94.175,0,0,0,95.2,209.561a128.994,128.994,0,0,0,19.692,1.456c3.286,0,6.638-.114,9.967-.339a58.879,58.879,0,0,0,19.761-4.78l-.08-.058c-.932-.673-1.9-1.368-2.893-1.971a58.73,58.73,0,0,0-9.723-4.745,64.163,64.163,0,0,0-20.565-4.057C110.709,195.047,110.052,195.037,109.4,195.037Zm3.792-52.459h0a34.88,34.88,0,0,1-12.443-2.508,62.891,62.891,0,0,1-14.638-8.308,5.626,5.626,0,0,1-2.043-3.25,6.731,6.731,0,0,1,.29-3.649,8.3,8.3,0,0,1,2.464-3.562,6,6,0,0,1,3.84-1.5,5.449,5.449,0,0,1,2.971.912l2.234,1.722a67.031,67.031,0,0,0,8.771,5.888c3.8,2.045,7.114,3.038,10.146,3.038a11.862,11.862,0,0,0,4.641-.912,12.971,12.971,0,0,0,4.322-3.062,13.254,13.254,0,0,0,2.515-10.672,20.156,20.156,0,0,0-5.35-9.465,39,39,0,0,0-8.1-6.536,2.511,2.511,0,0,1-.679-2.887,3.768,3.768,0,0,1,1.249-1.8,3.831,3.831,0,0,1,2.391-.79,5.092,5.092,0,0,1,.859.076,27.155,27.155,0,0,1,9.549,3.449,21.659,21.659,0,0,1,6.422,5.921,23.523,23.523,0,0,1,4.1,15.715,25.9,25.9,0,0,1-2.1,8.251,24.076,24.076,0,0,1-4.734,7.09A22.629,22.629,0,0,1,113.2,142.578Zm42.682-24.186a2.826,2.826,0,0,1-2.65-1.522l-.676-1.456-.684-1.455c-1.449-3.089-2.949-6.225-4.4-9.257-4.137-8.645-8.414-17.584-12.041-26.581a34.885,34.885,0,0,1-2.742-14.492,17.632,17.632,0,0,1,6.122-12.969,13.077,13.077,0,0,1,8.667-3.309,17.283,17.283,0,0,1,8.578,2.507,27.591,27.591,0,0,1,7.164,6.024l1.059,1.261a22.117,22.117,0,0,1,3.333,4.907c5.965-5.079,12.628-7.876,18.76-7.876a19.383,19.383,0,0,1,5.57.807,17.146,17.146,0,0,1,5.569,2.842,16.285,16.285,0,0,1,3.973,4.438,16.6,16.6,0,0,1,2.132,5.576,17.793,17.793,0,0,1,.046,6.255,23.546,23.546,0,0,1-2.223,6.752,28.027,28.027,0,0,1-3.894,5.712A49.56,49.56,0,0,1,186.7,95.5l-2.252,1.43c-4.194,2.674-9.113,5.886-13.8,9.432A98.81,98.81,0,0,0,158.12,117.5,3.067,3.067,0,0,1,155.879,118.393Zm-101.843,0A3.045,3.045,0,0,1,51.8,117.5c-7.25-7.718-15.4-13.57-25.413-19.984L23.61,95.749a50.517,50.517,0,0,1-11.084-9.026,28.253,28.253,0,0,1-4-5.78A23.5,23.5,0,0,1,6.249,74.09,17.348,17.348,0,0,1,8.43,62.254,16.232,16.232,0,0,1,12.4,57.81a16.953,16.953,0,0,1,5.571-2.832,19.569,19.569,0,0,1,5.568-.8c6.145,0,12.811,2.8,18.771,7.87a21.408,21.408,0,0,1,3.457-5.082l1.243-1.438a26.183,26.183,0,0,1,7.018-5.793,17.453,17.453,0,0,1,8.368-2.363,13.222,13.222,0,0,1,8.715,3.286c3.88,3.278,5.944,7.781,6.137,13.383a37.193,37.193,0,0,1-3.088,14.868c-3.639,8.82-7.832,17.622-11.886,26.134-1.029,2.16-2.092,4.392-3.13,6.591l-1.093,2.326c-.458.965-.9,1.927-1.359,2.91A2.83,2.83,0,0,1,54.036,118.393ZM1.27,45.667a1.066,1.066,0,0,1-.945-.477c-.573-.859-.392-2.857.539-5.938.732-2.423,1.7-4.739,2.013-5.5l.067-.162A65.429,65.429,0,0,1,14.71,14.765a51.169,51.169,0,0,1,12.557-10.1C32.627,1.613,37.934,0,42.612,0a17.058,17.058,0,0,1,14.1,7.035,6.193,6.193,0,0,1,.688,5.977A7.687,7.687,0,0,1,52.245,18a44.072,44.072,0,0,1-7.378.849,37.748,37.748,0,0,0-8.426,1.133c-4.9,1.425-9.514,4.29-13.378,6.906A83.181,83.181,0,0,0,10.21,37.546,28.675,28.675,0,0,0,8.119,40.1c-1.967,2.576-4.2,5.5-6.8,5.571Zm196.275-9.3a1.529,1.529,0,0,1-.605-.131,43.106,43.106,0,0,1-7.765-4.813c-2.91-2.1-5.919-4.279-9.469-5.5l-1.205-.41c-5.33-1.8-13.212-4.183-20.1-4.183-.294,0-.589,0-.875.013a12.662,12.662,0,0,1-3.866.608,10.019,10.019,0,0,1-5.425-1.455,7.172,7.172,0,0,1-3.215-4.716l-.057-.286-.108-.6a12.662,12.662,0,0,1,.421-6.266,7.806,7.806,0,0,1,4.048-4.717,16.69,16.69,0,0,1,7.2-1.557A37.387,37.387,0,0,1,166.159,4l2.447.679c6.166,1.714,12.579,3.794,17.711,7.38l.408.289.629.46a39.728,39.728,0,0,1,9.739,10.161,16.858,16.858,0,0,1,2.512,6.378,10.18,10.18,0,0,1-1.127,6.484A1.015,1.015,0,0,1,197.545,36.366Z" transform="translate(58 43.65)"/></svg>