<svg xmlns="http://www.w3.org/2000/svg" width="289" height="293" viewBox="0 0 289 293"><path d="M75.274,180.959v0a36.926,36.926,0,0,1,4.857-13.539,82.435,82.435,0,0,1,8.2-11.712,58.818,58.818,0,0,1,11.945-11,54.357,54.357,0,0,1,14.518-7.225,36.869,36.869,0,0,1,36.991,8.881,35.758,35.758,0,0,1,4.92,6.045,34.983,34.983,0,0,1,5.394,15.147,7.567,7.567,0,0,1-2.476,6.169,10.562,10.562,0,0,1-7.1,3.173,9.271,9.271,0,0,1-6.5-2.671,10.223,10.223,0,0,1-3.051-6.705,12.733,12.733,0,0,0-3.073-8.106,22.638,22.638,0,0,0-7.134-5.441,24.321,24.321,0,0,0-10.638-2.32,33.175,33.175,0,0,0-9.614,1.5,46.012,46.012,0,0,0-11.151,5.238,85.633,85.633,0,0,0-9.9,7.41c-2.443,2.083-4.776,4.45-7.032,6.739l-.179.182a81.386,81.386,0,0,1-8.966,8.236Zm46.519-58.7h0a34.912,34.912,0,0,1-12.448-2.509,62.871,62.871,0,0,1-14.639-8.307,5.626,5.626,0,0,1-2.043-3.25,6.732,6.732,0,0,1,.29-3.649,8.3,8.3,0,0,1,2.464-3.562,6,6,0,0,1,3.841-1.5,5.45,5.45,0,0,1,2.971.912q.476.365,1,.768l.006,0a79.252,79.252,0,0,0,9.164,6.373c4.14,2.357,7.733,3.5,10.984,3.5a11.862,11.862,0,0,0,4.642-.913,12.972,12.972,0,0,0,4.322-3.063,13.253,13.253,0,0,0,2.515-10.67,20.157,20.157,0,0,0-5.35-9.466,39.007,39.007,0,0,0-8.1-6.537,2.51,2.51,0,0,1-.679-2.886,3.768,3.768,0,0,1,1.248-1.8,3.829,3.829,0,0,1,2.391-.79,5.1,5.1,0,0,1,.86.076,27.156,27.156,0,0,1,9.55,3.45,21.664,21.664,0,0,1,6.423,5.922,23.527,23.527,0,0,1,4.1,15.718,25.9,25.9,0,0,1-2.1,8.25,24.072,24.072,0,0,1-4.734,7.089A22.625,22.625,0,0,1,121.793,122.259Zm50.79-40.61a6.985,6.985,0,0,1-4.323-1.457,11.352,11.352,0,0,1-3.431-4.764,21.368,21.368,0,0,1-1.178-7.45l-.012-.316a42.871,42.871,0,0,0-.449-5.441c-.438-2.324-1.5-5.237-2.78-6.143a5.044,5.044,0,0,0-2.861-.646,24.984,24.984,0,0,0-7.408,1.449l-1.26.452c-2.588.94-5.678,3.234-6.578,5.8a5.371,5.371,0,0,0-.315,1.7,11.757,11.757,0,0,1-1.071-5.821,13.033,13.033,0,0,1,4.038-8.321,30.244,30.244,0,0,1,7.7-5.537,19.76,19.76,0,0,1,5.678-1.957l6.746-1.2-6.334-2.615a62.909,62.909,0,0,1-16.2-9.789,48.076,48.076,0,0,1-6.56-6.59,36.693,36.693,0,0,1-4.958-7.831,40.357,40.357,0,0,1-2.671-7.582l-.169-.742a11.936,11.936,0,0,0-1.027-2.953l-.007-.015a12.677,12.677,0,0,1-.718-1.792A1.687,1.687,0,0,1,126.34.931,1.226,1.226,0,0,1,127.1.393,7.39,7.39,0,0,1,129.687,0a12.787,12.787,0,0,1,4.23.709c3.29,1.316,6.187,4.115,8.988,6.821l.327.316c1.367,1.318,2.779,2.68,4.166,3.83a56.238,56.238,0,0,0,30.377,12.4l.642.058a11.6,11.6,0,0,1,7.3,3.2,9.151,9.151,0,0,1,2.685,6.621,10.057,10.057,0,0,1-3.026,7.011,9.123,9.123,0,0,1-6.428,2.811c-.1,0-.194,0-.291-.005-1.729-.061-3.546-.218-5.4-.466l-6.649-.89,5.077,4.386a18.5,18.5,0,0,1,2.807,3.029,32.889,32.889,0,0,1,5.02,11.278,47.334,47.334,0,0,1,1.421,12.335,9.184,9.184,0,0,1-1.189,4.3,6.909,6.909,0,0,1-2.764,2.743,8.958,8.958,0,0,1-4.243,1.163ZM33.777,78.191h0a11.542,11.542,0,0,1-2.77-5.988,20.773,20.773,0,0,1,1.009-10.478,29.19,29.19,0,0,1,6.419-10.383,28.134,28.134,0,0,1,10-6.867,28.776,28.776,0,0,1,10.539-1.913,31.859,31.859,0,0,1,16.193,4.375c3.655,2.2,8.427,6.314,10.85,10.568a9.126,9.126,0,0,1,.665,8.088A10.96,10.96,0,0,1,80.169,71.6a6.575,6.575,0,0,1-2.257.391,8.107,8.107,0,0,1-2.065-.281,12.788,12.788,0,0,1-4.926-2.717,31.654,31.654,0,0,1-3-3.085l-.074-.084c-2.232-2.519-4.178-4.54-7.178-5.734a18.356,18.356,0,0,0-6.735-1.24,18.877,18.877,0,0,0-5.208.715A17.238,17.238,0,0,0,42.9,62.55a21.62,21.62,0,0,0-4.48,4.8,31.788,31.788,0,0,0-4.645,10.839Zm-10.729-34.5a58.542,58.542,0,0,1-8.288-.583l-1.745-.25-.029,0C8.942,42.264,3.4,41.453,0,38.885a13.786,13.786,0,0,1,3.683-.493l.35-.015c.806-.036,1.717-.076,2.589-.156a66.375,66.375,0,0,0,11.837-2.113,84.036,84.036,0,0,0,10.9-3.8,76.666,76.666,0,0,0,10.234-5.341A68.719,68.719,0,0,0,56.973,11.3l.575-.735q.3-.389.6-.775l.131-.17.2-.263c1.887-2.47,3.669-4.8,6.614-6.375A11.245,11.245,0,0,1,72.3,1.713a15.778,15.778,0,0,1,7.612,3.726A7.69,7.69,0,0,1,82.521,11,10.818,10.818,0,0,1,80.5,17.936a9.05,9.05,0,0,1-6.966,3.64c-.15.007-.3.011-.458.011-.119,0-.241,0-.362-.007l-.351.4-.239.272-.077.088c-.483.55-.8.914-1.141,1.273-1.261,1.344-2.619,2.659-4.035,3.909a58.33,58.33,0,0,1-10.142,7.223,67.559,67.559,0,0,1-20.584,7.674A71.662,71.662,0,0,1,23.048,43.695Z" transform="translate(49.407 63.97)"/></svg>