<svg xmlns="http://www.w3.org/2000/svg" width="289" height="293" viewBox="0 0 289 293"><ellipse cx="51" cy="52" rx="51" ry="52" transform="translate(120 67)" fill="#fff"/><path d="M8.057,183.22a8.782,8.782,0,0,1-4.951-1.608A6.786,6.786,0,0,1,.233,177.35c-.672-3.7.221-6.491,1.255-9.721.232-.725.472-1.474.7-2.26.81-2.763,1.5-5.614,2.174-8.371.248-1.018.5-2.068.76-3.1.856-3.427,1.64-7.133,2.468-11.664a28.619,28.619,0,0,0,.339-3.493,18.038,18.038,0,0,1,.821-5.293.45.45,0,0,1,.407-.311.4.4,0,0,1,.112.016c2.345.674,3.984,2.787,4.871,6.282a36,36,0,0,1,.808,8.615v.23c-.008.923,0,1.836.011,2.849l2.061.452c9.059,1.96,18.871,3.773,29.235,3.773,1.665,0,3.338-.047,4.973-.14a82.284,82.284,0,0,0,14.488-2.241c4.695-1.12,9.386-2.549,13.924-3.931,3.6-1.1,7.32-2.229,11.066-3.218-1.324-7.573-1.179-13.965.43-19a.8.8,0,0,1,1.537,0c.65,2.025,1.227,4.062,1.785,6.032a74.389,74.389,0,0,0,4.985,13.969,6.982,6.982,0,0,1,1.7,3.021,58.075,58.075,0,0,0,5.153,7.254c2.263,2.712,4.187,5.48,2.879,9.516a4.613,4.613,0,0,1-4.295,3.27c-.127.006-.255.009-.382.009a8.362,8.362,0,0,1-6.495-3.3,23.509,23.509,0,0,1-3.917-7.389,130.127,130.127,0,0,1-18.116,4.628,106.806,106.806,0,0,1-18.65,1.717c-2.357,0-4.7-.091-6.97-.269a101,101,0,0,1-18.122-3.054,72.645,72.645,0,0,1-17.193-6.885c.049,1.793.115,3.619.177,5.384.018.492.035.98.052,1.467.057,1.616.262,3.322.46,4.972a36.721,36.721,0,0,1,.385,8.029,9.721,9.721,0,0,1-2.08,5.276,7.725,7.725,0,0,1-4.931,2.666A7.086,7.086,0,0,1,8.057,183.22ZM62.15,115.833a74.858,74.858,0,0,1-15.386-1.648,80.245,80.245,0,0,1-14.526-4.527A50.405,50.405,0,0,1,16.07,98.894a49.783,49.783,0,0,1-10.4-15.24,55.689,55.689,0,0,1-4.5-18.113A62.857,62.857,0,0,1,2.686,46.157,70.862,70.862,0,0,1,8.122,31.2a66.463,66.463,0,0,1,9.1-13.892A45.876,45.876,0,0,1,29.5,7.014,31.454,31.454,0,0,1,44.461,2.861,53.133,53.133,0,0,1,61.468,0c.8,0,1.607.02,2.4.059a51.62,51.62,0,0,1,36.417,17.67,54.613,54.613,0,0,1,9.9,16.7,54.019,54.019,0,0,1,3.375,19.131,90.639,90.639,0,0,1-2.687,21.069,79.977,79.977,0,0,1-7.688,19.8A39.582,39.582,0,0,1,85.572,110.91a48.262,48.262,0,0,1-11.293,3.746A60.91,60.91,0,0,1,62.15,115.833ZM24.97,20.388a51.647,51.647,0,0,0-4.813,8.376,63.2,63.2,0,0,0-3.388,9.264,70.737,70.737,0,0,0-2.623,19.216,53.772,53.772,0,0,0,1.788,13.748,40.817,40.817,0,0,0,5.706,12.595C26.682,90.9,35.2,96.064,46.942,98.932a69.046,69.046,0,0,0,16.281,2.095,47.2,47.2,0,0,0,12.568-1.614,26.45,26.45,0,0,0,12.073-7.179,35.681,35.681,0,0,0,7.47-12.051c4.21-10.832,5.886-21.569,4.847-31.052a41.632,41.632,0,0,0-4.265-14.587A38.2,38.2,0,0,0,85.753,22.2a36.443,36.443,0,0,0-11.092-6.084A38.463,38.463,0,0,0,62.223,14.08c-.954,0-1.923.035-2.879.1a39.437,39.437,0,0,0-13.821,3.6,38.933,38.933,0,0,0-3.49,1.943c-.994.6-2.021,1.218-3.077,1.743a33.647,33.647,0,0,1-3.833,1.524c-.792.278-1.612.565-2.4.886l-.769.327A5.486,5.486,0,0,1,29.7,24.7a4.844,4.844,0,0,1-3.26-1.234A4.443,4.443,0,0,1,24.97,20.388ZM60.643,76.529a10.091,10.091,0,0,1-1.186-.072,8.272,8.272,0,0,1-3.685-1.377,8.826,8.826,0,0,1-2.636-2.813l-.046.026c-1.916-3.824-2.358-7.776-2.646-11.5l-.215-2.963c-.258-3.83-.285-7.549,2.2-10.939a10.19,10.19,0,0,1,8.141-4.451,8.766,8.766,0,0,1,4.255,1.1A10.566,10.566,0,0,1,68.441,46.9c2.459,3.579,2.283,7.051,2.079,11.07q-.022.427-.043.864l-.04.992q-.018.518-.034,1.041c-.1,3.168-.2,6.443-1.381,9.349C67.37,74.285,64.394,76.528,60.643,76.529Z" transform="translate(112 61)"/></svg>