<svg xmlns="http://www.w3.org/2000/svg" width="289" height="293" viewBox="0 0 289 293"><path d="M12.3,7.662C29.046-3.563,113.826-1.367,121.65,7.245s25.909,33.189-12.827,45.26S22.137,60.346,9.644,45.569l-.736-.883C-2.905,30.317-4.121,18.662,12.3,7.662Z" transform="translate(85.489 202.714)" fill="#fff"/><path d="M88.409,214.107c-14.377,0-27.91-1.873-39.136-5.417a69.694,69.694,0,0,1-15.624-6.944,39.339,39.339,0,0,1-11.142-9.921c-5.773-7.833-7.017-17.236-3.7-27.948a32.369,32.369,0,0,1,7.554-8.6,34.1,34.1,0,0,1,9.413-5.183c5.977-2.194,13.075-3.216,22.337-3.216,5.671,0,11.513.381,16.668.717l.459.03c5.426.353,10.548.687,15.4.687.929,0,1.833-.013,2.685-.038,1.186.086,2.493.128,4,.128,4.263,0,9.364-.346,14.765-.712l1.259-.085c6.225-.42,12.309-.8,18.3-.8a81.342,81.342,0,0,1,16.019,1.332,38.026,38.026,0,0,1,6.849,2.018,23.161,23.161,0,0,1,5.638,3.232c4.637,5.79,7.524,11.453,8.581,16.831a22.458,22.458,0,0,1-1.769,14.355c-2.2,4.573-6,8.813-11.315,12.6a74.987,74.987,0,0,1-18.585,9.265C123.031,211.383,105.751,214.106,88.409,214.107Zm1.507-23.85a11.8,11.8,0,0,0-5.849,1.812,9.748,9.748,0,0,0-3.748,3.587c-1.07,2.233-.805,6.759-.718,8.247.009.161.018.313.022.409,4.211.424,8.522.64,12.814.64,2.841,0,5.729-.095,8.583-.281-.317-1.047-.585-2.147-.844-3.211a22.926,22.926,0,0,0-2.639-7.265,8.226,8.226,0,0,0-2.69-2.579,10.586,10.586,0,0,0-4.339-1.334c-.193-.016-.391-.024-.591-.024Zm24.844,1.722h0a9.669,9.669,0,0,0-2.423.313,8.727,8.727,0,0,0-5.224,4.188,12.2,12.2,0,0,0-1.633,6.772,1.342,1.342,0,0,1-.211.694c-.028.053-.053.1-.076.15a123.3,123.3,0,0,0,18.121-3.545,10.611,10.611,0,0,0-3.212-6.627,7.948,7.948,0,0,0-5.342-1.945Zm-52.742-5.554h0a9.918,9.918,0,0,0-1.7.139,7.464,7.464,0,0,0-3.82,2.077,10.3,10.3,0,0,0-2.162,3.378,16.532,16.532,0,0,0-1.179,5.687,115.247,115.247,0,0,0,18.162,4.934c1.063.211,2.213.418,3.617.652l.078-.988a24.651,24.651,0,0,0-.112-4.78,13.771,13.771,0,0,0-1.98-5.868c-2.257-3.434-7.192-5.231-10.9-5.231Zm75.043-.263h0a10.548,10.548,0,0,0-4.452,1.026,12.044,12.044,0,0,0-3.784,2.821,11.767,11.767,0,0,0-2.987,9.215c1.257-.4,2.517-.814,3.744-1.241a81.544,81.544,0,0,0,15.767-6.971,9.778,9.778,0,0,0-8.287-4.851ZM83.977,155.555h0a67.276,67.276,0,0,0-12.15,1l-.175,1.924q-.045.474-.091.946c-.619,6.383-1.2,12.411,2.135,14.968,1.352,1.036,4.287,1.607,8.265,1.607a45.442,45.442,0,0,0,10.355-1.213c.2-.049.4-.31.618-.774a30.624,30.624,0,0,0,1.624-8.653c.293-4.2-.033-7.607-.894-9.346-3.394-.306-6.653-.461-9.686-.461Zm23.344-.334a49.59,49.59,0,0,0-1.216,10.041c.013,3.487.678,5.8,1.977,6.888,1.361,1.135,4.333,1.813,7.949,1.813,3.138,0,6.047-.529,7.24-1.316,1.025-.677,1.632-2.553,1.8-5.577a64.661,64.661,0,0,0-.47-10.135,96.1,96.1,0,0,0-17.284-1.715Zm21.18,1.84h0l-.053,1.027c-.377,7.621.543,12.2,2.735,13.6A8.417,8.417,0,0,0,135.678,173a9.439,9.439,0,0,0,6.219-2.5c2.247-1.962,4.081-4.983,5.45-8.98-.52-1.369-2.983-2.46-7.32-3.24a97.084,97.084,0,0,0-9.92-1.1c-.7-.05-1.261-.09-1.606-.125Zm-60.58-.438h0l-2.892.026-1.637.022A67.155,67.155,0,0,0,50.566,157.9,14.127,14.127,0,0,0,49.1,163.95a8.476,8.476,0,0,0,1.3,4.539,8.637,8.637,0,0,0,3.49,3.065,10.521,10.521,0,0,0,4.622,1.054,9.817,9.817,0,0,0,7.723-3.549c1.576-1.953,3.174-5.58,1.835-11.765l-.154-.671ZM112.2,134.228h0a34.913,34.913,0,0,1-12.449-2.509,62.873,62.873,0,0,1-14.639-8.307,5.625,5.625,0,0,1-2.043-3.249,6.731,6.731,0,0,1,.29-3.648,8.3,8.3,0,0,1,2.464-3.562,6,6,0,0,1,3.841-1.5,5.45,5.45,0,0,1,2.971.912q.478.367,1,.772a79.253,79.253,0,0,0,9.165,6.373c4.141,2.357,7.734,3.5,10.984,3.5a11.862,11.862,0,0,0,4.641-.912,12.972,12.972,0,0,0,4.322-3.062,13.254,13.254,0,0,0,2.514-10.671,20.156,20.156,0,0,0-5.35-9.465,39.009,39.009,0,0,0-8.1-6.536,2.511,2.511,0,0,1-.679-2.887,3.767,3.767,0,0,1,1.248-1.8,3.831,3.831,0,0,1,2.391-.79,5.1,5.1,0,0,1,.859.076,27.155,27.155,0,0,1,9.55,3.45,21.664,21.664,0,0,1,6.423,5.922,23.527,23.527,0,0,1,4.1,15.718,25.9,25.9,0,0,1-2.1,8.25,24.071,24.071,0,0,1-4.734,7.089A22.625,22.625,0,0,1,112.2,134.228ZM159.464,91.32A8.476,8.476,0,0,1,154.45,89.6a14.7,14.7,0,0,1-4.042-4.691,30.1,30.1,0,0,1-3.525-14.754,30.1,30.1,0,0,1,3.525-14.753,14.7,14.7,0,0,1,4.042-4.691,8.182,8.182,0,0,1,10.028,0,14.7,14.7,0,0,1,4.042,4.691,30.1,30.1,0,0,1,3.525,14.753,30.105,30.105,0,0,1-3.525,14.754,14.7,14.7,0,0,1-4.042,4.691A8.472,8.472,0,0,1,159.464,91.32Zm-112.24,0A8.472,8.472,0,0,1,42.21,89.6a14.714,14.714,0,0,1-4.043-4.691A30.115,30.115,0,0,1,34.643,70.16a30.113,30.113,0,0,1,3.524-14.753,14.713,14.713,0,0,1,4.043-4.691,8.182,8.182,0,0,1,10.028,0,14.7,14.7,0,0,1,4.042,4.691A30.1,30.1,0,0,1,59.8,70.16,30.105,30.105,0,0,1,56.28,84.913,14.7,14.7,0,0,1,52.238,89.6,8.476,8.476,0,0,1,47.224,91.32ZM1.315,37.16A1.3,1.3,0,0,1,.233,36.5a1.449,1.449,0,0,1-.087-1.422,49.327,49.327,0,0,1,11.061-14,68.38,68.38,0,0,1,14.8-10.112A63.657,63.657,0,0,1,43.588,4.83L45.465,4.5l.962-.163a42.289,42.289,0,0,1,6.709-.668c4.28,0,7.377,1.155,9.467,3.53a8.042,8.042,0,0,1,1.9,5.713,5.234,5.234,0,0,1-1.9,3.735c-3.008,2.433-6.172,2.932-10,2.932-.788,0-1.6-.02-2.391-.04h-.028c-.761-.019-1.618-.041-2.468-.041-.785,0-1.485.018-2.14.056A67.59,67.59,0,0,0,30.7,22.091C20.12,25.115,11.445,30.6,2.006,36.934A1.233,1.233,0,0,1,1.315,37.16Zm186.034-7.573h0c-.272-.065-.538-.131-.791-.2A44.771,44.771,0,0,1,177.877,26l-2.819-1.389a78.325,78.325,0,0,0-10.067-4.289A118.791,118.791,0,0,0,142.06,15.26a9.368,9.368,0,0,1-4.6-1.746,6.894,6.894,0,0,1-2.573-3.919,7.008,7.008,0,0,1,.793-5.874A7.477,7.477,0,0,1,139.311.591a8.171,8.171,0,0,1,3.1-.591,9.115,9.115,0,0,1,1.786.179l1.437.294.953.2c9.782,2.1,17.728,4.749,24.294,8.085a49.3,49.3,0,0,1,10.6,7.091,31.682,31.682,0,0,1,7.507,9.779c.27,2.076.021,2.592-.258,2.942l-.081.1c-.024.031-.047.063-.07.1a1.991,1.991,0,0,1-1.23.818Z" transform="translate(59 52)"/></svg>