<svg xmlns="http://www.w3.org/2000/svg" width="289" height="293" viewBox="0 0 289 293"><path d="M0,22.35C0,3.958,27.068,0,50.432,0s49.618,5.391,49.618,22.35S72.522,42.016,55.381,42.016,0,40.742,0,22.35Z" transform="translate(100.759 208.802)" fill="#fff"/><ellipse cx="38" cy="32" rx="38" ry="32" transform="translate(63 83)" fill="#fff"/><ellipse cx="31.5" cy="32" rx="31.5" ry="32" transform="translate(180 83)" fill="#fff"/><path d="M97.523,214.118a159.3,159.3,0,0,1-19.148-1.183l-3.843-.491a126.326,126.326,0,0,1-13.758-2.361A42.8,42.8,0,0,1,48.02,205a22.176,22.176,0,0,1-8.329-9.339A16.01,16.01,0,0,1,39,183.371c1.363-3.8,4.276-6.966,8.906-9.68a71.622,71.622,0,0,1,12.5-5.331l.215-.076a84.972,84.972,0,0,1,28.265-4.845c2.331,0,4.684.1,6.995.294a34.2,34.2,0,0,1,11.569-1.955,49.6,49.6,0,0,1,17.051,3.34l.843.317a59.641,59.641,0,0,1,13.279,6.858c4.675,3.324,7.854,7.054,9.45,11.087a15.642,15.642,0,0,1,1.073,5.386c1.233.122,2.357.274,3.434.463a2.132,2.132,0,0,1,1.711,2.18,2.343,2.343,0,0,1-1.711,2.432c-1.331.291-2.736.522-4.295.7a21.021,21.021,0,0,1-3,5.867,22.324,22.324,0,0,1-4.618,4.732c-8.329,6.306-20.016,7.425-29.406,8.325C106.771,213.9,102.148,214.118,97.523,214.118ZM80.065,192.7c.086,1.959.164,3.945.239,5.866q.034.858.067,1.716a3.6,3.6,0,0,1-.573,2.081,139.6,139.6,0,0,0,16.227.932h.121c-.989-2.987-1.049-6.352-1.107-9.607l0-.089C89.57,193.335,84.673,193.04,80.065,192.7Zm20.076,1.136.435,1.634a27.553,27.553,0,0,1,1.2,7.717c2.6-.1,5.156-.254,7.6-.467l3.217-.273c.828-.071,1.553-.136,2.217-.2.136-2.16.372-4.372.6-6.512.049-.463.1-.921.146-1.377C109.844,194.206,104.8,194.034,100.141,193.838Zm20.381.636c.227,2.249.451,4.656.545,7.021a38.584,38.584,0,0,0,11.635-3.413,13.84,13.84,0,0,0,4.175-3.158c-1.559-.037-3.136-.093-4.662-.147-1.882-.067-3.824-.136-5.7-.167-.648-.01-1.308-.025-1.946-.038h-.052l-4-.1Zm-71.7-5.321h0c.269,4.817,7.856,8.259,11.83,9.406a115.4,115.4,0,0,0,11.42,2.659,3.071,3.071,0,0,1-.083-.933l.128-1.428v-.007c.2-2.208.4-4.49.615-6.732l-2.069-.164-1.929-.147h-.008c-6.646-.5-13.517-1.02-19.9-2.653Zm47.621-18.392h0c.626,6.2,1.5,12.265,2.589,18.034l2.069.044c4.5.072,9.371.11,14.9.117v-.01c.012-.224.025-.477.034-.719.166-4.5.144-9.317-.069-15.155a134.032,134.032,0,0,0-19.292-2.3l-.235-.017Zm22.118,2.947c.493,4.522.948,9.363,1.434,15.237l4.353-.007c.872,0,1.543-.007,2.175-.013,2.415-.022,4.919-.127,7.34-.228h.007c1.674-.07,3.4-.142,5.1-.188A10.682,10.682,0,0,0,135,182.082,41.133,41.133,0,0,0,118.556,173.707Zm-26-4.108h0a104.18,104.18,0,0,0-14.247,2.535,29.138,29.138,0,0,1,1.116,8.431c.034.957.068,1.947.134,2.893.1,1.414.191,2.925.3,4.9,5.745.14,10.529.251,15.053.347-.156-5.888-.061-11.956.283-18.034l-.547-.039a3.25,3.25,0,0,1-2.087-1.034ZM56.439,187.55c3.73,0,7.538.189,11.221.373,1.794.089,3.648.181,5.46.25.132-1.265.241-2.264.342-3.143l.184-1.57c.116-.962.2-1.978.283-2.959a33.385,33.385,0,0,1,1.2-7.511c-2.237.639-4.433,1.346-6.524,2.1l-2.351.85a72.815,72.815,0,0,0-9.1,3.879c-3.445,1.831-5.808,3.726-7.222,5.793a6.429,6.429,0,0,0-1.007,2.253C51.223,187.652,53.68,187.55,56.439,187.55Zm58.761-45.32h0a34.913,34.913,0,0,1-12.449-2.509,62.871,62.871,0,0,1-14.639-8.307,5.626,5.626,0,0,1-2.043-3.25,6.732,6.732,0,0,1,.29-3.649,8.3,8.3,0,0,1,2.464-3.562,6,6,0,0,1,3.841-1.5,5.45,5.45,0,0,1,2.971.912q.472.362.988.762l.014.011a79.25,79.25,0,0,0,9.164,6.373c4.14,2.357,7.733,3.5,10.984,3.5a11.862,11.862,0,0,0,4.641-.913,12.972,12.972,0,0,0,4.322-3.063,13.254,13.254,0,0,0,2.515-10.671,20.157,20.157,0,0,0-5.35-9.465,39,39,0,0,0-8.1-6.536,2.51,2.51,0,0,1-.679-2.886,3.768,3.768,0,0,1,1.248-1.8,3.829,3.829,0,0,1,2.391-.79,5.092,5.092,0,0,1,.86.076,27.156,27.156,0,0,1,9.55,3.45,21.663,21.663,0,0,1,6.423,5.922,23.527,23.527,0,0,1,4.1,15.718,25.9,25.9,0,0,1-2.1,8.25,24.069,24.069,0,0,1-4.734,7.089A22.625,22.625,0,0,1,115.2,142.229ZM40.468,110.91a56.572,56.572,0,0,1-16.8-2.518,33.207,33.207,0,0,1-11.89-6.577A33.609,33.609,0,0,1,3.693,91.475,34.178,34.178,0,0,1,1.886,64.828a31.006,31.006,0,0,1,8-12.407,36.9,36.9,0,0,1,12.372-7.708,28.8,28.8,0,0,1,5.111-6.523A28.512,28.512,0,0,1,33.794,33.6,32.916,32.916,0,0,1,49.016,30a37.929,37.929,0,0,1,25.709,10.09A39.391,39.391,0,0,1,86.864,65.578a41.2,41.2,0,0,1-1.236,14.184,39.211,39.211,0,0,1-6.19,13.032,40.425,40.425,0,0,1-7.75,8.007,44.754,44.754,0,0,1-9.462,5.652A54.032,54.032,0,0,1,40.468,110.91ZM21.115,51.935a31.97,31.97,0,0,0-7.8,9.055A28.254,28.254,0,0,0,9.7,72.717a23.718,23.718,0,0,0,5.315,17.745c4.448,5.228,11.3,8.455,19.285,9.084,1.613.127,3.227.192,4.8.192a51.378,51.378,0,0,0,10.028-.947,38.652,38.652,0,0,0,9.289-3.06A29.434,29.434,0,0,0,72.33,81.965a26.536,26.536,0,0,0,1.638-19.371A26.943,26.943,0,0,0,61.988,47.23a22.67,22.67,0,0,0-6.207-2.544,28,28,0,0,0-6.78-.8A36.075,36.075,0,0,0,36.7,46.154,35.4,35.4,0,0,0,26.15,52.191a3.819,3.819,0,0,1-2.461.979A3.353,3.353,0,0,1,21.115,51.935Zm133.227,56.311a34.675,34.675,0,0,1-6.085-.536,33.093,33.093,0,0,1-12.056-4.781,37.061,37.061,0,0,1-9.526-8.821,36.622,36.622,0,0,1-5.935-11.53,32.383,32.383,0,0,1-1.282-12.909,33.141,33.141,0,0,1,8.87-19.284,3.5,3.5,0,0,1,.147-.534,27.69,27.69,0,0,1,7.377-11.145A25.217,25.217,0,0,1,147.9,32.89a35.764,35.764,0,0,1,6.948-.673,35.377,35.377,0,0,1,29.769,15.5,41.438,41.438,0,0,1,5.64,11.692,38.1,38.1,0,0,1-.808,25.407,36.231,36.231,0,0,1-5.8,9.546,39.424,39.424,0,0,1-18.329,12.186A36.826,36.826,0,0,1,154.342,108.245Zm.3-61.957h0A31.48,31.48,0,0,0,136.02,52.2c-5.828,7.515-8.252,17.428-6.176,25.254a27.367,27.367,0,0,0,9,13.956A25.55,25.55,0,0,0,146,95.607a23,23,0,0,0,8.212,1.532,22.56,22.56,0,0,0,2.351-.123,26.735,26.735,0,0,0,15.329-7.082,25.354,25.354,0,0,0,5.168-6.73,22.61,22.61,0,0,0,2.5-8.17,27.489,27.489,0,0,0-3.374-16.184,25.692,25.692,0,0,0-5.16-6.51A23.265,23.265,0,0,0,163.9,47.9a25.65,25.65,0,0,0-9.252-1.61Zm5.079,35.444a6.15,6.15,0,0,1-1.491-.185c-4.187-1.048-5.721-5.4-5.376-9a9.054,9.054,0,0,1,3.889-7.1,2.686,2.686,0,0,1,1.583-.524,3.883,3.883,0,0,1,3.333,2.524l.4.828c.21.438.431.9.438.918l.076.221c.08.15.173.293.264.432l0,.005.073.113c.077.053.644.756.858,1.021l.079.1a6.743,6.743,0,0,1,1.807,4.807,5.931,5.931,0,0,1-5.94,5.845ZM51.589,81.367A6.914,6.914,0,0,1,46.1,78.258c-2.256-3.045-1.57-9.477,1.286-12.074A4.777,4.777,0,0,1,50.6,64.92a4.3,4.3,0,0,1,3.06,1.263,8.621,8.621,0,0,1,1.474,2.149c.177.327.361.664.57,1l.328.514.165.252a8,8,0,0,1,1.5,3.267,8.1,8.1,0,0,1-.486,4.44,5.831,5.831,0,0,1-3.186,3.043A6.249,6.249,0,0,1,51.589,81.367ZM4.7,40.84a1.839,1.839,0,0,1-1.415-.6c-3.726-4.215-2.2-10.1-.257-14.291a41.051,41.051,0,0,1,9.234-12.476,56.505,56.505,0,0,1,13.977-8.9,41.586,41.586,0,0,1,16.626-4,23.327,23.327,0,0,1,7.174,1.063,9.544,9.544,0,0,1,4.818,3.666,11.16,11.16,0,0,1,2.042,5.713,7.7,7.7,0,0,1-4.613,7.813c-4.5,2.057-9.424,2.694-14.19,3.31-4.894.633-9.954,1.287-14.629,3.466-4.641,2.163-7.9,4.512-10.245,7.393-.426.523-.843,1.066-1.286,1.641-1.783,2.319-3.627,4.717-6.1,5.924A2.647,2.647,0,0,1,4.7,40.84Zm174.463-9.253a7.4,7.4,0,0,1-3.737-1.03c-2.476-1.429-4.21-3.751-5.887-6a31.082,31.082,0,0,0-3.815-4.487,33.187,33.187,0,0,0-10.027-6.229,34.6,34.6,0,0,0-12.521-2.47l-.248,0a31.639,31.639,0,0,0-5.922.763c-1.277.247-2.6.5-3.882.64a.139.139,0,0,1,0,.141c-.071.114-.345.174-.793.174a11.259,11.259,0,0,1-3.042-.511c-1.177-.5-1.072-1.973-.73-2.783.847-2,2.759-3.853,5.683-5.5a35.168,35.168,0,0,1,17.2-4.3,46.211,46.211,0,0,1,7.874.694,38.66,38.66,0,0,1,16.117,6.788l.54.4a38.449,38.449,0,0,1,7.425,6.972c2.386,3.074,3.522,6.164,3.377,9.184a8.008,8.008,0,0,1-2.417,5.386A7.458,7.458,0,0,1,179.159,31.588Z" transform="translate(56 42)"/></svg>