<svg xmlns="http://www.w3.org/2000/svg" width="289" height="293" viewBox="0 0 289 293"><path d="M44.151,84.917h0a22.66,22.66,0,0,1-6.031-.826,25.353,25.353,0,0,1-7.8-4.3,41.049,41.049,0,0,1-8.294-8.474c-5.108-7.1-5.581-13.061-5.078-16.814a2.85,2.85,0,0,1,1.481-2.021,4.783,4.783,0,0,1,1.834-.6,3.79,3.79,0,0,1,.38-.019,3.145,3.145,0,0,1,1.579.4,2.6,2.6,0,0,1,1.31,1.939A19.212,19.212,0,0,0,29.251,64.62c3.946,4.016,9.015,6.778,11.781,7.339a9.7,9.7,0,0,0,1.922.2,8.421,8.421,0,0,0,6.162-2.729l.3-.319a18.168,18.168,0,0,0,3.3-5.453,29.976,29.976,0,0,0,1.726-6.184,7.8,7.8,0,0,1,3.044-5.181,7.6,7.6,0,0,1,4.491-1.4,8.486,8.486,0,0,1,1.45.126,7.675,7.675,0,0,1,5.259,3.4,6.389,6.389,0,0,1,.29,6.028c-.5,1.182-.977,2.4-1.44,3.581l0,.009-.406,1.031c-2.127,5.366-4.4,10.51-8.811,14.46a20.977,20.977,0,0,1-6.643,4.035A21.3,21.3,0,0,1,44.151,84.917ZM153.977,70.679h0a18.73,18.73,0,0,1-3.928-.418A20.88,20.88,0,0,1,143.116,67a24.277,24.277,0,0,1-6.266-6.125,12.328,12.328,0,0,1-2.27-6.249,7.1,7.1,0,0,1,.515-3.113,11.406,11.406,0,0,1,2.58-3.61,2.693,2.693,0,0,1,.8-.125,2.828,2.828,0,0,1,1.8.677,15.616,15.616,0,0,1,2.9,3.812l.232.382a13.487,13.487,0,0,0,1.28,1.831,12.475,12.475,0,0,0,6.993,4.193,8.363,8.363,0,0,0,1.374.115,8.271,8.271,0,0,0,5.124-1.824,11.6,11.6,0,0,0,4.072-6.779,5.593,5.593,0,0,1,1.565-2.833,6.839,6.839,0,0,1,2.816-1.683,5.688,5.688,0,0,1,4.807.575,5.673,5.673,0,0,1,2.648,2.944,7.3,7.3,0,0,1,.365,4.046,21.886,21.886,0,0,1-8.951,13.7A20.043,20.043,0,0,1,153.977,70.679ZM6.32,29.1H6.3c-.886-.088-1.784-.133-2.67-.133-.617,0-1.243.022-1.86.065l-.648.053a1.149,1.149,0,0,1-.159.011.95.95,0,0,1-.925-.656.864.864,0,0,1,.395-.992c1.551-1.052,3.054-2.142,4.508-3.2a66.508,66.508,0,0,1,12.034-7.47,117.392,117.392,0,0,1,16.649-5.965l2.17-.595L38,9.629l1.5-.4C44.586,7.9,48.731,6.972,52.545,6.305a76.5,76.5,0,0,1,13.2-1.272,49.529,49.529,0,0,1,5.553.3,9.137,9.137,0,0,1,4.825,1.9,6.831,6.831,0,0,1,2.433,4.5,8.1,8.1,0,0,1-1.126,5.066,6.06,6.06,0,0,1-4.168,3.041,171.8,171.8,0,0,1-17.9,1.619A169.2,169.2,0,0,0,37.022,23.15c-3.965.658-7.975,1.434-11.854,2.184-1.978.383-4.024.778-6.038,1.153-2.658.5-5.413.808-8.077,1.11-1.881.213-3.825.434-5.718.717l1.051.146a.278.278,0,0,1,.234.32A.321.321,0,0,1,6.32,29.1Zm173.657-3.38A20.489,20.489,0,0,1,172.8,23.9c-.727-.281-1.478-.571-2.2-.82l-2.3-.789a105.677,105.677,0,0,0-10.5-3.115,58.411,58.411,0,0,0-12.885-1.538c-.205,0-.413,0-.618,0-1.3.017-2.646.135-3.952.248-1.439.125-2.925.255-4.372.255a14.189,14.189,0,0,1-5.6-.971,8.57,8.57,0,0,1-5.209-5.988,6.72,6.72,0,0,1,2-6.161,15.827,15.827,0,0,1,6.707-3.9A28.511,28.511,0,0,1,142.221,0,55.631,55.631,0,0,1,161.26,3.758c6.313,2.455,10.988,5.21,14.712,8.668l.414.388.638.614a25.446,25.446,0,0,1,4.051,4.893,9.294,9.294,0,0,1,1.559,5.824,1.542,1.542,0,0,1-1.1,1.446A8.945,8.945,0,0,1,179.978,25.725Z" transform="translate(52 63)"/></svg>