<svg xmlns="http://www.w3.org/2000/svg" width="289" height="293" viewBox="0 0 289 293"><path d="M82.93,192.992c-3.282,0-6.488-2.46-7.8-5.983a8.462,8.462,0,0,1-.391-4.73,8.039,8.039,0,0,1,2.728-4.443l.248-.206a11.592,11.592,0,0,0,3.033-4.09A25.578,25.578,0,0,0,82.568,168a45.4,45.4,0,0,0,.927-11.062,43.143,43.143,0,0,0-2.1-11.465l-.251-.734c-.351-.995-3.9-9.761-5.537-9.761a.426.426,0,0,0-.285.11l-.069.071a.684.684,0,0,1-.526.272.712.712,0,0,1-.6-.373.746.746,0,0,1,.024-.771,3.84,3.84,0,0,1,3.256-2.189c1.782,0,4.9,1.473,9.629,8.492a59.357,59.357,0,0,1,5.9,10.913,51.219,51.219,0,0,1,2.239,10.508,31.28,31.28,0,0,0,6.83.746,34.406,34.406,0,0,0,6.455-.623c4.718-.905,8.149-2.99,11.781-5.2,1.456-.885,2.961-1.8,4.6-2.67a6.693,6.693,0,0,1,3.175-.778,9.618,9.618,0,0,1,7.849,4.635,7.954,7.954,0,0,1,.95,6.116,11.269,11.269,0,0,1-3.261,5.331,21.086,21.086,0,0,1-8.746,4.733,37.7,37.7,0,0,1-10.564,1.466,34.715,34.715,0,0,1-6.536-.593,33.4,33.4,0,0,1-12.332-5.047q-.011.2-.02.4c-.015.321-.031.653-.057.981l-.07.8a45.013,45.013,0,0,1-2.043,10.22,18.771,18.771,0,0,1-5.344,8.531A7.558,7.558,0,0,1,82.93,192.992ZM119.2,124.229h0a34.912,34.912,0,0,1-12.448-2.509,62.874,62.874,0,0,1-14.639-8.307,5.625,5.625,0,0,1-2.043-3.25,6.732,6.732,0,0,1,.29-3.649,8.3,8.3,0,0,1,2.464-3.562,6,6,0,0,1,3.841-1.5,5.449,5.449,0,0,1,2.971.912q.467.358.976.753l.025.019a79.254,79.254,0,0,0,9.165,6.373c4.141,2.357,7.734,3.5,10.984,3.5a11.861,11.861,0,0,0,4.641-.913,12.971,12.971,0,0,0,4.322-3.063,13.254,13.254,0,0,0,2.515-10.671,20.157,20.157,0,0,0-5.349-9.465,39,39,0,0,0-8.1-6.536,2.51,2.51,0,0,1-.68-2.886,3.768,3.768,0,0,1,1.248-1.8,3.829,3.829,0,0,1,2.391-.79,5.09,5.09,0,0,1,.86.076,27.157,27.157,0,0,1,9.55,3.45,21.663,21.663,0,0,1,6.423,5.922,23.526,23.526,0,0,1,4.1,15.718,25.9,25.9,0,0,1-2.1,8.25,24.071,24.071,0,0,1-4.734,7.089A22.626,22.626,0,0,1,119.2,124.229ZM20.815,71.261A1.18,1.18,0,0,1,19.74,70.6a16.656,16.656,0,0,1-2-8.343,19.586,19.586,0,0,1,2.056-8.113,26.537,26.537,0,0,1,7.64-9.265A24.831,24.831,0,0,1,38.178,39.94a27.122,27.122,0,0,1,4.722-.415,27.735,27.735,0,0,1,8.539,1.355,28.839,28.839,0,0,1,7.786,3.9l.463.333a29.539,29.539,0,0,1,8.018,8.469,14.093,14.093,0,0,1,1.9,5.27,10.064,10.064,0,0,1-.832,5.536,4.481,4.481,0,0,1-2.04,2.135,6.2,6.2,0,0,1-2.894.68,6.687,6.687,0,0,1-3.053-.72c-2.346-1.23-3.615-3.4-4.959-5.7a17.662,17.662,0,0,0-3.93-5.143,16.69,16.69,0,0,0-10.19-3.718c-.406,0-.814.018-1.211.054-4.3.391-8.2,2.558-11.592,6.443a38.6,38.6,0,0,0-6.685,11.847A1.546,1.546,0,0,1,20.815,71.261Zm155.5-2.517a7.973,7.973,0,0,1-4.447-1.333,6.907,6.907,0,0,1-2.807-3.96c-.277-1.021-.473-2.013-.663-2.972-.518-2.617-1.007-5.089-3.027-7.419a11.631,11.631,0,0,0-3.733-2.886,10.37,10.37,0,0,0-4.546-1.051c-.231,0-.466.008-.7.024a15.9,15.9,0,0,0-10.042,4.86,25.24,25.24,0,0,0-2.942,3.847,20.635,20.635,0,0,1-3.44,4.283,1.631,1.631,0,0,1-1.048.408,1.473,1.473,0,0,1-1.008-.408c-2.426-2.237-2.5-5.667-2.141-8.151a21.79,21.79,0,0,1,3.154-8.282,24.614,24.614,0,0,1,7.517-7.342,22.5,22.5,0,0,1,9.95-3.323c.525-.043,1.063-.065,1.6-.065,7.555,0,15.787,4.29,20.974,10.929,4.284,5.484,5.842,11.716,4.387,17.549a6.743,6.743,0,0,1-2.693,3.979A7.662,7.662,0,0,1,176.311,68.744ZM3.7,40.84a1.839,1.839,0,0,1-1.415-.6c-3.726-4.215-2.2-10.1-.258-14.291a41.059,41.059,0,0,1,9.233-12.476,56.514,56.514,0,0,1,13.978-8.9,41.586,41.586,0,0,1,16.626-4,23.328,23.328,0,0,1,7.174,1.063,9.544,9.544,0,0,1,4.818,3.666,11.159,11.159,0,0,1,2.042,5.712,7.7,7.7,0,0,1-4.614,7.813c-4.5,2.057-9.424,2.694-14.19,3.31-4.894.633-9.954,1.287-14.629,3.466-4.641,2.163-7.9,4.513-10.244,7.393-.425.522-.844,1.066-1.287,1.642-1.784,2.32-3.628,4.717-6.094,5.924A2.648,2.648,0,0,1,3.7,40.84Zm174.462-9.253a7.4,7.4,0,0,1-3.736-1.03c-2.477-1.429-4.211-3.752-5.889-6a31.083,31.083,0,0,0-3.813-4.485,33.181,33.181,0,0,0-10.028-6.229,34.6,34.6,0,0,0-12.521-2.47l-.248,0a31.637,31.637,0,0,0-5.922.763c-1.278.247-2.6.5-3.882.639a.139.139,0,0,1,0,.141c-.071.114-.345.174-.792.174a11.269,11.269,0,0,1-3.043-.511c-1.175-.5-1.072-1.973-.73-2.783.848-2,2.76-3.853,5.684-5.5a35.168,35.168,0,0,1,17.2-4.3,46.2,46.2,0,0,1,7.874.694,38.66,38.66,0,0,1,16.118,6.788l.539.4a38.454,38.454,0,0,1,7.426,6.972c2.386,3.074,3.522,6.164,3.377,9.184a8.009,8.009,0,0,1-2.417,5.386A7.458,7.458,0,0,1,178.159,31.588Z" transform="translate(52 62)"/></svg>