<svg xmlns="http://www.w3.org/2000/svg" width="289" height="293" viewBox="0 0 289 293"><ellipse cx="55" cy="42.5" rx="55" ry="42.5" transform="translate(52 79)" fill="#fff"/><path d="M39,69c23.748,0,47-15.446,47-34.5S66.748,0,43,0,0,15.446,0,34.5c0,10.452,3.449,3.672,12.6,10C20.131,49.7,28.279,69,39,69Z" transform="translate(156 79)" fill="#fff"/><path d="M163.058,184.159c-1.385,0-2.817-.077-4.2-.152-1.024-.055-2.083-.113-3.134-.14-4.8-.125-9.727-.215-14.648-.267-6.449-.067-13.022-.1-19.535-.1-3.217,0-6.493.008-9.737.025-1.314.006-2.656.01-3.989.01-7.143,0-14.69-.095-22.431-.282l-3.772-.1c-1.936-.053-3.927-.081-5.851-.108-7.147-.1-14.537-.2-21.526-1.586l-.382-.066.011-.019a2.467,2.467,0,0,1-1.569-2.119,1.7,1.7,0,0,1,1.056-1.709c7.78-3.607,16.535-5.366,25-7.066,1.112-.223,2.262-.454,3.39-.686,8.719-1.788,18.234-3.261,29.089-4.5,8.664-.99,18.239-1.813,29.272-2.517,4.857-.312,9.968-.589,15.623-.848l.825-.043c.655-.037,1.309-.081,1.942-.124,1.568-.106,3.19-.215,4.754-.215a17.165,17.165,0,0,1,9.433,2.351,10.636,10.636,0,0,1,3.772,3.991,10.473,10.473,0,0,1-3.772,13.922,14.61,14.61,0,0,1-4.714,1.893A22.784,22.784,0,0,1,163.058,184.159Zm-35.514-33.975a29.5,29.5,0,0,1-6.839-.768,22.536,22.536,0,0,1-6.258-2.49,8.616,8.616,0,0,1-3.806-4.995,11.48,11.48,0,0,1-.092-6.357,9.044,9.044,0,0,1,2.586-4.382,7.121,7.121,0,0,1,4.847-1.817,9.1,9.1,0,0,1,1.2.081c1.435.191,2.853.448,4.224.7a43.524,43.524,0,0,0,7.767.94,17.048,17.048,0,0,0,6.889-1.37,4.459,4.459,0,0,0,2.485-2.483,7.582,7.582,0,0,0,.351-3.618,30.869,30.869,0,0,0-2.221-7.524l-.131-.332a123.751,123.751,0,0,0-6.049-12.483c-1.237-2.327-2.516-4.733-3.675-7.126l-.584-1.228c-.732-1.567-1.511-3.131-2.336-4.787-1.389-2.788-2.824-5.668-4.022-8.575a71.541,71.541,0,0,1-5.113,15.593c-4.868,10.837-14.341,18.472-27.4,22.082a104.585,104.585,0,0,1-16.49,3.032,159.138,159.138,0,0,1-17.025.87c-2.037,0-4.122-.035-6.2-.1a68.448,68.448,0,0,1-19.4-3.253,42.754,42.754,0,0,1-16.783-10A35.469,35.469,0,0,1,4.9,96.155a40.3,40.3,0,0,1-2.1-15.65,46.352,46.352,0,0,1,4.86-18.036,44.9,44.9,0,0,1,5.076-7.916,41.4,41.4,0,0,1,6.662-6.62,70.213,70.213,0,0,1,18.239-10.29,64.249,64.249,0,0,1,10.258-2.971A53.787,53.787,0,0,1,58.351,33.6a46.209,46.209,0,0,1,4.939.261,40.027,40.027,0,0,1,8.749-.9,69.754,69.754,0,0,1,15.217,1.9,56.7,56.7,0,0,1,14.917,5.589A43.294,43.294,0,0,1,114.388,50.3a28.284,28.284,0,0,1,1.752-3.632.609.609,0,0,1-.334-.445.438.438,0,0,1,.144-.4c.528-.475,1.079-.937,1.611-1.385l.045-.037A33.159,33.159,0,0,1,126.19,36.2l.644-.431a49.591,49.591,0,0,1,8.968-4.756,27.322,27.322,0,0,1,9.96-2.135,16.047,16.047,0,0,1,6.441,1.273,4.426,4.426,0,0,1,1.187.76,46.829,46.829,0,0,1,6.029.509,51.549,51.549,0,0,1,22.216,9.135A50.114,50.114,0,0,1,197.3,58.7c4.02,8.04,5.2,16.458,3.409,24.345S194.21,98,187.107,103.46a54.759,54.759,0,0,1-11.536,6.867,43.289,43.289,0,0,1-12.952,3.431c-1.3.128-2.442.19-3.489.19a17.8,17.8,0,0,1-5.4-.736,34.175,34.175,0,0,1,2.88,8.965,26.558,26.558,0,0,1,.214,7.673,20.6,20.6,0,0,1-2.029,6.746,19.862,19.862,0,0,1-4.242,5.6,24.629,24.629,0,0,1-6.427,4.236A40.3,40.3,0,0,1,127.544,150.185ZM48.668,42.7l-.523.174a56.635,56.635,0,0,0-13.816,6.789,54.443,54.443,0,0,0-11.315,10.37,35.812,35.812,0,0,0-6.875,13.233A31.839,31.839,0,0,0,15.458,87.6,25.414,25.414,0,0,0,28.572,105.5c6.2,3.392,13.715,4.971,23.649,4.971,2.053,0,4.3-.065,6.86-.2l2.082-.111c8.34-.46,17.99-1.162,26.979-3.682a30.244,30.244,0,0,0,12.081-6.365A29.153,29.153,0,0,0,107.9,88.8l.3-.781A43.9,43.9,0,0,0,111.482,73.3a23.6,23.6,0,0,0-.954-7.249,20.81,20.81,0,0,0-3.544-6.794,30.472,30.472,0,0,0-6.736-6.271,40.415,40.415,0,0,0-8.5-4.42A56.868,56.868,0,0,0,62.009,46,43.41,43.41,0,0,0,52.885,48.7a4.547,4.547,0,0,1-1.792.387,3.561,3.561,0,0,1-3.241-1.986,3.887,3.887,0,0,1,.6-4.146Zm104.417-3.663h0a4.906,4.906,0,0,1-.883.7,20.054,20.054,0,0,1-7.247,2.223c-1.095.189-2.225.385-3.335.66a44.354,44.354,0,0,0-9.689,3.406,120.8,120.8,0,0,0-14.384,8.6,36.6,36.6,0,0,1,2.606,4.963,34.115,34.115,0,0,1,2.555,15.026,64.473,64.473,0,0,1,6.264,6.559c.782.9,1.59,1.829,2.4,2.715l2.485,2.733c2.8,3.083,5.756,6.4,8.473,9.785,1.476,1.835,3.185,3.974,4.793,6.138a7.017,7.017,0,0,1,.9-1.824A6.134,6.134,0,0,1,153.1,97.87a6.46,6.46,0,0,1,1.482.177,21.31,21.31,0,0,1,2.347.738,11.5,11.5,0,0,0,4.034.9h.134a27.469,27.469,0,0,0,8.623-1.557A37.525,37.525,0,0,0,184.9,88.771a17.7,17.7,0,0,0,4.467-7.8,20.05,20.05,0,0,0,.279-8.5,36.567,36.567,0,0,0-7.589-15.957,47.35,47.35,0,0,0-13.029-11.384,49.976,49.976,0,0,0-15.941-6.094ZM40.459,138.318a37.986,37.986,0,0,1-9.595-1.357,67.6,67.6,0,0,1-9.136-3.2c-9.237-3.91-16.489-9.528-21.557-16.7a.911.911,0,0,1-.057-.973,1.216,1.216,0,0,1,1.027-.652.922.922,0,0,1,.506.149c6,3.867,14.025,8.647,22.973,11.315a78.2,78.2,0,0,0,13.118,2.337,89.676,89.676,0,0,1,11.411,1.868,2.618,2.618,0,0,1,2.1,2.445,3.329,3.329,0,0,1-.5,1.916,3.207,3.207,0,0,1-1.6,1.334A24.446,24.446,0,0,1,40.459,138.318ZM74.8,89.9a11.24,11.24,0,0,1-8.509-3.81,17.109,17.109,0,0,1-2.572-18.023,11.167,11.167,0,0,1,7.075-5.979,6.87,6.87,0,0,1,1.9-.253,8.8,8.8,0,0,1,4.008.98,5.861,5.861,0,0,1,2.772,2.807l.894,2.114-.01-.018c.291.694.62,1.48.875,2.285l.877.68a25.686,25.686,0,0,1,2.078,2.633,11.68,11.68,0,0,1,1.17,8.741,10.291,10.291,0,0,1-3.9,5.7A11.319,11.319,0,0,1,74.873,89.9Zm82.042-3.063a10.139,10.139,0,0,1-9.791-7.488,28.484,28.484,0,0,1-2.093-10.122,10.748,10.748,0,0,1,3.388-8.026,12.235,12.235,0,0,1,3.677-2.419,12.541,12.541,0,0,1,4.382-1c.158-.007.318-.011.476-.011a9.788,9.788,0,0,1,4.3.974,10.711,10.711,0,0,1,3.357,2.578,13.992,13.992,0,0,1,3.318,7.9,28.406,28.406,0,0,1-1.358,10.327A10.065,10.065,0,0,1,156.841,86.834ZM9.244,29.045c-2.571,0-5.863-.185-8.517-1.631a.411.411,0,0,1-.216-.288.558.558,0,0,1,.122-.447C3.215,23.5,8.04,21.851,12.3,20.4c.87-.3,1.692-.578,2.472-.865l.39-.145c6.48-2.443,12.258-4.415,17.664-6.028l3.03-.9A281.2,281.2,0,0,1,69.875,4.247a15.6,15.6,0,0,1,2.475-.2,12.185,12.185,0,0,1,7.562,2.409,10.526,10.526,0,0,1,3.934,7.1A10.51,10.51,0,0,1,81.8,21.646a11.425,11.425,0,0,1-3.858,3.116,14.569,14.569,0,0,1-5.09,1.473c-10.162,1.08-20.631,1.5-30.755,1.9H42.09c-2.371.095-4.823.193-7.225.3-4.614.2-9.633.319-15.8.373l-2.633.02c-1.027.006-2.1.053-3.244.1C11.9,28.988,10.571,29.045,9.244,29.045Zm171.524-5.506a179.074,179.074,0,0,1-22.6-1.945h-.006c-2.17-.279-4.414-.568-6.579-.822-4.868-.569-9.83-1.3-14.628-2-7.477-1.094-15.208-2.225-22.807-2.8a8.314,8.314,0,0,1-5.2-2.184,7.58,7.58,0,0,1-2.243-4.4,7.861,7.861,0,0,1,.954-5.006A8.4,8.4,0,0,1,112.088.741,11.244,11.244,0,0,1,116.05,0a10.221,10.221,0,0,1,7,2.772C129.295,4.511,135.756,6,142,7.44l.011,0c3.092.713,6.29,1.449,9.409,2.2l2.56.629c2.462.614,5.025,1.211,7.5,1.788,9.606,2.236,19.538,4.548,28.218,8.818a.953.953,0,0,1,.58,1.052,1.427,1.427,0,0,1-1.171,1.132A68.715,68.715,0,0,1,180.767,23.539Z" transform="translate(44 44)"/></svg>