<svg xmlns="http://www.w3.org/2000/svg" width="289" height="293" viewBox="0 0 289 293"><path d="M11.051,12.3C26.978-.063,111.7-3.786,120.111,4.259s28.161,31.3-9.639,46.044-85.928,13.869-99.421,0S-4.876,24.669,11.051,12.3Z" transform="translate(84.328 198.89)" fill="#fff"/><path d="M82.575,217.937c-16.93,0-30.444-3.339-41.315-10.208a33.542,33.542,0,0,1-12.3-13.163,25.452,25.452,0,0,1-1.978-17.692,30.288,30.288,0,0,1,3.5-8.456,33.99,33.99,0,0,1,5.671-7.027A41.261,41.261,0,0,1,51.743,152.2a55.439,55.439,0,0,1,17.472-2.55,160.284,160.284,0,0,1,21.113,1.892h.01l2.437.326c.742.1,1.5.2,2.223.288h.008l.754.1c1.437-.459,2.887-1,4.29-1.521,1.7-.634,3.461-1.289,5.21-1.8a49.568,49.568,0,0,1,12.677-2.1c1.382-.047,2.79-.1,4.151-.16h.017c3.29-.135,6.69-.274,10.032-.274a76.843,76.843,0,0,1,11.309.726,39.692,39.692,0,0,1,10.339,2.991,35.1,35.1,0,0,1,9.052,5.737c5.8,5.124,8.848,11.633,8.827,18.823-.034,11.585-5.87,21.048-17.346,28.126-10.542,6.5-23.748,9.652-32.97,11.15l-2.321.375C107.314,216.2,94.792,217.936,82.575,217.937Zm32.27-37.743-13.189,1.728c-4.76.624-9.744,1.255-14.811,1.875a160.878,160.878,0,0,1,.517,20.4,183.37,183.37,0,0,0,26.57-2.812C114.552,193.813,114.851,186.882,114.845,180.194Zm-39,5c-12.366,1.347-24.478,2.512-36,3.463,2.694,5.2,9.63,8.545,14.975,10.431a82.128,82.128,0,0,0,18.731,4.106A169.428,169.428,0,0,0,75.845,185.194Zm87-10h0c-5.654.927-11.5,1.536-17.146,2.125h-.006c-3.386.353-6.886.718-10.282,1.145l-10.562,1.329c1.1,6.527,1.915,13.055,2.421,19.4l1.645-.322a100.957,100.957,0,0,0,11.024-2.763,52.964,52.964,0,0,0,10.377-4.473l.553-.327a33.552,33.552,0,0,0,8.014-6.742,19.29,19.29,0,0,0,2.9-4.486,11.262,11.262,0,0,0,1.064-4.887Zm-86-10c-1.633.147-3.32.263-4.951.375a89.9,89.9,0,0,0-12.943,1.517,36.907,36.907,0,0,0-12.515,5.08c-4.223,2.876-6.727,6.492-7.442,10.747a10.142,10.142,0,0,0,.176,4.281c11.8-2.238,24.291-4.422,37.12-6.493C76.616,175.039,76.758,169.439,76.845,165.193Zm32.075-3-8.116.707c-3.368.294-6.795.479-10.109.658-2.573.139-5.233.283-7.85.476a96.926,96.926,0,0,1,3.2,14.159c5.329-.822,10.163-1.55,14.777-2.226l14.028-2.053-.019-3.542c-.015-2.125-.043-4.641-.136-7.188l-.584-.048a42.074,42.074,0,0,1-5.187-.943Zm11.925,1.769c.782,2.506,1.782,5.82,2.585,9.23l10.808-1.577c3.375-.492,6.832-1.071,10.176-1.631,4.728-.792,9.618-1.611,14.432-2.213-4.571-4.1-12.417-4.579-17.921-4.579-1.717,0-3.355.05-4.8.095l-.1,0c-2.06.063-4.169.19-6.209.313-2.912.176-5.922.358-8.873.358h-.1Zm.356-23.734h0a34.914,34.914,0,0,1-12.449-2.509,62.873,62.873,0,0,1-14.64-8.307,5.625,5.625,0,0,1-2.043-3.249,6.731,6.731,0,0,1,.29-3.648,8.3,8.3,0,0,1,2.464-3.562,6,6,0,0,1,3.841-1.5,5.45,5.45,0,0,1,2.971.912q.473.363.991.764l.011.009a79.251,79.251,0,0,0,9.164,6.373c4.14,2.357,7.733,3.5,10.984,3.5a11.861,11.861,0,0,0,4.642-.913,12.971,12.971,0,0,0,4.322-3.063,13.253,13.253,0,0,0,2.515-10.671,20.156,20.156,0,0,0-5.35-9.465,39,39,0,0,0-8.1-6.536,2.51,2.51,0,0,1-.679-2.886,3.768,3.768,0,0,1,1.248-1.8,3.829,3.829,0,0,1,2.391-.79,5.09,5.09,0,0,1,.86.076,27.157,27.157,0,0,1,9.55,3.45,21.664,21.664,0,0,1,6.423,5.922,23.527,23.527,0,0,1,4.1,15.718,25.9,25.9,0,0,1-2.1,8.25,24.07,24.07,0,0,1-4.734,7.088A22.625,22.625,0,0,1,121.2,140.229ZM162.062,113.2c-.886,0-3.4-1.782-6.9-4.888a147.335,147.335,0,0,1-11.669-11.753A112.115,112.115,0,0,1,132.5,82.3c-3.234-5.138-4.874-9.3-4.874-12.383a23.279,23.279,0,0,1,4.094-12.981,16.077,16.077,0,0,1,4.9-4.628,12.814,12.814,0,0,1,6.606-1.806,18.2,18.2,0,0,1,8.639,2.451,41.874,41.874,0,0,1,10.2,8.275A18.914,18.914,0,0,1,191.218,60.1a15.485,15.485,0,0,1,3.129,5.69,15.872,15.872,0,0,1,.438,6.984c-.6,3.9-2.514,8.424-5.7,13.438a94.031,94.031,0,0,1-10.284,13.1,106.934,106.934,0,0,1-10.475,9.938C165.3,111.723,162.956,113.2,162.062,113.2ZM46.731,110.8c-2.75,0-11.472-8.914-17.84-15.423-2.726-2.786-5.081-5.193-6.24-6.144a47.647,47.647,0,0,1-8.426-9.056,24.4,24.4,0,0,1-3.352-6.657,12.786,12.786,0,0,1-.264-7.1A23.283,23.283,0,0,1,16.73,56.33a18.007,18.007,0,0,1,12.555-5.394c5.138,0,10.525,2.3,16.011,6.833a13.937,13.937,0,0,1,5.57-6.9,14.526,14.526,0,0,1,7.727-2.026,24.308,24.308,0,0,1,10.666,2.7,20.377,20.377,0,0,1,7.626,6.22,20.663,20.663,0,0,1,3.139,7.173,22.079,22.079,0,0,1,.341,7.514,26.922,26.922,0,0,1-2.021,7.363,31.607,31.607,0,0,1-3.949,6.72c-3.056,4-9.624,10.227-14.752,14.723-6.373,5.588-11.38,9.326-12.756,9.523A1.107,1.107,0,0,1,46.731,110.8ZM1.27,59.318a1.066,1.066,0,0,1-.945-.477c-.573-.86-.392-2.857.539-5.938.732-2.422,1.7-4.738,2.013-5.5l.007-.016.061-.147A65.446,65.446,0,0,1,14.71,28.416a51.174,51.174,0,0,1,12.557-10.1c5.361-3.051,10.667-4.664,15.345-4.664a17.057,17.057,0,0,1,14.1,7.035,6.194,6.194,0,0,1,.688,5.978,7.687,7.687,0,0,1-5.15,4.991,44.07,44.07,0,0,1-7.378.849,37.747,37.747,0,0,0-8.426,1.133c-4.908,1.427-9.517,4.292-13.378,6.907A83.122,83.122,0,0,0,10.21,51.2a28.713,28.713,0,0,0-2.09,2.549c-1.967,2.576-4.2,5.5-6.8,5.572Zm180.275-25.3a1.53,1.53,0,0,1-.605-.131,43.1,43.1,0,0,1-7.762-4.812c-2.911-2.1-5.921-4.28-9.472-5.5l-1.205-.411c-5.331-1.8-13.214-4.182-20.093-4.182-.295,0-.59,0-.878.013a12.662,12.662,0,0,1-3.865.608,10.018,10.018,0,0,1-5.425-1.455,7.173,7.173,0,0,1-3.215-4.717l-.056-.285-.108-.6a12.659,12.659,0,0,1,.42-6.266,7.808,7.808,0,0,1,4.048-4.718A16.7,16.7,0,0,1,140.534,0a37.384,37.384,0,0,1,9.626,1.651l2.446.679c6.166,1.714,12.579,3.794,17.711,7.38l.408.289A41.547,41.547,0,0,1,180.84,20.222a17.45,17.45,0,0,1,2.733,6.564,10.211,10.211,0,0,1-1.094,6.7A1.015,1.015,0,0,1,181.545,34.017Z" transform="translate(50 46)"/></svg>