<svg xmlns="http://www.w3.org/2000/svg" width="289" height="293" viewBox="0 0 289 293"><path d="M110.611,188.294c-.972,0-1.954-.015-2.9-.03l-.113,0h-.006c-.9-.014-1.838-.028-2.747-.028l-.668,0-.392,0c-.851.012-1.706.018-2.543.018A148.2,148.2,0,0,1,79.8,186.8a1.128,1.128,0,0,1-.9-1.041,1.177,1.177,0,0,1,.6-1.272,149.39,149.39,0,0,1,21.351-7.4l2.133-.567c.987-.269,2-.564,2.974-.849l.007,0c3.833-1.119,7.8-2.275,11.642-2.275a15.165,15.165,0,0,1,8.239,2.268,4.759,4.759,0,0,1,2.237,3.4,4.871,4.871,0,0,1-1.287,3.962,15.139,15.139,0,0,1-7.481,4.393A34.463,34.463,0,0,1,110.611,188.294Zm3.589-86.065h0a34.912,34.912,0,0,1-12.448-2.509,62.872,62.872,0,0,1-14.639-8.307,5.626,5.626,0,0,1-2.043-3.25,6.732,6.732,0,0,1,.29-3.649,8.3,8.3,0,0,1,2.464-3.562,6,6,0,0,1,3.84-1.5,5.45,5.45,0,0,1,2.972.912q.478.367,1,.772a79.246,79.246,0,0,0,9.165,6.373c4.141,2.357,7.734,3.5,10.984,3.5a11.862,11.862,0,0,0,4.641-.912,12.971,12.971,0,0,0,4.322-3.062,13.254,13.254,0,0,0,2.514-10.671,20.156,20.156,0,0,0-5.35-9.465,39.006,39.006,0,0,0-8.1-6.536,2.512,2.512,0,0,1-.679-2.887,3.768,3.768,0,0,1,1.248-1.8,3.829,3.829,0,0,1,2.39-.79,5.094,5.094,0,0,1,.86.076,27.156,27.156,0,0,1,9.55,3.45,21.663,21.663,0,0,1,6.423,5.922,23.527,23.527,0,0,1,4.1,15.718,25.9,25.9,0,0,1-2.1,8.25,24.071,24.071,0,0,1-4.734,7.089A22.625,22.625,0,0,1,114.2,102.229Zm-76.221-53.6a8,8,0,0,1-2.859-.64c-.121.01-.245.015-.37.015a10.37,10.37,0,0,1-4.026-1.175,8.931,8.931,0,0,1-2.841-1.969,3.733,3.733,0,0,1-1.119-.464,6.311,6.311,0,0,1-2.458-2.965,11.025,11.025,0,0,1-.828-3.823c0-.089,0-.183-.005-.273,0-.07,0-.136,0-.2-.094-.378-.165-.72-.22-1.044-.744-4.432.105-9.372,1.134-14.049.1-.468.2-.961.3-1.483.135-.7.274-1.428.446-2.14l-.909-.035c-1.948-.076-3.962-.154-5.95-.236-1.227-.05-2.513-.054-3.724-.054H13.359c-4.974,0-9.393-.138-13.107-1.835A.412.412,0,0,1,0,15.913a.624.624,0,0,1,.25-.544c3.891-2.782,9.576-3.722,14.592-4.551,1.333-.22,2.589-.428,3.793-.664l.5-.1c6.857-1.406,13.773-2.612,21.146-3.687C55.318,4.174,70.24,3.164,81.56,2.53,100.1,1.492,118.984,1.094,137.247.71c9.531-.2,19.384-.408,29.069-.7.116,0,.233-.005.347-.005A8.4,8.4,0,0,1,172.8,2.409a9.885,9.885,0,0,1,2.659,7.057,10.157,10.157,0,0,1-2.309,6.509,8.609,8.609,0,0,1-6.782,2.959h-.048c-2.478-.011-4.994-.015-7.428-.019h-.1l-3.39-.006a31.706,31.706,0,0,1-2.912,23.383,7.566,7.566,0,0,1-2.9,2.8,7.925,7.925,0,0,1-3.781.958,7.6,7.6,0,0,1-5.4-2.2,19.989,19.989,0,0,1-3.67-4.994,21.538,21.538,0,0,1-1.983-5.7,26.935,26.935,0,0,1,.521-12.172l-.442-1.047a6.623,6.623,0,0,1-.331-1.039c-7.857.007-15.83.021-23.54.036l-11.756.021L81.56,18.97c-3.52,0-7.083.011-10.528.021-3.726.01-7.579.021-11.373.021-4.76,0-8.725-.016-12.48-.051l.01.015a5.154,5.154,0,0,1,.387.653A17.793,17.793,0,0,1,48.82,24.66a29.72,29.72,0,0,1-.1,8.581,18.247,18.247,0,0,1-2.042,6.367l-.007.041c-.5,2.152-1.149,4.394-2.963,6.086a5.963,5.963,0,0,1-1.587,1.089,5.58,5.58,0,0,1-4.086,1.808Z" transform="translate(57 84)"/></svg>