<svg xmlns="http://www.w3.org/2000/svg" width="289" height="293" viewBox="0 0 289 293"><path d="M1.039,29.891C5.612,15.79,55.226-4.961,63.59,1.073s-2.424,49.141-2.424,49.141-46.269,4.8-49.579,2.4S-3.535,43.991,1.039,29.891Z" transform="translate(104.778 201.257)" fill="#fff"/><path d="M58,194.872a38.491,38.491,0,0,1-9.588-1.066,20.853,20.853,0,0,1-8.053-3.876,26.875,26.875,0,0,1-7.073-8.572,24.809,24.809,0,0,1-2.694-9.842,28.7,28.7,0,0,1,2.061-12.425A35.072,35.072,0,0,1,39.9,147.883a48.187,48.187,0,0,1,13.112-9.416A103.11,103.11,0,0,1,68.6,132.24a101.56,101.56,0,0,1,16.036-3.406,142.946,142.946,0,0,1,19.443-1.411,74.09,74.09,0,0,1,15.319,1.362c4.7,1.016,8.038,2.574,9.921,4.632a.254.254,0,0,1,.052.29.6.6,0,0,1-.516.307.381.381,0,0,1-.225-.068,9.113,9.113,0,0,0-5.457-1.533A25.419,25.419,0,0,0,115.146,134c0,.1-.336,10.895-.485,21.953-.191,14.231.026,21.973.628,22.388.564.389,3.955.544,7.882.724,6.488.3,14.562.667,14.562,2.263,0,4.407-3.458,7.05-6.358,8.49a25.133,25.133,0,0,1-5.854,1.982,28.236,28.236,0,0,1-5.775.634c-.505,0-1-.017-1.458-.051-2.243-.163-4.54-.363-6.761-.556-5.607-.487-11.4-.99-17.088-.99a75.874,75.874,0,0,0-8.779.47c-2.09.242-4.584.686-7.471,1.2C72.284,193.562,64.933,194.872,58,194.872ZM100.764,165.2a.263.263,0,0,0-.1.019c-5.495,2.138-33.581,11.427-40.291,13.126,1.615-.116,4.073-.236,6.92-.375,10.717-.523,28.648-1.4,33.371-3.685.612-2.469.988-8.09.3-8.966A.265.265,0,0,0,100.764,165.2Zm4.18-30.007c-7.434,1.208-19.362,4.54-30.387,8.491-12.158,4.356-20.359,8.4-22.5,11.091,6.9-1.084,47.187-5.943,51.8-5.943a44.068,44.068,0,0,0,.448-6.067A45.656,45.656,0,0,1,104.944,135.191Zm5.257-25.962h0a34.912,34.912,0,0,1-12.448-2.509,62.872,62.872,0,0,1-14.639-8.307,5.626,5.626,0,0,1-2.043-3.25,6.732,6.732,0,0,1,.29-3.649,8.3,8.3,0,0,1,2.464-3.562,6,6,0,0,1,3.84-1.5,5.45,5.45,0,0,1,2.971.912q.477.366,1,.771a79.265,79.265,0,0,0,9.166,6.374c4.141,2.357,7.734,3.5,10.984,3.5a11.862,11.862,0,0,0,4.642-.912,12.972,12.972,0,0,0,4.322-3.062,13.255,13.255,0,0,0,2.515-10.672,20.156,20.156,0,0,0-5.35-9.465,39,39,0,0,0-8.1-6.536,2.512,2.512,0,0,1-.679-2.887,3.768,3.768,0,0,1,1.248-1.8,3.829,3.829,0,0,1,2.39-.79,5.093,5.093,0,0,1,.86.076,27.156,27.156,0,0,1,9.55,3.45,21.663,21.663,0,0,1,6.423,5.922,23.527,23.527,0,0,1,4.1,15.718,25.9,25.9,0,0,1-2.1,8.25,24.071,24.071,0,0,1-4.734,7.089A22.625,22.625,0,0,1,110.2,109.229Zm38.666-30.695a6.865,6.865,0,0,1-5.139-2.306c-1.254-1.33-2.963-3.984-3.978-9.067a38.674,38.674,0,0,1-.7-9.275l.05-.766a40.365,40.365,0,0,1,3.061-13.406c1.789-3.894,4.108-5.952,6.709-5.952,5.049,0,8.166,4.392,9.891,8.077a33.581,33.581,0,0,1,3.017,12.86v.225a29.729,29.729,0,0,1-3.317,12.229,17.116,17.116,0,0,1-4.02,5.226A8.576,8.576,0,0,1,148.866,78.534Zm-109.342,0a8.577,8.577,0,0,1-5.57-2.155,17.115,17.115,0,0,1-4.02-5.226,29.73,29.73,0,0,1-3.316-12.229V58.7a33.569,33.569,0,0,1,3.016-12.86c1.725-3.685,4.842-8.077,9.891-8.077,2.666,0,5.029,2.155,6.834,6.231a41.59,41.59,0,0,1,2.986,13.893l.021.416a39.376,39.376,0,0,1-.794,9.207c-.82,3.894-2.19,6.929-3.961,8.775A6.849,6.849,0,0,1,39.524,78.534ZM172.724,38.7c-.28,0-.566-.012-.853-.035a45.308,45.308,0,0,1-16.292-4.961,74.1,74.1,0,0,1-14.332-9.461A80.48,80.48,0,0,1,130.8,13.24l-.6-.741a25.465,25.465,0,0,1-3.656-5.469,8.674,8.674,0,0,1-.437-6.3.48.48,0,0,1,.452-.345h.084c3.625,0,6.042,1.978,8.6,4.073.535.438,1.089.891,1.659,1.33a48.871,48.871,0,0,0,11.552,6.356,81.969,81.969,0,0,0,13.024,3.963,42.826,42.826,0,0,0,7,.753,47.28,47.28,0,0,1,6.259.6,8.85,8.85,0,0,1,6.145,4.126,11.584,11.584,0,0,1,1.491,7.055,12.288,12.288,0,0,1-2.85,6.95A8.807,8.807,0,0,1,172.724,38.7ZM5.808,37.089a9.968,9.968,0,0,1-5.439-1.3A.763.763,0,0,1,.1,34.76c1.688-2.923,5.5-4.55,8.867-5.986,1.168-.5,2.271-.969,3.247-1.472,4.3-2.216,8.82-4.69,14.649-8.02,5.065-2.894,9.972-5.756,14.584-8.506,1.845-1.1,3.7-2.379,5.5-3.617a59.152,59.152,0,0,1,9.71-5.817A15.728,15.728,0,0,1,62.814,0a11.148,11.148,0,0,1,5.368,1.3,10.858,10.858,0,0,1,4.209,4.169,11.066,11.066,0,0,1,1.1,8.671A12.662,12.662,0,0,1,68.265,21.2c-4.25,2.823-9.619,4.536-14.811,6.193-1.011.323-1.964.627-2.913.94l-.644.215a147.667,147.667,0,0,1-17.158,4.675c-5.027,1.047-10.421,1.913-16.492,2.649l-1.661.2c-.834.1-1.724.236-2.665.383A40.138,40.138,0,0,1,5.808,37.089Z" transform="translate(61 70)"/></svg>