<svg xmlns="http://www.w3.org/2000/svg" width="289" height="293" viewBox="0 0 289 293"><path d="M125.2,168.334a29.563,29.563,0,0,1-9.139-1.392,30.233,30.233,0,0,1-9.363-5.083,30.681,30.681,0,0,1-7.1-8.016,24.694,24.694,0,0,1-3.31-8.76,20.84,20.84,0,0,1,.6-9.5.946.946,0,0,1,.683-.58,22.621,22.621,0,0,1,3.526,4.278l.017.024a37.54,37.54,0,0,0,5.572,6.839,27.405,27.405,0,0,0,5.665,3.932,23.053,23.053,0,0,0,6.5,2.289,19.365,19.365,0,0,0,12.617-1.977,31.76,31.76,0,0,0,6.141-4.627l.225-.2a20.848,20.848,0,0,1,6.674-4.544,5.833,5.833,0,0,1,2.017-.357,7.478,7.478,0,0,1,4.454,1.62,8.916,8.916,0,0,1,2.416,2.787,6.888,6.888,0,0,1,.884,3.5,14.625,14.625,0,0,1-4.192,9.571c-1.97,2.135-5.689,5.218-12.216,7.784A34.981,34.981,0,0,1,125.2,168.334Zm5-55.106h0a34.911,34.911,0,0,1-12.448-2.509,62.87,62.87,0,0,1-14.639-8.307,5.626,5.626,0,0,1-2.043-3.25,6.732,6.732,0,0,1,.29-3.649,8.3,8.3,0,0,1,2.464-3.562,6,6,0,0,1,3.841-1.5,5.45,5.45,0,0,1,2.971.912q.477.366,1,.77a79.274,79.274,0,0,0,9.167,6.375c4.14,2.357,7.733,3.5,10.984,3.5a11.861,11.861,0,0,0,4.642-.913,12.972,12.972,0,0,0,4.322-3.063,13.253,13.253,0,0,0,2.515-10.67,20.157,20.157,0,0,0-5.35-9.466,39.007,39.007,0,0,0-8.1-6.537,2.51,2.51,0,0,1-.679-2.886,3.768,3.768,0,0,1,1.248-1.8,3.829,3.829,0,0,1,2.391-.79,5.093,5.093,0,0,1,.86.076,27.155,27.155,0,0,1,9.55,3.45,21.663,21.663,0,0,1,6.423,5.922,23.527,23.527,0,0,1,4.1,15.718,25.9,25.9,0,0,1-2.1,8.25,24.071,24.071,0,0,1-4.734,7.089A22.625,22.625,0,0,1,130.2,113.228Zm38.665-37.7a6.865,6.865,0,0,1-5.139-2.306c-1.254-1.331-2.962-3.984-3.978-9.067a38.654,38.654,0,0,1-.7-9.275l.05-.766a40.353,40.353,0,0,1,3.06-13.406c1.789-3.894,4.108-5.952,6.708-5.952,5.05,0,8.166,4.392,9.892,8.077a33.58,33.58,0,0,1,3.017,12.86l0,.225a29.719,29.719,0,0,1-3.316,12.229,17.116,17.116,0,0,1-4.02,5.226A8.578,8.578,0,0,1,168.865,75.533Zm-109.341,0a8.578,8.578,0,0,1-5.571-2.155,17.116,17.116,0,0,1-4.02-5.226,29.72,29.72,0,0,1-3.316-12.229l0-.225a33.579,33.579,0,0,1,3.017-12.86c1.726-3.685,4.842-8.077,9.891-8.077,2.666,0,5.029,2.155,6.834,6.231a41.582,41.582,0,0,1,2.985,13.893l.022.416a39.4,39.4,0,0,1-.795,9.208c-.821,3.895-2.19,6.929-3.961,8.775A6.849,6.849,0,0,1,59.524,75.533ZM93.4,37.166a83.99,83.99,0,0,1-12.562-.981c-5.767-.877-11.062-2.983-16.183-5.019-3.212-1.278-6.534-2.6-9.966-3.619a38.344,38.344,0,0,0-10.984-1.4A106.274,106.274,0,0,0,29.91,27.287l-3.142.423-.076.01c-4.579.617-9.314,1.255-13.912,2.162-1.347.266-2.717.613-4.042.948a40.065,40.065,0,0,1-8.07,1.464H.645a.665.665,0,0,1-.571-.382.57.57,0,0,1,.028-.6,37.779,37.779,0,0,1,9.658-8.721,90.647,90.647,0,0,1,11.56-6.4l.494-.231a106.744,106.744,0,0,1,13.905-5.489,59.247,59.247,0,0,1,14.67-2.7c.506-.024,1.022-.036,1.535-.036,6.271,0,12.229,1.833,17.991,3.605,3.133.964,6.372,1.96,9.645,2.661a44.953,44.953,0,0,0,9.4.974A64.4,64.4,0,0,0,106.367,12.3a12.592,12.592,0,0,1,3.389-.488,9.993,9.993,0,0,1,7.26,3.042,12.568,12.568,0,0,1,3.386,6.966,11.88,11.88,0,0,1-1.276,7.517,11.049,11.049,0,0,1-6.65,5.122A65.894,65.894,0,0,1,93.4,37.166Zm51.224-5.109a28.109,28.109,0,0,1-8.389-1.246,12.223,12.223,0,0,1-6.947-5.5,11.328,11.328,0,0,1-1.159-8.772,12.328,12.328,0,0,1,11.161-8.676,8.725,8.725,0,0,1,2.854.473l.263.1a12.111,12.111,0,0,0,4.336.741c3.6,0,7.427-1.233,11.029-2.565l4-1.5q.818-.31,1.637-.625C169.145,2.275,175.084,0,181.384,0h.248l.657.014a29.722,29.722,0,0,1,15.262,4.838,21.943,21.943,0,0,1,9.364,12.565.534.534,0,0,1-.089.473.592.592,0,0,1-.467.229.554.554,0,0,1-.385-.154,12.82,12.82,0,0,0-9.143-3.62c-5.572,0-11.492,2.971-16.715,5.592-1.279.642-2.487,1.248-3.659,1.8l-3.245,1.5-.679.316a144.278,144.278,0,0,1-13.6,5.773A43.842,43.842,0,0,1,144.62,32.057Z" transform="translate(41 65)"/></svg>