<svg xmlns="http://www.w3.org/2000/svg" width="289" height="293" viewBox="0 0 289 293"><path d="M107.608,203.81c-.662,0-1.33-.025-1.987-.075a28.832,28.832,0,0,1-14.54-5.149,27.2,27.2,0,0,1-9.483-12.1,31.17,31.17,0,0,1-2.069-12.562c.2-3.59,1.273-8.4,5.274-10.921a.357.357,0,0,1,.189-.051.351.351,0,0,1,.266.109c1.841,2.141,2.746,4.918,3.622,7.6a26.532,26.532,0,0,0,2.911,6.743,20.573,20.573,0,0,0,5.221,5.359,14.775,14.775,0,0,0,6.929,2.669,12.194,12.194,0,0,0,1.252.065c3.69,0,6.613-1.654,7.821-4.426a5.51,5.51,0,0,0,.408-4.091l-.273-1.1c-.924-3.751-1.407-6.7.8-10.533a10.223,10.223,0,0,1,3.211-3.331,8.141,8.141,0,0,1,4.418-1.467,5.774,5.774,0,0,1,.669.039,14.011,14.011,0,0,1,6.444,2.311,12.43,12.43,0,0,1,3.953,4.571,20.669,20.669,0,0,1,1.833,11.272,29.609,29.609,0,0,1-3.367,11.346,26.074,26.074,0,0,1-9.894,10.045A27.247,27.247,0,0,1,107.608,203.81ZM118.2,130.229h0a34.913,34.913,0,0,1-12.448-2.509,62.873,62.873,0,0,1-14.639-8.307,5.625,5.625,0,0,1-2.043-3.249,6.731,6.731,0,0,1,.29-3.648,8.3,8.3,0,0,1,2.464-3.562,6,6,0,0,1,3.841-1.5,5.45,5.45,0,0,1,2.971.912q.478.367,1,.772a79.252,79.252,0,0,0,9.165,6.373c4.141,2.357,7.734,3.5,10.984,3.5a11.862,11.862,0,0,0,4.641-.912,12.972,12.972,0,0,0,4.322-3.062,13.255,13.255,0,0,0,2.515-10.672,20.156,20.156,0,0,0-5.35-9.465,39,39,0,0,0-8.1-6.536,2.511,2.511,0,0,1-.679-2.887,3.768,3.768,0,0,1,1.249-1.8,3.831,3.831,0,0,1,2.391-.79,5.091,5.091,0,0,1,.859.076,27.157,27.157,0,0,1,9.55,3.45,21.663,21.663,0,0,1,6.423,5.922,23.527,23.527,0,0,1,4.1,15.718,25.9,25.9,0,0,1-2.1,8.25,24.072,24.072,0,0,1-4.734,7.089A22.626,22.626,0,0,1,118.2,130.229ZM35.636,97.765h0c-.177,0-.349,0-.528-.007a22.411,22.411,0,0,1-12.08-3.992,24.344,24.344,0,0,1-8.23-9.714,26.512,26.512,0,0,1-2.516-12.009,39.96,39.96,0,0,1,2.3-12.109.615.615,0,0,1,.565-.415.5.5,0,0,1,.376.166A69.669,69.669,0,0,1,23.495,70.5L25.981,74.4a24.354,24.354,0,0,0,3.364,4.307,6.579,6.579,0,0,0,4.528,2.167c.106,0,.213,0,.319-.011l.533-.052c.124-.011.229-.017.321-.022.61-.036.61-.036,1.184-1.051l.091-.16a4.268,4.268,0,0,0,.332-1.575,7.511,7.511,0,0,1,.125-.937l.059-.248-.032-.133a16.714,16.714,0,0,1-.21-2.188l-.013-.257c-.051-1.073-.15-2.191-.255-3.374-.418-4.7-.891-10.024,1.745-13.978A10.283,10.283,0,0,1,41.9,53.427a10.125,10.125,0,0,1,4.667-1.144,9.648,9.648,0,0,1,5.6,1.749,9.783,9.783,0,0,1,3.68,5.183c.855,2.763.46,5.3.043,7.983a28.134,28.134,0,0,0-.47,4.969,36.05,36.05,0,0,1-1.32,11.625,20.863,20.863,0,0,1-2.76,5.626,19.923,19.923,0,0,1-4.2,4.421A18.694,18.694,0,0,1,35.636,97.765ZM159.314,92.43c-.458,0-.923-.018-1.384-.053a19.4,19.4,0,0,1-8.939-3,19.037,19.037,0,0,1-6.438-6.873,33.125,33.125,0,0,1-3.362-10c-.488-3-.674-7.193,1.214-10.162a.564.564,0,0,1,.481-.273.608.608,0,0,1,.4.158c2.051,1.82,2.994,4.631,3.907,7.349a31.063,31.063,0,0,0,1.651,4.235c2.49,4.846,5.632,7.544,9.337,8.021a9.221,9.221,0,0,0,1.168.079,3.873,3.873,0,0,0,3.263-1.3c.782-1.019.911-2.618.374-4.626a31.322,31.322,0,0,0-2.516-6.036,23.109,23.109,0,0,1-2.907-8.429,7.032,7.032,0,0,1,1.717-5.552,9.367,9.367,0,0,1,14.113,1.264c2.143,3.392,2.8,7.7,3.28,11.827L174.9,71c.488,4.164.688,8.556-1.134,12.472a15.242,15.242,0,0,1-5.906,6.63A16.427,16.427,0,0,1,159.314,92.43ZM.832,47.187a.509.509,0,0,1-.523-.37,14.575,14.575,0,0,1,1.216-9.3,44.2,44.2,0,0,1,5.066-8.253A72.891,72.891,0,0,1,22.373,13.929C27.354,10.26,33.416,7.11,41.449,4.016l2.045-.783C47.726,1.634,52.657,0,57.144,0a14.207,14.207,0,0,1,4.668.723,10.483,10.483,0,0,1,4,2.5A10.535,10.535,0,0,1,67.49,16.2a10.074,10.074,0,0,1-5.264,4.427,29.583,29.583,0,0,1-6.757,1.423c-.568.075-1.156.152-1.733.236a72.845,72.845,0,0,0-17.65,4.882,114.356,114.356,0,0,0-17.815,9.668c-1.573,1.019-3.113,2.2-4.742,3.452C9.609,43.3,5.555,46.409.943,47.178A.678.678,0,0,1,.832,47.187Zm157.216-.08a134.72,134.72,0,0,1-18.818-1.375,126.109,126.109,0,0,1-16.157-3.19l-2.427-.7-.65-.185c-4.2-1.193-8.953-2.545-11.995-5.626a1.879,1.879,0,0,1-.547-1.748,2.311,2.311,0,0,1,1.437-1.622,26.945,26.945,0,0,1,9.531-1.353c1.446,0,2.93.047,4.239.088h.04c1.411.045,2.742.088,4.036.088.48,0,.918-.006,1.339-.018,6.454-.185,13.242-.653,20.75-1.433,4.886-.507,9.745-1.465,14.444-2.39,1.781-.351,3.623-.714,5.447-1.048l.625-.109a22.088,22.088,0,0,1,3.615-.339,9.933,9.933,0,0,1,7.686,3.16,9.686,9.686,0,0,1,2.464,4.333,8.6,8.6,0,0,1-.243,4.955A12.529,12.529,0,0,1,180.284,43,7.944,7.944,0,0,1,175.9,45.56,97.085,97.085,0,0,1,158.048,47.107Z" transform="translate(52.999 56)"/></svg>