<svg xmlns="http://www.w3.org/2000/svg" width="289" height="293" viewBox="0 0 289 293"><path d="M111.346,176.2a26.224,26.224,0,0,1-10.869-2.486,27.253,27.253,0,0,1-9.074-6.7,21.094,21.094,0,0,1-4.147-7.038,17.917,17.917,0,0,1-.82-8.27,2.822,2.822,0,0,1,3.056-2.525,4.518,4.518,0,0,1,3.541,1.663l.606.824a34.443,34.443,0,0,0,6.621,7.121,14.065,14.065,0,0,0,8.767,3.281,12.806,12.806,0,0,0,10.492-5.436,15.394,15.394,0,0,0,2.331-5.623,18.985,18.985,0,0,1,1.683-4.668,8.121,8.121,0,0,1,7.232-3.986c3.324,0,7.087,1.848,8,5.977a16.566,16.566,0,0,1-.311,8.3,22.354,22.354,0,0,1-3.952,7.488c-5.4,6.909-14.692,11.874-22.595,12.076C111.724,176.2,111.534,176.2,111.346,176.2Zm7.211-53.576c-6.917,0-14.914-1.778-23.769-5.281a6.26,6.26,0,0,1-3.215-2.936,5.861,5.861,0,0,1-.443-3.76A6.117,6.117,0,0,1,93,107.357a5.441,5.441,0,0,1,3.693-1.4,6.946,6.946,0,0,1,2.18.37l1.209.5.005,0c5.176,2.154,13,5.41,19.7,5.41a14.449,14.449,0,0,0,6.053-1.178,10.4,10.4,0,0,0,4.587-4.129,10.576,10.576,0,0,0-.18-8.8c-1.384-2.9-4.1-5.614-8.063-8.053a47.478,47.478,0,0,0-10.454-4.66,2.537,2.537,0,0,1-1.488-2.846c.208-1.2,1.269-2.506,3.626-2.56.288-.007.578-.01.863-.01,7.554,0,14.156,2.3,19.093,6.659a23.488,23.488,0,0,1,5.347,6.826,21.919,21.919,0,0,1,2.369,7.825,19.369,19.369,0,0,1-.686,7.638,17.473,17.473,0,0,1-3.769,6.712c-2.861,3.175-8.4,6.961-18.526,6.961h0ZM7.8,79.1a2.466,2.466,0,0,1-2.2-1.6,1.686,1.686,0,0,1,.571-1.952,84.247,84.247,0,0,1,13.982-9.215,96.277,96.277,0,0,1,15.621-6.606,10.044,10.044,0,0,1-1.451-4.075,8.519,8.519,0,0,1,.489-4.21c.173-.577.389-1.132.577-1.6l.445-1.085a7.835,7.835,0,0,1,.283-1.511l.023-.15.013.009a8.511,8.511,0,0,1,2.04-3.427,7.66,7.66,0,0,1,3.42-2.057,7.51,7.51,0,0,1,1.993-.27,7.786,7.786,0,0,1,3.061.633,9.114,9.114,0,0,1,4.592,2.4,10.369,10.369,0,0,1,2.761,4.4c.08.285.17.569.268.844l.154.415-.414-1.054a6.733,6.733,0,0,0,.708,1.74,8.5,8.5,0,0,1,.632,1.431A11.382,11.382,0,0,1,55.71,56.3c1.271.013,2.318.058,3.292.143l1.058.094C65.929,57.086,72.484,58.1,76,63.219a4.852,4.852,0,0,1,.8,2.607,6.6,6.6,0,0,1-.551,2.808,5.1,5.1,0,0,1-3.75,3.193,13.117,13.117,0,0,1-1.977.148,26.442,26.442,0,0,1-7.675-1.518,35.409,35.409,0,0,0-6.287-1.481,48.749,48.749,0,0,0-5.371-.29,58.884,58.884,0,0,0-10.567.989A138.342,138.342,0,0,0,22.11,74.86c-4.055,1.344-8.249,2.733-12.471,3.834l-1.42.361,0-.007A1.792,1.792,0,0,1,7.8,79.1Zm166.329-8.4a4.059,4.059,0,0,1-3.819-2.42l-.1-.212c-1.258-2.928-4.71-4.412-10.261-4.412a43.044,43.044,0,0,0-4.976.324,59.225,59.225,0,0,0-9.3,2.03c-1.111.32-2.192.663-3.195.986l-1.061.345c-.472.152-2.313,1.145-2.273,1.4.007.042.062.063.165.063a2.31,2.31,0,0,0,.428-.058.471.471,0,0,1,.1-.01.528.528,0,0,1,.494.412.387.387,0,0,1-.228.455,2.753,2.753,0,0,1-1.195.277,3.074,3.074,0,0,1-2.2-1.012,3.568,3.568,0,0,1-.973-2.649c.223-3.591,5.266-5.75,8.6-7.178.445-.191.866-.371,1.237-.538l.186-.085c1.229-.568,2.486-1.1,3.737-1.571a18.141,18.141,0,0,1-1.825-3.569,15.664,15.664,0,0,1-.96-3.691,3.609,3.609,0,0,1,0-1.9l.026-.181a5.876,5.876,0,0,1-.124-1.285l-.018-.168h.018a6.163,6.163,0,0,1,1.655-4.038,5.3,5.3,0,0,1,3.81-1.608,6.876,6.876,0,0,1,4.075,1.459l.316.248a13.21,13.21,0,0,1,5.332,5.2,12.868,12.868,0,0,1,2.145,6.555c6.2.02,11.208,2.088,14.9,6.145,1.169,1.285,2.26,3.528,1.487,5.621l-.43,1.163A6.449,6.449,0,0,1,174.128,70.7ZM2.77,40.872a2.5,2.5,0,0,1-2.255-1.7,12.076,12.076,0,0,1,.254-7.677,33.725,33.725,0,0,1,3.366-7.146,37.874,37.874,0,0,1,12.379-12.12c5.5-3.475,11.517-5.4,17.213-7.078l1.5-.437c1.1-.319,2.222-.676,3.307-1.021,3.551-1.131,7.222-2.3,10.712-2.3a12.548,12.548,0,0,1,8.625,3.249A7.878,7.878,0,0,1,60.28,9.577a8.156,8.156,0,0,1-1.08,5.382,11.776,11.776,0,0,1-6.526,5.085A31.029,31.029,0,0,1,44.6,21.083c-1.147.05-2.333.1-3.528.2A57.192,57.192,0,0,0,13.56,31.812a31.883,31.883,0,0,0-4.517,4.162,27.4,27.4,0,0,1-5.155,4.569A2.1,2.1,0,0,1,2.77,40.872ZM173.525,30.283a9.207,9.207,0,0,1-7.089-3.811l-.158-.2a41.976,41.976,0,0,0-7.22-7.493,40.569,40.569,0,0,0-8.892-5.438,42.61,42.61,0,0,0-10.031-3.127l-1.1-.188a21.688,21.688,0,0,0-3.439-.362,7.625,7.625,0,0,0-1.286.1,5.412,5.412,0,0,0-2.066.721.777.777,0,0,1-.069.754.891.891,0,0,1-.735.419.829.829,0,0,1-.4-.106,4.031,4.031,0,0,1-2.3-2.989,5.541,5.541,0,0,1,2.131-4.5c1.692-1.561,4.293-2.687,7.729-3.349A46.047,46.047,0,0,1,147.164,0h.01a38.947,38.947,0,0,1,18.76,5,42.482,42.482,0,0,1,14.412,13.044,7.112,7.112,0,0,1,.952,5.646,8.575,8.575,0,0,1-3.875,5.5A7.649,7.649,0,0,1,173.525,30.283Z" transform="translate(54 59)"/></svg>