<svg xmlns="http://www.w3.org/2000/svg" width="289" height="293" viewBox="0 0 289 293"><path d="M135.625,186.721c-.244,0-.492,0-.736-.013-3.4-.117-6.853-.54-10.2-.948-3.221-.394-6.552-.8-9.84-.937-4.168-.172-8.394-.259-12.56-.259-2.7,0-5.434.037-8.125.109-1.96.053-3.97.2-5.914.339-2.471.179-5.027.363-7.528.363a36.612,36.612,0,0,1-5.792-.415,2.041,2.041,0,0,1-1.768-1.611,3.2,3.2,0,0,1,1.14-3.187c4.417-3.186,9.96-4.6,15.32-5.959l.038-.01,1.168-.3a132.045,132.045,0,0,1,17.421-3.278,171.756,171.756,0,0,1,17.917-1.111h.211c.924,0,1.894.066,2.92.135l.053,0c1.012.068,2.058.139,3.079.139a13.575,13.575,0,0,0,2.452-.192,10.43,10.43,0,0,0,2.135-.744,12.533,12.533,0,0,1,2.035-.737,9.245,9.245,0,0,1,2.094-.247,8.052,8.052,0,0,1,3.524.792,7.914,7.914,0,0,1,2.706,2.136,8.8,8.8,0,0,1,1.717,7.361,9.218,9.218,0,0,1-1.833,3.977,10.546,10.546,0,0,1-3.233,2.652A17.9,17.9,0,0,1,135.625,186.721ZM121.2,125.228h0a34.913,34.913,0,0,1-12.448-2.509,62.873,62.873,0,0,1-14.639-8.307,5.625,5.625,0,0,1-2.043-3.249,6.731,6.731,0,0,1,.29-3.648,8.3,8.3,0,0,1,2.464-3.562,6,6,0,0,1,3.841-1.5,5.45,5.45,0,0,1,2.971.912q.476.365,1,.768l.006.005a79.252,79.252,0,0,0,9.164,6.373c4.14,2.357,7.733,3.5,10.984,3.5a11.861,11.861,0,0,0,4.642-.913,12.972,12.972,0,0,0,4.322-3.063,13.253,13.253,0,0,0,2.515-10.671,20.157,20.157,0,0,0-5.35-9.465,39,39,0,0,0-8.1-6.536,2.511,2.511,0,0,1-.679-2.887,3.768,3.768,0,0,1,1.248-1.8,3.829,3.829,0,0,1,2.39-.789,5.091,5.091,0,0,1,.86.076,27.157,27.157,0,0,1,9.55,3.45,21.664,21.664,0,0,1,6.423,5.922,23.526,23.526,0,0,1,4.1,15.718,25.9,25.9,0,0,1-2.1,8.25,24.07,24.07,0,0,1-4.734,7.088A22.625,22.625,0,0,1,121.2,125.228ZM51.743,77.7a9.033,9.033,0,0,1-5.047-1.43,10.943,10.943,0,0,1-3.983-3.947,11.5,11.5,0,0,1-1.849-5.931c-1.595.414-3.227.887-4.805,1.344-3,.868-6.1,1.765-9.14,2.326a7.187,7.187,0,0,1,.5.544.212.212,0,0,1,.019.224.171.171,0,0,1-.147.108.162.162,0,0,1-.1-.037l-2.333-.518c-.79.1-1.494.175-2.152.216l.016-.063a1.629,1.629,0,0,1-1.456-.98,1.439,1.439,0,0,1,.351-1.588C25.752,63.6,32.235,60.7,37.986,58.328l5.632-2.308c6.195-2.518,14.344-5.582,22.441-6.928a9.74,9.74,0,0,1,1.591-.136,6.76,6.76,0,0,1,5.028,2.03,7.059,7.059,0,0,1,1.9,4.539,6.9,6.9,0,0,1-1.495,4.724,7.415,7.415,0,0,1-5.17,2.569c-2.146.216-4.34.408-6.276.578a10.553,10.553,0,0,1,.412,2.013c.089.547.162,1.156.23,1.919a8.549,8.549,0,0,1-1.346,5.157,11.081,11.081,0,0,1-3.784,3.788A10.854,10.854,0,0,1,51.743,77.7ZM156.8,76.308a7.911,7.911,0,0,1-3.985-1.068c-2.371-1.382-3.7-3.313-4.453-6.454a15.372,15.372,0,0,1-.011-6.109,4.415,4.415,0,0,1,.836-1.964c-.682-.17-1.3-.317-1.875-.448a62.686,62.686,0,0,0-9.8-1.182c-2.227-.149-4.529-.3-6.8-.631a.616.616,0,0,1-.5-.558.675.675,0,0,1,.329-.727c4.812-2.261,10.865-2.948,16.206-3.554l.577-.066a77.837,77.837,0,0,1,8.877-.465c3.81,0,7.633.214,10.917.414a7.075,7.075,0,0,1,5.08,2.207,6.346,6.346,0,0,1,1.448,4.383c-.1,3.443-2.574,7.16-6.381,7.16a6.784,6.784,0,0,1-2.624-.562,6.358,6.358,0,0,1,.047,1.746c-.413,3.371-1.617,5.471-3.906,6.81A7.879,7.879,0,0,1,156.8,76.308ZM6.366,45.407a22.955,22.955,0,0,1-2.958-.247,23.458,23.458,0,0,0-3.042-.253.354.354,0,0,1-.351-.265.381.381,0,0,1,.162-.433,31.227,31.227,0,0,0,2.95-2.19,25.206,25.206,0,0,1,3.953-2.778c2.546-1.359,5.272-2.788,8.334-4.368,5.825-3,11.5-6.4,16.5-9.394,6.058-3.626,11.548-7.2,16.784-10.912,1.652-1.173,3.294-2.5,4.883-3.785C57.148,7.9,60.833,4.92,65.039,3.316a6.765,6.765,0,0,1,2.422-.433A10.032,10.032,0,0,1,75.6,7.614a8.88,8.88,0,0,1,1.122,5.891,10.984,10.984,0,0,1-2.585,5.444c-3.481,4.064-9.555,6.819-14.914,9.251-1.1.5-2.136.969-3.127,1.439l-.472.226c-6.233,3.007-12.465,5.67-18.522,7.916a164.666,164.666,0,0,1-19.019,5.631A91.366,91.366,0,0,1,7.8,45.321,11.7,11.7,0,0,1,6.366,45.407Zm178.041-1.461a106.623,106.623,0,0,1-20.94-1.907,78.8,78.8,0,0,1-19.948-6.719,56.455,56.455,0,0,1-9.325-5.6,27.608,27.608,0,0,1-7.3-7.988,20.239,20.239,0,0,1-2.561-7.787,15.058,15.058,0,0,1,1.036-7.872,9.922,9.922,0,0,1,2.861-3.723A11.657,11.657,0,0,1,135.171,0a9.47,9.47,0,0,1,5.449,1.643,8.635,8.635,0,0,1,3.357,4.751,22.019,22.019,0,0,1,.712,3.6c.253,1.958.406,3.139,2.835,5.381a111.9,111.9,0,0,0,9.109,7.358l4.608,3.425c7.493,5.547,16.326,11.829,26.355,16.187a.68.68,0,0,1,.408.8.929.929,0,0,1-.834.769C186.243,43.937,185.314,43.946,184.407,43.946Z" transform="translate(50 61)"/></svg>