<svg xmlns="http://www.w3.org/2000/svg" width="289" height="293" viewBox="0 0 289 293"><path d="M125.88,178.671c-4.889,0-11-1.422-18.176-4.225l-1.253-.5c-3.919-1.57-8.371-3.518-11.616-6.787a12.952,12.952,0,0,1-2.654-3.463,2.727,2.727,0,0,1-.145-2.227c1.168-.115,2.271-.266,3.278-.449l.14-.026a7.562,7.562,0,0,1,1.186-.161h.092a30.6,30.6,0,0,1,3.817.32l.059.007.013,0,.028,0,.532.067c1.05.13,2.121.274,3.065.4,2.893.389,5.882.792,8.917.937.551.027,1.122.039,1.745.039,1.649,0,3.351-.093,5-.182l.412-.023c1.558-.085,3.169-.174,4.738-.174a23.178,23.178,0,0,1,6.133.687,12.843,12.843,0,0,1,5.419,2.915,5.1,5.1,0,0,1,1.7,3.87,7.882,7.882,0,0,1-1.811,4.8,10.347,10.347,0,0,1-4.589,3.225,17.387,17.387,0,0,1-5.826.941ZM71.185,164.819a4.136,4.136,0,0,1-.527-.034,2.894,2.894,0,0,1-2.318-1.5,21.139,21.139,0,0,1-2.106-9.516,32.734,32.734,0,0,1,1.71-9.8c2.151-6.681,5.949-13.039,9.018-17.83l.693-1.067a81.928,81.928,0,0,1,11.694-14.41c5.32-5.048,10.588-7.984,15.659-8.726l1.3,2.075,1.891-1.261a9.656,9.656,0,0,1,5.389-1.557,13.164,13.164,0,0,1,5.36,1.2l3.574,1.613c6.286,2.821,13.041,5.7,20.415,7.25.522.109,1.051.213,1.571.308s1.014.178,1.49.252c-.1-.471-.214-.943-.337-1.466l-.009-.037c-.118-.5-.239-1.007-.367-1.51-.134-.519-.272-1.026-.427-1.587-.631-2.3-1.285-4.331-2-6.218-2.8-7.389-7.121-14.179-12.062-21.655l-.532-.8c-.63-.953-1.308-1.932-2.027-2.968l-.062-.089-.232-.334a77.778,77.778,0,0,1-4.931-7.721,19.442,19.442,0,0,1-2.54-8.04c4.629.291,8.506,3.14,11.928,5.652l.1.073A91.465,91.465,0,0,1,145.573,76.85c8.623,9.354,14.892,20.038,17.651,30.083a24.923,24.923,0,0,1,.73,9.546,19.625,19.625,0,0,1-3.016,8.47,14.414,14.414,0,0,1-5.2,4.779,15.936,15.936,0,0,1-7.624,1.805c-.308,0-.62-.007-.933-.022a82.156,82.156,0,0,1-38.241-12.22,11.127,11.127,0,0,1-3.34-3.384,10.231,10.231,0,0,1-1.516-4.342l-.57-5.461-3.076,4.548c-.339.5-.679,1-.967,1.418l-.022.033c-.868,1.269-1.765,2.582-2.6,3.9a175.039,175.039,0,0,0-8.861,15.721A91.311,91.311,0,0,0,83.3,144.2l-.084.261a103.961,103.961,0,0,1-3.791,10.506,29.994,29.994,0,0,1-5.773,8.9A3.444,3.444,0,0,1,71.185,164.819ZM50.58,81.56A8.578,8.578,0,0,1,45.009,79.4a17.115,17.115,0,0,1-4.02-5.226A29.719,29.719,0,0,1,37.673,61.95l0-.225a33.579,33.579,0,0,1,3.017-12.86c1.726-3.685,4.842-8.077,9.891-8.077,2.666,0,5.029,2.155,6.834,6.231A41.578,41.578,0,0,1,60.4,60.911l.022.417a39.4,39.4,0,0,1-.795,9.208c-.821,3.895-2.19,6.929-3.961,8.775A6.848,6.848,0,0,1,50.58,81.56Zm109.341-2a6.865,6.865,0,0,1-5.14-2.306c-1.254-1.331-2.962-3.984-3.978-9.067a38.658,38.658,0,0,1-.7-9.275l.05-.765a40.368,40.368,0,0,1,3.061-13.406c1.789-3.894,4.108-5.952,6.708-5.952,5.05,0,8.166,4.392,9.892,8.077a33.578,33.578,0,0,1,3.017,12.859l0,.226a29.717,29.717,0,0,1-3.316,12.228,17.115,17.115,0,0,1-4.02,5.226A8.578,8.578,0,0,1,159.921,79.559ZM0,40.082l0,0C7.4,29.845,19.061,20.748,34.646,13.042A152.161,152.161,0,0,1,57.433,4.155l4.329-1.3A40.208,40.208,0,0,1,72.892.768a14.994,14.994,0,0,1,8.2,2.218,9.59,9.59,0,0,1,4.356,6.282A8.976,8.976,0,0,1,83.7,16.52a8.689,8.689,0,0,1-5.253,3.362,8.578,8.578,0,0,1-1.6.149,10.508,10.508,0,0,1-4.908-1.3c-.715-.053-1.27-.079-1.694-.079a7.82,7.82,0,0,0-.952.055l-.7.085c-1.266.149-2.541.348-3.637.522-3.514.56-7.056,1.241-10.528,2.024-6.2,1.4-12.807,3.256-19.636,5.516-6.037,2-12.068,4.292-17.9,6.51l-.95.362c-2.1.8-4.224,1.706-6.275,2.583l-.077.033C6.468,37.677,3.244,39.056,0,40.082ZM189.909,30.7l0,0a43.2,43.2,0,0,0-12.038-6.763,88.775,88.775,0,0,0-13.381-3.933,51.85,51.85,0,0,0-11.155-1.193c-.565,0-1.141.009-1.713.026a44.727,44.727,0,0,0-5.8.673l-.136.022a37.4,37.4,0,0,1-5.951.632,16.8,16.8,0,0,1-3.03-.263,7.3,7.3,0,0,1-4.184-2.551,10.606,10.606,0,0,1-2.4-5.2,8.364,8.364,0,0,1,.689-4.945,12.311,12.311,0,0,1,3.856-4.4C137.154.919,140.744,0,145.631,0a67.656,67.656,0,0,1,8.625.687,47.638,47.638,0,0,1,16.889,5.472A40.709,40.709,0,0,1,184.182,17.55c2.894,3.914,4.247,8.327,5.68,13l.046.151Z" transform="translate(49.944 60.974)"/></svg>