<svg xmlns="http://www.w3.org/2000/svg" width="289" height="293" viewBox="0 0 289 293"><path d="M159.464,91.32A8.476,8.476,0,0,1,154.45,89.6a14.7,14.7,0,0,1-4.042-4.691,30.1,30.1,0,0,1-3.525-14.754,30.1,30.1,0,0,1,3.525-14.753,14.7,14.7,0,0,1,4.042-4.691,8.182,8.182,0,0,1,10.028,0,14.7,14.7,0,0,1,4.042,4.691,30.1,30.1,0,0,1,3.525,14.753,30.105,30.105,0,0,1-3.525,14.754,14.7,14.7,0,0,1-4.042,4.691A8.472,8.472,0,0,1,159.464,91.32Zm-112.24,0A8.472,8.472,0,0,1,42.21,89.6a14.713,14.713,0,0,1-4.043-4.691A30.115,30.115,0,0,1,34.643,70.16a30.113,30.113,0,0,1,3.524-14.753,14.714,14.714,0,0,1,4.043-4.691,8.182,8.182,0,0,1,10.028,0,14.7,14.7,0,0,1,4.042,4.691A30.1,30.1,0,0,1,59.805,70.16,30.105,30.105,0,0,1,56.28,84.913,14.7,14.7,0,0,1,52.238,89.6,8.476,8.476,0,0,1,47.224,91.32ZM1.315,37.16A1.3,1.3,0,0,1,.233,36.5a1.449,1.449,0,0,1-.087-1.422,49.326,49.326,0,0,1,11.061-14,68.38,68.38,0,0,1,14.8-10.112A63.654,63.654,0,0,1,43.588,4.83L45.465,4.5l.962-.163a42.289,42.289,0,0,1,6.709-.668c4.28,0,7.377,1.155,9.467,3.53a8.042,8.042,0,0,1,1.9,5.713,5.234,5.234,0,0,1-1.9,3.735c-3.008,2.434-6.172,2.932-10,2.932-.788,0-1.6-.02-2.39-.04h-.029c-.757-.019-1.616-.041-2.468-.041-.785,0-1.485.018-2.14.056A67.59,67.59,0,0,0,30.7,22.091C20.12,25.115,11.445,30.6,2.006,36.934A1.233,1.233,0,0,1,1.315,37.16Zm186.034-7.573h0c-.271-.065-.537-.131-.791-.2A44.772,44.772,0,0,1,177.877,26l-2.819-1.389a78.331,78.331,0,0,0-10.067-4.289A118.791,118.791,0,0,0,142.06,15.26a9.367,9.367,0,0,1-4.6-1.746,6.894,6.894,0,0,1-2.573-3.919,7.009,7.009,0,0,1,.793-5.874A7.476,7.476,0,0,1,139.311.591a8.171,8.171,0,0,1,3.1-.591,9.116,9.116,0,0,1,1.786.179l1.437.294.953.2c9.782,2.1,17.728,4.749,24.294,8.085a49.3,49.3,0,0,1,10.6,7.091,31.682,31.682,0,0,1,7.507,9.779c.27,2.076.02,2.592-.258,2.942l-.081.1c-.023.03-.046.062-.069.094a1.993,1.993,0,0,1-1.231.819Z" transform="translate(59 52)"/></svg>