<svg xmlns="http://www.w3.org/2000/svg" width="289" height="293" viewBox="0 0 289 293"><path d="M1.938,11.038c8-16,81.391-8.808,81.391-8.808l6.2,50.858s-35.411,11.382-56.489,9S-6.063,27.038,1.938,11.038Z" transform="translate(91.893 213.719)" fill="#fff"/><path d="M.089,13.556C-2.446,8.132,50.02-6.658,66.264,3.449S77.429,27.342,77.429,27.342,9.106,42.926.089,13.556Z" transform="translate(98.914 237.914)" fill="#ff8181"/><path d="M73.706,222.839a71.605,71.605,0,0,1-24.867-4.257,46.76,46.76,0,0,1-20.421-14.247,40.729,40.729,0,0,1-9.009-23.471,34.987,34.987,0,0,1,1.6-12.389,32.168,32.168,0,0,1,6.271-11.187A36.313,36.313,0,0,1,42.627,146.87a53.806,53.806,0,0,1,18.424-2.983,79.7,79.7,0,0,1,16.186,1.739c4.256.887,8.538,2.021,12.68,3.118a155.623,155.623,0,0,0,20.1,4.38,104.309,104.309,0,0,0,13.212.782c.812,0,1.648-.008,2.485-.023,2.234-.041,4.506-.263,6.7-.478,2.436-.238,4.952-.484,7.421-.484.444,0,.883.008,1.3.024a.8.8,0,0,1,.756.607.78.78,0,0,1-.353.878,39.663,39.663,0,0,1-11.933,4.579,105.807,105.807,0,0,1-12.889,1.973,14.965,14.965,0,0,0,.148,1.724c.261,1.564.452,2.857.6,4.071.36,2.944.768,5.928,1.163,8.813l.057.414c.269,1.963.482,3.98.689,5.932a92.657,92.657,0,0,0,1.862,12.31l.255.988a9.136,9.136,0,0,1,.3,3.393l.338-.153,1.067-.518.7-.33a15.761,15.761,0,0,1,6.841-1.814c.38,0,.768.019,1.153.056a5.013,5.013,0,0,1,2.961,1.276,3.973,3.973,0,0,1,1.258,2.942,10.79,10.79,0,0,1-2.35,6.845,18.394,18.394,0,0,1-5.86,4.669c-4.653,2.508-10.414,3.938-14.621,4.981l-.322.08-2.477.61c-9.776,2.385-21.316,4.9-32.78,5.469C76.378,222.806,75.033,222.839,73.706,222.839Zm-5.877-33.166h0a56.818,56.818,0,0,0-16.64,2.963c-5.067,1.65-8.8,3.563-9.282,4.761a.52.52,0,0,0,.114.615,36.172,36.172,0,0,0,14.607,8.45,57.033,57.033,0,0,0,16.914,2.343,87.541,87.541,0,0,0,11.837-.849,193.6,193.6,0,0,0,22.473-4.64,15.279,15.279,0,0,0-5.37-10.445,15.54,15.54,0,0,0-9.805-3.349,16.189,16.189,0,0,0-7.407,1.754,12.818,12.818,0,0,0-5.379,5.1,6.981,6.981,0,0,0-4.06-5.216,18.314,18.314,0,0,0-8-1.485Zm-3.816-31.726h0a47.292,47.292,0,0,0-12.127,1.406,29.881,29.881,0,0,0-10.856,5.256,17.932,17.932,0,0,0-6.723,10.955c8.943-1.326,18.62-2.468,29.584-3.494l2.7-.248c6.16-.555,12.405-1.148,18.561-1.763l4.4-.445,4.393-.456c1.2-.126,7.5-.458,11.256-.458a18.53,18.53,0,0,1,2.667.121c.056-.47.115-1.073.183-1.771a46.1,46.1,0,0,1,.74-5.511c-1.2.041-2.416.061-3.619.061a139.932,139.932,0,0,1-18.511-1.337l-1.3-.177-5.1-.733-2.007-.276a109.26,109.26,0,0,0-14.241-1.129Zm45.188-29.72h0a34.914,34.914,0,0,1-12.449-2.509,62.873,62.873,0,0,1-14.639-8.307,5.625,5.625,0,0,1-2.043-3.249,6.732,6.732,0,0,1,.29-3.648,8.3,8.3,0,0,1,2.464-3.562,6,6,0,0,1,3.841-1.5,5.45,5.45,0,0,1,2.971.912q.475.365,1,.768l.006,0a79.25,79.25,0,0,0,9.165,6.373c4.141,2.357,7.734,3.5,10.984,3.5a11.863,11.863,0,0,0,4.641-.912,12.972,12.972,0,0,0,4.322-3.062,13.981,13.981,0,0,0,2.767-7.437l-.187.1c-.05.033-.1.062-.155.089s-.084.045-.126.07v-.256l.362-.131.115-.039c0,.039,0,.077,0,.116l0,.048.176-.1.122-.074c.068-.044.1-.073.1-.086s-.009-.008-.022-.008a1.767,1.767,0,0,0-.366.1c.141-3.729-1.389-7.541-4.549-11.331a38.046,38.046,0,0,0-9.159-7.74,2.511,2.511,0,0,1-.679-2.887,3.767,3.767,0,0,1,1.248-1.8,3.83,3.83,0,0,1,2.39-.789,5.094,5.094,0,0,1,.86.076,27.156,27.156,0,0,1,9.55,3.45,21.663,21.663,0,0,1,6.423,5.922,23.526,23.526,0,0,1,4.1,15.718,25.9,25.9,0,0,1-2.1,8.25,24.071,24.071,0,0,1-4.734,7.088A22.625,22.625,0,0,1,109.2,128.228ZM38.524,84.533a8.578,8.578,0,0,1-5.571-2.155,17.115,17.115,0,0,1-4.02-5.226,29.72,29.72,0,0,1-3.316-12.229l0-.225a33.579,33.579,0,0,1,3.017-12.86c1.726-3.685,4.842-8.077,9.891-8.077,2.666,0,5.029,2.155,6.834,6.231a41.582,41.582,0,0,1,2.985,13.893l.022.416a39.4,39.4,0,0,1-.8,9.208c-.821,3.895-2.19,6.929-3.961,8.775A6.849,6.849,0,0,1,38.524,84.533Zm109.341-2a6.864,6.864,0,0,1-5.139-2.306c-1.254-1.331-2.963-3.984-3.978-9.067a38.658,38.658,0,0,1-.7-9.276l.05-.765a40.367,40.367,0,0,1,3.061-13.406c1.789-3.894,4.108-5.952,6.708-5.952,5.05,0,8.166,4.392,9.892,8.077a33.581,33.581,0,0,1,3.017,12.86l0,.225a29.72,29.72,0,0,1-3.316,12.229,17.115,17.115,0,0,1-4.02,5.226A8.578,8.578,0,0,1,147.865,82.534ZM5.624,43.335H5.57a4.909,4.909,0,0,1-3.786-1.849C-.136,39.1-.244,34.975.247,32.165A40.022,40.022,0,0,1,3.9,21.2a44.153,44.153,0,0,1,6.485-9.573,35.572,35.572,0,0,1,9.245-7.483A33.143,33.143,0,0,1,30.856.284,25.6,25.6,0,0,1,34.691,0a23.619,23.619,0,0,1,9.964,2.075,15.936,15.936,0,0,1,4.153,2.77,13.016,13.016,0,0,1,2.953,4.082,5.4,5.4,0,0,1-.16,5.06,4.827,4.827,0,0,1-4.049,2.275c-1,.048-2.089.071-3.316.071-1.11,0-2.2-.018-3.261-.036h-.037c-1.039-.017-2.113-.035-3.155-.035a37.613,37.613,0,0,0-8.405.764,21.454,21.454,0,0,0-8.132,3.746,41.538,41.538,0,0,0-9.12,9.993l-.956,1.4-.792,1.149C8.749,35.7,7.033,38.516,7.291,41.614a1.523,1.523,0,0,1-.431,1.136A1.734,1.734,0,0,1,5.624,43.335Zm168.311-6.845a6.2,6.2,0,0,1-3.5-1.011c-2.455-1.661-3.738-3.859-5.1-6.185a28.9,28.9,0,0,0-2.777-4.167,29.826,29.826,0,0,0-18.881-9.658l-.595-.056c-.409-.035-1.032-.055-1.711-.055a32.593,32.593,0,0,0-5.418.429c-2.182.391-3.577,1.014-4.147,1.85a1.73,1.73,0,0,0-.131,1.692.684.684,0,0,1-.073.653.984.984,0,0,1-.784.407.724.724,0,0,1-.553-.239,4.646,4.646,0,0,1-1.247-3.868c.354-2.66,2.776-5.306,5.02-6.749a28.591,28.591,0,0,1,15.312-4.208c.84,0,1.686.034,2.514.1a41.135,41.135,0,0,1,13.8,4c3.624,1.742,8.671,4.764,12.136,9.267a17.7,17.7,0,0,1,3.039,5.815,14.311,14.311,0,0,1,.339,6.6C180.578,34.477,177.021,36.491,173.935,36.491Z" transform="translate(62 58)"/></svg>