<svg xmlns="http://www.w3.org/2000/svg" width="289" height="293" viewBox="0 0 289 293"><path d="M112.758,238.562a58.968,58.968,0,0,1-6.746-.374l-1.076-.131a54.735,54.735,0,0,1-11.257-2.54,30.7,30.7,0,0,1-9.983-5.613,2.012,2.012,0,0,1-.553-2.051,2.049,2.049,0,0,1,1.505-1.554,98.105,98.105,0,0,1,12.572-1.52c2.853-.221,5.8-.449,8.665-.847a61.517,61.517,0,0,0,6.7-1.465,41.183,41.183,0,0,1,9.977-1.727,14.049,14.049,0,0,1,6.233,1.338,7.1,7.1,0,0,1,3.517,4.774,6.577,6.577,0,0,1-.822,5.5,12.958,12.958,0,0,1-5.555,4.579,23.51,23.51,0,0,1-7.184,1.378C116.676,238.478,114.662,238.562,112.758,238.562Zm-12.079-19.944a.042.042,0,0,1-.037-.023,25.038,25.038,0,0,1-3.653-12.069.043.043,0,0,1,.011-.033.046.046,0,0,1,.033-.013.047.047,0,0,1,.049.046,24.928,24.928,0,0,0,3.641,12.02.044.044,0,0,1,0,.045A.053.053,0,0,1,100.678,218.618Zm20.523-59.39h0a34.908,34.908,0,0,1-12.445-2.509,62.874,62.874,0,0,1-14.639-8.307,5.625,5.625,0,0,1-2.043-3.249,6.732,6.732,0,0,1,.29-3.648,8.3,8.3,0,0,1,2.464-3.562,6,6,0,0,1,3.841-1.5,5.45,5.45,0,0,1,2.971.912q.479.367,1,.773a79.239,79.239,0,0,0,9.164,6.373c4.14,2.357,7.733,3.5,10.984,3.5a11.862,11.862,0,0,0,4.642-.913,12.973,12.973,0,0,0,4.322-3.063,13.253,13.253,0,0,0,2.515-10.671,20.156,20.156,0,0,0-5.35-9.465,39,39,0,0,0-8.1-6.536,2.511,2.511,0,0,1-.679-2.887,3.768,3.768,0,0,1,1.248-1.8,3.83,3.83,0,0,1,2.39-.79,5.092,5.092,0,0,1,.86.076,27.157,27.157,0,0,1,9.55,3.45,21.664,21.664,0,0,1,6.423,5.922,23.527,23.527,0,0,1,4.1,15.718,25.9,25.9,0,0,1-2.1,8.25,24.071,24.071,0,0,1-4.734,7.089A22.625,22.625,0,0,1,121.2,159.228Zm38.263-50.908a8.476,8.476,0,0,1-5.013-1.715,14.711,14.711,0,0,1-4.043-4.691,30.11,30.11,0,0,1-3.525-14.754,30.11,30.11,0,0,1,3.525-14.754,14.7,14.7,0,0,1,4.043-4.691,8.184,8.184,0,0,1,10.027,0,14.725,14.725,0,0,1,4.043,4.691,30.111,30.111,0,0,1,3.524,14.754,30.111,30.111,0,0,1-3.524,14.754,14.734,14.734,0,0,1-4.043,4.691A8.477,8.477,0,0,1,159.464,108.32Zm-112.807-.137c-3.6,0-6.919-3.1-8.045-6.1a22.95,22.95,0,0,1-.924-11.742,12.607,12.607,0,0,1,1.6-4.292l.229-.354-.037-.506c-.005-.074,0-.147,0-.218,0-.051,0-.1,0-.152-6.041-.367-12.353-.974-19.3-1.854l-2.139-.277c-.942-.125-1.948-.234-3.014-.349C10,81.8,3.755,81.121.083,78.169A.24.24,0,0,1,0,77.954a.29.29,0,0,1,.139-.227c2.148-1.156,4.347-1.237,6.675-1.321.315-.011.638-.023.961-.038l.391-.019c2.99-.154,5.979-.283,8.884-.382l2.965-.094c7.939-.227,15.953-.627,22.746-.987,1.144-.061,2.307-.133,3.432-.2l.521-.032a12.68,12.68,0,0,1,4.293-.988c.148-.007.3-.01.445-.01a9.847,9.847,0,0,1,2.993.467c2.709-.21,5.5-.444,8.3-.7l2.762-.256c1.045-.1,2.125-.185,3.169-.269a77.492,77.492,0,0,0,8.675-1.019l.668-.127a17.339,17.339,0,0,1,3.1-.342c2.132,0,3.8.685,6.152,2.526a4.31,4.31,0,0,1,1.624,3.068,6.926,6.926,0,0,1-1.624,4.954c-2.681,3.094-5.331,3.105-8.685,3.12-.615,0-1.25.006-1.919.027l-.305.012c-3.635.147-7.288.25-10.857.305-.652.01-1.312.012-1.95.014l-1.021,0a22.483,22.483,0,0,1-3.419,12.166,34.8,34.8,0,0,1-8.714,9.273A6.063,6.063,0,0,1,46.657,108.183Zm69.46-65.39a.457.457,0,0,1-.1-.012c-4.151-.96-5.826-5-6.5-8.213a29.047,29.047,0,0,1,.095-11.252,30.075,30.075,0,0,1,5.586-11.772A28.974,28.974,0,0,1,125.215,3.22,32.521,32.521,0,0,1,139.492,0a35.1,35.1,0,0,1,12.77,2.414l.569.23a35.479,35.479,0,0,1,12.524,8.595,18.929,18.929,0,0,1,3.867,6.322,13.352,13.352,0,0,1,.46,7.337,7.778,7.778,0,0,1-3.167,4.849,9.212,9.212,0,0,1-5.281,1.554,10.27,10.27,0,0,1-6.1-1.944A7.543,7.543,0,0,1,152,23.812a14.557,14.557,0,0,0-5.906-4.681,18.672,18.672,0,0,0-7.568-1.58,16.863,16.863,0,0,0-8.842,2.383c-3.554,2.222-6.528,6-8.84,11.235a33.671,33.671,0,0,0-1.482,4.464c-.7,2.481-1.42,5.046-2.986,7.053A.326.326,0,0,1,116.117,42.793Z" transform="translate(50 27)"/></svg>