<svg xmlns="http://www.w3.org/2000/svg" width="289" height="293" viewBox="0 0 289 293"><path d="M113.983,167.041a30.44,30.44,0,0,1-10.874-1.892l-.522-.208c-4.728-1.963-8.975-5.854-10.57-9.681a6.275,6.275,0,0,1,2.51-8.351,2.033,2.033,0,0,1,1.154-.307,4.019,4.019,0,0,1,2.681,1.067c4.213,4.479,8.162,5.419,10.733,5.419h.112c3.555-.036,6.507-1.534,8.994-2.935l1.918-1.1a20.637,20.637,0,0,1,5.852-2.5,10.57,10.57,0,0,1,2.2-.223,14.057,14.057,0,0,1,4.878.925,13.683,13.683,0,0,1,4.145,2.418,6.634,6.634,0,0,1,2.357,3.673,4.334,4.334,0,0,1-.97,3.479,22.1,22.1,0,0,1-6.712,5.625,35.332,35.332,0,0,1-9.255,3.575A37.625,37.625,0,0,1,113.983,167.041Zm5.218-43.812h0a34.911,34.911,0,0,1-12.448-2.509,62.872,62.872,0,0,1-14.639-8.307,5.625,5.625,0,0,1-2.043-3.249,6.731,6.731,0,0,1,.29-3.648,8.3,8.3,0,0,1,2.464-3.562,6,6,0,0,1,3.841-1.5,5.45,5.45,0,0,1,2.971.912q.478.367,1,.772a79.248,79.248,0,0,0,9.165,6.373c4.141,2.357,7.734,3.5,10.984,3.5a11.862,11.862,0,0,0,4.641-.912,12.972,12.972,0,0,0,4.322-3.062,13.254,13.254,0,0,0,2.514-10.671,20.156,20.156,0,0,0-5.35-9.465,39.008,39.008,0,0,0-8.1-6.536,2.512,2.512,0,0,1-.679-2.887,3.767,3.767,0,0,1,1.248-1.8,3.831,3.831,0,0,1,2.391-.79,5.1,5.1,0,0,1,.859.076,27.156,27.156,0,0,1,9.55,3.45,21.664,21.664,0,0,1,6.423,5.922,23.527,23.527,0,0,1,4.1,15.718,25.9,25.9,0,0,1-2.1,8.25,24.071,24.071,0,0,1-4.734,7.089A22.625,22.625,0,0,1,119.2,123.228ZM44.151,84.917h0a22.66,22.66,0,0,1-6.031-.826,25.354,25.354,0,0,1-7.8-4.3,41.051,41.051,0,0,1-8.294-8.474c-5.108-7.1-5.581-13.061-5.078-16.814a2.85,2.85,0,0,1,1.481-2.021,4.783,4.783,0,0,1,1.834-.6,3.8,3.8,0,0,1,.38-.019,3.145,3.145,0,0,1,1.579.4,2.6,2.6,0,0,1,1.31,1.939A19.212,19.212,0,0,0,29.251,64.62c3.946,4.016,9.015,6.778,11.781,7.339a9.7,9.7,0,0,0,1.922.2,8.421,8.421,0,0,0,6.162-2.729l.3-.319a18.168,18.168,0,0,0,3.3-5.453,29.976,29.976,0,0,0,1.726-6.184,7.8,7.8,0,0,1,3.044-5.181,7.6,7.6,0,0,1,4.491-1.4,8.487,8.487,0,0,1,1.45.125,7.675,7.675,0,0,1,5.259,3.4,6.389,6.389,0,0,1,.29,6.028c-.5,1.184-.977,2.4-1.441,3.584l0,.006-.406,1.031c-2.127,5.366-4.4,10.51-8.811,14.46a20.977,20.977,0,0,1-6.643,4.035A21.3,21.3,0,0,1,44.151,84.917ZM153.977,70.679h0a18.73,18.73,0,0,1-3.928-.418A20.88,20.88,0,0,1,143.116,67a24.277,24.277,0,0,1-6.266-6.125,12.328,12.328,0,0,1-2.27-6.249,7.1,7.1,0,0,1,.515-3.113,11.406,11.406,0,0,1,2.58-3.61,2.693,2.693,0,0,1,.8-.125,2.828,2.828,0,0,1,1.8.677,15.616,15.616,0,0,1,2.9,3.812l.232.382a13.491,13.491,0,0,0,1.28,1.831,12.475,12.475,0,0,0,6.993,4.193,8.363,8.363,0,0,0,1.374.115,8.271,8.271,0,0,0,5.124-1.824,11.6,11.6,0,0,0,4.072-6.779,5.593,5.593,0,0,1,1.565-2.833,6.838,6.838,0,0,1,2.816-1.683,5.688,5.688,0,0,1,4.807.575,5.673,5.673,0,0,1,2.648,2.944,7.3,7.3,0,0,1,.365,4.046,21.886,21.886,0,0,1-8.951,13.7A20.043,20.043,0,0,1,153.977,70.679ZM6.32,29.1H6.3c-.886-.088-1.784-.133-2.67-.133-.617,0-1.243.022-1.86.065l-.648.053a1.149,1.149,0,0,1-.159.011.95.95,0,0,1-.925-.657.864.864,0,0,1,.395-.992c1.552-1.053,3.056-2.143,4.51-3.2a66.5,66.5,0,0,1,12.032-7.469,117.392,117.392,0,0,1,16.649-5.965l2.17-.595L38,9.629l1.5-.4C44.586,7.9,48.731,6.972,52.545,6.305a76.5,76.5,0,0,1,13.2-1.272,49.529,49.529,0,0,1,5.553.3,9.137,9.137,0,0,1,4.825,1.9,6.831,6.831,0,0,1,2.433,4.5,8.1,8.1,0,0,1-1.126,5.066,6.06,6.06,0,0,1-4.168,3.041,171.8,171.8,0,0,1-17.9,1.619A169.193,169.193,0,0,0,37.022,23.15c-3.966.658-7.975,1.434-11.853,2.184l-.009,0c-1.976.382-4.018.777-6.03,1.152-2.658.5-5.413.808-8.077,1.11-1.881.213-3.825.434-5.718.717l1.051.146a.278.278,0,0,1,.234.32A.321.321,0,0,1,6.32,29.1Zm173.657-3.38A20.489,20.489,0,0,1,172.8,23.9c-.727-.281-1.478-.571-2.2-.82l-2.3-.789a105.662,105.662,0,0,0-10.5-3.115,58.41,58.41,0,0,0-12.885-1.538c-.205,0-.413,0-.618,0-1.3.017-2.646.135-3.952.248-1.438.125-2.925.255-4.372.255a14.189,14.189,0,0,1-5.6-.971,8.57,8.57,0,0,1-5.209-5.988,6.72,6.72,0,0,1,2-6.161,15.828,15.828,0,0,1,6.707-3.9A28.511,28.511,0,0,1,142.221,0,55.63,55.63,0,0,1,161.26,3.758c6.313,2.455,10.988,5.21,14.712,8.668l.414.388.638.614a25.447,25.447,0,0,1,4.051,4.894,9.294,9.294,0,0,1,1.559,5.824,1.542,1.542,0,0,1-1.1,1.446A8.941,8.941,0,0,1,179.978,25.725Z" transform="translate(52 63)"/></svg>