<svg xmlns="http://www.w3.org/2000/svg" width="289" height="293" viewBox="0 0 289 293"><path d="M10.566,40.336v0L0,0,1.7.263a134.308,134.308,0,0,1,18.857,4C24.731,5.614,26.846,7,26.846,8.377l-.007.19c-.22,3.11-5.695,13.8-16.272,31.767Zm93.524-2.777v0L84.6,16.2l23.234-7.478-3.742,28.839Z" transform="translate(100.79 212.082)" fill="#fff"/><ellipse cx="39.5" cy="36" rx="39.5" ry="36" transform="translate(59 77)" fill="#fff"/><ellipse cx="36" cy="35.5" rx="36" ry="35.5" transform="translate(121 41)" fill="#fff"/><path d="M29,61.47c16.016,0,29-14.327,29-32S45.016,0,29,0,0,11.8,0,29.47,12.984,61.47,29,61.47Z" transform="translate(177 80.53)" fill="#fff"/><path d="M67.181,220.085a8.671,8.671,0,0,1-4.489-1.344,11.639,11.639,0,0,1-4.982-6.888,43.154,43.154,0,0,1-1.449-8.74V203.1c-.05-.53-.1-1.031-.149-1.527-.465-4.513-.747-8.259-.887-11.79l-.057-1.687c-.02-.733-.058-1.472-.1-2.254-.169-3.281-.344-6.67.841-9.554a1.028,1.028,0,0,1,.883-.635.67.67,0,0,1,.528.262c2.423,2.946,3.534,7.263,4.513,11.072.271,1.052.526,2.045.8,3,.421,1.453.885,2.91,1.376,4.453a74.085,74.085,0,0,1,3,11.47l.214-.372c.809-1.537,1.615-3.028,2.3-4.283l2.32-4.271c1.885-3.493,3.9-7.151,6.338-11.511-2.592-.973-5.129-2.014-7.269-2.9l-5.467-2.286c-2.934-1.239-6.265-2.765-8.655-5.207a.909.909,0,0,1-.192-.888.73.73,0,0,1,.565-.522,21.548,21.548,0,0,1,4.059-.359c4.482,0,9.266,1.094,13.893,2.152,1.952.446,3.794.868,5.557,1.193l.539.1c2.2.384,4.427.794,6.583,1.19,6.47,1.19,13.159,2.42,19.807,3.1a133.426,133.426,0,0,0,13.489.715,106.412,106.412,0,0,0,12.09-.668,82.442,82.442,0,0,0,12.047-2.332c1.715-.464,3.4-.98,5.022-1.533l.187-.072c.273-.113.642-.291,1.069-.5a10.5,10.5,0,0,1,3.026-1.157.409.409,0,0,1,.3.095.289.289,0,0,1,.07.22,7.212,7.212,0,0,1,3.6-2.192,6.443,6.443,0,0,1,1.635-.2,7.186,7.186,0,0,1,4.525,1.567,3.788,3.788,0,0,1,2.38-.806,5.7,5.7,0,0,1,4.434,2.363,9.57,9.57,0,0,1,1.675,4.848,29.665,29.665,0,0,1-.186,5.213c-.049.519-.1,1.056-.141,1.585l-.027.358c-.256,3.6-.648,7.331-1.2,11.411l-.225,1.625c-.1.671-.182,1.39-.274,2.151a37.316,37.316,0,0,1-1.778,8.759c-1.223,3.181-3.109,5.076-5.764,5.794a6.807,6.807,0,0,1-1.779.238c-4.5,0-8.587-4.4-11.986-8.7l-1.9-2.433a53.94,53.94,0,0,1-5.931-9.027c-.884-1.742-1.552-3.178-2.1-4.517-.069-.168-.123-.323-.174-.474l-.023-.066a105.868,105.868,0,0,1-14.062.918,123.86,123.86,0,0,1-16.116-1.086,151.168,151.168,0,0,1-18.708-3.661l-2.771,5.008c-2.9,5.226-6.357,11.377-9.989,17.374l-.268.435a22.026,22.026,0,0,1-4.544,5.357A9.526,9.526,0,0,1,67.181,220.085Zm93.7-32.325h0a85.484,85.484,0,0,1-16.632,4.819l.052.052c.323.333.689.711,1.019,1.092,1.262,1.461,2.582,2.854,4.176,4.5l.855.878c.342.351.71.737,1.1,1.145a46.546,46.546,0,0,0,7.7,6.924l.181-.967c.034-.192.054-.323.065-.424l.356-3.181c.054-.5.112-1.042.167-1.592.241-2.4.443-4.841.639-7.2q.059-.708.118-1.415c.111-1.329.148-2.716.184-4.057.005-.19.01-.379.015-.568Zm-39.99-23.537h0a23.339,23.339,0,0,1-17.667-8.262,41.787,41.787,0,0,1-7.309-11.876,33.377,33.377,0,0,1-2.681-13.646,12.726,12.726,0,0,1,2.047-6.563,6.815,6.815,0,0,1,5.764-3.171c.148,0,.3,0,.452.013a5.665,5.665,0,0,1,4.438,2.269,6.093,6.093,0,0,1,.7,5.244l-.066.216c-1.078,3.365-.844,7.634.658,12.022a24.249,24.249,0,0,0,6.618,10.319,12.881,12.881,0,0,0,8.6,3.27,17.25,17.25,0,0,0,9.65-3.253,22.845,22.845,0,0,0,7.083-7.81,33.73,33.73,0,0,0,3.064-8.124,47.638,47.638,0,0,0,1.217-8.748,84.613,84.613,0,0,0-1.192-17.545,99.852,99.852,0,0,0-3.968-15.8c-1.76-5.308-3.89-10.622-5.747-15.187-.491.089-.926.159-1.33.213a80.385,80.385,0,0,1-10.541.669,66.86,66.86,0,0,1-12.395-1.06,30.224,30.224,0,0,1-10.893-4,39.636,39.636,0,0,1-6.124,26.28,31.912,31.912,0,0,1-10.686,10,38.4,38.4,0,0,1-13.954,4.582,107.394,107.394,0,0,1-14.62,1.04,70.679,70.679,0,0,1-16.374-1.74,27.8,27.8,0,0,1-11.167-5.514,31.707,31.707,0,0,1-7.689-9.356A42.109,42.109,0,0,1,11.868,81.9a43.341,43.341,0,0,1,2.019-17.314A33.69,33.69,0,0,1,17.824,56.7a38.487,38.487,0,0,1,5.91-6.888,37.14,37.14,0,0,1,7.37-5.306,31.175,31.175,0,0,1,8.316-3.139c4.547-2.991,10.779-4.638,17.55-4.638,1.052,0,2.112.041,3.151.122A43.276,43.276,0,0,1,74.93,40.72,37.269,37.269,0,0,1,87.21,49.8a40.681,40.681,0,0,1,6.412,9.891,4.932,4.932,0,0,1,1.937-.939,7.08,7.08,0,0,1,1.633-.216,4.816,4.816,0,0,1,1.627.281,7.1,7.1,0,0,1,1.843,1.345l1.1,1.3a12.273,12.273,0,0,0,5.047,3.879c4.686,1.908,11.068,2.959,17.969,2.959,1.688,0,3.365-.064,4.983-.191,5.008-.392,8.8-2.533,11.27-6.365,2.413-3.742,3.546-9.149,3.276-15.637a55.5,55.5,0,0,0-3.121-15.914,32.548,32.548,0,0,0-4.879-8.862,33.108,33.108,0,0,0-15.988-11.221,31.4,31.4,0,0,0-24.751,2.217,37.493,37.493,0,0,0-8.266,5.959c-4.463,4.241-6.832,9.208-9.34,14.466-.541,1.134-1.1,2.307-1.685,3.479a.47.47,0,0,1-.436.248.494.494,0,0,1-.506-.372,21.526,21.526,0,0,1,.62-10.3,31.911,31.911,0,0,1,4.859-9.592,42.51,42.51,0,0,1,7.567-7.949,37.74,37.74,0,0,1,8.743-5.37A36.5,36.5,0,0,1,111.554,0a40.716,40.716,0,0,1,12.98,2.148,41.529,41.529,0,0,1,11.7,6.13,39.481,39.481,0,0,1,12.449,16.016,51.657,51.657,0,0,1,3.131,9.74,61.947,61.947,0,0,1,1.328,10.228,14.921,14.921,0,0,1,9.962-3.61,24.284,24.284,0,0,1,10.446,2.67,36.272,36.272,0,0,1,8.946,6.239,37.432,37.432,0,0,1,9.55,14.934,35.8,35.8,0,0,1,1.512,17.61,33.1,33.1,0,0,1-2.68,8.493,33.7,33.7,0,0,1-4.793,7.457,31.058,31.058,0,0,1-14.613,9.739,30.477,30.477,0,0,1-8.863,1.292,30.933,30.933,0,0,1-8.366-1.137,32.22,32.22,0,0,1-6.331-2.5l.093.376c.09.361.182.731.268,1.1a94.2,94.2,0,0,1,2.69,18.3,56.931,56.931,0,0,1-.391,9.258,42.843,42.843,0,0,1-2.115,8.949,32.1,32.1,0,0,1-4.506,8.367,32.689,32.689,0,0,1-6.545,6.578,30.081,30.081,0,0,1-7.912,4.3A25.46,25.46,0,0,1,120.891,164.223ZM35.185,50.862a31.2,31.2,0,0,0-9.607,9.992,31.526,31.526,0,0,0-4.3,14.165A36.68,36.68,0,0,0,22.3,86.375a30.2,30.2,0,0,0,4.722,10.352,17.924,17.924,0,0,0,9.471,6.66,42.563,42.563,0,0,0,11.688,1.59l.813.019c1.393.027,2.619.04,3.748.04,6,0,13.707-.336,20.1-2.952a22.859,22.859,0,0,0,7.959-5.3,23.663,23.663,0,0,0,5.332-9.286A32.744,32.744,0,0,0,86.1,68.02a31.081,31.081,0,0,0-4.326-8.813,27.441,27.441,0,0,0-7.026-6.9A32.469,32.469,0,0,0,56.479,47h-.036l-.571,0c-4.441.072-8.708,1.247-12.834,2.385-2.056.567-4.181,1.152-6.308,1.6a2.688,2.688,0,0,1-.557.058A2.868,2.868,0,0,1,35.185,50.862ZM147.232,91.51c2.434,0,4.261,1.375,6.2,2.83a17.756,17.756,0,0,0,3.9,2.437,20.3,20.3,0,0,0,7.538,1.447,19.974,19.974,0,0,0,3.869-.375,19.168,19.168,0,0,0,10.377-5.977,25.163,25.163,0,0,0,6.467-17.415,27.2,27.2,0,0,0-1-6.629,31.817,31.817,0,0,0-6.335-11.862l-.444-.518a36.484,36.484,0,0,0-8.6-7.324A20.645,20.645,0,0,0,158.637,44.9a15.639,15.639,0,0,0-5.439.974l.027,1.146c0,.206.005.393,0,.573A38.079,38.079,0,0,1,149.1,65.7a23.848,23.848,0,0,1-5.468,6.8,22.621,22.621,0,0,1-8.03,4.35,74.659,74.659,0,0,1,8.214,15.619,6.12,6.12,0,0,1,2.765-.923A6.532,6.532,0,0,1,147.232,91.51ZM28.751,126.5a44.323,44.323,0,0,1-9.73-1.234A35.034,35.034,0,0,1,.194,114.055a.859.859,0,0,1-.107-.924.743.743,0,0,1,.654-.468.74.74,0,0,1,.418.14,42.652,42.652,0,0,0,19.264,7.554,43.31,43.31,0,0,0,4.68.265,34.432,34.432,0,0,0,5.215-.385c.615-.1,1.223-.212,1.811-.325a20.715,20.715,0,0,1,3.916-.5,8.808,8.808,0,0,1,2.376.311,1.785,1.785,0,0,1,1.282,1.21,2.158,2.158,0,0,1-.434,2C37.283,125.3,33.743,126.5,28.751,126.5Zm154.49-10.139a32.508,32.508,0,0,1-7.409-.816.479.479,0,0,1-.363-.548.5.5,0,0,1,.485-.464h.015c.235.006.471.009.7.009a22.207,22.207,0,0,0,5.616-.673,19.266,19.266,0,0,0,5.238-2.216,21.47,21.47,0,0,0,4.045-3.454,21.489,21.489,0,0,1,3.837-3.307,3.048,3.048,0,0,1,1.623-.477,3.481,3.481,0,0,1,2.936,1.8,3.133,3.133,0,0,1-.005,3.228,13.081,13.081,0,0,1-7.067,5.378A28.6,28.6,0,0,1,183.24,116.364ZM54.455,87.29a11.627,11.627,0,0,1-5.14-1.144,10.464,10.464,0,0,1-4.106-3.57,9.1,9.1,0,0,1-1.478-3.893,7.818,7.818,0,0,1,.157-2.8l-.053.218c.175-.789.281-1.253.312-1.382a11.783,11.783,0,0,1,2.97-5.3,8.513,8.513,0,0,1,5.418-2.389A6.58,6.58,0,0,1,58.358,63.8a7.773,7.773,0,0,1,6.447,3.35l.131.2.03-.038a12.112,12.112,0,0,1,2.06,10.152,13.084,13.084,0,0,1-2.209,4.843,11.465,11.465,0,0,1-4.094,3.472A14.072,14.072,0,0,1,54.455,87.29Zm111.075-2.8a7.982,7.982,0,0,1-1.767-.2,7.529,7.529,0,0,1-4.391-3.377,6.579,6.579,0,0,1-.645-1.5L158,77.69c-.09-.272-.158-.561-.224-.84-.034-.145-.069-.293-.106-.436-.245-.95-.478-1.88-.645-2.83a11.667,11.667,0,0,1,.03-4.685,8.392,8.392,0,0,1,2.284-4.071,9,9,0,0,1,12.729,0,7.623,7.623,0,0,1,2.3,4.062,12.229,12.229,0,0,1,.014,4.694c-.164.95-.393,1.88-.633,2.83l-.206.854c-.039.154-.077.291-.118.421a6.939,6.939,0,0,1-.673,1.636,6.652,6.652,0,0,1-2.742,3.809A8.039,8.039,0,0,1,165.53,84.486ZM113.551,49.917a10.905,10.905,0,0,1-7.519-2.989l-.237-.224a9.9,9.9,0,0,1-2.906-5.55,11.187,11.187,0,0,1,.678-6.216,10.544,10.544,0,0,1,8.412-6.43,10.9,10.9,0,0,1,1.444-.1,10.763,10.763,0,0,1,9.289,5.239,11.09,11.09,0,0,1,0,10.873l-.16.275A10.293,10.293,0,0,1,113.551,49.917Z" transform="translate(44 37)"/></svg>