<svg xmlns="http://www.w3.org/2000/svg" width="289" height="293" viewBox="0 0 289 293"><path d="M21.478,92.737a4.783,4.783,0,0,1-1.387-.2,2.817,2.817,0,0,1-1.9-1.637c-1.334-3.543-2.215-9.459,1.165-17.525a41.046,41.046,0,0,1,6.175-10.123,25.349,25.349,0,0,1,6.63-5.949A22.223,22.223,0,0,1,42.7,54.582,21.115,21.115,0,0,1,52.864,57.2a26.438,26.438,0,0,1,7.02,5.77,72.76,72.76,0,0,1,5.446,7.251c.717,1.045,1.458,2.125,2.213,3.173a6.387,6.387,0,0,1,1.075,5.938,7.679,7.679,0,0,1-4.359,4.5,8.345,8.345,0,0,1-3.212.659,7.33,7.33,0,0,1-2.864-.568,7.7,7.7,0,0,1-4.132-4.364,29.773,29.773,0,0,0-3.208-5.828,17.51,17.51,0,0,0-4.669-4.624,8.413,8.413,0,0,0-8.446-.645c-2.569,1.168-6.887,5-9.828,9.8a19.21,19.21,0,0,0-3.224,11.446,2.6,2.6,0,0,1-.841,2.183,3.271,3.271,0,0,1-1.823.809A4.291,4.291,0,0,1,21.478,92.737ZM166.437,78.62a6.246,6.246,0,0,1-1.8-.29,6.818,6.818,0,0,1-2.816-1.682,5.607,5.607,0,0,1-1.566-2.833,11.6,11.6,0,0,0-4.072-6.779,8.128,8.128,0,0,0-6.5-1.709,12.481,12.481,0,0,0-6.993,4.193,15.363,15.363,0,0,0-1.468,2.14l-.044.073a15.623,15.623,0,0,1-2.9,3.812,2.832,2.832,0,0,1-1.8.677,2.685,2.685,0,0,1-.8-.125,11.4,11.4,0,0,1-2.581-3.61,7.1,7.1,0,0,1-.514-3.114,12.334,12.334,0,0,1,2.269-6.248A24.287,24.287,0,0,1,141.116,57a20.88,20.88,0,0,1,6.932-3.265,18.726,18.726,0,0,1,3.927-.418A20.045,20.045,0,0,1,163.5,57.067a21.888,21.888,0,0,1,8.951,13.7,7.288,7.288,0,0,1-.366,4.045,5.675,5.675,0,0,1-2.648,2.944A6.293,6.293,0,0,1,166.437,78.62Zm-163-26.68a1.664,1.664,0,0,1-.216-.014,2.029,2.029,0,0,1-1.056-.513C.67,50.153-.056,48.026,0,45.092A27.356,27.356,0,0,1,2.785,34.463,67.931,67.931,0,0,1,8.141,25.49a47.212,47.212,0,0,1,6.866-7.826A59.423,59.423,0,0,1,34.225,5.959c3.484-1.3,8.7-3.018,13.7-3.018.285,0,.57.006.847.017a16.461,16.461,0,0,1,5.1.969,13.409,13.409,0,0,1,4.539,2.822A8.423,8.423,0,0,1,60.924,12.9a8.782,8.782,0,0,1-2.53,6.293,13,13,0,0,1-5.374,3.141,31.249,31.249,0,0,1-5.867,1.047,53.36,53.36,0,0,0-5.716.844,53.714,53.714,0,0,0-13.805,5.041c-4.386,2.381-9.353,5.332-12.939,9.17-.844.9-1.647,1.861-2.424,2.787l-.019.023c-.723.862-1.406,1.675-2.132,2.468-.809.883-1.552,1.772-2.438,2.843a12.09,12.09,0,0,0-.688,1.217c-.176.369-.346.707-.52,1.036-.323.608-.633,1.14-.923,1.582-.575.966-.872,1.2-1.107,1.3A2.481,2.481,0,0,1,3.434,51.94Zm171.174-2.194a1.956,1.956,0,0,1-.323-.027,1.93,1.93,0,0,1-.985-.479,1.852,1.852,0,0,1-.554-.956,35.883,35.883,0,0,0-5.218-12.672A27.352,27.352,0,0,0,157.1,26.725a66.921,66.921,0,0,0-14.575-4.9c-1.4-.332-2.912-.553-4.373-.767l-.069-.01a36.936,36.936,0,0,1-6.933-1.483,12.262,12.262,0,0,1-5.693-3.842,10.629,10.629,0,0,1-1.968-3.839,9.791,9.791,0,0,1-.237-4.133,8.486,8.486,0,0,1,4.608-6.279A13.869,13.869,0,0,1,134.3,0c5.379,0,11.207,2.494,15.462,4.315l.349.149q.576.246,1.135.483a50.754,50.754,0,0,1,17.7,11.809,38.243,38.243,0,0,1,9.1,16.808c1.346,5.83.711,11.119-1.836,15.295a1.816,1.816,0,0,1-.83.729A1.912,1.912,0,0,1,174.608,49.746Z" transform="translate(54 55.059)"/></svg>