<svg xmlns="http://www.w3.org/2000/svg" width="289" height="293" viewBox="0 0 289 293"><path d="M77.72,194.291c-7.632,0-12.908-1.785-16.6-5.619-3.666-3.8-5.164-8.176-4.451-13,.876-5.926,4.935-11.339,8.186-14.836A56.72,56.72,0,0,1,78.1,150.359a55,55,0,0,1,16.8-5.927,94.359,94.359,0,0,1,17.791-1.5,50.172,50.172,0,0,1,13.865,1.532,45.114,45.114,0,0,1,10.755,4.935c7.775,4.569,15.985,10.417,17.933,19.149a18.634,18.634,0,0,1,.369,6.011,16.375,16.375,0,0,1-1.559,5.5,15.6,15.6,0,0,1-8.508,7.723c-4.524,1.777-56.714,5.9-63.6,6.356C80.409,194.241,79.027,194.291,77.72,194.291Zm32.225-42.048a31.6,31.6,0,0,0-7.448,1.07,53.157,53.157,0,0,0-7.679,2.593c-5.121,2.178-8.43,4.552-8.43,6.048,0,.453.865.8,2.57,1.023a53.542,53.542,0,0,0,6.586.311,213.9,213.9,0,0,0,21.675-1.3c7.789-.863,12.425-1.858,12.719-2.731a1.238,1.238,0,0,0-.265-1.132c-.913-1.27-3.778-2.739-7.662-3.929A43.233,43.233,0,0,0,109.945,152.243Zm7.255-31.015h0a34.912,34.912,0,0,1-12.448-2.509,62.871,62.871,0,0,1-14.639-8.307,5.626,5.626,0,0,1-2.043-3.25,6.731,6.731,0,0,1,.29-3.649,8.3,8.3,0,0,1,2.464-3.562,6,6,0,0,1,3.841-1.5,5.45,5.45,0,0,1,2.971.912q.468.359.979.755l.022.017a79.253,79.253,0,0,0,9.165,6.373c4.141,2.357,7.734,3.5,10.984,3.5a11.863,11.863,0,0,0,4.642-.912,12.972,12.972,0,0,0,4.322-3.062,13.255,13.255,0,0,0,2.515-10.672,20.156,20.156,0,0,0-5.35-9.465,39,39,0,0,0-8.1-6.536,2.511,2.511,0,0,1-.679-2.887,3.768,3.768,0,0,1,1.249-1.8,3.831,3.831,0,0,1,2.391-.79,5.094,5.094,0,0,1,.859.076,27.156,27.156,0,0,1,9.55,3.45,21.663,21.663,0,0,1,6.423,5.922,23.527,23.527,0,0,1,4.1,15.718,25.9,25.9,0,0,1-2.1,8.25,24.071,24.071,0,0,1-4.734,7.089A22.625,22.625,0,0,1,117.2,121.229ZM32.313,71.417a.632.632,0,0,1-.107-.009,14.065,14.065,0,0,1-8.377-4.176,13.182,13.182,0,0,1-3.056-9.021,23.988,23.988,0,0,1,2.95-11.488,27.464,27.464,0,0,1,7.818-8.956A21.85,21.85,0,0,1,44.62,33.5,23.91,23.91,0,0,1,58.7,38.12a21.607,21.607,0,0,1,5.151,5.339,19.887,19.887,0,0,1,2.967,6.978,6.684,6.684,0,0,1,3.663,5.7l.065.675C70.851,60,68,63.05,65.149,63.9a11.181,11.181,0,0,1-3.209.493,12.98,12.98,0,0,1-5.519-1.4c-2.859-1.309-3.85-5.015-3.33-7.836l.046-.233a6.272,6.272,0,0,0-1.211-4.933,10.433,10.433,0,0,0-4.049-3.347,8.511,8.511,0,0,0-3.577-.771,11.8,11.8,0,0,0-6.621,2.259A17.748,17.748,0,0,0,33.315,52.6a17.177,17.177,0,0,0-2.59,5.687l-.092.408a23.471,23.471,0,0,0-.5,6.381c.215,2.659,1.059,4.443,2.509,5.3a.506.506,0,0,1,.261.588A.619.619,0,0,1,32.313,71.417Zm111.875-4.188a.618.618,0,0,1-.533-.318l-.428-.688c-.319-.508-.634-1-.938-1.478a38.02,38.02,0,0,1-3.839-7.027,15.633,15.633,0,0,1-.742-8.231,18.026,18.026,0,0,1,4.2-8.836,19.114,19.114,0,0,1,8.072-5.588,17.049,17.049,0,0,1,5.715-.968,20.282,20.282,0,0,1,16.142,8.35,15.509,15.509,0,0,1,2.1,14.437,8.2,8.2,0,0,1-2.914,4.09,6.923,6.923,0,0,1-4.053,1.282,7.882,7.882,0,0,1-5.824-2.644,8.088,8.088,0,0,1-1.855-6.47l.04-.284a5.443,5.443,0,0,0-1-4.5,4.747,4.747,0,0,0-3.7-1.535,8.2,8.2,0,0,0-2.722.5c-2.982,1.055-5.553,3.817-7.051,7.578a16.948,16.948,0,0,0-1.217,5.9,11.572,11.572,0,0,0,1.137,5.448.64.64,0,0,1-.012.645A.707.707,0,0,1,144.188,67.229Zm29.456-35.746a57.324,57.324,0,0,1-13.735-1.839,80.631,80.631,0,0,1-12.376-4.2A59.688,59.688,0,0,1,132.6,16.095,31.737,31.737,0,0,1,126.6,9.26a16.464,16.464,0,0,1-2.677-7.843.831.831,0,0,1,.233-.62,1.023,1.023,0,0,1,.73-.312.921.921,0,0,1,.224.027c3.075.773,5.973,2.544,8.776,4.256,1.339.818,2.723,1.664,4.08,2.367a74.352,74.352,0,0,0,14.115,5.64,51.549,51.549,0,0,0,14.2,1.992l.441,0A44.5,44.5,0,0,0,174.4,13.8a42.823,42.823,0,0,1,7.69-.95c.212,0,.424,0,.63.01a8.267,8.267,0,0,1,5.417,2.271,9.706,9.706,0,0,1,2.843,4.96,7.954,7.954,0,0,1-.351,4.809A7.482,7.482,0,0,1,187,28.673,29.371,29.371,0,0,1,173.644,31.483Zm-152-.1a63.663,63.663,0,0,1-11.036-.88A35.759,35.759,0,0,1,.614,27.3a1.129,1.129,0,0,1-.607-1.16,1.317,1.317,0,0,1,.91-1.154,64.531,64.531,0,0,1,10.843-1.77c2.4-.253,4.873-.516,7.223-.945A148.776,148.776,0,0,0,35.627,18.46,116.432,116.432,0,0,0,51.35,12.444a101.218,101.218,0,0,0,14.57-8.379A10.479,10.479,0,0,1,74.119,0a9.2,9.2,0,0,1,8.1,4.7,9.7,9.7,0,0,1,1.376,4.356,8.562,8.562,0,0,1-.739,4,10.166,10.166,0,0,1-3.115,3.887,11.849,11.849,0,0,1-4.786,2.182A157.332,157.332,0,0,1,56.9,26a113.232,113.232,0,0,1-18.874,4.16l-1.752.221A121.624,121.624,0,0,1,21.644,31.385Z" transform="translate(54 65)"/><path d="M0,16.506S10.156,0,26.862,0s36.051,8.69,34.7,12.822c-.722,2.208-16.259,8.444-42.173,8.691C12.961,21.574,0,16.506,0,16.506Z" transform="translate(133.238 213.217)" fill="none" stroke="#22252b" stroke-miterlimit="10" stroke-width="1.5"/></svg>