<svg xmlns="http://www.w3.org/2000/svg" width="289" height="293" viewBox="0 0 289 293"><ellipse cx="33" cy="29" rx="33" ry="29" transform="translate(74 90)" fill="#fff"/><ellipse cx="29.5" cy="25" rx="29.5" ry="25" transform="translate(197 91)" fill="#fff"/><path d="M1.464,23.907C6.195,11.069,33.9,0,52.966,0S102.6,11.069,102.6,11.069L93.859,35.293S13.784,31.9,9.182,31.9-3.266,36.744,1.464,23.907Z" transform="translate(118.254 192.71)" fill="#fff"/><path d="M74.392,203.231c-6,0-10.814-.9-14.721-2.737a19.884,19.884,0,0,1-5.892-4.189,21.438,21.438,0,0,1-4.316-6.752,41.815,41.815,0,0,1-.829-20.722,44.967,44.967,0,0,1,3.205-9.581,49.013,49.013,0,0,1,5.208-8.7A53.4,53.4,0,0,1,75.023,135.3,51.914,51.914,0,0,1,86.215,131a48.781,48.781,0,0,1,12.031-1.524h.218c1.774-.07,3.675-.106,5.648-.106a206.552,206.552,0,0,1,36.9,3.44,119.793,119.793,0,0,1,17.893,4.709,49.494,49.494,0,0,1,13.7,7.066c3.945,2.974,6,7.82,6.121,14.4a56.8,56.8,0,0,1-3.342,18.349,85.985,85.985,0,0,1-5.389,12.691c-1.67,3.149-3.151,5.265-3.684,5.266H166.3c-2.463-.092-5.011-.139-7.572-.139-19.2,0-38.565,2.617-57.292,5.147l-.243.033-3.255.439-4.566.615-1.743.242A126.962,126.962,0,0,1,74.392,203.231ZM97.7,157.339c6.706,0,13.88.051,20.911.42,2.966.065,6.013.221,8.96.373,3.912.2,7.956.409,11.906.409,1.578,0,3.028-.032,4.436-.1,2.49-.116,4.044-.9,4.89-2.468a12.693,12.693,0,0,0,.958-5.2,26.859,26.859,0,0,1,.381-3.773,62.37,62.37,0,0,0-15.461-4.572,147.515,147.515,0,0,0-21.867-1.629c-4.98,0-10.048.254-15.063.754a57.467,57.467,0,0,0-15.707,3.516,34.039,34.039,0,0,0-6.825,3.641,29.025,29.025,0,0,0-5.787,5.329,6.373,6.373,0,0,1,4.138,3.135c5.121.155,10.3.176,14.69.176,1.641,0,3.3,0,4.768-.006h.093C94.626,157.341,96.176,157.339,97.7,157.339Zm23.5-38.111h0a34.914,34.914,0,0,1-12.449-2.509,62.873,62.873,0,0,1-14.639-8.307,5.625,5.625,0,0,1-2.043-3.249,6.732,6.732,0,0,1,.29-3.648,8.3,8.3,0,0,1,2.464-3.562,6,6,0,0,1,3.841-1.5,5.45,5.45,0,0,1,2.971.912q.469.359.981.756l.021.017a79.253,79.253,0,0,0,9.164,6.373c4.14,2.357,7.733,3.5,10.984,3.5a11.862,11.862,0,0,0,4.642-.913,12.972,12.972,0,0,0,4.322-3.063,13.253,13.253,0,0,0,2.515-10.67,20.157,20.157,0,0,0-5.35-9.466,39.007,39.007,0,0,0-8.1-6.537,2.511,2.511,0,0,1-.679-2.887,3.767,3.767,0,0,1,1.248-1.8,3.83,3.83,0,0,1,2.39-.789,5.094,5.094,0,0,1,.86.076,27.157,27.157,0,0,1,9.55,3.45,21.664,21.664,0,0,1,6.423,5.922,23.526,23.526,0,0,1,4.1,15.718,25.9,25.9,0,0,1-2.1,8.25,24.07,24.07,0,0,1-4.734,7.088A22.625,22.625,0,0,1,121.2,119.228ZM50.585,96.337A48.974,48.974,0,0,1,24.544,88.55C16.718,83.54,11.049,76.772,8.58,69.494a25.548,25.548,0,0,1-1.386-8.146,24.8,24.8,0,0,1,1.482-8.46C10.837,46.865,15.3,41.23,21.938,36.14c.392-3.314,3.918-4.736,7.029-5.99.811-.327,1.578-.636,2.254-.965l-1.167-.274A75.7,75.7,0,0,0,13.2,26.576,36.8,36.8,0,0,0,1.39,28.4l-.078,0a1.226,1.226,0,0,1-.966-.472,1.6,1.6,0,0,1-.314-1.312,24.8,24.8,0,0,1,5.542-6.4,27.428,27.428,0,0,1,7.137-4.149,38.738,38.738,0,0,1,8.377-2.24,59.9,59.9,0,0,1,9.262-.671c13.976,0,29.527,3.893,42.023,7.021,3.379.846,6.57,1.645,9.382,2.275a14.134,14.134,0,0,1,2.994-.338,9.919,9.919,0,0,1,7.788,3.5A12.585,12.585,0,0,1,95.405,33.3a11.39,11.39,0,0,1-2.895,8.349A9.722,9.722,0,0,1,85.3,44.5a15.384,15.384,0,0,1-2.513-.217,30.5,30.5,0,0,1,4.987,22.857,34.045,34.045,0,0,1-12.145,20.34A37.659,37.659,0,0,1,63.6,94.235,40.34,40.34,0,0,1,50.585,96.337Zm-5.82-57.794h0a38.562,38.562,0,0,0-12.272,1.909,23.841,23.841,0,0,0-9.7,5.918,18.082,18.082,0,0,0-3.945,6.3,21.247,21.247,0,0,0-1.189,8.286,23.6,23.6,0,0,0,3.015,10.689,23.241,23.241,0,0,0,6.938,7.478c5.374,3.76,12.589,5.83,20.317,5.831a39.311,39.311,0,0,0,15.563-3.082,23.628,23.628,0,0,0,10.976-8.965,17.585,17.585,0,0,0,2.585-9.514A27.325,27.325,0,0,0,73.75,51.364c-2.491-3.915-6.672-7.2-12.091-9.494a41.479,41.479,0,0,0-8.191-2.479,45.372,45.372,0,0,0-8.7-.846ZM167.044,86.478a37.792,37.792,0,0,1-13.594-2.317c-9.636-3.326-17.263-10.065-20.4-18.025-2.524-6.4-2.034-13.223,1.416-19.742h-.1a13.547,13.547,0,0,1-7.813-2.766,15.761,15.761,0,0,1-5.251-6.462,9.928,9.928,0,0,1-.8-5.005,7.826,7.826,0,0,1,2.262-4.606,11.743,11.743,0,0,1,4.68-3.013,13.765,13.765,0,0,1,4.542-.675c.816,0,1.584.045,2.365.1l.157.01c.676.044,1.315.086,1.889.086a4.328,4.328,0,0,0,2.055-.37l2.906-1.55C159.03,12.748,178,3.3,198.463,0a.549.549,0,0,1,.061,0A.519.519,0,0,1,199,.347a.643.643,0,0,1-.107.7c-6.3,6.218-13.761,11.387-20.98,16.386-3.447,2.387-7.01,4.855-10.384,7.395a39.247,39.247,0,0,1,12.192,3.011,44.614,44.614,0,0,1,10.828,6.539,46.3,46.3,0,0,1,8.654,9.276,42.592,42.592,0,0,1,5.67,11.222,21.452,21.452,0,0,1-4.783,18.238,35.7,35.7,0,0,1-14.64,9.933,51.817,51.817,0,0,1-18.408,3.434Zm-19.98-45.262h0c-3.643,4.159-5.968,8.272-6.911,12.224a15.452,15.452,0,0,0,.864,10.191c1.856,4.094,5.558,7.574,10.7,10.063a39.071,39.071,0,0,0,16.687,3.655,36.7,36.7,0,0,0,13.879-2.62,26.341,26.341,0,0,0,11.1-8.33,10.986,10.986,0,0,0,2.4-6.3,13.635,13.635,0,0,0-1.462-6.487A25.853,25.853,0,0,0,189.5,46.9a40.959,40.959,0,0,0-6.886-5.66c-5.1-3.351-10.566-5.408-14.627-5.5a10.52,10.52,0,0,0-2.2-.23c-3.365,0-6.6,1.582-9.369,3.064q-.469.251-.928.5c-2.541,1.376-4.735,2.564-6.662,2.564a3.705,3.705,0,0,1-1.772-.421ZM53.424,69.321a5.572,5.572,0,0,1-4.563-2.559,11.353,11.353,0,0,1-1.946-5.629,8.625,8.625,0,0,1,1.817-6.528,5.23,5.23,0,0,1,4.01-1.659l.167,0a9.645,9.645,0,0,1,3.266-.646,5.037,5.037,0,0,1,3.657,1.4,6.447,6.447,0,0,1,1.718,3.45,11.551,11.551,0,0,1-.91,6.762,9.281,9.281,0,0,1-4.9,4.94A6.359,6.359,0,0,1,53.424,69.321Zm109.423-5.455a8.444,8.444,0,0,1-5.861-2.147,8.208,8.208,0,0,1-1.965-2.834,12.1,12.1,0,0,1-.891-4.14,9.185,9.185,0,0,1,2.563-6.986,11.2,11.2,0,0,1,8-3.449,8.819,8.819,0,0,1,4.788,1.344,8.628,8.628,0,0,1,3.38,4.305,10.557,10.557,0,0,1,.781,5.021,8.869,8.869,0,0,1-1.505,4.1A11.453,11.453,0,0,1,162.847,63.866Z" transform="translate(58 59)" fill="#231f20"/></svg>