<svg xmlns="http://www.w3.org/2000/svg" width="289" height="293" viewBox="0 0 289 293"><path d="M105.476,200.184a12.042,12.042,0,0,1-8.915-4.042,14.2,14.2,0,0,1-2.708-4.31,14.741,14.741,0,0,1-1.07-5.176c-.133-5.461,2.876-11.183,8.944-17.007a52.141,52.141,0,0,1,13.541-9.535,31.22,31.22,0,0,1,6.933-2.459,22.22,22.22,0,0,1,3.523-.361,19.058,19.058,0,0,0,4.011-.482.7.7,0,0,1,.183-.025.806.806,0,0,1,.726.529.656.656,0,0,1-.179.749,21,21,0,0,0-3.913,5.738c-.561,1.043-1.091,2.029-1.653,2.9-1.55,2.393-3.185,4.978-4.646,7.663a85.7,85.7,0,0,0-4.422,9.044l-.248.632c.265.632.493,1.266.675,1.775.075.21.147.409.211.58l.062.164a7.973,7.973,0,0,1,.521,3.565,9.553,9.553,0,0,1-.961,3.425,11.91,11.91,0,0,1-6.985,6.088A12.583,12.583,0,0,1,105.476,200.184Zm7.913-19.223h0a4.114,4.114,0,0,1,1.636,1.888A3,3,0,0,0,113.388,180.961Zm5.812-50.732h0a34.911,34.911,0,0,1-12.448-2.509,62.87,62.87,0,0,1-14.639-8.307,5.625,5.625,0,0,1-2.043-3.249,6.731,6.731,0,0,1,.29-3.648,8.3,8.3,0,0,1,2.464-3.562,6,6,0,0,1,3.841-1.5,5.45,5.45,0,0,1,2.971.912q.478.367,1,.772a79.252,79.252,0,0,0,9.165,6.373c4.141,2.357,7.734,3.5,10.984,3.5a11.863,11.863,0,0,0,4.641-.912,12.972,12.972,0,0,0,4.322-3.062,13.254,13.254,0,0,0,2.514-10.671,20.156,20.156,0,0,0-5.35-9.465,39.007,39.007,0,0,0-8.1-6.536,2.511,2.511,0,0,1-.679-2.887,3.768,3.768,0,0,1,1.248-1.8,3.831,3.831,0,0,1,2.391-.79,5.1,5.1,0,0,1,.859.076,27.155,27.155,0,0,1,9.55,3.45,21.663,21.663,0,0,1,6.423,5.922,23.527,23.527,0,0,1,4.1,15.718,25.9,25.9,0,0,1-2.1,8.25,24.071,24.071,0,0,1-4.734,7.089A22.625,22.625,0,0,1,119.2,130.229ZM41.814,73.469A7.5,7.5,0,0,1,36.1,71.131c-2.37-2.792-3.485-5.333-3.506-8a10.871,10.871,0,0,1,.279-2.457l-3.528.062c-2.119.032-3.87.047-5.51.047a125.061,125.061,0,0,1-20.3-1.346,2.383,2.383,0,0,1-.481.05,2.757,2.757,0,0,1-1.932-.869A3.886,3.886,0,0,1,.062,56.615a3.115,3.115,0,0,1,2.145-3.621c10.994-4.3,23.166-5.644,34.938-6.945l1.031-.114c5.69-.631,11.5-1.087,17.114-1.528l1.451-.114,1.334-.113c.648-.057,1.308-.118,1.947-.178,2.747-.256,5.587-.52,8.373-.52a31.239,31.239,0,0,1,7.035.721,6.929,6.929,0,0,1,4.112,2.621,7.6,7.6,0,0,1,1.426,4.327,8.637,8.637,0,0,1-1.344,4.881,7.366,7.366,0,0,1-4.195,3.135,39.364,39.364,0,0,1-10.717,1.2c-1.38,0-2.768-.03-4.11-.06-1.323-.029-2.692-.059-4.048-.059-.272,0-.537,0-.79,0-.653.006-1.315.02-1.956.032l-1.092.021a15.259,15.259,0,0,1-2.207,6.583,32.843,32.843,0,0,1-3.072,4.24A7.266,7.266,0,0,1,41.814,73.469Zm115.5-6.837a8.159,8.159,0,0,1-6.435-3.337A6.6,6.6,0,0,1,149.8,57.29l.077-.228c.167-.473.323-.966.487-1.489.143-.453.291-.922.449-1.386l-1.786-.151a44.733,44.733,0,0,1-8.626-1.422,14.293,14.293,0,0,1-3.716-1.635,6.383,6.383,0,0,1-2.378-2.6,3.09,3.09,0,0,1,.457-3.537c3.273-3.9,10.732-4.5,16.178-4.937.784-.063,1.524-.123,2.206-.189l.309-.031c1.429-.146,2.918-.317,4.359-.482h.007a125.239,125.239,0,0,1,14.052-1.078,47.359,47.359,0,0,1,4.83.229,9.423,9.423,0,0,1,6.3,3.041,8.7,8.7,0,0,1,0,11.336,9.414,9.414,0,0,1-6.3,3.041,47.991,47.991,0,0,1-4.867.23c-2.317,0-4.821-.131-7.88-.413a7.979,7.979,0,0,1-.155,7.19,7.374,7.374,0,0,1-5.569,3.789A6.991,6.991,0,0,1,157.311,66.632ZM15.584,30.014a31.338,31.338,0,0,1-10.725-1.5l.017-.03A1.664,1.664,0,0,1,4.464,25.5c3.9-2.755,8.845-4.091,13.631-5.384,1.07-.289,2.08-.562,3.083-.851,5.277-1.525,10.775-2.992,16.807-4.486,2.142-.53,4.338-1.06,6.462-1.573l.01,0c9.681-2.338,19.692-4.755,29.059-8.158a7.661,7.661,0,0,1,2.623-.465,8.935,8.935,0,0,1,6.03,2.516,9.9,9.9,0,0,1,3.1,5.781,8.848,8.848,0,0,1-1.65,6.717,9.547,9.547,0,0,1-3.152,2.621,12.273,12.273,0,0,1-4.175,1.3l-.274.033c-6.155.678-12.39,1.658-18.42,2.606-5.8.913-11.8,1.856-17.733,2.53-5.65.642-11.22,1.039-16.554,1.182l-3.951.089C18.02,29.986,16.808,30.014,15.584,30.014ZM157.816,21.13c-2.433,0-4.883-.05-7.282-.15l-2.369-.107c-.791-.031-1.615-.054-2.487-.079a74.7,74.7,0,0,1-11.507-.932c-4.33-.822-7.292-2.287-9.055-4.478a8.525,8.525,0,0,1-1.713-3.738,13.791,13.791,0,0,1,.1-5.206A7.443,7.443,0,0,1,126.628,1.6,9.6,9.6,0,0,1,132.048,0,9.185,9.185,0,0,1,139.6,3.566c1.63.56,3.775,1.142,5.667,1.656,1.076.292,2.093.569,2.925.815,3.825,1.135,7.938,2.348,12.105,3.534,6.343,1.807,12.674,4.016,18.8,6.153,1.954.682,3.975,1.387,5.97,2.07a.713.713,0,0,1,.531.756.821.821,0,0,1-.731.717A208.092,208.092,0,0,1,157.816,21.13Z" transform="translate(52 56)"/></svg>