<svg xmlns="http://www.w3.org/2000/svg" width="289" height="293" viewBox="0 0 289 293"><path d="M105.29,186.789a38.105,38.105,0,0,1-21.113-6.244A40.23,40.23,0,0,1,75.443,173a31.6,31.6,0,0,1-5.324-8.5,24.113,24.113,0,0,1-1.9-9.657,2.981,2.981,0,0,1,.707-1.9,3.319,3.319,0,0,1,1.766-1.06,3.41,3.41,0,0,1,.778-.09,3.133,3.133,0,0,1,1.287.27,2.747,2.747,0,0,1,1.361,1.338c.634.832,1.469,1.923,2.308,2.978a58.045,58.045,0,0,0,9.583,9.806,29.673,29.673,0,0,0,11.923,5.608,25.533,25.533,0,0,0,5.479.6,26.822,26.822,0,0,0,9.252-1.674,31.47,31.47,0,0,0,12.95-9.1A6.953,6.953,0,0,1,130.906,159h.046a8.137,8.137,0,0,1,5.628,2.492,8.779,8.779,0,0,1,2.629,5.729,7.665,7.665,0,0,1-2.177,5.629,43.621,43.621,0,0,1-9.179,7.479,44.426,44.426,0,0,1-10.811,4.772A42.24,42.24,0,0,1,105.29,186.789Zm11.91-55.62h0a34.914,34.914,0,0,1-12.449-2.509,62.872,62.872,0,0,1-14.639-8.307,5.624,5.624,0,0,1-2.043-3.249,6.731,6.731,0,0,1,.29-3.648,8.3,8.3,0,0,1,2.464-3.563,6,6,0,0,1,3.841-1.5,5.449,5.449,0,0,1,2.971.912q.464.355.969.747l.033.026a79.25,79.25,0,0,0,9.165,6.372c4.14,2.357,7.733,3.5,10.983,3.5a11.861,11.861,0,0,0,4.641-.912,12.97,12.97,0,0,0,4.322-3.062,13.255,13.255,0,0,0,2.515-10.671,20.157,20.157,0,0,0-5.35-9.465,39,39,0,0,0-8.1-6.536,2.511,2.511,0,0,1-.68-2.887,3.767,3.767,0,0,1,1.248-1.8,3.829,3.829,0,0,1,2.39-.79,5.091,5.091,0,0,1,.86.076,27.158,27.158,0,0,1,9.55,3.45,21.664,21.664,0,0,1,6.423,5.922,23.526,23.526,0,0,1,4.1,15.718,25.9,25.9,0,0,1-2.1,8.25,24.07,24.07,0,0,1-4.734,7.089A22.626,22.626,0,0,1,117.2,131.169ZM21.478,92.737a4.785,4.785,0,0,1-1.387-.2,2.817,2.817,0,0,1-1.9-1.637c-1.334-3.543-2.215-9.459,1.166-17.525a41.049,41.049,0,0,1,6.175-10.123,25.35,25.35,0,0,1,6.63-5.949A22.223,22.223,0,0,1,42.7,54.582,21.115,21.115,0,0,1,52.864,57.2a26.437,26.437,0,0,1,7.02,5.77,72.756,72.756,0,0,1,5.446,7.251c.717,1.045,1.458,2.125,2.213,3.173a6.387,6.387,0,0,1,1.075,5.938,7.679,7.679,0,0,1-4.359,4.5,8.345,8.345,0,0,1-3.212.659,7.33,7.33,0,0,1-2.864-.568,7.7,7.7,0,0,1-4.132-4.364,29.773,29.773,0,0,0-3.208-5.828,17.509,17.509,0,0,0-4.669-4.624,8.413,8.413,0,0,0-8.446-.645c-2.569,1.168-6.887,5-9.828,9.8a19.21,19.21,0,0,0-3.224,11.446,2.6,2.6,0,0,1-.841,2.183,3.271,3.271,0,0,1-1.823.809A4.291,4.291,0,0,1,21.478,92.737ZM166.437,78.62a6.247,6.247,0,0,1-1.8-.29,6.818,6.818,0,0,1-2.816-1.682,5.607,5.607,0,0,1-1.566-2.833,11.6,11.6,0,0,0-4.072-6.779,8.128,8.128,0,0,0-6.5-1.709,12.481,12.481,0,0,0-6.993,4.193,15.356,15.356,0,0,0-1.468,2.141l-.044.072a15.623,15.623,0,0,1-2.9,3.811,2.832,2.832,0,0,1-1.8.677,2.685,2.685,0,0,1-.8-.125,11.4,11.4,0,0,1-2.581-3.61,7.1,7.1,0,0,1-.514-3.114,12.334,12.334,0,0,1,2.269-6.248A24.287,24.287,0,0,1,141.116,57a20.88,20.88,0,0,1,6.932-3.265,18.726,18.726,0,0,1,3.927-.418A20.045,20.045,0,0,1,163.5,57.067a21.889,21.889,0,0,1,8.951,13.7,7.287,7.287,0,0,1-.366,4.046,5.675,5.675,0,0,1-2.648,2.944A6.293,6.293,0,0,1,166.437,78.62Zm-163-26.68a1.667,1.667,0,0,1-.216-.014,2.03,2.03,0,0,1-1.056-.513C.67,50.153-.056,48.026,0,45.092A27.357,27.357,0,0,1,2.785,34.463,67.929,67.929,0,0,1,8.141,25.49a47.211,47.211,0,0,1,6.866-7.826A59.424,59.424,0,0,1,34.225,5.959c3.484-1.3,8.7-3.018,13.7-3.018.284,0,.569.006.847.017a16.46,16.46,0,0,1,5.1.969,13.408,13.408,0,0,1,4.539,2.821A8.423,8.423,0,0,1,60.924,12.9a8.782,8.782,0,0,1-2.53,6.293,13,13,0,0,1-5.374,3.141,31.25,31.25,0,0,1-5.867,1.047,53.348,53.348,0,0,0-5.716.844,53.711,53.711,0,0,0-13.805,5.041c-4.386,2.381-9.353,5.332-12.939,9.17-.845.9-1.647,1.861-2.424,2.787l-.021.025c-.722.861-1.4,1.674-2.131,2.466-.809.883-1.552,1.772-2.438,2.843a12.09,12.09,0,0,0-.688,1.217c-.176.368-.346.707-.52,1.036-.322.607-.633,1.14-.923,1.582-.575.966-.872,1.2-1.107,1.3A2.481,2.481,0,0,1,3.434,51.94Zm171.174-2.194a1.958,1.958,0,0,1-.323-.027,1.93,1.93,0,0,1-.985-.479,1.852,1.852,0,0,1-.553-.956,35.885,35.885,0,0,0-5.218-12.672A27.352,27.352,0,0,0,157.1,26.725a66.921,66.921,0,0,0-14.575-4.9c-1.4-.332-2.913-.553-4.374-.767l-.069-.01a36.939,36.939,0,0,1-6.933-1.483,12.262,12.262,0,0,1-5.693-3.842,10.628,10.628,0,0,1-1.968-3.839,9.791,9.791,0,0,1-.237-4.133,8.486,8.486,0,0,1,4.608-6.279A13.869,13.869,0,0,1,134.3,0c5.379,0,11.207,2.494,15.462,4.316l.34.145.015.007q.573.245,1.129.48a50.754,50.754,0,0,1,17.7,11.809,38.243,38.243,0,0,1,9.1,16.807c1.346,5.83.711,11.119-1.836,15.295a1.816,1.816,0,0,1-.83.729A1.912,1.912,0,0,1,174.608,49.746Z" transform="translate(54 55.059)"/></svg>