<svg xmlns="http://www.w3.org/2000/svg" width="289" height="293" viewBox="0 0 289 293"><path d="M55.2,84c26.51,0,48-18.8,48-42S81.709,0,55.2,0,0,18.041,0,41.237c0,9.842,7.754,27.041,14.234,34.2C23.026,85.153,39.938,84,55.2,84Z" transform="translate(39.801 79)" fill="#fff"/><path d="M42.256,75.962c20.293,0,36.744-17,36.744-37.981S62.549,0,42.256,0,0,16.315,0,37.291c0,8.9,5.936,24.453,10.9,30.928C17.626,77,30.573,75.962,42.256,75.962Z" transform="translate(167 79)" fill="#fff"/><path d="M49.978,201.946a8.684,8.684,0,0,1-3.386-.7,7.947,7.947,0,0,1-4.839-5.28,10.1,10.1,0,0,1,1.889-8.522l.166-.219c4.153-5.343,6.755-12.085,8.868-17.985,1.189-3.321,2.236-6.586,3.112-9.7.163-.578.288-1.163.409-1.728.378-1.76.734-3.422,2.133-4.714a.717.717,0,0,1,.481-.192.59.59,0,0,1,.314.088c1.893,1.2,3.255,3.774,4.048,7.659a50.926,50.926,0,0,1,.839,9.592c.609.159,1.224.327,1.818.489l.014,0c1.184.324,2.3.63,3.4.873,2.58.571,5.213,1.1,7.76,1.606l.008,0,.025.005c.947.189,1.927.385,2.89.58l2.67.551a210.091,210.091,0,0,0,27.115,3.97c5.036.386,9.449.573,13.49.573a102.521,102.521,0,0,0,13.225-.787,71.334,71.334,0,0,0,11.191-2.394,48.5,48.5,0,0,0,8.261-3.561c1.132-.575,2.3-1.168,3.512-1.732a9.726,9.726,0,0,1,4.12-.956,8.7,8.7,0,0,1,5.5,1.968,9.393,9.393,0,0,1,3.126,4.683,7.909,7.909,0,0,1-.157,4.981,8.845,8.845,0,0,1-3.787,4.387,47.909,47.909,0,0,1-14.132,5.553,101,101,0,0,1-15.093,2.277c-2.453.2-5.013.308-7.608.308a135.251,135.251,0,0,1-21.636-1.938c-5.332-.855-10.556-1.939-15.525-3.222a148.762,148.762,0,0,1-15.12-4.765,106.61,106.61,0,0,1-12.226-5.584l-1.079-.575c-.465-.25-.952-.506-1.423-.754l-.03-.016-.584-.308c-.644,5.74-2.383,11.835-5.471,19.181l-.061-.108a9.044,9.044,0,0,1-3.1,4.62A8.243,8.243,0,0,1,49.978,201.946Zm83.652-51.99a68.049,68.049,0,0,1-14.748-1.682,6.889,6.889,0,0,1-4.761-3.371,9.677,9.677,0,0,1,3.318-12.043,6.329,6.329,0,0,1,3.261-.879,8.093,8.093,0,0,1,2.548.436A46.306,46.306,0,0,0,137,135.026c.436.01.877.015,1.309.015,1.616,0,3.215-.072,4.751-.213,1.114-.1,2.259-.247,3.4-.43-.647-.863-1.282-1.746-1.942-2.7-.8-1.156-1.511-2.229-2.167-3.279a69.845,69.845,0,0,1-5.144-10c-.426-1.01-.86-2.11-1.327-3.364l-.005-.015-.175-.472c-.158-.133-.277-.234-.385-.328a26.793,26.793,0,0,1-6.98-9.333,41.25,41.25,0,0,1-3.309-16.687,66.31,66.31,0,0,1,2.247-16.982,43.433,43.433,0,0,1,5.252-12.1A40.151,40.151,0,0,1,141,49.421a22.065,22.065,0,0,1,2.818-3.976c4.234-4.4,10.013-6.863,14.116-8.149a35.557,35.557,0,0,1,10.652-1.615,38.539,38.539,0,0,1,11.976,1.936,41.162,41.162,0,0,1,10.929,5.489,52.657,52.657,0,0,1,11.8,11.549,56.406,56.406,0,0,1,7.929,14.7,51.482,51.482,0,0,1,3.067,15.426,43.8,43.8,0,0,1-2.126,15.534,36.2,36.2,0,0,1-8.3,13.926,33.876,33.876,0,0,1-13.708,8.622,46.948,46.948,0,0,1-15.17,2.259,105.881,105.881,0,0,1-18.224-1.919c-2.687-.478-5.044-.949-7.207-1.439a26.836,26.836,0,0,1,5.383,4.76c2.388,2.6,4.693,5.484,5.379,8.887a8.128,8.128,0,0,1-2.321,7.8c-2.446,2.425-6.428,4.247-11.838,5.416A59.412,59.412,0,0,1,133.63,149.955ZM140.5,64.908a50.33,50.33,0,0,0-2.793,17.042l0,.764.01.779A42.548,42.548,0,0,0,139.1,94.2a17.843,17.843,0,0,0,5.3,9.019,21.509,21.509,0,0,0,8.811,4.219,63.968,63.968,0,0,0,10.1,1.528l5.1.426,1.355.1c1.849.129,3.474.191,4.966.191a36.075,36.075,0,0,0,8.117-.813,20.451,20.451,0,0,0,7.367-3.185,17.784,17.784,0,0,0,5.73-6.947,26.4,26.4,0,0,0,2.38-8.769,37.515,37.515,0,0,0-.473-10.756,40.244,40.244,0,0,0-3.426-10.317,38.136,38.136,0,0,0-6.079-8.967,33.347,33.347,0,0,0-8.432-6.7A22.911,22.911,0,0,0,168.7,50.281a23.325,23.325,0,0,0-7.591,1.284,27.132,27.132,0,0,0-7.331,4.135l-.906.686c-.847.65-1.677,1.2-2.481,1.738a17.689,17.689,0,0,0-5.023,4.392l-.271.389a4.727,4.727,0,0,1-3.964,2.041,5.119,5.119,0,0,1-.631-.039ZM63.326,133.146a175.107,175.107,0,0,1-21.391-1.509l-3.983-.5a76.013,76.013,0,0,1-16.224-3.429A30.583,30.583,0,0,1,10.5,120.67,32.585,32.585,0,0,1,3.54,110.24,50.232,50.232,0,0,1,.106,87.777,65.982,65.982,0,0,1,1.825,76.245,62.166,62.166,0,0,1,5.383,65.639,52.687,52.687,0,0,1,12.068,54.6a56.763,56.763,0,0,1,9.451-9.554,46.294,46.294,0,0,1,11.357-6.723,33.093,33.093,0,0,1,12.4-2.541,28.414,28.414,0,0,1,2.949.153,64.1,64.1,0,0,1,8.3-.607l.574,0A64.657,64.657,0,0,1,94.963,47.256a55.731,55.731,0,0,1,7.394,6.425,46.152,46.152,0,0,1,5.978,7.658,34.714,34.714,0,0,1,5.451,18.454,47.727,47.727,0,0,1-4.5,19.251,85.457,85.457,0,0,1-10.341,17.023,47.435,47.435,0,0,1-7.073,7.474,39.993,39.993,0,0,1-8.1,5.3,40.716,40.716,0,0,1-9.16,3.183,49.683,49.683,0,0,1-10.24,1.114C64.023,133.145,63.672,133.146,63.326,133.146ZM56.614,45.889h0a68.843,68.843,0,0,0-16.148,1.966,73.245,73.245,0,0,0-15.193,5.506,58.753,58.753,0,0,0-8.353,11.77,52.029,52.029,0,0,0-4.9,12.609,49.469,49.469,0,0,0-1.267,13.523,44.867,44.867,0,0,0,2.61,13.32A18.77,18.77,0,0,0,22.606,115.2c4.237,2.239,9.431,3.277,13.953,4l3.91.614,1.64.248a134.476,134.476,0,0,0,19.273,1.732,57.05,57.05,0,0,0,10.948-.956,26.242,26.242,0,0,0,13.3-7.181,57.671,57.671,0,0,0,9.325-12.218l.247-.411a54.254,54.254,0,0,0,6.539-14.957,28.367,28.367,0,0,0,.815-7.979,22.585,22.585,0,0,0-1.862-7.984,33.625,33.625,0,0,0-8.808-11.658,50,50,0,0,0-12.413-7.88A52.329,52.329,0,0,0,68.312,47.02a59.845,59.845,0,0,0-11.7-1.13Zm-.377,63.344a26.336,26.336,0,0,1-13.983-3.986l.043-.055.006-.008a1.341,1.341,0,0,0,.084-.111,4.8,4.8,0,0,0,.848.075,4.2,4.2,0,0,0,4.117-2.761,13.288,13.288,0,0,0,.639-4.8A11.053,11.053,0,0,0,46.8,93.1a8.981,8.981,0,0,0-5.512-4.5,10.157,10.157,0,0,0-2.92-.43,10.576,10.576,0,0,0-4.143.857,11.74,11.74,0,0,0-3.543,2.343A30.445,30.445,0,0,1,28.827,74.69C30.3,66.084,35.525,59.021,42.8,55.8a16.942,16.942,0,0,1,6.911-1.63,13.147,13.147,0,0,1,3.087.37,27.258,27.258,0,0,1,28.566,2.411,7.994,7.994,0,0,0-2.091.661,6.659,6.659,0,0,0-3.345,4.635,4.272,4.272,0,0,0,.412,3.019,4.152,4.152,0,0,0,2.382,1.9,9.867,9.867,0,0,0,2.964.516A5.016,5.016,0,0,0,86.5,64.536l.059-.145.074-.107.028-.049V64.23a.4.4,0,0,0-.079.1c.051-.118.1-.233.145-.356l.006-.015a4.757,4.757,0,0,0,.2-.454c.092-.08.178-.169.262-.256l.025-.026A25.4,25.4,0,0,1,90.51,70.74a23.059,23.059,0,0,1,.032,11.193A30.968,30.968,0,0,1,85.774,92.34,41.5,41.5,0,0,1,73.9,103.649a34.833,34.833,0,0,1-14.6,5.414A28.186,28.186,0,0,1,56.237,109.233Zm112.663-5.1A20.871,20.871,0,0,1,156,99.683a3.253,3.253,0,0,0,.918-.715,9.65,9.65,0,0,0,1.728-2.582c.121-.276.223-.52.312-.748l.145-.379c.077-.221.205-.6.2-.61s0,0-.01.013l-.014.026.078-.184a4.875,4.875,0,0,0,.281-2.837,3.693,3.693,0,0,0-1.6-2.316l-.2-.122a4.037,4.037,0,0,0-2.02-.5,6.252,6.252,0,0,0-5.006-2.332,8.117,8.117,0,0,0-2.01.261l-.089-.714c-.015-.136-.026-.25-.033-.358a24.019,24.019,0,0,1-.762-10.124,25.483,25.483,0,0,1,3.569-9.885l.285-.449a25.044,25.044,0,0,1,5.18-5.815,11.391,11.391,0,0,1,7.012-2.859,7.8,7.8,0,0,1,1.975.254,8.539,8.539,0,0,1,2.308.992,13.509,13.509,0,0,1,1.808-.121,14.222,14.222,0,0,1,7.354,2.076l-.073.187a.707.707,0,0,0-.031.1,4.391,4.391,0,0,0,.4,3.082,6.49,6.49,0,0,0,2.391,2.722,4.7,4.7,0,0,0,2.33.631h.09a4.826,4.826,0,0,0,3.2-1.39,3.823,3.823,0,0,0,1.006-1.781,12.251,12.251,0,0,1,1.267,1.419A21.387,21.387,0,0,1,191.568,72a25.494,25.494,0,0,1-1.1,16.382,21.365,21.365,0,0,1-4.551,6.84c-.263.263-.545.507-.817.744l-.011.009-.153.134a19.379,19.379,0,0,1-13.916,7.92A20.948,20.948,0,0,1,168.9,104.134ZM8.021,42.6a.446.446,0,0,1-.317-.143.377.377,0,0,1-.109-.28,18.337,18.337,0,0,1,3.483-8.969,67.61,67.61,0,0,1,6.248-7.612l.021-.024A76.53,76.53,0,0,1,33.8,12.086,89,89,0,0,1,53.558,3.009,82.028,82.028,0,0,1,64.685.329l.65-.1A19.924,19.924,0,0,1,68.186,0c3.6,0,6.169,1.355,8.585,4.53,1.5,1.969,1.079,4.965,0,7.061a9.352,9.352,0,0,1-5.784,4.6,36.258,36.258,0,0,1-7.942,1.282,46.94,46.94,0,0,0-5.316.662A89.793,89.793,0,0,0,39.7,23.692a117.25,117.25,0,0,0-16.75,9.139c-1.642,1.068-3.264,2.343-4.833,3.576-3.1,2.438-6.309,4.958-9.984,6.175A.35.35,0,0,1,8.021,42.6Zm187.731-6.861h0a8.738,8.738,0,0,1-5.6-2.148l-2.142-1.777-1.372-1.126c-6.665-5.444-12.578-9.729-19.776-12.946-8.421-3.761-16.87-5.66-25.814-7.67l-.015,0L139.826,9.8a.6.6,0,0,1-.406-.372.561.561,0,0,1,.041-.523,14.429,14.429,0,0,1,7.22-5.356,28.2,28.2,0,0,1,9.561-1.468,55.547,55.547,0,0,1,13.827,1.935,77.538,77.538,0,0,1,17.1,6.816,55.019,55.019,0,0,1,14.553,11.191,7.874,7.874,0,0,1,1.684,8.712A8.517,8.517,0,0,1,195.753,35.737Z" transform="translate(36 36)"/></svg>