<svg xmlns="http://www.w3.org/2000/svg" width="289" height="293" viewBox="0 0 289 293"><path d="M108.033,191.81a38.093,38.093,0,0,1-14.446-2.884,40.81,40.81,0,0,1-9.429-5.417,40.162,40.162,0,0,1-7.676-7.743,7.93,7.93,0,0,1-1.6-6.139,8.851,8.851,0,0,1,3.445-5.547,8.488,8.488,0,0,1,5.051-1.758,7.33,7.33,0,0,1,1.128.087,7.8,7.8,0,0,1,5.222,3.452l.309.426a26.954,26.954,0,0,0,9.876,8.286,22.42,22.42,0,0,0,9.794,2.286,21.7,21.7,0,0,0,2.427-.137,25.508,25.508,0,0,0,10.783-3.792,50.492,50.492,0,0,0,9.134-7.625c.654-.668,1.346-1.392,2.245-2.348a3.553,3.553,0,0,1,1.863-1.435,3.818,3.818,0,0,1,1.212-.193,4.125,4.125,0,0,1,3.379,1.764,3.768,3.768,0,0,1,.639,2.48,22.763,22.763,0,0,1-2.7,8.818,29.437,29.437,0,0,1-5.773,7.413,37.116,37.116,0,0,1-8.744,6.1,36.41,36.41,0,0,1-9.7,3.328A35.743,35.743,0,0,1,108.033,191.81ZM118.2,134.228h0a34.911,34.911,0,0,1-12.448-2.509,62.872,62.872,0,0,1-14.639-8.307,5.625,5.625,0,0,1-2.043-3.249,6.73,6.73,0,0,1,.29-3.648,8.3,8.3,0,0,1,2.464-3.563,6,6,0,0,1,3.841-1.5,5.45,5.45,0,0,1,2.971.912q.473.363.99.764l.011.008a79.258,79.258,0,0,0,9.165,6.373c4.141,2.357,7.734,3.5,10.984,3.5a11.861,11.861,0,0,0,4.641-.912,12.97,12.97,0,0,0,4.322-3.062,13.254,13.254,0,0,0,2.515-10.671,20.155,20.155,0,0,0-5.35-9.465,39.006,39.006,0,0,0-8.1-6.536,2.511,2.511,0,0,1-.68-2.887,3.768,3.768,0,0,1,1.248-1.8,3.831,3.831,0,0,1,2.391-.79,5.094,5.094,0,0,1,.859.076,27.157,27.157,0,0,1,9.55,3.45,21.663,21.663,0,0,1,6.423,5.922,23.527,23.527,0,0,1,4.1,15.718,25.9,25.9,0,0,1-2.1,8.25,24.069,24.069,0,0,1-4.734,7.089A22.625,22.625,0,0,1,118.2,134.228ZM37.2,78a8.163,8.163,0,0,1-5.3-2.076,8.252,8.252,0,0,1-2.778-5.336,60.1,60.1,0,0,1,.319-15.651c.189-1.521.384-3.093.52-4.789a9.368,9.368,0,0,1,3.551-6.7,10.938,10.938,0,0,1,6.728-2.365,8.292,8.292,0,0,1,5.088,1.6,7.543,7.543,0,0,1,2.81,5,41.986,41.986,0,0,1-4.384,25.878,8.3,8.3,0,0,1-2.928,3.388A6.755,6.755,0,0,1,37.2,78Zm118.9-3.549a7.141,7.141,0,0,1-5.6-2.4,21.875,21.875,0,0,1-3.419-5.8,25.265,25.265,0,0,1-1.741-6.987c-.516-5.332.918-9.847,4.039-12.715a8.385,8.385,0,0,1,.647-.986c1.411-1.848,3.777-4.05,7.04-4.05a7.627,7.627,0,0,1,2.138.315,10.3,10.3,0,0,1,6.877,6c1.3,3,1.593,7.017.851,11.608a38.852,38.852,0,0,1-3.52,10.95,7.107,7.107,0,0,1-3.042,3A9.218,9.218,0,0,1,156.1,74.449ZM1.315,37.16A1.3,1.3,0,0,1,.233,36.5a1.449,1.449,0,0,1-.087-1.422,49.327,49.327,0,0,1,11.061-14,68.381,68.381,0,0,1,14.8-10.112A63.657,63.657,0,0,1,43.588,4.83L45.465,4.5a45.74,45.74,0,0,1,7.671-.831c4.28,0,7.377,1.155,9.467,3.53a8.042,8.042,0,0,1,1.9,5.713,5.234,5.234,0,0,1-1.9,3.735c-3.008,2.434-6.172,2.932-10,2.932-.788,0-1.6-.02-2.39-.04h-.029c-.757-.019-1.616-.041-2.468-.041-.785,0-1.485.018-2.14.056A67.589,67.589,0,0,0,30.7,22.091C20.12,25.115,11.445,30.6,2.006,36.934A1.233,1.233,0,0,1,1.315,37.16Zm181.034-7.573h0c-.269-.064-.535-.13-.792-.2A44.781,44.781,0,0,1,172.877,26l-2.819-1.389a78.293,78.293,0,0,0-10.067-4.289A118.8,118.8,0,0,0,137.06,15.26a9.369,9.369,0,0,1-4.6-1.746,6.893,6.893,0,0,1-2.573-3.919,7.011,7.011,0,0,1,.793-5.874A7.483,7.483,0,0,1,134.312.591a8.166,8.166,0,0,1,3.1-.591,9.117,9.117,0,0,1,1.786.179l1.436.294c9.979,2.086,18.081,4.717,24.767,8.044a50.077,50.077,0,0,1,10.893,7.162,31.794,31.794,0,0,1,7.7,9.951c.269,2.078.02,2.593-.259,2.942l-.08.1c-.023.031-.046.063-.07.1a1.991,1.991,0,0,1-1.23.818Z" transform="translate(53 52)"/></svg>