<svg xmlns="http://www.w3.org/2000/svg" width="289" height="293" viewBox="0 0 289 293"><path d="M14.683,3.354C25.6-3.223,66.428,1.6,98.5,3.354,123.962,4.748,142.15,1.985,147.972,5.9c13.152,8.852,6.764,51.658-15.9,57.512S25.4,77.445,10.91,63.415-4.912,15.153,14.683,3.354Z" transform="translate(64.517 194.445)" fill="#fff"/><path d="M94.909,206c-1.951,0-4.072-.014-6.484-.042l-2.762-.036c-1.463-.021-3.048-.031-4.988-.031-1.481,0-2.954.006-4.514.011h-.1c-1.534.006-3.12.012-4.748.012-12.029,0-25.854-.306-37.686-3.964a52.244,52.244,0,0,1-8.342-3.35,40.368,40.368,0,0,1-7.388-4.832,36.189,36.189,0,0,1-6.174-6.583,39.679,39.679,0,0,1-4.7-8.6,42.3,42.3,0,0,1-2.447-8.83,43.73,43.73,0,0,1,4.1-26.733,34.743,34.743,0,0,1,6.252-8.631,39.84,39.84,0,0,1,8.321-6.4,52.88,52.88,0,0,1,20.1-6.518A67.907,67.907,0,0,1,51.489,121c9.847,0,19.709,1.962,29.247,3.858,4.3.855,8.745,1.739,13.127,2.431a236.426,236.426,0,0,0,26.661,2.826c1.893.083,3.794.128,5.405.161a4.712,4.712,0,0,1,2.979-3.916,23.176,23.176,0,0,1,10.314-2.444c.362,0,.738.008,1.116.023a84.562,84.562,0,0,1,11.843,1.279,43.173,43.173,0,0,1,10.408,3.251,31.687,31.687,0,0,1,8.981,6.119,27.666,27.666,0,0,1,6.506,10.029A31.215,31.215,0,0,1,180,156.094a37.988,37.988,0,0,1-2.068,11.674,40.612,40.612,0,0,1-5.457,10.624,56.544,56.544,0,0,1-7.275,8.3,57.265,57.265,0,0,1-8.357,6.466,64.857,64.857,0,0,1-9.244,4.857,79.727,79.727,0,0,1-9.936,3.472,117.648,117.648,0,0,1-21.164,3.685C110.238,205.736,103.379,206,94.909,206ZM128.495,165.9l-.244.01c-12.127.467-24.814.82-37.709,1.048.363,3.115.758,6.444,1.2,9.682.32,2.361.679,4.847,1.1,7.6.052.343.148.745.25,1.17a7.726,7.726,0,0,1,.341,2.624l-.061.42a3.816,3.816,0,0,1,1.668,1.444,5.705,5.705,0,0,1,.365.7l.006.013c1.175.009,2.269.014,3.342.014a156.253,156.253,0,0,0,26.88-1.9l.02-.216a4.171,4.171,0,0,1,1.412-2.714,67.059,67.059,0,0,0,.718-8.592c.051-1.258.1-2.559.188-3.8.116-1.726.241-3.48.362-5.176l0-.025Q128.413,167.042,128.495,165.9ZM45.041,189.081h0l.236.038c.332.055.675.111,1.016.159a166.374,166.374,0,0,0,22.941,1.257c2.2,0,4.423-.016,6.578-.031h.021c1.961-.014,3.989-.029,5.975-.031a48.881,48.881,0,0,1-.449-8.134c0-1.015,0-1.974-.024-2.848l-.018-.48c-.179-3.926-.307-7.925-.38-11.888-6.283.107-13.03.206-19.784.206-2.595,0-5.013-.014-7.395-.043l-4.112-.064c.278,1.489.568,3,.849,4.465v.006h0c.6,3.112,1.215,6.33,1.748,9.518a6.3,6.3,0,0,1-1.4,5.281,7.511,7.511,0,0,1-5.591,2.591Q45.149,189.085,45.041,189.081ZM19.406,166.269h0a27.539,27.539,0,0,0,1.841,7,22.777,22.777,0,0,0,8.988,10.563,37.6,37.6,0,0,0,13.123,4.945,4.908,4.908,0,0,1-3.246-4.225,127.725,127.725,0,0,1-1.127-17.435c-5.938-.056-12.838-.173-19.579-.849Zm131.956-1.247c-1.094,0-2.263.007-3.405.059-3.727.169-7.517.322-11.183.47l-1.653.067q.065.935.129,1.869l0,.038c.154,2.246.314,4.568.481,6.851.074,1.018.131,2.069.187,3.085a63.271,63.271,0,0,0,.837,8.43,52.183,52.183,0,0,0,12.115-5.869,41.84,41.84,0,0,0,10-9.316,29.278,29.278,0,0,0,3.717-6.428,41.04,41.04,0,0,1-9.227.747h-1ZM41.38,136.776h0A35.841,35.841,0,0,0,30.442,141.2a23.323,23.323,0,0,0-8.082,8.37,24.989,24.989,0,0,0-2.536,6.788,28.707,28.707,0,0,0-.634,7.318c6.6-.768,13.417-1.059,19.837-1.291.025-1.314.053-2.484.086-3.576l.1-3.049q.018-.59.036-1.2c.162-5.488.364-12.317,2.129-17.789Zm14.058-1.428h0c-1.993,0-3.939.064-5.784.191-1.376.095-2.775.246-4.158.448a65.948,65.948,0,0,1,1.724,12.977c.144,2.155.28,4.189.509,6.143.245,2.092.569,4.346.99,6.89l1.643-.076c7.809-.423,15.751-.726,23.432-1.02,2.31-.088,4.7-.179,7.082-.274,0-2.113.013-3.989.041-5.733l.037-1.912c.034-1.429.031-2.881.028-4.419a78.7,78.7,0,0,1,.5-11.079l-3.411-.382-.826-.094a193.873,193.873,0,0,0-21.8-1.66Zm32.017,2.738h0c.167,1.368.283,2.764.4,4.115v.012c.057.684.116,1.392.18,2.08.362,3.9.787,7.939,1.3,12.361l.425,3.6c11.2-.508,23.124-1.084,37.508-1.814l1.765-.094.494-6.921c.319-4.37.688-9.069,1.229-13.823l-.391-.142a6.367,6.367,0,0,1-1.312-.749,192.737,192.737,0,0,1-29.921,1.954H99c-3.421,0-7.089-.184-11.543-.579Zm45.9.343c.389,4.643.659,9.376.92,13.954.106,1.856.215,3.774.331,5.66l8.241-.44c1.482-.081,2.83-.156,4.12-.23,1.484-.086,3.065-.27,4.738-.465a65.7,65.7,0,0,1,7.487-.586,19.089,19.089,0,0,1,5.257.634c.316-3.758-.346-9.012-5.3-12.7a20.5,20.5,0,0,0-7.916-3.486,60.692,60.692,0,0,0-8.56-1.078,55.048,55.048,0,0,1-9.319-1.263Zm-17.069-23.891c-5.237,0-9.272-1.42-11.991-4.222a7.182,7.182,0,0,1-2.027-4.1,8.145,8.145,0,0,1,.609-4.264,8.917,8.917,0,0,1,2.749-3.579,6.782,6.782,0,0,1,4.113-1.457,6.891,6.891,0,0,1,3.906,1.279,9.711,9.711,0,0,0,5.446,1.287,39.706,39.706,0,0,0,10.618-1.837l.266-.077a16.975,16.975,0,0,0,4.738-2.273,11.244,11.244,0,0,0,3.639-3.887,6.363,6.363,0,0,0,.421-5.14c-.738-2.2-2.62-3.828-5.594-4.844A27.241,27.241,0,0,0,125.5,80.2c-.461-.017-.938-.025-1.417-.025a82.867,82.867,0,0,0-11.069,1c-2.383.323-4.847.657-7.288.843-.027,0-.053,0-.079,0a.916.916,0,0,1-.887-.73,1.042,1.042,0,0,1,.445-1.2,54.9,54.9,0,0,1,11.77-4.793,52.952,52.952,0,0,1,14.267-2.189c5.275,0,9.556,1.089,12.725,3.237,3.688,2.5,5.791,6.409,6.251,11.618a19.571,19.571,0,0,1-4.1,13.573,28.118,28.118,0,0,1-11.386,8.768l-.331.139a61.824,61.824,0,0,1-8.46,2.783A40.588,40.588,0,0,1,116.289,114.537Zm57.06-32.819a4.255,4.255,0,0,1-.439-.023l-.7-.065a6.323,6.323,0,0,1-1.041-.169A6.913,6.913,0,0,1,167.7,79.1a5.8,5.8,0,0,1-1.343-3.949l.051-.828c.157-2.839.215-7.008-1.087-10.427a10.252,10.252,0,0,0-2.7-4.064,10.414,10.414,0,0,0-4.949-2.363,9.424,9.424,0,0,0-1.875-.2,8.2,8.2,0,0,0-6.822,3.792,14.783,14.783,0,0,0-2.443,8.073,1.55,1.55,0,0,1-1.524,1.5,1.394,1.394,0,0,1-.734-.208,10.187,10.187,0,0,1-4.687-6.5,14.443,14.443,0,0,1,.629-8.173,16.615,16.615,0,0,1,6.17-8,18.427,18.427,0,0,1,9.648-3.169c.344-.016.691-.024,1.032-.024a21.434,21.434,0,0,1,17.121,8.734,28.148,28.148,0,0,1,5.176,11.192,26.979,26.979,0,0,1-.143,12.405,6.763,6.763,0,0,1-2.185,3.327A5.814,5.814,0,0,1,173.348,81.717ZM21.481,78.746a2.09,2.09,0,0,1-.91-.222,6.942,6.942,0,0,1-3.136-2.993,10.242,10.242,0,0,1-1.129-4.23A19.943,19.943,0,0,1,17.9,62.571a27.453,27.453,0,0,1,5.8-8.577,22.735,22.735,0,0,1,8.734-5.511,23.666,23.666,0,0,1,7.5-1.217,26.116,26.116,0,0,1,13.66,3.98,28.043,28.043,0,0,1,9.9,10.37c1.95.564,4.123,2.111,3.83,4.613-.42,3.554-1.045,5.71-3.46,8.35a6.762,6.762,0,0,1-5.058,2.2,8.073,8.073,0,0,1-4.526-1.423A7.262,7.262,0,0,1,51.4,71.5l-.067-.23a12.666,12.666,0,0,0-4.5-6.652A12.354,12.354,0,0,0,39.356,62a11.366,11.366,0,0,0-8.822,4.233,28.05,28.05,0,0,0-3.063,5.1,21.776,21.776,0,0,1-4.735,6.91A1.871,1.871,0,0,1,21.481,78.746ZM.882,56.675a.634.634,0,0,1-.616-.6A48.657,48.657,0,0,1,.483,44.2,59.789,59.789,0,0,1,3.424,32.231,61.269,61.269,0,0,1,8.7,21.082a51.6,51.6,0,0,1,7.224-9.408A41.541,41.541,0,0,1,27.8,3.627,36.125,36.125,0,0,1,42.58,0a17.3,17.3,0,0,1,9.245,2.372,15.3,15.3,0,0,1,6.253,8.09,6.784,6.784,0,0,1-.681,5.517,6.887,6.887,0,0,1-4.434,3.492,17.035,17.035,0,0,1-3.356.316,39.257,39.257,0,0,1-6.2-.657l-.014,0a39.407,39.407,0,0,0-6.25-.659c-.508,0-1.01.019-1.493.057a25.916,25.916,0,0,0-13.738,4.99,33.82,33.82,0,0,0-7.959,9.11A101.64,101.64,0,0,0,8.409,43.4,83.061,83.061,0,0,1,1.4,56.387.632.632,0,0,1,.882,56.675ZM185.019,44.852a9.221,9.221,0,0,1-2.569-.361c-6.322-1.829-7.982-6.268-9.9-11.407-.369-.988-.751-2.007-1.175-3.032A25.955,25.955,0,0,0,163.1,19.487c-5.63-4.253-14.031-6.792-22.472-6.792a35.644,35.644,0,0,0-10.094,1.368.582.582,0,0,1-.166.024.8.8,0,0,1-.681-.445.562.562,0,0,1,.052-.611c.479-.621.907-1.213,1.321-1.785a21.054,21.054,0,0,1,4.314-4.794,30.511,30.511,0,0,1,18.694-6.3,34.922,34.922,0,0,1,10.4,1.6,38.874,38.874,0,0,1,9.388,4.393,39.957,39.957,0,0,1,7.939,6.679,43.971,43.971,0,0,1,5.65,7.6,24.064,24.064,0,0,1,1.3,3.017,30.587,30.587,0,0,0,1.358,3.182,10.326,10.326,0,0,1,5.155,7.319,8.264,8.264,0,0,1-.3,3.7,9.013,9.013,0,0,1-2.124,3.5l-.208.211-.615.61A10.033,10.033,0,0,1,185.019,44.852Z" transform="translate(50 64.999)"/></svg>