<svg xmlns="http://www.w3.org/2000/svg" width="395.9" height="138" viewBox="0 0 395.9 138"><path d="M185.673,115.084h-.008a55.983,55.983,0,0,1-17.169-2.626,47.319,47.319,0,0,1-15.163-8.06,44.3,44.3,0,0,1-11.41-13.774,54.666,54.666,0,0,1-5.911-19.769c-.154,0-.291.006-.418.006a17.32,17.32,0,0,1-9.514-3.141,23.807,23.807,0,0,1-7.147-7.536c-4.068.261-8.386.387-13.2.387-8.363,0-17.087-.392-25.524-.772l-.145-.007c-8.507-.383-17.3-.778-25.944-.778a193.912,193.912,0,0,0-20.845,1,112.316,112.316,0,0,0-19.936,3.852,5.84,5.84,0,0,1-5.488,3.1,9.87,9.87,0,0,1-5.166-1.515A5.209,5.209,0,0,1,.018,61.8c-.158-1.533.752-3.043,2.631-4.366,2.245-1.581,5.808-2.887,10.59-3.881a132.488,132.488,0,0,1,20.3-3.445c6.25-.6,13.043-.892,20.768-.892,8.479,0,17.114.349,25.465.686h.032c8.334.337,16.949.685,25.319.685,5.958,0,11.268-.174,16.233-.531,7.07-4.113,13.121-9.894,18.972-15.485,3.295-3.148,6.7-6.4,10.236-9.3a59.125,59.125,0,0,1,11.362-7.525,63.261,63.261,0,0,1,30.388-7.89A50.745,50.745,0,0,1,218.68,16.8a42.576,42.576,0,0,1,10.647,9.152,46.992,46.992,0,0,1,7.726,13.352A69.576,69.576,0,0,1,262.9,34.743,89.049,89.049,0,0,1,278.929,36.2a39.1,39.1,0,0,1,6.06-10.243,48.312,48.312,0,0,1,8.16-10.391A56.361,56.361,0,0,1,316.523,1.943,47.93,47.93,0,0,1,329.816,0a37.493,37.493,0,0,1,28.521,12.5c1.106.118,1.565,1.219,1.9,2.024a1.8,1.8,0,0,0,.41.734,47.142,47.142,0,0,1,3.265,4.818c2.362,2.063,5.48,3.367,8.5,4.628a33.235,33.235,0,0,1,7.284,3.743A10.763,10.763,0,0,1,382.3,31.2a9.635,9.635,0,0,1,1.42,3.82,9.031,9.031,0,0,1-1.687,7.389,25.288,25.288,0,0,1-5.666,4.9,24.756,24.756,0,0,0-5.541,4.78,8.151,8.151,0,0,1-1.456,2.693,80.663,80.663,0,0,1-7.324,21.514A61.106,61.106,0,0,1,350.556,92.06a47.482,47.482,0,0,1-14.215,9.7,38.683,38.683,0,0,1-15.484,3.308,35.859,35.859,0,0,1-14.472-3.039,40.843,40.843,0,0,1-13.091-9.3A57.113,57.113,0,0,1,282.8,76.89a90.186,90.186,0,0,1-6.674-22.654,16.787,16.787,0,0,0-5.557-3.2,18.46,18.46,0,0,0-6.05-1.134,11.076,11.076,0,0,0-1.538.1,31.584,31.584,0,0,1-7.169,2.246c-5.6,3.1-10.318,7.883-14.861,15.065a47.873,47.873,0,0,1-5.66,20.3,48.635,48.635,0,0,1-12.748,15,57.157,57.157,0,0,1-17.364,9.289A61.4,61.4,0,0,1,185.673,115.084ZM196.7,24.01a54.185,54.185,0,0,0-24.173,6.232A71.425,71.425,0,0,0,150.41,47.911c-3.548,8.179-5.212,15.954-4.945,23.107a33.326,33.326,0,0,0,11.968,24.889,38.766,38.766,0,0,0,8.315,5.33,46.156,46.156,0,0,0,19.767,4.359,44.692,44.692,0,0,0,28.7-10.034,40.939,40.939,0,0,0,10.253-12.921A50.952,50.952,0,0,0,229.6,64.115a54.6,54.6,0,0,0-2.39-18.512,32.42,32.42,0,0,0-7.436-12.612C214.053,27.116,206.074,24.01,196.7,24.01ZM328.515,12.072a28.547,28.547,0,0,0-10.728,2.059,29.128,29.128,0,0,0-9.745,6.516,85.9,85.9,0,0,0-14.628,22.578c-3.957,9.349-5.037,18.1-3.21,26a60.134,60.134,0,0,0,5.869,10.684,42.241,42.241,0,0,0,7.23,8.061,30.094,30.094,0,0,0,8.345,5.091,24.959,24.959,0,0,0,9.216,1.774,27.962,27.962,0,0,0,10.7-2.23,42.674,42.674,0,0,0,11.128-6.989A79.479,79.479,0,0,0,355.09,63.432v-1a65.876,65.876,0,0,0,3.959-22.694,59.907,59.907,0,0,0-.858-7.492,30.353,30.353,0,0,0-4.866-8.325,32.236,32.236,0,0,0-7.035-6.361,32.894,32.894,0,0,0-8.5-4.062A31.19,31.19,0,0,0,328.515,12.072Z" transform="translate(12 11)"/></svg>