<svg xmlns="http://www.w3.org/2000/svg" width="417.332" height="138" viewBox="0 0 417.332 138"><g transform="translate(12.998)"><path d="M214.393,120.182h-.007a59.208,59.208,0,0,1-12.107-1.266,61.732,61.732,0,0,1-22.3-9.57,60.138,60.138,0,0,1-9.329-7.937A56.369,56.369,0,0,1,158.738,82.76a57.52,57.52,0,0,1-3.749-23.518,8.285,8.285,0,0,1-5.584-3.041,16.244,16.244,0,0,1-2.256-5.2c-1.473-4.812-3.143-10.267-14.315-12.121a21.714,21.714,0,0,1-9.3-6.184,255.373,255.373,0,0,0-27.122-1.524A196.641,196.641,0,0,0,65.543,33.53a169.4,169.4,0,0,0-30.5,7.8c-1.775.742-3.656,1.429-5.476,2.092a64.818,64.818,0,0,0-9.283,3.924c-3.055,1.717-5.046,3.677-6.086,5.993-1.409,3.136-1.163,7.018.754,11.867a5.972,5.972,0,0,1-5.832,5.658,5.018,5.018,0,0,1-3.655-1.574c-.006,0-.008,0-.011-.009l0-.008a41.235,41.235,0,0,1-5.254-14.4,18.744,18.744,0,0,1,1.549-10.76c2.9-5.969,9.434-10.544,19.961-13.988,9.165-3,20.1-4.728,29.741-6.254l1.87-.3A200.626,200.626,0,0,1,95.5,19.162c1.471,0,2.966.016,4.442.047,1.812.078,3.723.106,5.746.137h.006c6.2.093,12.6.19,17.424,1.681l.075.02c.778-2.354,3.368-4.57,7.7-6.587a77.255,77.255,0,0,1,16.431-5,197.981,197.981,0,0,1,22.412-3.176c8.271-.738,16.9-1.112,25.638-1.112a273.537,273.537,0,0,1,28.008,1.38,168.7,168.7,0,0,1,25.131,4.338c7.846,2.058,14.182,4.612,18.833,7.592,5.053,3.238,8.12,6.987,9.114,11.143.51-.013,1.023-.019,1.525-.019,3.126,0,6.1.244,8.5.44l.332.027c2.588.212,5.031.413,7.479.413a29.668,29.668,0,0,0,9.648-1.447c.513-4.586,3.3-8.853,8.3-12.681,4.512-3.461,10.74-6.515,18.508-9.076a142.117,142.117,0,0,1,24.01-5.457A176.488,176.488,0,0,1,379.557,0,102.23,102.23,0,0,1,401.2,1.993a39.233,39.233,0,0,1,5.984,1.037,7.438,7.438,0,0,1,2.276.815c.793.116,1.624.246,2.471.387a5.948,5.948,0,0,1,3.645,2.1A7.813,7.813,0,0,1,417.24,10.2c.416,2.8-.509,6.286-3.511,7.771a11.144,11.144,0,0,0-4.906,4.532,9.092,9.092,0,0,0-.868,6.58,7.34,7.34,0,0,1-.331,4.639,6.758,6.758,0,0,1-2.736,3.09c-.453,13.941-1.946,24.9-4.7,34.5a75.494,75.494,0,0,1-6.576,16.084,57.715,57.715,0,0,1-10.755,13.869,60.781,60.781,0,0,1-14.814,7.255,46.453,46.453,0,0,1-14.244,2.319,39.929,39.929,0,0,1-17.3-3.867,42.106,42.106,0,0,1-14-10.873,49.69,49.69,0,0,1-6.643-10.156,58.354,58.354,0,0,1-4.408-12.3,69.47,69.47,0,0,1-1.831-14.155,83.544,83.544,0,0,1,1.09-15.722,5.115,5.115,0,0,1-1.516-1.626c-.244-.4-.48-.824-.741-1.349-.775-.635-5.252-2.231-11.22-2.231a34.261,34.261,0,0,0-4.687.323c-7.375,1.023-10.378,4.143-13.855,7.756-.52.541-1.058,1.1-1.624,1.665a5.061,5.061,0,0,1-3.583,2.668l-.22,1.242c-1.667,9.406-3.392,19.131-6.494,28.329a73.309,73.309,0,0,1-5.839,13.219,53.045,53.045,0,0,1-8.854,11.544,54.5,54.5,0,0,1-37.678,14.878Zm2.52-94.992a130.98,130.98,0,0,0-22.289,1.559A55.722,55.722,0,0,0,173.9,34.42c-5.205,2.646-7.028,7.832-8.791,12.848a46.843,46.843,0,0,1-2.532,6.242,13.465,13.465,0,0,1-4.087,4.894,68.779,68.779,0,0,0,7.175,22.8,61.321,61.321,0,0,0,13.161,17.042,56.742,56.742,0,0,0,17.015,10.674,50.351,50.351,0,0,0,18.738,3.7h.006a44.546,44.546,0,0,0,15.187-2.619,43.428,43.428,0,0,0,13.733-8.088,50.953,50.953,0,0,0,11.091-13.9,72.548,72.548,0,0,0,7.267-20.044,140.512,140.512,0,0,0,3.977-21.888c-1.688-1.485-3.268-2.955-4.8-4.377-4.367-4.062-8.492-7.9-13.823-10.814-5.913-3.234-12.716-5.018-21.41-5.615l-.829-.011C222.351,25.227,219.631,25.19,216.913,25.19ZM315.945,47.74a99.617,99.617,0,0,0,2.08,17.116,67.138,67.138,0,0,0,5.644,16.463,37.962,37.962,0,0,0,10.147,12.8,29.394,29.394,0,0,0,15.589,6.131c1.435.124,2.884.187,4.307.187a41.305,41.305,0,0,0,14.826-2.587,25.758,25.758,0,0,0,11.595-8.531,64.954,64.954,0,0,0,7.1-12.489,82.333,82.333,0,0,0,4.481-13.617,126.55,126.55,0,0,0,3.136-28.31c-2.97-2.967-4.35-6.362-5.567-9.358-1.1-2.711-2.142-5.271-4.167-7.109-2.247-2.039-5.477-2.989-10.163-2.989-1.08,0-2.258.052-3.5.156a93.684,93.684,0,0,0-21.82,3.682A42.851,42.851,0,0,0,336.471,25.8a29.318,29.318,0,0,0-7.118,7.747,48.6,48.6,0,0,0-3.676,7.377c-1.789,4.22-3.082,7.268-6.868,7.269A10.615,10.615,0,0,1,315.945,47.74Z" transform="translate(-13 8.999)"/></g></svg>