<svg xmlns="http://www.w3.org/2000/svg" width="424.232" height="138" viewBox="0 0 424.232 138"><g transform="translate(2.001)"><path d="M200.732,123.706a75.376,75.376,0,0,1-13.221-1.2,74.529,74.529,0,0,1-12.943-3.521c-8.785-3.286-15.917-8-20.626-13.624-5.372-6.87-9.642-18.443-11.716-31.752a109.561,109.561,0,0,1-1.3-19.672,80.234,80.234,0,0,1,2.512-18.6l-.062-.025a1.091,1.091,0,0,1-.1-.043c-.071.7-1.077,1.288-2.907,1.7a31.188,31.188,0,0,1-6.493.588c-5.627,0-12.162-1.047-14.077-3.386a2.169,2.169,0,0,1-.5-1.869c-11.915.214-24.829,1-39.477,2.391C66.754,35.94,53.508,37.55,40.7,39.108c-8.837,1.075-17.97,2.185-27.014,3.173-4.268.4-4.478,3.438-4.681,6.379a12.431,12.431,0,0,1-.578,3.549,3.481,3.481,0,0,1-2.483,2.2l-.211,0a5.442,5.442,0,0,1-4.119-1.561A6.366,6.366,0,0,1,.041,48.977a15.11,15.11,0,0,1,2.32-8.8,13.807,13.807,0,0,1,3.076-3.588,8.965,8.965,0,0,1,4.009-1.922c8.8-.92,17.832-2.137,26.563-3.314,18.581-2.505,37.792-5.095,56.585-5.095a163.986,163.986,0,0,1,27.637,2.172c1.725-2.192,4.211-3.258,7.6-3.258a38.481,38.481,0,0,1,8.965,1.51c1.6.4,3.1.778,4.4.973a17.422,17.422,0,0,1,6.3-10.407,40.223,40.223,0,0,1,13.2-6.965,93.365,93.365,0,0,1,17.768-3.9,156.831,156.831,0,0,1,20.017-1.216c18.942,0,37.862,3,48.2,7.642,19-2.186,38.711-3.722,57.774-5.208l.027,0c7.708-.6,15.679-1.222,23.383-1.87A110.8,110.8,0,0,1,361.479,0a70.45,70.45,0,0,1,20.266,2.81c.319-.018.6-.026.847-.026,1.65,0,1.911.369,2.386,1.039.094.132.2.281.325.438a26.05,26.05,0,0,1,9.324,7.147,27,27,0,0,1,5.614,11.065,28.78,28.78,0,0,1,12.534-2.494,60.391,60.391,0,0,1,7.828.57,8.719,8.719,0,0,1,2.979,2.024,2.252,2.252,0,0,1,.6,1.985,3.974,3.974,0,0,1-1.764,2.2,15.189,15.189,0,0,1-3.692,1.8,31,31,0,0,1-9.764,1.667c-4.01,0-6.714-.959-7.616-2.7a88.348,88.348,0,0,1,.013,21.466,104.263,104.263,0,0,1-5.452,23.411,76.65,76.65,0,0,1-11.389,21.124,49.281,49.281,0,0,1-17.8,14.6,47.071,47.071,0,0,1-20.8,4.962,43.515,43.515,0,0,1-17.379-3.6A45.006,45.006,0,0,1,314.02,99.41c-9.5-9.817-14.458-23.466-13.964-38.432a3.822,3.822,0,0,1-2.485-2.035,12.512,12.512,0,0,1-1.11-5.656,43.537,43.537,0,0,1,.675-7.514,88.866,88.866,0,0,1,3.6-14.009,124.065,124.065,0,0,0-18.731-1.77,55.861,55.861,0,0,0-17.114,2.485c1.555,4.385,1.483,11.118-.206,19.47A127.145,127.145,0,0,1,256.2,77.666,130.146,130.146,0,0,1,242.293,102a70.79,70.79,0,0,1-8.082,9.265,35.192,35.192,0,0,1-8.357,6.06,34.054,34.054,0,0,1-11.233,4.809,58.144,58.144,0,0,1-13.886,1.571h0Zm-8.642-108.9c-10.552,0-16.022.764-19.61,1.43a43.807,43.807,0,0,0-17.533,6.933,19.215,19.215,0,0,0-3.4,5.856,43.868,43.868,0,0,0-2.222,8.216A93.1,93.1,0,0,0,148.284,58a113.557,113.557,0,0,0,3.267,21.96c1.856,7.228,4.376,13.336,7.287,17.664,1.628,2.64,6.611,7.03,14.071,10.889a63.013,63.013,0,0,0,12.128,4.773,52.932,52.932,0,0,0,14.07,1.982,43.686,43.686,0,0,0,14.925-2.567,45.431,45.431,0,0,0,14.688-8.875A66.945,66.945,0,0,0,242.08,86.888,123.632,123.632,0,0,0,253.026,60.12c2.657-6.733,4-12.788,3.982-18a22.619,22.619,0,0,0-3.624-12.78,23.434,23.434,0,0,0-6.933-6.617,39.736,39.736,0,0,0-9.921-4.4,74.408,74.408,0,0,0-12.346-2.49,132.521,132.521,0,0,0-14.21-.9c-.869.013-1.768.019-2.749.019-2.416,0-4.83-.037-7.385-.076h-.094C197.257,14.847,194.686,14.808,192.09,14.808Zm170.54-4.65a110.855,110.855,0,0,0-20.522,1.553A54.769,54.769,0,0,0,323,18.782a32.926,32.926,0,0,0-13.17,15.906,47.187,47.187,0,0,0-2.846,10.059,60.65,60.65,0,0,0-.834,10.491,6.068,6.068,0,0,1-.671,3.7,4.866,4.866,0,0,1-2.307,1.942,76.591,76.591,0,0,0,6.279,19.692,51.113,51.113,0,0,0,9.743,13.9,38.323,38.323,0,0,0,12.109,8.241,34.227,34.227,0,0,0,13.376,2.719h.006c10.45,0,20.734-4.719,28.957-13.289,9.047-9.428,15.079-22.866,17.443-38.86a86.547,86.547,0,0,0,1.468-19.447,36.491,36.491,0,0,0-1.562-8.9,21.556,21.556,0,0,0-3.979-7.389,19.079,19.079,0,0,0-7.63-5.387,32.361,32.361,0,0,0-11.917-1.989c-.392,0-.791,0-1.186.014C364.974,10.166,363.78,10.157,362.63,10.157ZM250.449,14.891h0a35.118,35.118,0,0,1,8.261,6.924,29.1,29.1,0,0,1,5.555,8.849,30.8,30.8,0,0,1,11.3-4.47,62.143,62.143,0,0,1,12.286-1.071c1.526,0,3.132.036,4.91.112.539.032,1.1.053,1.7.076,2.863.109,6.107.232,8.53,1.523a41.111,41.111,0,0,1,5.847-8.532,40.077,40.077,0,0,1,7.4-6.564c-3.034.23-6.132.474-9.127.709h-.016c-15.983,1.257-32.51,2.557-48.58,2.557C255.757,15.006,253.045,14.967,250.449,14.891Z" transform="translate(-2 10)"/></g></svg>