<svg xmlns="http://www.w3.org/2000/svg" width="392" height="198" viewBox="0 0 392 198"><g transform="translate(0 60)"><path d="M305.4.387c5.78-1.981,10.39,4.03,9.28,9.269-1.31,6.17-7.75,11.122-12.02,15.471-4.48,4.58-9.05,9.07-13.79,13.39a341.192,341.192,0,0,1-28.32,23.29l-3.024,2.216c-9.066,6.633-18.1,13.112-27.816,18.854q-7.89,4.65-15.95,8.99c-1.919,1.03-4.26,2.619-6.669,3.8,8.809,6.8,15.589,17.18,17.059,26.85,3.64,24.02-11.84,46.28-33.681,55.13a71.31,71.31,0,0,1-34.649,4.36c-11.84-1.351-23.84-4.851-31.53-14.55-6.83-8.61-9.29-19.6-9.78-30.39a53.95,53.95,0,0,1,.9-14.69c-4.71.04-9.42.02-14.09.07-11.54.11-23.1.161-34.65-.16-11.91-.34-23.76-.87-35.63-1.929-5.21-.471-10.39-1.241-15.571-1.981-5.029-.71-10.579-.98-15.279-3.04-.32-.13-.187-.59.09-.681,5.01-1.619,10.7-1.33,15.92-1.649l5.088-.309c4.238-.253,8.472-.486,12.722-.622,9.818-.323,19.627-.4,29.443-.57l4.207-.078c11.55-.23,23.1-.36,34.65-.73,4.79-.15,9.59-.43,14.4-.69a21.554,21.554,0,0,1,2.17-3.56,50.844,50.844,0,0,1,8.47-9.06,64.458,64.458,0,0,1,21.54-12.46c7.928-2.736,19.523-4.093,27.91-3.916s20.34,1.36,24.18,8.216c.4.71,7.71-.66,9.88-2.321q7.6-5.8,14.939-11.929c9.081-7.59,18.42-15.06,27.021-23.18,8.87-8.38,17.67-16.9,26.11-25.7,4.24-4.41,8.47-8.83,12.58-13.35C295.706,8.137,299.316,2.457,305.4.387Z" transform="translate(30 -60)"/></g></svg>