<svg xmlns="http://www.w3.org/2000/svg" width="404.431" height="138" viewBox="0 0 404.431 138"><path d="M185.291,117.737h0a62.787,62.787,0,0,1-33.432-9.854,44.262,44.262,0,0,1-13.846-14.2A40.885,40.885,0,0,1,132.5,77.148a53.863,53.863,0,0,1,1.812-20.121,18.238,18.238,0,0,1-5.325.7,25.994,25.994,0,0,1-7.763-1.173,11.129,11.129,0,0,1-5.6-3.464c-10.845-.926-21.8-2.27-32.4-3.568-19.251-2.36-39.155-4.8-58.967-4.8-4.718,0-9.357.139-13.791.414a3.1,3.1,0,0,0-2.805,1.875A8.129,8.129,0,0,0,7.5,50.3a8.16,8.16,0,0,1-.157,3.279,3.071,3.071,0,0,1-2.772,1.874C2.052,55.227.458,53.608.083,50.9a12.156,12.156,0,0,1,1.156-6.574,8.436,8.436,0,0,1,4.16-4.47c1.984-1.422,8.024-2.173,17.467-2.173a396.217,396.217,0,0,1,45.355,3.3c18.164,2.253,35.17,5.33,47.886,8.665,2.324-1.524,5.414-2.266,9.446-2.266a68.729,68.729,0,0,1,8.943.784c.96.128,1.863.248,2.713.345a59.976,59.976,0,0,1,7.533-13.175,73.942,73.942,0,0,1,11.553-12.3,59.259,59.259,0,0,1,14.373-9.094,39.974,39.974,0,0,1,15.991-3.55,33.338,33.338,0,0,1,5.371.434,74.051,74.051,0,0,1,15.556,2.461,48.644,48.644,0,0,1,13.56,6.017,41.307,41.307,0,0,1,10.872,10.383A52.156,52.156,0,0,1,239.51,45.24,38.416,38.416,0,0,1,252.3,37.775a45.344,45.344,0,0,1,15.127-2.655,33.415,33.415,0,0,1,17.087,4.288,64,64,0,0,1,14.883-21.1A59.234,59.234,0,0,1,321.737,5.29,27.057,27.057,0,0,1,337.589,0a29.338,29.338,0,0,1,12.33,2.852,41.819,41.819,0,0,1,11.028,7.586,53.455,53.455,0,0,1,8.83,10.866A52.657,52.657,0,0,1,375.513,34a12.105,12.105,0,0,1,5.24-2.3,27.774,27.774,0,0,1,5.67-.569,5.317,5.317,0,0,1,3.122,1.676,3.575,3.575,0,0,1,.87,2.662c-.181,1.911-2.018,3.84-5.715,3.841a19.237,19.237,0,0,1-8.314-2.344c2.552,10.673,3,20.639,1.326,29.622a49.08,49.08,0,0,1-9.673,21.686,48.512,48.512,0,0,1-8.741,8.562,52.452,52.452,0,0,1-10.386,6.124,57.644,57.644,0,0,1-23.276,4.908h-.008a55.573,55.573,0,0,1-10.85-1.058,50.16,50.16,0,0,1-10.216-3.181,44.011,44.011,0,0,1-9.089-5.308A39.663,39.663,0,0,1,288,90.877,41.028,41.028,0,0,1,280.1,71.709c-1.179-7.943-.461-16.813,2.134-26.363a79.971,79.971,0,0,0-18.6-2.358,51.779,51.779,0,0,0-23.275,5.125,53.435,53.435,0,0,1,1.979,12.73,52.12,52.12,0,0,1-1.067,12.274,53.48,53.48,0,0,1-3.792,11.469,55.781,55.781,0,0,1-6.2,10.314,57.674,57.674,0,0,1-46,22.837Zm6.416-99.672h0a72.155,72.155,0,0,0-25.2,5.03,63.824,63.824,0,0,0-20.449,23.236,59.01,59.01,0,0,0-5.333,14.441,45.171,45.171,0,0,0-.928,14.659,34.16,34.16,0,0,0,6.982,17.576c4.285,5.506,10.388,9.846,18.14,12.9a51.986,51.986,0,0,0,9.744,2.875,53.476,53.476,0,0,0,10.044.951,52.66,52.66,0,0,0,22.1-4.828,48.236,48.236,0,0,0,9.669-5.965,45.9,45.9,0,0,0,8.065-8.271,48.715,48.715,0,0,0,9.777-24.97,48.015,48.015,0,0,0-.514-12.942,44.916,44.916,0,0,0-3.94-12.069,41.154,41.154,0,0,0-6.061-9.043,39.026,39.026,0,0,0-8.435-7.164,40.585,40.585,0,0,0-10.724-4.716,48.157,48.157,0,0,0-12.929-1.7ZM335.01,7.038a.557.557,0,0,0-.248.047,48.768,48.768,0,0,0-9.509,2.457c-1.683.558-3.27,1.084-4.691,1.438-9.376,4.255-18.058,12.044-24.445,21.933-6.4,9.9-9.838,20.906-9.686,30.978a38.071,38.071,0,0,0,1.429,9.925,33.02,33.02,0,0,0,4.17,9.1c3.966,6.008,9.928,10.7,17.72,13.96a43.05,43.05,0,0,0,8.358,2.508,45.915,45.915,0,0,0,8.7.828,46.813,46.813,0,0,0,17.1-3.24,42.889,42.889,0,0,0,7.708-3.992,39.42,39.42,0,0,0,6.693-5.522,37.613,37.613,0,0,0,7.671-11.048,50.947,50.947,0,0,0,4.062-13.584,61.285,61.285,0,0,0-2.49-29.047,49.9,49.9,0,0,0-4.607-9.845,39.987,39.987,0,0,0-6.591-8.184,33.355,33.355,0,0,0-8.55-5.888A32.835,32.835,0,0,0,337.32,6.9a2.386,2.386,0,0,1-1.107.262,4.267,4.267,0,0,1-.674-.064l-.074-.012A3.058,3.058,0,0,0,335.01,7.038ZM136.485,50.319h0c-.166.075-.333.149-.5.222l-.014.006-.133.059c.019.009.038.016.056.022a.6.6,0,0,1,.058.023,1.278,1.278,0,0,1,.22.143c.032.024.064.049.1.072.038-.1.079-.206.119-.307l.007-.017c.03-.074.059-.149.088-.224Z" transform="translate(14 8)"/></svg>