<svg xmlns="http://www.w3.org/2000/svg" width="398.215" height="138" viewBox="0 0 398.215 138"><path d="M196.8,107.849h0a55.255,55.255,0,0,1-18.5-3.085,48.244,48.244,0,0,1-16.267-9.638A52.309,52.309,0,0,1,149.77,78.354,76,76,0,0,1,143.3,53.87c-.56-4.772-1.482-7.4-3.183-9.074-1.672-1.645-4.008-2.313-7.545-3.325-1.249-.357-2.66-.761-4.217-1.262-.436-.092-.879-.18-1.348-.275H127c-1.5-.3-3.044-.611-4.569-1.05a6.4,6.4,0,0,1-2.035.362c-2.145,0-3.648-1.328-5.729-3.167a44.323,44.323,0,0,0-3.509-2.876c-3.6-2.594-9.921-6.044-23.265-6.044-8.273,0-18.435,1.341-30.2,3.987A413.311,413.311,0,0,0,9.375,45.783c-.063,3.244-1.72,5.511-4.03,5.511a4.384,4.384,0,0,1-2.5-.868A13.926,13.926,0,0,1,.091,44.249a9.131,9.131,0,0,1,.945-5.494c2.175-4.286,7.812-8.188,16.755-11.6,7.6-2.9,17.533-5.43,29.527-7.529a375.337,375.337,0,0,1,57.2-5.291c1.354,0,2.572.019,3.621.057a28.6,28.6,0,0,1,7.855-1.37,11.287,11.287,0,0,1,4.186.723c4.542-3.653,13.54-7.017,25.335-9.47A199.1,199.1,0,0,1,184.786.433a181.169,181.169,0,0,1,19.68,1.033,128.18,128.18,0,0,1,18.464,3.318,76.387,76.387,0,0,1,15.853,5.932A41.642,41.642,0,0,1,250.63,19.59a41.146,41.146,0,0,0,12.53,1.947,52.563,52.563,0,0,0,17.2-3.188,167.7,167.7,0,0,0,16.446-7.039c6.457-3.039,13.132-6.18,20-8.2,1.946-.435,7.128-1.205,13.908-1.87C336.49.674,345.345,0,354.77,0c11.649,0,21.063,1.016,27.981,3.019,8.621,2.5,13.235,6.519,13.715,11.954.562,1.282.856,4.511.715,7.854-.166,3.926-.879,7.124-1.956,8.773a2.538,2.538,0,0,1-2.093,1.37,3.713,3.713,0,0,1-2.28-1.038,29.278,29.278,0,0,0-6.006,6.074,36.224,36.224,0,0,0-4.054,7.14c-2.2,5.041-3.557,10.68-4.872,16.134-2.067,8.572-4.2,17.436-9.645,24.6a30.327,30.327,0,0,1-11.9,9.847A38.006,38.006,0,0,1,338.129,99.3c-11.575,0-22.685-4.917-31.283-13.845a60.794,60.794,0,0,1-12.04-18.78,98.384,98.384,0,0,1-6.75-27.993,24.543,24.543,0,0,0-9.27-1.744,57.1,57.1,0,0,0-10.033,1.188,70.752,70.752,0,0,1-8.616,1.177,58.514,58.514,0,0,1-2.068,25.573,57.137,57.137,0,0,1-11.622,20.47A63.906,63.906,0,0,1,236,94.868a68.107,68.107,0,0,1-12.2,7.067A66.54,66.54,0,0,1,196.8,107.849Zm7.5-88.043c-10.543,0-19.951,1.454-27.962,4.321-9.4,3.363-16.707,8.642-21.726,15.689-4.6,6.458-3.081,13.971-2.215,16.9a94.431,94.431,0,0,0,6.087,15.654,59.988,59.988,0,0,0,8.988,13.383c7.74,8.52,17.321,12.841,28.478,12.842a53.5,53.5,0,0,0,14.3-2.1A55.861,55.861,0,0,0,237.426,79.3a52.535,52.535,0,0,0,8.654-13.634,45.715,45.715,0,0,0,3.754-15.655A35.834,35.834,0,0,0,248.06,36.58a27.8,27.8,0,0,0-7.077-11.247,118.614,118.614,0,0,0-16.724-3.89A126.333,126.333,0,0,0,204.293,19.806ZM343.733,13.39a36.453,36.453,0,0,0-9.491,1.26A46.66,46.66,0,0,0,313.29,26.727a44.488,44.488,0,0,0-7.74,10.5,47.929,47.929,0,0,0-4.7,13.489,32.913,32.913,0,0,0,.64,12.78c1.027,4.5,2.692,8.346,4.454,10.3a55.561,55.561,0,0,0,15.591,11.716c6.7,3.43,13.44,5.243,19.5,5.244a25.011,25.011,0,0,0,10.945-2.36A29.424,29.424,0,0,0,361.9,79.5a49.8,49.8,0,0,0,6.261-12.347c3.258-9.1,4.749-19.345,5.837-26.824a18.713,18.713,0,0,0-.765-8.628,22.241,22.241,0,0,0-4.383-7.575,30.368,30.368,0,0,0-10.825-7.787A36.012,36.012,0,0,0,343.733,13.39Z" transform="translate(1 18)"/></svg>