<svg xmlns="http://www.w3.org/2000/svg" width="392.001" height="138" viewBox="0 0 392.001 138"><g transform="translate(0.001)"><path d="M194.579,108c-2.024,0-4.069-.087-6.077-.258a60.012,60.012,0,0,1-20.3-5.41,65.033,65.033,0,0,1-15.445-10.153A70.048,70.048,0,0,1,142.23,80.585a47.474,47.474,0,0,1-5.539-9.735l-.241-.622c-.364-.955-.711-1.923-1.079-2.948a46.42,46.42,0,0,0-4.606-10.22,13.012,13.012,0,0,0-8.757-6.02l-1.958-.352a23.108,23.108,0,0,1-5.922-1.751A10.769,10.769,0,0,1,109.51,44.7a12.822,12.822,0,0,1-1.772-5.831c-1.391.107-2.8.211-4.3.318C97.4,40.466,75.7,41.6,58.557,42.324c-19.154.81-37.713,1.324-40.419,1.324-.054.023-5.526,2.3-10.161,2.3a7.692,7.692,0,0,1-4.771-1.3A7.967,7.967,0,0,1,.224,40.524,7.144,7.144,0,0,1,.814,35.5c1.113-2.36,4.065-4.543,8.774-6.488a61.594,61.594,0,0,1,10.78-3.2c.255,0,25.783.211,49.349.211,24.947,0,38.771-.223,41.088-.662,2.971-3.064,7.8-3.373,12.463-3.671,1.207-.077,2.454-.157,3.629-.285,3.663-2.612,8.992-4.909,16.289-7.021,1.139-.431,2.15-.8,3.091-1.141A120.556,120.556,0,0,1,175.422,7.15c3.656-.347,7.445-.523,11.261-.523a144.049,144.049,0,0,1,19.453,1.386c4.536.615,8.713,1.374,12.769,2.321a189.252,189.252,0,0,1,22.646,4.586l1.514.393c5.5,1.443,11.91,2.983,18.285,2.983a36.265,36.265,0,0,0,6.114-.5c6.953-1.186,13.689-3.963,19.36-6.523l.806-.365A137.81,137.81,0,0,1,337.809,0a149.973,149.973,0,0,1,35.93,4.3,48.61,48.61,0,0,0,5.845,1.141l.148.011A18.633,18.633,0,0,1,385.526,6.5,10.8,10.8,0,0,1,389.7,9.272a8.72,8.72,0,0,1,2.051,3.827,8.826,8.826,0,0,1-.031,4.265,9.556,9.556,0,0,1-2.1,3.934c-.089,2.982-.031,6.059.031,9.316v.008c.136,7.19.277,14.625-1.23,21.325a90.007,90.007,0,0,1-4.729,24.746,44.387,44.387,0,0,1-8.6,14.78c-6.4,7.027-13.785,9.442-19.506,10.76a46.941,46.941,0,0,1-10.366,1.222,33.469,33.469,0,0,1-7.447-.789,55.535,55.535,0,0,1-14.662-2.557A56.323,56.323,0,0,1,301.424,87.37a53.678,53.678,0,0,1-6.774-7.739,49,49,0,0,1-8.282-18.8,65.621,65.621,0,0,1-1.235-20.075l.108-.92c-3.906-1.869-8.447-2.174-12.763-2.326-1.51-.054-2.872-.1-4.241-.1-.777,0-1.481.014-2.15.044-2.149.24-4.13.547-6.056.94a15.874,15.874,0,0,0-6.2,3.495l-.132,2.532A130.246,130.246,0,0,1,251.23,63.3a66.674,66.674,0,0,1-3.985,13.2,35.75,35.75,0,0,1-7.423,11.2,36.858,36.858,0,0,1-8.2,8.726,53.82,53.82,0,0,1-17.482,8.776A68.057,68.057,0,0,1,194.579,108Zm22.549-85.386h0a3.774,3.774,0,0,0-2.788,1.205,4.674,4.674,0,0,0-1.23,2.674,3.794,3.794,0,0,0,.526,2.455,3.575,3.575,0,0,0,2.322,1.521,13.432,13.432,0,0,1,8.634,5.63l.215.332a3.787,3.787,0,0,0,3.275,1.878,4.485,4.485,0,0,0,3.84-2.222,3.527,3.527,0,0,0-.2-3.711,21.46,21.46,0,0,0-13.632-9.653,4.481,4.481,0,0,0-.959-.108ZM363.29,17.348a4.324,4.324,0,0,0-3.595,2.015,3.784,3.784,0,0,0-.412,2.937,4.615,4.615,0,0,0,1.68,2.433l.169.124a7.568,7.568,0,0,1,3.188,4.963l.016.246a3.85,3.85,0,0,0,1.366,2.9,4.365,4.365,0,0,0,2.794.97,4.007,4.007,0,0,0,2.9-1.146,3.622,3.622,0,0,0,.95-2.728,14.052,14.052,0,0,0-2.143-6.9,18,18,0,0,0-5.028-5.239A3.244,3.244,0,0,0,363.29,17.348Z" transform="translate(0 15)"/></g></svg>