<svg xmlns="http://www.w3.org/2000/svg" width="414.208" height="138" viewBox="0 0 414.208 138"><g transform="translate(11)"><path d="M195.921,114.489c-7.587,0-13.859-.849-17.208-2.33a61.972,61.972,0,0,1-24.291-19.216,63.979,63.979,0,0,1-8.166-14.28,69.654,69.654,0,0,1-4.569-17.048c-.034-.108-3.469-10.873-6.448-13.133-2.377-1.8-13.615-3.428-18.414-4.122-.946-.137-1.629-.236-1.919-.29-16.706-3.1-30.295-4.544-42.764-4.544a136.371,136.371,0,0,0-14.764.769,104.4,104.4,0,0,0-14.383,2.565,82.7,82.7,0,0,0-13.651,4.747,70.529,70.529,0,0,0-12.568,7.316c-.631.381-1.521.941-2.551,1.588C9.805,59.287,2.411,63.935.48,63.935c-.3,0-.456-.111-.476-.328a21.441,21.441,0,0,1,1.7-7.778A44.094,44.094,0,0,1,7.174,46.05,54.5,54.5,0,0,1,30.293,28.02c8.578-3.584,19.069-6.29,31.183-8.043a235.016,235.016,0,0,1,33.016-2.256,223.49,223.49,0,0,1,23.281,1.151,2.208,2.208,0,0,0,.23.011,27.71,27.71,0,0,0,5.032-.956,112.931,112.931,0,0,1,13.237-4.758,127.194,127.194,0,0,1,13.639-3.148A161.934,161.934,0,0,1,178,7.745c19.7,0,39.652,2.964,54.835,5.546.528.1,1.474.311,2.782.6,4.367.965,12.5,2.761,21.929,4.329a185.414,185.414,0,0,0,29.445,2.9c6.986,0,12.531-.756,16.483-2.246A290.932,290.932,0,0,1,343.732,5.428a195.589,195.589,0,0,1,20.724-3.982,158.485,158.485,0,0,1,21-1.446A139.157,139.157,0,0,1,400.3.787a4.925,4.925,0,0,1,.256,1.058c.516,2.669,1.447,8.878,1.9,14.329.413,4.954.583,11.031-.952,11.846a37.573,37.573,0,0,0-8.6,6.864,10.035,10.035,0,0,0-2.213,6.873,69.231,69.231,0,0,1-2.927,23.328,55.054,55.054,0,0,1-9.5,18,29.438,29.438,0,0,1-6.9,5.9,61.782,61.782,0,0,1-10.333,5.269,70.514,70.514,0,0,1-25.6,5.24A44.3,44.3,0,0,1,324,98.087a30.313,30.313,0,0,1-9.974-4.625A143.456,143.456,0,0,1,301.745,83.7a62.055,62.055,0,0,1-8.556-9.3c-4.511-6.172-7.1-12.85-8.407-21.653-.2-1.319-1.967-2.3-3.422-2.3a2.281,2.281,0,0,0-1.588.545A65.224,65.224,0,0,0,269.695,63.22c-2.977,4.543-5.623,9.437-7.958,13.754l-.3.564a146.927,146.927,0,0,1-8.969,15.116,50.012,50.012,0,0,1-12.4,12.607c-5.526,2.962-12.893,5.387-21.306,7.014A124.127,124.127,0,0,1,195.921,114.489Zm-.331-95.165a60.794,60.794,0,0,0-16.757,2.127,35.6,35.6,0,0,0-11.739,5.7c-7.086,5.381-10.943,13.309-11.154,22.926a45.326,45.326,0,0,0,2.869,16.238,56.352,56.352,0,0,0,8.408,15.168,49.55,49.55,0,0,0,11.94,11.14A36.029,36.029,0,0,0,193.581,98.3a47.116,47.116,0,0,0,9.153.9,49.916,49.916,0,0,0,12.533-1.624,54.514,54.514,0,0,0,11.811-4.613,57.807,57.807,0,0,0,24.649-25.283c1.837-2.657,3.2-7.074,3.826-12.436a54.417,54.417,0,0,0-.326-15.141c-.827-4.684-2.449-8.427-4.449-10.269a6.1,6.1,0,0,0-4.214-1.736c-.106,0-.214,0-.322.008a6.966,6.966,0,0,0-2.953.872,78.652,78.652,0,0,0-20.4-7.453,101.366,101.366,0,0,0-21.909-2.325c-1.78,0-3.588.044-5.374.131h-.013Zm158.428-3.52a55.966,55.966,0,0,0-13.787,1.932c-14.584,3.75-29.87,12.176-35,17.692a7.326,7.326,0,0,0-3.27,4.057l-.006.834a33.547,33.547,0,0,0-.557,10.625,38.462,38.462,0,0,0,2.59,10.286,45.38,45.38,0,0,0,5.757,10.2,49.3,49.3,0,0,0,8.119,8.539,35.663,35.663,0,0,0,10.154,5.983,28.923,28.923,0,0,0,10.135,1.85,29.33,29.33,0,0,0,3.944-.269c8.5-1.157,16.814-6.085,23.406-13.875a49.383,49.383,0,0,0,11.615-27.9,36.182,36.182,0,0,0-1.534-13.425,33,33,0,0,0-7.051-12.185,16.863,16.863,0,0,0-6.383-3.311A29.537,29.537,0,0,0,354.017,15.805Z" transform="translate(-7.999 10.998)" fill="#fff"/><path d="M206.522,123.42a64.63,64.63,0,0,1-41.978-15.57,65.326,65.326,0,0,1-14.859-18.335,70.97,70.97,0,0,1-7.952-24.364l-.158-.7c-1.1-4.764-2.363-8.365-4.988-10.455-2.35-1.872-5.807-2.635-11.93-2.635h-.345l-1.887-.375c-13.055-2.572-30.24-5.524-47.395-5.524a131.707,131.707,0,0,0-14.289.745A100.615,100.615,0,0,0,46.826,48.7a79.722,79.722,0,0,0-13.2,4.607,68.166,68.166,0,0,0-12.159,7.1c-3.336,1.94-4.981,5.547-6.571,9.035-1.418,3.108-2.757,6.044-5.193,7.917a6.433,6.433,0,0,1-1.223.12c-2.875,0-4.843-2.008-5.987-3.692A15.274,15.274,0,0,1,.007,66.762,34.242,34.242,0,0,1,2.512,52.921,34.916,34.916,0,0,1,9.96,41.849a56.754,56.754,0,0,1,16.9-11.376,112.327,112.327,0,0,1,21.99-7.206C66.58,19.239,85,18.394,97.32,18.394a244.887,244.887,0,0,1,25.522,1.269,1.81,1.81,0,0,1,1.305-.505,1.7,1.7,0,0,1,1.513.785,127.572,127.572,0,0,1,14.649-5.288,141.4,141.4,0,0,1,15.054-3.523A177.361,177.361,0,0,1,186.283,8.56c14.807,0,31.183,1.561,50.063,4.771,5.3,1.027,10.677,2.378,15.874,3.685,10.86,2.73,22.089,5.554,33.234,5.554a55.6,55.6,0,0,0,19.965-3.506A292.556,292.556,0,0,1,346.185,5.476a198.666,198.666,0,0,1,21.006-4.018A161.511,161.511,0,0,1,388.479,0a141.96,141.96,0,0,1,15.144.8,6.177,6.177,0,0,1,2.2-.412,5.251,5.251,0,0,1,3.121.99,6.076,6.076,0,0,1,2.164,3.2c3.412,10.394,4,17.927,1.794,23.029-1.921,4.447-5.707,6.46-9.047,8.235a20.963,20.963,0,0,0-5.078,3.327,7.05,7.05,0,0,0-2.085,5.505,70.709,70.709,0,0,1-4.017,27.111,56.892,56.892,0,0,1-12.439,20,55.581,55.581,0,0,1-8.807,7.413,56.3,56.3,0,0,1-9.932,5.362,56.607,56.607,0,0,1-21.719,4.355h-.006a53.9,53.9,0,0,1-18.326-3.167,51.649,51.649,0,0,1-16.477-9.676,55.9,55.9,0,0,1-12.814-16.438,74.051,74.051,0,0,1-7.343-23.456l-.212.126A61.876,61.876,0,0,0,275,68.06c-2.754,4.247-5.217,8.82-7.6,13.243a155.228,155.228,0,0,1-9.49,16.045,60.921,60.921,0,0,1-5.89,7.192,47.045,47.045,0,0,1-7.261,6.191A64.479,64.479,0,0,1,206.522,123.42ZM129.579,41.956A23.249,23.249,0,0,1,139.7,43.92a15.827,15.827,0,0,1,6.219,5.274c3.145,4.413,4.583,10.41,6.106,16.759,1.457,6.074,2.964,12.354,6.085,17.941l.305.535a56.507,56.507,0,0,0,20.473,20.976,54.691,54.691,0,0,0,27.9,7.8,51.338,51.338,0,0,0,13.984-1.936,52.945,52.945,0,0,0,13.616-6.063A39.6,39.6,0,0,0,242.1,99.3a54.34,54.34,0,0,0,6.261-7.357A149.58,149.58,0,0,0,258.452,74.81a150.3,150.3,0,0,1,10.034-17.056,54.589,54.589,0,0,1,6.217-7.336,39.692,39.692,0,0,1,7.658-5.906c.281-.011.561-.017.832-.017,11.191,0,13,9.288,14.921,19.122,1.289,6.606,2.621,13.437,6.893,17.791a40.29,40.29,0,0,0,7.045,7.267,42.489,42.489,0,0,0,8.479,5.274,45.936,45.936,0,0,0,19.437,4.3,45.166,45.166,0,0,0,16.688-3.15,43.077,43.077,0,0,0,14.717-9.663A48.473,48.473,0,0,0,385.29,52.18c.1-1.6.125-3.222.149-4.791v-.008c.1-6.381.191-12.409,5.01-16.892a15.211,15.211,0,0,1,6.03-3.283,16.248,16.248,0,0,0,4.273-2,5.693,5.693,0,0,0,2.3-4.066c.542-3.8-1.02-7.936-2.527-11.517-4.257-.213-8.237-.317-12.167-.317A186.336,186.336,0,0,0,367.3,10.439,166.215,166.215,0,0,0,346.165,14.2c-9.019,2.177-16.194,4.932-24.5,8.122l-.261.1-1.6.612A99.206,99.206,0,0,1,301.64,29.25a69.782,69.782,0,0,1-15.7,1.8c-10.567,0-20.607-2.406-32.232-5.191-2.693-.645-5.477-1.312-8.391-1.98-6.712-1.538-15.821-3.489-26.783-4.93A271.637,271.637,0,0,0,182.8,16.706c-8.274,0-17.035.33-26.038.98-9.756.7-20.133,1.81-30.841,3.285a97.538,97.538,0,0,1,2.074,21.018C128.539,41.967,129.073,41.956,129.579,41.956Zm-7.408-19.739c-3.253,1.1-10.877,1.487-20.528,1.976C85.743,25,63.97,26.1,45.36,31.115a94.757,94.757,0,0,0-13.222,4.553,56.817,56.817,0,0,0-11.189,6.36,35.875,35.875,0,0,0-8.308,8.506A29.647,29.647,0,0,0,8.06,61.526,37.019,37.019,0,0,1,16.389,52.2a52.521,52.521,0,0,1,10.849-6.623,84.174,84.174,0,0,1,12.295-4.49c3.817-1.09,7.961-2.048,12.667-2.93a132.17,132.17,0,0,1,24.608-2.2c12.647,0,26.289,1.55,42.933,4.879l.462-4.623a132.425,132.425,0,0,1,1.968-14Zm83.135,82.242a50.594,50.594,0,0,1-9.869-.969,38.311,38.311,0,0,1-16.165-6.578,55.088,55.088,0,0,1-13.11-12.926,60.267,60.267,0,0,1-8.51-16.531,50.773,50.773,0,0,1-2.048-8.761,41.35,41.35,0,0,1-.319-8.633A31.626,31.626,0,0,1,158.274,38.5a27.856,27.856,0,0,1,7.591-9.544,36.6,36.6,0,0,1,12.777-6.487,65.688,65.688,0,0,1,18.547-2.393h.092c2.013-.1,4.049-.149,6.053-.149a111.793,111.793,0,0,1,25,2.738A84.927,84.927,0,0,1,251.464,31.5a5.883,5.883,0,0,1,3.57-1.5c1.806,0,3.375,1.282,4.664,3.81a28.233,28.233,0,0,1,2.385,8.226,57.967,57.967,0,0,1,.6,10.363,52.337,52.337,0,0,1-1.233,10.178,21.5,21.5,0,0,1-3.128,7.671,60.843,60.843,0,0,1-9.334,13.827,63.174,63.174,0,0,1-12.606,10.819,60.292,60.292,0,0,1-14.891,7.05A54.222,54.222,0,0,1,205.307,104.459Zm-3.952-76.787h0a71.158,71.158,0,0,0-19.046,2.258,37.835,37.835,0,0,0-8.086,3.254,26.938,26.938,0,0,0-6.583,5.054,31.041,31.041,0,0,0-3.238,8.911,34.88,34.88,0,0,0-.545,9.44,42.96,42.96,0,0,0,5.967,18.47,45.312,45.312,0,0,0,14.693,15.258,40.2,40.2,0,0,0,9.832,4.509,38.344,38.344,0,0,0,11.083,1.636A42.993,42.993,0,0,0,222.452,92.8a64.748,64.748,0,0,0,18.04-12.069c6.645-6.765,10.919-14.019,12.7-21.56,1.92-8.11.955-16.579-2.866-25.171l-1.011-.148c-2.313-.353-5.135-.874-8.4-1.476-10.759-1.985-25.492-4.7-39.557-4.7ZM341.017,94.03a30.465,30.465,0,0,1-10.837-2.015,38.348,38.348,0,0,1-10.85-6.474,54.665,54.665,0,0,1-8.6-9.029,50.868,50.868,0,0,1-6.248-10.748A42.954,42.954,0,0,1,301.3,53.936a36.75,36.75,0,0,1,.611-12.267l.005-.686a.332.332,0,0,1,.136-.3c.044-.044.1-.1.185-.2a4.117,4.117,0,0,1,2.319-2.433c3.495-4.138,12.376-9.75,22.625-14.3A113.06,113.06,0,0,1,343.571,17.9a63.223,63.223,0,0,1,16.02-2.385c6.387,0,11.345,1.49,14.738,4.429a34.857,34.857,0,0,1,6.393,10.318,37.776,37.776,0,0,1,2.557,11.486,49.866,49.866,0,0,1-4.536,23.526A57.034,57.034,0,0,1,372.079,76.5a51.449,51.449,0,0,1-8.887,9.137C356.279,91.128,348.611,94.03,341.017,94.03Zm17.4-70.713h0c-5.245,0-11.869,1.395-20.252,4.263-7.423,2.54-15.316,5.906-22.95,9.161-1.757.749-3.574,1.524-5.352,2.274a5.387,5.387,0,0,1,1.264,5.688A42.128,42.128,0,0,0,313,61.825a37.983,37.983,0,0,0,3.239,7.193,35.629,35.629,0,0,0,4.453,6.066,31.686,31.686,0,0,0,9.9,7.377,27.056,27.056,0,0,0,11.584,2.648,26,26,0,0,0,8.835-1.554,29.754,29.754,0,0,0,8.567-4.886,40.5,40.5,0,0,0,7.8-8.552,61.722,61.722,0,0,0,6.545-12.552c1.345-7.3,1.762-13.49,1.237-18.4-.491-4.6-1.825-8.238-3.964-10.807a13.009,13.009,0,0,0-5.5-3.864,20.735,20.735,0,0,0-7.284-1.172Z" transform="translate(-11 8)"/></g></svg>