<svg xmlns="http://www.w3.org/2000/svg" width="311.385" height="274.09" viewBox="0 0 311.385 274.09"><g transform="translate(5.005 27)"><path d="M191.911,274.09h0a243.619,243.619,0,0,1-44.488-4.183,246.372,246.372,0,0,1-42.84-12.021,205.224,205.224,0,0,1-38.013-19.068,144.971,144.971,0,0,1-30-25.325A67.883,67.883,0,0,1,22.7,201.4a74.761,74.761,0,0,1-10.017-14.85,96.479,96.479,0,0,1-6.719-16.97A134.325,134.325,0,0,1,2,151.135C-1.681,126,.417,98.858,2.671,75.392c.566-5.024,1-10.259,1.421-15.322C5.619,41.668,7.2,22.642,15.367,6.257A5.219,5.219,0,0,1,16.63,2.016,5.6,5.6,0,0,1,20.713,0,3.956,3.956,0,0,1,24.4,2.611c5.3,11.964,11.3,25.523,18.029,38.2C46,47.526,49.482,53.491,53.088,59.046a168.382,168.382,0,0,0,12.5,16.964A78.3,78.3,0,0,0,75.9,87.449,102.957,102.957,0,0,0,89.6,98.091a79.786,79.786,0,0,0,15.294,7.848A43.666,43.666,0,0,0,120,109a22.4,22.4,0,0,0,15.105-5.237c4.484-3.87,7.665-9.886,9.454-17.882A38.573,38.573,0,0,1,156.148,71.53a64.369,64.369,0,0,1,17.509-9.451,106.894,106.894,0,0,1,20.649-5.2,138.215,138.215,0,0,1,21.013-1.589,119.167,119.167,0,0,1,19,1.438c7.594,1.946,13.443,5.331,17.883,10.35,3.9,4.409,6.192,9.4,8.409,14.231,2.148,4.678,4.176,9.1,7.446,12.331a16.881,16.881,0,0,0,6.013,3.863,24.914,24.914,0,0,0,8.916,1.436,44.708,44.708,0,0,0,4.612-.255,3.6,3.6,0,0,0,1,.142c.087,0,.175,0,.262-.01a36.822,36.822,0,0,0,3.757-7.226c.444-1.028.864-2,1.306-2.929-.047-.247-.1-.5-.159-.742a11.473,11.473,0,0,1-.267-1.473,8.669,8.669,0,0,1,2.695-2.617,6.883,6.883,0,0,1,3.583-.988,8.829,8.829,0,0,1,3.115.608,5.514,5.514,0,0,1,.371,1.1c6,28.077,8.7,54.7,8.024,79.131a225.936,225.936,0,0,1-4.46,39.63,171.721,171.721,0,0,1-12.213,37.4c-12.362,11.131-27.9,19.659-46.172,25.346a173.614,173.614,0,0,1-27.443,6.061A210.748,210.748,0,0,1,191.911,274.09ZM213.135,87.8a68.215,68.215,0,0,0-10.432.8,57.485,57.485,0,0,0-10.089,2.476,40.054,40.054,0,0,0-8.842,4.277,26.015,26.015,0,0,0-6.69,6.2,20.321,20.321,0,0,0-3.813,9.308,27.624,27.624,0,0,0,1.215,12.009,21.542,21.542,0,0,0,5.14,7.185c1.807,1.646,4.659,3.609,7.986,3.609a8.235,8.235,0,0,0,2.545-.4c3.157-1.023,4.861-4.652,6.509-8.162a23.908,23.908,0,0,1,3.2-5.567,19.1,19.1,0,0,1,5.191-3.773,11.505,11.505,0,0,1,4.9-1.137c2.957,0,6.03,1.216,9.393,3.716a74.208,74.208,0,0,1,8.493,7.9c1.787,1.842,3.473,3.579,5.149,5.072a7.053,7.053,0,0,0,3.921,1.333,6.456,6.456,0,0,0,4.664-2.224,14.2,14.2,0,0,0,3.534-9.759,33.565,33.565,0,0,0-1.686-8.23,54.3,54.3,0,0,0-4.051-9.371c-3.854-7.011-8.635-11.964-13.463-13.946A60.008,60.008,0,0,0,213.135,87.8Z" transform="translate(-5 -27)"/></g></svg>