<svg xmlns="http://www.w3.org/2000/svg" width="282.48" height="244.771" viewBox="0 0 282.48 244.771"><g transform="translate(2.48 14.771)"><path d="M212.043,152.834s-44.39,6.523-64.26-2.7c-19.81-9.19-39.08-18.081-57.05-30.254C72.323,107.413,56.7,92.6,45.553,73.646c-10.37-17.639-18.99-36.355-27.67-54.927-.507-1.085-5.49-11.875-7.25-15.493C7.923-2.384,0-.623,0,8.086s-.39,74.66,14.83,100.6c13.73,23.432,37,39.8,60.12,54.094,25.58,15.8,59.56,32.881,90.08,37.394,27.62,4.08,59.14-7.381,79.14-26.27,20.91-19.756,26.83-46.595,37.62-72.3,2.41-5.745-6.134-9.21-8.64-3.56C268.433,108.689,212.043,152.834,212.043,152.834Z" transform="translate(-2.483 -14.77)"/></g></svg>