<svg xmlns="http://www.w3.org/2000/svg" width="296.331" height="230" viewBox="0 0 296.331 230"><path d="M190.392,11.722c-1.333-3.982-8.192-3.635-7.77,1.052.483,5.355-1.35,11.327-6.48,13.927-5.372,2.722-11.416.275-14.693-4.4-2.849-4.059-4.814-8.474-8.4-12.014a31.157,31.157,0,0,0-11.822-7.338,24.286,24.286,0,0,0-10.512-1.1C122.056-.1,112.022,4.348,106.625,11.1c-.348.435-.671.882-.983,1.333-.535-.728-1.1-1.449-1.688-2.16a4.725,4.725,0,0,0-5.141-1.726,31.334,31.334,0,0,0-34.526-1.67c-8.882,5.249-16.229,12.985-27.151,13.587-8.651.477-18.074-4.459-18.684-13.966-.32-4.964-7.084-9.1-10.879-4.506C-.4,11.656-2,24.493,2.413,36.178,7.071,48.507,16.561,57.192,28.577,62.3c12.976,5.517,28.182,7.433,42.219,7,13.994-.436,26.718-5.817,35.153-17.264a37.884,37.884,0,0,0,2.668-4.158c8.19,10.428,21.028,14.811,34.1,15.126,13.68.328,29.852-2.073,39.524-12.7a39.623,39.623,0,0,0,8.147-38.582" transform="translate(104 21)"/></svg>