<svg xmlns="http://www.w3.org/2000/svg" width="295.199" height="247" viewBox="0 0 295.199 247"><g transform="translate(1 17)"><path d="M192.728,229.169h0a125.07,125.07,0,0,1-21.486-1.984,184.7,184.7,0,0,1-44.069-14.01,352.461,352.461,0,0,1-46.85-18.12c-7.788-3.64-16.043-7.572-23.821-12.1a104.8,104.8,0,0,1-21.369-15.876,65.387,65.387,0,0,1-7.975-9.646A80.791,80.791,0,0,1,21,146.592a124.97,124.97,0,0,1-8.121-23.647c-.6-2.425-1.177-4.925-1.71-7.43a27.126,27.126,0,0,1-1.29-4.33c-1.082-5.011-2.082-10.125-2.97-15.2C5.153,86,3.72,75.8,2.651,65.664S.894,45.144.591,34.764C.541,33,.437,31.188.327,29.267.12,25.654-.094,21.919.043,18.26A32.9,32.9,0,0,1,1.872,7.854C3.634,3.187,7.606.106,11.992,0c.092,0,.186,0,.279,0a10.653,10.653,0,0,1,6.891,2.693c2.82,2.384,10.125,17.368,17.86,33.233C44.292,50.84,51.81,66.26,56,71.974a222.438,222.438,0,0,0,29.86,33.32c.18.105.368.223.56.35a80.34,80.34,0,0,0,39.43-22.76c3.18-3.361,6.216-6.956,9.152-10.433,5.975-7.077,12.152-14.392,19.818-20.046a45.408,45.408,0,0,1,9-5.2,38.709,38.709,0,0,1,10-2.812,41.2,41.2,0,0,1,5.611-.355c3.271,0,6.589.31,9.8.61h.014c3.21.3,6.53.61,9.807.61,1.071,0,2.069-.032,3.05-.1,1.606-.1,3.212-.249,4.766-.389,2.981-.269,5.794-.522,8.642-.522A28.972,28.972,0,0,1,227.8,46.644c6.989,3.14,12.4,8.743,17.628,14.162l.452.468a92.39,92.39,0,0,0,12.056,10.557,81.217,81.217,0,0,0,13.526,7.991h.117a4.4,4.4,0,0,1,3.5,1.577c.506.206,1.027.41,1.593.626,1.451-1.733,4.981-4.259,7.558-6.1,1.055-.755,1.965-1.406,2.425-1.788a5.686,5.686,0,0,1,3.637-1.256,5.191,5.191,0,0,1,3.806,1.512,4.26,4.26,0,0,1,1.092,3.28l-1.933,30c-.19,2.941-2.567,21.68-3.412,28.173-.683,5.247-1.579,10.309-2.664,15.046a126.161,126.161,0,0,1-4.236,14.549,103.331,103.331,0,0,1-6.109,13.786,90.116,90.116,0,0,1-8.283,12.755,76.279,76.279,0,0,1-25.231,20.84,87.956,87.956,0,0,1-22.06,11.7,77.015,77.015,0,0,1-14.077,3.567A93.445,93.445,0,0,1,192.728,229.169Zm19.6-135.027c-8.694,0-18.3,1.548-29.365,4.733-8.331,2.391-16.579,5.479-24.555,8.466-8.568,3.208-17.426,6.524-26.405,8.984a145.67,145.67,0,0,1-18.264,3.961c.962,1.133,1.931,2.391,2.963,3.844a202.531,202.531,0,0,0,27.531,13.055c1.358.506,2.69,1,4.04,1.47,2.06-.574,4.2-1.278,6.54-2.152,4.064-1.924,8.058-4.334,11.92-6.666a106.554,106.554,0,0,1,14.691-7.864,64.721,64.721,0,0,1,12.233-3.567,68.53,68.53,0,0,1,12.625-1.165,72.757,72.757,0,0,1,32.488,7.732q1.059.394,2.116.792c2.689,1.009,5.47,2.052,8.245,2.96a68.93,68.93,0,0,0,6.8,1.9,62.84,62.84,0,0,0,11.621-18.9,38.909,38.909,0,0,1-13-3.53c-3.229-1.394-6.376-3.108-9.42-4.765a88.69,88.69,0,0,0-12.46-5.965,56.308,56.308,0,0,0-10.078-2.545A66.133,66.133,0,0,0,212.327,94.141Z" transform="translate(-1 -17.001)"/></g></svg>