<svg xmlns="http://www.w3.org/2000/svg" width="311.259" height="230" viewBox="0 0 311.259 230"><path d="M209.269,10.005C205.955,5.556,200-.283,193.972.031a.855.855,0,0,0-.6,1.44c1.971,2.407,4.664,4.119,6.639,6.576a30.242,30.242,0,0,1,5.121,9.962,29.7,29.7,0,0,1,.613,16.225c-2.5,9.236-10.421,16.006-19.059,19.463-8.55,3.422-18.838,4.591-26.924-.423-11.935-7.4-22.058-18.072-37.059-18.283a8.319,8.319,0,0,0-7.455,3.852,8.585,8.585,0,0,0-7.343-3.816c-16.817-.189-29.369,11.388-43.484,18.605C54.885,58.51,42.542,57,32.7,53.773c-9.283-3.039-19.36-9.142-22.862-18.779a24.712,24.712,0,0,1,.485-16.782,29.789,29.789,0,0,1,5.813-9.494c2.585-2.812,5.983-4.58,8.631-7.246a.855.855,0,0,0-.6-1.441C12.925-.732,2.77,12.7.647,22.438-1.444,32.032,1.674,41.6,7.985,48.922c12.833,14.884,36.6,19.793,55.089,15.419C78.043,60.8,92.26,52.65,107.908,53.82a7.8,7.8,0,0,0,7.378-3.341,7.587,7.587,0,0,0,7.42,3.356c14.584-1.413,27.6,8.915,41.757,11.437a47.741,47.741,0,0,0,33.1-6.772c10.1-6.347,17.2-16.528,17.669-28.666a31.549,31.549,0,0,0-5.967-19.829" transform="translate(96 3)"/></svg>