<svg xmlns="http://www.w3.org/2000/svg" width="280" height="230" viewBox="0 0 280 230"><path d="M74.952,163.272h-.287l-.359,0c-21.439-.113-38.283-8.958-48.638-16.358a89.3,89.3,0,0,1-15.031-13.479c-3.557-4.056-6.258-8.074-7.412-11.023C1.249,117.356.17,110.03.018,100.633A188.291,188.291,0,0,1,1.445,75.719,120.754,120.754,0,0,1,9.87,42.975c4.809-11.29,11.3-20.537,19.285-27.486a68.4,68.4,0,0,1,8.512-6.317,64.56,64.56,0,0,1,9.415-4.891A52.806,52.806,0,0,1,67.447,0a43.19,43.19,0,0,1,15.2,2.709,44.723,44.723,0,0,1,9.537-1.02,50.086,50.086,0,0,1,21.834,5.17,52.869,52.869,0,0,1,13.609,9.6A64.363,64.363,0,0,1,137.8,29.41c5.244,8.678,9.241,19.286,11.88,31.529a154.41,154.41,0,0,1,2.75,17.609,93.18,93.18,0,0,1-.34,22.538,70.151,70.151,0,0,1-6.64,21.472c-.089.177-.215.46-.374.818a62.176,62.176,0,0,1-16.491,22.348,67.71,67.71,0,0,1-20.983,12.213,94.512,94.512,0,0,1-32.652,5.333h0ZM84.724,27.413c-2.051,0-4.285.064-6.83.2-14.143.738-27.821,2.11-39.7,10.68A54.141,54.141,0,0,0,27.775,48.3a46.818,46.818,0,0,0,1.83,10.15A67.3,67.3,0,0,0,36.1,73.116a101.177,101.177,0,0,0,9.285,13.123c2.159,2.621,4.452,5.316,7.01,8.24.328-.293.651-.591.964-.88l.006-.005.006-.006c.233-.215.453-.418.674-.619a113.193,113.193,0,0,0,12.03-12.4,61.461,61.461,0,0,0,3.836-5.395,43.881,43.881,0,0,1,5.584-7.315,15.5,15.5,0,0,1,5.066-3.365,14.607,14.607,0,0,1,5.471-1.039c5.924,0,12.428,3.4,16.972,8.883.679.82,1.344,1.675,1.987,2.5,2.54,3.264,5.166,6.64,9.143,8.469a17.366,17.366,0,0,0,4.811,1.41,89.988,89.988,0,0,0,5.719-21.81,57.53,57.53,0,0,0-.22-15.1c-2.554-3.2-5.2-6.208-7.851-8.93a35.358,35.358,0,0,0-14.852-9.218A55.059,55.059,0,0,0,84.724,27.413Z" transform="translate(121 27)"/></svg>