<svg xmlns="http://www.w3.org/2000/svg" width="285.896" height="230" viewBox="0 0 285.896 230"><path d="M162.247,39.2a.569.569,0,0,1-.205-.038l-.076-.037c-3.886-1.949-7.928-3.779-11.836-5.548-5.672-2.568-11.538-5.223-17.067-8.305-4.853-3-10.372-4.978-15.709-6.891a92.119,92.119,0,0,1-13.812-5.809,7.639,7.639,0,0,1-2.754-3.781,7.156,7.156,0,0,1-.056-4.269A6.435,6.435,0,0,1,106.945,0a44.681,44.681,0,0,1,14.784,4.023,150.177,150.177,0,0,1,13.9,7.317c1.445.827,2.81,1.608,4.189,2.376,8.659,5.173,16.054,13.007,22.61,23.95l.372.625a.518.518,0,0,1,.034.554A.679.679,0,0,1,162.247,39.2ZM1.617,36.968v0h0L1.19,36.78A2.157,2.157,0,0,1,.038,34.462c.356-2.045,3.175-4.884,8.379-8.437a160.291,160.291,0,0,1,18.24-10.366C40.828,8.607,56.575,2.408,64.949.582A8.394,8.394,0,0,1,66.718.414c3.738,0,9.208,1.831,9.758,5.269a8.806,8.806,0,0,1-.6,4.613,6.144,6.144,0,0,1-3.555,3.539c-4.291,1.513-8.257,2.526-12.455,3.6-1.786.456-3.633.928-5.513,1.443l-8.024,2.247c-7.469,2.1-15.427,4.407-23.017,6.985A171.125,171.125,0,0,0,1.617,36.968Z" transform="translate(123 34)"/></svg>