<svg xmlns="http://www.w3.org/2000/svg" width="298.076" height="230" viewBox="0 0 298.076 230"><path d="M170.528,162.863c2.019,1.915,6.4,6.13,10.6,7.983h3.927a19.249,19.249,0,0,0,2.493-.671,16.12,16.12,0,0,0,.75-8.757c-2.968-17.046-5.619-34.307-4.206-51.656,1.331-16.357,6.039-32.634,4.768-49.147-1.773-38.967-39.4-65.95-72.341-58.061a29.5,29.5,0,0,0-12.116,3.7C53.018-15.3-10.493,21.122,1.469,80.7c2.293,16.11,5.991,31.389,4.855,47.808a199.067,199.067,0,0,1-3.263,23.362c-1.1,5.8-4.019,12.956-1.339,18.683,10.766,6.8,21.99-7.331,29.181-19.458,3.764-10.192,6.891-20.627,10.417-30.9,6.362-18.461,7.836-28.657,28.831-33.691a71.978,71.978,0,0,0,24.1-13.665C99.589,70.29,102.63,65.172,104.448,60c.906,2.548-.347,5.641-.574,8.286,15.227,20.182,34.07,16.361,40.849,30.4,5.187,13.211,8.1,27.295,12.071,40.965.543,1.871,10.59,20.238,13.734,23.22" transform="translate(109 28)"/></svg>