<svg xmlns="http://www.w3.org/2000/svg" width="284.066" height="230" viewBox="0 0 284.066 230"><path d="M154.634,10.664c-6.594-1.239-13.411-.891-19.961-2.333-6.39-1.408-11.465-5.6-17.639-7.544A18.023,18.023,0,0,0,101,3.559a23.2,23.2,0,0,0-12.87-1.61c-6.782.91-13.11,3.78-19.151,6.884-.7.36-1.4.7-2.1,1.05-11.162-.279-22.6-.257-33.558,2.135-9.7,2.119-18.868,7.051-24.652,15.289C2.2,36.528,1.028,48.27.03,59.166-.6,66.082,9,67.485,12.256,62.477c3.375-5.192,6.888-10.4,11.385-14.7,5.108-4.887,11.321-6.811,18.284-7.257,15.368-.984,30.838-.159,46.221-.84,8.917-.4,18.845-3.824,22.439-11.576,3.836,6.011,12.528,9.585,19.677,10.127,7.555.574,15.226-.8,22.706.775,7.146,1.5,15.64,6.826,14.051,15.338-.934,5,5.387,7.948,8.3,3.5,11.879-18.183.174-43.259-20.681-47.18" transform="translate(104.001 28)"/></svg>