<svg xmlns="http://www.w3.org/2000/svg" width="280" height="230" viewBox="0 0 280 230"><path d="M88.744,150.132h0a73.076,73.076,0,0,1-14.477-1.424,118.912,118.912,0,0,1-19.747-3.749c-7.275-1.909-15.208-4.405-22.941-7.219a200.435,200.435,0,0,1-20.011-8.385C5.787,126.483,2,123.977.611,122.108a2.253,2.253,0,0,1-.581-1.765c.908-4.127,2.391-7.031,4.534-8.877a10.421,10.421,0,0,1,7.114-2.37c3.97,0,8.5,1.424,12.874,2.8,2.324.731,4.726,1.487,6.95,1.991a181.23,181.23,0,0,0,30.861,2.548C75.937,113.48,73.476,92.184,72.55,84.168v-.006c-.1-.9-.186-1.61-.226-2.123a22.85,22.85,0,0,1,.945-8.074,21.2,21.2,0,0,1,4.231-7.9,15.247,15.247,0,0,1,10.959-5.313c.253-.014.508-.021.758-.021a12.713,12.713,0,0,1,7.452,2.382A19.117,19.117,0,0,1,101.8,68.79a35.147,35.147,0,0,1,4.492,12.376c.155,1.071.3,2.4.466,3.941a85.91,85.91,0,0,0,2.467,14.6,17.574,17.574,0,0,0,2.734,5.793,5.469,5.469,0,0,0,4.355,2.34,6.149,6.149,0,0,0,1.451-.183c3.807-.928,10.091-5.214,16.167-9.359,3.971-2.708,7.721-5.266,10.724-6.87a19.987,19.987,0,0,1,5.388-.855c2.708,0,4.768.825,6.124,2.452,1.744,2.093,2.25,5.458,1.465,9.732-.343,1.868-2.785,6.612-6.531,12.691a101.965,101.965,0,0,1-8.823,12.639,63.752,63.752,0,0,1-11.268,9.543,71.927,71.927,0,0,1-13.153,6.9A78.939,78.939,0,0,1,88.744,150.132ZM150.2,49.516h0c-4.632,0-8.091-1.692-12.1-3.651a53.105,53.105,0,0,0-10.157-4.053c-4.3-1.134-8.964-2.12-13.477-3.074-8.533-1.8-16.593-3.507-21.026-5.946-8.7,4.935-18.4,6.432-27.774,7.879l-.013,0-1.909.3a107.34,107.34,0,0,0-15.124,3.982c-7.013,2.206-14.265,4.488-20.8,4.488-.632,0-1.259-.021-1.862-.064a1.2,1.2,0,0,1-.486.082c-1.469,0-4.6-1.391-6.655-4.379a12.2,12.2,0,0,1-2.067-6.055,21.191,21.191,0,0,1,1.6-9.132,29.29,29.29,0,0,1,5.943-9.34,45.338,45.338,0,0,1,9.228-7.508A80.9,80.9,0,0,1,57.4,3.428,108.8,108.8,0,0,1,82.1,0C87.72,0,92.311.783,95.741,2.328A35.766,35.766,0,0,1,107.525.594,70.845,70.845,0,0,1,127.9,3.866a61.065,61.065,0,0,1,18.8,9.325,29.559,29.559,0,0,1,6.19,6.581,38.144,38.144,0,0,1,4.3,8.106,34.8,34.8,0,0,1,2.127,8.317,19.623,19.623,0,0,1-.336,7.212c-.929,3.475-3.054,5.527-6.147,5.932A20.3,20.3,0,0,1,150.2,49.516Z" transform="translate(112.173 29)"/></svg>