<svg xmlns="http://www.w3.org/2000/svg" width="371.167" height="249" viewBox="0 0 371.167 249"><g transform="translate(0 19)"><path d="M326.983,2c-2.12-3.19-8.13-1.25-6.58,2.77,16.823,38.172,9.04,67.862-38.241,62.669-28.5-1.851-56.186-27.056-84.813-14.514-7.381,5.929-12.24,6.664-20.039.248-30.946-13.541-65.986,10.6-97.077,13.857C31.588,71.814,5.131,55.54,29.7,5.641c1.539-3.39-2.931-7.86-5.671-4.38C-9.9,40.744-11.6,93.757,43.015,114.211,83.1,127.559,159.759,138.6,187.273,98.361c17.562,29.06,55.1,30.8,85.271,25.6C345.4,117.235,367.724,60.627,326.983,2" transform="translate(24 -19.001)"/></g></svg>