<svg xmlns="http://www.w3.org/2000/svg" width="816.665" height="297" viewBox="0 0 816.665 297"><g transform="translate(221 67)"><path d="M741.333,8.495c-16,14.593-5.72,51.151.518,41.268.93-9.152,3.788-26.688,13.064-30.236,68.23-2.91,54.14,165.8-72.958,145.031-80.98-5.464-166.511-122.74-242.663-51.372-82.74-67.4-176.167,33.643-261.37,47.481-69.275,22.4-172.8-18.735-154.156-104.136,4.657-25.06,39.313-53.727,60.538-28.3,6.27,6.041-1.695,28.166,4.9,23.592,10.262-11.337,7.588-29.442-1.9-40.733C71.6-7.6,43.6.577,27.311,13.782c-73.483,72.291,15.023,181.414,103.6,174.2C227.978,199.859,359.98,64.963,426.7,130.495c6.8,6.682,19.589,6.685,25.5,0,56.724-64.054,166.2,66.858,245.276,57.509,84.1,7.66,151.409-93.845,102.868-165.614C788.255,4.149,759.191-9.6,741.333,8.495Z" transform="translate(-221 -67.001)"/></g></svg>