<svg xmlns="http://www.w3.org/2000/svg" width="292.624" height="230" viewBox="0 0 292.624 230"><path d="M119,.876C104.976-1.49,90.4,2.006,76.88,5.731,55.4-8.374,27.56,5.864,12.174,23.486c-5.266,4.337-16.324,10.1-10.5,18.371-2.208,5.849-2.8,8.6,1.772,1.763,25.869,2.978,53.623-2.648,79.224-7.954,8.717,2.931,16.415,9.785,26,7.437,9.06,1.926,18.869,3.725,27.048-2.087,6.228-.253,20.084,10.931,19.861-2.075C153.652,26.475,128.934,5.731,119,.876Z" transform="translate(126.363 31.947)" fill="#e8e1e1"/><path d="M3.505,59.439h0c-2.244,0-3.422-1.057-3.5-3.141a13.938,13.938,0,0,1,1.22-5.3,52.691,52.691,0,0,1,3.531-7.016,143.849,143.849,0,0,1,11.35-16.217A156.689,156.689,0,0,1,28.762,13.553c4.111-4,7.108-6.177,8.669-6.294A52.583,52.583,0,0,1,50.1,1.674,43.7,43.7,0,0,1,62.192,0a58.429,58.429,0,0,1,13.97,1.846A134.093,134.093,0,0,1,90.788,6.5a13.3,13.3,0,0,0,1.61.1c3.427,0,6.967-1.246,10.389-2.451a43.49,43.49,0,0,1,7.806-2.223,46.87,46.87,0,0,1,6.546-.467,45.761,45.761,0,0,1,19.6,4.473,62.074,62.074,0,0,1,16.488,11.641,94.623,94.623,0,0,1,13.212,16.142,125.17,125.17,0,0,1,9.77,17.977,3.788,3.788,0,0,1-.153,3.729,3.569,3.569,0,0,1-5.6.709,21.417,21.417,0,0,0-7.29-3.441,31.392,31.392,0,0,0-8.043-.927,108.208,108.208,0,0,0-12.989,1.105l-.827.1a124.737,124.737,0,0,1-15.458,1.208A58,58,0,0,1,110.6,52.264a56.15,56.15,0,0,1-16.431-7.49A21.973,21.973,0,0,1,87,48.576a47.318,47.318,0,0,1-9.257,1.957c-6.748.827-14.474.833-22.653.84a232.789,232.789,0,0,0-26.046.992C19.4,53.474,11.774,55.7,5.726,59.174A10.856,10.856,0,0,1,3.505,59.439ZM66.361,7.086A48.618,48.618,0,0,0,35.525,17.709,69.782,69.782,0,0,0,23.167,30.46,114.948,114.948,0,0,0,12.5,47.7c15.195-4.773,31.5-4.877,47.264-4.978,3.263-.021,6.636-.042,9.933-.106.276-.006.573-.009.906-.009.693,0,1.433.013,2.216.027h.005l.116,0c.9.016,1.719.028,2.566.028,5.568,0,11.567-.59,13.84-4.967a3.27,3.27,0,0,1,2.99-1.884,3.774,3.774,0,0,1,.414.023,3.353,3.353,0,0,1,1.523-.371,3.823,3.823,0,0,1,2.19.743,55.164,55.164,0,0,0,16.567,7.741A66.739,66.739,0,0,0,131.08,46.34a80.393,80.393,0,0,0,8.8-.495c1.355-.15,2.757-.324,4.113-.493a104.839,104.839,0,0,1,12.764-1.063,34.986,34.986,0,0,1,8.151.86A89,89,0,0,0,156.5,31.2,74.516,74.516,0,0,0,145.322,19a52.735,52.735,0,0,0-13.53-8.646,39.034,39.034,0,0,0-15.477-3.284,38.5,38.5,0,0,0-9.346,1.172c-.483.04-2.626.752-5.109,1.577-3.875,1.287-8.7,2.889-10.019,2.889-.2,0-.316-.038-.342-.112-.038-.109.111-.3.442-.566A90.352,90.352,0,0,0,78.576,8.3,65.064,65.064,0,0,0,66.361,7.086Z" transform="translate(116 27)"/></svg>