<svg xmlns="http://www.w3.org/2000/svg" width="285.717" height="230" viewBox="0 0 285.717 230"><path d="M137.53,8.241A85.811,85.811,0,0,0,108.757.6C104.435.21,95.945-1.011,91.348,1.808A17.043,17.043,0,0,0,85.94,7.224a24.609,24.609,0,0,1-1.77-2.279C81.653.423,66.2.329,61.541.713A101.673,101.673,0,0,0,29.578,8.586C11.377,16.426-3.913,32.715.895,53.395c.68,2.929,3.961,4.068,6.664,3.562L62.217,46.711,74.9,44.333c3.825-.717,8.513-.944,12.143-2.594A24.34,24.34,0,0,0,91.87,43.1c21.921,4.354,43.87,8.578,65.805,12.867,2.63.515,6.08-.819,6.552-3.733,3.148-19.444-9.235-35.832-26.7-44" transform="translate(121 29)"/></svg>