<svg xmlns="http://www.w3.org/2000/svg" width="307.999" height="260" viewBox="0 0 307.999 260"><g transform="translate(15.982 30)"><path d="M198.431,203.35a220.648,220.648,0,0,1-51.034-5.813,179.48,179.48,0,0,1-47.3-18.378c-10.912-2.835-19.72-10.183-28.238-17.288-2.58-2.152-5.246-4.377-7.893-6.4-5.794-5.075-13.4-11.85-20.862-19.259a216.018,216.018,0,0,1-19.313-21.635,142.024,142.024,0,0,1-8.121-11.7A108.9,108.9,0,0,1,9.085,90.6,86.553,86.553,0,0,1,4.412,77.738,73.5,73.5,0,0,1,2.036,64.306C.764,48.464.177,32.724.382,19.986.56,8.932,1.344,1.336,2.428.161A.421.421,0,0,1,2.73,0,5.959,5.959,0,0,1,7.268,2.571a21.1,21.1,0,0,1,3.094,5.656,49.281,49.281,0,0,1,2.331,8.227l1.7,2.928c8.52,14.707,17.33,29.915,27.533,43.658A180.827,180.827,0,0,0,58.6,82.644,140.67,140.67,0,0,0,78.845,99.685c10.2,4.088,20.579,9.142,30.614,14.028,11.97,5.829,24.349,11.857,37,16.574a164.646,164.646,0,0,0,19.311,5.974,119.163,119.163,0,0,0,20.107,3.112c7.158-.751,12.291-3.88,17.254-6.906a60.986,60.986,0,0,1,8.426-4.544,25.859,25.859,0,0,1,10.153-2.044,34.135,34.135,0,0,1,8.676,1.2c2.131.518,4.349,1.126,6.5,1.714,6.6,1.809,13.431,3.681,20.034,3.681a25.3,25.3,0,0,0,15.742-4.978c6.992-4.57,12.735-10.754,18.29-16.734,3.053-3.287,6.208-6.684,9.527-9.764.021-.069.048-.1.079-.1a.1.1,0,0,1,.069.045c.762.9,3.366,15.421,2.495,20.6l-.724,3.172q-.336,1.484-.673,2.987c-5.612,24.947-11.973,53.222-36.876,66.735a66.146,66.146,0,0,1-10.576,4.5,38.237,38.237,0,0,1-11.52,2.02,21.818,21.818,0,0,1-5.627-.693A246.438,246.438,0,0,1,198.431,203.35Zm-43.76-91.459a70.475,70.475,0,0,1-19.576-2.749,76.881,76.881,0,0,1-18.845-8.439,19.221,19.221,0,0,1-5.931-2.656c-2.737-1.7-4.453-3.358-4.707-4.557a1.353,1.353,0,0,1,.8-1.537,2.367,2.367,0,0,0,.609.069c2.526,0,8.847-2.721,16.909-7.278,7.606-4.3,14.916-9.212,18.624-12.515a38.259,38.259,0,0,1,15.668-14.467,44.525,44.525,0,0,1,19.8-4.25,72.149,72.149,0,0,1,18.246,2.534,102.5,102.5,0,0,1,17.685,6.522,35.778,35.778,0,0,1,10.537-4.851,42.645,42.645,0,0,1,11.426-1.5,59.86,59.86,0,0,1,23.831,5.331l0,.008a80.125,80.125,0,0,1,18.024,13.918,215.693,215.693,0,0,1,14.961,17.064c1.629,2.2,2.369,4.645,1.932,6.391a3.394,3.394,0,0,1-1.952,2.313,27.252,27.252,0,0,1-10.139,5.074,46.1,46.1,0,0,1-12.288,1.529,76.323,76.323,0,0,1-21.067-3.207,67.07,67.07,0,0,1-17.162-7.505c-4.2-.338-6.3-2.967-8.141-5.286-1.5-1.89-2.8-3.522-4.919-3.522-1.779,0-3.939,1.147-6.8,3.608a55.912,55.912,0,0,1-13.23,9.146,75.716,75.716,0,0,1-15.391,5.621,100.421,100.421,0,0,1-14.677,3.873A80.342,80.342,0,0,1,154.671,111.891Z" transform="translate(-14.301 -16.245)" fill="#e8e1e1"/><path d="M191.717,223h-.012a193.378,193.378,0,0,1-42.275-4.764A208.827,208.827,0,0,1,109.108,204.7a211.287,211.287,0,0,1-36.536-21.17,197.281,197.281,0,0,1-30.931-27.66A175.776,175.776,0,0,1,22.65,130.64,155.715,155.715,0,0,1,8.99,102.722,136.546,136.546,0,0,1,1.067,40.949a1.165,1.165,0,0,1,1.2-1.023A1.017,1.017,0,0,1,3.34,40.949,165.8,165.8,0,0,0,5.634,63.273a182.1,182.1,0,0,0,5.323,22.458A178.35,178.35,0,0,0,19.123,107.4a157.118,157.118,0,0,0,10.822,19.957A167.1,167.1,0,0,0,60.5,164.031a183.978,183.978,0,0,0,39.323,27.037,207.121,207.121,0,0,0,94.274,22.445,210.733,210.733,0,0,0,29.744-2.112c12.675-.172,23.019-1.921,31.621-5.349A49.06,49.06,0,0,0,275.181,192c4.657-5.477,8.55-12.261,12.253-21.352,3.331-8.178,6.187-17.439,9.21-27.245l.007-.024c.825-2.675,1.678-5.441,2.557-8.24,2.736-2.246,5.061-3.433,6.725-3.433a2.149,2.149,0,0,1,1.849.853c.776,1.066.739,3.092-.1,5.7-.913,2.83-1.8,5.608-2.655,8.295l-.006.018c-7.549,23.69-13.511,42.4-25.376,55.133a54.3,54.3,0,0,1-23.176,14.539c-10.033,3.358-22.365,4.99-37.7,4.99-.619,0-1.253,0-1.883-.008A178.79,178.79,0,0,1,191.717,223Zm-10.352-65.245c-5.407,0-11.35-1.283-18.169-3.922l-1.448-.472a138.427,138.427,0,0,1-19.444-7.955,67.19,67.19,0,0,1-16.859-11.682.43.43,0,0,1-.085-.477.424.424,0,0,1,.391-.275.473.473,0,0,1,.146.024,156.867,156.867,0,0,1,18.093,7.289c5.8,2.607,11.807,5.3,17.8,7.342a55.777,55.777,0,0,0,17.822,3.424,31.967,31.967,0,0,0,8.514-1.109,29.106,29.106,0,0,0,8.135-3.684c1.737-1.166,3.445-2.43,5.1-3.654a63.629,63.629,0,0,1,11.433-7.258,36.29,36.29,0,0,1,11.675-1.974c7.7,0,14.174,2.554,20.675,5.4l1.289.567c5.647,2.486,10.981,4.834,16.5,4.834,4.426,0,8.617-1.537,12.812-4.7,4.8-3.613,9.678-9.369,14.926-17.6a105.981,105.981,0,0,1-18.138,1.575,98.733,98.733,0,0,1-14.633-1.074,86.463,86.463,0,0,1-14.144-3.334,67.845,67.845,0,0,1-24.725-14.111A63.292,63.292,0,0,1,193.4,123.368,84.284,84.284,0,0,1,162.094,129a109.2,109.2,0,0,1-15.781-1.176,120.083,120.083,0,0,1-15.531-3.354,121.733,121.733,0,0,1-14.769-5.271,112.2,112.2,0,0,1-13.5-6.929,6.733,6.733,0,0,1-.956.066,9.645,9.645,0,0,1-4.477-1.2,6.574,6.574,0,0,1-2.995-3,3.776,3.776,0,0,1,1.08-4.288c2.846-2.262,6.769-2.645,10.562-3.014a32.638,32.638,0,0,0,7.534-1.326,34.548,34.548,0,0,0,11.853-7.34,96.7,96.7,0,0,0,9.15-10.143,100,100,0,0,1,8.984-10,36.142,36.142,0,0,1,11.6-7.472A59.365,59.365,0,0,1,178.871,59.4a53.5,53.5,0,0,1,15.72,2.306A46.337,46.337,0,0,1,208.585,68.7l1.046.238a27.418,27.418,0,0,0,6.134.821,18.633,18.633,0,0,0,1.878-.1A56.029,56.029,0,0,1,229.424,65a43.292,43.292,0,0,1,10.989-1.459c11.861,0,23.345,5.165,35.107,15.79,10.209,9.222,19.119,21.172,26.979,31.716l.731.98a2.648,2.648,0,0,1,2.067,1.024,1.826,1.826,0,0,1,.277,1.615l.644.689a39.094,39.094,0,0,1-5.292,9.747,32.367,32.367,0,0,1-8.088,7.74c-4.953,6.594-9.7,11.234-14.5,14.184a26.271,26.271,0,0,1-14.1,4.064,44.223,44.223,0,0,1-13.879-2.62c-4.91-1.618-10.279-3.9-15.964-6.317-1.355-.576-2.757-1.172-4.184-1.772a32.033,32.033,0,0,0-4.723-.365,26.63,26.63,0,0,0-11.655,2.673,63.8,63.8,0,0,0-9.456,5.932l-.374.266a59.972,59.972,0,0,1-9.91,6.1A29.936,29.936,0,0,1,181.365,157.755Zm.142-90.564h0a52.6,52.6,0,0,0-17.167,2.783,45.22,45.22,0,0,0-15.182,8.755,132.059,132.059,0,0,0-8.9,10.284c-3.833,4.749-7.8,9.66-12.454,13.57a37.719,37.719,0,0,1-7.651,5.059,33.051,33.051,0,0,1-9.356,2.983,99.374,99.374,0,0,0,48.822,13.046,86.884,86.884,0,0,0,15.651-1.395,75.6,75.6,0,0,0,14.871-4.309,63.9,63.9,0,0,0,25.1-18.108,2.074,2.074,0,0,1,2.133-1.488,3.746,3.746,0,0,1,2.023.632,2.719,2.719,0,0,1,1.206,1.629,93.14,93.14,0,0,0,23.88,12.016,84.065,84.065,0,0,0,26.571,4.414,76.086,76.086,0,0,0,12.841-1.084,78.932,78.932,0,0,0,10.637-2.515l-3.3-4.538c-6.409-8.768-13.968-18.757-22.594-26.327-9.656-8.474-19.119-12.594-28.93-12.594A37.505,37.505,0,0,0,229.1,71.594a51.44,51.44,0,0,0-11.476,5.1.727.727,0,0,1-.326.087c-.577,0-.794-.908-.846-1.186l-.411.3a4.817,4.817,0,0,0,.618.776c.526.593,1.18,1.33,1.022,1.684-.063.14-.251.212-.559.213a62.416,62.416,0,0,0-35.608-11.38Zm118.18,52.586c-.611.173-1.273.341-1.966.5a2.636,2.636,0,0,1,.415.475c.531-.276,1.107-.571,1.709-.857Zm-213.4-.974a4.305,4.305,0,0,1-1.06-.134c-4.973-1.264-9.639-4.086-14.152-6.814-.864-.522-1.68-1.016-2.511-1.506A72.255,72.255,0,0,1,52.012,98.61,91.738,91.738,0,0,1,39.336,83.68C31.9,72.926,26.195,60.754,20.674,48.983c-1.732-3.692-3.522-7.51-5.319-11.178a98,98,0,0,0-4.791-10.452C6.816,19.931,2.942,12.257,3.6,4.632l-.008-.959C3.595,1.2,3.762,0,4.106,0c.5,0,1.321,2.668,2.042,5.023a32.945,32.945,0,0,0,1.21,3.564C9.331,12.14,11.2,15.729,13.015,19.2c2.771,5.311,5.635,10.8,8.854,16.133,3.184,5.729,5.906,10.859,8.538,15.82C37.63,64.77,43.334,75.522,51.681,84.981a91.852,91.852,0,0,0,15.124,13.6A167.329,167.329,0,0,0,89.348,112.05a3.36,3.36,0,0,1,1.037,3.882A4.451,4.451,0,0,1,86.289,118.8Z" transform="translate(-16.322 -30)"/></g></svg>