<svg xmlns="http://www.w3.org/2000/svg" width="280.003" height="230" viewBox="0 0 280.003 230"><g transform="translate(0.003 0)"><path d="M202.974,186h0c-8.194,0-16.372-.794-23.587-1.494a267.664,267.664,0,0,1-59.681-13.054c-9.048-3.051-18.381-6.683-28.533-11.1-1.386-.6-2.808-1.212-4.182-1.8-7.91-3.395-16.089-6.9-23.411-11.3-6.281-3.775-11.728-9.333-17-14.708l-.008-.008c-.915-.933-1.861-1.9-2.78-2.821-11.615-11.656-19.974-21-27.1-30.282A97.943,97.943,0,0,1,6.844,84.448,54.929,54.929,0,0,1,1.3,67.48C-1.709,47.846,1.074,27.346,3.765,7.521c.212-1.561.431-3.174.643-4.76a.864.864,0,0,1,.829-.7.507.507,0,0,1,.509.369c-.018-.325-.036-.667-.06-1.11A1.217,1.217,0,0,1,6.008.4a1.383,1.383,0,0,1,1-.4,1.358,1.358,0,0,1,1.343.96,118.365,118.365,0,0,0,26.166,46.56,143.981,143.981,0,0,0,12.2,11.7c4.019,3.446,8.362,6.846,13.278,10.4C69.126,76.2,78.874,82.3,88.3,88.2l.011.007c1.959,1.225,3.984,2.492,5.969,3.742a5.07,5.07,0,0,1,2.475-1.32,55.781,55.781,0,0,1,8.95-19.449,86.4,86.4,0,0,1,14.138-15.672c20.121-17.5,48.354-27.94,75.523-27.94A99.613,99.613,0,0,1,214.083,29.3a86.811,86.811,0,0,1,17.793,5.4,77.152,77.152,0,0,1,20.84,13.252A78.164,78.164,0,0,1,268.387,67.08,81.88,81.88,0,0,1,274.758,80.8c.772,2.167,6.792,26.429,3,40.333a103.794,103.794,0,0,1-7.527,19.414,119.554,119.554,0,0,1-11.048,17.736c-8.4,11.195-18.249,19.066-29.282,23.395a60,60,0,0,1-13.122,3.393A93.95,93.95,0,0,1,202.974,186ZM191.336,54.092a112.425,112.425,0,0,0-27.5,3.1,71.593,71.593,0,0,0-27.65,13.8,66.2,66.2,0,0,0-10.7,10.98,61.184,61.184,0,0,0-7.76,13.223,35.285,35.285,0,0,0,.316,12.481,92.9,92.9,0,0,0,24.049,12.181,83.887,83.887,0,0,0,26.535,4.385,79.012,79.012,0,0,0,9.111-.527c1.411-1.751,2.844-3.751,4.361-5.868a88.705,88.705,0,0,1,9.145-11.4c3.866-3.835,7.641-5.974,11.541-6.54a15.9,15.9,0,0,1,2.275-.167,17.258,17.258,0,0,1,9.476,3.072,61.314,61.314,0,0,1,8.154,6.77,53.772,53.772,0,0,0,9.369,7.521c.51.291,1.089.592,1.771.919,7.462-.619,13.354-2.458,18.013-5.622a18.035,18.035,0,0,0,5.929-6.484,25.526,25.526,0,0,0,2.565-8.125c-.273-1.1-.574-2.233-.895-3.353A86.65,86.65,0,0,0,255.3,82.966a63.626,63.626,0,0,0-5.97-10.609,40.468,40.468,0,0,0-6.862-7.624,31.113,31.113,0,0,0-8.727-5.31c-6.965-2.744-14.752-3.482-22.282-4.2l-1.775-.169C203.013,54.408,197.01,54.092,191.336,54.092Z"/></g></svg>