<svg xmlns="http://www.w3.org/2000/svg" xmlns:xlink="http://www.w3.org/1999/xlink" width="1166" height="358" viewBox="0 0 1166 358"><defs><linearGradient id="a" x1="0.5" x2="0.5" y2="1" gradientUnits="objectBoundingBox"><stop offset="0" stop-color="#6b34ff"/><stop offset="1" stop-color="#339ff7"/></linearGradient></defs><g transform="translate(-377 -361)"><g transform="translate(-404 354)"><circle cx="179" cy="179" r="179" transform="translate(781 7)" fill="url(#a)"/><path d="M157.536,196.048a46.021,46.021,0,0,1-11.822-2.469,33.876,33.876,0,0,1-9.528-5.029,22.9,22.9,0,0,1-7.273-9.285H56.543a56.272,56.272,0,0,1-31.614-9.657A56.72,56.72,0,0,1,4.443,144.73,56.466,56.466,0,0,1,9.657,91.106,56.713,56.713,0,0,1,34.534,70.62a56.015,56.015,0,0,1,17.4-4.26V51.1a51.1,51.1,0,1,1,102.2,0V66.3a56.244,56.244,0,0,1,27.845,9.534,56.714,56.714,0,0,1,20.486,24.877,56.527,56.527,0,0,1-50.543,78.533,30.928,30.928,0,0,0,2.885,11.623,39.053,39.053,0,0,0,2.731,5.18v0Zm-36.147-72.754a7.857,7.857,0,1,0,7.856-7.907A7.891,7.891,0,0,0,121.389,123.294Zm-26.249,0A7.856,7.856,0,1,0,103,115.386,7.891,7.891,0,0,0,95.141,123.294Zm-26.249,0a7.856,7.856,0,1,0,7.856-7.907A7.891,7.891,0,0,0,68.891,123.294Zm68.467-57.117V51.059a34.324,34.324,0,1,0-68.647,0V66.177Z" transform="translate(857 88)" fill="#fff"/></g><path d="M10.98,0V-148.23H51.789q15.006,0,25.986,3.294a31.522,31.522,0,0,1,17.11,11.8q6.13,8.51,6.131,24.065a81.548,81.548,0,0,1-1.464,16.287,30.311,30.311,0,0,1-5.4,12.353A29.686,29.686,0,0,1,82.9-71.736L103.212,0H69.357L53.07-66.429H43.737V0ZM43.737-85.278h9.15q6.954,0,10.8-2.47a13.1,13.1,0,0,0,5.4-7.137,35.808,35.808,0,0,0,1.556-11.255q0-9.516-3.477-14.823t-12.81-5.307H43.737ZM159.393,2.2q-13.908,0-23.241-4.941a31.625,31.625,0,0,1-14.091-15.28q-4.758-10.339-5.307-26.809l28-4.209a66.784,66.784,0,0,0,1.739,15.372q1.556,5.856,4.392,8.418a9.877,9.877,0,0,0,6.863,2.562q5.124,0,6.68-3.477a17.726,17.726,0,0,0,1.555-7.32q0-9.15-4.392-15.464a68.627,68.627,0,0,0-11.9-12.718l-12.81-11.163A71.437,71.437,0,0,1,122.7-89.03q-5.764-9.059-5.764-22.418,0-18.849,11.163-28.822t30.378-9.973q11.9,0,19.124,4.026a28.109,28.109,0,0,1,10.98,10.523,43.5,43.5,0,0,1,5.124,13.725,87.122,87.122,0,0,1,1.555,13.816l-28.182,3.477a112.582,112.582,0,0,0-.824-11.437,15.728,15.728,0,0,0-2.653-7.5q-2.013-2.654-6.222-2.654a7.076,7.076,0,0,0-6.68,3.843,15.878,15.878,0,0,0-2.1,7.686q0,8.235,3.934,13.451A76.189,76.189,0,0,0,162.87-90.4l12.261,10.8A83.392,83.392,0,0,1,191.51-60.939q6.679,10.431,6.679,25.8A38.141,38.141,0,0,1,193.431-16.2,34.762,34.762,0,0,1,179.98-2.745Q171.288,2.2,159.393,2.2ZM205.509,0l28-148.23H270.84L298.473,0H268.278l-4.941-31.293H241.56L236.436,0Zm38.979-50.874h15.738L252.357-108.7ZM401.319,2.2q-16.836,0-26.626-6.131a33.023,33.023,0,0,1-13.816-17.2q-4.026-11.072-4.026-26.077V-100.65q0-15.372,4.026-26.444a32.581,32.581,0,0,1,13.816-17.11q9.791-6.039,26.626-6.039,16.47,0,25.711,5.4a29.8,29.8,0,0,1,13.085,15.1,60.292,60.292,0,0,1,3.843,22.326v12.81H411.933v-14.823a74.579,74.579,0,0,0-.457-8.418,12.412,12.412,0,0,0-2.654-6.679q-2.2-2.654-7.5-2.654-5.124,0-7.595,2.745a12.976,12.976,0,0,0-3.111,6.863,56.545,56.545,0,0,0-.641,8.692v69.723A46.271,46.271,0,0,0,390.8-30.1a12.523,12.523,0,0,0,3.294,6.588q2.471,2.47,7.229,2.47,5.124,0,7.32-2.653a13.188,13.188,0,0,0,2.745-6.862,66.44,66.44,0,0,0,.549-8.6V-54.717h32.025v12.81a63.857,63.857,0,0,1-3.752,22.6A30.987,30.987,0,0,1,427.214-3.569Q417.972,2.2,401.319,2.2ZM460.428,0V-148.23h29.646v51.789a38.12,38.12,0,0,1,12.261-8.509A35.5,35.5,0,0,1,516.06-107.6a17.426,17.426,0,0,1,10.706,3.2,19.582,19.582,0,0,1,6.5,8.784,34.53,34.53,0,0,1,2.2,12.718V0H505.812V-78.69a10.977,10.977,0,0,0-1.281-5.856q-1.281-2.013-4.758-2.013a12.387,12.387,0,0,0-4.392,1.007,28.311,28.311,0,0,0-5.307,2.837V0ZM575.169,1.83a23.031,23.031,0,0,1-13.542-3.843,24.115,24.115,0,0,1-8.235-9.79,28.756,28.756,0,0,1-2.745-12.17q0-9.882,3.935-16.653a36.059,36.059,0,0,1,10.339-11.346,71.357,71.357,0,0,1,14.091-7.778q7.686-3.2,15.189-5.764V-76.128a19.294,19.294,0,0,0-.549-4.85,6.662,6.662,0,0,0-1.83-3.294,5.472,5.472,0,0,0-3.843-1.189,6.167,6.167,0,0,0-3.935,1.1,5.769,5.769,0,0,0-1.921,3.02,21.755,21.755,0,0,0-.732,4.3l-.732,7.686-27.816-1.1q.915-19.032,10.156-28.09t27.724-9.058q16.1,0,24.065,8.875t7.961,22.966v49.41q0,6.588.274,11.529t.732,8.6q.457,3.66.824,6.222H597.861q-.549-4.209-1.281-9.15a41.193,41.193,0,0,0-1.1-5.856A26.732,26.732,0,0,1,588.62-3.294Q583.587,1.83,575.169,1.83ZM585.783-18.3a7.85,7.85,0,0,0,3.385-.732,10.046,10.046,0,0,0,2.836-2.013,20.5,20.5,0,0,0,2.2-2.562V-52.521q-3.66,2.2-6.771,4.484a27.917,27.917,0,0,0-5.307,5.032,21.4,21.4,0,0,0-3.385,5.948,20.65,20.65,0,0,0-1.19,7.228q0,5.307,2.2,8.418A7,7,0,0,0,585.783-18.3ZM672.891,1.1Q661,1.1,654.5-2.379a18.116,18.116,0,0,1-8.875-10.156,48.513,48.513,0,0,1-2.379-16.2V-86.193H633v-19.581h10.248v-32.208h30.2v32.208h15.006v19.581H673.44v54.534q0,4.575,2.654,6.588a10.736,10.736,0,0,0,6.68,2.013,32.61,32.61,0,0,0,4.392-.274q2.013-.274,3.66-.457V-.366q-2.379.366-7.5.915A97.855,97.855,0,0,1,672.891,1.1Z" transform="translate(785 622)" fill="#2f3640"/><circle cx="19.5" cy="19.5" r="19.5" transform="translate(1504 587)" fill="#2f3640"/></g></svg>