<svg xmlns="http://www.w3.org/2000/svg" width="498" height="605.878" viewBox="0 0 498 605.878"><g transform="translate(24)"><path d="M438.548,286.86c6.194-44.7-7.034-87.844-24.171-128.7a14.339,14.339,0,0,0-4.353-6.175C361.661,54.508,290.6,45.681,191.459,52.394c-2.929-.065-3.1-.013-5.327-1.008-.368-39.6-45.593-60.573-80.008-47.508C-46.508,74.807,1.486,274.492,31.859,404.857q16.254,75.7,32.513,151.39a10.172,10.172,0,0,0,2.151,4.377c-1.574.6-3.149,1.157-4.694,1.683-3.526,1.2-2.125,6.457,1.545,5.6a96.3,96.3,0,0,0,10.492-3.173c5.346,1.16,9.828-2.333,14.025-5.119,49.146-19.434,69.778-83.3,82.384-130.358,51.251,36.16,133.144,63.242,191.743,30.726,54.908-33.066,74.682-102.041,70.781-162.92,4.007-1.844,5.624-5.864,5.729-10.055h.024c0-.051,0-.1,0-.153Z" transform="translate(-8 30.001)" fill="#d08b5b"/><path d="M61.829,562.307c1.544-.526,3.119-1.086,4.693-1.683a10.184,10.184,0,0,1-2.151-4.377q-16.257-75.695-32.513-151.39C1.486,274.492-46.508,74.806,106.124,3.877A62.233,62.233,0,0,1,135.846.506c4.986,2.55,27.547,14.048,37.257,18.307a49.76,49.76,0,0,1,5.931,7.734c2.333,12.63-2.041,37.824-2.041,37.824s-46.111,33.28-61.257,48.025S80.62,211.138,80.62,211.138l6.654,68.222s-9.4-1.855-9.4,33.872,35.995,41.247,35.995,41.247l43.145,60.58,9.461,21.815s-22.456,50.033-31.7,81.566c-11.889,18.276-27.071,33.341-46.893,41.179-4.2,2.786-8.679,6.278-14.025,5.118a96.23,96.23,0,0,1-10.492,3.173,3.442,3.442,0,0,1-.78.093A2.919,2.919,0,0,1,61.829,562.307ZM87.274,279.36Z" transform="translate(-8 30.001)" fill="#a55728"/><path d="M88.01,577.878c-3.389,0-8.006-.987-10.757-5.693a11.44,11.44,0,0,1-1.363-3.649,9.444,9.444,0,0,1-3.395-1.692c-.194,2.15-.4,4.043-.626,5.786a5.049,5.049,0,0,1-1.711,3.235,4.744,4.744,0,0,1-3.084,1.174,4.223,4.223,0,0,1-4.044-3.214c-5.246-16.353-8.73-33.619-12.1-50.317-1.085-5.378-2.207-10.939-3.371-16.383-2.768-12.937-5.773-26.049-8.679-38.729l-.006-.028c-2.077-9.063-4.225-18.435-6.268-27.667L26.4,412.737c-7.273-32.862-14.8-67.915-19.922-103.4-2.681-18.577-4.48-35.664-5.5-52.237C.423,248.2.1,239.363.021,230.842c-.086-8.912.086-17.78.51-26.36.485-9.8,1.305-19.476,2.438-28.772,1.185-9.723,2.746-19.3,4.641-28.479,1.975-9.566,4.369-18.963,7.115-27.932a276.843,276.843,0,0,1,9.861-27.13c7.49-17.625,16.205-32.185,25.9-43.276A87.3,87.3,0,0,1,69.342,32.429a67.534,67.534,0,0,1,11.082-5.672,62.7,62.7,0,0,1,12.255-3.484,1.4,1.4,0,0,1,.24-.021,1.6,1.6,0,0,1,.4.054A59.226,59.226,0,0,1,108.041,9.6,57.659,57.659,0,0,1,125.278,2.27,76.322,76.322,0,0,1,144.02,0c1.077,0,2.169.022,3.245.065a52.842,52.842,0,0,1,10.374,1.47A69.692,69.692,0,0,1,167.6,4.791a98.734,98.734,0,0,1,9.787,4.841c2.451,1.328,4.984,2.7,7.585,3.889a.265.265,0,0,1,.163.31.379.379,0,0,1-.351.3.325.325,0,0,1-.064-.007,42.068,42.068,0,0,0-8.358-.746,102.009,102.009,0,0,0-14.006,1.2l-.707.1c-2.179.316-4.407.589-6.562.853a136.633,136.633,0,0,0-14.435,2.3c-9.953,2.326-23.491,7.8-31.468,20.677a70.4,70.4,0,0,0-9,24.473,110.294,110.294,0,0,0-1.451,26.167,101.278,101.278,0,0,0,4.813,25.18,46.628,46.628,0,0,0,3.437,7.411,50.55,50.55,0,0,1,3.529,7.576c1.336-2.494,2.7-4.927,4.047-7.231-5.177-2.439-8.025-8.775-8.466-18.831a5.323,5.323,0,0,1-1.63-3.572,20.033,20.033,0,0,1,2.092-9.237,90.435,90.435,0,0,1,5.224-23.261,89.559,89.559,0,0,1,26.639-36.953,74.5,74.5,0,0,1,19.7-11.709,60.831,60.831,0,0,1,22.413-4.373c1.5,0,3.027.06,4.527.177A33.568,33.568,0,0,1,198.01,17.9a23.615,23.615,0,0,1,9.669,9.2c3.547,6.191,3.983,14.042,1.2,21.542a25.9,25.9,0,0,1-2.956,5.671c3.684-.934,7.332-1.818,10.725-2.635a282.428,282.428,0,0,1,37.547-6.631,102.327,102.327,0,0,1,31.032,1.569,100.023,100.023,0,0,1,19.733,6.239c4.311,1.108,8.673,2.319,12.965,3.6a216.289,216.289,0,0,1,28.154,10.224A108.888,108.888,0,0,1,371.5,82.321a62.382,62.382,0,0,1,9.174,9.57,77.139,77.139,0,0,1,6.964,10.8,257.3,257.3,0,0,1,21.978,21.863c3.537,4.012,6.822,8.066,9.762,12.05a144.208,144.208,0,0,1,8.489,12.846,164.228,164.228,0,0,1,13.1,28.74,221.109,221.109,0,0,1,8.154,30.826,310.712,310.712,0,0,1,4.331,31.76c.855,9.748,1.389,20.066,1.631,31.544a547.179,547.179,0,0,1-9.666,113.829,138.8,138.8,0,0,1-6.77,24.46,89.87,89.87,0,0,1-12.279,22.171A115.737,115.737,0,0,1,406,453.462a124.605,124.605,0,0,1-24.763,15.2,143.93,143.93,0,0,1-28.586,9.77,135.86,135.86,0,0,1-30.107,3.448,118.644,118.644,0,0,1-29.2-3.56,103.873,103.873,0,0,1-27.346-11.217,8.716,8.716,0,0,1-4.218-10.2,10.773,10.773,0,0,1,3.3-5.253,8.734,8.734,0,0,1,5.757-2.228,9.47,9.47,0,0,1,4.718,1.331,94.372,94.372,0,0,0,23.793,9.524,103.738,103.738,0,0,0,25.25,3.066,115.389,115.389,0,0,0,32.478-4.739,119.82,119.82,0,0,0,30.059-13.525c14.807-9.309,26.474-21.616,33.741-35.59,5.54-10.657,7.93-22.706,10.082-35.145l1.106-6.432a531.1,531.1,0,0,0,7.782-112.42c-.9-21.908-3.181-40.547-6.966-56.984a185.571,185.571,0,0,0-8.5-27.469,139.633,139.633,0,0,0-13.205-25.309,194.253,194.253,0,0,0-18.783-23.708c-6.273-6.837-13.348-13.764-21.629-21.176-.966-.865-2-1.786-3.161-2.815A158.979,158.979,0,0,0,349.7,88.822l-1.27-.549c-4.034-1.719-8.778-3.539-12.69-4.866-6.015-2.041-12.521-4-19.337-5.81-3.079-.82-6.339-1.626-10.259-2.534,1.453,1.332,2.548,2.363,3.553,3.339a117.041,117.041,0,0,1,8.756,9.9c2.051,2.5,4.172,5.094,6.415,7.5a.717.717,0,0,1,.153.8.777.777,0,0,1-.7.468.792.792,0,0,1-.364-.091A148.068,148.068,0,0,0,307.1,90.038c-2.739-1-5.569-2.031-8.295-3.116-5.936-2.363-11.842-5.039-17.553-7.627-1.871-.848-3.8-1.724-5.716-2.579-1.736-.778-3.492-1.614-5.19-2.423L269.737,74c-8.9.091-16.15.31-22.81.689a132.141,132.141,0,0,1,13.089,10.635A121.762,121.762,0,0,1,271.43,97.415a1.035,1.035,0,0,1,.142,1.094.857.857,0,0,1-.788.507,1.077,1.077,0,0,1-.266-.035c-14.958-3.83-29.034-9.472-42.17-14.923l-6.61-2.751c-4.126-.209-7.951-.31-11.7-.31-.97,0-1.943.007-2.894.021l-2.359.04a116.035,116.035,0,0,0-15.269,1.074c-1.382.21-2.512.374-3.556.517a89.843,89.843,0,0,0-20.15,11.035l1.607-.094c1.907-.109,3.834-.164,5.727-.164a90.973,90.973,0,0,1,23.417,2.966,78.459,78.459,0,0,1,25.315,12.056,93.045,93.045,0,0,1,20.1,19.656.451.451,0,0,1,.039.494.642.642,0,0,1-.547.357.456.456,0,0,1-.262-.081,90.041,90.041,0,0,0-11.153-6.489,104.793,104.793,0,0,0-11.836-4.907,144.625,144.625,0,0,0-25.014-6.048,111.862,111.862,0,0,0-17.362-1.392c-2.587,0-5.167.1-7.669.294-2.355.183-4.783.595-7.13.993a59.3,59.3,0,0,1-9.768,1.108,23.139,23.139,0,0,1-3.956-.319c-1.8,2.246-3.615,4.657-5.386,7.168,1.076-.068,1.946-.117,2.735-.154,2-.094,4.006-.142,5.956-.142a102.717,102.717,0,0,1,23.5,2.575,90.859,90.859,0,0,1,26.633,11.3,176.171,176.171,0,0,1,23.244,17.387.276.276,0,0,1,.085.319.368.368,0,0,1-.33.239.3.3,0,0,1-.153-.042,90.952,90.952,0,0,0-25.409-9.609,206.879,206.879,0,0,0-26.993-3.967c-6.382-.587-12.033-.872-17.273-.872-3.481,0-6.868.129-10.065.383-2.407.192-4.84.507-7.192.812-1.719.223-3.493.453-5.244.633-.263.027-.538.039-.8.05l-.227.01c-2.887,5.444-5.646,11.236-8.2,17.214a75,75,0,0,1,19.373-2.684c1.352,0,2.7.044,4.005.132a73.528,73.528,0,0,1,23.176,5.7,100.1,100.1,0,0,1,20.792,11.831.541.541,0,0,1,.172.6.383.383,0,0,1-.363.291.482.482,0,0,1-.17-.033,71.006,71.006,0,0,0-25.526-4.441,115.519,115.519,0,0,0-16.029,1.223,125.178,125.178,0,0,0-19.8,4.2,74.687,74.687,0,0,0-9.559,3.534c-1,.463-1.988.989-2.948,1.5l-.017.009c-.387.205-.787.417-1.182.622-1.063,3.61-2.066,7.425-2.981,11.337a92.542,92.542,0,0,1,17.24,2.681,118.344,118.344,0,0,1,16.592,5.564,184.424,184.424,0,0,1,30.677,16.747.551.551,0,0,1,.2.625.455.455,0,0,1-.424.352.506.506,0,0,1-.178-.035,109.077,109.077,0,0,0-17.735-4.916c-5.43-1.061-11.4-1.9-18.256-2.552-4.111-.394-8.586-.585-13.681-.585-4.458,0-8.985.143-13.363.281h-.046c-1.46.046-2.969.094-4.456.135-.574,4.07-1.03,8.124-1.353,12.047,1.344.377,2.672.778,3.955,1.166l.064.019.938.283a95.992,95.992,0,0,1,15.414,6.173,87.415,87.415,0,0,1,13.776,8.709c3.705,2.821,7.528,6.089,12.4,10.6a.588.588,0,0,1,.119.656.581.581,0,0,1-.518.4.516.516,0,0,1-.194-.04c-9.692-3.917-20.4-6.4-29.67-8.416-5.172-1.125-10.371-2.167-15.455-3.1-.505-.092-1.027-.172-1.518-.245a212.1,212.1,0,0,0,1.614,27.46l.222,1.706a20.031,20.031,0,0,1-.092,6.658,11.179,11.179,0,0,1-2.845,5.589,34.4,34.4,0,0,1,14.4-5.493,40.124,40.124,0,0,1,5.512-.385,37.684,37.684,0,0,1,16.841,3.927,41.011,41.011,0,0,1,13.654,11.018.527.527,0,0,1,.083.576.513.513,0,0,1-.455.3.537.537,0,0,1-.357-.148c-5.3-4.715-12.685-7.312-20.8-7.312a37.216,37.216,0,0,0-11.757,1.905,31.363,31.363,0,0,0-12.749,8.15,32.771,32.771,0,0,0-7.564,13.124,39.283,39.283,0,0,0-1.515,8.1,39.762,39.762,0,0,0,2.057,16.181,38.488,38.488,0,0,0,3.517,7.453,30.5,30.5,0,0,0,5.247,6.478,22.64,22.64,0,0,0,6.99,4.5,19.185,19.185,0,0,0,1.957.653,10.492,10.492,0,0,1,3.613-.626,15.019,15.019,0,0,1,6.135,1.453l.419.2c.812,0,1.625-.017,2.411-.029.972-.015,1.977-.031,2.951-.031.257,0,.507,0,.741,0a4.593,4.593,0,0,1,4,2.257,5.093,5.093,0,0,1,.115,4.963c.539.988,1,2.055,1.44,3.087.326.758.632,1.472.969,2.161,1.518,3.1,3.08,6.114,4.541,8.913a34.975,34.975,0,0,1,5.678,8.113,31.543,31.543,0,0,1,1.548,3.927c1.274,1.918,2.487,3.7,3.706,5.44a171.867,171.867,0,0,0,13.142,16.639c1.778,1.975,3.754,3.847,5.664,5.659l0,0c1.167,1.106,2.374,2.25,3.523,3.405a2.572,2.572,0,0,1,2.1,1.648l.247.861a37.051,37.051,0,0,1,2.754,3.443,5.982,5.982,0,0,1,1.174,3.948,6.072,6.072,0,0,1-1.458,3.408c2.294,14.319,1.4,30.87-2.649,49.191a243.794,243.794,0,0,1-8.4,30.112,60.925,60.925,0,0,1-6.957,14.144,47.129,47.129,0,0,1-6.183,7.473,66.56,66.56,0,0,1-1.518,7.872,47.514,47.514,0,0,1-4.128,10.507,46.239,46.239,0,0,1-6.108,8.7,58.357,58.357,0,0,1-16.737,12.713,100.062,100.062,0,0,1-20.4,7.709,178.462,178.462,0,0,1-21.228,4.193A19.667,19.667,0,0,1,88.01,577.878Zm40.722-196.052A159.375,159.375,0,0,1,134.545,410c1.728,15.459.953,31.393.2,46.8l-.078,1.614a300.217,300.217,0,0,1-5.3,44.064,171.12,171.12,0,0,1-5.407,20.545,141.528,141.528,0,0,1-8.172,19.6c-1,1.959-2.1,3.917-3.348,5.987a54.954,54.954,0,0,0,10.158-4.5c4.628-2.649,8.257-5.785,10.216-8.832a28.752,28.752,0,0,0,3.606-8.338,50.67,50.67,0,0,0,1.43-9.1c.964-12.208,1.547-24.646,2.111-36.675.183-3.912.373-7.952.573-11.946l.181-3.53c.11-2.107.229-4.343.324-6.139,1.236-23.208,2.514-47.2.141-70.512a27.611,27.611,0,0,1-9.93-5.177C130.452,383.253,129.6,382.565,128.732,381.827Zm-27.616-30.668c.872,8.8,1.556,16.144,2.155,23.12,1.318,15.391,2.172,28.849,2.609,41.144.527,14.812.478,28.293-.149,41.216a354.371,354.371,0,0,1-4.5,42.767c-1.029,6.029-2.33,12.429-3.866,19.023l-.494,2.1c-.242,1.011-.464,2.043-.7,3.136v.006a64.321,64.321,0,0,1-2.2,8.365,17.919,17.919,0,0,1-4.3,7.058l.036.941a100.886,100.886,0,0,0,8.66-16.108,132.918,132.918,0,0,0,6.012-18.082,185.381,185.381,0,0,0,3.747-18.621c1.91-12.54,2.82-25.421,3.7-37.879l.011-.155c.421-5.958.807-12.02,1.179-17.881l0-.032c.6-9.44,1.221-19.2,2.006-28.8l.618-7.485c.673-8.267,1.323-17.088,1.237-26.06a34.919,34.919,0,0,1-4.409-8.882,9.75,9.75,0,0,1-.334-1.49,46.213,46.213,0,0,1-11.015-7.4Zm54.076,54.2h0a169.688,169.688,0,0,1,4.759,20.01,259.877,259.877,0,0,1,3.426,32.246l1.014-3.814c2.425-9.062,5.148-18.768,8.629-28.348-4.97-3.48-9.161-8.8-12.86-13.485l-.77-.975C157.977,409.211,156.565,407.315,155.192,405.362ZM79.021,111.623c-1.656,5.346-3.167,10.829-4.629,16.131l-.006.021c-.341,1.236-.693,2.514-1.042,3.77a323.58,323.58,0,0,0-9.108,47.764c-3.577,29.461-4.4,61-2.514,96.4,1.814,34.066,5.923,67.691,9.7,96.09,1.272,9.553,2.606,19.261,3.9,28.649l0,.015c2.279,16.585,4.635,33.734,6.731,50.63.1-2.836.164-5.383.207-7.788.29-16.332-.29-34.129-1.774-54.406-1.323-18.083-3.227-36.43-5.068-54.172-2-19.276-4.068-39.2-5.4-58.867l-.227-3.406c-1.356-20.64-1.588-31.912-1.638-39.426a313.023,313.023,0,0,1,1.978-39.355,245.18,245.18,0,0,1,8.16-39.462l2.231-7.605c1.711-5.8,3.218-10.654,5.011-15.456-.264-.507-.506-1-.721-1.473A87.682,87.682,0,0,1,79.021,111.623ZM50.351,410.466c2.078,9.307,4.227,18.931,6.285,28.409-1.65-12.747-3.428-25.69-5.147-38.208-3.231-23.525-6.573-47.852-9.2-71.842-2.944-26.906-4.652-50.522-5.222-72.2-.46-17.464-.169-34.321.863-50.1a421.017,421.017,0,0,1,6.136-49.714l.364-1.933c2.5-13.182,5.742-28.316,12.587-41.1A130.279,130.279,0,0,1,69.407,94.615a38.013,38.013,0,0,1,6.641-6.476,127.979,127.979,0,0,1,1.659-26.7,96.571,96.571,0,0,1,7.9-25.513A332,332,0,0,0,58.956,75.368c-4,7.032-7.62,14.16-10.766,21.185a221.485,221.485,0,0,0-8.64,22.468c-2.791,8.659-5.241,17.658-7.283,26.747-1.973,8.781-3.621,17.9-4.9,27.108-1.232,8.868-2.156,18.077-2.747,27.37-.568,8.918-.846,18.182-.827,27.533a527.177,527.177,0,0,0,3.179,55.159c1.861,17.24,4.5,35.108,8.079,54.623,4.478,24.435,9.978,49.072,15.3,72.9v.008ZM93.879,280.01c.184,1.994.38,4.022.569,5.982l0,.027.094.975a39.42,39.42,0,0,1,6.886-7.488,9.072,9.072,0,0,1-4.241,1.068,10.577,10.577,0,0,1-2.546-.327c-.078-.02-.159-.042-.261-.074ZM91.711,139.015c-.839,7.014-1.421,14.329-1.727,21.741-.263,6.395-.408,13.356-.446,21.281l-.009,3.045.013-.059a230.969,230.969,0,0,1,14.17-41.9,9.505,9.505,0,0,1-1.553.122,13.217,13.217,0,0,1-1.6-.1,17.149,17.149,0,0,1-6.728-2.587A17.945,17.945,0,0,1,91.711,139.015ZM191.306,55.33c-1.948.88-3.9,1.838-5.782,2.764-2.153,1.058-4.377,2.151-6.609,3.133A187.678,187.678,0,0,0,154.8,73.958a165.031,165.031,0,0,0-22.162,16.114c-.757.669-1.516,1.354-2.25,2.016l-.157.141c-.173,1.686-.281,3.24-.331,4.749-.025.757-.031,1.607-.019,2.675a139.456,139.456,0,0,1,10.286-11.423,122,122,0,0,1,11.446-10.024,112.689,112.689,0,0,1,26.937-15.362c3.2-1.282,6.638-2.513,10.516-3.762A24.459,24.459,0,0,0,191.306,55.33ZM182.915,37.3a32.882,32.882,0,0,0-5.167.437,49.6,49.6,0,0,0-9.668,2.589,57.348,57.348,0,0,0-8.94,4.337,56.77,56.77,0,0,0-9.574,7.118,58.585,58.585,0,0,0-7.9,8.928c2.341-1.321,4.7-2.545,7-3.638l1.63-.77c8.459-3.965,18.475-8.2,28.626-9.549.653-.087,1.327-.181,1.978-.272h.011a67.3,67.3,0,0,1,9.212-.861,27.079,27.079,0,0,1,2.871.145,11.749,11.749,0,0,0-2.058-5.886C190.049,38.7,187.939,37.3,182.915,37.3ZM140.26,324.946a6.249,6.249,0,0,1-3.953-1.445c-2.443-1.975-4.831-4.086-7.14-6.128a130.029,130.029,0,0,0-12.082-9.844,1.191,1.191,0,0,1-.441-1.329.936.936,0,0,1,.934-.681h.05a52.615,52.615,0,0,1,14.382,2.49,39.351,39.351,0,0,1,12.826,6.961,5.451,5.451,0,0,1,1.888,2.751,4.724,4.724,0,0,1-.14,2.854,6.6,6.6,0,0,1-2.425,3.088A6.839,6.839,0,0,1,140.26,324.946Z" transform="translate(-24 28)"/></g></svg>