<svg xmlns="http://www.w3.org/2000/svg" width="579.002" height="567" viewBox="0 0 579.002 567"><g transform="translate(105.002)"><path d="M262.6.163C147.512-4.037,37.54,73.312.513,182.641c-2.69,8.576,5.682,16.587,14.131,15.137C6,241.284,24.886,299.844,74.075,306.016c10.075,1.271,20.2.539,30.292,1.464,8.993.824,57.948,28.364,76.281,34.816,38.6,13.482,135.716,11.013,174.351,0,1.407,3.2,31.412-119.846,38.244-158,2.492-16.529-20.276-28.767-18.6-45.8,2.157-21.88,27.749-48.557,19.909-69.387C373.887,16.1,313.906,1.3,262.6.163Z" transform="translate(35 145)" fill="#d08b5b"/><path d="M481.722,492.829a83.285,83.285,0,0,1-20.808-2.621l-1.122-.3c-7.292-1.963-12.7-4.273-16.518-7.064a33.438,33.438,0,0,1-13.07-8.51,34.093,34.093,0,0,1-5.6-8.6,17.791,17.791,0,0,1-1.747-10.028c-5.05.412-10.592.612-16.94.612l-1.071,0a198.388,198.388,0,0,1-21.984-1.138,120.945,120.945,0,0,1-21.565-4.311,93.931,93.931,0,0,1-19.268-7.933,53.423,53.423,0,0,1-8.624-6,36.618,36.618,0,0,1-6.789-7.677.706.706,0,0,1-.008-.73.759.759,0,0,1,.642-.415.631.631,0,0,1,.206.035c2.274.8,4.527,1.717,6.706,2.605a88.858,88.858,0,0,0,11.125,3.965,125.941,125.941,0,0,0,18.49,3.72,195.645,195.645,0,0,0,20.161.953c5.077,0,10.624-.152,16.957-.464l4.235-.22c13.728-.736,27.055-1.8,39.2-6.659a54.643,54.643,0,0,0,13.418-7.858l.642-.512a63.869,63.869,0,0,1,6.75-4.7c.319-.4.658-.837.99-1.27,1.531-1.964,3.121-3.94,4.66-5.851,3.721-4.623,7.569-9.4,10.9-14.419a76.3,76.3,0,0,0,10.056-21.719,96.44,96.44,0,0,0,3.4-23.751c.385-13.284.516-26.8.644-39.871v-.025c.042-4.35.086-8.847.139-13.27l.077-5.9c.035-2.627.067-5.3.1-7.887V284.9c.2-17.33.417-35.25,1.772-52.8.795-10.379,1.879-19.542,3.315-28.013l.346-1.987,2.54-14.31c.232-1.309.431-2.654.623-3.956.316-2.137.642-4.345,1.126-6.475a28.579,28.579,0,0,0-3.07-4.145c-1.1-1.236-2.228-2.442-3.287-3.571l-.793-.7a25.957,25.957,0,0,1-4.828-5.385l-.353-.55a48.53,48.53,0,0,1-4.351-6.043l-.241-.421-.092-.116c-.292-.367-.59-.742-.9-1.107-1-1.2-2.069-2.373-3.28-3.587a48.356,48.356,0,0,1-7.3,10.58,37.8,37.8,0,0,1-10.289,7.935,5.462,5.462,0,0,1-2.517.627,4.965,4.965,0,0,1-4.828-3.615,76.417,76.417,0,0,0-10.8-22.42,66.8,66.8,0,0,1-15.217,17.5,66.09,66.09,0,0,1-20.431,11.321,4.488,4.488,0,0,1-1.445.244,4.705,4.705,0,0,1-3.682-1.907,5.288,5.288,0,0,1-1.022-4.488,83.381,83.381,0,0,0,1.65-32.522c-5.706,4.078-11.576,7.9-17.445,11.355a246.333,246.333,0,0,1-20.625,14.455,165.067,165.067,0,0,1-22.277,11.727,6.035,6.035,0,0,1-6.926-1.746,4.12,4.12,0,0,1-.419-3.9,74.815,74.815,0,0,0,3.218-11.857l.159-.936c0-.019.006-.038.008-.057v-.007l0-.02c-8.262,11.4-19.859,23.543-34.468,36.1a438.734,438.734,0,0,1-41.322,31.163c-11.988,8.045-24.717,15.844-35.843,21.961-9.165,5.039-16.243,8.375-18.03,8.5l-.182,0a40.372,40.372,0,0,1,9.747,14.574,4.137,4.137,0,0,1-.293,3.937,5.269,5.269,0,0,1-4.36,2.081,5.175,5.175,0,0,1-4.912-3.168l-.077-.19c-3.647-9.368-12.733-16.51-23.148-18.2a29.983,29.983,0,0,0-8.723,3,25.065,25.065,0,0,0-7.1,5.519,23.528,23.528,0,0,0-6.155,14.241,28.357,28.357,0,0,0,3.625,15.149l.776,1.457q.345.644.692,1.288c2.615,4.858,5.318,9.88,6.8,15.276a46.321,46.321,0,0,1,1.149,12.034,56.939,56.939,0,0,0,.62,9.656l.07.381a12.271,12.271,0,0,0,1.412,4.121,3.689,3.689,0,0,0,3.231,1.97,4.925,4.925,0,0,0,1.1-.132c.3-.07.593-.164.861-.256a8.477,8.477,0,0,0,2.973,1.519,13.012,13.012,0,0,0,3.636.483,23.987,23.987,0,0,0,5.5-.735,43.114,43.114,0,0,0,8.235-2.95,6.409,6.409,0,0,1,.492,2.209,12.716,12.716,0,0,1-3.82,9.27c2.144,2.711,4.142,5.622,6.074,8.437,1.476,2.151,3,4.371,4.576,6.483,6,8.028,11.167,14.535,16.27,20.479a231.3,231.3,0,0,0,19.059,19.61c1.314,1.21,2.856,2.435,4.489,3.731,4.115,3.267,8.776,6.967,10.891,11.479a10.592,10.592,0,0,1,4.524,2.747,11.084,11.084,0,0,1,2.776,5.154,90.4,90.4,0,0,1,1.764,16.781,88.526,88.526,0,0,1-.794,16.879,20.1,20.1,0,0,1-4.928,9.745,40.79,40.79,0,0,1-8.521,6.985,4.931,4.931,0,0,1-2.742.831,5.511,5.511,0,0,1-2.568-.661,27.959,27.959,0,0,1-4.82,3.749c-7.022,4.337-15.2,5.735-22.27,6.53a68.067,68.067,0,0,1-20.742,3.259,66.18,66.18,0,0,1-12.118-1.119c-4.013.474-7.588.847-10.93,1.139-10.018.872-20.2,1.314-30.266,1.314a343.836,343.836,0,0,1-81.454-9.724,140.225,140.225,0,0,1-24.349-8.468,173.787,173.787,0,0,1-22.841-12.552,46.2,46.2,0,0,1-8.8-7.485,58.966,58.966,0,0,1-7.3-9.894,75.575,75.575,0,0,1-5.675-11.933,93.38,93.38,0,0,1-3.925-13.6A114.927,114.927,0,0,1,.237,383.443a129.276,129.276,0,0,1,6.428-32.924l1.165-3.474c6.34-18.834,13.557-38.849,23.346-57.616l1.143-2.184c5.375-10.225,9.74-17.862,14.152-24.763a161.87,161.87,0,0,1,17.2-22.683,84.183,84.183,0,0,1,22.369-17.779,63.369,63.369,0,0,1,8.306-3.358l.011,0c.753-.265,1.533-.538,2.3-.815l.075-.916.079-.915c.256-3.109.564-5.983.944-8.785a238.354,238.354,0,0,1,6.528-32.326,243.849,243.849,0,0,1,11-31.254A269.662,269.662,0,0,1,142.41,95.6c.833-1.711,1.59-3.23,2.315-4.644A182.874,182.874,0,0,1,160.22,65.7a133.774,133.774,0,0,1,20-21.823A124.548,124.548,0,0,1,193.7,33.772,144.668,144.668,0,0,1,208.261,25.5a197.855,197.855,0,0,1,31.354-12.1A314.155,314.155,0,0,1,308.634.588C314.545.2,320.416,0,326.084,0c6.565,0,13.079.265,19.36.789a152.834,152.834,0,0,1,15.48,2.12,75.027,75.027,0,0,1,12.066-.952,96.148,96.148,0,0,1,17.477,1.7,136.738,136.738,0,0,1,17.117,4.424,253.273,253.273,0,0,1,51.159,23.2,238.006,238.006,0,0,1,44.641,34.077,149.04,149.04,0,0,1,18.426,21.623,119.563,119.563,0,0,1,13.334,25.027,94.429,94.429,0,0,1,6.04,28.48l.064,1.176a74.335,74.335,0,0,1-.153,10.912,160.845,160.845,0,0,1,2.411,23.326,82.033,82.033,0,0,1-.635,10.821l.15.341c-.619,4.16-1.382,8.466-2.268,12.8l-.217.281c-.084.608-.176,1.216-.266,1.8l-.013.084q-.053.349-.106.7c-.5,2.333-.992,4.468-1.489,6.529-1.087,4.512-2.344,9.222-3.735,14a1.784,1.784,0,0,0,.434,1.876c-1.024,3.674-2.118,7.206-3.251,10.5.652,3.38,1.208,6.219,1.8,9.087,1.125,5.408,2.209,10.919,3.256,16.249l.006.03c2,10.153,4.06,20.649,6.5,30.891,2.4,10.094,5.244,20.309,7.995,30.189l0,.006c2.951,10.6,6,21.548,8.52,32.412a253.746,253.746,0,0,1,5.633,32.934,138.048,138.048,0,0,1,.535,19.264,118.452,118.452,0,0,1-2.391,19.272c-2.859,13.521-8.069,25.318-15.484,35.063a77.568,77.568,0,0,1-24.8,21.18,85.488,85.488,0,0,1-15.022,6.391,91.547,91.547,0,0,1-16.12,3.539A85.416,85.416,0,0,1,481.722,492.829ZM208.01,300.818a5.663,5.663,0,0,1-3.405-1.069,5.915,5.915,0,0,1-2.169-3.45,17.9,17.9,0,0,0-6.595-9.79,18.549,18.549,0,0,0-11.16-3.9,16.324,16.324,0,0,0-2.405.178.685.685,0,0,1-.109.009.6.6,0,0,1-.573-.421.527.527,0,0,1,.251-.609,21.038,21.038,0,0,1,11.553-3.43,23.108,23.108,0,0,1,20.667,13.06,7.222,7.222,0,0,1,.763,3.437,5.686,5.686,0,0,1-.885,2.809A7.127,7.127,0,0,1,208.01,300.818Z" transform="translate(-105 48)"/></g></svg>