<svg xmlns="http://www.w3.org/2000/svg" width="504.001" height="633" viewBox="0 0 504.001 633"><g transform="translate(30.001 66)"><path d="M88.495,20.327c63.014-3.44,118.844-21.145,163.2,18.48,0,0,71.757-53.587,83.73-33.178,8.023,13.676-3.1,32.034-.12,48.91,19.452,33.161,18.352,89.289,19.452,102.442,2.772,33.153,20.232,157.91,20.232,187.536,0,15.122-12.468,54.727-20.232,76.767-17.282,49.056-50.272,74.058-104.373,74.058s-142.4-45.218-170.725-85.365c-2.482-3.518-18.532,6.746-35.32-11.059-18.187-19.29-28.276-56.082-28.276-78.013,0-27.831-17.986-47.131-15.894-82.755C4.842,158.59,21.067,24.008,88.495,20.327Z" transform="translate(31.937 6.193)" fill="#d08b5b"/><path d="M335.425,5.629c8.023,13.676-3.1,32.034-.12,48.91,7.506,12.8,11.952,29.013,14.645,44.86l-14.708,7.806-5.443.8q-132.373,19.516-168.97,35.128Q123.858,158.9,71.093,253.914l-1.068,1.927-6.97,47.272-31.955,9.8-15.042,7.129C15.694,292.672-1.9,273.4.169,238.149,4.842,158.59,21.067,24.008,88.495,20.327c63.014-3.44,118.844-21.145,163.2,18.48Q323.452-14.78,335.425,5.629Z" transform="translate(32 6)" fill="#9fd8e5"/><path d="M304.416,574.437a103.037,103.037,0,0,1-17.444-1.505,95.89,95.89,0,0,1-19.52-4.69,147.35,147.35,0,0,1-14.88-6.33,57.7,57.7,0,0,1-7.25-4.18,80.447,80.447,0,0,1-10.95-8.55c-1.181-1.01-2.244-1.972-3.25-2.939a.7.7,0,0,1-.248-.691.826.826,0,0,1,.608-.589l.18-.021-.214-.194-.007-.007c-.157-.142-.32-.288-.478-.439a.811.811,0,0,1-.13-.14l-.1-.089-.019-.017c-.073-.064-.146-.129-.211-.193a.524.524,0,0,1-.157-.478,1.161,1.161,0,0,1,.5-.8.691.691,0,0,1,.332-.069,1.586,1.586,0,0,1,.159.009l-.015-.014a.773.773,0,0,0-.1-.085c-.043-.033-.048-.12-.04-.191l-.15-.119a.709.709,0,0,1-.255-.693.831.831,0,0,1,.605-.588,1.38,1.38,0,0,1,.389-.047,4.372,4.372,0,0,1,.891.113l.19.044-.34-.32a.785.785,0,0,1-.342-.751.824.824,0,0,1,.672-.528,9.081,9.081,0,0,1,1.637.239l.4.11c.173.043.337.093.511.146l.008,0,.071.022c-.123-.113-.247-.224-.366-.332-.213-.192-.433-.39-.643-.589a.513.513,0,0,1-.129-.445,1.263,1.263,0,0,1,.448-.844.72.72,0,0,1,.353-.079,2.41,2.41,0,0,1,1.227.438,5.862,5.862,0,0,1,2.55.88c1.1,1.057,2.322,2.153,3.73,3.35a5.75,5.75,0,0,1,2.06,1.04c1.3,1.25,2.767,2.538,4.47,3.939l1.163.8c.185.125.385.258.587.389l2.451,1.434c1.285.751,2.741,1.6,4.14,2.426l2.648.9c7,2.37,14.23,4.82,21.431,7.253l1.06.32,7.789.959a69.824,69.824,0,0,0,15.37-.08c.23,0,.46,0,.685,0a52.716,52.716,0,0,0,10.715-1.114,106.55,106.55,0,0,0,18.7-4.89,138.683,138.683,0,0,0,20.18-9.529c2.327-1.3,4.649-2.707,6.9-4.17.7-.5,1.437-1.034,2.19-1.591,4.678-3.511,9.334-7.39,13.84-11.53,2.026-1.86,4.048-3.865,6.01-5.959l.117-.125.021-.022c.235-.253.457-.492.683-.743,1.9-2.074,3.7-4.184,5.35-6.27l1.63-1.839a209.8,209.8,0,0,0,17.69-26.071,164.169,164.169,0,0,0,12.939-28.24c1.114-3.534,2.077-7.1,2.86-10.609a58.533,58.533,0,0,0,2.9-13.209c.146-.853.264-1.72.379-2.558l.011-.084.068-1.387c.011-.269.018-.489.022-.693.211-1.48.375-2.854.5-4.2.085-1.495.131-2.878.14-4.23l-.11-8.65c-.03-.262-.06-.543-.08-.83l-.221-1.909c-.24-1.971-.456-3.974-.664-5.911s-.425-3.946-.665-5.92a.254.254,0,0,0-.01-.081c-.16-1.3-.356-2.85-.59-4.43-.082-.656-.181-1.314-.277-1.951q-.052-.344-.1-.688l-.25-1.539c-.475-2.742-1.05-5.422-1.71-7.965l-.3-1.126-1.741-8.75-1.96-8.61c-1.273-5.783-2.339-11.651-3.17-17.44-1.472-9.046-2.765-18.231-3.95-28.08-.064-.486-.121-.923-.169-1.36-1.127-8.532-1.975-17.353-2.521-26.22-.726-8.593-1.15-17.33-1.259-25.969a1.024,1.024,0,0,1,.56-.891l-.028-1.667a3.575,3.575,0,0,0-.037-.644s-.007.011-.01.023-.007.023-.009.023a5.854,5.854,0,0,1-.021-.789l-.019-4.623c0-.4.006-.654.013-.673-1.677.116-3.273.172-4.879.172-2.427,0-4.655-.124-7.235-.268l-.038,0c-.626-.035-1.271-.071-1.943-.106l-.875-.045a119.406,119.406,0,0,1-14.1-1.52.5.5,0,0,1-.45.46c-.309.013-.61.017-.9.022H380.6l-.467.008.17.649a.572.572,0,0,1-.46.63l-1.334.06c-.62.026-1.436.056-2.246.056a22.992,22.992,0,0,1-3.091-.185,32.219,32.219,0,0,1-4.68-1.021,27.2,27.2,0,0,1-2.911-.66c-1.394-.4-2.806-.885-4.172-1.353l-.008,0c-1.122-.385-2.282-.783-3.43-1.133a20.839,20.839,0,0,0-4.344-.494,15.533,15.533,0,0,0-3.657.424c-.7.166-1.387.366-2.047.56a15.733,15.733,0,0,1-4.459.857,7.963,7.963,0,0,1-1.944-.237,12.851,12.851,0,0,1-1.79-.62l-.545-.038c-.083-.008-.182-.018-.284-.032a20.071,20.071,0,0,1-5.711-2.082,34.324,34.324,0,0,0-3.359-1.478,5.232,5.232,0,0,0-1.235-.152,4.935,4.935,0,0,0-1.908.389l-.257.114-1.01.751c-.383.45-.777.924-1.207,1.449l-.593.73a14.837,14.837,0,0,1-3.659,3.44,9.162,9.162,0,0,1-6.131,2.55c-.085,0-.171,0-.257,0a12.4,12.4,0,0,1-3.793-.672,28.712,28.712,0,0,1-8.474,1.328,23.53,23.53,0,0,1-6.805-.978,22.169,22.169,0,0,1-5.75-1.661,23.436,23.436,0,0,1-2.58-1.36c-2.31.975-4.571,2.179-6.757,3.343l-.007,0h0c-1.131.6-2.3,1.225-3.457,1.805l-.763.383c-3.09,1.539-6.7,3.181-10.428,3.181-.265,0-.53-.008-.789-.025a138.331,138.331,0,0,1-14.63-1.811.58.58,0,0,1-.131-.02l-.666-.112-2.421-.425-1.953-.363-1,.382a76.9,76.9,0,0,1-9.052,2.879,39.02,39.02,0,0,1-9.229,1.211,25.824,25.824,0,0,1-6.572-.813,22.01,22.01,0,0,1-9.769-3.62c-.107-.074-.2-.142-.3-.22a9.219,9.219,0,0,1-1.3-.8l-.084-.066-.077-.066-.04-.02a10.954,10.954,0,0,1-6.47-11.139,12.718,12.718,0,0,1,.04-4.63c-1.355,1.6-2.784,3.241-4.37,5.019-6.517,7.847-11.336,14.042-15.625,20.088l-1.126,1.6c-2.67,3.766-5.2,7.74-7.529,11.809-2.488,4.246-4.86,8.138-7.251,11.9-3.257,3.6-6.414,7.3-9.384,11l-1.285,1.614-4.34,5.71a53.6,53.6,0,0,0-7.63,11.939c-1.689,3.143-3.217,6.309-4.54,9.411-.382.842-.786,1.772-1.27,2.929a96.574,96.574,0,0,0-3.53,11.76,62.476,62.476,0,0,0-1.6,8.87l-.1,1c-.127,1.246-.212,2.4-.26,3.539a3.983,3.983,0,0,1,.71.51l.73.261.59.175c1.239.384,1.982.8,2.149,1.2a.456.456,0,0,1-.02.4l-1.93,3.681c.227.239.277.452.16.671-1.307,2.5-2.639,5.031-3.891,7.41a.527.527,0,0,1-.179.21,34.863,34.863,0,0,1,3.219,1.679,18.77,18.77,0,0,1,4.86,4.21,30.686,30.686,0,0,1,4.081,2.88,30.589,30.589,0,0,1,4.129,5.449,31.735,31.735,0,0,1,2.641,5.83,11.888,11.888,0,0,1,.43,3.31,5.675,5.675,0,0,1-1.675,3.613,4.279,4.279,0,0,1-2.9.978,10.819,10.819,0,0,1-4.4-1.16,5.991,5.991,0,0,1-2.2-1.492,32.041,32.041,0,0,0-2.375-6.624,25.681,25.681,0,0,0-3.965-5.635l-.09-.06c-1.951-.859-3.969-1.747-6.05-2.43-.228.044-.465.078-.694.111l-.04.006-.217.032a.719.719,0,0,1,.136.7.8.8,0,0,1-.686.4,34.192,34.192,0,0,1-6.6.644c-.97,0-1.957-.042-2.932-.124l-4.86-.688a30.8,30.8,0,0,0-5.758,2.947l-.6.4-.111.08a38.841,38.841,0,0,0-10.79,14.24c-.231.512-.438.993-.633,1.473l-.3.747-.02.04a47.956,47.956,0,0,0-.65,19.573,63.988,63.988,0,0,0,6.22,18.687c3.241,5.187,6.645,10.3,10.12,15.21l3.42,4.471c2.048,1.926,4.044,3.894,5.93,5.849.261.262.56.545.94.89a25.594,25.594,0,0,0,3.119,1.76c.436.148.857.276,1.25.381a15.76,15.76,0,0,0,6.431,1.56c.534.035,1.073.053,1.6.053a23.255,23.255,0,0,0,7.041-1.09l.556-.184.41-.149a22.566,22.566,0,0,0,4.27-3.6.989.989,0,0,1,.74-.254,3.012,3.012,0,0,1,.759.114c.413-.425.741-.79,1.031-1.15a.615.615,0,0,1,.458-.2.737.737,0,0,1,.412.131.954.954,0,0,1,.107-.006,4.167,4.167,0,0,1,2.793,1.6.459.459,0,0,1-.051.528,3.692,3.692,0,0,1-.226.318c-.046.059-.1.127-.144.193a12.5,12.5,0,0,1,1.3.76c1.906.529,4.514,2.236,4.911,3.039a.336.336,0,0,1,.039.27l-.031.05a7.143,7.143,0,0,1-1.9,2.3l-.265.2-.59.41c.79.5,1.216.911,1.267,1.231a.374.374,0,0,1-.087.309,6.592,6.592,0,0,1-.53.881c1.517,1.874,3.128,3.888,5.07,6.339a51.088,51.088,0,0,0,6.241,10.19,43.865,43.865,0,0,0,7.47,9.23c.163.164.332.324.5.479l.019.018.215.2c2.042,1.509,4.241,2.978,6.723,4.493l1.007.607.161.095.011.007c.536.31,1.2.7.828,1.388a.769.769,0,0,1-.18.24c1.5.982,3.037,1.895,4.559,2.711l.149.092c.417.266.914.669.918,1.076a.676.676,0,0,1-.367.551.708.708,0,0,1-.4.1c-.848,0-2.288-.961-3.062-1.478l-.069-.046a2.128,2.128,0,0,1-.57-.109c.21.112.423.233.628.35l.267.152.454.248c.055.033,1.335.8,1.288,1.4-.014.182-.155.328-.419.433-.072.006-.144.009-.214.009a2.488,2.488,0,0,1-1.415-.45c-.567-.279-1.152-.589-1.74-.921a.559.559,0,0,1,.107.469.635.635,0,0,1-.408.353c-.045,0-.089,0-.133,0a3.119,3.119,0,0,1-.376-.024c1.157.736,2.347,1.426,3.64,2.109l.2.126c.617.4.944.765.97,1.085a.564.564,0,0,1-.212.47.716.716,0,0,1-.494.163,5.836,5.836,0,0,1-2.41-1.053l-.176-.111-1.461-.87a1.117,1.117,0,0,1-.36.081c.182.112.368.232.531.339.248.161.5.328.769.48l.612.333c.579.32,1.365.807,1.516,1.338a.605.605,0,0,1-.058.478.651.651,0,0,1-.613.322,3.758,3.758,0,0,1-1.7-.646l-.81-.5-.018-.011c-.03-.018-.059-.036-.09-.052l-.032.12a.244.244,0,0,1-.029.06.663.663,0,0,1-.618.338,2.928,2.928,0,0,1-1.35-.49l-.521-.318c-.944-.569-1.795-1.081-2.636-1.6l-1.3-.8h-.02a81.727,81.727,0,0,1-12.61-8.89,76.255,76.255,0,0,1-6.62-6.631c-4.266-4.807-7.423-10.342-10.29-15.6-.046-.083.005-.291.14-.571-.3-.629-.622-1.31-.97-2.081a28.539,28.539,0,0,1-7.564.972c-.707,0-1.422-.024-2.125-.07a25.682,25.682,0,0,1-5.05-.861,36.862,36.862,0,0,1-14.91-6.08c-.168-.108-.326-.223-.478-.335-.1-.071-.206-.151-.312-.224a35.356,35.356,0,0,1-5.22-3.6,86.468,86.468,0,0,1-9.08-8.71c-2.024-2.4-3.948-4.917-5.72-7.47-1.605-2.249-3.25-4.531-4.842-6.737l-.658-.913A66.186,66.186,0,0,1,75.7,427.082a53.759,53.759,0,0,1-.869-10.48,45.267,45.267,0,0,1,.82-7.639l-.162-.157c-.234-.226-.473-.458-.708-.692-.153.269-.275.405-.36.405a.082.082,0,0,1-.059-.026L72.07,406.2a36.9,36.9,0,0,1-4.588-5.5,53.531,53.531,0,0,1-6.85-13.779,48.263,48.263,0,0,1-2.29-11.329c-.1-.623-.2-1.286-.28-1.951A55.244,55.244,0,0,1,58.8,358.3a.82.82,0,0,1,.45-.66c.05-.355.11-.721.167-1.076l.027-.167a44.2,44.2,0,0,1-8.131-11.637,30.422,30.422,0,0,1-2.871-14.032,26.3,26.3,0,0,1,2.042-9.346l.153-.334a16.318,16.318,0,0,1-7.443-3.287A26.967,26.967,0,0,1,37.43,311.5c-.288-.227-.573-.461-.847-.7-5.307-4.532-9.6-11.155-12.774-19.683a46.026,46.026,0,0,1-3.893-13.884c-.028-.244-.049-.49-.069-.729V276.5c-.008-.1-.017-.2-.025-.3a89.1,89.1,0,0,1-1.085-23.017,114.063,114.063,0,0,1-3.255-14.429c-.327-2.123-.588-4.419-.8-7.02l-.021-.129-.03-.421-.085-1.049c-.014-.173-.025-.349-.035-.52a113.164,113.164,0,0,1-.1-15.987,128.743,128.743,0,0,1,2.011-15.776,166.881,166.881,0,0,1,9.114-30.577c.709-1.833,1.428-3.627,2.138-5.33l.779-1.844c5.781-9.323,13.739-17.418,21.434-25.247,2.854-2.9,5.806-5.906,8.564-8.894A3.815,3.815,0,0,0,59.2,121.7a4.315,4.315,0,0,0-3.754-2.641,3.585,3.585,0,0,0-2.653,1.254c-2.664,2.884-5.451,5.77-8.147,8.56l0,.005c-4.108,4.252-8.355,8.648-12.28,13.159-.8.058-1.536.087-2.247.087-.409,0-.813-.01-1.2-.029a27.558,27.558,0,0,1-5.82-.931,29.309,29.309,0,0,1-12.84-5.36,19.591,19.591,0,0,1-6.811-5.141,13.628,13.628,0,0,1-3.248-7.79,11.628,11.628,0,0,1,0-1.778,15.634,15.634,0,0,1,1.17-8.771,15.229,15.229,0,0,1,.82-2.28,14.8,14.8,0,0,1,4.61-5.82l.037-.022.005,0a.628.628,0,0,0,.087-.055l.13-.136c.161-.169.328-.345.51-.5a11.416,11.416,0,0,1,1.08-.869A54.828,54.828,0,0,1,5.032,95.7,28.283,28.283,0,0,1,3,87.552a33.35,33.35,0,0,1-.2-3.339c-.058-.491-.1-.972-.14-1.551a27.3,27.3,0,0,1,1.69-11.77c.072-.183.156-.363.244-.554.046-.1.092-.2.136-.3a23.781,23.781,0,0,1,.97-2.5,23.551,23.551,0,0,1,6.17-8.01,25.649,25.649,0,0,1,4.68-3.721,19.426,19.426,0,0,1,3.37-1.65A18.8,18.8,0,0,1,27.1,51.9l.119,0c.111,0,.22.006.325.011s.216.011.326.011c.263-7.207,1.317-12.83,3.22-17.191a25.229,25.229,0,0,1,2.518-5.274A17.8,17.8,0,0,1,37.373,25.2a16.851,16.851,0,0,1,6.515-4.226l.474-.164.18-.049a17.107,17.107,0,0,1,7.529-1.609h.091c.331-.017.668-.026,1-.026a17.047,17.047,0,0,1,7.929,1.865,17.437,17.437,0,0,1,1.73,1.07,29.258,29.258,0,0,1,1.461-2.6,38.694,38.694,0,0,1,6.96-8.231c.213-.193.444-.377.668-.555.107-.085.227-.18.342-.274a40.773,40.773,0,0,1,4.14-3.29,34.582,34.582,0,0,1,10.1-4.81A33.7,33.7,0,0,1,98.208.2c.378,0,.762.007,1.141.019l.9.038c.189.018.376.028.557.037l.034,0a42.4,42.4,0,0,1,12.68,2.94,38.282,38.282,0,0,1,11.139,7.1,18.351,18.351,0,0,1,2.76-3.06c.2-.176.415-.341.621-.5.112-.087.222-.173.33-.259.218-.219.456-.441.75-.7a24.3,24.3,0,0,1,3.83-2.77,17.25,17.25,0,0,1,4.95-1.929,21.172,21.172,0,0,1,5.49-1.092c.24-.014.491-.022.746-.022.526,0,1.093.03,1.733.093A18.071,18.071,0,0,1,148.6.4a21.954,21.954,0,0,1,11.959,6.789,2.129,2.129,0,0,1,.146.168c.031.038.062.077.094.112a31,31,0,0,1,4.14,3.77l.226-.217.006-.006c.138-.133.28-.271.428-.406.66-.58,1.356-1.135,2.07-1.65a27,27,0,0,1,10.35-5.531l.52-.14a3.009,3.009,0,0,1,.3-.07,26.281,26.281,0,0,1,8.318-1.35h.082c.277-.009.558-.013.836-.013a24.038,24.038,0,0,1,9.214,1.784,28.3,28.3,0,0,1,9.861,7.031,51.122,51.122,0,0,1,5.09,4.9,37.327,37.327,0,0,1,7.94,12.83c.222.621.431,1.291.64,2.049,4.383-.507,8.666-.847,12.73-1.011,3.345-.2,6.609-.305,9.7-.305,1.555,0,3.109.026,4.617.077a132.666,132.666,0,0,1,38.52,7,45.318,45.318,0,0,1,7.27,2.839,52.861,52.861,0,0,1,10.41,5.57l2.786,1.652c1.253.744,2.726,1.628,4.154,2.538A81.644,81.644,0,0,1,320.2,55.7a99.171,99.171,0,0,1,8.7,7.98c.668.683,1.361,1.418,2.179,2.314A74.425,74.425,0,0,1,348.3,79.021a121.916,121.916,0,0,1,28.158-11.888,98.686,98.686,0,0,1,12.92-2.651c1.808-.312,3.751-.587,5.94-.841l-.08.031c1.31-.141,2.645-.268,4.2-.4l-.041-.01.277-.022c.5-.041,1.022-.083,1.533-.117l1.46-.12h.025c.453,0,1.057,1.012,1.1,1.35l.05.37c.2.23.395.473.564.687.1.123.2.248.276.344.266-.021.526-.041.779-.051l.056,0c.621,0,1.322.892,1.785,1.483.109.139.212.27.3.37l.416.489a3.923,3.923,0,0,1,1.024,1.941c.527,4.285,1.008,8.48,1.43,12.469a42.627,42.627,0,0,1-.52,9.36c-.407,3.133-.83,6.3-1.19,8.99-.63,2.069-1.252,4.141-1.854,6.145l-.046.155c-.193.616-.405,1.234-.611,1.831q-.095.275-.189.549a127.642,127.642,0,0,1-5.707,15.389,70.387,70.387,0,0,1,4.561,5.6l.091.094c.3.311.616.631.9.958a.986.986,0,0,1,.36-.34.839.839,0,0,1,.335-.076,1.019,1.019,0,0,1,.795.527,26.852,26.852,0,0,1,6.86,10.529l.885,2.091c.168.4.307.734.436,1.049a73.545,73.545,0,0,1,2.72,9.32,56.262,56.262,0,0,1,1.4,7.553c2.259,7.586,4.013,15.33,5.479,21.993a4.976,4.976,0,0,1-.235,3.056l.941.918,1.61,1.6a51.01,51.01,0,0,1,7.47,8.737,77.1,77.1,0,0,1,4.213,8.107c.358.761.726,1.544,1.1,2.314l.366.751.749,1.5a37.252,37.252,0,0,1,1.915,4.535,39.663,39.663,0,0,1,2.13,10.151,43.888,43.888,0,0,1,.075,7.849,22.269,22.269,0,0,1-1.935,7.58.309.309,0,0,1-.049.1,20.661,20.661,0,0,1-2.632,6.486,17.646,17.646,0,0,1-4.738,5.084,14.814,14.814,0,0,1-2.641,2.01,7.941,7.941,0,0,1-4.164,1.187,10.839,10.839,0,0,1-2.626-.356l-.311-.081c-.349-.09-.614-.155-.859-.21.273.225.4.432.376.611-.019.151-.146.281-.376.388a5.1,5.1,0,0,1-1.59.5.523.523,0,0,1,.137.423.611.611,0,0,1-.346.377,4.213,4.213,0,0,1-1.99.578,3.126,3.126,0,0,1-.55-.049l.168,1.391c.569,4.568,1.108,7.518,1.629,10.371a131.387,131.387,0,0,1,1.883,13.53c.68,11.572,1.773,23.213,3.25,34.6l.513,4.175c1.582,12.726,3.444,26.329,6.327,39.584,1.412,5.62,2.656,11.4,3.7,17.19a69.623,69.623,0,0,1,3.07,13.46,133.789,133.789,0,0,1,1.73,14.1,25.314,25.314,0,0,1,1.68,9.25,89.073,89.073,0,0,1-.44,12.621,81.6,81.6,0,0,1-1.8,12.959,73.92,73.92,0,0,1-4.62,17.042,165.724,165.724,0,0,1-6.44,18.049,176.781,176.781,0,0,1-13.79,25.94,182.533,182.533,0,0,1-16.36,22.381,152.991,152.991,0,0,1-26.64,24.359,129.857,129.857,0,0,1-17.69,11.041,131.785,131.785,0,0,1-23.43,9.779,118.055,118.055,0,0,1-15.57,3.281A95.781,95.781,0,0,1,304.416,574.437ZM121.338,274.063a4.8,4.8,0,0,1,1.944.779,1.1,1.1,0,0,1,.57.716.9.9,0,0,1-.29.7c-.092.1-.182.2-.27.29a10.139,10.139,0,0,1,1.9,1.061c1.658.366,3.82,1.741,4.034,2.4a.236.236,0,0,1-.033.243c-.864.9-1.773,1.89-2.78,3.029.7.492,1.123.926,1.155,1.189a.2.2,0,0,1-.045.162,123.473,123.473,0,0,0-10.8,13.069,96.789,96.789,0,0,0-6.809,10.75,134.887,134.887,0,0,0-7.851,16.29c-.341.909-.645,1.743-.93,2.551a142.011,142.011,0,0,0-4.276,14.176,112.837,112.837,0,0,0-2.574,14.574l-.044.662c-.071,1.291-.127,3.387-.186,5.605v.013c-.1,3.851-.218,8.216-.45,9.649a49.779,49.779,0,0,0,6.9,2.781c.428.124.889.245,1.37.36a7.636,7.636,0,0,1,.8-.281,28.114,28.114,0,0,1,6.85-1.84,29.335,29.335,0,0,1,3.835-.25c.3,0,.6,0,.9.013l.675.026c.652.018,1.336.065,2.091.141-.028-.277-.046-.551-.064-.817-.008-.124-.017-.248-.026-.374a.69.69,0,0,1-.36-.551,66.467,66.467,0,0,1-.031-13.5c.277-2.165.614-4.465,1.031-7.029.357-1.761.792-3.626,1.329-5.7a107.56,107.56,0,0,1,5.13-15.529c6.14-14.815,15.188-28.4,23.17-40.381,2.352-3.534,4.694-7.154,6.958-10.654,3.792-5.863,7.713-11.925,11.792-17.746,6.166-8.8,11.914-16.36,17.571-23.1a233.564,233.564,0,0,1,19.82-21.08c1.094-1.008,2.226-2.016,3.46-3.08a164.87,164.87,0,0,1,21.56-15.77.476.476,0,0,1,.265-.072,1.7,1.7,0,0,1,.975.45l1.222-.751c.243-.148.439-.265.617-.368a.227.227,0,0,1,.122-.036.557.557,0,0,1,.388.286c.429-.223.86-.439,1.277-.648l.283-.142c.219-.177.446-.352.665-.521l.011-.008.008-.006c.154-.118.313-.241.468-.363-5.529-.279-11.195-.7-16.839-1.247-6.207.664-12.275,1.3-18.033,1.9-3.9.449-7.777.839-11.51,1.16-2.851.213-5.42.317-7.853.317a68.826,68.826,0,0,1-9.437-.606,57.184,57.184,0,0,1-6.02-1.17c-1.262.925-2.629,1.845-4.18,2.811l-15.881,12.149a287.553,287.553,0,0,0-30.45,27.03,189.157,189.157,0,0,0-22.054,27.742,166.166,166.166,0,0,0-16.06,31.537,3.313,3.313,0,0,0-1.544,2.433,85.359,85.359,0,0,1-3.729,13.427A87.913,87.913,0,0,0,67.421,325.9a28.873,28.873,0,0,0,.376,12.469,29.878,29.878,0,0,0,5.731,11.083,3.272,3.272,0,0,0,2.646,1.157,4.553,4.553,0,0,0,2.5-.747.681.681,0,0,0,.616.364c.626,0,1.421-.719,1.775-2.737a29.845,29.845,0,0,0,6.061-9.018,3.251,3.251,0,0,0-.051-2.9,3.924,3.924,0,0,0-2.838-1.81c.911-3.279,1.939-6.517,3.056-9.628a133.572,133.572,0,0,1,13.09-26.92,151.925,151.925,0,0,1,16.19-20.421.466.466,0,0,1,.32-.139l1.23-1.361a.534.534,0,0,1,.415-.145,2.029,2.029,0,0,1,.495.074c.152-.16.306-.326.442-.472l.009-.009c.214-.23.435-.468.659-.7a.692.692,0,0,1,.5-.253.642.642,0,0,1,.511.294A.863.863,0,0,1,121.338,274.063ZM257.333,132.281h0a33.081,33.081,0,0,0-3.3,2.091,36.14,36.14,0,0,0-3.9,3.66,37.72,37.72,0,0,0-6.7,10.57,41.511,41.511,0,0,0-1.37,6.421c-.054.449-.117.981-.17,1.52a44.466,44.466,0,0,0,1.253,15.2,56.832,56.832,0,0,0,5.811,14.124l.2,0a94.793,94.793,0,0,1,14.2-6.232,133.069,133.069,0,0,1,12.18-7.29,128.073,128.073,0,0,1,28.01-10.8l1.121-.281c2.231-.57,4.553-1.09,6.9-1.547l1.39-.262h.02l-.15-1.491A44.449,44.449,0,0,0,297.5,130.9l-.02-.011a34.024,34.024,0,0,0-5.293-2.411l-.688-.239-3.18-.72a40.224,40.224,0,0,0-7.879-.79,39.667,39.667,0,0,0-5.8.43c-1.976.289-3.9.635-5.723,1.028a37.45,37.45,0,0,1,10.005,14.072,4.017,4.017,0,0,1-.237,3.9,5.539,5.539,0,0,1-9.406-1.243A24.5,24.5,0,0,0,257.333,132.281Zm-92.367,50.21h0a31.463,31.463,0,0,0,6.012,1.775c.867.162,1.819.306,2.909.439l.13.086c.022.016.045.033.067.051h1.062c1.7.164,3.5.248,5.327.248a98.951,98.951,0,0,0,17.194-1.821c6.209-.624,12.521-1.3,18.626-1.948l.056-.006c4.253-.454,8.652-.923,12.994-1.373l.053,0c.149,0,.227.074.227.213l.65-.06a.828.828,0,0,1,.088,0,1.749,1.749,0,0,1,1.4,1.172.735.735,0,0,1-.158.873,9.653,9.653,0,0,1,1.53,1.21l.239-.021a43.676,43.676,0,0,1-3.37-8.9l-1.02-5.18a47.567,47.567,0,0,1-.471-6.02c-.083-1.111-.12-1.9-.12-2.561,0-.823.013-1.509.04-2.159a62.983,62.983,0,0,0-6.07-2.151l-4.524-.556-.12-.015c-4.226-.52-8.6-1.057-12.9-1.578-3.583.132-7.123.391-10.52.77-3.883.342-7.88.793-11.88,1.34l-.043,0a2.3,2.3,0,0,1-1.387-1.043l-1.689.231a.64.64,0,0,1-.08,0c-.518,0-1.013-.615-1.094-1.143a.728.728,0,0,1,.533-.872c.4-.158.809-.314,1.259-.477l.631-.223-.361.04-.052,0a1.225,1.225,0,0,1-.387-.081l-.3.038h-.007c-.814.1-1.655.212-2.474.309a1.216,1.216,0,0,1-.149.01.572.572,0,0,1-.621-.464,1.272,1.272,0,0,1,.687-1.3l.393-.146a1.818,1.818,0,0,1-.862-1.421.657.657,0,0,1,.417-.575l.114-.043c.254-.1.506-.192.75-.28.146-.053.293-.105.441-.161a.609.609,0,0,1,.01-.359l-1.651.209c-.012,0-.017,0-.019-.011a3.347,3.347,0,0,1,.93-1.23l.059-.029.79-.24a3.119,3.119,0,0,1,.98-1.159c2.782-.874,5.519-1.712,8.42-2.361a.909.909,0,0,1,.48-.34c1.606-.383,3.347-.72,5.32-1.029.14-.212.258-.311.38-.321a68.731,68.731,0,0,1,8.623-.546c1.539,0,3.1.053,4.647.158.92.086,1.754.177,2.55.279,1.778.2,3.375.433,4.88.721a66.971,66.971,0,0,1,11.881,3.183l.889.336c1.06.394,2,.771,2.88,1.151a40.363,40.363,0,0,1,1.79-5.04c.1-.3.216-.6.36-.94l-.97-.581a1,1,0,0,1-.745.588.332.332,0,0,1-.175-.047,118.863,118.863,0,0,0-22.05-11.721,113.546,113.546,0,0,0-13.33-4.91c-2.012-.646-4.192-1.288-6.86-2.019-1.278-.268-2.345-.488-3.47-.681a100.371,100.371,0,0,0-18.32-3.149c-4.488-.424-9.167-.639-13.907-.639-4.621,0-9.47.2-14.413.608-6.107.6-12.3,1.459-18.4,2.54a95.292,95.292,0,0,0-12.16,2.951l2.277,4.6a248.522,248.522,0,0,0,12.293,22.525,109.115,109.115,0,0,0,7.74,10.69,53.671,53.671,0,0,0,6.25,6.781c.52.633,1.12,1.3,1.89,2.09a36.368,36.368,0,0,0,6.77,4.63,46.549,46.549,0,0,0,6.154,3.777l.805.4,7.5,2.879c.365.1.79.223,1.211.334l.61.157,1.139.239.856-.464c.155-.083.3-.157.435-.226a.273.273,0,0,1,.13-.035c.162,0,.285.174.33.335a.411.411,0,0,1-.06.27l1.093-.59Zm224.929-23.225a.353.353,0,0,1,.208.066l.678.469a52.579,52.579,0,0,1,15.557,7.041l-.086-.626c-.015-.105-.031-.21-.049-.312.08-1.226.1-2.464.059-3.681-.94-6.918-3.17-13.226-6.23-20.57a.6.6,0,0,1,.066-.471,65.956,65.956,0,0,0-4.663-6.676c-.91,1.574-1.779,2.989-2.652,4.326A101.123,101.123,0,0,1,376.7,157.9h.134c1.635,0,3.2.069,4.647.205a56.189,56.189,0,0,1,7.99,1.342A.723.723,0,0,1,389.895,159.266Zm-52.987-2.075a137.678,137.678,0,0,1,16.125.95A93.106,93.106,0,0,0,362.082,152c.831-.643,1.685-1.326,2.61-2.091a100.42,100.42,0,0,0,13.971-14.94,99.327,99.327,0,0,0,9.959-16.089,103.147,103.147,0,0,0,6.08-16.531,79.1,79.1,0,0,0,2.27-15.67c.127-.931.208-1.857.27-2.64l-.008-.377-.012-.183c-.105-1.99-.312-3.978-.5-5.66a59.579,59.579,0,0,0-6.22,1.48,50.473,50.473,0,0,0-11.24,3.05c-4.371,1.551-8.889,3.4-14.649,6.011a120.852,120.852,0,0,0-26.131,16.061c-.523.4-1.035.818-1.487,1.188-1.932,1.672-3.626,3.268-5.183,4.881l-1.829,1.985-.025.027c-1.1,1.191-2.233,2.423-3.346,3.638-.781.818-1.62,1.621-2.431,2.4a44.776,44.776,0,0,0-4.049,4.231,12.35,12.35,0,0,0-1.04,1.571l1.13.389a1.091,1.091,0,0,1,.622,1.233c-.05.306-.232.633-.592.633a.677.677,0,0,1-.18-.026,9.474,9.474,0,0,1-.921-.319,1.107,1.107,0,0,1,.24.489,1.036,1.036,0,0,1-.239.77.625.625,0,0,1-.474.229.674.674,0,0,1-.186-.027,6.578,6.578,0,0,1-.81-.281,3.7,3.7,0,0,0-.139.92.76.76,0,0,0,.159.051,4.205,4.205,0,0,1,2.08,1.96.815.815,0,0,1-.146.7.715.715,0,0,1-.566.286.76.76,0,0,1-.2-.027,7.74,7.74,0,0,1-1.29-.5,1.467,1.467,0,0,1,.52.811,1.052,1.052,0,0,1-.27.75.659.659,0,0,1-.481.232.61.61,0,0,1-.159-.022,6.919,6.919,0,0,1-2.52-1.25.854.854,0,0,1-.57.381.3.3,0,0,1-.08-.011l-.39-.121c.108.1.206.206.3.307l.14.152a48.868,48.868,0,0,1,7.1,9.832,2.676,2.676,0,0,1,.34-.3c.8-.677,1.7-1.4,2.759-2.218l.282-.246.289-.246-2.091.69.047-.054c.034-.043.083-.109.143-.188a10.209,10.209,0,0,1,.679-.842l.052-.047a46.714,46.714,0,0,1,9.38-6.529,42.064,42.064,0,0,1,6.9-3.611,142.027,142.027,0,0,1,17.629-6.579c.354-.114.714-.233,1.062-.349l.009,0c.507-.168,1.081-.358,1.629-.529a.5.5,0,0,1,.155-.032.122.122,0,0,1,.1.04.232.232,0,0,1,.014.192l.471-.14a.71.71,0,0,1,.217-.033,1.984,1.984,0,0,1,1.5,1.116.745.745,0,0,1-.02.818c.315.257.653.563.977.885l.213.215.239-.07a.672.672,0,0,1,.2-.028c.549,0,1.386.576,2.488,1.711l.565.6c.248.266.829.888.718,1.347a.665.665,0,0,1-.478.434l-1.29.439c.045.292-.1.493-.47.63-.468.156-.932.325-1.33.471.258.226.515.462.787.72l.383.369.068.069c.361.366.964.978.882,1.446a.589.589,0,0,1-.371.416l-.119.049-1.23.44a.661.661,0,0,1,.045.53.745.745,0,0,1-.464.37,197.636,197.636,0,0,0-21.04,8.551,65.625,65.625,0,0,1-16.26,6.349.468.468,0,0,1-.143.021,2.759,2.759,0,0,1-1.767-1.29l-.852.251c-.156.045-.3.084-.427.118l-.141.031a44.063,44.063,0,0,1,2.3,8.929c.048.262.089.546.12.822,1.24-.1,2.337-.177,3.35-.23C332.067,157.256,334.5,157.191,336.908,157.191Zm-13.456-12.4c-.274.1-.5.169-.71.23.132.291.255.575.4.92l.015-.006.944-.744A3.354,3.354,0,0,1,323.452,144.792ZM146.949,435.9a3.537,3.537,0,0,1-1.867-.657c-.577-.372-1.17-.743-1.813-1.136l-.917-.553-.018.006a.115.115,0,0,0,.018-.016,126.2,126.2,0,0,0-28.669-12.92c-.059-.021-.077-.1-.054-.227a16.519,16.519,0,0,1,2.432-4.143c1.473-2,2.717-3.188,3.329-3.188a.421.421,0,0,1,.123.017c-.078-.031-.113-.064-.107-.1.049-.308,3.283-.7,3.438-.711.211,0,9.453,3.47,14.053,5.709l.227.112a75.169,75.169,0,0,1,11.74,7.277l.92.653c.152.11.65.5.65.92a21.228,21.228,0,0,1-.746,6.016C149.078,434.909,148.157,435.9,146.949,435.9ZM395.33,63.642v0a8.412,8.412,0,0,1,2.821-.619,3.007,3.007,0,0,1,1.251.241C398.125,63.357,396.793,63.48,395.33,63.642Z" transform="translate(-30 -66)"/></g></svg>