<svg xmlns="http://www.w3.org/2000/svg" width="474" height="567" viewBox="0 0 474 567"><path d="M346.458,167.231c-1.143-21.883-2.146-44.494-6.342-66.042A66.555,66.555,0,0,0,327.29,72.395c-6.088-7.759-13.75-13.777-21.522-19.754-15.62-12.013-30.639-25.313-48.123-34.605A156.26,156.26,0,0,0,203.936,1.321,167.868,167.868,0,0,0,98.284,23c-30.49,18.032-55,46.015-70.168,77.918a195.464,195.464,0,0,0-16.25,49.889c-3.635,20.626-3.306,41.31-3.175,62.167.045,7.01-.018,14.016-.367,21.009A62.45,62.45,0,0,0,7.445,244.5c-6.9,9.081-9.709,21.218-5.384,32.4,6.9,17.838,26.474,25.95,44.246,22.838a45.723,45.723,0,0,0,5.1,13.653A252.318,252.318,0,0,0,64.891,335.57a194.057,194.057,0,0,0,35.087,39.7c27.037,22.894,61.287,37.895,96.806,40.066,32.337,1.976,66.441-7.22,92.812-26.189a125.434,125.434,0,0,0,34.333-36.358c10.281-16.878,15.86-36.308,18.755-55.731,6.354-42.641,6.015-86.873,3.774-129.83Z" transform="translate(66 83.001)" fill="#d08b5b"/><path d="M282.185,504.646a112.6,112.6,0,0,1-30.282-4.059c-19.465-5.435-33.492-13.8-41.691-24.867a8.387,8.387,0,0,1-1.3-6.369,10.89,10.89,0,0,1,2.882-5.9,9.634,9.634,0,0,1,6.96-2.849,12.276,12.276,0,0,1,5.309,1.267c3.4,1.649,6.7,3.614,9.882,5.515a116.627,116.627,0,0,0,11.288,6.179,92.334,92.334,0,0,0,21.036,6.347,94.649,94.649,0,0,0,17.745,1.645,100.888,100.888,0,0,0,26.074-3.411,106.266,106.266,0,0,0,18.61-6.915,108.973,108.973,0,0,0,31.831-23.283,107.079,107.079,0,0,0,12.243-15.631,136.267,136.267,0,0,0,10.8-20.6A167.887,167.887,0,0,0,391,389.848a224.217,224.217,0,0,0,4.762-22.7c1.138-7.122,2.059-14.676,2.816-23.093a489.634,489.634,0,0,0-1.308-101.7c-1.813-15.166-4.66-31.414-8.7-49.673-1.7-7.7-3.584-15.486-5.4-23.02l0-.009c-.942-3.9-1.915-7.938-2.855-11.919-2.52-2.4-4.951-4.888-7.225-7.382l-.071-.005a5.571,5.571,0,0,1-.928.153c-2.676.2-5.3.308-7.807.308a73.041,73.041,0,0,1-17.057-1.87,47.875,47.875,0,0,1-15.65-6.721,43.228,43.228,0,0,1-6.585-5.461,40.393,40.393,0,0,1-5.256-6.569,42.623,42.623,0,0,1-10.976-10.9c-2-2.192-3.964-4.562-5.845-7.044-4.5-5.942-6.983-12.286-9.611-19l-.183-.467a2.776,2.776,0,0,1-.139-.474,8.313,8.313,0,0,1-1.077-2.75c-5.832-.692-12.01-1.2-18.363-1.5-1.947-.092-4.067-.175-6.481-.253a29.012,29.012,0,0,1,.985,6.556,47.3,47.3,0,0,1,5.348.572,25.948,25.948,0,0,1,10.867,4.236,36.486,36.486,0,0,1,8.35,8.358,92.91,92.91,0,0,1,12.071,22.508,9.92,9.92,0,0,1-.121,7.209,13.9,13.9,0,0,1-4.514,5.932,103.182,103.182,0,0,0-15.468,2.454,80.555,80.555,0,0,0-14.844,5.123,1.6,1.6,0,0,0-.745.756c-8.269,2.463-15.835,4.476-23.131,6.152a58.487,58.487,0,0,1-13.11,1.659,37.889,37.889,0,0,1-9.381-1.124,61.112,61.112,0,0,1-9.478-3.367,7.891,7.891,0,0,1-.949.058,8.7,8.7,0,0,1-4.355-1.226c-2.83-1.62-5.631-3.37-8.325-5.2a141.7,141.7,0,0,1-14.215-7.7l-.024-.035a52.135,52.135,0,0,0-6.514-6.544,57.956,57.956,0,0,0-8.145-5.786,18.327,18.327,0,0,1-1.665-3.122,16.893,16.893,0,0,1-1.008-9.534,13.444,13.444,0,0,1,4.83-8.108,5.435,5.435,0,0,1,2.1-4c1.08-.88,2.227-1.743,3.407-2.567-.1-.075-.205-.151-.3-.218-.144-.105-.292-.213-.436-.323-.429-.324-.884-.7-1.391-1.156-3.168,1.736-6.92,3.748-10.718,5.507l-.086.064-.006,0c-.059.045-.12.091-.184.132-3.051,2-6.078,4.173-9.006,6.273-3.637,2.608-7.395,5.3-11.229,7.7-1.184.739-2.381,1.472-3.538,2.182l-.039.024-1.371.841c-.655.894-1.243,1.73-1.8,2.557a25.4,25.4,0,0,1-1.093,3.963,7.448,7.448,0,0,1,2.144,2.8,31.567,31.567,0,0,1,6.066,3.1l1.675.743a43.628,43.628,0,0,1,6.872-4.583,27.724,27.724,0,0,1,11.585,3.846,52.374,52.374,0,0,1,10.2,7.628c.464.525.842.968,1.188,1.395.273.222.551.455.82.682l.291.244c.595.64,1.161,1.285,1.682,1.916a3.541,3.541,0,0,0,1.9,1.252,50.912,50.912,0,0,1,9.2,11.043c3.684,6.308,1.085,14.167-1.59,20.309-.433.993-.9,2-1.389,2.981-5.184,6.984-10.118,14.2-14.89,21.171-3.667,3.545-6.714,6.549-9.661,9.687a16.692,16.692,0,0,1-1.638.974,16.336,16.336,0,0,1-7.648,1.85c-4.956,0-9.891-2.046-14.663-4.024-1.375-.57-2.8-1.159-4.191-1.688l-.966-.357c-1.1-.4-2.261-.788-3.381-1.164-4.045-1.36-8.228-2.765-11.45-5.1a13.185,13.185,0,0,1-5.736-10.681,33.526,33.526,0,0,1,.141-4.838A176.492,176.492,0,0,1,121.9,170.7a11,11,0,0,1-1.5-2.043,17.134,17.134,0,0,1-2.233-3.68c-.766,1.467-1.536,2.975-2.281,4.432-3.334,6.527-6.782,13.277-11.12,18.949a13.209,13.209,0,0,1-4.859,4.035,13.009,13.009,0,0,1-5.563,1.17h-.038a9.146,9.146,0,0,1-4.1.961,9.621,9.621,0,0,1-1.124-.066l.186,2.121c.134,1.468.327,3.394.623,5.27l.319,0a29.869,29.869,0,0,1,10.834,2.35c7.17,2.835,14.247,6.479,21.091,10l.006,0c2.92,1.5,5.94,3.058,8.906,4.518,1.367.672,2.858,1.3,4.436,1.972,3.941,1.669,8.012,3.394,10.794,6.011,3.143,2.958,2.527,6.675,1.511,9.921-.128.4-.264.811-.4,1.2l0,.011q-.106.315-.21.63l-.013.2a42.669,42.669,0,0,0-6.954,13.752,54.453,54.453,0,0,0-5.623,14.178,90.647,90.647,0,0,0-2.166,11.993l-.12,1.105-.066.13-.034.956a122.814,122.814,0,0,0,.016,21.424c.177,2.1.383,4.028.629,5.906a4.131,4.131,0,0,1-1.965,2.346,6.383,6.383,0,0,1-3.138.768,6.667,6.667,0,0,1-4.041-1.282,87.192,87.192,0,0,0-9.478-6.422,19.681,19.681,0,0,1-8.213,1.782,20.4,20.4,0,0,1-6.474-1.064c-.278-.092-.547-.2-.808-.305l-.234-.094a70.538,70.538,0,0,0-11.037,2.379l-1.068.316c-5.392,1.623-10.985,3.737-15.368,8.187a31.168,31.168,0,0,0-7.677,14.283,41.41,41.41,0,0,0-1.212,8.225,41.83,41.83,0,0,0,.395,8.1,38.046,38.046,0,0,0,5.59,15.052,25.824,25.824,0,0,0,5.34,5.974,19.707,19.707,0,0,0,7.079,3.677,22.5,22.5,0,0,0,6.025.838,19.36,19.36,0,0,0,7.222-1.354,18.832,18.832,0,0,0,4.333-2.588c.461-.347.9-.71,1.323-1.061a13.587,13.587,0,0,1,3.624-2.392,17.052,17.052,0,0,1,5.236-.693c.234-.005.418-.009.555-.016.08,0,.161-.006.242-.006a5.448,5.448,0,0,1,3.513,1.345,6.985,6.985,0,0,1,2.121,3.134,12.615,12.615,0,0,1-.437,9.78,17.444,17.444,0,0,1-6.744,6.919c1.042,1.577,2.068,3.2,3.061,4.773,1.385,2.192,2.815,4.457,4.261,6.545,4.274,6.175,9.041,12.554,14.574,19.5a181.834,181.834,0,0,0,16.776,18.5c2.733,2.608,5.569,5.141,8.428,7.529l1.6,1.322a18.208,18.208,0,0,1,3.53,3.611,8.046,8.046,0,0,1,1.436,4.871,5.111,5.111,0,0,1-3.681,4.837,8.08,8.08,0,0,1-2.11.278c-6.059,0-12.165-6.549-16.624-11.331l0,0c-.693-.743-1.347-1.445-1.956-2.073l-.392-.4A176.206,176.206,0,0,1,119.7,422.285,115.8,115.8,0,0,1,106.715,399.1a107.162,107.162,0,0,1-4.586-12.486,46.9,46.9,0,0,1-16.308,3.079,29.868,29.868,0,0,1-3.382-.18,39.294,39.294,0,0,1-13.378-4.01,18.056,18.056,0,0,1-3.278,4.991c-4.219,4.477-10.566,6.746-18.866,6.747l-.428,0a19.068,19.068,0,0,1-11.97-4.112,14.844,14.844,0,0,1-3.863-4.809,15.391,15.391,0,0,1-1.593-6.432,16.785,16.785,0,0,1,2.012-8.56,21,21,0,0,1,5.7-6.626,16.123,16.123,0,0,1,3.779-5.68,13.139,13.139,0,0,1,6.068-3.317,57.129,57.129,0,0,1-1.347-30.52A48.488,48.488,0,0,1,51.023,313.2a41.016,41.016,0,0,1,9.96-11.223l.454-.343-.192.1c-1.2.659-2.393,1.362-3.55,2.043l-.008,0c-.659.387-1.34.788-2.022,1.18l-.837.477a65.652,65.652,0,0,1-10.306,4.855,32.747,32.747,0,0,1-11.063,2.1,24.342,24.342,0,0,1-6.108-.767,18.362,18.362,0,0,1-4.933-2.054,15.819,15.819,0,0,1-3.7-3.1,15.511,15.511,0,0,1-3.687-8.192,16.641,16.641,0,0,1,1.569-9.534,17.944,17.944,0,0,1,7.3-7.67c4.629-2.649,9.935-3.6,14.979-4.231a13.633,13.633,0,0,1,2.868-2.794,12.013,12.013,0,0,1,5.039-9.205,10.766,10.766,0,0,1,6.32-2.026,12.694,12.694,0,0,1,3.751.59,19.665,19.665,0,0,1,4.059-2.38,20.681,20.681,0,0,1,3.884-1.234c-.016-.734-.026-1.48-.037-2.2v-.02l0-.112q-.006-.4-.012-.8c-.208-.97-.332-1.978-.464-3.045l0-.015-.077-.013c-.2-.033-.419-.07-.627-.115a22.9,22.9,0,0,1-9.108-4.307,17.652,17.652,0,0,1-9.559,2.807,21.254,21.254,0,0,1-6.017-.918,20.021,20.021,0,0,1-8.016-4.9,25.833,25.833,0,0,1-5.729-8.2,28.421,28.421,0,0,1-10.283-3.818,14.258,14.258,0,0,1-3.293.39,12.33,12.33,0,0,1-6.517-1.782,10.981,10.981,0,0,1-4.437-5.389,9.967,9.967,0,0,1-.01-6.857,11.756,11.756,0,0,1,4.057-5.6,2.614,2.614,0,0,1,1.573-.545,2.9,2.9,0,0,1,1.6.514,17.11,17.11,0,0,1,.792-2.115c.131-.288.272-.565.405-.822a18.819,18.819,0,0,1,1.6-8.316,14.021,14.021,0,0,1,5.675-6.288,15.063,15.063,0,0,1,7.667-2.048,17.088,17.088,0,0,1,5.177.814,19.922,19.922,0,0,1,8.913-4.722,19.04,19.04,0,0,1,4.589-.565,18.26,18.26,0,0,1,7.115,1.424,17.8,17.8,0,0,1,6.045,4.18,19.5,19.5,0,0,1,3.061-.629,12.822,12.822,0,0,1,3.2-7.285,15.45,15.45,0,0,1,4.783-3.407,17.674,17.674,0,0,1,4.358-8.047,18.042,18.042,0,0,1-2.915-3.1,19.53,19.53,0,0,1-2.765-.647A18.4,18.4,0,0,1,55.111,164.9a17.157,17.157,0,0,1-4.246.551,16.225,16.225,0,0,1-8.718-2.6,16.815,16.815,0,0,1-6.773-8.661L31.8,152.932a13.405,13.405,0,0,1-4.329-2.487,12.124,12.124,0,0,1-2.837-3.58,6.588,6.588,0,0,1-2.225.409,4.856,4.856,0,0,1-3.039-1.017c-3.615-2.79-5.128-6.543-4.262-10.567A13.454,13.454,0,0,1,18.983,129a15.838,15.838,0,0,1,7.336-4.019,17.128,17.128,0,0,1,3.941-.476,15.8,15.8,0,0,1,6.706,1.519,17.383,17.383,0,0,1,8.193-4.469,15.4,15.4,0,0,1,3.406-.377,17.9,17.9,0,0,1,7.657,1.791l.886-.013a14.883,14.883,0,0,1,9.062-2.975,19.106,19.106,0,0,1,4.243.5,20.974,20.974,0,0,1,7.811,3.5,21.258,21.258,0,0,1,5.336,5.8,15.944,15.944,0,0,1,3.056-2.157,14.86,14.86,0,0,1,7.18-1.832,16.034,16.034,0,0,1,2.625.22c1.138-1.621,2.271-3.168,3.366-4.6a12.55,12.55,0,0,1-3.347-3.995,11.615,11.615,0,0,1-1.366-5.153c-.668-.416-1.32-.878-1.949-1.325l-.448-.317c-4.362-3.072-7.1-6.478-8.382-10.412a19.815,19.815,0,0,1-.9-6.86c-.382-.084-.793-.178-1.205-.3A22.014,22.014,0,0,1,71.864,86.5a24.808,24.808,0,0,1-5.559-10.681,23.2,23.2,0,0,1,.018-11.177,20.523,20.523,0,0,1,5.91-9.944,12.425,12.425,0,0,1,8.787-3.334c4.429,0,9.694,1.9,14.444,5.222A49.459,49.459,0,0,1,106.69,67.872c.068.014.138.024.2.033.081.012.165.024.251.045a17.073,17.073,0,0,1,6.214,2.908,21.934,21.934,0,0,1,4.785,4.93,19.354,19.354,0,0,1,3.305-.288,18.37,18.37,0,0,1,5.663.889,19.333,19.333,0,0,1,5.465,2.816,17.454,17.454,0,0,1,6.474,8.684,127.946,127.946,0,0,1,13.261-5.954c.268-.643.593-1.4.966-2.136a13.262,13.262,0,0,1,2.666-3.586,20.628,20.628,0,0,1-2.992-4.328,19.471,19.471,0,0,1-2.168-11.214,20.538,20.538,0,0,1,3.986-9.881,21.329,21.329,0,0,1-1.348-13.621,19.6,19.6,0,0,1,.773-2.45,30.357,30.357,0,0,1-4.721-13.629,19.878,19.878,0,0,1,1.012-8.354A19.361,19.361,0,0,1,154.5,6a17.968,17.968,0,0,1,13.134-6,16.3,16.3,0,0,1,5.081.814,15.314,15.314,0,0,1,6.142,2.1,12.974,12.974,0,0,1,3.3,2.82,10.7,10.7,0,0,1,1.862,3.323,11.475,11.475,0,0,1,.031,7.123,15.6,15.6,0,0,1,5.558,7.665,14.084,14.084,0,0,1-.047,9.111,15.5,15.5,0,0,1,7.137,10.687,16.171,16.171,0,0,1-.33,6.291,16.425,16.425,0,0,1,7.169,4.593,11.65,11.65,0,0,1,2.921,8c1.941.124,3.773.185,5.6.185,1.421,0,2.838-.039,4.212-.115a14.978,14.978,0,0,1,1.91-3.83,14.717,14.717,0,0,1,6.926-5.1l.374-.137-.006-.732a7.706,7.706,0,0,1-2.039-3.883,6.079,6.079,0,0,1,1.2-4.532A6.012,6.012,0,0,1,226,43a31.154,31.154,0,0,1,.849-4.089,6.434,6.434,0,0,1-.965-5.32,4.133,4.133,0,0,1,2.415-2.79,22.36,22.36,0,0,1,.009-7.724,19.979,19.979,0,0,1,2.776-7.163,21.682,21.682,0,0,1,5.074-5.576A23.3,23.3,0,0,1,250.383,5.43c.286,0,.574.005.855.016a18.693,18.693,0,0,1,3.893.572,35.579,35.579,0,0,1,7.725,1.716,4.292,4.292,0,0,1,3.043,5.52,17.735,17.735,0,0,1,3.55,9.093,15.879,15.879,0,0,1-.367,5A16.858,16.858,0,0,1,267,32.322c-.127.206-.267.406-.4.6l-.084.12a6.928,6.928,0,0,1,2.025,2.428,7.4,7.4,0,0,1,.732,4.164,6.777,6.777,0,0,1-1.742,3.844,5.055,5.055,0,0,1-1.966,1.282l-.013.212A44.308,44.308,0,0,1,263.7,55.152a24.3,24.3,0,0,1,5.161,6.821,22.284,22.284,0,0,1,2.366,8.194c1.693.158,3.335.339,4.718.5a6.359,6.359,0,0,1,2.641-4.1,17.379,17.379,0,0,1,3.844-2.207,16.656,16.656,0,0,1,4.865-8.989,19.762,19.762,0,0,1,3.2-2.461,19.9,19.9,0,0,1,2.721-10.56,15.539,15.539,0,0,1,6.8-6.169c2.094-4.21,5.93-7.378,11.092-9.164a9.29,9.29,0,0,1,3.043-.506,13.093,13.093,0,0,1,8.308,3.37l.684.6a9.669,9.669,0,0,1,2.836,4.886,10.917,10.917,0,0,1-.048,5.662,16.546,16.546,0,0,1-2.479,5.147,11.88,11.88,0,0,1-.625,7.424,12.288,12.288,0,0,1-4.41,5.235,32.607,32.607,0,0,1,3.313,6.088,8.878,8.878,0,0,1,.139,6.041,13.67,13.67,0,0,1-3.211,5.439,16.657,16.657,0,0,1,2.375,6.7,17.8,17.8,0,0,1,3.811.66,13.249,13.249,0,0,1,3.922-6.215,24.834,24.834,0,0,1,3.02-4.6,12.931,12.931,0,0,1,6.671-4.338,8.679,8.679,0,0,1,1.421-2.263,14.327,14.327,0,0,1,3.528-10.777,10.875,10.875,0,0,1,3.394-2.527,9.981,9.981,0,0,1,4.268-.946,38.1,38.1,0,0,1,1.861-4.836,10.434,10.434,0,0,1,7.851-5.583,13.984,13.984,0,0,1,4.457-5.976,15.107,15.107,0,0,1,7.936-2.834c.5-.044,1.005-.066,1.5-.066,5.491,0,10.585,2.731,14.344,7.69A26.727,26.727,0,0,1,393.778,51a23.659,23.659,0,0,1-.195,11.263,17.13,17.13,0,0,1-2.6,5.356,16.381,16.381,0,0,1-4.3,4.113,13.709,13.709,0,0,1-2.634,1.309,11.571,11.571,0,0,1-3.616,3.237,10.64,10.64,0,0,1-1.05.538,12.071,12.071,0,0,1-2.558,7.521,12.606,12.606,0,0,1-6.262,4.339A12.417,12.417,0,0,1,367.214,98.7l-.194.188-.4.357-.032.158a8.465,8.465,0,0,1-.527,7.556,21.641,21.641,0,0,0,1.2,6.081,46,46,0,0,1,7.235,7.439A5.681,5.681,0,0,1,378.249,119a4.746,4.746,0,0,1,1.687.3,7.1,7.1,0,0,1,1.56-.34,13.443,13.443,0,0,1,1.352-.067c.37,0,.757.015,1.149.044a10.818,10.818,0,0,1,1.306-1.56,9.422,9.422,0,0,1,6.768-2.73,12.345,12.345,0,0,1,5.768,1.5,12.22,12.22,0,0,1,2.443-1.373,10.26,10.26,0,0,1,3.986-.854c4.507,0,7.721,3.361,9.623,6.18a27.818,27.818,0,0,1,4.3,11.413,5.913,5.913,0,0,1-1.315,4.623,8.275,8.275,0,0,1-5.83,2.735,7,7,0,0,1-2.317,3.382,9.39,9.39,0,0,1-3.851,1.868,7.113,7.113,0,0,1-1.027,4.731,7.925,7.925,0,0,1-3.641,3.2,7.486,7.486,0,0,1-2.913.612,6.908,6.908,0,0,1-.918-.062l.058.782a5.564,5.564,0,0,1-3.479,5.95,4.73,4.73,0,0,1-2.741,3.221,258.764,258.764,0,0,1,12.174,35.813,424.436,424.436,0,0,1,11.2,60.389,477.2,477.2,0,0,1,3.219,54.089,458.992,458.992,0,0,1-3.059,54.1,243.744,243.744,0,0,1-4.541,26.98,154.151,154.151,0,0,1-8.376,26.005,133.744,133.744,0,0,1-10.7,19.97,201.916,201.916,0,0,1-13.421,18.271,134.45,134.45,0,0,1-15.883,16.4A129.84,129.84,0,0,1,342.352,488a120.374,120.374,0,0,1-20.558,9.821,110.128,110.128,0,0,1-22.126,5.572A124.654,124.654,0,0,1,282.185,504.646ZM93.616,254.849a3.144,3.144,0,0,0-2.894,2.229,3.026,3.026,0,0,0,1.934,3.629l.162.061a15.48,15.48,0,0,1,5.266,3.245l.322.305a2.849,2.849,0,0,0,2,.861,3.284,3.284,0,0,0,2.936-2.059,2.685,2.685,0,0,0-.694-3.046,22.42,22.42,0,0,0-8.236-5.09A2.391,2.391,0,0,0,93.616,254.849Zm70.333-110.633a3.392,3.392,0,0,0-2.7,1.517,3.035,3.035,0,0,0-.313,2.906l.069.16a9.419,9.419,0,0,1,.759,4.893,12.994,12.994,0,0,1-1.47,4.757l-.153.282a2.788,2.788,0,0,0-.02,2.867,3.379,3.379,0,0,0,2.818,1.634,2.669,2.669,0,0,0,2.382-1.473,18.432,18.432,0,0,0,2.381-7.9,16.784,16.784,0,0,0-1.517-8.083A2.412,2.412,0,0,0,163.949,144.216Zm43.207-43.957a3.492,3.492,0,0,0-2.624,1.229,2.973,2.973,0,0,0-.625,2.531,14.965,14.965,0,0,0,4.045,7.82,19.275,19.275,0,0,0,7.553,4.643,3.078,3.078,0,0,0,1.014.183,2.393,2.393,0,0,0,1.741-.738,3.242,3.242,0,0,0,.848-1.721,3.319,3.319,0,0,0-.288-2.049A2.977,2.977,0,0,0,217.1,110.7c-4.038-1.414-6.508-4.081-7.34-7.926l-.069-.347a2.464,2.464,0,0,0-2.536-2.165Zm96.136-3.6.776,1.024c.09-.4.165-.7.243-.98Zm-197.678,249.6a4.869,4.869,0,0,1-3.464-1.557l-.156-.162a51.573,51.573,0,0,0-11.739-9.227,52.968,52.968,0,0,0-4.981-2.514l0,0c-.6-.275-1.214-.56-1.825-.852a10.507,10.507,0,0,1-2.152-1.477,11.259,11.259,0,0,0-1.874-1.331.443.443,0,0,1-.223-.458.455.455,0,0,1,.333-.4,20.6,20.6,0,0,0,2.173-.673,8.7,8.7,0,0,1,3.329-.673c.321,0,.655.015,1.023.045a43.392,43.392,0,0,1,7.2,1.213A44.586,44.586,0,0,1,108.6,335.98a5.992,5.992,0,0,1,2.253,3.042,5.248,5.248,0,0,1-.069,3.2A5.766,5.766,0,0,1,105.613,346.259Z" transform="translate(8 3)"/></svg>