<svg xmlns="http://www.w3.org/2000/svg" width="598.731" height="701.09" viewBox="0 0 598.731 701.09"><g transform="translate(85)"><path d="M395.9,175.053c-3.79-62.2-23.974-132.723-83.378-163.263C181.564-40.768,9.38,91.588.264,226.8c-3.178,46.284,22.52,96.859,69.481,109.727,10.441,13.833,26.231,22.281,41.816,29.613,185.627,96.307,305.534,18.02,284.34-191.087Z" transform="translate(36 95)" fill="#d08b5b"/><path d="M559.189,199.517q-9.84-27.33-20.78-54.24c-7.1-17.46-13.513-35.3-22.33-51.93-52.66-99.34-148.42-99.34-197.92-86.36-25.67-11.06-73.751-7.94-100.48,2.04C174.407,25.184,121.658,88.742,103.623,117.3,63.8,180.347,38.954,264.264,65.4,337.12a164.141,164.141,0,0,0,12.83,26.84,104.679,104.679,0,0,1-10.713,12.2c-11.848,11.722-23.7,23.058-33.931,36.279A180.383,180.383,0,0,0,8.71,454.951C-3.126,484-3.7,516.9,11.952,544.62c13.614,24.12,37.731,42.081,64.9,43.794,1.395.194,2.792.372,4.195.513a78.548,78.548,0,0,0,13,16.15c15.35,14.6,51.94,22.09,72.81,22.57,1.07.86,2.15,1.72,3.23,2.57,12.77,10.05,26.17,20.19,40.83,27.34,9.93,4.85,22.95,8.9,33.31,5.4,4.7,3.14,12.41,2.48,17.07-.09,7.66-4.22,13.89-11.82,17.68-19.6,9.19-18.89,6.98-39.56,4.62-59.74-2.6-22.29-5.1-44.59-7.64-66.88-1.99-17.43-4.07-35.15-9.37-51.94a119.344,119.344,0,0,0-10.97-24.92,4.094,4.094,0,0,0-.09-1.94c-1.52-4.94-4.66-7.53-8.38-10.89-.48-.43-.96-.87-1.43-1.32a45.024,45.024,0,0,0-5.98-5.76c-.82-.83-1.63-1.67-2.44-2.51a203.43,203.43,0,0,1-18.74-22.4c-5.48-7.7-10.43-15.74-15.14-23.93-4.79-8.33-7.96-17.52-12.74-25.79a1.311,1.311,0,0,0-2.03-.26c-1.48,1.53-2.43,3.23-2.25,5.02l-.74.11a5.029,5.029,0,0,0-6.15-4.31c-5.06.88-9.22,1.21-13.6-.47.77-5.11,1.48-10.23,2.18-15.36,1.28-9.44,2.47-18.91,3.49-28.38a41.184,41.184,0,0,1,7.32,2.52,35.28,35.28,0,0,1,9.41,6.12c2.72,2.5,4.6,5.87,7.92,7.61a5.039,5.039,0,0,0,7.31-5.62c-2.27-8.73-15.12-13.73-23.07-15.38a36.79,36.79,0,0,0-8.31-.75q.945-9.12,1.65-18.25.33-4.32.61-8.65a45.449,45.449,0,0,1,19.23-1.55c2.12,1.69,4.24,3.36,6.29,5.05,6.51,5.38,12.99,10.79,19.39,16.3.58.49,1.15.98,1.73,1.48,3.8,3.27,8.54.03,7.9-4.6-5.22-37.94,18.02-68.12,45.23-91.5,30.12-25.89,84.88-28.9,120.7-73.75,16.5,3.358,53.33,13.33,68.53,37.55,21.28,33.94,18.5,64.35,20.12,102.85,1.62,38.53,5.74,78.72-3.01,116.71-8.07,35.03-29.92,64.96-63.82,78.72-.84.34-1.69.67-2.54.99a102.614,102.614,0,0,1-55.1,5c-20.41-3.86-37.45-13.2-54.43-24.69-.98-.65-2.41.69-1.67,1.67,22.38,29.66,66.34,39.57,101.21,31.74q2.445-.555,4.86-1.21a91.713,91.713,0,0,0,3.93,68.89,92.747,92.747,0,0,0,26.78,33.48c12.51,9.88,28.03,17.86,36.71,31.73,7.95,12.71,5.59,26.99-8.02,34.33-3.43,1.86-4.75,7.87-1.35,10.51,1.3,1,2.6,2.02,3.93,3.02,7.62,5.75,28.55,16.55,31.94,16.95,30.1,3.57,50.34-18.53,63.31-44.6,15.23-30.6,11.27-67.89-5.51-97.03-13.46-23.38-39.97-46.42-29.43-76.01,3.76-10.57,11.45-19.58,18.92-27.72,8.52-9.27,17.68-17.95,25.85-27.55,8.12-9.53,15.32-19.9,19.34-31.86,5.87-17.48,2.95-36.38-1.46-53.83C584.529,272.807,572.259,235.847,559.189,199.517Z" transform="translate(-85 31.843)"/></g></svg>