<svg xmlns="http://www.w3.org/2000/svg" width="474" height="567" viewBox="0 0 474 567"><path d="M347.066,150.221A198.482,198.482,0,0,0,286.55,47.866C191.222-46.38,16.159,4.775,16.952,146.8a188.6,188.6,0,0,0-3.675,50.561c.468,7.218,3.592,17.291-.6,23.787C3.2,233.3-2.3,242.256.925,258.422c2.692,14.115,12.3,24.115,25.262,29.431,7.775,2.231,15.152,7.091,18.032,14.5,17.306,31.684,30.127,58.038,57.41,79.631,7.04,5.559,79.246,38.9,103.037,38.9,69.651,0,157.437-25.23,158.894-103.03.252-17.088-2.747-34.375-4.628-51.328C354.353,227.838,355.969,187.749,347.066,150.221Z" transform="translate(55 74)" fill="#d08b5b"/><path d="M239.133,438.175a81.339,81.339,0,0,1-24.11-3.359A59.564,59.564,0,0,1,203.9,430.1a54.615,54.615,0,0,1-10.11-7.2,8.479,8.479,0,0,1-2.773-4.884,9.929,9.929,0,0,1,.581-5.291,12.254,12.254,0,0,1,3.729-5.108,9.057,9.057,0,0,1,5.641-2.126,8.092,8.092,0,0,1,4.922,1.728,51.84,51.84,0,0,0,8.274,5.071,53.242,53.242,0,0,0,8.717,3.343,65.734,65.734,0,0,0,18.342,2.4A108.528,108.528,0,0,0,259.9,416.26c5.393-.939,11.229-2.255,18.366-4.142l.727-.194a191.687,191.687,0,0,0,31.148-10.963,133.675,133.675,0,0,0,14.569-7.8,108.389,108.389,0,0,0,13.32-9.719,79.558,79.558,0,0,0,20.9-27.927,92.64,92.64,0,0,0,7.812-34.144c.578-13.234-.581-26.231-2.038-40.632l-.152-1.5c-.592-5.826-1.2-11.735-1.794-17.45-.978-9.452-1.989-19.225-2.934-28.851-1.67-16.982-2.659-30.053-3.209-42.383l-.3-7.133c-.078-1.829-.162-3.72-.236-5.389-.554-12.472-1.126-25.368-.585-37.9a.432.432,0,0,1,.439-.413.394.394,0,0,1,.39.3c1.741,6.175,3,12.54,4.211,18.7.593,3.006,1.206,6.115,1.87,9.174,2.341,10.784,3.982,19.129,5.323,27.059,2.515,14.881,4.928,31.231,7.593,51.454l.563,4.3c.651,5,1.386,10.14,2.1,15.106,3.64,25.423,7.4,51.707,2.657,77.106a89.506,89.506,0,0,1-15,35.106,117.753,117.753,0,0,1-27.09,27.138,158.524,158.524,0,0,1-32.4,18.037,209.387,209.387,0,0,1-35.433,11.116c-5.417,1.2-10.655,2.133-15.568,2.768A125.843,125.843,0,0,1,239.133,438.175ZM109.847,391.9a5.1,5.1,0,0,1-1.987-.409,25.462,25.462,0,0,1-8.169-5.921,91.737,91.737,0,0,1-6.777-8.1l-.015-.019c-.844-1.092-1.641-2.123-2.447-3.125l-.321-.4A167.489,167.489,0,0,1,76.2,353.87l-1.378-2.312C67.428,339.126,59.8,325.8,54.9,311.6a7.424,7.424,0,0,1-1.013.88,13.708,13.708,0,0,1-8.119,2.38,28.328,28.328,0,0,1-8.307-1.438,62.137,62.137,0,0,1-7.6-3.012,50.916,50.916,0,0,1-17.267-13.1,55.208,55.208,0,0,1-6.577-9.579,51,51,0,0,1-4.271-10.575,47.849,47.849,0,0,1-1.72-11.243A47.131,47.131,0,0,1,1.1,254.335,50.6,50.6,0,0,1,9.674,235.6a48.547,48.547,0,0,1,15.375-13.86c-5.674-6.532-7.9-15.433-9.32-23.279A141.873,141.873,0,0,1,13.928,166,167.63,167.63,0,0,1,18.7,134.013a194.031,194.031,0,0,1,10.419-30.62A171.089,171.089,0,0,1,60.41,55.445,169.463,169.463,0,0,1,81.585,36.122a165.674,165.674,0,0,1,24.272-15.477A183.627,183.627,0,0,1,218.85,2.21a158.736,158.736,0,0,1,27.136,6.78,166.107,166.107,0,0,1,25.473,11.3,172.531,172.531,0,0,1,23.291,15.35,175.852,175.852,0,0,1,20.589,18.93A182.19,182.19,0,0,1,332.587,76.14a138.217,138.217,0,0,1,13.22,24.218,131.887,131.887,0,0,1,4.611,12.863,106.011,106.011,0,0,1,3.082,13.312,109.491,109.491,0,0,1,1.628,14.118,38.758,38.758,0,0,1-.5,6.325,38.741,38.741,0,0,0-.5,6.512.543.543,0,0,1-.15.405.656.656,0,0,1-.471.189.563.563,0,0,1-.576-.433,34.964,34.964,0,0,0-3.369-7.975,52.1,52.1,0,0,1-2.556-5.352c-1.422-3.652-3.055-7.233-4.474-10.3l-1.35-2.913c-3.788-8.188-8.357-16.162-12.774-23.874l-.459-.8a175.067,175.067,0,0,0-35.315-43.6,157,157,0,0,0-41.437-26.6,151.6,151.6,0,0,0-23.326-8.024,144.355,144.355,0,0,0-24.367-4.029c-4.189-.324-8.447-.489-12.656-.489a164.6,164.6,0,0,0-44.373,6.088,160.137,160.137,0,0,0-41.07,17.963,151.994,151.994,0,0,0-62.756,78.446,173.419,173.419,0,0,0-9.724,50.58,231.557,231.557,0,0,0,.589,26.293l.3,4.163a66.953,66.953,0,0,1-.144,14.836,38.972,38.972,0,0,1,11.576-1.854,32.881,32.881,0,0,1,4.755.343c8.322,1.221,13.2,4.681,16.849,11.942a.429.429,0,0,1-.01.426.425.425,0,0,1-.359.2.461.461,0,0,1-.207-.051,15.9,15.9,0,0,0-7.049-1.351,46.044,46.044,0,0,0-25.076,8.11,41.5,41.5,0,0,0-10.712,10.613,33.831,33.831,0,0,0-5.686,13.92,27.451,27.451,0,0,0-.163,7.278,30.522,30.522,0,0,0,1.65,7.042,35.011,35.011,0,0,0,7.68,12.252,41.532,41.532,0,0,0,5.668,4.94,33.317,33.317,0,0,0,6.544,3.7,44.889,44.889,0,0,0,6.172,1.936c3.516.915,6.833,1.778,9.963,4.224a5.242,5.242,0,0,1,2.055,4.484,8.349,8.349,0,0,1-1.809,4.683c5.289,5.8,10.359,11.975,15.263,17.949l.005.006c4.813,5.863,9.79,11.925,14.977,17.635,4.4,4.847,9.5,10.5,14.326,16.215l1.737,2.077c1.293,1.56,2.774,3.12,4.343,4.771,4.074,4.289,8.286,8.722,9.818,13.811a6.688,6.688,0,0,1-1.256,5.818A6.284,6.284,0,0,1,109.847,391.9ZM65.52,283.379a6.186,6.186,0,0,1-3.511-1.043,7.063,7.063,0,0,1-2.57-3.467l-.107-.3a25.182,25.182,0,0,0-4.958-8.247,6.793,6.793,0,0,1-2.607,2.436,2.77,2.77,0,0,1-1.218.274,2.188,2.188,0,0,1-2.294-1.7,7.716,7.716,0,0,1,1.074-5.5l.142-.208a43.241,43.241,0,0,0-8.122-5.153,32.754,32.754,0,0,0-8.394-2.824.516.516,0,0,1-.4-.536.525.525,0,0,1,.4-.549,50.352,50.352,0,0,1,9.34-1,28.578,28.578,0,0,1,11.717,2.381,37.23,37.23,0,0,1,9.954,6.485,63.892,63.892,0,0,1,7.981,8.824,5.342,5.342,0,0,1,.731,5.846A8.279,8.279,0,0,1,65.52,283.379Z" transform="translate(45 65)"/></svg>