<svg xmlns="http://www.w3.org/2000/svg" width="522.237" height="567" viewBox="0 0 522.237 567"><g transform="translate(25)"><path d="M350.531,29.685c-60.132-39.8-180.6-35.48-246.794-11.094C39.149,39.074,16.536,96.149,5.812,157.812c-13.035,69.3-11.283,169.206,82.451,168,13.178,6.373,27.777,9.137,41.412,14.415,18.662,6.452,36.96,13.942,55.9,19.593,37.3,12.012,78.8,10.967,114.183-6.61,19.547-9.442,27.638-24.147,40.422-39.816,37.19-45.585,55.9-110.823,54.227-168.787C391.463,103.789,384.712,56.541,350.531,29.685Z" transform="translate(39 132)" fill="#d08b5b"/><path d="M490.624,279.695c-6.17-38.3-7.88-77.25-15.96-115.25-7.6-35.759-21.81-69.55-46.64-96.81-22.22-24.39-50.95-42.3-81.79-53.65-60.08-22.11-129.18-17.11-187.3,8.7-54.4,24.149-97.79,68.829-123.08,122.449-16.43,34.84-24.69,71.88-28.36,110.11-4.07,42.47-4.51,85.38-6.17,128-.2,5.26-.49,10.52-.56,15.781-.08,5.759,2.25,10.809,4.15,16.169a4.591,4.591,0,0,0,.55,1.081c-1.43.179-2.86.389-4.29.619-1.6.25-1.53,2.85,0,3.16,12.95,2.64,26.26,3.01,39.43,3.66,13.65.68,27.32,1.051,40.99,1.51l39.99,1.35q10.5.36,21,.71c3.33.11,6.66.231,10,.34,1.66.061,3.33.109,4.99.17,1.35.04,3.55.9,3.69-.09a3.726,3.726,0,0,0,.81.37,7.645,7.645,0,0,1,.93.59,5.642,5.642,0,0,0,5.75,0c.15-.09.31-.19.47-.29a6.082,6.082,0,0,0,2.57-2.99c6.84,8.26,18.95-1.02,11.95-9.76-3.76-4.7-41.16-119.93-25.68-207.71l62.08-8.22c11.35-1.15,32.47-3.44,32.47-3.44s5.17-16.87,6.65-22.3c.11-.4.22-.81.34-1.21q2.22,3.917,4.47,7.81l7.66,15.57s113.06-1.89,140.78-1.71c.47,0,2.7,33.7,1.69,48.54-2.04,29.8-4.21,59.58-7.23,89.3a208.022,208.022,0,0,1-13.495,55.233c-10.933,27.707-42.675,54.042-73.626,54.042-19.266,0-62.8-15.6-69.14-18.754s-10.118,5.449-4.34,8.889c11.7,6.968,43.965,21.75,73.48,21.75,42.863,0,75.22-40.67,79.19-46.5a773.07,773.07,0,0,1,117.93,2.72c3.27.32,6.09-3.62,5.04-6.63A721.945,721.945,0,0,1,490.624,279.695Z" transform="translate(-25 50)"/></g></svg>