<svg xmlns="http://www.w3.org/2000/svg" width="502.505" height="598" viewBox="0 0 502.505 598"><g transform="translate(7.004 31)"><path d="M314.589,6.76c-53.469-15.693-237.353.393-241.9,3.792-7.441,6.183-43.636,25.8-49.268,30.28C-27.5,94.807,21.044,174.959,17.308,240.071c.238,23.1-9.6,44.184-14.128,66.4-1.91,11.644-1.489,23.688,4.58,34.142,10.67,18.68,33.2,22.467,51.529,30A117.8,117.8,0,0,1,84.738,386.2c52.584,46.517,81.854,78.371,158.581,67.877.392,3.663,3.637,7.262,7.66,5.625,9.42-3.836,18.773-7.9,28.275-11.541,2.031,4.894,7.865,6.291,11.817,1.969l.023.031c17.589-14.268,28.775-33.777,37.083-54.662a229.022,229.022,0,0,0,14.213-37.567,6.589,6.589,0,0,0-.015-3.9,509.581,509.581,0,0,0,18.579-178.864c-.895-12.391-3.235-24.946-2.66-37.389.52-11.242,5.363-21.876,9.055-32.346C386.387,60.922,357.285,20.774,314.589,6.76Z" transform="translate(60.83 44.264)" fill="#d08b5b"/><path d="M313.466,545.57a160.433,160.433,0,0,1-46.44-7.226,190.935,190.935,0,0,1-22.1-8.24,194.265,194.265,0,0,1-20.509-10.618,10.148,10.148,0,0,1-4.568-5.344,10.489,10.489,0,0,1-.147-6.327,12.389,12.389,0,0,1,3.715-5.964,9.661,9.661,0,0,1,6.415-2.529,10.352,10.352,0,0,1,5.416,1.624,167.55,167.55,0,0,0,55.19,21.451,138.973,138.973,0,0,0,26.591,2.814,89.7,89.7,0,0,0,15.227-1.238,67.277,67.277,0,0,0,14.561-4.186,64.6,64.6,0,0,0,16.562-10.236,85.3,85.3,0,0,0,13.269-14.269,123.576,123.576,0,0,0,10.406-16.774,180.212,180.212,0,0,0,7.973-17.751c5.557-14.3,9.657-29.028,13.26-42.81,4.009-15.3,9.089-35.517,12.821-56.219,1.636-9.091,2.944-18.068,3.888-26.682,1.007-9.184,1.632-18.25,1.858-26.946.24-9.2.04-18.275-.592-26.965A235.641,235.641,0,0,0,422.8,254.4a218.763,218.763,0,0,0-9.121-33.57,18.957,18.957,0,0,1-1.74-2.57c-3.373-5.912-5.915-12.544-8.374-18.959-.547-1.426-1.112-2.9-1.676-4.34-2.535-4.4-5.4-8.833-8.75-13.55a121.389,121.389,0,0,1-13.178-11.6,107.744,107.744,0,0,0,16.5-13.014,85.188,85.188,0,0,0,13.26-16.428,3.61,3.61,0,0,0-1.015-5.022,80.207,80.207,0,0,1-10.142,10.437,131.29,131.29,0,0,1-11.768,9.033,106.583,106.583,0,0,1-13.4,9.7c-2.909.576-6.019,1.038-10.083,1.5a99.808,99.808,0,0,1-11.227.618,127.567,127.567,0,0,1-17-1.2c-4.8-.64-13.229-2.445-23.9-4.729-26.947-5.769-67.671-14.486-97.186-14.486a86.861,86.861,0,0,0-20.835,2.1,16.556,16.556,0,0,0-8.206,5.112,53.547,53.547,0,0,0-5.764,8.15l0,.005c-.348.563-.708,1.145-1.066,1.714a47.82,47.82,0,0,1-5.875,7.566,50.333,50.333,0,0,1-7.236,6.25l-.589.414c-5.451,3.773-13.289,11.449-20.455,20.033a159.989,159.989,0,0,0-10.83,14.51,101.7,101.7,0,0,0-8.429,15.275c-2.538,5.869-5.164,14.584-7.806,25.9-2.318,9.933-4.524,21.389-6.38,33.13-1.737,10.986-3.045,21.513-3.684,29.642-.674,8.578-.576,13.916.284,15.438a.757.757,0,0,0,.52.439c10.735,1.454,17.584,6.421,25.514,12.173l.009.007c1.684,1.221,3.425,2.484,5.267,3.76a.868.868,0,0,1,.311.982.679.679,0,0,1-.642.521.813.813,0,0,1-.28-.053,127.02,127.02,0,0,0-21.88-5.23,53.052,53.052,0,0,0-8.8-.8,31.8,31.8,0,0,0-11.21,1.855,23.91,23.91,0,0,0-11.234,8.46,33.065,33.065,0,0,0-5.346,12.69,56.993,56.993,0,0,0-1.15,11.17l-.005,1.088a67.764,67.764,0,0,0,2.18,17.989,35.47,35.47,0,0,0,8.616,15.663,23.818,23.818,0,0,0,6.316,4.583,23.55,23.55,0,0,0,7.464,2.318,15.368,15.368,0,0,0,2.035.138,22.059,22.059,0,0,0,7.866-1.808,45.589,45.589,0,0,1,4.48-1.46,10.415,10.415,0,0,1,2.567-.333,7.717,7.717,0,0,1,5.858,2.457,6.917,6.917,0,0,1,1.694,5.446c1.389,1.215,2.718,2.493,3.72,3.47h0l0,0,.008.005a9.632,9.632,0,0,1,2.25,1.42,15.447,15.447,0,0,1,2.84,3.14,7.643,7.643,0,0,1,4.64,2.99c2.7,3.485,5.268,7.1,7.619,10.74,3.771,4,8.209,8.739,12.53,13.5,3.988,4.386,7.953,8.924,11.788,13.313l.077.088q1.408,1.611,2.817,3.221L178,478.2c2.564,2.915,5.212,5.936,7.87,8.979l.781.881.162.181a26.94,26.94,0,0,1,3.244,4.112,11.075,11.075,0,0,1,1.534,5.086,4.071,4.071,0,0,1-1.146,3.1,5.2,5.2,0,0,1-3.725,1.607,4.548,4.548,0,0,1-1.129-.14c-3.767-.971-5.8-3.693-7.947-6.574l-.005-.007c-.32-.429-.651-.872-.988-1.31l-3.92-5.029-3.69-4.738c-1.326-1.71-2.682-3.44-3.994-5.113l-.138-.176-1.387-1.771a8.8,8.8,0,0,1-3.294,5.557,10.468,10.468,0,0,1-6.017,2.453l-.974.038c-.874.029-1.748.044-2.6.044a56.542,56.542,0,0,1-14.22-1.642,28.621,28.621,0,0,1-12.4-6.381,30.32,30.32,0,0,1-12.69,7.66,22.675,22.675,0,0,1-6.742,1.029,23.834,23.834,0,0,1-12.88-3.854,24.928,24.928,0,0,1-5.083-4.321,23.456,23.456,0,0,1-3.686-5.474,44.306,44.306,0,0,1-8.462,2.661,43.415,43.415,0,0,1-20.978-.83,8.079,8.079,0,0,1-3.709-13.16l.179-.191.046-.052a6.755,6.755,0,0,1-1.346-3.8,7.444,7.444,0,0,1,.48-2.5,6.06,6.06,0,0,0,.432-2.675c-.336-2.085-1.755-3.143-4.218-3.143-3.194,0-7.313,1.741-9.526,2.676l-.484.2a4.911,4.911,0,0,1-1.716.394,5.093,5.093,0,0,1-1.426.2,7.061,7.061,0,0,1-5.733-3.543,7.973,7.973,0,0,1-1.193-3.395,6.721,6.721,0,0,1,.634-3.664c2.373-4.9,4.761-9.9,7.071-14.735l.01-.021.005-.011c3.323-6.955,6.76-14.147,10.213-21.184-.794.268-1.551.493-2.25.67a22.335,22.335,0,0,1-5.544.7,20.285,20.285,0,0,1-7.349-1.328,13.727,13.727,0,0,1-5.671-3.965,11.157,11.157,0,0,1-2.276-4.586,14.3,14.3,0,0,1-.031-5.987,6.768,6.768,0,0,1,2.175-3.742,10.677,10.677,0,0,1,3.765-2.2,24.087,24.087,0,0,1,7.092-1.138,17.4,17.4,0,0,0,6.068-1.042c3.738-1.551,8.069-4.358,13.241-8.58a68.918,68.918,0,0,0,11.17-11.57,45.188,45.188,0,0,1,7.15-17.03l.051-.069c.2-.273.407-.554.62-.821a27.656,27.656,0,0,1-9.822-4.285,24.376,24.376,0,0,1-6.369-6.749c-3.364-5.185-5.241-11.627-7.228-18.448-1.807-6.2-3.675-12.618-6.829-18.849l-.86-1.668c-1.969-3.833-3.568-7.232-4.887-10.392a82.346,82.346,0,0,1-3.746-10.889c-2.157-8.234-2.429-15.653-.829-22.681a36.951,36.951,0,0,1,2.68-7.72c-1.762.219-3.552.422-5.282.618l-.278.032a4.717,4.717,0,0,1-.527.03,6.929,6.929,0,0,1-5.485-3.333,6.173,6.173,0,0,1-.868-5.726c.868-2.056,1.854-4.119,2.93-6.13a69.655,69.655,0,0,1,10.8-14.9c-1.335-.035-2.694-.065-4.007-.093H30.8c-5.7-.123-11.591-.25-17.324-.916a19.032,19.032,0,0,1-9.316-3.46,10.751,10.751,0,0,1-3.078-3.622A10.326,10.326,0,0,1,0,200.726a15.362,15.362,0,0,1,4.143-9.638,34.744,34.744,0,0,1,8.462-6.821,71.029,71.029,0,0,1,9.914-10.681,72.862,72.862,0,0,1,11.828-8.441,42.427,42.427,0,0,0-5.071-.823l-.86-.077a38.779,38.779,0,0,1-13.49-3.71,5.249,5.249,0,0,1-2.958-3.879,7.209,7.209,0,0,1,1.668-6.131,17.639,17.639,0,0,1,13.483-5.735,29.43,29.43,0,0,1,8.558,1.392,46.612,46.612,0,0,1,8.167,3.44,25.693,25.693,0,0,0-2.2-2.45l-.487-.465a4.362,4.362,0,0,1-1.235-4.97,5.581,5.581,0,0,1,4.976-3.483,4.85,4.85,0,0,1,3.33,1.382,33.442,33.442,0,0,1,4.007,4.485l.113-.236A103.125,103.125,0,0,1,78.42,110.94l2.529-2.1c1.884-1.574,3.6-3.036,5.269-4.45,6.624-5.628,11.855-10.072,17.43-13.016a36.308,36.308,0,0,1,8.938-3.335,49.235,49.235,0,0,1,11.087-1.127c2.591,0,5.36.14,8.466.427-1.112-4.741-.982-10.13-.744-14.295l.034-.586c.39-6.429,1.724-15.973,5.859-24.932a42.191,42.191,0,0,1,6.895-10.662,31.323,31.323,0,0,1,10.147-7.535,6.065,6.065,0,0,1,2.538-.563,5.461,5.461,0,0,1,4.266,1.991,5.193,5.193,0,0,1,.9,4.5,79.176,79.176,0,0,1-2.88,9.78,115.4,115.4,0,0,1,34.66-24.824c9.288-4.166,18.311-6.278,26.818-6.278a49.415,49.415,0,0,1,8.282.691,44.961,44.961,0,0,1,13.106,4.608,135.183,135.183,0,0,1,11.881,7.235c1.77,1.163,3.6,2.366,5.423,3.507a76.183,76.183,0,0,0,32.09,11.06,116.277,116.277,0,0,0,13.253.736c10.039,0,21.013-1.165,34.537-3.665a308.448,308.448,0,0,0,31.66-16.24,176.142,176.142,0,0,0,18.28-12.11l.57-.442c.86-.674,1.725-1.388,2.562-2.079C396.593,3.678,401.051,0,406.674,0a14.111,14.111,0,0,1,3.715.516,15.114,15.114,0,0,1,8.23,5.548,23.683,23.683,0,0,1,4.03,9.433c2.133-2.232,4.266-4.6,6.34-7.051a10.2,10.2,0,0,1,7.964-3.467,13.226,13.226,0,0,1,7.489,2.337,11.075,11.075,0,0,1,2.775,2.738,9.534,9.534,0,0,1,1.553,3.622,131.889,131.889,0,0,1,.26,51.151c-.51,2.621-1.109,5.2-1.78,7.66a138.462,138.462,0,0,0,10.371-14.67,5.837,5.837,0,0,1,5.066-3.023,6.53,6.53,0,0,1,4.3,1.695,6.792,6.792,0,0,1,2.217,4.468c.14,1.533.221,3.1.24,4.67a5.3,5.3,0,0,1,2.837,2.342,5.566,5.566,0,0,1,.573,3.978,458.526,458.526,0,0,1-13.19,49.12,52.318,52.318,0,0,1,9.212-3.884,33.015,33.015,0,0,1,9.558-1.522,24.724,24.724,0,0,1,8.29,1.395,22.306,22.306,0,0,1,8.743,5.581,23.842,23.842,0,0,1,5.1,8.331,37.294,37.294,0,0,1,1.043,20.159,59.04,59.04,0,0,1-10.371,22.963,67.819,67.819,0,0,1-8.406,9.44,72.87,72.87,0,0,1-10.013,7.815c-1.491,2.242-3.244,4.911-4.95,7.71a61.155,61.155,0,0,1-1.034,10.978,57.7,57.7,0,0,1-3.036,10.573,45.848,45.848,0,0,1-15,19.339,13.85,13.85,0,0,1-4.943,5.625,13.047,13.047,0,0,1-7.062,2.265,9.961,9.961,0,0,1-1.852-.171l-.284-.058-.01.01c1.326,4.745,2.537,9.769,3.6,14.93a213.52,213.52,0,0,1,3.866,29.3,268.977,268.977,0,0,1,.184,29.575c-.441,9.437-1.316,19.1-2.675,29.534-1.194,9.163-2.735,18.706-4.712,29.175l-.233,1.229c-3.148,16.527-6.7,34.232-11.36,51.724-5.079,19.078-10.816,35.4-17.54,49.886a140.32,140.32,0,0,1-11.769,20.691,112.457,112.457,0,0,1-15.293,17.931c-12.194,11.477-26.1,18.794-41.318,21.747A125.981,125.981,0,0,1,313.466,545.57Zm-191.9-435.58c-7.864,0-16.181,3.356-24.72,9.975A3.347,3.347,0,0,0,95.47,122.2a134.5,134.5,0,0,1,21.491-5.964,118.776,118.776,0,0,1,17.523-2.333,3.511,3.511,0,0,0-1.688-1.478A27.232,27.232,0,0,0,121.565,109.989Zm2.5,282.11c-3.09,0-6.048-1.685-8.329-4.744a29.343,29.343,0,0,1-2.771-4.811,21.392,21.392,0,0,0-4.079-6.259l-.781-.761c-4.05-3.872-7.41-5.754-10.273-5.754a6.136,6.136,0,0,0-.965.075.613.613,0,0,1-.092.007.645.645,0,0,1-.609-.477.482.482,0,0,1,.271-.56c1.116-.609,2.106-1.282,3.064-1.933a18.63,18.63,0,0,1,6.106-3.1,21.2,21.2,0,0,1,5.276-.65,21.749,21.749,0,0,1,5.284.64,25.379,25.379,0,0,1,11.79,6.739,18.608,18.608,0,0,1,5.61,12.011A8.67,8.67,0,0,1,131.6,388.3a10,10,0,0,1-5.064,3.453A9.3,9.3,0,0,1,124.068,392.1Zm29.444-53.467a3.142,3.142,0,0,1-1.353-.3,9.072,9.072,0,0,1-3.7-3.159,9.809,9.809,0,0,1-1.574-4.351,11.96,11.96,0,0,1,4.178-10.51,1.965,1.965,0,0,1,1.245-.47,1.768,1.768,0,0,1,1.467.777,1.8,1.8,0,0,1,.144,1.723l-.056.13a8.365,8.365,0,0,0-.249,6.047A19.811,19.811,0,0,0,156.4,334.1a2.57,2.57,0,0,1,.245,2.747A3.631,3.631,0,0,1,153.512,338.632Zm14.909-40.815a3.234,3.234,0,0,1-2.511-1.164,3.411,3.411,0,0,1-.641-2.878c1.29-6.626,3.134-13.212,4.916-19.581,2.265-8.094,4.608-16.464,5.834-24.989a208.551,208.551,0,0,0,2.246-22.427,126.424,126.424,0,0,0-1.107-22.434.823.823,0,0,1,.183-.665.778.778,0,0,1,.577-.266.718.718,0,0,1,.679.532c5.108,14.824,6.9,28.44,5.99,45.53l-.082,1.452a123.5,123.5,0,0,1-3.4,23.745,72.341,72.341,0,0,1-3.883,11.3,55.349,55.349,0,0,1-5.959,10.334A3.507,3.507,0,0,1,168.421,297.817ZM129.168,262.73a1.882,1.882,0,0,1-1.395-.695,1.749,1.749,0,0,1-.393-1.459,7.473,7.473,0,0,1,2.549-4.065,7.058,7.058,0,0,1,4.424-1.864,4.143,4.143,0,0,1,3.366,1.7,1.875,1.875,0,0,1,.332,1.693,3.206,3.206,0,0,1-1.822,1.966,2.7,2.7,0,0,1-1,.18,7.113,7.113,0,0,1-.957-.086,7.191,7.191,0,0,0-.967-.088,2.927,2.927,0,0,0-.582.055,3.184,3.184,0,0,0-2.153,1.629l-.1.181A1.446,1.446,0,0,1,129.168,262.73Zm-3.781-33.957a.674.674,0,0,1-.558-.356.762.762,0,0,1-.049-.74,10.649,10.649,0,0,1,3.479-3.81,8.656,8.656,0,0,1,4.757-1.512A7.4,7.4,0,0,1,136.8,223.4a1.8,1.8,0,0,1,.771,2.051,1.627,1.627,0,0,1-1.588,1.271l-.083,0-1.066-.043c-.655-.024-1.183-.035-1.661-.035a11.857,11.857,0,0,0-7.432,2.009A.583.583,0,0,1,125.387,228.773Z" transform="translate(-7.005 -31)"/></g></svg>