<svg xmlns="http://www.w3.org/2000/svg" width="475.999" height="567" viewBox="0 0 475.999 567"><g transform="translate(1.999)"><path d="M229.6.587c56.781,0,127.9,64.771,148.71,92.333,17.5,23.173,15.024,142.554,15.024,213.371,0,14.811-6.7,42.842-9.126,57.01C375.3,415.216,336.5,458.755,259.7,458.755c-62.532,0-110.655-19.807-157.19-70.465-10.617-11.557-62.465,29.817-73.069,14.917-27.7,0-50.856-258.778,3.523-336.4S172.82.587,229.6.587Z" transform="translate(26.975 38.391)" fill="#d08b5b"/><path d="M134.9,539.708a11.525,11.525,0,0,1-6.328-1.894,8.35,8.35,0,0,1-3.711-5.219c-.49-2.315-1.036-4.633-1.62-6.89-1.088-4.228-2.342-8.433-3.727-12.5l-.533-1.54c-.562-1.605-1.113-3.239-1.646-4.818l-.006-.018c-.6-1.771-1.215-3.6-1.848-5.394l-.12-.389c-.049-.168-.1-.347-.15-.532l-2.03,4.431-6.17,13.37a5.686,5.686,0,0,1-2.189,2.541,5.6,5.6,0,0,1-2.917.785,7.688,7.688,0,0,1-4.852-1.836,6.585,6.585,0,0,1-2.445-4.654l-.008-.206c-.035-1.3-.079-2.351-.139-3.3a107.2,107.2,0,0,0-4.09-23.88l-.808,1c-7.268,8.986-13.628,15.474-20.013,20.419a66.185,66.185,0,0,1-11.923,7.44,53.093,53.093,0,0,1-13.6,4.4,6.353,6.353,0,0,1-1.105.1,7.376,7.376,0,0,1-6.319-3.7,5.159,5.159,0,0,1,.4-5.522c1.391-2.045,2.726-4.138,3.97-6.22-1.092-.511-2.125-1.043-3.07-1.58a61.2,61.2,0,0,1-18.53-16.68,65.257,65.257,0,0,1-6.818-11.228A78.867,78.867,0,0,1,7.95,463.965a115.381,115.381,0,0,1-4.084-25.91c-1.062-19.559.892-38.778,5.65-55.58a140.424,140.424,0,0,1,8.54-22.2c-.221-.588-.436-1.186-.644-1.764l0-.007-.053-.148a293.4,293.4,0,0,1-9.21-31.361,305.355,305.355,0,0,1-8.11-65.53A316.223,316.223,0,0,1,4.7,202.337,299.854,299.854,0,0,1,20.567,145.2,306.07,306.07,0,0,1,48.433,90.316,238.871,238.871,0,0,1,87.917,43.2a159.613,159.613,0,0,1,25.519-18.91,167.471,167.471,0,0,1,28.444-13.5,177.47,177.47,0,0,1,30.481-8.1A186.143,186.143,0,0,1,203.99,0c1.507,0,3.037.018,4.546.055A215.622,215.622,0,0,1,242.6,3.642,230.909,230.909,0,0,1,275.707,12.4a201.882,201.882,0,0,1,31.23,14.14,78,78,0,0,1,10.113,6.78l.8.62h.01c7.648,2.748,15.223,7.681,23.16,15.08,3.188-.255,6.39-.383,9.514-.383A104.715,104.715,0,0,1,382.4,53.455a106.983,106.983,0,0,1,26.566,12.651,91.58,91.58,0,0,1,21.654,19.829,80.46,80.46,0,0,1,14.55,29.653,101.893,101.893,0,0,1,2.657,33.078l-.311,3.85c-.82,9.876-1.951,21.311-5,32.045a67.248,67.248,0,0,1-6.085,14.95,41.543,41.543,0,0,1-9.993,11.944,12.768,12.768,0,0,1-4.06,2.219,246.487,246.487,0,0,1,14.261,28.485A215.652,215.652,0,0,1,446.856,272.3a286.577,286.577,0,0,1,5.85,29.271c1.4,9.57,2.368,19.486,2.869,29.472.482,9.6.548,19.547.2,29.563-.335,9.591-1.063,19.53-2.162,29.542-1.047,9.539-2.464,19.434-4.211,29.41-1.654,9.445-3.656,19.259-5.95,29.168-4.192,18.106-9.384,36.8-15.874,57.163A10.283,10.283,0,0,1,423.7,511a10.64,10.64,0,0,1-6.1,2.082,7.48,7.48,0,0,1-6.061-2.955,60.654,60.654,0,0,0-7.044-7.541,56.348,56.348,0,0,0-8.268-6.194,46.836,46.836,0,0,0-19.348-6.8,82.5,82.5,0,0,0-8.251-.364,76.133,76.133,0,0,1-8.547-.41,26.561,26.561,0,0,1-8.342-2.336,22.851,22.851,0,0,1-8.429-7.07,109.961,109.961,0,0,1-18.965,5.3,108.315,108.315,0,0,1-19.6,1.8c-1.442,0-2.9-.03-4.334-.089a117.476,117.476,0,0,1-18.074-2.144,105.362,105.362,0,0,1-17.684-5.124,87.536,87.536,0,0,1-16.285-8.345,72.381,72.381,0,0,1-13.877-11.808,11.133,11.133,0,0,1-2.569-4.556,9.79,9.79,0,0,1-.133-4.582,35.292,35.292,0,0,1,6.363-1.627,162.364,162.364,0,0,0,32.839,14.929,132.223,132.223,0,0,0,17.522,4.322,121.539,121.539,0,0,0,18.205,1.774c.887.018,1.767.028,2.615.028a77.839,77.839,0,0,0,19.518-2.182,51.831,51.831,0,0,0,9.137-3.266,46.368,46.368,0,0,0,8.515-5.194,56.8,56.8,0,0,0,6.939-6.363A102.311,102.311,0,0,0,370.226,438.7a118.179,118.179,0,0,0,13.941-16.813A133.437,133.437,0,0,0,395.09,402.68a142.215,142.215,0,0,0,7.736-20.755,161.685,161.685,0,0,0,5.825-40.26,323.389,323.389,0,0,0-1.795-40.77l-1.372-14.3c-1.924-20.191-3.846-41.7-4.375-63.12l.158-.008a4.1,4.1,0,0,0,3.845-4.409,3.467,3.467,0,0,0-3.537-3.6c-.1,0-.2,0-.308.01-2.14.139-4.375.206-6.833.206-4.275,0-8.608-.209-12.8-.411s-8.518-.412-12.787-.412c-2.673,0-5.092.08-7.4.246-.1-5.6-.461-12.191-2.408-18.58a3.814,3.814,0,0,0-1.657-2.105,4.879,4.879,0,0,0-2.584-.75,3.294,3.294,0,0,0-3.472,2.856,121.177,121.177,0,0,0-1.259,16.614c-7.424-.1-14.969-.4-22.266-.689H327.8c-8.947-.356-18.2-.724-27.3-.724-3.547,0-6.827.054-10.026.164-2.726-2.908-4.086-7.542-5.286-11.629-.423-1.441-.822-2.8-1.261-4.037-.268-.761-.517-1.454-.76-2.119a113.788,113.788,0,0,1-6.453,20.232l-4.874.016c-12.382.058-27.018.251-41.683,1.245a292.107,292.107,0,0,0-41.195,5.455,9.623,9.623,0,0,1-3.3-6.238c-1.074-8.148-2.295-15.344-3.731-22a178.3,178.3,0,0,0-5.978-21.475l-.708-2q-.088-.248-.184-.527a108.332,108.332,0,0,1-12.758,16.5c-2.584,2.783-5.446,5.629-8.749,8.7-1.438,1.6-2.924,3.208-4.361,4.766l-.008.008c-1.486,1.611-3.023,3.278-4.516,4.937.119.612.218,1.221.3,1.808a89.756,89.756,0,0,1,.333,20.416,97.762,97.762,0,0,1-10.221,35.051l-.176,1.1a58.343,58.343,0,0,1-1.693,7.621,22.48,22.48,0,0,1-3.166,6.671,37.1,37.1,0,0,1,4.614,6.434,36.238,36.238,0,0,1,3.159,7.4,4.572,4.572,0,0,1-.774,4.123,5.523,5.523,0,0,1-4.317,2.251,4.246,4.246,0,0,1-3.267-1.509,38.945,38.945,0,0,0-8.812-7.506.706.706,0,0,1-.569.3.849.849,0,0,1-.416-.118c-3.647-2.024-8.531-3.094-14.124-3.094a43.207,43.207,0,0,0-19.117,4.315,25.928,25.928,0,0,0-7.119,5.44,26.489,26.489,0,0,0-4.679,7.184,34.259,34.259,0,0,0-2.491,17.356,55.528,55.528,0,0,0,4.812,17.688,37.346,37.346,0,0,0,4.8,7.7,25.633,25.633,0,0,0,6.507,5.742,14.542,14.542,0,0,0,7.794,2.423,18.972,18.972,0,0,0,5.046-.774,14.7,14.7,0,0,0,4.254-2.33l.8-.644a23.919,23.919,0,0,1,4.683-3.036,12.348,12.348,0,0,1,5.109-1.22,8.1,8.1,0,0,1,2.412-.377,6.9,6.9,0,0,1,3.992,1.235,7.432,7.432,0,0,1,2.667,3.585l.089.257c.122.363.258.735.4,1.129a14.873,14.873,0,0,1,1.247,6.551,14.655,14.655,0,0,1-4.071,8.771c-.4.436-.821.85-1.239,1.23,18.534,20.065,30.365,46.563,34.216,76.628a173.68,173.68,0,0,1,.05,43,177.862,177.862,0,0,1-10.2,41.539c-.824,2.2-1.73,4.447-2.77,6.88a7.464,7.464,0,0,1-3.231,3.626A9.373,9.373,0,0,1,134.9,539.708ZM66.208,386.081h0a4.5,4.5,0,0,0-3.81,2.161,3.456,3.456,0,0,0,.094,3.587l.095.154c3.6,5.677,5.642,12.119,7.614,18.348.368,1.162.784,2.478,1.195,3.732a3.871,3.871,0,0,0,3.828,2.771,4.317,4.317,0,0,0,3.477-1.657,3.455,3.455,0,0,0,.405-3.245l-.533-1.643c-.243-.757-.49-1.531-.707-2.214-2.179-6.846-4.431-13.924-8.38-20.133a3.8,3.8,0,0,0-3.278-1.863Zm29.6-294.907a3.984,3.984,0,0,0-2.655,1.051c-13.592,12.011-20.363,29.315-26.912,46.049-1.907,4.873-3.878,9.911-5.968,14.66a4.123,4.123,0,0,0,.324,4.027,4.531,4.531,0,0,0,3.638,2.1,3.156,3.156,0,0,0,2.948-2.091c2.085-4.739,4.044-9.81,5.939-14.713,6.157-15.936,12.523-32.412,25.109-43.855l.581-.521a3.383,3.383,0,0,0,1.062-3.872A4.5,4.5,0,0,0,95.811,91.173Zm212.4.027h0a4.246,4.246,0,0,0-2.757,1.062,4.641,4.641,0,0,0-1.5,2.418,3.184,3.184,0,0,0,1.813,3.744l.165.079a36.912,36.912,0,0,1,9.989,6.652,48.693,48.693,0,0,1,7.517,8.984c4.359,6.568,7.587,14.1,10.709,21.381l.305.713a3.117,3.117,0,0,0,2.923,2.1,4.539,4.539,0,0,0,3.628-2.093,4.157,4.157,0,0,0,.359-4.037l-1.144-2.652c-3.031-6.978-6.68-15.007-11.636-21.99-5.31-7.481-11.4-12.7-18.61-15.968a4.28,4.28,0,0,0-1.765-.393Zm24.809-9.466a3.205,3.205,0,0,0-2.331.987,4.324,4.324,0,0,0-1.133,2.3,4.416,4.416,0,0,0,.386,2.731,3.971,3.971,0,0,0,2.294,1.943,48.387,48.387,0,0,1,17.02,10.381,84.5,84.5,0,0,1,12.85,15.429,3.909,3.909,0,0,0,3.31,1.806,4.537,4.537,0,0,0,3.894-2.247,3.377,3.377,0,0,0-.3-3.6,94.047,94.047,0,0,0-14.92-17.678,57.4,57.4,0,0,0-19.72-11.813,4.122,4.122,0,0,0-1.346-.24ZM116.9,330.682a11.216,11.216,0,0,1-2.27-.237c-5.318-1.1-7.576-5-9.967-9.126-.7-1.211-1.427-2.462-2.236-3.641l-.6-.866q-.229-.332-.467-.68l-.033-.049c-2.056-3-4.614-6.73-7.9-7.849a1.223,1.223,0,0,1-.785-1.071.9.9,0,0,1,.525-.9l1.805-.874c3.485-1.663,7.233-3.287,11.371-3.287a17.943,17.943,0,0,1,6.044,1.091,25.751,25.751,0,0,1,8.272,4.9,18.953,18.953,0,0,1,5.489,7.71,11.967,11.967,0,0,1,.667,5.12,12.215,12.215,0,0,1-1.859,5.32,9.23,9.23,0,0,1-3.488,3.32A9.508,9.508,0,0,1,116.9,330.682Z" transform="translate(-2 14)"/></g></svg>