<svg xmlns="http://www.w3.org/2000/svg" width="661.219" height="609" viewBox="0 0 661.219 609"><g transform="translate(110 42)"><path d="M311.407,49.717C245.637-3.739,140.24-21.1,69.837,32.835,15.133,83.448-7.505,227.274,2.176,299.546c2.692,46.355,38.107,98.9,90.094,84.235,8.828-.869,17.4-4.253,26.309-4.962a125.79,125.79,0,0,1,32.031.255c23.176,3.278,43.721,15.583,66.215,21.336,41.739,10.674,88.31,3.494,124.238-20.55C459.79,301.8,406.01,125.267,311.407,49.717Z" transform="translate(32 97)" fill="#d08b5b"/><path d="M133.847,587.615a37.58,37.58,0,0,1-10.658-1.511,38.744,38.744,0,0,1-6.04-2.349,35.614,35.614,0,0,1-6.543-4.125,32.867,32.867,0,0,1-5.337-5.356,43.374,43.374,0,0,1-17.337,3.731,37.813,37.813,0,0,1-8.129-.871,34.5,34.5,0,0,1-7.753-2.7,37.664,37.664,0,0,1-6.41-1,33.5,33.5,0,0,1-15.6-8.9,28.977,28.977,0,0,1-5.308-7.3,23.964,23.964,0,0,1-2.517-8.624,31.835,31.835,0,0,1-21.882-21.944,33.133,33.133,0,0,1-1.2-7.71,35.546,35.546,0,0,1,.586-7.816A37.174,37.174,0,0,1,5.835,497a44.458,44.458,0,0,1-4.017-9.381,43.34,43.34,0,0,1-1.76-10,42.709,42.709,0,0,1,4.948-21.78A74.816,74.816,0,0,1,18.7,437.424a26.471,26.471,0,0,1-5.17-14.33,30.936,30.936,0,0,1,1.045-9.206,42.872,42.872,0,0,1,3.413-8.683A80.585,80.585,0,0,1,28.71,389.9c.757-.885,1.479-1.693,2.21-2.471a27.592,27.592,0,0,1-2.331-4.959c-1.885-5.324-2.522-11.681-1.894-18.9a82,82,0,0,1,4.044-18.745A77.837,77.837,0,0,1,40.545,325.2,60.927,60.927,0,0,1,55.489,310c.7-1.577,1.459-3.142,2.261-4.651v-.009a35.033,35.033,0,0,1-2.911-12.661c-.4-12.062,5.134-24.908,16.46-38.179A82.167,82.167,0,0,1,93.28,236.478a90.246,90.246,0,0,1,12.985-6.072,91.276,91.276,0,0,1,13.774-3.951,35.117,35.117,0,0,1-.564-8.462,38.576,38.576,0,0,1,1.433-8.514,42.857,42.857,0,0,1,8.452-15.753,37.26,37.26,0,0,1,7.622-6.864,39.925,39.925,0,0,1,8.8-4.434,58.206,58.206,0,0,1,19.724-3.094c2.006,0,4.107.076,6.244.226a15.786,15.786,0,0,1-.049-2.1c.211-4.266,2.15-8.68,5.765-13.121a57.4,57.4,0,0,1,10.769-9.877,60.155,60.155,0,0,1,22.552-10.054,35.669,35.669,0,0,1-.653-8.785,36.257,36.257,0,0,1,1.561-8.853,44.523,44.523,0,0,1,6.639-13.2,46.616,46.616,0,0,1,10.313-10.256,24.247,24.247,0,0,1,2.507-23.464c4.924-7.056,12.625-12.435,22.272-15.555A29.863,29.863,0,0,1,271.691,45.45a44.714,44.714,0,0,1,15.988-2.723,60.025,60.025,0,0,1,6.731.388A51.913,51.913,0,0,1,313.891,24.2a56.709,56.709,0,0,1,26.278-7.325c4.034-1.507,8.378-2.9,12.91-4.13a27.578,27.578,0,0,1,13.239-10.5A31.923,31.923,0,0,1,378.518,0c5.423,0,10.95,1.084,16.3,2.133,3.392.666,6.9,1.354,10.365,1.763,1.076.118,2.167.209,3.242.27l.457,0c.995,0,2,.031,2.992.092h.049c3.09,0,6.243-.183,9.293-.36s6.188-.359,9.261-.359a54.431,54.431,0,0,1,7.851.509,35.53,35.53,0,0,1,16.868,7.131,27.476,27.476,0,0,1,6.757,7.61,58.455,58.455,0,0,1,31.4,9.714,54.046,54.046,0,0,1,12.247,11.049,46.779,46.779,0,0,1,8,14.376,89.849,89.849,0,0,1,18.8-2.2,50.667,50.667,0,0,1,18.3,3.114c4.886,1.886,11.486,5.608,15.181,12.63,2.409,4.566,2.924,9.216,3.469,14.139.263,2.375.535,4.831,1.04,7.271a8.463,8.463,0,0,0,1.4,3.7,4.589,4.589,0,0,0,3.525,1.485c.522.037,1.066.054,1.663.054,1.076,0,2.155-.059,3.2-.116s2.128-.116,3.2-.116a21.49,21.49,0,0,1,2.538.136,30,30,0,0,1,11.038,3.57,31.689,31.689,0,0,1,8.983,7.381,34.209,34.209,0,0,1,5.815,9.768,28.722,28.722,0,0,1,1.984,11.171,50.539,50.539,0,0,1-1.788,10.509l-.012.05c-.186.764-.379,1.554-.559,2.332l-.053.231a16.375,16.375,0,0,0-.622,4.44,4.991,4.991,0,0,0,1.926,3.809,32.415,32.415,0,0,0,4.6,2.975,33.877,33.877,0,0,1,4.549,2.923,24.6,24.6,0,0,1,6.88,8.74,33.412,33.412,0,0,1,2.832,10.941,63.549,63.549,0,0,1-.042,11.361c-.133,1.641-.288,3.291-.437,4.886a108.222,108.222,0,0,0-.673,17.934,163.814,163.814,0,0,0,3.511,21.439l.044.212q.269,1.284.536,2.568l.111.536a182.744,182.744,0,0,1,3.779,23.157c.676,8.889-.116,16.448-2.422,23.108a43.982,43.982,0,0,1-5.37,10.85,27.154,27.154,0,0,1-1.92,2.229c-1.93,2.112-4.57,5-4.45,6.591a.526.526,0,0,1-.011.195c-.01.037-.01.037.063.113s.2.207.439.5a9.707,9.707,0,0,0,2.877,1.976c.566.3,1.1.586,1.543.885a30.543,30.543,0,0,1,7.85,7.25,27.632,27.632,0,0,1,4.643,10.292,39.272,39.272,0,0,1,.761,11.259c-.512,7.82-2.807,15.651-4.984,22.279a85.833,85.833,0,0,0-2.359,8.47,172.506,172.506,0,0,1,12.768,19.929c3.659,6.374,4.956,13.907,6.21,21.191.117.679.249,1.449.381,2.2,1.385,7.892,2.514,16.04,3.45,24.91.289,2.751.6,5.549.9,8.255.873,7.843,1.776,15.948,2.234,23.937a149.2,149.2,0,0,1-.345,24,160.52,160.52,0,0,1-15.54,54.831c-4.744,9.572-10.578,16.2-17.339,19.7a30.161,30.161,0,0,1-13.844,3.467c-.328,0-.659-.006-.986-.018a27.181,27.181,0,0,1-5.976,5.823,32.824,32.824,0,0,1-7.873,4.1A29.664,29.664,0,0,1,588.786,575a48.67,48.67,0,0,1-13.7-2.217,23.913,23.913,0,0,1-8.169,4.53,31.625,31.625,0,0,1-9.842,1.439c-1.553,0-3.251-.085-5.189-.259a18.671,18.671,0,0,1-3.6,1.62,17.819,17.819,0,0,1-5.68.909,24.29,24.29,0,0,1-7.385-1.262,61.477,61.477,0,0,1-7.137-2.9c-.333-.157-.662-.308-.98-.454l-.01,0-.07-.032c-1.387-.047-2.826-.069-4.4-.069a7.9,7.9,0,0,1-3.168,5.557,10.271,10.271,0,0,1-6.264,2.273,7.011,7.011,0,0,1-5.558-2.531,11.267,11.267,0,0,0-2.7-2.274c-.233-.155-.5-.331-.759-.515a9.738,9.738,0,0,1-6.626,2.512,9.457,9.457,0,0,1-2.013-.212,30.12,30.12,0,0,1-6.34-2.13c-.982.093-1.872.138-2.72.138a19.279,19.279,0,0,1-4.7-.547,10.048,10.048,0,0,1-6.491-4.853,11.731,11.731,0,0,1-1.3-7.687,35.014,35.014,0,0,1-7.44-2.588,29.341,29.341,0,0,1-6.6-4.313,34.889,34.889,0,0,1-3.62.61,30.38,30.38,0,0,1-3.407.191,30.785,30.785,0,0,1-8.213-1.112,29.068,29.068,0,0,1-7.68-3.349,23.278,23.278,0,0,1-6.2-5.53,7.46,7.46,0,0,0,.29,1.3.248.248,0,0,1-.039.224.331.331,0,0,1-.258.128.238.238,0,0,1-.224-.141c-.289-.612-.6-1.215-.921-1.852a31.153,31.153,0,0,1-1.958-4.378,125.333,125.333,0,0,1-23.6,2.247c-2.269,0-4.565-.063-6.825-.187a141.917,141.917,0,0,1-19.939-2.514,136.663,136.663,0,0,1-19.362-5.356,111.759,111.759,0,0,1-20.02-9.061,47.378,47.378,0,0,1-7.829-5.769,33.785,33.785,0,0,1-6.052-7.571,4.061,4.061,0,0,1-.1-4.176,4.847,4.847,0,0,1,5.067-2.3c7.928,1.507,15.4,5.015,22.635,8.408a131.446,131.446,0,0,0,16.875,6.981,122.648,122.648,0,0,0,36.074,5.526c1.395,0,2.806-.025,4.2-.075a104.824,104.824,0,0,0,33.215-6.676,106.892,106.892,0,0,0,29.008-16.459A104.488,104.488,0,0,0,493.5,483.663a99.932,99.932,0,0,0,13.494-31.027,160.787,160.787,0,0,0,3.508-20.548c.8-7.226,1.249-14.571,1.582-20.8.758-14.373,1.246-29.315,1.45-44.41.111-8.243.142-16.6.173-24.689V342.1c.025-6.492.05-13.206.117-19.808s.311-12.911.609-20.49a39.6,39.6,0,0,1-9.049-3.31,33.739,33.739,0,0,1-13.034-11.269,27.011,27.011,0,0,0-4.216-4.931c-2.208-1.869-5.167-2.187-8.028-2.495-.9-.1-1.833-.2-2.712-.346a34.417,34.417,0,0,1-23.529-15.57,40.266,40.266,0,0,1-7.433.671c-8.939,0-17.846-2.721-24.608-5.091-8.5-2.984-17.1-6.122-25.417-9.157-3.878-1.416-8.274-3.02-12.513-4.552-1.218-.439-2.463-.914-3.668-1.372-4.49-1.709-9.133-3.477-13.872-4.1-2.558-.333-5.156-.433-7.67-.53a62.093,62.093,0,0,1-10.51-1.01,63.994,63.994,0,0,1-14.843-5.3,110.307,110.307,0,0,1-13.688-8.128,34.335,34.335,0,0,1-16.69,4.447,32.257,32.257,0,0,1-9.869-1.548,28.884,28.884,0,0,1-11.75-7.25c-.01,1.694-.13,3.431-.246,5.111v.007c-.122,1.774-.248,3.608-.253,5.441a3.26,3.26,0,0,1-.071.841q.059.18.151.45a6.564,6.564,0,0,0,.676,1.3,7.621,7.621,0,0,1,.683,1.285,27.053,27.053,0,0,1,.808,2.907c.164.687.333,1.4.533,2.063a31.069,31.069,0,0,1,1.75,10.9c-.4,6.614-3.256,13.045-8.74,19.66a68.65,68.65,0,0,1-7.351,7.562l-.114.277-.018.044c-.232.562-.471,1.144-.708,1.708-.574,1.349-1.057,2.851-1.524,4.3-.122.378-.242.754-.365,1.128a55.5,55.5,0,0,1,3.469,6.92,39.884,39.884,0,0,1,2.982,13.979,50.6,50.6,0,0,1-1.592,14.3,24.071,24.071,0,0,1,3.893,8.608,28.789,28.789,0,0,1,.669,9.442C275.2,347,271.623,352.832,267.839,359c-1.312,2.138-2.667,4.348-3.919,6.674-.131.24-.325.705-.531,1.2-.39.93-.83,1.983-1.024,1.983-.04,0-.069-.047-.084-.14a29.039,29.039,0,0,0,.5,4.321,29.149,29.149,0,0,1,.487,4.058,66.931,66.931,0,0,1-1.751,15.881,64.553,64.553,0,0,1-10.439,22.839,67.5,67.5,0,0,1-7.29,37.5,20.257,20.257,0,0,1,3.13,9.48,28.535,28.535,0,0,1-1.231,9.851c.282.186.573.389.891.619,4.1,1.182,7.963,5.358,11.07,8.713.468.506.951,1.027,1.4,1.5a121.309,121.309,0,0,1,10.981,13.56,86.176,86.176,0,0,1,9.619,17.021,56.326,56.326,0,0,1,2.927,9.277,46.044,46.044,0,0,1,1.084,9.732,10.177,10.177,0,0,1-.851,4.119c2.883,7.128,1.988,16.768-4.5,20.56-.719.421-1.365.765-1.989,1.1a17.621,17.621,0,0,0-4.95,3.491c-.592.6-1.183,1.221-1.754,1.82a59.583,59.583,0,0,1-5.177,5c-5.036,4.134-10.419,6.32-15.566,6.32a18.166,18.166,0,0,1-4.475-.56,31.827,31.827,0,0,1-5.5.481,32.431,32.431,0,0,1-4.238-.281,27.6,27.6,0,0,1-14.85,4.615c-.434,0-.875-.012-1.31-.035a23.881,23.881,0,0,1-2.811-.3,48.146,48.146,0,0,1-21.079,6.77c-.734.049-1.486.073-2.233.073a35.283,35.283,0,0,1-17.317-4.513,29.949,29.949,0,0,1-6.79-4.98c-.3.137-.613.266-.916.391-.37.152-.719.3-.954.419a104.185,104.185,0,0,1-15.731,7.024,52.206,52.206,0,0,1-16.819,3.034h0ZM448.3,539.385h0c-1.292.48-2.486.909-3.65,1.31a14.7,14.7,0,0,0,4.452.739h.087c-.183-.4-.343-.783-.528-1.239A3.523,3.523,0,0,1,448.3,539.385ZM187.434,173.728l-.27.225-.023.019c-.231.191-.471.389-.693.594a16.865,16.865,0,0,0-4.236,6.236l.081.013.126.021A50.416,50.416,0,0,1,187.434,173.728ZM440.348,19.184h0a28.786,28.786,0,0,1,1.861,3.49c1.048-.462,2.056-.854,3.08-1.2a21.636,21.636,0,0,0-4.941-2.292Z" transform="translate(-110 -42)"/></g></svg>