<svg xmlns="http://www.w3.org/2000/svg" width="474" height="567" viewBox="0 0 474 567"><path d="M185.626,0C242.407,0,301.136,44.012,321.95,72.1c17.5,23.613,26.921,130.388,26.921,202.548,0,15.092,8.328,43.541,5.9,57.977-8.906,52.9-47.709,97.264-124.507,97.264S98.4,399.445,41.317,317.713c-27.7,0-41.12-21.24-41.315-54.759S26.737,217.24,26.737,217.24s-9.6-132.279,14.58-166.718S128.845,0,185.626,0Z" transform="translate(56.415 75.26)" fill="#d08b5b"/><path d="M240.7,460.988a134.978,134.978,0,0,1-24.924-2.26,109.827,109.827,0,0,1-23.624-7.177,89.12,89.12,0,0,1-20.9-12.692,81,81,0,0,1-16.743-18.8.491.491,0,0,1-.04-.516.622.622,0,0,1,.539-.3.592.592,0,0,1,.381.136,93.319,93.319,0,0,0,13.143,8.934,101.44,101.44,0,0,0,14.06,6.5,142.878,142.878,0,0,0,30.5,7.382,150.258,150.258,0,0,0,20.742,1.427,155.98,155.98,0,0,0,23.216-1.744,151.083,151.083,0,0,0,22.766-5.251,137.75,137.75,0,0,0,21.484-8.785A121.207,121.207,0,0,0,320.675,415.5a80.61,80.61,0,0,0,18.056-19.967,85.806,85.806,0,0,0,6.392-11.932,84.716,84.716,0,0,0,4.413-12.752,80.693,80.693,0,0,0,2.286-13.557,77.081,77.081,0,0,0-.107-13.752c-.615-6.2-2.7-11.917-4.713-17.443-1.007-2.762-2.047-5.617-2.907-8.526a7.836,7.836,0,0,1,1.86-7.671c.246-3.442.66-6.954,1.061-10.35.428-3.631.871-7.382,1.108-11.049.509-8.057.822-16.206.931-24.222.2-16.032-.438-32.935-1.9-50.239-1.552-18.383-4.7-36.8-7.745-54.61-2.017-11.8-4.1-24-5.7-36.071a5.039,5.039,0,0,1-3.39,1.354,5.315,5.315,0,0,1-2.469-.638l-.231-.127-1.22-.7a1.864,1.864,0,0,0-.221.019c-1.75.17-3.557.256-5.371.256a66.107,66.107,0,0,1-19.639-3.1A73.589,73.589,0,0,1,278.086,108.5a104.449,104.449,0,0,0-1.879,20.269,5.167,5.167,0,0,1-1.663,3.86,5.572,5.572,0,0,1-3.775,1.432,5.9,5.9,0,0,1-2.662-.641,339.2,339.2,0,0,1-45.42-27.79l-1.052,5.387-.011.056c-1.3,6.683-2.653,13.593-3.988,20.4a4.342,4.342,0,0,1-1.842,2.763,5.633,5.633,0,0,1-3.193.979,5.069,5.069,0,0,1-2.555-.661,96.072,96.072,0,0,1-27.67-24.241c-1.808,3.457-3.257,6.213-4.559,8.674l-2.3,4.325c-2.319,4.343-5.354,8.964-10.28,10.31a9.147,9.147,0,0,1-2.413.333,8.635,8.635,0,0,1-5.507-2.027,11.76,11.76,0,0,1-3.5-5.036c-.521-1.426-1.025-2.95-1.5-4.53a264.463,264.463,0,0,1-15.26,29.77c-7.81,13.024-17.252,25.02-26.383,36.621q-1.383,1.757-2.767,3.518a4.041,4.041,0,0,1-3.222,1.686c-2.606,0-5.361-2.607-5.669-5.365-.237-2.149-.446-4.38-.641-6.821-6.948,14.021-13,25.35-19.031,35.654l.975,3.817c1.973,7.931,3.741,16.036,5.45,23.874.721,3.306,1.467,6.725,2.221,10.1a9.167,9.167,0,0,1-1.369,6.879,5.891,5.891,0,0,1-4.031,2.632,42.868,42.868,0,0,0-4.546,1.006,27.473,27.473,0,0,1-6.8,1.171,11.571,11.571,0,0,1-3.818-.619c-4.457-1.53-6.138-4.912-7.917-8.492-.5-1.007-1.017-2.046-1.6-3.066a18.8,18.8,0,0,0-1.834-2.6l-.171.222a.539.539,0,0,1-.443.217.832.832,0,0,1-.658-.358.565.565,0,0,1-.069-.538l.293-.727a57.133,57.133,0,0,0-5.276-4.736c-.777-.642-1.581-1.3-2.351-1.971a27.959,27.959,0,0,0-4.629-.376,25.564,25.564,0,0,0-12.389,2.93,24.593,24.593,0,0,0-6.169,5.206,29.626,29.626,0,0,0-4.325,6.79,38.326,38.326,0,0,0-3.444,15.754,72.992,72.992,0,0,0,10.238,37,32.086,32.086,0,0,0,5.111,6.454,21.52,21.52,0,0,0,6.849,4.5,32.528,32.528,0,0,0,8.133,1.75,34.637,34.637,0,0,1,7.807,1.61,6.719,6.719,0,0,1,4.021,3.957,5.355,5.355,0,0,1-.521,4.653c-.094.162-.2.317-.3.466l0,.006c-.049.072-.1.145-.147.219l1.555,2.065c.982,1.312,2.132,2.879,3.226,4.555,1.658,1.907,3.4,3.8,5.081,5.634l0,.005c1.015,1.106,2.065,2.249,3.085,3.382,3.416,3.783,6.818,7.7,10.109,11.492l.011.012c1.53,1.762,3.112,3.584,4.679,5.374,4.057,4.633,8.71,9.466,14.641,15.21,2.024,1.966,4.3,3.83,6.5,5.634a75.092,75.092,0,0,1,8.67,7.888,14.162,14.162,0,0,1,2.893,5.149,10.659,10.659,0,0,1,.313,5.591,7.522,7.522,0,0,1-4.807,5.349,10.271,10.271,0,0,1-3.817.747c-5.684,0-10.819-4.816-14.946-8.686-.384-.36-.781-.732-1.166-1.089l-.22-.2a144.711,144.711,0,0,1-25.185-30.083,22.147,22.147,0,0,1-12.36,3.716,19.617,19.617,0,0,1-11.144-3.271,20.5,20.5,0,0,1-7.656-11.024,16.148,16.148,0,0,1-3.543.429l-.2,0c-.736.427-1.341.762-1.9,1.055a11.6,11.6,0,0,1-5.319,1.344,9.151,9.151,0,0,1-4.886-1.351,8.679,8.679,0,0,1-3.415-4.144,13.629,13.629,0,0,1-.522-7.962,46.493,46.493,0,0,1,2.49-7.824l.392-1.013a88.729,88.729,0,0,1,3.75-8.719,47.5,47.5,0,0,1-10.62-11.33A78.643,78.643,0,0,1,2.334,297.2,87.651,87.651,0,0,1,.176,282.943a72.411,72.411,0,0,1,.34-13.775A50.3,50.3,0,0,1,5.2,253.48a45.214,45.214,0,0,1,4.286-7.069,38.69,38.69,0,0,1,5.524-6.025l-.3-.78a117.831,117.831,0,0,1-5.719-17.779,183.6,183.6,0,0,1-3.05-21.93,209.935,209.935,0,0,1,.89-46.61,204.4,204.4,0,0,1,10.009-42.552A166.638,166.638,0,0,1,36.556,71.827,33.392,33.392,0,0,1,30.8,62.6a18.806,18.806,0,0,1-1.223-5.175,16.906,16.906,0,0,1,2.646-10.537,13.33,13.33,0,0,1,3.8-3.863A11.734,11.734,0,0,1,39,41.768a13.685,13.685,0,0,0,2.418-.94l.508-.28c.453-.264.418-.351.222-.834a8.826,8.826,0,0,1-.49-1.566c-.962-4.42-.861-8.206.3-11.254,1.353-3.552,4.129-5.983,8.25-7.226a14.8,14.8,0,0,1,4.273-.634A17.7,17.7,0,0,1,63.9,21.966a29.351,29.351,0,0,1,7.451,6.871A92.272,92.272,0,0,1,93,17.927c7.523-2.773,15.264-4.941,23.194-7.1a321.158,321.158,0,0,1,51.95-9.271A313.381,313.381,0,0,1,199.579,0a368.179,368.179,0,0,1,37.485,1.972c11.894,1.207,24.125,2.945,37.391,5.315a5.8,5.8,0,0,1,4.8,4.389c9.963.455,20.094,1.085,29.891,1.695,6.566.408,13.355.831,20.029,1.2a8.406,8.406,0,0,1,3.975,1.2,7.681,7.681,0,0,1,3.686,6.416,8.429,8.429,0,0,1-.961,4.05c-.567,1.1-1.152,2.165-1.7,3.149l.728-.24a27.208,27.208,0,0,1,8.268-1.49,14.756,14.756,0,0,1,7,1.641,13.837,13.837,0,0,1,6.469,7.232,17.06,17.06,0,0,1,.791,9.737,25.833,25.833,0,0,1-1.609,4.861c.5-.033.992-.049,1.463-.049a20.1,20.1,0,0,1,2.627.17,15.732,15.732,0,0,1,5.032,1.537,14.431,14.431,0,0,1,7.968,12.362c.263,5.226-1.138,10.752-4.163,16.423a55.876,55.876,0,0,1-10.936,14.045,14.054,14.054,0,0,1,1.189,8.531,13.671,13.671,0,0,1-3.729,7.3,21.86,21.86,0,0,1-6.787,4.574,54.851,54.851,0,0,1,2.538,21.022,5.235,5.235,0,0,1-1.5,3.162,6.083,6.083,0,0,1-3.023,1.723,249.956,249.956,0,0,1,9.725,35.192c2.165,10.518,4,21.951,5.772,35.983a435.124,435.124,0,0,1,3.339,51.17c.063,7.739-.067,15.539-.388,23.184l-.131,2.9c-.084,1.752-.152,3.544-.218,5.277a144.229,144.229,0,0,1-1.7,20.1c4.315,7.34,6.948,16.918,8.05,29.279a90.1,90.1,0,0,1-4.441,36.032,99.551,99.551,0,0,1-15.776,29.494,117.141,117.141,0,0,1-23.955,23.088,139.524,139.524,0,0,1-29.432,16.282,149.18,149.18,0,0,1-32.207,9.076A152.047,152.047,0,0,1,240.7,460.988ZM57.439,291.214a6.935,6.935,0,0,1-3.882-1.248c-4.194-2.811-7.032-7.168-9.777-11.381-.266-.407-.566-.869-.858-1.312l-.314-.476c-.272-.408-.542-.828-.8-1.234l-.006-.009a21.367,21.367,0,0,0-3.672-4.687l-.409-.358a5.747,5.747,0,0,0-2.092-1.242,4.027,4.027,0,0,0-1.09-.138,5.68,5.68,0,0,0-2.38.53,3.054,3.054,0,0,0-1.63,1.629l-.06.189a.792.792,0,0,1-.792.6.837.837,0,0,1-.868-.824,9.078,9.078,0,0,1,2.654-6.616,10.772,10.772,0,0,1,7.636-3.073,11.439,11.439,0,0,1,1.97.171c4.156.723,7.585,3.209,10.741,5.693l1.567,1.24.831.65.026.021c3.618,2.826,7.719,6.029,9.884,10.065a7.984,7.984,0,0,1-.369,7.911,8.524,8.524,0,0,1-2.688,2.8A6.744,6.744,0,0,1,57.439,291.214Z" transform="translate(50 55)"/></svg>