<svg xmlns="http://www.w3.org/2000/svg" width="582.284" height="567" viewBox="0 0 582.284 567"><g transform="translate(61.999)"><path d="M372.581,193.192c-.4-22.4-.838-45.252-4.168-67.436-3.256-21.688-12.213-41.292-27.6-57.041-32.693-33.453-80.083-41.624-124.2-49.112L141.194,6.8c-23.009-3.9-47.556-10.147-70.8-4.609C58.936,4.92,49.208,11.26,40.317,18.761c-8.57,7.23-17.784,14.994-23.591,24.721S8.908,64.61,7.017,75.627q-3.2,18.631-4.967,37.487a469.646,469.646,0,0,0-.97,75.661c.829,12.219,2.148,24.4,3.832,36.533q1.253,9.022,2.845,17.994c.314,1.763.553,3.715.875,5.687a59.924,59.924,0,0,0-3.622,20.75c.321,20.552,17.668,33.491,35.156,40.438,10.14,4.028,20.741,6.765,30.7,11.265,10.481,4.733,17.615,12.406,24.781,21.159a241.1,241.1,0,0,0,46.7,44.216c37.338,26.541,84.63,39.094,129.934,29.566A115.756,115.756,0,0,0,303.893,405.2c10.316-5.647,18.073-13.83,24.587-23.505,12.1-17.961,20.769-38.186,27.331-58.767a340.745,340.745,0,0,0,14.035-63.917c2.582-21.82,3.126-43.862,2.735-65.817Z" transform="translate(46 90)" fill="#d08b5b"/><path d="M357.049,497.025h-.009a82.571,82.571,0,0,1-17.582-1.848,70.469,70.469,0,0,1-44.413-30.548l-.284-.449c-1.416-2.273-2-3.885-1.635-4.537a.577.577,0,0,1,.549-.287c.985,0,2.774,1.341,4.558,3.416a96.932,96.932,0,0,0,28.695,17.681,85.532,85.532,0,0,0,31.25,5.952,86.553,86.553,0,0,0,31.911-6.164,101.6,101.6,0,0,0,29.972-18.672c16.667-14.4,29.767-34.465,38.936-59.643a234.291,234.291,0,0,0,10.079-37.789,314.728,314.728,0,0,0,4.621-40.745,387,387,0,0,0-.236-41.935c-.807-13.737-2.318-27.652-4.492-41.358-4.225-26.644-10.916-52.206-19.348-73.92a349.306,349.306,0,0,0-37.987-2.076,345.087,345.087,0,0,0-62.3,5.647,322.525,322.525,0,0,0-59.966,17.084,290.459,290.459,0,0,0-55.011,28.736,263.533,263.533,0,0,0-47.43,40.6l4.442,26.748c.249,1.5.513,3.019.769,4.492l.013.072c.518,2.984,1.055,6.069,1.492,9.12.407,2.843.5,5.807-1.563,8.216a6.908,6.908,0,0,1-5.491,2.62c-4.288,0-9.388-3.382-14.319-6.654l-.005,0a77.339,77.339,0,0,0-7.48-4.579,41.937,41.937,0,0,0-5.809-.428c-.807,0-1.607.028-2.381.082a30.418,30.418,0,0,0-22.79,15.071,42.859,42.859,0,0,0-5.08,13.136,52.819,52.819,0,0,0-1.041,14.5c.621,9.676,3.752,18.6,8.818,25.125a27.417,27.417,0,0,0,22.269,11.148,37.523,37.523,0,0,0,11.046-1.783,8.656,8.656,0,0,1,4.5-1.5,4.713,4.713,0,0,1,2.8.872A5.975,5.975,0,0,1,179.091,375c5.2,4.76,9.558,11.1,14.607,18.451,6.3,9.166,13.44,19.553,24.243,29.784a162.482,162.482,0,0,0,20.813,18.221,34.5,34.5,0,0,0,5.409,3.969c5.424,3.515,11.571,7.5,8.46,13.125a5.476,5.476,0,0,1-5.307,3.468c-8.862,0-24.359-14.757-32.808-23.554-5.65-5.883-11.559-12.64-16.636-19.025a122.094,122.094,0,0,1-10.321-14.591,96.981,96.981,0,0,1-21.2,5.612,143.649,143.649,0,0,1-21.861,1.525c-12.2,0-24.521-1.168-36.438-2.3l-.164-.016c-1.486-.141-3.022-.286-4.523-.426-26.854-1.4-49.1-7.774-66.11-18.957a81.58,81.58,0,0,1-20.322-18.84A80.119,80.119,0,0,1,4.644,347.781a95.511,95.511,0,0,1-4.3-21.994,121.212,121.212,0,0,1,.574-23.9,155.893,155.893,0,0,1,5.264-25.251A195.99,195.99,0,0,1,15.958,250.6,254.284,254.284,0,0,1,48.3,198.444a314.6,314.6,0,0,1,48.205-48.51,334.745,334.745,0,0,1,73.4-40.626,3.228,3.228,0,0,0,1.933-3.715,2.606,2.606,0,0,0-2.429-2.3,2.946,2.946,0,0,0-1.1.229,358.858,358.858,0,0,0-49.771,24.643l-.024-5.689c-.022-9.022.1-19.4,1.791-28.31.681-4.961,1.994-12.01,4.386-17.419.709-3.981,4.049-10.107,9.164-16.806a138.767,138.767,0,0,1,22.878-23.134A168.866,168.866,0,0,1,239.911.764,85.518,85.518,0,0,1,251.513,0a106.322,106.322,0,0,1,22.738,2.54,108.94,108.94,0,0,1,22.3,7.447A85.867,85.867,0,0,1,315.889,22.08a59.068,59.068,0,0,1,13.852,16.479,401.97,401.97,0,0,1,41.434-7.53A346.052,346.052,0,0,1,414.554,28.2c28,0,53.9,3.784,76.956,11.248a185.792,185.792,0,0,1,35.458,15.618,168.983,168.983,0,0,1,16.412,10.762,165.146,165.146,0,0,1,15.32,12.9,95.809,95.809,0,0,1,13.727,18.88,80.3,80.3,0,0,1,7.621,19.534,84.623,84.623,0,0,1-.195,39.466A122.679,122.679,0,0,1,565.9,190.667,169.7,169.7,0,0,1,543.278,220.7c-4.182,4.466-8.629,8.768-13.218,12.786a175.451,175.451,0,0,1-13.775,10.91,146.855,146.855,0,0,1-13.8,8.744,107.268,107.268,0,0,1-13.281,6.288c1.031,5.012,1.271,16.714.627,30.539a472.234,472.234,0,0,1-5.6,52.878,370.447,370.447,0,0,1-14.326,59.429c-7.1,20.889-15.7,37.775-25.565,50.19a105.071,105.071,0,0,1-17.3,18.1,118.31,118.31,0,0,1-21.384,14.079,115.616,115.616,0,0,1-23.864,9.13A99.212,99.212,0,0,1,357.049,497.025ZM169.529,285.682l-.571.333a4.882,4.882,0,0,1-1.41.552c.673.287,1.343.6,1.993.925-.013-.479-.018-.863-.018-1.209l.006-.6Zm17.3,54.861c-.563,0-2.091-1.145-3.271-2.451l-.186-.211.038.058c.475.731.66,1.238.536,1.466a.3.3,0,0,1-.286.136,4.941,4.941,0,0,1-2.995-2.352l-.031-.076a8.3,8.3,0,0,1-1.279-1.349c-.072-.091-.121-.154-.157-.193l-.031-.03a37.012,37.012,0,0,0-14.083-8.745c-.7-.133-1.4-.237-2.072-.308a62.917,62.917,0,0,0-8.59-1.3,1.586,1.586,0,0,1-.981-.638c-1.816-.061-2.883-.431-2.926-1.014-.037-.505.748-1.082,1.716-1.26l.033-.005-.36-.031c-1.846-.18-3.258-.673-3.286-1.147-.017-.29.467-.55,1.4-.753l.36-.072c-.038-.058-.072-.118-.12-.207-.832-.091-1.293-.447-1.264-.975a1.38,1.38,0,0,1,1.332-1.173,1.114,1.114,0,0,1,.437.089.985.985,0,0,1,.039-.882c.161-.218.477-.319.993-.319.184,0,.375.013.555.025l.046,0c.158.011.306.022.427.022a.488.488,0,0,0,.292-.056,1.587,1.587,0,0,1,.731-.528,2.842,2.842,0,0,0,.532-.446c.059-.066.059-.066.207-.071l.069,0a3.337,3.337,0,0,1,2.419-.86,12.285,12.285,0,0,1,3.254.605l.305.088a10.162,10.162,0,0,0,2.438.517h.075a32.17,32.17,0,0,1,13.846,5.558,37.451,37.451,0,0,1,5.755,3.952l.017,0a.031.031,0,0,1-.014.008l.139.094a32.02,32.02,0,0,1,4.092,4.028c1.774,2.03,2.7,3.477,2.545,3.97-.042.131-.16.2-.35.2a3.42,3.42,0,0,1-1.248-.392c-.327-.424-.686-.868-1.131-1.4a.907.907,0,0,1-.166.182l.279.414c.983,1.478,1.413,2.355,1.278,2.606a.148.148,0,0,1-.143.073c-.82,0-4.549-3.57-5.321-4.8a.83.83,0,0,1-.142.088l-.029.016L184,332.471c.2.25.36.448.5.624l.308.3c2.606,2.562,3.857,4.992,3.605,5.606a.24.24,0,0,1-.243.155c-.632,0-2.127-1.4-4-3.741a2.229,2.229,0,0,1,.428,1l.336.428c1.076,1.387,2.312,3.138,2.088,3.6A.2.2,0,0,1,186.825,340.543Z" transform="translate(-62 17.999)"/></g></svg>