<svg xmlns="http://www.w3.org/2000/svg" width="474" height="567" viewBox="0 0 474 567"><path d="M340.529,155c-2.153-18.915.633-58.451.82-60.853,1.18-15.185-5.935-75.148-19.385-69.623C299.4,6.666,269.351,2.722,241.251.838,182.883-3.076,120.791,5.909,75.72,45.189c-22.289,20.4-43.988,50.068-42.244,80.96C13.226,155.431-15.324,195.6,9.908,229.831c8.577,10.937,22.208,15.01,32.982,23.293,21.672,17.48,35.268,42.566,57.145,59.942,57.96,52.083,156.377,62.963,213.323,3.723,44.035-42.9,36.915-107.09,29.169-161.786C337.321,118.23,344.728,191.9,340.529,155Z" transform="translate(65.001 149)" fill="#d08b5b"/><path d="M250.311,443.271a134.042,134.042,0,0,1-19.031-1.4,105.442,105.442,0,0,1-21.491-5.2,40.754,40.754,0,0,1-10.072-5.32,45.226,45.226,0,0,1-8.2-7.871,6.294,6.294,0,0,1-.675-6.317,3.866,3.866,0,0,1,3.632-2.362,5.178,5.178,0,0,1,.623.039,118.17,118.17,0,0,1,21.024,4.124l1,.317a104.128,104.128,0,0,0,21.541,4.62c3.694.358,7.44.539,11.135.539a110.436,110.436,0,0,0,33.375-5.089,96.9,96.9,0,0,0,16.843-7.179,103.553,103.553,0,0,0,15.255-10.132,108.268,108.268,0,0,0,24.252-27.3c7.019-11.267,11.672-24.011,14.225-38.96,2.453-14.362,2.683-29.15,2.584-41.72-.228-29.893-1.2-61.166-2.89-92.951l-.28-5.159c-.715-13.089-1.64-30.351-2.449-47.81-.269-5.848-.654-10.624-1.211-15.03a39.576,39.576,0,0,1-14.309-13.79,141.029,141.029,0,0,1-20.441,6.43,122.385,122.385,0,0,1-29.191,3.585,115.192,115.192,0,0,1-17.182-1.283c-4.14,1.71-8.423,3.236-12.73,4.536-1.2.53-2.372,1.042-3.5,1.523a212.419,212.419,0,0,1-31.93,10.98l-2.7.673a110.358,110.358,0,0,1-18.2,3.267,26.538,26.538,0,0,1-3.291,1.01,53.5,53.5,0,0,1-12.614,1.5c-1.507,0-3.032-.064-4.535-.189a8.47,8.47,0,0,1-6.809-4.393,6.954,6.954,0,0,1-.8-3.361,7.468,7.468,0,0,1,1.063-3.656c2.223-3.814,4.515-7.7,6.81-11.55a214.565,214.565,0,0,1-24.5,8.419c-7.393,2.082-15.461,4.046-25.391,6.18-2.254.481-4.55.941-6.77,1.387l-.008,0-.008,0c-2.255.453-4.587.921-6.873,1.409-.724.154-1.531.291-2.386.436-3.024.512-6.445,1.092-8.505,2.754-2.272,1.824-3.263,5.465-4.138,8.678-.248.912-.483,1.774-.732,2.532-1.555,4.676-2.889,9.014-4.08,13.26A275.4,275.4,0,0,0,89.65,200.5a259.542,259.542,0,0,0-3.231,27.6c-.243,3.81-.343,7.693-.44,11.448-.138,5.351-.281,10.884-.839,16.292a6.422,6.422,0,0,1-1.929,4.023,5.5,5.5,0,0,1-3.775,1.528,5.9,5.9,0,0,1-3.916-1.571c-.437-.385-.9-.8-1.364-1.213l-.676-.617a68.99,68.99,0,0,1-9.169-9.76c-.47-.646-.931-1.335-1.371-2.05a.328.328,0,0,1-.2-.069l-.734-.553c-7.713-5.742-14.351-8.653-19.73-8.653a11.913,11.913,0,0,0-9.756,4.785c-2.571,3.258-3.86,7.467-4.867,11.156l-1.874,7a121.649,121.649,0,0,0-3.02,13.849,53.032,53.032,0,0,0-.04,16.26,29.684,29.684,0,0,0,6.5,14.7,18.387,18.387,0,0,0,11.279,6.39,14.147,14.147,0,0,0,1.947.126,34.415,34.415,0,0,0,4.475-.394l.027,0q.456-.06.913-.119a15,15,0,0,1,1.871-.106c.661,0,1.33.031,1.976.061h.005c.651.03,1.324.061,1.991.061.562,0,1.064-.022,1.537-.067.153-.015.305-.023.453-.023a3.964,3.964,0,0,1,3.448,1.984,5.721,5.721,0,0,1,.308,5.369,18.167,18.167,0,0,1-2.81,4.15,32.426,32.426,0,0,1,2.471,2.38,12.33,12.33,0,0,1,6.009,4.49,10.188,10.188,0,0,1,2.04,5.56c.127.446.245.923.37,1.5l2.146,3.481c.526.852.988,1.59,1.414,2.258A108.707,108.707,0,0,0,90.14,364.5c2.683,2.443,5.5,4.83,8.219,7.139a183.861,183.861,0,0,1,13.711,12.452l.8.841a52.5,52.5,0,0,1,8.591,11.12c2.445,4.623,3.088,9.006,1.966,13.4a4.689,4.689,0,0,1-4.367,3.27,3.4,3.4,0,0,1-2.043-.66c-4.383-3.253-7.526-7.73-10.565-12.06a76.126,76.126,0,0,0-6.675-8.6c-3.244-3.446-6.722-6.77-10.086-9.984l0,0c-3.272-3.126-6.655-6.359-9.821-9.7A78.044,78.044,0,0,1,65.4,350.085a11.648,11.648,0,0,1-8.016,3.277,10.979,10.979,0,0,1-6.052-1.861,12.382,12.382,0,0,1-4.223-4.766,37.879,37.879,0,0,1-4.271,1.62,8.617,8.617,0,0,1-2.517.393,7.433,7.433,0,0,1-6.3-3.59,9.713,9.713,0,0,1-1.478-4.405,9.444,9.444,0,0,1,.8-4.738,30.273,30.273,0,0,1,5.809-8.68,36.826,36.826,0,0,1-19.821-9.63,40.67,40.67,0,0,1-11.188-21.54,60.016,60.016,0,0,1-1.1-12.283A77.3,77.3,0,0,1,8.19,271.595a121.654,121.654,0,0,1,7.25-25.11c.627-1.532,1.231-2.9,1.849-4.171a1.3,1.3,0,0,1-.99-.48c-.755-1.031-1.576-2.011-2.37-2.958a28.945,28.945,0,0,1-4.17-5.911c-.332-.682-.678-1.378-1.013-2.051a76.048,76.048,0,0,1-3.366-7.419c-2.615-7.059-3.752-14.963-4.45-21.06a158.58,158.58,0,0,1,1.18-42.75,170.791,170.791,0,0,1,9.426-35.324A173.628,173.628,0,0,1,28.118,91.949a11.606,11.606,0,0,1-2.06-1.38l-.319-.278-.518-.468a8.553,8.553,0,0,1-2.716-6.22,9.838,9.838,0,0,1,2.716-7.1l1.093-1.1a28.988,28.988,0,0,1,4.812-3.961c.323-.217.662-.426,1.008-.623a9.567,9.567,0,0,1-.76-7.479,9.927,9.927,0,0,1,5-6.127,17.589,17.589,0,0,1,8.3-1.832,29.707,29.707,0,0,1,12.379,2.823A160.043,160.043,0,0,1,89.509,35.715,310.548,310.548,0,0,1,133.8,17.02a382.367,382.367,0,0,1,46.481-12.4A211.134,211.134,0,0,1,222.145,0c1.919,0,3.842.035,5.715.1l1.229.048a140.719,140.719,0,0,1,19.4,1.822c7.586,1.375,13.556,3.564,18.249,6.693a2.286,2.286,0,0,1,1.6-.688,1.954,1.954,0,0,1,.849.193c11.52,5.5,24.119,9.59,36.3,13.548l2.9.942A177.356,177.356,0,0,0,348.6,30.835a8.341,8.341,0,0,1,3.992,1.438,8.081,8.081,0,0,1,2.732,3.1,6.289,6.289,0,0,1-.441,6.414c-.8,1.227-1.569,2.449-2.279,3.586l1.134-.119h.006c.861-.091,1.752-.185,2.627-.273.18-.018.364-.027.547-.027a7.369,7.369,0,0,1,5.222,2.5A7.73,7.73,0,0,1,364.386,53a74.571,74.571,0,0,1-.83,7.5h.03l.258,0a11.147,11.147,0,0,1,4.363.845c3.408,1.44,5.489,4.14,6.361,8.256.731,3.449.494,7.342.19,11.035-.869,10.526-4.908,20.378-11.082,27.031a42.951,42.951,0,0,1,6.4,8.552,46.562,46.562,0,0,1,4.236,10.179,48.059,48.059,0,0,1,1.96,16.681l-.134,1.673c-.546,6.379-1.641,12.871-5.917,17.147a9.3,9.3,0,0,1-6.693,2.856c-.31,0-.626-.016-.937-.046,1.6,14.077,2.642,28.492,3.57,42.05l.451,6.7c1.244,18.817,2.078,34.286,2.625,48.682.67,17.642.9,33.579.7,48.722a208.31,208.31,0,0,1-1.452,22.5,155.263,155.263,0,0,1-4.208,21.8,124.627,124.627,0,0,1-7.62,20.734,111.491,111.491,0,0,1-11.689,19.3,125.614,125.614,0,0,1-14.016,15.635,123.478,123.478,0,0,1-16.39,13.019,119.108,119.108,0,0,1-18.372,9.994A114.071,114.071,0,0,1,276.23,440.4,116.407,116.407,0,0,1,250.311,443.271ZM63,290.8l-.165,0a10.766,10.766,0,0,1-6.9-2.776,34.718,34.718,0,0,1-5-5.842c-.505-.685-1.027-1.392-1.553-2.072a6.867,6.867,0,0,1-1.67,2.04l-.46.36a8.407,8.407,0,0,1-5.027,2.036c-.092,0-.184,0-.273-.006a9.849,9.849,0,0,1-4.12-1.111,7.465,7.465,0,0,1-3.4-3.97,8.549,8.549,0,0,1,3.056-10.16l-.6-.413a12.088,12.088,0,0,1-3.389-3.245l-.207-.331h.08a3.241,3.241,0,0,1,1.861-4.78,9.719,9.719,0,0,1,3.016-.448c4.238,0,8.953,2.193,12.743,3.954.38.177.772.359,1.152.533,6.036,2.77,11.242,6.957,15.97,11.07,2.147,1.874,3,5.1,2.28,8.63l-.036.178c-.048.242-.1.491-.155.742a6.838,6.838,0,0,1-2.672,3.981A7.7,7.7,0,0,1,63,290.8Z" transform="translate(48 65.001)"/></svg>