<svg xmlns="http://www.w3.org/2000/svg" width="516" height="567" viewBox="0 0 516 567"><g transform="translate(42)"><path d="M451.63,368.844c-3.964-5.862-13.509-48.4-19.606-54.945.46-25.13,7.407-112.137-12.436-151.249,4.174-4.221,15.266-40.576,12.436-54.319,9.348-28.782-50.705-74.5-73.56-86.848C252.243-35.476,98.321,27.4,50.014,132.912,20.985,196.457,20.45,267.6,17.168,335.978c-.388,14.636-1.733,29.385-1.718,44,2.1,12.845,12.284,25.926,4.563,36.608-8.529,5.9-25.767,20.271-18.092,28.42,4.5,3.745,11.683,1.572,16.564,5.173,2.485,1.391,4.035,4.437,6.941,4.9,26.546-1.008,45.278-1.095,71.906-2.171,11.657-.381,29.407,4.549,42.788-5.267,46.738,26,27.188-11.719,36.639-38.571,28.78,9.731,86.11,40.762,116.787,41.764,24.929,3.081,48.24-11.437,72.748-8.132,30.447,11.311,66.129,13.826,94.018-5.312,6.96-5.013,14.7.794,23.475-4.619C500.836,424.623,460.234,377.889,451.63,368.844Z" transform="translate(-20 56)" fill="#d08b5b"/><path d="M163.439,456.386c-5.117,0-12.745-2.858-23.319-8.74a29.918,29.918,0,0,1-10.894,4.96,49.008,49.008,0,0,1-11.557,1.212c-3.319,0-6.488-.21-9.989-.464l-.5-.036c-3.02-.22-5.871-.427-8.465-.427-.48,0-.945.007-1.381.021-13.9.562-25.881.86-37.468,1.148-10.688.266-21.739.54-34.438,1.023-1.753-.28-3.039-1.525-4.282-2.729a13.463,13.463,0,0,0-2.659-2.172c-2.4-1.772-5.394-2.15-8.287-2.515-3.082-.389-5.993-.756-8.278-2.658a6.819,6.819,0,0,1-1.875-5.616c.373-3.534,2.981-7.79,7.753-12.648a89.709,89.709,0,0,1,12.214-10.156,14.52,14.52,0,0,0,2.514-5.647,18.251,18.251,0,0,0,.172-5.986c-.495-4.086-2.007-8.259-3.608-12.676a70.605,70.605,0,0,1-3.641-12.3c-.008-8.583.459-17.354.911-25.836.318-5.96.646-12.123.807-18.168l.289-6.161c.19-4.131.376-8.345.556-12.42l0-.048c1.368-30.945,2.782-62.944,7.136-94.009a385.982,385.982,0,0,1,9.114-46.028c2.054-7.718,4.378-15.271,6.907-22.45,2.657-7.539,5.631-14.925,8.842-21.952A199.75,199.75,0,0,1,86.739,79.175a238.269,238.269,0,0,1,24.686-22.66,257.709,257.709,0,0,1,27.928-19.365,266.333,266.333,0,0,1,62.66-27.372,251.886,251.886,0,0,1,33.272-7.272A231.022,231.022,0,0,1,268.878,0a202.813,202.813,0,0,1,46.2,5.2,177.45,177.45,0,0,1,43.389,16.281,200.374,200.374,0,0,1,22.45,14.734A250.184,250.184,0,0,1,407.32,58.746c14.08,13.969,29.795,33.911,24.7,49.585,1.219,5.918-.215,15.4-1.633,22.32a166.032,166.032,0,0,1-6.814,23.964,36.548,36.548,0,0,1-8.245,4.447,66.252,66.252,0,0,1-10.98,3.177c-8.193,1.686-18.34,2.542-30.158,2.542-16.726,0-37.371-1.711-61.363-5.088s-52-8.514-83.265-15.269l-4.115-.894-36.6,21.689-15.035,56.5a107.571,107.571,0,0,0-13.689,16.637A125.285,125.285,0,0,0,149.341,258.3a47.953,47.953,0,0,0-9.216-7.343,50.244,50.244,0,0,0-10.605-5.049,43.262,43.262,0,0,0-13.79-2.295c-1.313,0-2.644.063-3.957.187a135.5,135.5,0,0,0-19,9.731A67.742,67.742,0,0,0,79.548,264.1a17.311,17.311,0,0,0-3.827,7.052,38.159,38.159,0,0,0-1.343,10.394c-.067,8.006,1.536,18.374,4.764,30.815l.406,1.542,32.225,10.033h14.954l41.085,50.211,6,51.652c-.173,2.9-.24,5.736-.3,8.482-.147,6.264-.275,11.673-1.562,15.664C170.527,454.338,167.824,456.386,163.439,456.386ZM412,451.494a119.821,119.821,0,0,1-23.218-2.371,146.931,146.931,0,0,1-22.492-6.416,56.794,56.794,0,0,0-7.561-.493c-1,0-2.04.025-3.079.074l-1.453-4.552,33.318-28.66,35.55-71.58,9.357-35.441-.207,5.331c-.1,2.772-.163,4.842-.194,6.514,3.521,3.778,8.17,19.486,12.271,33.345,3.037,10.261,5.659,19.122,7.335,21.6l.858.914a281.245,281.245,0,0,1,21.925,27.1,116.538,116.538,0,0,1,10.2,17.02c2.708,5.818,3.762,10.446,3.133,13.754a6.857,6.857,0,0,1-3.959,5.148,17.8,17.8,0,0,1-9.872,2.52c-.945,0-1.866-.035-2.758-.07h-.036c-.915-.035-1.778-.068-2.648-.068a13.086,13.086,0,0,0-8.162,2.238,78.187,78.187,0,0,1-23.253,10.8A93.082,93.082,0,0,1,412,451.494Z" transform="translate(-20 56)" fill="#d6b370"/><path d="M428.936,455.488a62.684,62.684,0,0,1-19.443-3.4,66.967,66.967,0,0,1-17.131-8.381,49.157,49.157,0,0,1-6.883-5.481,94.489,94.489,0,0,1-25.319,9.541,123.531,123.531,0,0,1-27.2,2.905,152.59,152.59,0,0,1-26.911-2.458,119.17,119.17,0,0,1-20.069-5.363,90.947,90.947,0,0,1-18.555-9.283A68.834,68.834,0,0,1,252.891,420.9a70.463,70.463,0,0,1-10.4-16.218,1.212,1.212,0,0,1,.1-1.168,1.158,1.158,0,0,1,.936-.577.943.943,0,0,1,.731.382,73.2,73.2,0,0,0,15.624,14.048,96.6,96.6,0,0,0,18.915,9.786,140.024,140.024,0,0,0,41.455,8.785c3.612.23,7.15.347,10.515.347a127.691,127.691,0,0,0,16.558-1.03,97.365,97.365,0,0,0,16.189-3.5,78.8,78.8,0,0,0,34.037-21.693,125.1,125.1,0,0,0,13.026-16.492,166.692,166.692,0,0,0,10.558-18.428,272.746,272.746,0,0,0,15.381-39.413,301.2,301.2,0,0,0,10.115-43.878,364.184,364.184,0,0,0,4.036-44.878,243.2,243.2,0,0,0-2.5-45.521c-1.251-7.876-3.1-15.747-4.885-23.358v-.005c-1.592-6.78-3.237-13.79-4.455-20.779a2.191,2.191,0,0,1,.5-1.809,2.243,2.243,0,0,1,1.675-.829,1.777,1.777,0,0,1,1.592,1.048A116.285,116.285,0,0,1,452,181.166c2.257,8.8,3.813,17.65,5.339,26.7a335.325,335.325,0,0,1,5.1,53.859,242.145,242.145,0,0,1-3.556,41.958l.289.992c.544,1.856,1.087,3.694,1.615,5.462l.821,2.728c.635,2.1,1.259,4.207,1.863,6.248l.005.018c.919,3.1,1.868,6.314,2.849,9.458,3.271,10.49,6.913,21.674,11.368,32.394a172.937,172.937,0,0,0,15.672,29.511,101.843,101.843,0,0,0,8.073,10.084c4.423,5.073,9,10.316,11.554,16.368a6.027,6.027,0,0,1-.487,5.542,4.229,4.229,0,0,1-3.6,1.992,4.867,4.867,0,0,1-.659-.046,1.72,1.72,0,0,1-1.208.6c-.892.078-1.794.115-2.759.115-2.228,0-4.474-.211-6.456-.4a1.36,1.36,0,0,1,0-2.719c1.585-.149,2.794-.245,3.921-.31a42.8,42.8,0,0,1-11.674-10.89,133.56,133.56,0,0,1-8.788-13.273c-5.881-9.764-10.975-21.169-15.574-34.866a271.38,271.38,0,0,1-9.456-37.82c-.255-1.386-.51-2.836-.778-4.433a294.356,294.356,0,0,1-11.388,37.13l-.639,1.667c-2.884,7.477-5.719,14.125-8.666,20.322a192.433,192.433,0,0,1-10.6,19.505,139.913,139.913,0,0,1-13.066,17.774,109,109,0,0,1-16.069,15.128c-.943.717-1.985,1.464-3.277,2.349l1.346.772c1.481.846,2.72,1.526,3.951,2.1a77.918,77.918,0,0,0,15.107,5.137c7.968,1.872,16.344,1.935,24.443,2h.016c2.664.02,5.419.041,8.105.127a4.17,4.17,0,0,1,3.771,3.395,3.225,3.225,0,0,1-1.831,3.769,39.411,39.411,0,0,1-8.774,2.967A43.465,43.465,0,0,1,428.936,455.488Zm-385.1-.026a6.1,6.1,0,0,1-3.528-1.113A6.247,6.247,0,0,1,38,451.257l-.074-.223a4.686,4.686,0,0,0-2.895-2.969,12.4,12.4,0,0,0-4.674-.762,27.52,27.52,0,0,0-5.152.538l-1.065.217c-.668.139-1.345.284-2,.425l-.074.016A57.3,57.3,0,0,1,10.2,450.194a23.573,23.573,0,0,1-6.22-.79,5.134,5.134,0,0,1-2.746-1.859,6.1,6.1,0,0,1-1.2-3.028A5.512,5.512,0,0,1,.5,441.571a4.814,4.814,0,0,1,2.166-2.228,139.962,139.962,0,0,0,18.008-11.324c5.69-4.146,11.271-8.672,16.668-13.049l0,0,1.719-1.394a112.852,112.852,0,0,1-4.576-15.27l0-.011c-.366-1.467-.744-2.985-1.125-4.436-2.117-8.06-2.894-16.682-3.644-25.02-.081-.9-.174-1.929-.265-2.92A523.645,523.645,0,0,1,27.383,312.9c.15-15.241.938-30.268,2.341-44.662a440.627,440.627,0,0,1,6.529-44.168,381.055,381.055,0,0,1,11.3-43.112A337.7,337.7,0,0,1,64.22,139.464a266.311,266.311,0,0,1,19.7-34.062,276.411,276.411,0,0,1,24.428-30.852A207.7,207.7,0,0,1,136.95,48.62a223.7,223.7,0,0,1,32.821-20.338,1.232,1.232,0,0,1,.559-.145,1.007,1.007,0,0,1,.95.712,1.139,1.139,0,0,1-.42,1.295C149.515,46.513,129.238,67.936,112.222,92.1a336.049,336.049,0,0,0-36.87,68.128A368.849,368.849,0,0,0,54.292,234.8a411.421,411.421,0,0,0-5.18,45.523c-.872,14.328-1.158,29.317-.877,45.825.195,11.477.809,22.833,1.671,36.354l.87,13.423a177.563,177.563,0,0,1,.481,18.737l-.071,1.452c-.127,2.246-.148,4.533-.168,6.745-.045,4.982-.091,10.13-1.361,15.071a4.412,4.412,0,0,1-7.969,1.04c-.316-.541-.647-1.151-1.04-1.921A89.492,89.492,0,0,1,24.31,436.277a31.655,31.655,0,0,1,6.715-.817,20.626,20.626,0,0,1,2.445.142,20.06,20.06,0,0,1,12.509,5.844,23.794,23.794,0,0,1,10-2.389h.018a3.751,3.751,0,0,1,3.256,2.026,3.423,3.423,0,0,1-.077,3.545c-3.17,4.881-7.62,7.539-12.285,10.049A6.47,6.47,0,0,1,43.833,455.462Zm151.051-4.549a3.852,3.852,0,0,1-2.429-.775,3.739,3.739,0,0,1-1.321-2.526c-.906-6.56-1.6-13.225-2.272-19.671v-.006c-.819-7.859-1.665-15.985-2.9-23.914a162.36,162.36,0,0,0-5.3-23.6,163.133,163.133,0,0,0-5.96-15.993c-2.177-5.037-4.693-10.2-7.477-15.333a262.692,262.692,0,0,0-18.313-28.8.979.979,0,0,1-.068-1.05,1.327,1.327,0,0,1,1.124-.719.984.984,0,0,1,.549.165,105.8,105.8,0,0,1,26.174,24.79,139.866,139.866,0,0,1,17.692,31.532,154.991,154.991,0,0,1,5.979,17.458A121.66,121.66,0,0,1,204,410.956c1.539,13.624.223,25.957-3.912,36.656A5.718,5.718,0,0,1,194.885,450.912Zm-72.654-7.738a5.852,5.852,0,0,1-4.24-1.688,5.166,5.166,0,0,1-1.359-3.908c.149-3.378,1.4-5.758,2.849-8.515l.005-.01c.361-.686.734-1.4,1.1-2.145,1.222-2.489,2.289-5.1,3.171-7.322l1.461-3.712a229.152,229.152,0,0,0,7.818-22.223.369.369,0,0,1,.367-.264.388.388,0,0,1,.285.115.324.324,0,0,1,.084.249c-.105,1.639-.205,3.306-.3,4.918-.376,6.264-.764,12.741-1.561,19.039-.3,2.391-.671,4.812-1.028,7.154v.007c-.217,1.426-.442,2.9-.65,4.358-.119.831-.21,1.674-.3,2.489-.341,3.157-.662,6.138-2.471,8.794A6.275,6.275,0,0,1,122.231,443.174Zm-40.355-1.168A4.929,4.929,0,0,1,77.2,436.28c.626-3.611,2.3-7.264,3.915-10.8.86-1.88,1.749-3.822,2.444-5.691,1.631-4.392,3.2-9.153,4.925-14.982,2.971-10.012,5.62-20.867,7.874-32.266a.5.5,0,0,1,.516-.4.637.637,0,0,1,.455.185.484.484,0,0,1,.134.366,263.09,263.09,0,0,1-3.811,33.541c-.8,4.446-1.778,9.252-3.087,15.125l-.484,2.152c-.259,1.145-.494,2.309-.742,3.541-.891,4.423-1.811,8.992-3.913,12.694A4.05,4.05,0,0,1,81.875,442.007Zm80.373-6.271a6,6,0,0,1-3.873-1.581,6.063,6.063,0,0,1-2.081-3.824c-.46-4.08.983-8.1,2.378-11.978.351-.976.713-1.985,1.035-2.97.251-.771.488-1.558.717-2.32a34.735,34.735,0,0,1,2.516-6.676,24.1,24.1,0,0,0-2.712.689c-.367.109-.714.211-1.057.3a.481.481,0,0,1-.125.017.392.392,0,0,1-.384-.345.428.428,0,0,1,.286-.488c.348-.123.721-.247,1.051-.355a11.705,11.705,0,0,0,4.658-2.353l.238-.245a1.441,1.441,0,0,1,1.074-.5,1.965,1.965,0,0,1,1.694,1.23c1.424,3.425,1.178,7.322.94,11.091-.065,1.028-.132,2.091-.16,3.107l-.024,1.014q-.009.428-.016.853l0,.095c-.08,4.356-.156,8.47-2.148,12.526A4.389,4.389,0,0,1,162.249,435.736Zm306.015-1.779c-.125,0-.254-.006-.385-.018a51,51,0,0,1-16.641-4.46,46.155,46.155,0,0,1-7.521-4.362,39.28,39.28,0,0,1-6.4-5.714.774.774,0,0,1-.161-.857.818.818,0,0,1,.747-.482.893.893,0,0,1,.379.087,102.992,102.992,0,0,0,14.421,5.581,77.51,77.51,0,0,0,15.177,2.9,3.854,3.854,0,0,1,3.5,4.173A3.074,3.074,0,0,1,468.264,433.956ZM126.1,332.119a29.792,29.792,0,0,1-15.864-4.63,41.038,41.038,0,0,1-12.41-12.139,46.63,46.63,0,0,1-6.591-15.7,55.133,55.133,0,0,1,3.4-33.939,43.752,43.752,0,0,1,6.087-9.785,49.475,49.475,0,0,1,8.628-8.313,42.525,42.525,0,0,1,10.275-5.772,30.8,30.8,0,0,1,11.028-2.162,24.428,24.428,0,0,1,9.26,1.784,26.575,26.575,0,0,1,8.616,5.785.524.524,0,0,1,.09.576.47.47,0,0,1-.42.321.446.446,0,0,1-.171-.036,22.218,22.218,0,0,0-8.552-1.647,31.093,31.093,0,0,0-13.419,3.3,37.076,37.076,0,0,0-11.026,8.15,40.776,40.776,0,0,0-7.4,11.409,41.587,41.587,0,0,0-3.291,13.2,39.5,39.5,0,0,0,1.208,13.688,31.062,31.062,0,0,0,6.329,12.132,27.646,27.646,0,0,0,5.583,5.07,15.074,15.074,0,0,0,6.995,2.616c.293.026.591.039.888.039,2.755,0,5.323-1.121,7.807-2.2a28.121,28.121,0,0,1,5.541-1.972,6.779,6.779,0,0,1,1.338-.138,5.173,5.173,0,0,1,3.71,1.466,6.1,6.1,0,0,1,1.717,3.824,11.563,11.563,0,0,1-4.121,9.777,20.708,20.708,0,0,1-9.854,4.792A29.154,29.154,0,0,1,126.1,332.119Zm8.073-34.637a3.735,3.735,0,0,1-2.779-1.553c-1.339-1.759-1.589-3.963-.744-6.55a19.708,19.708,0,0,1,3.493-6.008c.353-.43.734-.859,1.133-1.277a26.416,26.416,0,0,0-3.263-2.108,19.65,19.65,0,0,0-9-2.331,12.185,12.185,0,0,0-5.764,1.316,9.724,9.724,0,0,0-4.221,4.423.521.521,0,0,1-.482.3.693.693,0,0,1-.446-.169.576.576,0,0,1-.207-.439,12.6,12.6,0,0,1,5.581-10.334,23.191,23.191,0,0,1,11.535-4.123c.57-.047,1.154-.071,1.738-.071,5.378,0,10.557,2.021,14.913,4l.976.448c.691.321,1.4.64,2.088.95,1.252.563,2.543,1.145,3.779,1.759a3.362,3.362,0,0,1,.184-2.751c3.645-7.118,8.954-13.525,14.089-19.721,3.323-4.011,6.759-8.157,9.689-12.436a193.934,193.934,0,0,0,18.778-34.382,208.573,208.573,0,0,0,11.447-36.072,1.308,1.308,0,0,1-.263.027,1.635,1.635,0,0,1-1.165-.528,1.373,1.373,0,0,1-.394-1.029,5.783,5.783,0,0,1,3.168-5.113,190.609,190.609,0,0,0,3.136-35.215.636.636,0,0,1,.663-.678.725.725,0,0,1,.744.678,196.347,196.347,0,0,1,.225,31.8c1.921-1.768,3.912-3.528,5.836-5.23,3.091-2.733,6.287-5.56,9.257-8.472,7.438-7.3,14.511-14.688,21.02-21.974a266.064,266.064,0,0,0,19.386-24.2l3.121-4.442c4.643-6.588,9.684-13.507,15.765-19.321a5.052,5.052,0,0,1,3.545-1.445,5.56,5.56,0,0,1,4.332,2.136,4.921,4.921,0,0,1,.82,4.371,61.021,61.021,0,0,1-6.531,15.125,118.633,118.633,0,0,1-9.5,13.52A259.636,259.636,0,0,1,258.5,134.2a201.7,201.7,0,0,1-24.413,20.419l-2.6,1.842c-5.7,4.018-12.375,8.574-19.453,11.784a184.6,184.6,0,0,1-9.786,41.771,201.215,201.215,0,0,1-17.986,37.212l-1.044,1.679a140.462,140.462,0,0,1-11.279,16.085c-4.825,5.734-9.656,9.809-14.771,12.456a3.652,3.652,0,0,1-1.017.348,15.107,15.107,0,0,1,5.953,6.874,4.53,4.53,0,0,1-.032,3.626,7.953,7.953,0,0,1-4.287,3.983,9.859,9.859,0,0,1-3.634.7c-4.737,0-9.384-3.373-13.368-6.535-.249.56-.452,1.062-.619,1.532-.261.739-.482,1.486-.7,2.209-.778,2.62-1.513,5.094-3.907,6.841A2.317,2.317,0,0,1,134.174,297.481Zm314.058-150.61a5.389,5.389,0,0,1-4-2.1,5.733,5.733,0,0,1-1.335-4.634,91.16,91.16,0,0,0-1.575-40.559,121.434,121.434,0,0,0-17.066-37,102.562,102.562,0,0,0-19.518-21.529,125.34,125.34,0,0,0-24.09-15.594,171.061,171.061,0,0,0-27.011-10.618,239.1,239.1,0,0,0-28.279-6.6,275.883,275.883,0,0,0-46.973-4.073c-3.093,0-6.223.054-9.3.161a208.128,208.128,0,0,0-21.65,1.711,106.654,106.654,0,0,0-21.1,4.963.5.5,0,0,1-.163.03.416.416,0,0,1-.4-.368.493.493,0,0,1,.308-.566,131.428,131.428,0,0,1,25.473-6.659A254.156,254.156,0,0,1,277.777.62C284.371.209,290.975,0,297.4,0a262,262,0,0,1,52.749,5.111,206.773,206.773,0,0,1,25.505,6.947,176.746,176.746,0,0,1,24.195,10.37,111.285,111.285,0,0,1,27.013,19.8,122.238,122.238,0,0,1,20.2,26.8,125.884,125.884,0,0,1,8.638,18.72,100.208,100.208,0,0,1,5.06,19.957,53.38,53.38,0,0,1-.543,19.8,42.637,42.637,0,0,1-3.224,9.086,46.012,46.012,0,0,1-5.477,8.565A4.177,4.177,0,0,1,448.233,146.871Zm-166.2-4.85a1.129,1.129,0,0,1-1.026-.676.848.848,0,0,1,.26-.959,232.632,232.632,0,0,0,32.509-36.833,178.259,178.259,0,0,0,12.254-20.862c.7-1.366,1.39-2.844,2.117-4.408l.005-.011c2.657-5.719,5.668-12.2,10.665-15.369a3.307,3.307,0,0,1,1.794-.53,4,4,0,0,1,3.645,2.745c2.611,7.813-3.039,18.246-6.414,24.479a139.71,139.71,0,0,1-14.723,21.165A113,113,0,0,1,304.583,128.7a108.889,108.889,0,0,1-22.124,13.228A1.045,1.045,0,0,1,282.031,142.021Zm94.692-.493a.538.538,0,0,1-.483-.322.493.493,0,0,1,.105-.548A118.658,118.658,0,0,0,397.33,108.4c3.559-8.071,5.647-16.553,7.666-24.755.943-3.83,1.918-7.79,3.036-11.691a4.157,4.157,0,0,1,1.715-2.364,4.874,4.874,0,0,1,2.662-.769,4.609,4.609,0,0,1,3.373,1.359,3.85,3.85,0,0,1,1,2.958A64.977,64.977,0,0,1,412.1,92.7a119.684,119.684,0,0,1-9.133,18.054,131,131,0,0,1-25.892,30.633A.531.531,0,0,1,376.723,141.529Zm-44.412-.824a.471.471,0,0,1-.427-.282.368.368,0,0,1,.111-.415,120.373,120.373,0,0,0,13.555-15.144,128.249,128.249,0,0,0,10.88-17.174,122.151,122.151,0,0,0,8.164-19.232c.922-2.831,1.63-5.773,2.314-8.618a96.66,96.66,0,0,1,2.8-10.022,4.134,4.134,0,0,1,1.75-2.137,4.963,4.963,0,0,1,2.57-.715,3.972,3.972,0,0,1,2.95,1.179,3.521,3.521,0,0,1,.831,2.771,51.033,51.033,0,0,1-2.038,10.173,78.56,78.56,0,0,1-3.874,10.074,141.87,141.87,0,0,1-10.514,18.488,125.113,125.113,0,0,1-13.15,16.629A140.938,140.938,0,0,1,332.591,140.6.452.452,0,0,1,332.311,140.7Z" transform="translate(-42 58)"/></g></svg>