<svg xmlns="http://www.w3.org/2000/svg" width="541.944" height="567" viewBox="0 0 541.944 567"><g transform="translate(49)"><path d="M185.625,0c56.781,0,115.511,44.012,136.324,72.1C346.015,104.572,365,260.469,356.094,313.368S302.949,423.924,226.15,423.924s-123.536-9.459-125.41-23.2-50.654-90.219-50.654-90.219S.2,296.473,0,262.954,26.736,217.24,26.736,217.24s-9.6-132.279,14.58-166.718S128.844,0,185.625,0Z" transform="translate(56.417 75.26)" fill="#d08b5b"/><path d="M324.105.191c8.928-1.967,12.56,11.846,3.744,13.38-6.037,1.05-12.085,2.37-18.053,3.967a18.659,18.659,0,0,1,7.207.928l1.388-.484c19.237-6.66,40.109-11.686,60.334-6.566,16.584,11.958-24.134,13.787-30.7,15.368,21.908,1.326,44.666-3.633,65.953,4.272,8.168,3.255,4.922,15.824-9.616,10.024a7.545,7.545,0,0,1,.283,3.238,44.164,44.164,0,0,1,19.41,6.251c44.739-1.1,60.866,35.307,23.2,22.72a12.363,12.363,0,0,1,2.481,2.742l.59.043c9.98.8,36.342,6.547,34.939,18.485,6.913,1.509,14.449,4.053,19.676,8.182,5.851,4.621-.532,13.564-6.994,11.839a28.2,28.2,0,0,1-5.569-2.278,14.548,14.548,0,0,1-2.746,2.277c11.264,9.124,26.191,16.788,32.045,30.542a6.618,6.618,0,0,1-4.653,8.073c-11.876,2.822-21.615-6.293-29.735-14.97a52.125,52.125,0,0,1,3.222,13.51,60.994,60.994,0,0,1,19.292,17.154c8.661,4.893,19.435,12.924,19.694,22.879.189,7.239-6.868,11.225-13.369,10.035l-.218-.05h0c3.1,5.348,4.639,11.137,5.68,17.53l.634.391c6.133,3.809,12.283,8.465,12.459,16,.136,5.769-5.621,9.4-10.957,8.223a12.134,12.134,0,0,1-2.142-.693c.022.194.045.387.062.582,2.163,1.64,4.307,3.3,6.392,5.034l1.713,1.436c7.127,6.04,13.883,12.85,11.805,23.017-.71,3.48-4.246,5.289-7.477,5.609a15.561,15.561,0,0,1-2.093.054l.276.721c4.48,11.926,7.327,30.964-7.079,29.323,2.255,19.463-9.535,22.358-17.595,12.58,9.5,11.293,26.789,82.76-3.419,70.055-1.331,15.969-4.267,32.153-11.58,46.6l-.212.475c-3.73,8.1-20.158,32.106-25.468,14.534,3.81-21.794,14.681-42.475,16.435-64.809-2.134-.333-3.955-2.4-4.748-4.675A71.822,71.822,0,0,1,463.78,414.5q-1.714,4.576-3.866,9.042a128.245,128.245,0,0,1-17.17,26.39c-3.6,4.33-7.42,8.54-12.12,11.709-3.741,2.521-8.111,4.181-12.321,5.781-6.849,6.84-15.639,12.01-24.229,16.14-14.16,6.79-29.51,10.54-45.04,12.42a164.209,164.209,0,0,1-47.67-1.28c-15.05-2.6-31.181-9.25-40.45-21.92-.8-1.09.689-2.12,1.669-1.67,26.9,12.45,57.13,15.7,86.451,11.77a135.542,135.542,0,0,0,39.63-11.48c10.54-4.95,19.429-12.15,28.889-18.67a80.418,80.418,0,0,1,5.821-7.1l3.309-3.47a103.378,103.378,0,0,0,23.311-37.35c7.256-20.419,5.293-42.585,4.011-63.865l-.111-1.875q-1.713-29.539-5.291-58.9a13.7,13.7,0,0,1-4.7-2.695c-5.338-33.28-20.722-67.287-46.711-89.735a136.711,136.711,0,0,1,25.652,71.473c.311,4.554-5.93,4.5-7.386.986-14.466-37.8-21.829-78.576-66.071-93.357-17.56,23.707-25.238,52.49-40.022,77.586-3.743,5.845-11.891,3.044-12.5-3.335-1.72-17.989,5.523-35.845,14.512-51.582l-7.316,8.752c-56.345,67.538-60.951,77.624-54.9,181.086-.551,5.176-7.23,7.636-10.287,2.744-17.168-32.776-9.8-73.04-4.9-108.067-1.763,3.469-3.443,6.948-5.077,10.48-1.108-3.585-3.059.4-2.6,5.712-2.98,6.714-5.793,13.623-8.33,20.667.16,22.425,7.625,43.865,7.64,66.255.5,6.252-7.962,7.22-10.994,2.934a124.626,124.626,0,0,1-7.088-10.911c.3,9.353,4.074,17.656,6.67,26.411,1.774,3.122,2.587,6.37,1.431,9.889l-.118.341c-1.9,5.772-8.867,7-13.253,3.051a32.385,32.385,0,0,1-1.341,10.776,99.1,99.1,0,0,1,12.175,19.154c1.83,4.295-.643,7.874-4.23,9.61,3,7.477,4.233,15.213,1.621,22.614-.78,2.23-4.04,3.03-5.311.69-4.17-7.7-6.5-16.18-10.46-23.97q-1.1-2.155-2.288-4.254a69.811,69.811,0,0,1-11.485-13.175c-12.273,14.424-23.88-16.489-26.077-25.9l-.98-.907h0c2.379,22.31,15.687,42.716,15.9,65.115-.478,4.667-5.595,8.964-10.31,5.829-16.349-12.215-19.832-34.308-24.362-52.847a7.715,7.715,0,0,1-2.286.694c-.862,12.543,28.4,53.1,4.694,53.159-26.244-13.237-23.272-51.408-26.8-76.155-1.6,7.369-.188,19.475-5.563,24.819,22.8,55.378-15.561,37.715-25.024-3.728a19.8,19.8,0,0,1-4.216,4.5c-3.447,2.667-8.006,2.581-10.537-1.337-5.208-8.065-3.363-17.634-1.176-26.522C43.978,388.284,35.3,368.053,33.756,346.6a24.61,24.61,0,0,1-1.7,2.242c-2.424,2.815-7.31,1.812-9.041-1.148-5.063-8.653-2.6-19.668,1.65-28.986a7.666,7.666,0,0,1-3.352-2.573c-6.929-11.373-9.067-24.219-8.349-37.265a22.473,22.473,0,0,1-3.087,2.58c-3.423,2.356-7.774-.208-8.945-3.586-3.792-10.93,4.754-21.978,11.955-29.382a53.88,53.88,0,0,1,8.562-7.194c1.5-4.109,3.11-8.1,4.76-11.928a44.481,44.481,0,0,1-4.342-15.419,24.673,24.673,0,0,1-8.289,8.511c-3.431,2.079-7.368-.666-7.589-4.29-.666-10.936,8.036-20.561,14.542-28.672l.653-.838c1.15-1.5,2.955-3.908,5.011-6.158q.495-1.479,1.028-2.941c-5.049,2.7-12.836.724-12.395-6.271,1.011-22.678,25.106-33.672,32.093-53.715-35.413,31.395-31.635-8.937-6.726-24.623,1.994-1.651,4.052-3.2,6.139-4.706a5.552,5.552,0,0,1-1.1-8.6c7.275-7.962,18.34-9.608,28.71-10.478A67.514,67.514,0,0,1,84.917,71.1l1,.086.283-.08a72.165,72.165,0,0,1,7.7-7.64c-19.606-3.7-1.019-32.067,43.783-21.741,2.45-1.238,4.977-2.343,7.533-3.349a131.6,131.6,0,0,1-19.967-2.263c-5.9-1.2-6.886-10-1.683-12.681,20.8-10.279,44.8-7.741,67.089-2.574a7.117,7.117,0,0,1-.811-3.315c-7.384-.708-8.038-11.954.462-12.6a85.047,85.047,0,0,1,40.5,7.115q2.419-.281,4.868-.359c2.376-24.793,35.182-4.231,42.4,7.7C292.366,10.523,307.6,3.758,324.105.191Z" transform="translate(-49 7.999)"/></g></svg>