<svg xmlns="http://www.w3.org/2000/svg" width="733.213" height="687" viewBox="0 0 733.213 687"><g transform="translate(150 120)"><path d="M350.514,160.945C343.65,77.27,322.75,3.16,224.545,0A342.908,342.908,0,0,0,94.234,27.231C-4.822,76.9-36.251,258.378,51.02,331.432a.927.927,0,0,0-.031,1.56c18.03,12.13,38.071,22.11,58.143,30.5,53.466,22.6,116.407,32.422,170.934,7.9,83.213-35.408,84.461-133.933,70.448-210.446Z" transform="translate(58 113.999)" fill="#d08b5b"/><path d="M722.306,355.943a24.878,24.878,0,0,0,7.26-11.65,22.79,22.79,0,0,0,.01-12.76c-1.34-4.42-4.23-7.94-3.58-12.54a10.505,10.505,0,0,1,.3-1.39c2.5-8.66,8.65-14.91,6.45-24.51a16.63,16.63,0,0,0-3.42-7.07c.18-2.08.34-4.18.47-6.28a33.517,33.517,0,0,0-.37-26.81,101.312,101.312,0,0,0-2.18-12.63,24.275,24.275,0,0,0-1.36-10.92,155.211,155.211,0,0,0-7.415-16.688,6.148,6.148,0,0,0-.646-4.486,41.71,41.71,0,0,0-5.516-7c-1.435-2.563-2.88-5.1-4.313-7.614-.664-1.153-1.4-2.432-2.205-3.787,2.2-4.086,3.378-8.068,1.049-12.873a5.945,5.945,0,0,0-5.262-3.018c-2.165.129-4.35.226-6.547.309-4.106-4.958-8.759-9.409-13.745-11.971-5.05-4.28-10.17-8.48-15.15-12.77-1.41-1.22-2.83-2.44-4.24-3.66-.01-.03-.02-.07-.03-.1-1.04-3.79-2.21-7.53-3.38-11.29-.73-2.33-.95-4.77-3.22-6.04-4.74-2.65-12.03-3.07-17.47-3.52-.54-.48-1.08-.95-1.62-1.43a25.427,25.427,0,0,0-1.08-20.16c-1.06-2.24-4.74-3.25-6.76-1.77a22.622,22.622,0,0,1-15.66,4.13c-8.04-6.18-40.47-34.126-45.481-37.076-.062-.106-.112-.212-.178-.317a40.667,40.667,0,0,0-10.084-11.006l-1.647-1.721a20.932,20.932,0,0,1,3.8-9.51c.22-.32.47-.63.72-.93,3.58-4.26-.79-9.74-5.79-7.51-.36.16-.72.32-1.08.49-3.844,1.714-8.1,3.577-12.526,5.149-1.621-.607-3.273-1.157-4.78-1.763l-16.136-6.487c-2.656-1.068-5.464-1.973-8.033-3.228-.9-5.959-6.868-9.867-13.07-9.663a11.611,11.611,0,0,1,1.645-3.308c.22-.31.46-.61.71-.9,3.19-3.71-1.07-10.59-5.63-7.29-.32.23-.65.46-.97.69-1.267.889-2.564,1.723-3.875,2.531a8.823,8.823,0,0,0-6.937-.156,71.38,71.38,0,0,0-15.351,7.688c-.2.137-.4.252-.6.381a13.135,13.135,0,0,0-9.618-4.805l-.186,0a12.579,12.579,0,0,0-11.78-5.614c.306-5.595-5.3-10.588-10.394-11.2a12.019,12.019,0,0,0-13.116,8.563q-.747,2.427-1.493,4.856a52.678,52.678,0,0,0-14.608-5.017c-11.613-2.034-22.968.132-34.159,3.356-1.118.322-2.235.653-3.352.983-1.6-1.849-3.093-3.742-4.524-5.509-2.47-3.05-8.4-.61-8,3.31a6.422,6.422,0,0,1-2.59,6.034,38.369,38.369,0,0,1-6.653.313,21.874,21.874,0,0,1-9.36-1.719,12.348,12.348,0,0,1-5.158-4.253c-4.075-6.427-14.426-8.158-19.356-2.03-5.188-2.271-11.738.861-14.618,5.277-1.507,2.309-4.651,3.6-8.609,4.71-2.971.832-6.009,1.462-9.061,2.013-1.36-1.845-4.224-3.082-6.325-1.535-1.423,1.051-2.8,2.13-4.168,3.236-10.51,1.448-20.965,1.5-30.986-2.6C230.788,16.611,223,26.088,224.4,34.044c-2.457,1.279-5.123,2.13-7.55,3.47A29.922,29.922,0,0,0,204.555,50.5c-.475.973-.9,1.961-1.313,2.954-1.979,1.611-3.936,3.265-5.846,5.01q-4.77-2.445-9.53-4.89c-2.38-1.22-6.39-.37-6.86,2.79a28.72,28.72,0,0,1-5.31,13.12,217.326,217.326,0,0,0-25.02,15.37c-9.19,2.88-18.96,4.56-26.99,6.45a4.552,4.552,0,0,0-2.7,6.63q2.46,3.795,4.91,7.59-6.855,6.69-12.91,13.94a259.08,259.08,0,0,0-29.14,43.65q-5.01,2.025-10.02,4.04c-3.22,1.3-4.67,5.04-2.06,7.79a29.807,29.807,0,0,1,3.3,4.14c-4.73,7.83-10.3,14.97-18.09,19.65a12.216,12.216,0,0,0-5.1,6.18c-.81.54-1.61,1.12-2.4,1.71-2.2,1.66-3.53,5.28-.95,7.43a29.825,29.825,0,0,1,4.95,5.31c.31,1.13.63,2.27.95,3.4a84.159,84.159,0,0,0-17.78,23.08,3.976,3.976,0,0,0-3.06.6c-8.08,5.97-8.32,15.48-5.07,23.98a86.834,86.834,0,0,0,3.08,38.35c-4.97,4.96-7.96,12.12-9.18,19.02-2.15,12.12-2.3,30.76-2.86,43.13A44.124,44.124,0,0,0,8.126,390.2L2.7,392.9a5.314,5.314,0,0,0-2.69,4.69c.46,8.61,4.01,15.41,8.72,21.57a47.486,47.486,0,0,0,7.38,13.33,101.116,101.116,0,0,1,6.36,8.75,5.567,5.567,0,0,1,.41.8,17.767,17.767,0,0,0-1.94,3.15c-4.62,8.14-4.69,17.68,1.87,24.77-2.47,2.02-2.55,6.1-.37,8.6,14.19,16.21,26.02,35.92,45.71,44.53a4.915,4.915,0,0,1,.24.45c-3.99,9.6-4.53,14.59-1.27,24.51a2.577,2.577,0,0,0,.08.26c1.74,5.2,4.94,13.53,10.71,15.15a19.41,19.41,0,0,0,5.38.73q6.87,6.615,13.72,13.25a46.05,46.05,0,0,1,.73,6.63,5.924,5.924,0,0,0,7.42,5.65c1.33-.39,8.69-7.54,10.04-7.5.68.68,1.34,1.36,2,2.05,2.43,2.55,5.8,6.57,6.08,9.24.54,5.03,3.84,10.79,9.17,11.81,2,2.03,5.2,2.64,7.65-.01.16-.17.32-.34.49-.49l.77-.09q1.77,5.28,3.55,10.55c2.33,6.92,11.23,11.37,17.55,7.33,1.02.61,2.02,1.26,3.02,1.91,1.52.97,3.06,1.96,4.64,2.89.09.26.18.52.26.77,1.02,3.11,5.26,4.78,7.87,2.99a23.116,23.116,0,0,0,2.48.64,24.973,24.973,0,0,0,13.11-.84c3.05-1.04,5.96-3.03,9.24-3.3.205-.017.416,0,.624-.009,2.676,5.482,8.791,10.206,13.61,11.811a25.285,25.285,0,0,0,18.52-1.224A43.009,43.009,0,0,0,241.656,647c1.29,1.5,3.62,1.18,4.95,0q3.789-3.359,7.542-6.742c1.814-.7,3.645-1.538,5.555-2.318,5.974-2.44,12.523-3.451,18.048-6.977a30.513,30.513,0,0,0,7.122-6.285,51.292,51.292,0,0,0,10.513-8.118,10.53,10.53,0,0,0,4.83-1.17c6.69-3.4,10.21-10.32,10.52-17.4a122.619,122.619,0,0,0,9.5-40.27,100.151,100.151,0,0,0-.02-13.75,24.115,24.115,0,0,0-2.27-8.28,25.614,25.614,0,0,1-1.07-2.78c.07-3.08.11-6.16.15-9.23a17.288,17.288,0,0,1,4.37-7.03c3.19-3.14,4.65-9.66,1.75-13.54q-2.835-3.765-5.66-7.53c.53-10.77,3.11-27.91-2.61-29.71.23-1.6.72-3.18,1-4.77,1.34-7.64.54-14.47-3.52-21.15-.85-1.39-1.57-2.62-2.16-3.82l-1.11-6.6c-.57-3.39-1.13-6.81-1.61-10.25-.25-4.38-.48-8.76-.73-13.15q-.345-6.06-.76-12.13c.11-1.81.27-3.62.5-5.43,1.37-10.79,5.78-14.78,13.42-22.28,1.2-.19,2.39-.4,3.56-.64,5.45-1.13,11.15-2.88,16.76-2.25,6.09.68,11.54,3.31,17.46-.05,1.74-1,5.57-3.76,5.9-5.95a1.363,1.363,0,0,1,.09-.35c.41-.06.94-.11,1.27-.12,4.7-.16,9.19,1.69,13.93,1.18a21.8,21.8,0,0,0,13.93-6.78,34.782,34.782,0,0,0,12.94.93,28.764,28.764,0,0,0,10.24-3.46c2.37-1.28,1.62-1.65,4.2-.61,5.87,2.38,11.18,5.52,17.79,3.89a18.908,18.908,0,0,0,8.88-5.18,30.288,30.288,0,0,0,2.26-2.27c3.14,1.59,11.04,5.18,12.34,5.5a20.172,20.172,0,0,0,11.16-.44c2.63-.88,5.85-3.28,8.16-3.77,2.99-.64,9.63,3.52,13.2,4.95,6.26,2.51,12.89,3.13,19.23.54,2.18-.89,6.42-4.44,8.05-4.41,2.65,3.27,10.05,21.16,12.27,27.69,8.99,26.4,11.32,108.83,7.17,129.86-.16.62-.33,1.23-.5,1.85-5.1,18.29-10.41,36.89-18.94,53.93-8.05,16.06-19.18,30.52-35.15,39.29-16.56,9.1-36,11.49-54.62,10.26a189.587,189.587,0,0,1-35.38-6.21c-6.06-1.57-12.07-3.32-18.05-5.14-2.61-.79-5.26-1.53-7.82-2.45-4.52-1.63-6.89-1.76-11.22.33-3.94,1.9-4.95,7.51-2.9,11.04,3.34,5.76,9.46,6.16,15.37,7.84,6.02,1.71,12.06,3.35,18.14,4.82a235.023,235.023,0,0,0,35.43,5.94c21.38,1.79,43.41-.97,62.87-10.3,2.2-1.06,4.32-2.19,6.37-3.41-.76,1.06-1.53,2.12-2.31,3.17-2.16,2.91-.56,7.86,2.47,9.45.96.5,1.92.98,2.89,1.45.13.31.27.62.43.93,2.77,5.56,8.57,8.84,14.48,10.26,7.02,1.68,14.88.49,22.02.28l19.85-.6c1.56-.04,3.12-.09,4.68-.14q11.79-.36,23.56-.71c7-.21,6.67.33,13.24-2.47a19.638,19.638,0,0,0,7.35-5.41,29.574,29.574,0,0,0,3.65-1.93,47.653,47.653,0,0,0,10.18-8.94c5.23,1.65,12.56.12,13.58-6.45,1.64-10.51,15.3-15,21.68-22.6,5.15-6.13,8.83-14.16,8.64-21.87,12.98-6.28,20.04-22.83,21.69-36.87.77-6.51.65-13.48,1.76-20.1a11.023,11.023,0,0,0,1.3-1.69,139.832,139.832,0,0,0,8.6-16.26,22.441,22.441,0,0,1,11.77-4.21,9.322,9.322,0,0,0,2.47-18.22c-.05-.02-.09-.03-.14-.05a26.225,26.225,0,0,0-.81-21.29c.14-.7.27-1.39.4-2.09a31.867,31.867,0,0,0,8.5-22.65,27.713,27.713,0,0,1,8.6-4.08c4.87-1.34,4.9-7.28,1.3-9.94a16.831,16.831,0,0,1-3.65-3.7c2.49-7.48,1.51-16.13-3.58-22.27l9.69-12.42c2.14-2.74,3.27-7.39,0-9.99Q725.451,358.428,722.306,355.943Z" transform="translate(-150 -120)"/></g></svg>