<svg xmlns="http://www.w3.org/2000/svg" width="474" height="567" viewBox="0 0 474 567"><path d="M394.781,359.754c-16.895-76.591-20.187-160.7-64.78-227.579-19.487-27.269-50.8-62.827-87.374-51.62q2.26-24.22,4.246-48.465c.753-9.246,4.214-21.565-3.611-28.674-12.919-10.432-34.306,5.531-44.291,14.45C177.339,38.58,168.8,58.7,140.3,72.533c-11.422-8.14-22.554-16.681-34.147-24.6-11.813-8.07-28.711-21.179-40.97-6.281-10.39,12.628-3.753,32.533.367,46.427,2.107,7.106,4.2,14.862,7.129,22.17q.371,8.333,1.308,16.629c-21.108,3.756-42.832,6.916-63,14.287-11,5.957-10.028,19.486-2.226,27.584C20.44,180.055,35.215,188.9,51.345,194.832c-2.929,10.136-9.95,18.731-18.778,24.351a11.537,11.537,0,0,0-5.223,7.567,59.228,59.228,0,0,1-14.488,4.924c-6.312,1.3-9.959,8.753-8.332,14.674,4.584,14.39,20.738,6.165,31.232,5.149.316,10.049.48,20.52,5.043,29.829C16.41,287.726-4.718,311.063.921,337.357c5.122,25.136,32.255,32.817,53.733,38.529,1.627.958,1.622,1.9,2.139,4.272,3.544,16.3.56,34.222-5.027,49.692-1.523,4.217.715,9.494,4.1,12.023,17.491,11.137,23.29-22.778,43.229-1.191-1.488-.223-5.19-2.074-5,.608,25.868,45.4,102.246,48.186,149.043,49.3,5.616,2.732,12.082,1.183,18.506-.561,6.129-.332,12.251-.791,18.358-1.414,11.149-2.012,30.76.373,31.46-15.33A148.506,148.506,0,0,0,381.9,416.3c12.524-17.253,17.469-35.515,12.884-56.549Z" transform="translate(40 6.999)" fill="#d08b5b"/><path d="M59.016,431.192a7.691,7.691,0,0,1-5.13-1.951,6.227,6.227,0,0,1-2.012-4.469,27.23,27.23,0,0,1,.289-5.418c.095-.787.185-1.53.235-2.219l.091-1.392.211-2.932.078-1.188a34.177,34.177,0,0,0-.7-11.139,2.289,2.289,0,0,0-1.009-1.376c.129-.928.245-1.856.344-2.759l.056-.53a68.388,68.388,0,0,0,13.721,31.345c.4.509.832,1.043,1.278,1.588l-.5.269-.51.265A14.394,14.394,0,0,1,59.016,431.192ZM16.173,241.442a19.808,19.808,0,0,1-4.672-.473,20.6,20.6,0,0,1-5.774-2.31,8.3,8.3,0,0,1-.994-.771,8.231,8.231,0,0,0-1.346-1.005,14.171,14.171,0,0,0,3.285-3.566,21.855,21.855,0,0,1,1.615-2.008c1.974-2.007,4.069-3.971,6.228-5.838.73-.632,1.705-1.327,2.738-2.062,2.9-2.066,6.508-4.636,6.912-7.48a.5.5,0,0,0-.216-.529,4.454,4.454,0,0,0-1.561-.528,11.534,11.534,0,0,1,3.446-3.631l.346-.228a184.5,184.5,0,0,0-5.542,30.3c-.575.013-1.16.035-1.725.057C18.015,241.407,17.087,241.442,16.173,241.442ZM36.4,183.179h0c-1.69-.755-3.39-1.558-5.051-2.386a11.53,11.53,0,0,0,4.1-1.563l.358-.2.645-.375a4.571,4.571,0,0,0,2.136-3.481,3.913,3.913,0,0,0-1.252-3.364c-.439-.388-.812-.749-1.173-1.1a9.046,9.046,0,0,0-3.907-2.573c-1.207-.388-2.467-.66-3.686-.923-.951-.205-1.931-.416-2.879-.681a45.145,45.145,0,0,1-12.768-5.91,40.676,40.676,0,0,1-9.419-8.6l-.663-.852-.656-.829C.8,148.565-.523,146.523.209,144.849c.659-1.506,3.295-3.057,5.219-4.19l.006,0c.357-.21.693-.408.974-.582l.976-.611A70.957,70.957,0,0,1,17.551,134.3a95.141,95.141,0,0,1,10.633-3.65c7.211-2.04,14.766-3.432,22.073-4.778,4.434-.817,9.018-1.661,13.492-2.644a.55.55,0,0,0,.472-.594.739.739,0,0,0-.647-.7c-3.517-.351-7.113-.573-10.688-.661,1.972-.346,3.974-.693,5.912-1.029l.051-.009h.007c2.873-.5,5.844-1.013,8.75-1.531-.317-2.779-.588-5.609-.806-8.412a6.544,6.544,0,0,0,4.337,1.628,10.815,10.815,0,0,0,4.869-1.364A6.628,6.628,0,0,0,79.26,106.5a7.771,7.771,0,0,0-.223-5.2A7.171,7.171,0,0,0,77.206,98.7l-.229-.194L74.583,87.671l-5.255-24.06-.157-.689-.177-.732-1.074-4.2a50.121,50.121,0,0,1-1.9-12.559A14.574,14.574,0,0,1,67.1,39.834a8.121,8.121,0,0,1,3.553-3.927,5.879,5.879,0,0,1,2.873-.7c2.8,0,5.935,1.616,8.451,2.915.308.159.627.323.938.481l.473.237,2.326,1.12c4.759,2.316,9.378,4.8,12.869,6.7,10.562,5.753,20.882,11.663,30.676,17.566a.873.873,0,0,0,.457.127,1.115,1.115,0,0,0,.947-.588.821.821,0,0,0-.058-.886c-.422-.6-.856-1.212-1.328-1.859l.23.17c1.462,1.108,2.165,2.211,2.15,3.371-.016,1.294-.959,2.622-2.8,3.948-9.881,7.107-19.676,15.866-31.759,28.4A239.753,239.753,0,0,0,57.926,150.1C49.72,159.037,42.479,170.167,36.4,183.179ZM213.2,82.333a27.2,27.2,0,0,1-9-1.692,87.207,87.207,0,0,1-8.6-3.727c-4.389-2.091-8.928-4.254-13.675-5.089l-.741-.121a41.266,41.266,0,0,1-6.479-2.02c-2.587-1.045-5.962-2.762-7.353-5.006a3.9,3.9,0,0,1-.512-3.213l.072-.229a5.114,5.114,0,0,0-1.327-5.016,8.111,8.111,0,0,0-1.993-1.411,145.5,145.5,0,0,1,9-14.126,123.609,123.609,0,0,1,10.6-12.773,109.915,109.915,0,0,1,12.357-11.148,104.368,104.368,0,0,1,14.266-9.25l2.8-1.477,1.526-.793c4.577-2.352,9.915-4.811,14.8-5.224.141-.012.279-.018.409-.018a2.435,2.435,0,0,1,2.14,1,6.782,6.782,0,0,1,.877,2.389l.166.75L232.91,5.8a105.258,105.258,0,0,1,1.757,11.187,151.029,151.029,0,0,1,.584,26.247c-.244,3.8-.663,8-1.28,12.847-.248,1.947-.633,3.913-1.005,5.814a66.314,66.314,0,0,0-1.208,7.8c-.468.6-.931,1.222-1.378,1.826A42.85,42.85,0,0,1,227.7,74.9c-4.582,5.006-9.106,7.366-14.239,7.427Z" transform="translate(46.4 15.2)" fill="#c93305"/><path d="M245,508.806a83.313,83.313,0,0,1-18.267-1.911,62.942,62.942,0,0,1-17.242-6.58A7.131,7.131,0,0,1,205.753,492a8.917,8.917,0,0,1,2.892-4.512,7.976,7.976,0,0,1,5.161-1.925,8.583,8.583,0,0,1,3.773.91,57.277,57.277,0,0,0,13.629,4.584,70.974,70.974,0,0,0,14.124,1.355c9.276,0,19.542-1.533,32.306-4.825a244.723,244.723,0,0,0,28.863-9.25A180.376,180.376,0,0,0,333.693,465a133.25,133.25,0,0,0,21.11-15.815,120.4,120.4,0,0,0,17.515-19.96,99.15,99.15,0,0,0,12.095-23.349A83.492,83.492,0,0,0,389.26,379.9a88.726,88.726,0,0,0-2.122-20.237c-1.4-6.672-3.338-13.383-5.215-19.873-1.815-6.274-3.691-12.759-5.055-19.152-3.683-17.257-5.947-34.585-8.13-52.3l-1.6-13.011c-2.13-17.112-4.785-36.961-9.365-55.976-4.946-20.536-11.571-37.782-20.254-52.725a128.162,128.162,0,0,0-14.855-20.541,126.4,126.4,0,0,0-18.7-17.272,116.584,116.584,0,0,0-21.819-12.968,104.593,104.593,0,0,0-24.2-7.631.6.6,0,0,1-.414-.257c-.448,2.412-1.938,5.038-4.428,7.805a58.615,58.615,0,0,1-6.58,6.046,37.073,37.073,0,0,1-8.87,5.468,25.867,25.867,0,0,1-10.138,2.162c-.155,0-.314,0-.472,0-6.276-.126-12.654-2.357-19.5-6.823-5.924-3.865-11.245-8.761-16.187-13.444a1.181,1.181,0,0,1-.343-1.336,1.6,1.6,0,0,1,1.446-.953,1.484,1.484,0,0,1,.22.016c4.982.75,9.722,3.008,14.3,5.192a87.241,87.241,0,0,0,8.6,3.727,27.2,27.2,0,0,0,9,1.692l.253,0c5.132-.061,9.657-2.421,14.239-7.427A42.821,42.821,0,0,0,241.76,86.7l.005-.007c.447-.6.909-1.226,1.375-1.822a66.325,66.325,0,0,1,1.207-7.8c.372-1.9.758-3.87,1.006-5.819.617-4.84,1.036-9.042,1.281-12.847a151.021,151.021,0,0,0-.584-26.247,105.217,105.217,0,0,0-1.757-11.187l-.382-1.658q-.033-.146-.064-.291c-.453-2.066-.845-3.85-3.118-3.85-.131,0-.269.006-.409.018-5.855.5-12.374,3.933-17.611,6.7l-.038.02-.682.36a104.305,104.305,0,0,0-14.54,9.276,109.6,109.6,0,0,0-12.575,11.233A123.253,123.253,0,0,0,184.1,55.68a145.34,145.34,0,0,0-9.127,14.3,8.133,8.133,0,0,1,1.993,1.41,5.167,5.167,0,0,1,1.351,2.33,4.613,4.613,0,0,1-.024,2.687c-1.611,4.707-6.242,6.12-10.72,7.487a40.778,40.778,0,0,0-4.98,1.754,100.871,100.871,0,0,0-17.154,10.246c-11.639,8.427-21.959,18.3-29.649,25.959-13.014,12.96-26.129,27.55-41.276,45.916L71.728,174c-2.662,5.957-5.455,12.328-7.757,18.959a276.978,276.978,0,0,0-9.1,32.24,210.784,210.784,0,0,0-4.512,33.443,163.106,163.106,0,0,0,.315,17.2c.225,4.194.458,8.53.434,12.781a7.866,7.866,0,0,1,.793,5.455,29.265,29.265,0,0,1,8.065,3.669.653.653,0,0,1,.279.754.632.632,0,0,1-.609.469.738.738,0,0,1-.176-.022,28.1,28.1,0,0,0-6.719-.808c-.959,0-1.938.048-2.912.143a9.083,9.083,0,0,1-6.87,3.335l-.169,0-1.126-.025a9.671,9.671,0,0,1-2.434-.374,41.357,41.357,0,0,0-12.02,8.538,40.807,40.807,0,0,0-9.239,14.479,42.584,42.584,0,0,0-2.539,17.024,33.287,33.287,0,0,0,17.172,27.928,32.228,32.228,0,0,0,7.255,2.87,33.034,33.034,0,0,0,7.728,1.06c.145,0,.3,0,.448,0,1.116,0,2.281-.066,3.515-.137l.087,0c1.163-.067,2.481-.142,3.762-.142,2.478,0,5.626.241,8,2.125a3.016,3.016,0,0,1,.961,1.406c.319-1.346.625-2.54.931-3.652a1.074,1.074,0,0,1,1.055-.736.89.89,0,0,1,.933.736l.243,1.349c.521,2.94,1,5.931,1.46,8.824,1.306,8.192,2.657,16.664,5.116,24.557a67.6,67.6,0,0,0,4.682,11.476,53.239,53.239,0,0,0,7.236,10.551,126.363,126.363,0,0,0,22.216,19.553l1.321.922c3.406,2.352,7.116,4.645,11.16,5.493,1.313.275,2.56.448,3.766.616,2.928.407,5.693.791,8.642,2.554a5.375,5.375,0,0,1,2.433,5.981,12.073,12.073,0,0,1-4.914,6.775,13.753,13.753,0,0,1-7.489,1.931c-6.693,0-14.476-3.344-19.528-6.475a100.276,100.276,0,0,1-14.651-11.165,35.874,35.874,0,0,1-12.88,4.636,26.5,26.5,0,0,1-3.909.292,24.2,24.2,0,0,1-7.482-1.153,20.684,20.684,0,0,1-6.674-3.589,16.908,16.908,0,0,1-5.461-7.75,20.589,20.589,0,0,1-.786-9.513,69.1,69.1,0,0,1,2.238-9.766l.767-2.624c.172-.587.338-1.179.5-1.751.9-3.207,1.835-6.524,3.746-9.353a2.6,2.6,0,0,1,2.158-1.144,2.279,2.279,0,0,1,2.267,1.723c1.209,4.344.858,9.142.519,13.781q-.054.744-.106,1.478l-.075,1.148c-.046.754-.146,1.583-.251,2.461a27.231,27.231,0,0,0-.289,5.419,6.228,6.228,0,0,0,2.012,4.469,7.692,7.692,0,0,0,5.13,1.951c2.647,0,5.372-1.3,7.451-2.441-.492-.6-.91-1.121-1.278-1.589A68.132,68.132,0,0,1,63.33,413.57a84.1,84.1,0,0,1-.132-31.6c-1.41,1.849-3.808,3.266-7.124,4.211a32.667,32.667,0,0,1-8.61,1.146c-.68,0-1.331-.023-1.935-.067a47.71,47.71,0,0,1-21.807-7.014,45.044,45.044,0,0,1-9.142-7.585,46.28,46.28,0,0,1-6.761-9.5,50.228,50.228,0,0,1-5.859-22.67,50.963,50.963,0,0,1,4.815-22.66,45.336,45.336,0,0,1,14.7-17.775A39.687,39.687,0,0,1,32.6,294.567c-1.666-6.616-2.208-14.326-1.7-24.263a24.339,24.339,0,0,1-3.268.214A33.228,33.228,0,0,1,17.152,268.7l-.646-.226a36.063,36.063,0,0,1-9.831-5.217c-3.389-2.656-5.382-5.65-5.923-8.9-.6-3.6.76-6.876,4.158-10.027,2.9-2.692,6.829-4.833,9.983-6.553l.009-.005c.58-.316,1.127-.615,1.649-.906a81.922,81.922,0,0,1,9.151-4.48l.949-.374c.472-.182.95-.387,1.455-.6a13.182,13.182,0,0,1,4.944-1.419,4.53,4.53,0,0,1,2.281.579.5.5,0,0,1,.216.529c-.4,2.843-4.012,5.414-6.912,7.48-1.032.735-2.007,1.43-2.738,2.062-2.16,1.867-4.255,3.831-6.228,5.838a21.823,21.823,0,0,0-1.615,2.008,14.173,14.173,0,0,1-3.285,3.566,8.212,8.212,0,0,1,1.344,1,8.288,8.288,0,0,0,1,.773,20.629,20.629,0,0,0,5.774,2.31,19.81,19.81,0,0,0,4.672.473c.912,0,1.839-.035,2.736-.069.568-.021,1.152-.043,1.73-.057a180.74,180.74,0,0,1,7.1-35.636,173.183,173.183,0,0,1,12.05-29.327,124.7,124.7,0,0,1,18.138-26.257,239.78,239.78,0,0,1,39.17-53.19c8.136-8.438,19.1-19.291,31.759-28.4a100.785,100.785,0,0,1,16.19-9.656l1.9-.869.819-.381,0,0c3.051-1.421,6.508-3.031,9.868-3.529a93.242,93.242,0,0,1,11.745-26.618,98.181,98.181,0,0,1,27.286-28.347,100.821,100.821,0,0,1,17.109-9.6l1.681-.734C231.241,2.035,236.37,0,241.479,0A18.128,18.128,0,0,1,245.3.4a15.456,15.456,0,0,1,8.733,5.381,24.226,24.226,0,0,1,4.609,9.335,134.568,134.568,0,0,1,3.6,24.52,171.863,171.863,0,0,1-.272,25.316c-.692,9.2-2.084,16.417-4.255,22.069a.721.721,0,0,1,.406-.191,85.826,85.826,0,0,1,8.813-.473,64.423,64.423,0,0,1,20.919,3.36,109.843,109.843,0,0,1,13.5,5.576,102.486,102.486,0,0,1,12.608,7.373,109.018,109.018,0,0,1,22.974,21.673,149.707,149.707,0,0,1,17,26.692,190.3,190.3,0,0,1,10.816,26.511,265.706,265.706,0,0,1,7.309,27.6c3.961,18.666,6.385,37.984,8.728,56.667l.007.059c.444,3.537.9,7.194,1.363,10.776l.161,1.25c3.305,25.543,7.349,46.249,12.727,65.165l1.05,3.648A166.288,166.288,0,0,1,402.1,371.89a93.2,93.2,0,0,1-1.531,29.695A106.174,106.174,0,0,1,390.3,429.123a120.766,120.766,0,0,1-16.824,23.665,143.863,143.863,0,0,1-21.791,19.519,165.105,165.105,0,0,1-25.166,15.1,227.922,227.922,0,0,1-56.893,18.855A131.966,131.966,0,0,1,245,508.806ZM53.729,356.5a7.759,7.759,0,0,1-7.135-4.171,11.288,11.288,0,0,1-.864-8.437,16.255,16.255,0,0,1,4.679-7.215A17.512,17.512,0,0,1,55,333.583c-2.17-.2-4.434-.3-6.73-.3A91.573,91.573,0,0,0,36.4,334.1a.6.6,0,0,1-.077.005.432.432,0,0,1-.428-.333.661.661,0,0,1,.223-.721,45.116,45.116,0,0,1,12.821-5.9,51.054,51.054,0,0,1,14-1.921c1.479,0,2.981.062,4.463.185a57.792,57.792,0,0,1,15.86,3.662l2.094.827a26.294,26.294,0,0,1,6.87,3.634,8.449,8.449,0,0,1,3.362,6.576A5.217,5.217,0,0,1,91.87,345a7.4,7.4,0,0,1-2.433.418c-2.856,0-5.441-1.68-7.941-3.305-.963-.626-1.957-1.272-2.935-1.8a59.543,59.543,0,0,0-13.292-4.957c-.425-.111-.859-.214-1.278-.314l-.05-.012a2.977,2.977,0,0,1,.329,1.586,12.746,12.746,0,0,1-.677,2.957c-.069.22-.148.469-.224.721-.037.123-.089.437-.156.835a8.1,8.1,0,0,1-.538,2.23c.081.694.1,1.349.119,2.042,0,.117.007.233.01.349a11.5,11.5,0,0,1-1.457,6.577,8.114,8.114,0,0,1-3.271,3.1A9.359,9.359,0,0,1,53.729,356.5ZM41.481,196.046a16.228,16.228,0,0,1-2.829-.289,41.941,41.941,0,0,1-8.679-2.745,57.69,57.69,0,0,1-14.223-8.446l-.65-.529a62.717,62.717,0,0,1-9.383-9.582C2.289,170,.383,165.843.052,162.107a11.515,11.515,0,0,1,2.8-8.745c3.428-4.042,8.676-7.457,15.6-10.151A94.266,94.266,0,0,1,36.665,138.4a143.575,143.575,0,0,1,23.994-2c4.784,0,9.595.238,14.3.706a.739.739,0,0,1,.647.7.55.55,0,0,1-.472.594c-4.474.982-9.055,1.826-13.485,2.642-7.308,1.346-14.864,2.738-22.077,4.779a81.333,81.333,0,0,0-20.8,8.816l-.79.495c-.318.2-.711.434-1.165.7-1.925,1.133-4.561,2.685-5.22,4.19-.849,1.94,1.093,4.386,2.379,6.005.164.207.334.42.479.611a41.067,41.067,0,0,0,9.855,9.156,45.151,45.151,0,0,0,12.767,5.91c.949.265,1.93.476,2.878.681,1.221.263,2.482.535,3.688.923a9.043,9.043,0,0,1,3.908,2.574c.361.348.733.709,1.172,1.1a3.912,3.912,0,0,1,1.253,3.364,4.571,4.571,0,0,1-2.135,3.481l-.645.375A10.611,10.611,0,0,1,41.481,196.046ZM82.52,127.091a6.468,6.468,0,0,1-3.876-1.265,10.54,10.54,0,0,1-2.78-3.227,34.965,34.965,0,0,1-3.257-8.932c-1.514-6.069-3.042-12.127-4.478-17.812l-2.481-9.808c-.246-.962-.506-1.96-.736-2.842-1.859-7.136-3.78-14.516-3.96-21.727a33.432,33.432,0,0,1,1.283-10.563,26.937,26.937,0,0,1,5.316-9.747,20.812,20.812,0,0,1,7.089-5.559,18.313,18.313,0,0,1,7.728-1.644c9.166,0,18.842,5.975,26.247,11.18a146.115,146.115,0,0,1,18.14,15A127.317,127.317,0,0,1,141.985,78.05a.82.82,0,0,1,.058.885,1.115,1.115,0,0,1-.948.588.872.872,0,0,1-.457-.127c-9.774-5.893-20.095-11.8-30.676-17.567-3.5-1.905-8.122-4.388-12.869-6.7l-2.327-1.12c-.452-.223-.918-.464-1.411-.718-2.517-1.3-5.649-2.915-8.451-2.915a5.88,5.88,0,0,0-2.873.7,8.217,8.217,0,0,0-3.745,4.392,16.4,16.4,0,0,0-.883,6.28c.122,4.554,1.4,9.514,2.434,13.5l0,.009c.264,1.021.513,1.986.713,2.835l.157.689,5.255,24.06,2.394,10.832a7.094,7.094,0,0,1,2.06,2.8,7.775,7.775,0,0,1,.223,5.2,6.628,6.628,0,0,1-3.254,4.052A10.817,10.817,0,0,1,82.52,127.091Z" transform="translate(35 0)"/></svg>