<svg xmlns="http://www.w3.org/2000/svg" width="474" height="567" viewBox="0 0 474 567"><path d="M361.406,119.845c-.336-11.958-17.729-16.923-22.754-5.08-.312.317-.651.622-.969.9,1.573-1.349-1.716.883-2.251,1.159-.458.236-.926.449-1.393.669-3.232-30.294-14.2-62.952-42.556-78.158-39.544-19.176-85.237-22.919-128.62-21.014-21.977,1.3-47.355,4.818-66.88-6.3C89.9,8.552,85.022,3.1,78.147.958,56.444-4.913,46.6,17.373,49.556,35.7c-9.257.073-18.44,5.2-22.435,13.636-2.346,4.994-2.305,10.383-4.328,15.4C16.586,77.441,7.7,86.577,12.726,101.987c-8.831,10.049-3.8,25.262,3.33,34.883,3.519,5,7.71,9.808,10.288,15.409,2.5,5.363-1.275,11.723-3.377,16.807-15.54,36.849-14.652,77.43-6.29,115.866C-.1,292.233-5.139,314.993,5.8,329.324c3.765,5.066,8.358,6.946,13.567,10.063,6.592,3.628,1.208,18.16,3.319,25.178,2.868,17.133,18.468,27.684,33.893,16.558,9.788-1.481,17.683,27,24.791,34.146A114.437,114.437,0,0,0,95.9,430.974c15.75,40.525,96.456,61.075,136.358,58.729,41.785-4.375,69.974-39.861,93.446-71.355A124.8,124.8,0,0,0,348.447,362.3c2.864-20.588,1.611-41.213-.325-61.826-4.067-43.8-10.483-106.892-14.626-151.161,14.972-1.233,28.364-13.98,27.91-29.468Z" transform="translate(69 24)" fill="#d08b5b"/><path d="M42.01,290.662a.581.581,0,0,1-.506-.289c-.1-.169-.134-.275-.1-.333s.086-.064.192-.064a4.081,4.081,0,0,1,.519.059l.241.035c.1.015.2.027.285.037A.616.616,0,0,1,42.01,290.662Zm1.558-.5a7.854,7.854,0,0,1-.927-.058.634.634,0,0,0-.023-.206,32.815,32.815,0,0,0-8.175-14.284,31.79,31.79,0,0,0-13.851-8.253,11.237,11.237,0,0,0-2.011-8.092l-.67-3.123-.617-2.923a195.089,195.089,0,0,1-3.381-20.638,197.154,197.154,0,0,1-.388-31.622,178.686,178.686,0,0,1,2.591-20.44c1.278-7.076,2.88-14.109,4.278-20.054l.337-1.427,2.464-10.36a101.213,101.213,0,0,0,18.624,3.407c3.411.3,6.937.459,10.482.459,3.487,0,7.113-.149,10.777-.444q.117.319.232.639a5.089,5.089,0,0,0,.177,3.455,22.583,22.583,0,0,0,2.106,4.3,71.623,71.623,0,0,0-2.283-7.753,3.187,3.187,0,0,1,1.188-1.462c6.094-4.25,20.459-10.025,36.6-14.712a254.318,254.318,0,0,1,24.877-5.931,131.106,131.106,0,0,1,22.9-2.406c.9,0,1.783.016,2.628.049,3.129.119,6.474.4,9.94.848-1.352.237-2.762.5-4.188.79l-1.344.277-1.338.285c-11.131,2.425-22.427,5.7-33.35,8.877-17.765,5.159-36.135,10.493-54.61,12.421a79.388,79.388,0,0,1,9.657,49.227,71.416,71.416,0,0,1-4.354,16.538,142.5,142.5,0,0,1-7.307,15.48l-1.046,1.953-.631,1.2a83.914,83.914,0,0,0-5.745,13.136,46.389,46.389,0,0,0-2.355,14.21l-.006.315a8.848,8.848,0,0,1-1.611,4.9c0-.84,0-1.68,0-2.57v-.026c0-4.837,0-10.32.489-15.183.56-5.569,1.681-9.522,3.425-12.086l.383-.579c5.13-7.943,6.572-18.571,8.1-29.823,1.421-10.476,2.89-21.308,7.478-30.7,1.591-3.258-1.755-8.38-4.991-13.334-.857-1.311-1.741-2.666-2.5-3.941a68.429,68.429,0,0,1-4.221,44.3c-2.722,5.842-6.553,11.481-10.609,17.451-9.158,13.479-18.629,27.418-14.4,43.768a8.721,8.721,0,0,0,3.4,5.063,9.281,9.281,0,0,0,5.373,1.626,10.542,10.542,0,0,0,4.516-1.017,9.252,9.252,0,0,0,3.565-2.953c-.015,4.636-.1,9.381-.949,12C50.24,287,47.315,290.166,43.568,290.166Zm278.72-143.4-.222-.94-.233-.952.09.02.193.009.174,1.863Zm-307.511-.331v0l-.146-.312-.216-.44.7.282-.337.471Zm222.027-.95c-2.014,0-4.136-.066-6.307-.2-6.575-.395-16.15-3.163-27.237-6.37-12.889-3.727-27.5-7.952-41.824-9.783a130.163,130.163,0,0,1,22.3-2.072,88.475,88.475,0,0,1,19.8,2.12,66.673,66.673,0,0,1,18.558,7.228.342.342,0,0,0,.172.05.314.314,0,0,0,.29-.23.337.337,0,0,0-.131-.387,77.358,77.358,0,0,0-12.61-7.382,83.645,83.645,0,0,0-13.414-4.862,98.434,98.434,0,0,0-14-2.674,122.2,122.2,0,0,0-14.361-.818c-12.7,0-26.833,1.765-43.212,5.4l-1.873.419-1.84.421c-3.989.921-8.079,1.918-12.034,2.882-17.761,4.33-36.126,8.807-54.333,8.807A91.267,91.267,0,0,1,28.784,134.5a63.81,63.81,0,0,1-11.651-4.657,51.534,51.534,0,0,1-10.35-7.073L6.26,122.3c-2.773-2.5-5.674-5.54-6.174-9.1a3.76,3.76,0,0,1,.63-3.16,3.344,3.344,0,0,1,1.22-.938c.231-.119.383-.2.382-.287,0-.061-.074-.123-.237-.2a8.822,8.822,0,0,0,3.845.921,8.028,8.028,0,0,0,5.095-1.841,8.9,8.9,0,0,0,2.923-4.369,7.381,7.381,0,0,0-.081-4.556,7.848,7.848,0,0,0-3.328-3.994L9.923,94.4a12.612,12.612,0,0,1-5.264-6.341,11.857,11.857,0,0,1-.191-7.36,12.8,12.8,0,0,1,4.379-6.475,13.081,13.081,0,0,1,8.145-2.715h.088l.649.012h.027a7.281,7.281,0,0,0,4.033-1.126,7.084,7.084,0,0,0,2.485-2.851,9.193,9.193,0,0,0-1.019-9.464l-.371-.464a9.8,9.8,0,0,1-2.135-5.153,9.186,9.186,0,0,1,.934-4.861A11.63,11.63,0,0,1,25.9,42.987a11.5,11.5,0,0,1,6.14-1.826,10.4,10.4,0,0,1,5.108,1.333l.513.294a7.092,7.092,0,0,0,3.459.928,8.234,8.234,0,0,0,7.349-5.55A34.315,34.315,0,0,0,50.612,27.3a101.517,101.517,0,0,0-.275-11.04c-.134-2.19-.273-4.453-.322-6.685L50,8.944l-.015-1.049,0-.829.008-.549c.04-1.728.23-4.16,1.415-5.33A4.083,4.083,0,0,1,54.379,0c2.668,0,5.76,2.036,7.853,3.567l.7.518,2,1.518c1.323,1.02,2.642,2.082,3.917,3.11a97.094,97.094,0,0,0,9.741,7.2,92.3,92.3,0,0,0,17.026,8.069,104.9,104.9,0,0,0,17.648,4.657,145.794,145.794,0,0,0,18.163,1.974c2.195.107,4.492.161,6.828.161,14.309,0,29.5-2.031,44.19-4l.32-.043c14.845-1.985,30.2-4.039,45.1-4.039a116.219,116.219,0,0,1,28.806,3.256,85.874,85.874,0,0,1,13.744,4.735,81.324,81.324,0,0,1,13.163,7.4A54.315,54.315,0,0,1,297.05,51.452a60.174,60.174,0,0,1,8.33,17.086c2.3,7.45,2.949,15.168,3.581,22.632.546,6.453,1.111,13.125,2.735,19.59a6.044,6.044,0,0,0,2.689,3.628,8.216,8.216,0,0,0,4.4,1.263,6.737,6.737,0,0,0,3.885-1.131,5.3,5.3,0,0,0,2.189-3.52l.077-.515.917-.575.362-.215a1.4,1.4,0,0,1,.374-.181c.008,0,.013,0,.014.007.008.02-.049.087-.169.2l-.071.064.142-.123c.109-.1.219-.2.327-.3l.319-.312a10.986,10.986,0,0,1,4.246-5.156,10.848,10.848,0,0,1,5.8-1.615,12.48,12.48,0,0,1,1.395.079l-.129.312-1.349,3.479-.43,1.092c-1.735,4.353-3.479,7.918-6.354,11.17A42.153,42.153,0,0,1,314.75,129.6a1.217,1.217,0,0,0-.812,1.307,1.188,1.188,0,0,0,1.124.994c.95.095,1.927.143,2.905.143a33.745,33.745,0,0,0,9.462-1.4,38.6,38.6,0,0,0,8.981-3.938,37.845,37.845,0,0,0,7.715-6.082,32.47,32.47,0,0,0,5.665-7.83,11.764,11.764,0,0,1,.112,1.335,26,26,0,0,1-.247,4.415,7.382,7.382,0,0,0-2.135,1.243,31.06,31.06,0,0,0-5.743,7.174,37.447,37.447,0,0,1-4.816,6.361,51.867,51.867,0,0,1-7.084,5.894,34.4,34.4,0,0,1-8.153,4.2.785.785,0,0,0-.229.126c-.5-1.908-.949-3.45-1.406-4.853a.535.535,0,0,0-.516-.4.592.592,0,0,0-.587.55c-.005.052-.045.078-.12.078a14.84,14.84,0,0,1-3.13-1.432c-1.561-.806-3.5-1.809-5.76-2.83-6.332-2.868-11.6-4.262-16.106-4.262a18.872,18.872,0,0,0-2.772.2c-8.9,1.328-15.224,4.22-21.345,7.018a94.148,94.148,0,0,1-13.8,5.41A69.273,69.273,0,0,1,236.8,145.481Zm-26.2-53.03a.763.763,0,0,0-.7.617.583.583,0,0,0,.337.694,94.326,94.326,0,0,1,12.985,7.225,96.226,96.226,0,0,1,11.448,8.954,106.083,106.083,0,0,1,10.041,10.531,124.415,124.415,0,0,1,8.763,11.957,3.883,3.883,0,0,0,3.446,1.858,6.132,6.132,0,0,0,.935-.076,2.741,2.741,0,0,0,1.843-1.148l.117-.149.357-.484a3.8,3.8,0,0,0,0-3.916,76.839,76.839,0,0,0-9.591-12.282A84.827,84.827,0,0,0,238.778,106a91.138,91.138,0,0,0-27.992-13.523.657.657,0,0,0-.181-.026Zm43.967-5.486a.939.939,0,0,0-.84.671.975.975,0,0,0,.219,1.1c4.476,3.81,10.134,9,14.191,15.361a43.006,43.006,0,0,1,4.446,9.105c.45,1.312.791,2.661,1.121,3.966a29.528,29.528,0,0,0,2.184,6.466,5.022,5.022,0,0,0,4.575,2.925,6.57,6.57,0,0,0,6.388-5.9c.263-3.672-.94-7.857-3.577-12.44a54.937,54.937,0,0,0-8.071-10.487A38.545,38.545,0,0,0,266.07,90.7a32.389,32.389,0,0,0-10.847-3.651l-.544-.075ZM51.23,80.5a2.509,2.509,0,0,0-2.281,1.6,2.184,2.184,0,0,0,.537,2.465,52.371,52.371,0,0,0,16.739,10.5,83.719,83.719,0,0,0,19.263,4.955l.667.094a102.58,102.58,0,0,0,13.928,1.062,50.7,50.7,0,0,0,14-1.736,24.6,24.6,0,0,0,11.439-6.669,4.457,4.457,0,0,0,.913-4.333,3.559,3.559,0,0,0-2.711-2.483,28.547,28.547,0,0,0-5.855-.557,60.347,60.347,0,0,0-7.238.53l-1.246.158-3.1.411a122.11,122.11,0,0,1-15.83,1.143c-.875,0-1.751-.013-2.605-.038-10.329-.3-20.413-2.952-30.166-5.514-1.923-.5-3.91-1.027-5.87-1.523a2.382,2.382,0,0,0-.582-.073ZM265.642,50.965a1.719,1.719,0,0,0-1.445.978,1.437,1.437,0,0,0,.054,1.519c1.985,2.753,4.216,5.365,6.374,7.89,1.9,2.222,3.861,4.519,5.649,6.9,1.146,1.528,2.251,3.1,3.32,4.621a77.251,77.251,0,0,0,8.252,10.407,3.207,3.207,0,0,0,2.307.983,3.659,3.659,0,0,0,2.829-1.414,3.284,3.284,0,0,0,.583-2.9,33.984,33.984,0,0,0-4-9.123,47.541,47.541,0,0,0-6.517-8.282,49.348,49.348,0,0,0-16.942-11.5A1.275,1.275,0,0,0,265.642,50.965ZM71.533,56.589h0a1.317,1.317,0,0,0-1.193.877,1.405,1.405,0,0,0,.259,1.552A51,51,0,0,0,87.173,69.813a52.912,52.912,0,0,0,19.884,4.075,38.154,38.154,0,0,0,15.32-3.008,2.977,2.977,0,0,0,1.87-3.445,4.415,4.415,0,0,0-3.787-3.63c-1.864-.115-3.84-.166-6.407-.166-1.183,0-2.383.011-3.545.021h-.026c-1.15.01-2.34.021-3.508.021A76.519,76.519,0,0,1,95.5,62.987a130.629,130.629,0,0,1-23.532-6.32,1.3,1.3,0,0,0-.434-.078ZM92.475,39.734a1.277,1.277,0,0,0-1.2.978,1.864,1.864,0,0,0,.569,2.066,30.9,30.9,0,0,0,18.41,6.3,28.769,28.769,0,0,0,6.106-.659,2.376,2.376,0,0,0,1.818-2.725,2.46,2.46,0,0,0-2.394-2.34l-.109,0c-1.1.044-2.172.066-3.2.066a48.969,48.969,0,0,1-19.4-3.553A1.565,1.565,0,0,0,92.475,39.734Zm46.841-23.4-.738,0a128.894,128.894,0,0,1-25.146-2.384c2.461.148,5.012.222,7.8.222,7.35,0,14.775-.522,21.956-1.026h.015c2.82-.2,5.483-.385,8.157-.544,6.7-.294,13.281-.443,19.57-.443,4.407,0,8.788.073,13.02.217l-4.845.643-3.231.421C164.213,14.945,151.713,16.336,139.315,16.337Z" transform="translate(80.5 29.6)" fill="#ecdcbf"/><path d="M.486.412A.384.384,0,0,0,.507.587C.51.568.513.558.518.535.506.486.5.452.486.412" transform="translate(103.531 117.102)" fill="#4f66af"/><path d="M.608.58A1.679,1.679,0,0,0,.4.421a.021.021,0,0,0,0,.006C.465.475.535.53.608.58" transform="translate(103.406 117.571)" fill="#4f66af"/><path d="M235.367,509.691a85.827,85.827,0,0,1-30.645-5.492l-.833-.325c-18.306-7.228-28.91-16.533-31.52-27.655a9.972,9.972,0,0,1,1.852-8.645,10.28,10.28,0,0,1,3.5-2.82,10.132,10.132,0,0,1,4.449-1.04,10.389,10.389,0,0,1,4.869,1.23,42.315,42.315,0,0,1,9.3,6.786l.527.486a32.59,32.59,0,0,0,6.154,4.7,50.88,50.88,0,0,0,16.553,6.957,67.211,67.211,0,0,0,16.378,1.99,73.95,73.95,0,0,0,20.8-3.021,89.511,89.511,0,0,0,18.378-7.791,118.951,118.951,0,0,0,16.475-11.23,175.577,175.577,0,0,0,14.846-13.53c4.174-4.226,8.587-9.031,13.492-14.69,7.747-8.939,17.6-20.956,25.053-34.655A84.311,84.311,0,0,0,352.9,380.62a86.9,86.9,0,0,0,2.38-21.694c-.164-12.311-1.465-24.84-2.723-36.957v-.014c-.47-4.524-.956-9.2-1.374-13.79C349.5,289.7,348.1,272.839,346.9,256.629c-.933-12.607-1.212-25.47-1.482-37.91v-.006c-.075-3.471-.153-7.059-.244-10.588l-.082-3.033c-.184-6.444-.327-12.962-.465-19.265q-.072-3.252-.145-6.5c-.046-2.026-.12-4.087-.191-6.079a142.9,142.9,0,0,1,.2-19.689.591.591,0,0,1,.587-.55.536.536,0,0,1,.517.4c.451,1.385.9,2.927,1.4,4.853a.8.8,0,0,1,.23-.126,34.4,34.4,0,0,0,8.153-4.2,51.869,51.869,0,0,0,7.084-5.894,37.44,37.44,0,0,0,4.815-6.36,31.063,31.063,0,0,1,5.745-7.175,7.164,7.164,0,0,1,4.623-1.694,6.782,6.782,0,0,1,5.334,2.508,6.381,6.381,0,0,1,1.042,5.589c-.816,3.3-2.943,6.424-6.322,9.289a43.638,43.638,0,0,1-9.824,6.053,38.594,38.594,0,0,1-17.02,3.439c-1.09,0-2.211-.028-3.43-.084l-.09-.02c1.364,5.471,2.342,11.162,3.288,16.666v.006l0,.016c.452,2.629.919,5.348,1.42,7.99,1.934,10.2,3.884,20.641,5.793,31.041.633,3.446,1.336,6.952,2.016,10.342l0,.015c1.295,6.459,2.633,13.136,3.559,19.724.916,6.524,1.823,13.161,2.7,19.579v.009l.014.1c.483,3.53.982,7.181,1.476,10.77,1.9,13.807,3.531,27.883,5.107,41.5.339,2.93.724,6.252,1.1,9.507l.948,8.051c.906,7.755,1.889,16.765,2.073,25.56a106.238,106.238,0,0,1-2.252,25.5,104.432,104.432,0,0,1-8.234,22.976,157.648,157.648,0,0,1-12.513,21.006,285.26,285.26,0,0,1-30.262,36.779c-24.88,25.325-51.38,39.618-78.764,42.481A91.241,91.241,0,0,1,235.367,509.691ZM127.671,456.6c-5.283,0-11.085-5.391-15.321-9.328-.668-.621-1.3-1.207-1.879-1.726l-.393-.349a142.68,142.68,0,0,1-16.264-16.917,123.561,123.561,0,0,1-12.933-18.969,86.828,86.828,0,0,1-8.359-21.322,12.425,12.425,0,0,1-3.461,7.566,21.121,21.121,0,0,1-11.1,6.38,25.75,25.75,0,0,1-5.486.6,23.2,23.2,0,0,1-10.705-2.554,23.635,23.635,0,0,1-8.481-7.4,30.475,30.475,0,0,1-4.855-11.4,43.527,43.527,0,0,1-.769-12.452l.076-.98c.011-.161.022-.339.034-.529a22.641,22.641,0,0,1,.5-4.207l-3.021-1.659a49.677,49.677,0,0,1-10.218-7.4A47.555,47.555,0,0,1,1.81,332.668a40.444,40.444,0,0,1,.3-24.909,43.3,43.3,0,0,1,8.01-13.88,40.733,40.733,0,0,1,5.774-5.512,37.282,37.282,0,0,1,6.726-4.195,43.83,43.83,0,0,1-2.528-10.62q-.1-.657-.2-1.3l-.1-.639a162.934,162.934,0,0,1-.182-55.131,161.467,161.467,0,0,1,7.3-29.068,108.468,108.468,0,0,1,13.71-26.742c-9.595-3.81-17.437-9.088-23.307-15.683a31.911,31.911,0,0,1-7.215-12.929,21.13,21.13,0,0,1-.651-7.231,18.517,18.517,0,0,1,2.182-7.194,20.144,20.144,0,0,1,4.926-6,29.312,29.312,0,0,1-3.23-10.215,27.042,27.042,0,0,1,.852-10.833A28.59,28.59,0,0,1,31.536,72.182a27.216,27.216,0,0,1-.167-12.337,25.144,25.144,0,0,1,5.847-11.321,23.424,23.424,0,0,1,8.627-6.078,27.148,27.148,0,0,1,10.287-2,28.5,28.5,0,0,1,5,.443,74.11,74.11,0,0,0-.456-10.525c-.478-5.272-.972-10.724.278-15.856a20.032,20.032,0,0,1,2.745-6.39,17.5,17.5,0,0,1,4.36-4.528A19.9,19.9,0,0,1,79.777,0a25.107,25.107,0,0,1,12.8,3.59,70.21,70.21,0,0,1,9.485,7.205c1.992,1.7,4.051,3.458,6.2,5.024a68.353,68.353,0,0,0,17.423,9.206c11.251,3.99,23.81,5.96,38.4,6.024l.729,0c14.9,0,29.9-2,44.413-3.93l.02,0c14.513-1.933,29.518-3.932,44.419-3.932,1.7,0,3.393.026,5.037.078a134.32,134.32,0,0,1,18.577,1.859A114.32,114.32,0,0,1,295.5,29.794c12.657,4.425,23.336,10.915,31.738,19.289a68.23,68.23,0,0,1,11.921,16.172,83.249,83.249,0,0,1,7.2,18.793,182.235,182.235,0,0,1,3.622,18.611l.223,1.561c.142,1.011.31,2.059.474,3.073a59.991,59.991,0,0,1,.934,8.127,39.156,39.156,0,0,1-.77,7.206v.009c-.159.938-.323,1.907-.452,2.842a5.346,5.346,0,0,1-2.146,3.7,6.783,6.783,0,0,1-3.966,1.189,8.216,8.216,0,0,1-4.4-1.263,6.043,6.043,0,0,1-2.688-3.629c-1.625-6.466-2.19-13.139-2.736-19.593-.632-7.464-1.285-15.181-3.58-22.63a60.189,60.189,0,0,0-8.33-17.086,54.311,54.311,0,0,0-13.477-13.372,81.321,81.321,0,0,0-13.163-7.4,85.886,85.886,0,0,0-13.745-4.735,116.215,116.215,0,0,0-28.806-3.257c-14.9,0-30.252,2.053-45.1,4.038l-.321.043c-14.691,1.965-29.882,4-44.191,4-2.337,0-4.634-.054-6.828-.161a145.821,145.821,0,0,1-18.163-1.974,104.906,104.906,0,0,1-17.648-4.657,92.36,92.36,0,0,1-17.026-8.069,97.18,97.18,0,0,1-9.742-7.2l0,0c-1.273-1.026-2.59-2.087-3.911-3.1l-2-1.519c-2.527-1.9-5.783-4.084-8.55-4.084A4.083,4.083,0,0,0,76.911,15.9c-1.3,1.283-1.448,4.111-1.421,6.708l.016,1.049c.035,2.443.187,4.92.334,7.316a101.533,101.533,0,0,1,.275,11.039A34.321,34.321,0,0,1,73.968,52.88a8.235,8.235,0,0,1-7.35,5.55A7.088,7.088,0,0,1,63.16,57.5l-.23-.131a10.412,10.412,0,0,0-5.391-1.5A11.507,11.507,0,0,0,51.4,57.7a11.628,11.628,0,0,0-4.212,4.614,9.185,9.185,0,0,0-.934,4.861,9.8,9.8,0,0,0,2.135,5.153l.225.282a9.191,9.191,0,0,1,1.212,9.547,7.111,7.111,0,0,1-2.485,2.919,7.265,7.265,0,0,1-4.079,1.157h-.027l-.263,0c-.158,0-.318-.007-.475-.007a13.081,13.081,0,0,0-8.144,2.715,12.8,12.8,0,0,0-4.379,6.475,11.858,11.858,0,0,0,.191,7.36,12.613,12.613,0,0,0,5.264,6.341l.344.212a8.012,8.012,0,0,1,3.532,3.988,7.334,7.334,0,0,1,.177,4.61,8.881,8.881,0,0,1-2.908,4.447,8.029,8.029,0,0,1-5.142,1.881,8.816,8.816,0,0,1-3.845-.921c.16.078.235.142.236.2,0,.089-.151.168-.382.287a3.344,3.344,0,0,0-1.22.939,3.76,3.76,0,0,0-.63,3.16,11.176,11.176,0,0,0,2.519,5.318,33.785,33.785,0,0,0,4.178,4.252,51.539,51.539,0,0,0,10.35,7.073,63.813,63.813,0,0,0,11.652,4.657,91.282,91.282,0,0,0,25.959,3.529c18.2,0,36.566-4.476,54.322-8.8,5.184-1.264,10.544-2.57,15.757-3.726,16.379-3.63,30.513-5.4,43.212-5.4a122.217,122.217,0,0,1,14.362.818,98.418,98.418,0,0,1,14,2.674,83.637,83.637,0,0,1,13.414,4.862,77.375,77.375,0,0,1,12.611,7.383.337.337,0,0,1,.13.387.314.314,0,0,1-.29.23.34.34,0,0,1-.171-.05,66.677,66.677,0,0,0-18.558-7.229,88.473,88.473,0,0,0-19.8-2.12A138.284,138.284,0,0,0,180.07,145.2c-11.132,2.425-22.426,5.7-33.35,8.877-17.766,5.159-36.136,10.494-54.611,12.421a79.388,79.388,0,0,1,9.657,49.227,71.394,71.394,0,0,1-4.354,16.538,142.409,142.409,0,0,1-7.308,15.48l-1.046,1.953a92.477,92.477,0,0,0-6.175,13.725,46.712,46.712,0,0,0-2.556,14.818c-.033,5.968-5.021,9.189-9.7,9.19a9.277,9.277,0,0,1-5.373-1.626,8.721,8.721,0,0,1-3.4-5.064c-4.226-16.351,5.245-30.289,14.4-43.769,4.056-5.97,7.887-11.608,10.609-17.45,7.491-16.083,8.113-35.29,1.7-52.7-3.666.295-7.292.444-10.777.444-3.544,0-7.071-.154-10.482-.459A101.2,101.2,0,0,1,48.7,163.4l-2.464,10.36c-3.138,13.262-6.279,27.423-7.207,41.922a197.152,197.152,0,0,0,.388,31.622,235.907,235.907,0,0,0,4.669,26.681A11.245,11.245,0,0,1,46.1,282.08a31.79,31.79,0,0,1,13.85,8.253,32.81,32.81,0,0,1,8.174,14.284.57.57,0,0,1-.089.508.662.662,0,0,1-.518.251.582.582,0,0,1-.506-.289,25.01,25.01,0,0,0-10.163-9.2,30.162,30.162,0,0,0-13.661-3.292,24.675,24.675,0,0,0-13.858,4,27.438,27.438,0,0,0-7.106,6.961,28.143,28.143,0,0,0-4.174,8.834,26.2,26.2,0,0,0,1.95,19.2A31.274,31.274,0,0,0,34.732,345.5l1.289.606c3.123,1.477,6.36,3.2,8.6,6.516a15.355,15.355,0,0,1,2.467,6.4,32.988,32.988,0,0,1,.166,6.848l-.115,1.918a27.045,27.045,0,0,0,.728,9.49l.215.679a9.28,9.28,0,0,0,.966,2.159c.084.134.591.65,1.082,1.15l.014.014c.3.3.575.586.732.757l.525.157.586.024h.032a4.715,4.715,0,0,0,.722-.073l.124-.021.04-.007a2.571,2.571,0,0,1,.318-.045c.026,0,.04,0,.042.012s-.015.03-.054.058l.076-.043c.214-.134.438-.289.664-.461l.363-.284a10.259,10.259,0,0,1,3.218-3.014l1.247-.555a5.841,5.841,0,0,1,4.349-1.837,8.541,8.541,0,0,1,6.761,3.621,13.894,13.894,0,0,1,2.644,7.4.884.884,0,0,1,.711-.44.626.626,0,0,1,.5.26l2.2,2.805q1.088,1.391,2.174,2.782c7.547,9.663,15.351,19.656,24.1,28.622A175.717,175.717,0,0,0,119.1,436.173c1.234.974,2.728,1.933,4.31,2.947,4.871,3.125,10.39,6.666,10.5,12.168.041,2.112-1.336,3.92-3.683,4.837A7,7,0,0,1,127.671,456.6ZM70.862,349.812a10.521,10.521,0,0,1-4.688-1.112c-3.408-1.708-4.781-4.5-6.235-7.463-.413-.842-.839-1.707-1.319-2.569a32.017,32.017,0,0,0-5.712-7.188,55.434,55.434,0,0,0-16.115-11.006,1.191,1.191,0,0,1-.643-1.1,1.259,1.259,0,0,1,.643-1.166,26.37,26.37,0,0,1,11.7-2.629,32.185,32.185,0,0,1,13.443,3.041l.535.254a42.644,42.644,0,0,1,6.718,4.1,36.634,36.634,0,0,1,6.177,5.728,21.464,21.464,0,0,1,4.05,6.891,13.04,13.04,0,0,1,.334,7.588,8.654,8.654,0,0,1-3.384,4.943A9.473,9.473,0,0,1,70.862,349.812ZM282.429,149a3.88,3.88,0,0,1-3.445-1.857,124.441,124.441,0,0,0-8.764-11.957,106.076,106.076,0,0,0-10.041-10.531,96.224,96.224,0,0,0-11.448-8.954,94.343,94.343,0,0,0-12.985-7.225.582.582,0,0,1-.337-.693.763.763,0,0,1,.7-.618.659.659,0,0,1,.18.026,91.142,91.142,0,0,1,27.992,13.523,84.828,84.828,0,0,1,11.811,10.232,76.835,76.835,0,0,1,9.591,12.282,3.8,3.8,0,0,1,0,3.916l-.358.484a2.831,2.831,0,0,1-1.96,1.3A6.128,6.128,0,0,1,282.429,149Zm61.04-2.242c-.976,0-1.953-.048-2.9-.142a1.187,1.187,0,0,1-1.124-.994,1.23,1.23,0,0,1,.812-1.307,42.151,42.151,0,0,0,15.574-11.192c3.646-4.122,5.436-8.761,7.331-13.673.261-.675.53-1.373.8-2.067a7.813,7.813,0,0,1,3.979-4.5,6.449,6.449,0,0,0,.632-1.076,3.76,3.76,0,0,1,3.28-1.84,3.82,3.82,0,0,1,3.745,2.758l.128.277c.226.513.3.839.214.968a.154.154,0,0,1-.138.065,1.573,1.573,0,0,1-.707-.338,7.246,7.246,0,0,1,2.537,7.454c-1.623,7-6.173,13.52-12.813,18.348a38.854,38.854,0,0,1-10.246,5.337A34.2,34.2,0,0,1,343.469,146.761Zm-37.5-5.49a5.022,5.022,0,0,1-4.576-2.925,29.5,29.5,0,0,1-2.182-6.462c-.33-1.306-.672-2.656-1.123-3.97a42.913,42.913,0,0,0-4.446-9.105c-4.056-6.36-9.714-11.55-14.191-15.361a.976.976,0,0,1-.218-1.1.939.939,0,0,1,.84-.671l.108.007a32.321,32.321,0,0,1,11.156,3.6,38.431,38.431,0,0,1,9.371,7.162,54.949,54.949,0,0,1,8.072,10.487c2.636,4.583,3.84,8.768,3.577,12.44A6.571,6.571,0,0,1,305.97,141.271ZM125.587,115.894a102.574,102.574,0,0,1-13.928-1.062,84.84,84.84,0,0,1-19.617-4.924A52.536,52.536,0,0,1,74.99,99.28a2.184,2.184,0,0,1-.537-2.465,2.508,2.508,0,0,1,2.281-1.6,2.378,2.378,0,0,1,.582.073c1.958.5,3.945,1.018,5.867,1.522h.005c9.752,2.561,19.836,5.21,30.163,5.513.854.025,1.73.038,2.6.038a122.121,122.121,0,0,0,15.831-1.143l3.1-.411a64.962,64.962,0,0,1,8.485-.688,28.535,28.535,0,0,1,5.855.557,3.56,3.56,0,0,1,2.712,2.484,4.457,4.457,0,0,1-.913,4.332,24.606,24.606,0,0,1-11.439,6.669A50.7,50.7,0,0,1,125.587,115.894Zm190.07-16.913A3.209,3.209,0,0,1,313.349,98,77.2,77.2,0,0,1,305.1,87.6l0,0c-1.069-1.522-2.175-3.1-3.321-4.623-1.786-2.382-3.747-4.677-5.643-6.9-2.161-2.53-4.393-5.143-6.379-7.9a1.437,1.437,0,0,1-.055-1.519,1.718,1.718,0,0,1,1.444-.979,1.274,1.274,0,0,1,.461.087,49.346,49.346,0,0,1,16.943,11.5,47.539,47.539,0,0,1,6.517,8.282,33.988,33.988,0,0,1,4,9.123,3.284,3.284,0,0,1-.583,2.9A3.659,3.659,0,0,1,315.657,98.981ZM132.559,88.6a52.9,52.9,0,0,1-19.884-4.074A51,51,0,0,1,96.1,73.733a1.4,1.4,0,0,1-.259-1.551,1.317,1.317,0,0,1,1.193-.877,1.3,1.3,0,0,1,.434.078A130.619,130.619,0,0,0,121,77.7a76.347,76.347,0,0,0,11.453.693c1.181,0,2.383-.011,3.545-.021h.062c1.137-.01,2.313-.02,3.47-.02,2.58,0,4.563.051,6.43.166a4.416,4.416,0,0,1,3.787,3.631,2.977,2.977,0,0,1-1.87,3.444A38.158,38.158,0,0,1,132.559,88.6Zm3.2-24.815a30.9,30.9,0,0,1-18.411-6.3,1.864,1.864,0,0,1-.569-2.065,1.277,1.277,0,0,1,1.2-.978,1.567,1.567,0,0,1,.6.13,48.964,48.964,0,0,0,19.4,3.553c1.027,0,2.1-.022,3.2-.066l.109,0a2.46,2.46,0,0,1,2.394,2.34,2.376,2.376,0,0,1-1.819,2.725A28.771,28.771,0,0,1,135.759,63.787Z" transform="translate(55 15.001)"/></svg>