<svg xmlns="http://www.w3.org/2000/svg" width="479.996" height="567" viewBox="0 0 479.996 567"><g transform="translate(5.996)"><path d="M384.074,176.065c-3.712-29.621-15.372-61.07-27.635-88.685-27.574-58.386-90.7-66.425-147.292-78.463C153.3.787,94.168-6.554,39.166,9.667c-30.921,7.575-43,44.4-38.118,73.462C3.833,101.238,12.076,118.377,19.1,135.16c13.971,34.466,22.835,71.365,22.85,108.681-.959,24.386-4.4,52.22,23.623,62.549C92.245,319.651,94.5,355.6,127.889,376c13.5,27.349,50.281,29.756,76.752,36.1,16.731,3.2,33.651,5.559,50.617,7.081,49.126,6.295,88.426-7.94,114.142-51.7,17.209-26.633,30.024-57.385,26.858-89.663C393.1,243.821,387.852,210.009,384.074,176.065Z" transform="translate(24 76)" fill="#d08b5b"/><path d="M294.12,493.065a133.693,133.693,0,0,1-31.691-3.712,107.532,107.532,0,0,1-29.157-11.646c-2.861-1.682-4.088-4.452-3.283-7.408a7.734,7.734,0,0,1,2.566-3.912,7.15,7.15,0,0,1,4.562-1.659,7.782,7.782,0,0,1,3.295.761,171.764,171.764,0,0,0,23.419,9.073,113.072,113.072,0,0,0,24.671,4.6c2.972.209,5.982.315,8.947.315a122.749,122.749,0,0,0,40.123-6.665,111.667,111.667,0,0,0,18.775-8.524,118.773,118.773,0,0,0,16.937-11.731,124.386,124.386,0,0,0,26.848-31.124A117.265,117.265,0,0,0,414.963,384a136.313,136.313,0,0,0,2.542-25.134c.12-7.283-.162-15.084-.917-25.292l-.086-1.143c-2.9-38.235-6.363-68.988-10.9-96.78-2.27-13.91-5.209-28.035-8.736-41.984-3.443-13.616-7.543-27.442-12.184-41.094a49.583,49.583,0,0,0-11.963-7.8c-12.1-.505-24.333-.762-36.365-.762-19.546,0-39.239.676-58.532,2.009a793.455,793.455,0,0,0-80.35,9.661l-2.85.5c-1.313.234-2.682.449-4.006.657-4.748.747-9.657,1.519-13.973,3.362a11.678,11.678,0,0,0-5.28,4.348,20.1,20.1,0,0,0-2.61,6.432c-2.927,11.812-3.443,24.548-3.942,36.864l-.047,1.167c-.218,5.325-.125,10.759-.035,16.014.117,6.8.238,13.834-.315,20.706a59.267,59.267,0,0,1-2.975,15.053,37.235,37.235,0,0,1-3.229,6.888,30.735,30.735,0,0,1-4.786,6.05,44.213,44.213,0,0,1-9.161,6.382c-1.388.8-2.822,1.627-4.209,2.518a8.8,8.8,0,0,0-3.159,3.066,7,7,0,0,0-.661,4.273,42.663,42.663,0,0,0,1.551,6.824c1.715,6.063,3.488,12.331-1.492,17.046a3.451,3.451,0,0,1-2.348.92,2.921,2.921,0,0,1-2.181-.92,45.24,45.24,0,0,0-7.459-6.036c-.914-.64-1.856-1.3-2.74-1.953a1.38,1.38,0,0,1-.57-1.566,1.336,1.336,0,0,1,1.27-.926,1.64,1.64,0,0,1,.67.151c1.011.453,2.054.956,3.062,1.443,1.119.54,2.273,1.1,3.428,1.608a29.4,29.4,0,0,0-8.462-4.65,60.646,60.646,0,0,0-9.138-2.512,31.607,31.607,0,0,0-6.17-.6c-.944,0-1.9.042-2.83.126-2.347,1.12-4.765,2.159-6.819,3.029-2.637,1.107-5.519,2.213-8.81,3.381a36.576,36.576,0,0,0-11.169,15.792,38.842,38.842,0,0,0-1.861,19.5,36.527,36.527,0,0,0,3.518,10.962,22.91,22.91,0,0,0,7.433,8.668c4.165,2.8,9.2,3.4,14.075,3.992,4,.483,8.135.982,11.814,2.678a26.307,26.307,0,0,1,9.469,7.576,51.039,51.039,0,0,1,6.341,10.464l1.455,3.073a126.638,126.638,0,0,0,10.994,19.616,98.074,98.074,0,0,0,18.23,19.14A92.862,92.862,0,0,0,168,434.056l1,.593c3.458,2.028,6.341,4.092,6.6,8.829a4.534,4.534,0,0,1-2.23,3.89,7.984,7.984,0,0,1-4.385,1.313c-3.617,0-7.15-2.4-10.268-4.509l-.011-.008c-.4-.273-.783-.531-1.166-.786a115.138,115.138,0,0,1-14.289-11.2,110.376,110.376,0,0,1-21.41-27.05,84.658,84.658,0,0,1-3.883-8.337c-2.505-5.908-5.1-12.016-9.626-15.972-3.488-3.042-8.159-3.539-12.677-4.02-.819-.087-1.665-.177-2.484-.282a37.368,37.368,0,0,1-13.639-3.989c-17.41-9.67-22.334-33.062-18.2-51.17a53.683,53.683,0,0,1,2.891-8.881,8.6,8.6,0,0,1-1.408.115,10.9,10.9,0,0,1-8.693-4.735,8.176,8.176,0,0,1-1.03-7.76c.145-.37.309-.73.467-1.077l0-.009q.09-.2.178-.394a22.265,22.265,0,0,1-9.24-12.64,20.1,20.1,0,0,1-.509-8.6,13.944,13.944,0,0,1-4.88-5.649,17.234,17.234,0,0,1-8.311-7.369,14.146,14.146,0,0,1-1.8-6.751,13.935,13.935,0,0,1,1.525-6.151c-.268-.484-.53-.989-.78-1.5a25.761,25.761,0,0,1-8.559-8.829,20.989,20.989,0,0,1-.892-19.561c-.106-.341-.191-.629-.259-.881-6.469-3.289-10.916-8.442-12.521-14.509a19.035,19.035,0,0,1,.015-9.728,23.013,23.013,0,0,1,4.395-8.572c-6.939-5.077-9.366-11.55-7.42-19.79A24.648,24.648,0,0,1,9.6,158a2.4,2.4,0,0,0-.044-.242l-.006-.028-.562-.436c-8.708-6.871-11.1-14.426-7.118-22.454a20.084,20.084,0,0,1,8.37-8.88l.17-.54a24.374,24.374,0,0,1-1.59-17.21,19.5,19.5,0,0,1,3.365-6.762,21.316,21.316,0,0,1,5.465-4.977,24.541,24.541,0,0,1,.21-7.281,18.974,18.974,0,0,1,2.152-6.124A17.865,17.865,0,0,1,24,78.2c.109-.53.253-1.094.44-1.721a30.839,30.839,0,0,1,5.44-10.09,8.458,8.458,0,0,1,6.73-3.27,24.268,24.268,0,0,1,4.545-16.076,20.361,20.361,0,0,1,7.965-6.6,15.282,15.282,0,0,1,6.327-1.346,16.607,16.607,0,0,1,1.773.1,16.314,16.314,0,0,1,4.9-6.034,15.73,15.73,0,0,1,7.3-3,21.988,21.988,0,0,1,3.06-.22,19.561,19.561,0,0,1,2.87.209,34.226,34.226,0,0,1,3.22-1.3c.726-.255,1.444-.486,2.24-.739a23.453,23.453,0,0,1,9.75-7.16,18.222,18.222,0,0,1,6.64-1.258,18.926,18.926,0,0,1,6.471,1.157l1.29-.27a15.235,15.235,0,0,1,4-4.571,16.948,16.948,0,0,1,6.193-2.869,15.6,15.6,0,0,1,3.741-.452,19.627,19.627,0,0,1,12.07,4.534h.008a.169.169,0,0,0,.063-.011,15.349,15.349,0,0,1,4.62-6.142,12.365,12.365,0,0,1,7.626-2.391c.212,0,.428,0,.644.012a14.329,14.329,0,0,1,5.839,1.531,18.414,18.414,0,0,1,4.9,3.6c1.612-.2,3.2-.38,4.811-.56a41.927,41.927,0,0,1,5.68-5.521,7.8,7.8,0,0,1,4.867-1.84,6.515,6.515,0,0,1,5.523,3.179c.541.825,1.05,1.672,1.542,2.492l.029.048,2.31-.159a16.317,16.317,0,0,1,4.87-4.477,14.185,14.185,0,0,1,6.64-1.873c.181-.007.362-.011.54-.011,3.885,0,7.146,1.731,9.97,5.291,1.92-.047,3.948-.086,6.2-.121a37.87,37.87,0,0,1,8.49-7.29,6.178,6.178,0,0,1,3.3-.9,6.832,6.832,0,0,1,4.851,1.954,53.393,53.393,0,0,1,3.8,4.418,20.807,20.807,0,0,1,11.491-6.488A5.555,5.555,0,0,1,243.832,0a8.24,8.24,0,0,1,5.486,2.383,19.514,19.514,0,0,1,4.923,2.241,55.186,55.186,0,0,1,7.029-.4c1.132,0,2.331.024,3.664.073a18.651,18.651,0,0,1,2.72-1.25A21.12,21.12,0,0,1,274.9,1.7a19.639,19.639,0,0,1,11.062,3.511,12.422,12.422,0,0,1,8.759-3.593c.257,0,.521.007.782.022a10.951,10.951,0,0,1,4.635,1.282,14.975,14.975,0,0,1,3.6,2.781,13.063,13.063,0,0,1,4.178-3.873A13.318,13.318,0,0,1,313.74.065c.461-.033.931-.049,1.4-.049,5.159,0,10.471,2.015,15.364,5.827A14.476,14.476,0,0,1,341.454.729a17.728,17.728,0,0,1,3.16-.281,18.415,18.415,0,0,1,5.326.782A23.248,23.248,0,0,1,360,7.485c4.657-4.459,9.544-6.72,14.523-6.72.391,0,.787.014,1.178.042A19.052,19.052,0,0,1,386.257,5.1a23.8,23.8,0,0,1,6.917,9.22,43.975,43.975,0,0,1,7.652,3.94,37.4,37.4,0,0,1,6.737,5.6c.143.148.285.305.422.457l.01.011.219.241a20.887,20.887,0,0,1,6.15,3.509,16.192,16.192,0,0,1,5.51,8.615,19.8,19.8,0,0,1-.31,10.136c.24.978.466,2.04.71,3.34a18.023,18.023,0,0,1,13.24,9.111,21.6,21.6,0,0,1,2.475,11.639,24.817,24.817,0,0,1-1.08,5.955,23.56,23.56,0,0,1-2.475,5.446,30.863,30.863,0,0,1-6.64,7.457,18.241,18.241,0,0,1,1.256,10.349,18.893,18.893,0,0,1-4.42,9.406,25.577,25.577,0,0,1-4.107,4.99,15.258,15.258,0,0,1-.795,9.917,16.22,16.22,0,0,1-6.716,7.541l-.527,1.318c-.1.252-.187.459-.271.653-.063.257-.14.511-.215.756l-.02.067a13.433,13.433,0,0,1-2.52,7.016,54.636,54.636,0,0,1-3.606,4.436c-2.254,2.579-4.382,5.013-5.752,8.461l-.213.561a5.754,5.754,0,0,1-5.133,3.715,4.174,4.174,0,0,1-1.24-.185A229.378,229.378,0,0,1,400.8,180.8c2.6,7.162,5.025,14.858,7.2,22.874a452.111,452.111,0,0,1,9.792,46.842c2.345,14.6,4.309,29.946,6,46.911l1.537,15.629c1.292,13.287,2.554,27.457,2.562,41.77a150.6,150.6,0,0,1-6.913,45.89,133.17,133.17,0,0,1-21.447,41.061,134.6,134.6,0,0,1-15.091,16.5A132.713,132.713,0,0,1,366.9,471.974a129.445,129.445,0,0,1-19.6,10.513,125.892,125.892,0,0,1-21.256,6.97A142.082,142.082,0,0,1,294.12,493.065ZM92.922,143.771a3.023,3.023,0,0,0-2.946,2.041,11.156,11.156,0,0,0,.078,8.042,10.579,10.579,0,0,0,5.621,5.714,3.987,3.987,0,0,0,1.58.346,2.842,2.842,0,0,0,2.524-1.422,3.262,3.262,0,0,0,.226-2.56,2.431,2.431,0,0,0-1.3-1.544c-3.013-1.317-4.06-3.645-3.029-6.73l.087-.25a2.488,2.488,0,0,0-.225-2.388A3.192,3.192,0,0,0,92.922,143.771Zm-49.433-11.3h0a2.984,2.984,0,0,0-1.989.788,13.669,13.669,0,0,0-3.292,4.16,8.777,8.777,0,0,0-.881,5.163c.447,3.2,2.637,6.007,6.509,8.348a2.916,2.916,0,0,0,1.516.452,2.7,2.7,0,0,0,1.786-.7,3.444,3.444,0,0,0,1.036-1.653,2.791,2.791,0,0,0-1.311-3.28l-.372-.227c-1.475-.916-3.013-2.077-3.244-3.74-.257-1.853,1.4-3.315,2.494-4.282a2.532,2.532,0,0,0,.8-2.9,3.377,3.377,0,0,0-3.049-2.13ZM60.962,86.442h0a2.7,2.7,0,0,0-1.577.552c-3.457,2.467-5.24,5.228-5.452,8.438-.205,3.116,1.134,6.223,3.982,9.233a2.725,2.725,0,0,0,1.994.923,3.247,3.247,0,0,0,2.842-2,2.821,2.821,0,0,0-.594-3.168c-1.5-1.589-2.234-3.2-2.113-4.666a4.859,4.859,0,0,1,2.164-3.433l.206-.151a3.1,3.1,0,0,0,1.148-3.562,2.885,2.885,0,0,0-2.6-2.17Zm55.68,256.842a6.738,6.738,0,0,1-5.459-2.745c-.828-1.091-1.619-2.2-2.384-3.266l0-.006a52.972,52.972,0,0,0-6.551-8,37.519,37.519,0,0,0-3.681-2.951c-2.468-1.815-5.019-3.691-6.27-6.43a.27.27,0,0,1,.1-.38,8.6,8.6,0,0,1,4.312-1.067c3.75,0,7.725,1.831,11.158,3.547,6.2,3.095,11.3,7.392,14.351,12.1a5.532,5.532,0,0,1,.495,5.828A6.98,6.98,0,0,1,116.642,343.284Z" transform="translate(-6 12)"/></g></svg>