<svg xmlns="http://www.w3.org/2000/svg" width="474" height="663.617" viewBox="0 0 474 663.617"><path d="M171.2.076C321.717,4.841,330.8,76.333,330.8,196.227s-78.08,195.446-106.83,208.638S119.512,474.723,51.195,448.61,2.661,312.174,2.661,264.772,20.692-4.69,171.2.076Z" transform="translate(89.078 105.098)" fill="#d08b5b"/><path d="M0,185.848Q46.681-4.5,170.435.109C294.19,4.717,292.885,130.854,285.121,119.353q-7.609-11.271-106.542-78.747L174.5,37.828Z" transform="translate(114.805 109.597)" fill="#9fd8e5"/><path d="M259.92,626.617c-20.991,0-40.977-8.048-57.759-15.919C172.23,596.669,142.39,581,113.534,565.856l-.021-.011c-8.868-4.655-18.037-9.469-27.062-14.157-22.419-11.64-40.744-21.24-57.669-30.211-1.6-.846-3.693-1.983-5.756-3.28l-.439-.006h-.073c-.344-.005-.734-.011-1.112-.011-1.284,0-2.607.078-4.008.161-1.419.084-2.883.17-4.319.17a19,19,0,0,1-5.769-.735A10.182,10.182,0,0,1,.464,510.9a12.007,12.007,0,0,1-.442-4.108,18.086,18.086,0,0,1,2.581-8c3.252-5.47,8.735-10.084,13.573-14.155l.962-.81c5.815-4.905,11.808-9.3,16.9-12.947,2.371-1.7,4.8-3.407,7.156-5.059,4.259-2.991,8.662-6.083,12.894-9.253l.159-.242c.3-.459.613-.934.91-1.413A79.648,79.648,0,0,0,66.731,420.3a114.656,114.656,0,0,1-6.78-9.36,243.816,243.816,0,0,1-26.76-57.662,310.665,310.665,0,0,1-12.929-62.318,286.061,286.061,0,0,1,.379-63.157A265.072,265.072,0,0,1,59.1,117.638,271.963,271.963,0,0,1,92.292,74.5a258.875,258.875,0,0,1,41.191-35.417,237.77,237.77,0,0,1,47.87-25.577A197.95,197.95,0,0,1,215.641,3.477,185.089,185.089,0,0,1,251.079,0a172.656,172.656,0,0,1,32.314,3.028,162.51,162.51,0,0,1,26.436,7.449,175.031,175.031,0,0,1,25.04,11.734A179.647,179.647,0,0,1,357.8,37.7a174.366,174.366,0,0,1,20.1,18.716,195.489,195.489,0,0,1,14.733,18.214,213.12,213.12,0,0,1,12.481,19.7,251.955,251.955,0,0,1,18.8,42.807c9.233,27.47,14.963,58.418,17.03,91.983,2.536,41.285-1.609,81.248-12.321,118.778a345.913,345.913,0,0,1-20.418,53.677,381.7,381.7,0,0,1-28.691,49.9c1.032,1.549,2.173,3.2,3.7,5.341,5.085,7.114,10.512,14.8,15.75,22.782a158.154,158.154,0,0,1,12.44,22.036,79.145,79.145,0,0,1,6.859,24.063,63.1,63.1,0,0,1,.36,8.279,11.959,11.959,0,0,1-3.639,8.036,11.485,11.485,0,0,1-7.941,3.536,9.136,9.136,0,0,1-5.44-1.8,24.975,24.975,0,0,0-15.123-4.817,45.038,45.038,0,0,0-14.178,2.657c-5.251,6.651-10.695,13.327-16.179,19.84-7.4,8.775-14.1,16.655-21.25,24.242a204.685,204.685,0,0,1-23.65,21.837,97.331,97.331,0,0,1-24.017,13.86,74.84,74.84,0,0,1-27.153,5.25ZM112.072,481.956a3.845,3.845,0,0,0-2.55,1,4.6,4.6,0,0,0-1.424,2.315,3.5,3.5,0,0,0,1.868,4.108,161.641,161.641,0,0,0,29.9,12.207,255.162,255.162,0,0,0,31.531,7.2,4.608,4.608,0,0,0,.764.066,4.407,4.407,0,0,0,4.241-4.116,3.238,3.238,0,0,0-2.879-3.663,257.159,257.159,0,0,1-30.545-6.881A152.927,152.927,0,0,1,114,482.468,4.065,4.065,0,0,0,112.072,481.956Zm29.456-32.784a4.477,4.477,0,0,0-4.007,2.8,3.456,3.456,0,0,0,1.011,3.943,142.081,142.081,0,0,0,19.9,15.174,162.913,162.913,0,0,0,22.045,11.64,207.226,207.226,0,0,0,47.949,13.957,4.6,4.6,0,0,0,.77.066,4.013,4.013,0,0,0,2.972-1.3,4.758,4.758,0,0,0,1.263-2.813,3.243,3.243,0,0,0-2.877-3.671,204.494,204.494,0,0,1-46.043-13.187,154.532,154.532,0,0,1-21.2-11.032,132.517,132.517,0,0,1-19.117-14.5A3.909,3.909,0,0,0,141.529,449.172ZM288.893,115.057q-.987.8-1.97,1.6l-.128.1-1.883,1.532c-3.248,2.647-6.508,5.323-9.661,7.911l-.008.007c-4.74,3.89-9.641,7.912-14.491,11.833-17.3,13.991-34.4,28.262-47.37,39.131-25.339,21.237-58.782,49.2-92.76,77.149A157.068,157.068,0,0,0,117.639,286a191.219,191.219,0,0,0,2.883,31.7,205.079,205.079,0,0,0,9.062,33.68c4.267,12.017,9.348,23.558,13.3,32.27,6.7,6.267,12.388,11.347,17.9,15.988,6.557,5.518,12.791,10.34,19.058,14.743,16.831,11.815,33.016,20.166,49.48,25.53a125.606,125.606,0,0,0,38.974,6.448,105.76,105.76,0,0,0,25.588-3.087,99.739,99.739,0,0,0,24.458-9.68,128.385,128.385,0,0,0,31.9-25.547,166.2,166.2,0,0,0,23.555-33.5c13.446-24.956,20.865-53.965,22.681-88.683a405.391,405.391,0,0,0-.5-46.627c-1.029-16.444-2.76-32.6-4.318-46.241a4.653,4.653,0,0,1-.653.046,5.287,5.287,0,0,1-1.356-.185c-3.983-1.068-6.952-4.384-9.824-7.591-.876-.979-1.7-1.9-2.555-2.759-4.047-4.077-8.186-8.037-12.3-11.771-7.848-7.122-16.282-14.076-25.069-20.669C331.205,143.548,322,137.475,313.1,131.6,305.08,126.308,296.783,120.833,288.893,115.057Zm3.819-18.84a99.522,99.522,0,0,0-15.359,1.316,103.3,103.3,0,0,0-14.767,3.581,121.235,121.235,0,0,0-27.733,13.193c-8.339,5.293-16.912,11.349-25.481,18-7.8,6.054-15.847,12.8-23.92,20.042A290.134,290.134,0,0,0,164.488,173.1a222.439,222.439,0,0,0-18.365,23.022,175.4,175.4,0,0,0-14.636,25.387,147.385,147.385,0,0,0-9.775,27.843l-.066.279c-.134.566-.273,1.151-.4,1.73,27.225-26.642,56.177-53.649,86.05-80.27,9.121-8.128,18.423-16.355,27.42-24.312l.018-.016.011-.009c6.037-5.34,12.28-10.861,18.412-16.3,6.929-6.144,14.064-12.286,20.964-18.226l2.536-2.183,2.8-2.412.024-.021c2.939-2.53,5.978-5.146,8.973-7.708.512-.439,1.03-.9,1.532-1.342l.008-.007C290.873,97.767,291.784,96.96,292.712,96.217Zm13.591.82a4.976,4.976,0,0,1-.211.87,15.3,15.3,0,0,1-3.346,5.511,43.257,43.257,0,0,1-4.82,4.29l-.014.011q-.446.36-.9.727c-1.348,1.087-2.695,2.191-3.851,3.14A136.778,136.778,0,0,1,321.11,123.52,248.327,248.327,0,0,1,346.7,140.088a310.477,310.477,0,0,1,26.91,21.979c4.154,3.787,8.286,7.757,12.281,11.8.63.636,1.307,1.278,2.024,1.958l.007.006c.639.606,1.3,1.232,1.948,1.876l-.11-.942-.013-.115c-.059-.5-.118-1-.177-1.5a6.547,6.547,0,0,1,1.291-4.619,102.185,102.185,0,0,0-12.246-27.118,103.736,103.736,0,0,0-19.162-22.22,102.347,102.347,0,0,0-24.6-15.924A99.118,99.118,0,0,0,306.3,97.037Z" transform="translate(3 36.999)"/></svg>