<svg xmlns="http://www.w3.org/2000/svg" width="474" height="567" viewBox="0 0 474 567"><path d="M241.078,449.929c-22.2.131-41.06-6.167-55.454-16.586-17.962-6.4-39.628-16.284-52.788-26.655-5.133,1.31-11.275-4.143-15.2-7.021-24.425-18.239-43.6-44.936-49.278-71.678-8.77,11.07-21.25,11.53-33.205,6.028-25.06-14.212-24.123-44.137-15.1-66.495C1.082,224.965-12.063,112.619,16.89,67.278c5.922-6.784,14.613-10.842,20.87-17.8C43.328,43.4,48.624,37.188,55.1,32.38c19.766-15.044,53.81-23.054,75.126-26.821C219.21-13.679,287.578,20.9,368.18,50.066a142.024,142.024,0,0,1-18.41,32.043c20.01,7.469,10.819,24.262-4.705,32.775l-9.242-4.492c14.407,51.546,47.563,179.728,33.257,220.891-11.408,64.22-61.474,119.112-128,118.646" transform="translate(46.33 59.54)" fill="#d08b5b"/><path d="M17.95,262.467C.158,216.665-10.981,110.925,16.89,67.278c5.922-6.784,14.612-10.842,20.87-17.8C43.328,43.4,48.624,37.188,55.1,32.38,74.868,17.336,108.912,9.326,130.228,5.558,219.21-13.679,287.578,20.9,368.18,50.066a141.976,141.976,0,0,1-18.41,32.043c20.011,7.469,10.82,24.262-4.7,32.775l-6.822-3.316c-1.8-9.622-6.6-28.452-16.751-29.461-13.667-1.358-43.914,24.209-57.085,24.209s-80.087-28.6-116.844-28.6S79.515,108.08,67.082,130.084s18.5,49.333,18.5,49.333-18.5,23.719-18.5,34.091,4.324,42.877,4.324,42.877-19.924-6.538-31.321-6.538S20.3,262.467,20.3,262.467Zm53.456-6.082Z" transform="translate(46 60)" fill="#ecdcbf"/><path d="M247.529,463.649a120.474,120.474,0,0,1-19.369-1.544,102.135,102.135,0,0,1-18.847-4.9,80.783,80.783,0,0,1-17.122-8.657,65.851,65.851,0,0,1-14.2-12.816,3.646,3.646,0,0,1-.841-2.26,3.69,3.69,0,0,1,.763-2.316,3.4,3.4,0,0,1,2.712-1.348,3.57,3.57,0,0,1,1.761.479l1.766.984a181.767,181.767,0,0,0,20.154,9.762,107.373,107.373,0,0,0,21.465,6.31,117.814,117.814,0,0,0,20.573,1.826,114.928,114.928,0,0,0,25.5-2.865,111.339,111.339,0,0,0,37.429-16.191,125.449,125.449,0,0,0,29.048-27.356,152.451,152.451,0,0,0,21.945-39.44A169.248,169.248,0,0,0,370.545,319.1a197.933,197.933,0,0,0,.607-27.224c-.369-8.563-1.219-17.419-2.6-27.074-2.558-17.878-6.513-35.476-10.684-53.432-9.587-41.276-19.041-77.322-28.9-110.2a7.866,7.866,0,0,1-.322-3.064,11.878,11.878,0,0,0-4.35-.8,17.749,17.749,0,0,0-5.7,1.038c-6.118,2.066-12.337,6.77-17.333,10.55l-.279.211c-1.76,1.332-3.579,2.709-5.185,3.809-7.262,4.968-14.222,7.6-21.279,8.048-.7.044-1.421.067-2.139.067a42.335,42.335,0,0,1-10.96-1.544,76.812,76.812,0,0,1-10.469-3.716c-3.791-1.624-7.536-3.315-11.158-4.951l-.134-.06c-10.226-4.617-20.8-9.392-32.1-12.431a173.406,173.406,0,0,0-45.052-5.969c-.524,0-1.057,0-1.585.007a142.968,142.968,0,0,0-20.915,1.65,100.99,100.99,0,0,0-19.912,5.161,75.523,75.523,0,0,0-17.873,9.568,67.343,67.343,0,0,0-14.8,14.871,49.928,49.928,0,0,0-7.934,15.439,31.922,31.922,0,0,0-1.273,8.382,29.243,29.243,0,0,0,1.23,8.747,45.7,45.7,0,0,0,4.006,9.262,80.9,80.9,0,0,0,5.539,8.462l1.364,1.837c2.068,2.809,4.062,5.85,4.645,9.053a11.623,11.623,0,0,1-1.774,8.465,40.5,40.5,0,0,1-4.2,5.359l-.049.055a45.971,45.971,0,0,0-3.08,3.749,48.846,48.846,0,0,0-4.9,8.586A50.3,50.3,0,0,0,77.1,229.66c-.275,7.658.81,15.28,1.859,22.651l.026.186c.75,5.268,1.524,10.715,1.833,16.166a3.159,3.159,0,0,1-.643,2.178A3.1,3.1,0,0,1,78.126,272a3.483,3.483,0,0,1-.456.03c-.1,0-.209,0-.314-.014.127.515.241,1.045.339,1.574-.512-.658-1.07-1.315-1.662-1.95-.034-.017-.071-.036-.111-.059a3.432,3.432,0,0,1-1.438-1.488,31.848,31.848,0,0,0-2.629-2.19,30.231,30.231,0,0,0-7.7-4.2,25.137,25.137,0,0,0-8.312-1.569l-.287,0A21.456,21.456,0,0,0,40.835,267.8a31.981,31.981,0,0,0-8.482,14.441,59.9,59.9,0,0,0-2.328,16.771A54.421,54.421,0,0,0,32.436,316.2c2.038,6.178,5.307,10.9,9.716,14.041A23.731,23.731,0,0,0,55.516,334.7h.164c3.775,0,7.426-1.308,10.957-2.572l.326-.117c1.124-.4,2.283-.817,3.428-1.19a6.215,6.215,0,0,1,1.922-.317,5.5,5.5,0,0,1,1.579.231,5.691,5.691,0,0,1,2.877,2.02,6.993,6.993,0,0,1,1.36,3.393,6.769,6.769,0,0,1-.534,3.595c-.121.27-.253.542-.4.832l2.123,3.491c8.212,13.467,16.474,26.5,27.246,37.877a160.144,160.144,0,0,0,20.062,18.217l1.044.775c.649.477,1.4,1.089,2.057,1.629.219.179.442.365.67.553,1.976,1.64,4.217,3.5,6.334,3.581.088,0,.178.005.268.005a11.229,11.229,0,0,0,1.5-.126l.1-.013a12.454,12.454,0,0,1,1.626-.128,5.023,5.023,0,0,1,1.957.353,6.2,6.2,0,0,1,2.768,2.447,6.021,6.021,0,0,1,.973,3.349,6.509,6.509,0,0,1-.929,3.389,9.611,9.611,0,0,1-4.331,3.917,9.124,9.124,0,0,1-3.648.726,12.1,12.1,0,0,1-2.207-.213c-5.278-.984-11.158-5.5-14.317-7.921l-.694-.531a152.106,152.106,0,0,1-22.1-20.275C84.656,376.916,75.7,362.017,71.079,347.4a21.6,21.6,0,0,1-6.066,2.7,29.81,29.81,0,0,1-6.868,1.031c-.448.017-.907.026-1.363.026a44.369,44.369,0,0,1-18.224-4.091,38.778,38.778,0,0,1-14.4-11.771,49.172,49.172,0,0,1-8.04-16.728,68.905,68.905,0,0,1-2.173-22.195,70.694,70.694,0,0,1,4.491-21.111c.155-.4.313-.789.448-1.116A246.524,246.524,0,0,1,9.332,244.4,289.936,289.936,0,0,1,3.323,213.6,366.965,366.965,0,0,1,.208,151.115C.779,133.1,2,112.066,6.7,92.622c2.227-9.206,6.019-17,11.272-23.162,3.284-3.853,7.3-6.824,11.191-9.7l.159-.117A65.787,65.787,0,0,0,39,51.478l1.38-1.513.411-.453.483-.532c4.863-5.36,9.891-10.9,16.053-15.493a109.243,109.243,0,0,1,23.04-12.842,204.6,204.6,0,0,1,27.076-9.11c8.292-2.21,17.165-4.161,27.926-6.139A316.786,316.786,0,0,1,192.418,0a268.638,268.638,0,0,1,32.451,1.939,244.269,244.269,0,0,1,32.084,6.1c18.558,4.855,36.8,11.589,54.447,18.1l1.166.43.033.012q1.9.7,3.8,1.4c13.333,4.909,26.887,9.877,40,14.681l1.859.681c7.638,2.8,13.82,5.064,19.455,7.132a7.074,7.074,0,0,1,3.569,3.01,5.059,5.059,0,0,1,.375,4.486,140.591,140.591,0,0,1-15.11,28.372,18.345,18.345,0,0,1,5.3,5.614,19.567,19.567,0,0,1,2.822,9.781,19.281,19.281,0,0,1-1.707,8.274,27.068,27.068,0,0,1-4.66,6.98c-3.861,4.3-8.9,7.812-13.315,10.68a6.838,6.838,0,0,1-2.48,1.019c7.205,27.55,16.471,63.914,24.244,100.864l.489,2.345c4.326,20.891,6.84,37.9,7.914,53.54,1.346,19.6.435,37.228-2.785,53.893a180.236,180.236,0,0,1-14.869,44.824,156.923,156.923,0,0,1-26.647,38.914,129.4,129.4,0,0,1-36.692,27.236A128.118,128.118,0,0,1,260.265,463,125.237,125.237,0,0,1,247.529,463.649ZM193.022,11.783h0a288.98,288.98,0,0,0-32.652,1.907c-10.522,1.2-21.382,3-32.28,5.331l-2.33.5c-9.856,2.149-17.326,4.046-24.221,6.151a148.7,148.7,0,0,0-23.224,9.071A83.289,83.289,0,0,0,58.14,48.418c-2.6,2.446-4.993,5.165-7.308,7.794l-.075.085A87.936,87.936,0,0,1,40.128,67.053L36.451,70c-5.568,4.486-10.426,8.752-13.491,15.539-3.341,7.4-4.862,15.615-6.025,22.735-1.536,9.387-2.674,19.23-3.385,29.254-.67,9.459-.979,19.365-.917,29.441a404.494,404.494,0,0,0,3.471,49c1.833,14.371,4.4,29.756,8.064,48.415,5.684-8.134,13.069-13.008,21.355-14.095a28.993,28.993,0,0,1,24.972,9c-4.155-13.185-5.652-26.03-4.33-37.145a58.756,58.756,0,0,1,6.939-21.7A66.953,66.953,0,0,1,80.7,189.664l.982-1.129.114-.131a4.049,4.049,0,0,0,1.031-1.638,2.022,2.022,0,0,0-.237-1.311,14.128,14.128,0,0,0-2.178-3l-.031-.036-.179-.208c-.527-.613-1.125-1.308-1.607-1.96a71.842,71.842,0,0,1-10.07-18.235A47.207,47.207,0,0,1,66.092,152a39.77,39.77,0,0,1,.066-10.465,53.019,53.019,0,0,1,7.458-19.793,89.578,89.578,0,0,1,13.24-16.7,73.06,73.06,0,0,1,16.158-12.184,92.215,92.215,0,0,1,18.679-7.793c11.9-3.552,25.506-5.353,40.455-5.353,2.583,0,5.235.055,7.883.163A186.044,186.044,0,0,1,219.676,88.7a191.572,191.572,0,0,1,23.134,9.232l1.662.8c.928.45,1.841.9,2.689,1.314l.2.1c5.719,2.8,11.633,5.7,17.933,7.251a26.216,26.216,0,0,0,6.235.783,23.737,23.737,0,0,0,6.37-.869A30.212,30.212,0,0,0,283.7,105a81.739,81.739,0,0,0,10.784-7.074l.552-.4c2.994-2.191,6.091-4.457,9.406-6.457l.675-.4a39.6,39.6,0,0,1,19.355-5.639c.147,0,.3,0,.441,0a25.27,25.27,0,0,1,8.6,1.579,22.508,22.508,0,0,1,7.647,4.854,6.17,6.17,0,0,1,1.758,2.909,7.964,7.964,0,0,1,1.2,2.592c1.614,6.057,3.284,12.355,4.965,18.718l1.348-.869c4.344-2.821,8.4-5.7,10.3-9.9a8.679,8.679,0,0,0-.3-6.5,4.006,4.006,0,0,0-1.379-1.747,2.417,2.417,0,0,0-1.345-.385c-.081,0-.165,0-.249.01a8.493,8.493,0,0,1-1.077.07,7.624,7.624,0,0,1-2.983-.592,6.7,6.7,0,0,1-3.128-2.643,6.018,6.018,0,0,1-.868-3.937,6.852,6.852,0,0,1,1.709-3.678,110.779,110.779,0,0,0,16.913-25.921L339.169,48.922c-8.457-3.127-19.608-7.248-30.864-11.386l-5.635-2.071c-19.042-6.984-37.73-13.616-57-17.991a226.5,226.5,0,0,0-26.189-4.32,252.213,252.213,0,0,0-26.457-1.371ZM79.418,307.8l-.2,0c-3.692-.1-5.868-1.572-8.766-3.8-.337-.26-.669-.514-1.016-.774a36.061,36.061,0,0,0-8.533-4.805,39.576,39.576,0,0,0-14.332-2.759,37.394,37.394,0,0,0-6.434.561,3,3,0,0,1-2.041-.371,3.241,3.241,0,0,1-1.334-1.513,2.858,2.858,0,0,1-.05-2.149,2.8,2.8,0,0,1,1.462-1.543,46.89,46.89,0,0,1,9.368-3.318,42.722,42.722,0,0,1,9.825-1.164,40.4,40.4,0,0,1,5.416.364l.834.119c4.269.633,10.326,1.951,14.942,4.64a16.509,16.509,0,0,1,4.52,3.729A10.714,10.714,0,0,1,85.408,300a7.15,7.15,0,0,1-1.273,5.477A5.8,5.8,0,0,1,79.418,307.8Z" transform="translate(40 52)"/></svg>