<svg xmlns="http://www.w3.org/2000/svg" width="499" height="567" viewBox="0 0 499 567"><g transform="translate(25)"><path d="M453.872,188.624C434.167,69.447,283.707,47.96,185.663,73.044c-1.807-22.924-16.249-43.18-34.271-56.5C74.836-38.549-15.8,54.981,2.347,135.589c3.255,24.419,22.775,52.284,50.086,48.105C18.1,248.661,4.689,379.664,80.326,420.16c7.3,5.193,8.508,15.74,14.124,22.5,9.117,10.907,48.068,24.8,69.14,13.666,6.621,6.084,14.26,12,23.191,14.109,46.138,36.932,113.565,45.265,169.747,30.026,34.614-5.874,70.5-21.488,88.3-53.389,15.089-24.279,8.136-52.726,1.217-78.423a344.673,344.673,0,0,1-6.133-42.754c2.454-2.865,2.591-6.843,3.2-10.466,2.657-12.841,8.463-24.758,11.367-37.562,6.5-29.066,5.369-60.12-.614-89.246" transform="translate(-25 6)" fill="#d08b5b"/><path d="M14.784,48.423C31.806,16.009,65.173-2.28,98.544.228c34.143,2.566,60.271,26.1,66.321,64.112l.177,1.156.364,2.467-.331.113.16.28.286.479c.339.552.755,1.18,1.323,2l.759,1.083,2.555,3.586.181.257.545.784,1.1-.388c53.5-18.68,113.082-18.488,166.346,1.375l1.612.608,1.485.573.838.218c32.656,8.636,58.751,29.4,76.614,59.139l.539.9.545.928c16.306,28,24.666,62.618,24.079,97.369l-.021,1.064-.009.17-.09,1.048c-.776,8.34-2.875,15.794-7.217,27.161l-.555,1.442-.859,2.2-2.677,6.781-.655,1.687-7.68,20.164L425.7,278.75c.158-2.251.246-4.227.322-7.244l.013-.544.173-8.564.051-1.913c.027-.89.056-1.693.09-2.477l.055-1.168.1-1.815.025-.378-.049-.408c-1.635-12.863-7.539-23.845-17.7-34.25l-.529-.538-.537-.537-.642-.632c-7.488-7.322-15.057-12.92-30.738-23.194l-.677-.443-9.112-5.928-3.411-2.236c-7.519-4.953-12.1-8.161-16.947-11.9l-1.044-.811-.817-.642c-8.389-6.64-14.942-13.165-19.973-20.2l-.467-.661-.992-1.42.709-1.516-.012.02v-.006l.034-.162.048-.271.049-.329c.089-.651.165-1.5.219-2.461.02-.347.036-.7.049-1.061l.017-.542.009-.468-.187.552c-9.714,28.038-32.734,51.432-65.182,68.7l-.986.521-1.115.581c-31.982,16.55-71.1,26.053-105.022,26.322l-1.092.005-1.08,0-.834-.687c-3.112-2.565-8.84.628-7.8,5.2a356.644,356.644,0,0,1,5.775,128.149l-.209,1.47-.023.139-.224,1.192c-.195,1.063-.381,2.152-.583,3.407l-.318,2.025-1.227,8.205-.558,3.515-.241,1.425c-2.072,11.963-4.7,20.1-9.471,27.12l-.457.661-.469.449-.459.46a11.109,11.109,0,0,0-1.82,2.3l-.061.122-.035.075.083.033c1.518.544,4.622.434,7.209-.276l.32-.092.3-.094,2.094-.68,1.461,2.053.435.6c.8,1.108,1.638,2.225,2.684,3.589l1.233,1.6L149,436.345l-2.614,1.806c-8.822,6.094-21.154,4.883-34.257-.831l-.511-.225-.185-.09c-6.248-3.307-10.34-7.3-17.079-15.82l-.79-1-3-3.847-1.143-1.441c-.8-1-1.48-1.822-2.163-2.62l-.228-.265-.8-.912-.175-.353c-3.3-6.639-8.014-11.054-16.268-15.8l-1.165-.659-.746-.511c-20.944-14.522-33.306-37.429-38.5-67.138-4.063-23.223-3.643-49.352.08-78.7l.18-1.4.192-1.458a200.928,200.928,0,0,1,21.761-68.747l.581-1.084.524-.965-2.621-2.079L49,171.369c-.89-.684-1.539-1.154-2.128-1.541l-.316-.2-.294-.182-.08.147-2-.214A44.843,44.843,0,0,1,20.637,159.2l-.559-.471-.542-.545C6.437,144.87.005,126.405,0,105.319a121.981,121.981,0,0,1,13.854-55.16l.433-.818Z" transform="translate(-13.734 17.051)" fill="#e8e1e1"/><path d="M297.55,507.458h0c-13.2,0-24.034-1.292-33.121-3.951a58.545,58.545,0,0,1-14.874-6.534,41.94,41.94,0,0,1-11.774-10.993,6.6,6.6,0,0,1-.181-6.831,7.773,7.773,0,0,1,9.994-2.983l1.17.731.02.012a149.232,149.232,0,0,0,15.338,8.766,49.121,49.121,0,0,0,16.951,4.832c5.263.235,10.581.354,15.808.354a307.059,307.059,0,0,0,41.029-2.628,202.259,202.259,0,0,0,40.987-9.63c29.461-10.582,49.013-27.654,58.112-50.743a55.617,55.617,0,0,0,2.294-12.346,74.027,74.027,0,0,0-.168-12.35c-.751-8.236-2.629-16.62-4.445-24.728-2.108-9.412-4.288-19.144-4.736-28.747a145,145,0,0,1-1.517-23.868c.083-7.935.616-15.989,1.132-23.778.695-10.5,1.413-21.349,1.045-32.092a71.526,71.526,0,0,0-8.169-18,83.368,83.368,0,0,0-11.688-14.457c-8.7-8.717-19.116-15.963-29.189-22.97-8.957-6.231-18.218-12.674-26.178-20.1a89.646,89.646,0,0,1-10.945-12.093,70.188,70.188,0,0,1-8.4-14.563,125.666,125.666,0,0,1-12.863,21.857,138.076,138.076,0,0,1-16.646,18.77,173.534,173.534,0,0,1-41.867,28.693A234.668,234.668,0,0,1,216,254.679a266.4,266.4,0,0,1-49.923,7.311c5.841,30.27,8.472,59.391,7.821,86.553a303.982,303.982,0,0,1-4.062,43.327,251.938,251.938,0,0,1-10.812,42.011,75.47,75.47,0,0,0,10.464,11.376,70.759,70.759,0,0,0,12.617,8.922,41.291,41.291,0,0,0,3.884,1.842c3.665,1.591,7.456,3.236,8.976,6.823.326,2.885-.095,5.005-1.252,6.3a5.265,5.265,0,0,1-4.121,1.546c-8.107,0-22.606-10.2-26-14.363-5.151,2.722-11.629,4.1-19.255,4.1a87.662,87.662,0,0,1-29.944-5.859c-9.126-3.437-16.581-7.889-19.942-11.91-2.349-2.828-3.952-6.373-5.5-9.8a62.67,62.67,0,0,0-3.54-7.034,18.957,18.957,0,0,0-5.081-5.666c-17.847-9.555-31.673-24.66-41.095-44.9A143.606,143.606,0,0,1,29.21,344.675,199.084,199.084,0,0,1,25.142,311.1a254.716,254.716,0,0,1,1.087-34.718,285.726,285.726,0,0,1,5.443-34.031,269.693,269.693,0,0,1,9-31.509,205.3,205.3,0,0,1,11.76-27.152,36.138,36.138,0,0,1-5.441.419,34.968,34.968,0,0,1-16.861-4.379,46.758,46.758,0,0,1-13.49-11.345,63.776,63.776,0,0,1-9.476-15.614A66.3,66.3,0,0,1,2.347,135.59,98.334,98.334,0,0,1,.073,110.317a110.719,110.719,0,0,1,3.9-25.028A126.049,126.049,0,0,1,27.045,40.27a121.9,121.9,0,0,1,15.817-16.4A108.516,108.516,0,0,1,61.145,11.147,92.89,92.89,0,0,1,81.279,2.922,80.979,80.979,0,0,1,102.646,0a77.824,77.824,0,0,1,24.413,3.95,90.139,90.139,0,0,1,24.332,12.59,93.376,93.376,0,0,1,23.217,24.653,75.757,75.757,0,0,1,7.472,15.226,65.144,65.144,0,0,1,3.582,16.627,318.632,318.632,0,0,1,108.758-7.665,281.207,281.207,0,0,1,31.784,5.1c21.761,4.823,41.4,12.107,58.359,21.65,18.458,10.384,33.628,23.4,45.086,38.674a126.456,126.456,0,0,1,15.193,26.383,137.935,137.935,0,0,1,9.028,31.434,239.843,239.843,0,0,1,4.987,44.646,192.129,192.129,0,0,1-4.374,44.6,170.36,170.36,0,0,1-5.526,18.05,157.223,157.223,0,0,0-5.841,19.512c-.108.638-.2,1.295-.293,1.93-.435,3.035-.886,6.173-2.908,8.536.442,15.6,3.909,31,7.263,45.9,2.984,13.258,6.069,26.967,7,40.72a82.659,82.659,0,0,1-4.842,25.074,74.725,74.725,0,0,1-11.348,20.313,88.245,88.245,0,0,1-16.568,16.043,121.571,121.571,0,0,1-20.5,12.265c-13.438,6.425-29.478,11.526-47.675,15.162a353.339,353.339,0,0,1-48,5.948C302.509,507.415,299.993,507.458,297.55,507.458ZM264.845,76.416a247.039,247.039,0,0,0-39,3.111,244.293,244.293,0,0,0-37.677,9.159,235.237,235.237,0,0,0-35.389,14.954,221.791,221.791,0,0,0-32.132,20.5,207.56,207.56,0,0,0-27.905,25.786A195.166,195.166,0,0,0,44.08,256.5a356.488,356.488,0,0,0-3.216,39.019,216.021,216.021,0,0,0,2.606,40.829,141.427,141.427,0,0,0,4.684,19.478,106.82,106.82,0,0,0,7.577,17.992,85.671,85.671,0,0,0,10.949,15.86,78.174,78.174,0,0,0,14.8,13.081,56.889,56.889,0,0,1,10.749,7.405,34.083,34.083,0,0,1,7.792,10.277c2.1,2.385,4.117,4.979,6.066,7.488,5.131,6.606,10.436,13.437,18.028,17.455,4.917,2.185,12.3,4.789,19.557,4.789a21.189,21.189,0,0,0,12.288-3.46c-1.9-2.439-3.75-4.834-5.51-7.308a20.634,20.634,0,0,1-6.113.951,11.345,11.345,0,0,1-3.62-.506,3.152,3.152,0,0,1-2.061-1.668,3.234,3.234,0,0,1,.338-2.653,15.3,15.3,0,0,1,3.172-3.918,51.576,51.576,0,0,0,7.23-16.688,174.379,174.379,0,0,0,3.406-18.449v-.009c.568-3.843,1.1-7.473,1.784-11.009a346.166,346.166,0,0,0,3.135-64.515,360.025,360.025,0,0,0-8.657-64.008,7.49,7.49,0,0,1,1.369-6.513,8.819,8.819,0,0,1,6.77-3.193,6.954,6.954,0,0,1,4.492,1.527,228.017,228.017,0,0,0,51.87-6.549,248.259,248.259,0,0,0,26.939-8.11,222.675,222.675,0,0,0,25.933-11.332,181.961,181.961,0,0,0,23.669-14.553,140.594,140.594,0,0,0,20.148-17.773c12.661-13.657,20.974-28.864,24.707-45.2.475-.648.912-.977,1.3-.977a.987.987,0,0,1,.794.558c1.089,1.712,1.233,6.71,1.244,8.779.02,3.615-.279,7.12-.682,7.978a80.168,80.168,0,0,0,9.359,11.008,125.423,125.423,0,0,0,11.3,9.86c8.032,6.275,17.072,12.136,25.814,17.8,6.539,4.239,13.3,8.62,19.583,13.142A144.293,144.293,0,0,1,421.091,227.8a73.746,73.746,0,0,1,13.1,16.975,56.238,56.238,0,0,1,6.623,20.812c-.276,4.1-.35,8.242-.423,12.252s-.147,8.166-.427,12.146c.9-2.353,1.835-4.724,2.744-7.018,2.13-5.377,4.332-10.935,6.068-16.5a78.325,78.325,0,0,0,3.517-17.172,200.627,200.627,0,0,0-1.043-25.276,196.342,196.342,0,0,0-4.267-25.027,171.482,171.482,0,0,0-18.341-46.555A133.773,133.773,0,0,0,397,115.141,118.584,118.584,0,0,0,351.783,92.6a236.281,236.281,0,0,0-43-12.2,243.329,243.329,0,0,0-43.914-3.989ZM103.85,14.034a80.752,80.752,0,0,0-21.576,2.974,84.671,84.671,0,0,0-20.681,8.856A86.435,86.435,0,0,0,43.257,40.508a90.323,90.323,0,0,0-14.54,20.338,115.056,115.056,0,0,0-5.883,12.517A123.09,123.09,0,0,0,18.3,86.976a113.336,113.336,0,0,0-4.022,28.792,83.573,83.573,0,0,0,4.365,28.008,61.948,61.948,0,0,0,14.746,23.779,41.871,41.871,0,0,0,22.387,9.867A217.4,217.4,0,0,1,105.212,116.2a213.54,213.54,0,0,1,32.167-22.834,204.572,204.572,0,0,1,35.972-16.4,83.808,83.808,0,0,0-8.916-27.735,66.581,66.581,0,0,0-15.961-19.643,65.76,65.76,0,0,0-20.9-11.686,73.1,73.1,0,0,0-23.719-3.865Z" transform="translate(-25 6.022)"/></g></svg>