<svg xmlns="http://www.w3.org/2000/svg" width="474" height="567" viewBox="0 0 474 567"><path d="M233.915,442.212h0c-45.481,0-90.291-14.688-126.177-41.356a11.022,11.022,0,0,1-4.1-5.45,9.227,9.227,0,0,1,.064-5.782,81.168,81.168,0,0,1-9.784-10.01,85.394,85.394,0,0,1-8.084-11.693A83.213,83.213,0,0,1,79.808,355a76.079,76.079,0,0,1-3.611-13.7,4.18,4.18,0,0,0-2.465-2.622,17.133,17.133,0,0,0-3.866-1.033c-.588-.11-1.144-.214-1.682-.34-9.109-1.611-19.563-3.887-28.025-8.564a34.721,34.721,0,0,1-10.752-8.891,28.27,28.27,0,0,1-3.648-6.16,31.4,31.4,0,0,1-2.148-7.516,56.411,56.411,0,0,1,.035-12.73,53.928,53.928,0,0,1,2.475-10.908c2.279-6.793,5.672-12.83,8.953-18.667,2.13-3.789,4.331-7.705,6.167-11.738a56.365,56.365,0,0,0,4.23-12.89,49.046,49.046,0,0,0,.437-15.338A75.052,75.052,0,0,0,40.7,204.813c-3.267-12.425-9.742-26.887-16.6-42.2-4.508-10.07-9.17-20.482-13.181-30.9a179.217,179.217,0,0,1-9.26-30.907A92.331,92.331,0,0,1,.02,86.012a62.631,62.631,0,0,1,1.168-14A47.644,47.644,0,0,1,14.379,47.436a41.074,41.074,0,0,1,12.037-8.3,34.247,34.247,0,0,1,14.026-3.1,30.239,30.239,0,0,1,6.216.642A379.65,379.65,0,0,1,209.3,0a366.142,366.142,0,0,1,85.4,10.021l1.137.272a161.65,161.65,0,0,1,17.427,4.862,51.155,51.155,0,0,1,15.717,8.635,17.964,17.964,0,0,1,5.622,7.4,13.239,13.239,0,0,1,.446,7.512c-1.059,5.06-4.431,10.191-8,15.622-2.9,4.406-5.891,8.962-7.752,13.695a25.746,25.746,0,0,0-1.793,7.242,19.2,19.2,0,0,0,.814,7.551c1.741,2.434,4.834,7.373,8.273,13.211,2.853,4.843,7.287,12.58,12.214,21.939,7.346,13.953,16.783,33.419,20.027,46.919,3.253,13.543,5.381,20.7,6.152,20.7.117,0,.18-.163.217-.285.016-.051.028-.1.039-.146.02-.081.035-.139.051-.139a13.974,13.974,0,0,1,.3,2.218c.3,2.622.918,8.077,2.319,19.133,1.7,13.429,3.792,31.181,4.859,49.406a345.364,345.364,0,0,1-.311,49.73,234.645,234.645,0,0,1-3.312,24.275,189.3,189.3,0,0,1-6.067,23.5,161.562,161.562,0,0,1-9.308,22.448,148.989,148.989,0,0,1-13.037,21.107,113.406,113.406,0,0,1-9.814,10.23,127.24,127.24,0,0,1-18.874,14.363,133.114,133.114,0,0,1-28.427,13.336,146.733,146.733,0,0,1-38.475,7.152C241.425,442.111,237.648,442.212,233.915,442.212ZM10.087,85.581a77.61,77.61,0,0,0,1.727,12.8,66.665,66.665,0,0,1,3.362-9.257A8.927,8.927,0,0,1,10.087,85.581ZM41.043,39.365a31.372,31.372,0,0,0-10.31,3.928,39.425,39.425,0,0,0-8.76,7.108A139.387,139.387,0,0,1,41.043,39.365Z" transform="translate(46 52)" fill="#d08b5b"/><path d="M285.294,507.331a129.534,129.534,0,0,1-40.967-6.663,126.417,126.417,0,0,1-19.13-8.193,121.2,121.2,0,0,1-17.516-11.313,7.03,7.03,0,0,1-2.324-8.256,10.834,10.834,0,0,1,3.4-4.819,8.643,8.643,0,0,1,5.358-2.052A7.175,7.175,0,0,1,218.3,467.4a125.925,125.925,0,0,0,33.247,16.668,116.767,116.767,0,0,0,36.261,5.86,107.045,107.045,0,0,0,41.123-8.1,105.372,105.372,0,0,0,20.761-11.53,114.145,114.145,0,0,0,17.884-15.818,116.492,116.492,0,0,0,14.269-19.168,110.912,110.912,0,0,0,9.916-21.583c5.777-17.322,7.854-35.867,9.862-53.8.189-1.687.4-3.6.616-5.465l.152-1.324c1.229-10.644,2.169-21.16,2.793-31.257.658-10.659.987-21.21.977-31.362-.008-10.109-.386-19.27-1.157-28.008a231.507,231.507,0,0,0-3.8-26.381,207.134,207.134,0,0,0-6.995-25.7,228.231,228.231,0,0,0-10.752-25.977,186.609,186.609,0,0,0-30.93-45.42,14.328,14.328,0,0,1-2.886.27,38.815,38.815,0,0,1-5.715-.578h-.006c-.993-.15-2.02-.3-3.013-.412-2.186-.235-4.1-.428-5.85-.59,1.905,1.232,3.824,2.54,5.866,4l2.518,1.816q.59.423,1.194.851l.061.044c3.91,2.781,7.951,5.656,10.886,9.206,3.355,4.06,4.571,8.274,3.715,12.885a7.785,7.785,0,0,1-2.308,4.02,8.966,8.966,0,0,1-4.032,2.31,13.739,13.739,0,0,1-3.175.381,16.159,16.159,0,0,1-9.134-3.17,60.612,60.612,0,0,1-7.823-6.767c-1.474-1.428-2.866-2.777-4.279-3.982-6.117-5.221-12.426-9.824-18.889-14.47-1.7-1.217-3.116-2.215-4.441-3.14,1.344,1.565,2.719,3.236,4.09,4.963l1.964,2.489q.5.631,1.03,1.282c2.912,3.616,6.213,7.714,8.154,12.035,2.241,4.989,2.251,9.379.032,13.421a8.6,8.6,0,0,1-3.234,3.239,8.825,8.825,0,0,1-4.417,1.232h-.148c-3.809-.079-7.135-1.688-10.169-4.92-2.669-2.843-4.75-6.507-6.763-10.049-1.012-1.78-1.967-3.462-2.968-4.991-4.521-6.887-9.513-13.414-13.8-18.89-1.527-1.94-2.808-3.551-4.03-5.07a419.61,419.61,0,0,0-66.62,8.85c-13.291,2.868-27.454,6.7-44.57,12.07l-1.222.389c-7.508,2.417-15.979,5.669-21.888,11.462-.85,4.018-.139,8.211.593,11.826l.61,2.961a174.942,174.942,0,0,1,2.9,18.5,95.611,95.611,0,0,1,.049,18.746c-1.386,13.656-5.673,25.892-10.1,37.08a15.885,15.885,0,0,1-2.861,4.761,10,10,0,0,0-2.589,6.1,64.646,64.646,0,0,0,.187,14.268l.355,4.01a79.357,79.357,0,0,1,.14,16.005,28.252,28.252,0,0,1-5.692,14.627,2.139,2.139,0,0,1-1.713.771,2.85,2.85,0,0,1-2.407-1.3,17.17,17.17,0,0,0-.97-1.53,19.339,19.339,0,0,0-6.178-5.711,24.5,24.5,0,0,0-8.052-2.9.479.479,0,0,1-.439-.5.737.737,0,0,1,.609-.7,20.317,20.317,0,0,1,13.54,3.19c-.759-2.626-3.66-3.959-8.622-3.959a54.417,54.417,0,0,0-12.573,1.885l-.165.044a49.055,49.055,0,0,0-16.57,7.879,39.034,39.034,0,0,0-6.68,6.276,37.939,37.939,0,0,0-4.924,7.523,37.491,37.491,0,0,0-3.886,17.571A35.56,35.56,0,0,0,69.986,363.7a32.976,32.976,0,0,0,5.419,6.954,32.391,32.391,0,0,0,7.257,5.337,35.306,35.306,0,0,0,16.723,4.122l.377,0a40.42,40.42,0,0,0,8.29-1.22,39.079,39.079,0,0,1,8.374-1.207c.406,0,.812.012,1.207.036a5.459,5.459,0,0,1,4.438,2.873,4.509,4.509,0,0,1-.188,4.538,16.948,16.948,0,0,1-5.26,5.35,175.811,175.811,0,0,0,19,33.13,109.468,109.468,0,0,0,13.96,15.79,46.824,46.824,0,0,0,3.669,2.945,41.326,41.326,0,0,1,5.97,5.117c1.914,2.153,2.765,4.22,2.6,6.318a4.888,4.888,0,0,1-3.4,4.479,6.364,6.364,0,0,1-2.421.469c-5.233,0-10.98-5.959-14.783-9.9-.428-.444-.871-.9-1.272-1.31l-.344-.346a119.426,119.426,0,0,1-14.45-17.44A86,86,0,0,1,116,412.152a90.535,90.535,0,0,1-4.963-19.109,33.933,33.933,0,0,1-9.738,1.3A54.143,54.143,0,0,1,89.215,392.9a56.451,56.451,0,0,1-10.434-3.453,43.351,43.351,0,0,1-8.806-5.32,44.757,44.757,0,0,1-7.16-7.028,47.72,47.72,0,0,1-5.44-8.353,50.576,50.576,0,0,1-3.646-9.3A51.742,51.742,0,0,1,52.26,338.4a48.446,48.446,0,0,1,2.616-10.337,45.65,45.65,0,0,1,16.365-21.254,10.819,10.819,0,0,1-2.689-2.07c-4.021-4.272-6.971-9.685-9.823-14.92-.347-.637-.659-1.209-.97-1.776l-.378-.685c-2.792-5.042-5.447-10.208-7.892-15.357l-.917-1.953c-2.1-4.515-4.078-8.021-5.99-11.412a86.873,86.873,0,0,1-8.28-18.078,251.352,251.352,0,0,1-8.69-36.73l-.512-3.3c-1.128-7.3-2.162-15.044-1.357-22.3-5.05,1.647-7.781,1.858-9.6,1.858a15.855,15.855,0,0,1-7.2-1.648,8.833,8.833,0,0,1-4.056-4.7,9.241,9.241,0,0,1-.374-6.183,15.137,15.137,0,0,1,4.36-6.7,15.716,15.716,0,0,1-3.18-2.14L2.862,158a8.739,8.739,0,0,1-2.805-5.788A11.024,11.024,0,0,1,1.3,145.872c.183-.318.381-.675.59-1.059a11.469,11.469,0,0,1,9.758-5.682H11.8c.319.005.643.008.961.008s.644,0,.969-.008a17.142,17.142,0,0,1-5.379-2.1,10.729,10.729,0,0,1-4.3-5.077,11.882,11.882,0,0,1-.752-6.406,10.725,10.725,0,0,1,2.381-5.3,9.948,9.948,0,0,1,5.281-3.2,20.748,20.748,0,0,1,4.848-.542,33.955,33.955,0,0,1,7.782,1l-.087-.048c-.129-.074-.262-.15-.392-.232A12.941,12.941,0,0,1,18.906,113a9.654,9.654,0,0,1-1.514-5.743,14.028,14.028,0,0,1,1.51-5.785,10.962,10.962,0,0,1,4.21-4.2A11.908,11.908,0,0,1,29.088,95.7a10.383,10.383,0,0,1,5.684,1.587,98.208,98.208,0,0,1,8.62,6.35c-3.372-4.145-5.339-7.679-6.19-11.12a11.721,11.721,0,0,1,5.251-12.9,10.567,10.567,0,0,1,5.392-1.5,12.077,12.077,0,0,1,5.228,1.256,11.293,11.293,0,0,1,2.17-7.57,14.721,14.721,0,0,1,4.5-4.055,11.428,11.428,0,0,1,5.639-1.581,9.929,9.929,0,0,1,5.351,1.576,15.993,15.993,0,0,1,2.66,2.22,14.915,14.915,0,0,1-.71-4.413,11.757,11.757,0,0,1,.715-4.164,10.727,10.727,0,0,1,6.125-6.154,11.181,11.181,0,0,1,4.321-.831,12.7,12.7,0,0,1,8.079,2.831,10.927,10.927,0,0,1,2.484-9.087,13.331,13.331,0,0,1,4.383-3.423,12.254,12.254,0,0,1,5.321-1.271,10.308,10.308,0,0,1,9.2,5.732c1.708,3.072,3.112,5.82,4.292,8.4l.488,1.087.05-.02-.337-.795-.344-.795c-.35-.814-.727-1.652-1.091-2.462l-.008-.017c-1.565-3.481-3.184-7.081-3.7-10.8a16.051,16.051,0,0,1,.158-5.55,11.74,11.74,0,0,1,2.1-4.7,10.646,10.646,0,0,1,7.266-4.037,10.227,10.227,0,0,1,1.37-.091,12.5,12.5,0,0,1,9.29,4.353,12.477,12.477,0,0,1,.442-5.374,11.968,11.968,0,0,1,2.443-4.36,11.116,11.116,0,0,1,8.3-3.886,11.342,11.342,0,0,1,7.751,3.249c3.17,2.942,5.186,6.972,7.135,10.869.52,1.04,1.059,2.116,1.605,3.141.661,1.235,1.34,2.489,2,3.7l.012.022c.779,1.439,1.584,2.927,2.372,4.406.364-.433.765-.873,1.19-1.309a180.147,180.147,0,0,1-5.23-19.68,13.058,13.058,0,0,1,1.2-8.948,11.284,11.284,0,0,1,7.05-5.58,10.973,10.973,0,0,1,2.92-.386,12.782,12.782,0,0,1,7.328,2.352,10.4,10.4,0,0,1,4.281,6.284c.861,4.111,1.911,8.39,3.21,13.08a21.182,21.182,0,0,1,2.43-.44c.069-.84.145-1.662.227-2.444l.315-2.893.064-.61c.677-6.43,1.445-13.717,4.794-19.163a11.06,11.06,0,0,1,9.6-5.4,12.023,12.023,0,0,1,7.9,2.961,10.711,10.711,0,0,1,2.617,3.5,11.366,11.366,0,0,1,1.037,4.671,43.172,43.172,0,0,1-1.71,10.789c-.542,2.2-1.1,4.477-1.42,6.711-.332,2.336-.558,4.839-.689,7.65a227.752,227.752,0,0,1,6.379-25.15c.2-.669.419-1.35.627-2.008l0-.005.023-.071q.14-.443.279-.885a12.408,12.408,0,0,1,4.351-6.228A11.682,11.682,0,0,1,230.728,0a12.956,12.956,0,0,1,1.534.092,12.52,12.52,0,0,1,7.323,3.866,9.713,9.713,0,0,1,2.906,7.714c-.114,1.055-.272,2.108-.47,3.13l.025.009h.025l-.131.38a19.528,19.528,0,0,1-1.73,5.02c-1.116,3.249-2.173,6.484-2.97,8.94.3-.013.592-.019.866-.019a18.7,18.7,0,0,1,3.414.309c.655-1.677,1.323-3.379,1.969-5.028l.029-.075c.824-2.1,1.675-4.27,2.512-6.417.388-.991.741-2.029,1.115-3.128,1.175-3.456,2.391-7.029,4.8-9.443a13.439,13.439,0,0,1,9.478-3.718,13.093,13.093,0,0,1,6.612,1.718,12.223,12.223,0,0,1,5.377,6.126,14.634,14.634,0,0,1,.592,8.2,9.223,9.223,0,0,1-5.025,6.343l-.265.137-1.89,4.48a15.567,15.567,0,0,1,1.83-.67,15.022,15.022,0,0,1,3-.57c2.406-4.356,5.183-8.9,8.74-14.3a13.338,13.338,0,0,1,4.572-4.285,11.982,11.982,0,0,1,5.847-1.563,11.352,11.352,0,0,1,5.8,1.6,12.736,12.736,0,0,1,5.68,8.162,10.077,10.077,0,0,1-1.431,8.058c-2.435,3.428-4.939,7.163-8.12,12.11a11.655,11.655,0,0,1,1.329.31c.205-.276.418-.549.63-.81a60.211,60.211,0,0,1,8.193-7.949c.472-.4.959-.819,1.448-1.241a23.047,23.047,0,0,0,3.285-3.822c1.514-2.048,3.081-4.165,5.625-5.438a12.555,12.555,0,0,1,5.569-1.34,11,11,0,0,1,5.246,1.307,10.589,10.589,0,0,1,4.055,3.933,12.5,12.5,0,0,1,.193,13.488c-2.24,3.984-6.177,7.557-9.652,10.709l-.011.01c-.845.767-1.644,1.492-2.411,2.213a179.385,179.385,0,0,1,19.679-10.68c4.615-2.125,8.187-3.636,11.58-4.9a17.184,17.184,0,0,1,6.015-1.2,12.357,12.357,0,0,1,4.724.923,16.892,16.892,0,0,1,4.542,2.829,7.723,7.723,0,0,1,2.271,3.868A7.607,7.607,0,0,1,365,43.872a16.063,16.063,0,0,1-3.82,6.1,14.471,14.471,0,0,1-6.339,3.421c-1.725.475-3.5.886-5.216,1.283-1.967.455-4,.926-5.975,1.5a123.151,123.151,0,0,0-18.059,6.66,9.335,9.335,0,0,1,1.19.86c4.254-1.375,8.716-2.61,13.26-3.67a171.345,171.345,0,0,1,22.488-3.639l2.512-.234q.714-.069,1.442-.142l.031,0c2.809-.279,5.713-.567,8.571-.567a23.98,23.98,0,0,1,8.686,1.36,13.678,13.678,0,0,1,6.8,5.555,10.176,10.176,0,0,1,1.447,5.217,8.757,8.757,0,0,1-1.447,5.194,14.6,14.6,0,0,1-6.128,5.312,20.838,20.838,0,0,1-8.033,1.308c6.192.656,12.555,1.488,18.91,2.47,4.269.651,8.632,1.4,12.967,2.238l2.153.422c.893.178,1.823.348,2.722.511h.008c4.5.819,9.15,1.665,12.891,4.187a12.152,12.152,0,0,1,4.672,5.553,10.325,10.325,0,0,1,.44,6.248,11.569,11.569,0,0,1-3.652,5.995,13.217,13.217,0,0,1-7.14,3.154,16.208,16.208,0,0,1-2,.12,41.668,41.668,0,0,1-9.964-1.705c-1.5-.382-2.923-.743-4.322-1.025-4.928-.992-10.015-1.894-15.12-2.68-2.447-.383-5.022-.743-7.871-1.1a109.649,109.649,0,0,1,15.83,3.4l1.436.434a75.448,75.448,0,0,1,15.88,6.426A28.994,28.994,0,0,1,420.9,119.2a17.454,17.454,0,0,1,4.067,6.98,9.212,9.212,0,0,1-1.314,8.026,10.91,10.91,0,0,1-8.226,4.5c-.27.016-.546.025-.818.025-4.426,0-8.336-2.164-12.118-4.256-.876-.485-1.782-.986-2.675-1.448a65.739,65.739,0,0,0-11.139-4.441c-3.9-1.2-8.016-2.233-12.22-3.08A96.2,96.2,0,0,1,386.59,131.9l1.5,1.106c4.1,3.051,9.7,7.23,13.785,12.141a25.176,25.176,0,0,1,4.576,7.723,14.924,14.924,0,0,1,.435,8.646,9.788,9.788,0,0,1-3.227,4.9A8.653,8.653,0,0,1,398.2,168.6c-.2,0-.408-.01-.607-.029a18.211,18.211,0,0,1-9.345-3.895,62.823,62.823,0,0,1-7.7-7.338,62.453,62.453,0,0,0-7.45-7.127c-1.978-1.5-4.259-3.064-6.78-4.66a177.092,177.092,0,0,1,16.371,23.2,211.637,211.637,0,0,1,12.779,25.309A253.55,253.55,0,0,1,412.1,250.071c1.6,9.121,2.746,18.415,3.506,28.411.706,9.283,1.065,19.013,1.1,29.743l0,1.266c.024,27.775-.805,48.744-2.69,67.991a231.583,231.583,0,0,1-4.831,30.745A132.127,132.127,0,0,1,398.821,437.5a119.873,119.873,0,0,1-14.448,22.2,131.022,131.022,0,0,1-18.952,18.811,133.693,133.693,0,0,1-22.349,14.655,126.167,126.167,0,0,1-24.641,9.726A124.645,124.645,0,0,1,285.294,507.331Zm-179.729-357.2h0a2.755,2.755,0,0,0-2,.91c-2.8,2.9-4.678,6.437-6.517,10.11a2.932,2.932,0,0,0,.1,2.945,3.406,3.406,0,0,0,2.772,1.607,2.523,2.523,0,0,0,2.306-1.523l.787-1.571a31.308,31.308,0,0,1,4.39-6.895l.4-.431a2.791,2.791,0,0,0,.617-3.141,3.254,3.254,0,0,0-2.862-2.011Zm-36.388-5.958a3.465,3.465,0,0,0-.574.049c-2.462.415-4.952.864-7.359,1.3s-4.882.881-7.329,1.294a2.428,2.428,0,0,0-2.158,2.748,3.3,3.3,0,0,0,3.182,3.087,3.456,3.456,0,0,0,.573-.049c2.451-.413,4.934-.862,7.336-1.3s4.9-.884,7.351-1.3a2.428,2.428,0,0,0,2.158-2.747A3.3,3.3,0,0,0,69.177,144.176ZM295.583,110.36a2.8,2.8,0,0,0-2.639,2.512,3.257,3.257,0,0,0,.3,2.024,2.939,2.939,0,0,0,1.724,1.419,120,120,0,0,1,14.836,5.746,3.138,3.138,0,0,0,1.383.334,3.325,3.325,0,0,0,3.1-2.584,2.5,2.5,0,0,0-1.459-2.931,133.015,133.015,0,0,0-16.267-6.35A3.112,3.112,0,0,0,295.583,110.36Zm-227.34-7.833A2.616,2.616,0,0,0,65.8,104.84a3.216,3.216,0,0,0,1.938,3.7l12.96,5.183a2.95,2.95,0,0,0,1.092.226,2.616,2.616,0,0,0,2.442-2.311,3.216,3.216,0,0,0-1.938-3.7l-12.96-5.184A2.948,2.948,0,0,0,68.243,102.527ZM339.8,87.873h0a3,3,0,0,0-2.73,2.277,3.08,3.08,0,0,0,0,1.821,2.927,2.927,0,0,0,1.248,1.577c.752.487,1.583.92,2.386,1.338a19.268,19.268,0,0,1,3.556,2.189l.363.323a2.89,2.89,0,0,0,2,.84,3.342,3.342,0,0,0,2.969-2.079,2.64,2.64,0,0,0-.725-3,23,23,0,0,0-4.838-3.228c-.731-.4-1.486-.818-2.208-1.262l-.473-.3a2.83,2.83,0,0,0-1.547-.493Zm-222.292,271.8a5.046,5.046,0,0,1-4.027-2.532c-4.567-9.117-12.79-15.971-24.44-20.37a.281.281,0,0,1-.165-.28.182.182,0,0,1,.165-.17,29.146,29.146,0,0,1,4.442-.343,29.845,29.845,0,0,1,8.363,1.214,34.4,34.4,0,0,1,7.718,3.359,44.33,44.33,0,0,1,12.686,11.459c1.39,1.837.559,4.475-.8,6.15-.913,1.149-2.119,1.3-3.516,1.481l-.074.01A2.746,2.746,0,0,1,117.508,359.675Z" transform="translate(6 0.999)"/></svg>