<svg xmlns="http://www.w3.org/2000/svg" width="474" height="582" viewBox="0 0 474 582"><g transform="translate(0 15)"><path d="M329.417,95.294c-7.078-25.5-6.066-28.254-16.615-52.607-34.98-70.75-268.739-47.061-292.6,23.563-12.943,38.314-9.9,92.273-13.271,125.5Q5.389,218.169,3.843,244.59q-.543,9.124-1.1,18.247Q1.65,280.6.646,298.362c-4.4,36.486,13.941,40.2,45.392,39.117,8.315,20.061,21.782,36.807,38.417,50.432-4.015,10.922,10.545,16.576,18.4,20.943,42.733,23.86,95.224,38.415,142.557,25,13.908-3.942,71.342-17.6,89-59.861,8.672-20.756,26.3-128.241,3.053-224.929Z" transform="translate(59 56.514)" fill="#d08b5b"/><path d="M234.914,517.255A165.776,165.776,0,0,1,201,513.727a111.668,111.668,0,0,1-18.631-5.66c-6.216-2.484-11.463-6.11-17.43-10.79a4.257,4.257,0,0,1-1.323-4.49,5.629,5.629,0,0,1,1.242-2.407,4.1,4.1,0,0,1,2.251-1.334c.82-.165,1.644-.336,2.441-.5,1.575-.327,3.2-.665,4.81-.957a3,3,0,0,1,.545-.049,3.933,3.933,0,0,1,2.968,1.5,2.886,2.886,0,0,1,.667,2.405l4.683,1.206c1.284.331,2.977.77,4.676,1.226l2.331.637a189.04,189.04,0,0,0,20.21,4.522,141.573,141.573,0,0,0,22.643,1.783,156.9,156.9,0,0,0,19.506-1.233,144.48,144.48,0,0,0,34.685-8.655,109.045,109.045,0,0,0,30.785-17.985,88.843,88.843,0,0,0,21.74-26.841,83.8,83.8,0,0,0,7.244-20.68,216.719,216.719,0,0,0,3.4-21.729,487.417,487.417,0,0,0,3.1-63.226c-.221-19.093-1.373-39.777-3.521-63.234-2.015-22-4.831-44.067-7.32-62.75-.4-2.992-.815-6.036-1.217-8.981l-.008-.058v-.011c-1.033-7.569-2.1-15.4-3.012-23.11a23,23,0,0,1-7.951-3.85,7.978,7.978,0,0,1-3.02-4.15,10.493,10.493,0,0,1-6.474-4.069l-.216-.3c-4.576-6.623-12.654-10.293-19.18-12.75-3.737-1.408-7.594-2.677-11.324-3.9l-1.717-.565c-1.254-.417-2.552-.9-3.808-1.363a46.864,46.864,0,0,0-10.3-2.957,23.2,23.2,0,0,0-2.75-.152c-1.824,0-3.682.174-5.479.343l-.021,0c-1.809.169-3.678.344-5.518.344a23.95,23.95,0,0,1-2.551-.127,20.669,20.669,0,0,1-12.9-5.88,18.927,18.927,0,0,1-3.19-4.21,71.02,71.02,0,0,1-14.9,1.4c-5.033,0-10.207-.358-15.211-.7l-.08-.006c-5.04-.349-10.249-.71-15.407-.71-2.073,0-3.984.056-5.843.173-5.317.336-10.422,2.08-15.359,3.766-5.481,1.872-11.148,3.807-17.1,3.808-.153,0-.307,0-.458,0a13.218,13.218,0,0,1-8.391-3.08c-9.433,1.8-18.9,5.006-28.046,8.107l-.036.012c-1.317.446-2.678.908-4,1.35-5.827,1.955-11.621,4.338-17.224,6.644-4.089,1.682-8.314,3.421-12.516,4.977-.01.01-.01.01-.01.02a7.6,7.6,0,0,1-2.9,4.075,8.076,8.076,0,0,1-4.636,1.376,10.1,10.1,0,0,1-1.775-.161c-7.2-1.284-13.9-4.351-20.373-7.316-5.666-2.594-11.525-5.277-17.667-6.734-.69,2.516-1.4,5.063-2.088,7.526-2.914,10.446-5.928,21.246-8.081,32.135a396.487,396.487,0,0,0-5.831,41.1c-1.223,13.421-1.859,27.444-1.89,41.68-.009,6.09.118,12.647.41,21.26.041,1.245.121,2.537.207,3.9.313,5.026.669,10.722-1.025,15.23l-.192.485h-.01a1.387,1.387,0,0,1-1.276.943,1.049,1.049,0,0,1-.815-.382c-3.583-4.163-4.728-10.454-5.739-16.005-.126-.694-.246-1.349-.37-2.005-1.183-6.205-2.086-12.861-2.929-21.58-.7-7.2-1.129-14.515-1.288-21.742-.159-7.184-.052-14.515.317-21.787a357.18,357.18,0,0,1,4.8-43.629A254.784,254.784,0,0,1,25.4,150.407c-.1.009-.185.012-.269.012-.867,0-2.116-.422-3.14-2.433a12.217,12.217,0,0,1-1.161-4.259c-.386-5.09.413-10.427,1.264-15.457l.9-5.237a88.7,88.7,0,0,1,3.431-14.567,123.157,123.157,0,0,1,17.09-32.23A126.628,126.628,0,0,1,69.583,49.957a130.861,130.861,0,0,1,32.477-17.79,6.346,6.346,0,0,1,2.237-.425,5.6,5.6,0,0,1,1.824.3,314.9,314.9,0,0,1,67.17-26.49c6.4-1.724,13.981-3.673,21.711-5.051A30.9,30.9,0,0,1,200.34,0c5.83,0,10.019,2.112,12.45,6.277a12.789,12.789,0,0,1,1.589,4.2,147.178,147.178,0,0,1,32.226-3.513A161.978,161.978,0,0,1,269.64,8.637a6.68,6.68,0,0,1,5.079,3.929,9.318,9.318,0,0,1-.069,8.38c-.235.4-.49.836-.77,1.26a96.689,96.689,0,0,1,17.269,3.01,9.549,9.549,0,0,1,5.69,4.96,6.892,6.892,0,0,1,.371,5.73c-.152.359-.315.724-.473,1.077l0,.007-.025.055a58.435,58.435,0,0,1,13.1,3.8,55.959,55.959,0,0,1,11.99,6.942,11.062,11.062,0,0,1,2.42,2.53,80.944,80.944,0,0,1,9.024-.5A84.536,84.536,0,0,1,373.29,60a9.446,9.446,0,0,1,4.434,6.156,8.381,8.381,0,0,1-1.054,6.735c-.915,1.306-1.838,2.5-2.821,3.65a35.428,35.428,0,0,1,9.077,4.852,28.2,28.2,0,0,1,7.1,7.808,30,30,0,0,1,4.068,11.411,28.13,28.13,0,0,1-.808,11.929,21.434,21.434,0,0,1,5.531,19.649,19.4,19.4,0,0,1-11.011,13.651,9.682,9.682,0,0,1-2.239,9.6,37.848,37.848,0,0,1-13.161,8.88,8.373,8.373,0,0,1-.969,3.8,27.087,27.087,0,0,1-9.845,10.341,31.526,31.526,0,0,1-13.8,4.619c3.3,13.847,6.027,28.01,8.54,41.33,2.355,12.493,4.409,24.917,6.105,36.927,1.775,12.568,3.213,25.078,4.275,37.182l.265,3.074a617.325,617.325,0,0,1,2.451,64c-.217,11.131-.845,21.916-1.866,32.056a311.457,311.457,0,0,1-4.759,31.52,94.605,94.605,0,0,1-6.077,18.982,99.761,99.761,0,0,1-9.707,17.142,107.59,107.59,0,0,1-12.818,15.017A115.386,115.386,0,0,1,318.8,492.917a134.124,134.124,0,0,1-36.667,17.388,162.044,162.044,0,0,1-40.064,6.79C239.706,517.2,237.3,517.255,234.914,517.255ZM114.538,480.648c-2.826,0-6.055-1.06-9.872-3.242a80.389,80.389,0,0,1-8.629-5.949l-.817-.62a117.049,117.049,0,0,1-19.4-17.82,96.726,96.726,0,0,1-14.53-22.47,54.143,54.143,0,0,1-4.32-14.189,38.788,38.788,0,0,1-15.332,3.073,41.263,41.263,0,0,1-23.059-6.9c-6.653-4.534-11.6-11.176-14.7-19.742A73.631,73.631,0,0,1,0,368.047l0-.98A86.275,86.275,0,0,1,.95,354.679,63.956,63.956,0,0,1,4.021,342.4c3.2-8.745,8.191-15.292,14.839-19.462a29.271,29.271,0,0,1,7.777-3.286,35.625,35.625,0,0,1,9.2-1.247,24.3,24.3,0,0,1,10.694,2.238,14.5,14.5,0,0,1,7.2,7.546.546.546,0,0,1-.052.529.814.814,0,0,1-.653.35.611.611,0,0,1-.155-.019l-1.314-.332a32.547,32.547,0,0,0-7.884-1.2,17.718,17.718,0,0,0-6.7,1.308,28.475,28.475,0,0,0-11.98,8.589,31.489,31.489,0,0,0-4.223,7.5,41.959,41.959,0,0,0-2.3,8.311,74.971,74.971,0,0,0-.694,17.295l.032.543a49.933,49.933,0,0,0,3.014,15.255,25.1,25.1,0,0,0,3.8,6.66,18.431,18.431,0,0,0,5.984,4.853c4.144,2.094,8.687,2.269,12.62,2.269.685,0,1.383-.006,2.058-.012h.113l.7-.006.509,0a57.273,57.273,0,0,1,17.5,2.483,5.09,5.09,0,0,1,3.334,3.681,4.275,4.275,0,0,1-1.264,4.149,27.75,27.75,0,0,1-2.8,2.309c3.52,3.75,6.173,6.714,8.6,9.611,4.746,5.667,9.8,11.144,15.01,16.278a135.767,135.767,0,0,0,16.26,13.96c2.233,1.589,4.669,3.03,7.024,4.424,4.085,2.417,8.309,4.915,11.655,8.287a7.786,7.786,0,0,1,2.359,5.88,10.083,10.083,0,0,1-2.359,5.91A9.164,9.164,0,0,1,114.538,480.648ZM66.315,372.787a14.364,14.364,0,0,1-8.334-2.861,32.64,32.64,0,0,1-4.829-4.671,33.755,33.755,0,0,0-4.591-4.489,19.73,19.73,0,0,0-11.879-3.678,22.637,22.637,0,0,0-11.93,3.289.416.416,0,0,1-.6-.142.516.516,0,0,1-.036-.5A24.531,24.531,0,0,1,27.98,354a23.309,23.309,0,0,1,5.146-4.247A25.117,25.117,0,0,1,46.2,346.212h.1l.446,0c4.7.1,9.363,1.6,14.68,4.7l.47.278c1.045.621,2.178,1.2,3.377,1.821l0,0h0a44.314,44.314,0,0,1,5.619,3.245,12.215,12.215,0,0,1,4.1,4.592c1.536,3.261,1.11,6.561-1.14,8.829A10.377,10.377,0,0,1,66.315,372.787Z" transform="translate(44 -15)"/></g></svg>