<svg xmlns="http://www.w3.org/2000/svg" width="494.451" height="567" viewBox="0 0 494.451 567"><path d="M333.415,93.222c-3.861-23.359,8.811-28.206,0-50.411C313.833,1.667,260.468,3.44,221.308.277,177.63-1.4,133.422,4.369,93.156,21.875A206.38,206.38,0,0,0,65.419,36.56C57.751,41.391,58.8,50.577,63.64,55.588,28.775,104.96,48.716,171.232,20.9,223.2c-5.139,9.29-11.936,17.62-16.4,27.286-6.79,14.693-7.225,35.746,8.173,45.5,21.687,11.64,33.789-11.407,44.445,22C110.33,434.483,217.329,441.044,318.9,380.31c8.788-4.888,17.757-10.413,24.393-18.093,15.063-16.951,13.289-40.789,13.622-61.958q.279-18.608.1-37.22C356.542,212.781,339.885,143.065,333.415,93.222Z" transform="translate(52 80)" fill="#d08b5b"/><path d="M213.5,501.49a63.664,63.664,0,0,1-17.335-2.192c-6.537-1.829-12.249-4.954-16.082-8.8a19.513,19.513,0,0,1-4.725-7.3,17.479,17.479,0,0,1-.574-9.23,4.344,4.344,0,0,1,1.759-2.785,5.29,5.29,0,0,1,3.038-.911,5.512,5.512,0,0,1,4.713,2.457l.508.813c2.374,3.767,5.311,7.974,10.133,10.236a33.106,33.106,0,0,0,8.577,2.587,57.572,57.572,0,0,0,8.952.734c.369,0,.741.006,1.106.006,16.041,0,32.663-3.965,48.314-8.026a276.5,276.5,0,0,0,44.1-15.351,195.281,195.281,0,0,0,40.089-23.819A69.1,69.1,0,0,0,359.6,426.193a50.238,50.238,0,0,0,4.841-8.2,45.524,45.524,0,0,0,3.143-9.2c2.949-13.064,1.28-27.06-.334-40.6-.352-2.949-.715-6-1.016-8.944-2.936-28.85-6.523-59.481-11.63-99.319l-.85-6.611q-.438-3.395-.879-6.79l-.006-.045c-3.235-24.948-6.581-50.746-8.215-76.255a7.821,7.821,0,0,1-1.44-3.42l-.279-1.81a15.037,15.037,0,0,1-.111-4.28c.01-5.17.154-10.087.439-15.031.05-.9.09-1.807.121-2.689-4.873,1.074-10.028,2.012-15.76,2.87a504.4,504.4,0,0,1-74.865,5.6c-12.419,0-24.993-.466-37.375-1.386-17.274-1.287-35.484-3.5-55.67-6.771-9.676-1.564-19.134-3.273-28.11-5.08-5.5-1.1-10.992-2.541-16.306-3.935l-.052-.014c-1.194-.313-2.428-.637-3.643-.951a56.872,56.872,0,0,0-7.754,16.365,52.828,52.828,0,0,0-2.076,17.925c.338,5.736,2.157,11.335,3.916,16.749a97.26,97.26,0,0,1,3.24,11.57,32.09,32.09,0,0,1,.244,11.95,20.649,20.649,0,0,1-9.133,13.951c-4.622,3.148-10.51,5.022-15.665,6.531l-4.73,1.367a13.665,13.665,0,0,0-4.588,1.989,6.517,6.517,0,0,0-2.353,4.472c-.8,5.286-.342,11.044.1,16.612.189,2.4.367,4.66.453,6.9.108,2.743.226,5.511.341,8.188.262,6.094.532,12.4.679,18.6.029,1.231.064,2.484.1,3.7v.026c.092,3.332.188,6.776.182,10.158a13.924,13.924,0,0,1-1.77,7.639A28.637,28.637,0,0,1,75.427,312a.449.449,0,0,1-.008.454A.507.507,0,0,1,75,312.7a.424.424,0,0,1-.307-.136,26.169,26.169,0,0,0-3.151-2.791,25.933,25.933,0,0,1-1.971,2.141l-.059-.08a6.343,6.343,0,0,1-4.5,1.876,7.079,7.079,0,0,1-4.616-1.8l-.774-.671c-2.029-1.778-3.629-3.392-4.244-6.6v-.007c-.03-.158-.06-.317-.079-.473-.34-.012-.694-.018-1.053-.018a31,31,0,0,0-14.958,3.857,37.011,37.011,0,0,0-16.6,18.121,20.976,20.976,0,0,0,4.588,4.019.228.228,0,0,1,.1.264.242.242,0,0,1-.226.174.259.259,0,0,1-.112-.027,21.963,21.963,0,0,1-4.88-3.13,44.185,44.185,0,0,0-2.49,9.63,42.66,42.66,0,0,0,1.39,18.747,30.47,30.47,0,0,0,4.117,8.41,23.932,23.932,0,0,0,6.753,6.453,29.573,29.573,0,0,0,15.67,4.6h.079a30.777,30.777,0,0,0,7.632-1.1c.417-.1.841-.218,1.251-.329l.011,0a16.04,16.04,0,0,1,4.178-.748,8.711,8.711,0,0,1,4.451,1.2l-.38.033a2.164,2.164,0,0,0-.58.084,5.731,5.731,0,0,0,1.12.041,5.216,5.216,0,0,1,4.4,2.6,5.345,5.345,0,0,1,.051,5.167l-.241.545-.063.136-.064.138-.145.936-.017.1,0,.023c-.008.049-.016.1-.025.149l-.056.19a.9.9,0,0,1-.034.091l6,9.148c7.074,10.763,14.711,22.143,23.431,32.562a268.2,268.2,0,0,0,19.08,20.71c3.92,3.8,8.252,6.264,12.838,8.876,2.4,1.366,4.88,2.779,7.281,4.395a7.594,7.594,0,0,1,3.364,5.5,6.531,6.531,0,0,1-1.963,5.344,14.811,14.811,0,0,1-10.742,4.522,23.8,23.8,0,0,1-11.228-3.233,43.659,43.659,0,0,1-9.55-7.16c-6.686-6.589-13.137-14.891-19.72-25.38A181.729,181.729,0,0,1,74.8,415.06a137.226,137.226,0,0,1-4.859-13.04,119.357,119.357,0,0,1-3.41-13.543,14.724,14.724,0,0,1-5.17,2.811,40.866,40.866,0,0,1-11.84,1.98c-.455.015-.918.023-1.376.023A48.386,48.386,0,0,1,27.5,388.418a40.771,40.771,0,0,1-15.064-12.308,48.085,48.085,0,0,1-8.188-17.34A58.628,58.628,0,0,1,3.4,334.405a53.91,53.91,0,0,1,9.218-22.317,132.842,132.842,0,0,1-4.009-15.624c-.326-1.528-.634-2.968-.952-4.376l-.633-2.748c-2.043-8.925-3.506-16.317-4.6-23.263a188.3,188.3,0,0,1-2.345-23.51c-.555-17.373,1.952-32.521,7.662-46.31a88.888,88.888,0,0,1,5.53-11.281c.555-.944,1.226-1.89,1.937-2.892,1.463-2.061,2.975-4.191,3.522-6.428,1.208-4.879-3.438-9.969-7.538-14.459a38.791,38.791,0,0,1-5.012-6.221,21.567,21.567,0,0,1-2.955-10.693A16.186,16.186,0,0,1,9.177,131.9a28.516,28.516,0,0,1-3.61-14.515,25.378,25.378,0,0,1,4.94-14.425,28.389,28.389,0,0,1,17.86-11.09,29.484,29.484,0,0,1,5-.408A34.993,34.993,0,0,1,42.7,92.738,343.283,343.283,0,0,1,84.508,59.549a322.178,322.178,0,0,1,46.559-26.042A372.659,372.659,0,0,1,208.087,8.39a391.952,391.952,0,0,1,120.77-6.332,378.721,378.721,0,0,1,96.618,22.612l2.718,1.05,1.351.518c7.324,2.8,14.9,5.7,20.373,11.35a23.369,23.369,0,0,1,4.136,5.811,22.554,22.554,0,0,1,2.134,6.634,21.017,21.017,0,0,1-2.439,13.675,28.489,28.489,0,0,1-7.571,8.573,37.306,37.306,0,0,1-10.159,5.477,60.3,60.3,0,0,1,7.21,6.99,11.578,11.578,0,0,1,2.966,7.427,10.179,10.179,0,0,1-.7,3.873,10.72,10.72,0,0,1-2.266,3.509,61.572,61.572,0,0,1-13.418,10.561,62.193,62.193,0,0,1-15.772,6.519,30.756,30.756,0,0,1-2.09,18.59,26.209,26.209,0,0,1-6.735,9.146,32.116,32.116,0,0,1-9.5,5.62c-6.13,2.4-13.759,3.611-22.675,3.611-2.167,0-4.445-.072-6.77-.215l-.5-.031-.92,10.53a12.68,12.68,0,0,1-2.821,7.191,10.772,10.772,0,0,1-6.729,3.629c-.2.03-.4.05-.6.069,9.113,32.955,14.63,67.314,19.5,99.681,2.3,15.271,4.53,31.445,7.233,52.445l.747,5.835c.545,4.289,1.132,8.664,1.7,12.894l0,.013c1.935,14.428,3.935,29.347,4.738,44.033a94.548,94.548,0,0,1-.142,12.764,75.145,75.145,0,0,1-2.017,12.305,64.147,64.147,0,0,1-4.185,11.681,61.179,61.179,0,0,1-6.645,10.89c-8.7,11.377-20.99,21.056-36.54,28.77a383.268,383.268,0,0,1-48.664,20.246c-8.414,2.811-16.917,5.281-25.273,7.34-8.616,2.124-17.331,3.875-25.9,5.2l-2.332.359A156.011,156.011,0,0,1,213.5,501.49ZM74.4,353.773a6.4,6.4,0,0,1-3.9-1.335c-1.718-1.286-3.277-2.625-4.784-3.92-3.712-3.189-7.218-6.2-12.436-7.89a54.222,54.222,0,0,0-16.1-2.738,32.252,32.252,0,0,0-5.581.459.856.856,0,0,1-.144.012,1,1,0,0,1-.909-.625.7.7,0,0,1,.223-.8,36.136,36.136,0,0,1,9.929-6.413,28.833,28.833,0,0,1,11.393-2.271c.931,0,1.889.042,2.849.123a47.508,47.508,0,0,1,14.807,3.716,33.212,33.212,0,0,1,6.663,3.879,23.462,23.462,0,0,1,5.189,5.365,7.111,7.111,0,0,1,.2,7.535A8.838,8.838,0,0,1,74.4,353.773Z" transform="translate(38 0)"/></svg>