<svg xmlns="http://www.w3.org/2000/svg" width="474" height="567" viewBox="0 0 474 567"><path d="M185.625,0c56.781,0,115.511,44.012,136.324,72.1C346.015,104.572,365,260.469,356.094,313.368S302.949,423.924,226.15,423.924s-123.536-9.459-125.41-23.2-50.654-90.219-50.654-90.219S.2,296.473,0,262.954,26.736,217.24,26.736,217.24s-9.6-132.279,14.58-166.718S128.844,0,185.625,0Z" transform="translate(56.417 75.26)" fill="#d08b5b"/><path d="M229.621,443.145a165.926,165.926,0,0,1-28.257-2.44A87.852,87.852,0,0,1,190,437.965a73.4,73.4,0,0,1-11.027-4.444,49.655,49.655,0,0,1-18.057-14.736.969.969,0,0,1-.126-1.048,1.482,1.482,0,0,1,1.28-.731,1.223,1.223,0,0,1,.514.108,141.953,141.953,0,0,0,30.844,10.109,159.735,159.735,0,0,0,32.282,3.236,176.217,176.217,0,0,0,23.325-1.574,135.133,135.133,0,0,0,39.63-11.48c8-3.758,15.182-8.906,22.125-13.884,2.208-1.583,4.488-3.218,6.764-4.786a80.408,80.408,0,0,1,5.821-7.1l3.308-3.47c2.365-2.493,4.864-5.2,7.11-8.1a111.091,111.091,0,0,0,9.259-13.988,101.1,101.1,0,0,0,6.941-15.262c6.79-19.109,5.506-39.774,4.264-59.759l0-.057c-.083-1.329-.168-2.7-.249-4.049l-.111-1.876c-1.314-22.642-3.484-45.534-6.45-68.04-2.9-22.012-6.685-44.74-11.25-67.549-1.067-5.328-2.216-10.723-3.326-15.94v-.006c-1.19-5.59-2.42-11.37-3.552-17.074-.938-4.716-1.652-9.565-2.343-14.254l-.021-.142q-.207-1.407-.417-2.814a66.954,66.954,0,0,1-.52-9.924v-.366a4.576,4.576,0,0,1-.328.445l-.012.015a1.931,1.931,0,0,1-.769,2.441,12.669,12.669,0,0,1-6.422,1.365c-.727,0-1.472-.024-2.192-.048h-.008c-.717-.024-1.456-.048-2.183-.048h-.115c-3.96.02-7.983.03-11.873.039h-.067c-2.361.009-4.839.013-7.578.013-1.523,0-3.112,0-4.857,0l-12.435-.029L227.434,93C226.245,93,225,93,223.727,93c-6.654,0-13.431.049-19.985.1h-.019c-6.562.048-13.348.1-20.068.1-16.109,0-35.169-.245-54.394-2.062l-2.479-.245c-1.016-.117-6.109-.735-12.556-1.518l-.111-.013c-9.708-1.179-21.789-2.646-26.465-3.192l-.237-.028a298.081,298.081,0,0,1-42.09-7.71c2.359.945,4.708,2.079,6.981,3.175,2.079,1,4.228,2.04,6.368,2.925,6.155,2.533,12.372,4.682,17.642,6.45,3.832,1.288,7.729,2.585,11.5,3.839l.036.012c8.185,2.724,16.648,5.54,24.945,8.429,1.085.377,2.681,3.517,4.879,9.6,1.874,5.186,3.862,11.625,5.458,16.8,1.363,4.416,2.439,7.9,3.024,9.286l.059.135c.113.254.233.517.35.771l0,.006c.964,2.1,1.961,4.274,1.277,6.564-1.3,4.372-6.938,7.892-11.465,10.72-1.377.86-2.674,1.67-3.714,2.42l-4.6,3.316-6.009,4.348c-1.8,1.292-3.607,2.452-5.816,2.453a7.107,7.107,0,0,1-2.15-.347.035.035,0,0,0-.029-.01c2.285,10.608,3.587,40.626,4.213,55.052v.01c.126,2.905.226,5.2.3,6.448.08,1.413.233,2.893.395,4.46.545,5.283,1.163,11.268-1.135,15.749a4.671,4.671,0,0,1-3.85,2.348c-.074,0-.148,0-.22-.008-6.24-.471-12.585-.941-18.721-1.395l-.118-.009-1.44-.107a4.231,4.231,0,0,1-3.961-3.01l-.02-.1a.707.707,0,0,1-.183.025.681.681,0,0,1-.5-.225c-.371-.372-.754-.735-1.14-1.08a30.13,30.13,0,0,0-10.163-5.9A35.813,35.813,0,0,0,45.794,239.6a34.189,34.189,0,0,0-11.911,2.1c-3.249,1.219-11.348,4.683-16.37,10.52a21.527,21.527,0,0,0-4.432,9.082,43.333,43.333,0,0,0-1.058,10.168,53.12,53.12,0,0,0,.865,9.639,50.438,50.438,0,0,0,2.636,9.3,46.009,46.009,0,0,0,4.423,8.557,41.933,41.933,0,0,0,6.225,7.416c8.811,8.284,20.272,10.66,31.356,12.958l1.215.252a3.283,3.283,0,0,1,2.416,2.537,3.433,3.433,0,0,1-.955,3.483A137.861,137.861,0,0,1,72.3,339.838c.638.823,1.3,1.673,1.949,2.507,5,6.389,10.321,13.65,16.75,22.852l2.606,3.738.968,1.379c4.687,6.674,10,14.237,13.531,22.271,4.108,9.343,4.888,17.334,2.384,24.43a3.2,3.2,0,0,1-2.983,2.1,2.6,2.6,0,0,1-2.328-1.413,114.867,114.867,0,0,1-5.6-12.687c-1.476-3.748-3-7.623-4.861-11.282-3.776-7.419-8.523-14.418-13.113-21.186l-.417-.615-2.769-4.1c-4.158-6.179-9-13.487-13.411-20.838l-2.948-4.887A109.511,109.511,0,0,1,54.5,327.765a29.275,29.275,0,0,1-6.85.8,34.769,34.769,0,0,1-8.636-1.134,43.671,43.671,0,0,1-8.317-3.1,53.035,53.035,0,0,1-14.277-10.34A54.23,54.23,0,0,1,8.59,303.793a59.8,59.8,0,0,1-5.359-11.725A62.961,62.961,0,0,1,.253,266.6c.965-10.449,4.226-18.27,9.97-23.91.7-.682,1.436-1.323,2.061-1.859a1.19,1.19,0,0,1-.561-.571A67.044,67.044,0,0,1,7.388,223.6a162.456,162.456,0,0,1-1.335-17.265,317.783,317.783,0,0,1,.74-34.69,298.818,298.818,0,0,1,11.491-62.55A195.753,195.753,0,0,1,36.915,65.556,135.019,135.019,0,0,1,67.284,29.435C79.64,19.31,94.635,11.654,111.852,6.678a166.7,166.7,0,0,1,24.791-5.094A196.582,196.582,0,0,1,161.785,0h.348l1.012,0a217.494,217.494,0,0,1,91.592,21.122A204.168,204.168,0,0,1,294.667,46.1a182.981,182.981,0,0,1,32.573,33.719l1.124,1.537c.07.092,1.181,1.746,1.444,2.219.627,1.125,1.31,2.239,1.971,3.315l0,.006c.968,1.577,1.968,3.207,2.8,4.888a47.579,47.579,0,0,1,2.319,6.083c.16.484.34,1.031.518,1.555l.264.762c2.1,6.018,3.991,12.353,5.771,19.37,3.2,12.688,5.692,25.508,8.17,38.62,4.308,22.859,7.956,46.348,10.84,69.817,2.843,23.128,5.014,46.8,6.455,70.359l.567,9.448c.586,9.908,1.021,19.613-.083,29.407a95.894,95.894,0,0,1-3.365,16.571,106.493,106.493,0,0,1-6.124,15.769,128.563,128.563,0,0,1-17.17,26.39c-3.476,4.18-7.349,8.492-12.12,11.709-3.741,2.522-8.1,4.178-12.32,5.78a69.758,69.758,0,0,1-11.462,9.087,116.331,116.331,0,0,1-12.767,7.054,126.971,126.971,0,0,1-22.006,8.051,167.124,167.124,0,0,1-23.034,4.369A163.306,163.306,0,0,1,229.621,443.145ZM58.583,299.085a5.054,5.054,0,0,1-3.051-.929,4.357,4.357,0,0,1-1.669-2.961,37.31,37.31,0,0,0-5.669-15.28,9.293,9.293,0,0,0-2.049.95,16.034,16.034,0,0,0-1.949,1.568c-1.328,1.189-2.582,2.312-4.553,2.312a5.572,5.572,0,0,1-.659-.04c-2.537-.3-5.018-2.058-4.851-4.85a6.418,6.418,0,0,1,2.633-5.069,10.291,10.291,0,0,1,5.468-1.731c-.693-.62-1.235-1.091-1.759-1.523l-.653-.526c-1.039-.75-7.026-4.826-8.541-4.826-.209,0-.327.078-.352.23l-.005.084a.608.608,0,0,1-.178.439.72.72,0,0,1-.5.213.583.583,0,0,1-.438-.192,1.976,1.976,0,0,1-.619-1.765,3.677,3.677,0,0,1,2.259-2.265,6.056,6.056,0,0,1,2.514-.494c3.852,0,8.689,2.8,10.278,3.719l.217.125a41.812,41.812,0,0,1,12.4,11.129,47.3,47.3,0,0,1,7.5,14.9,4.77,4.77,0,0,1-.676,4.372A6.5,6.5,0,0,1,58.583,299.085Z" transform="translate(51 62.001)"/></svg>