<svg xmlns="http://www.w3.org/2000/svg" width="486.997" height="567" viewBox="0 0 486.997 567"><g transform="translate(12.997)"><path d="M295.213,448.435c-20.7-.057-39.647-4.09-57.624-12.921-21.706-7.082-45.409-10.941-63.024-26.618-8.578,1.819-17.37-6.987-24.486-12.23-11.606,42.7-72.006,35.6-97.527,8-15.612-13.184-21.892-45.8,5.219-54.427C13.352,320.07-2.692,267.954.361,211.561,3.574,116.963,76.3,18.615,169.775,2.207a147.183,147.183,0,0,1,55.738.957C235.766,5.388,245.677,9.7,256.65,9.5c42.558-6.727,89.3-5.954,124.453,21.283,56.183,37.589,63.992,112.8,57.427,173.266l.266.566c-3.266,22.2-8.694,42.525-18.959,55.907-.8,19.239-7.484,60.307-7.979,76.543,1.2,75.55-41.711,109.082-116.645,111.366" transform="translate(-6.909 59.948)" fill="#d08b5b"/><path d="M141.05,7.357c38.338-12.97,62.531-6.27,98.309.893l2.205.439,3.47.679c35.9-2.408,66.825-10.288,101.487,6.907,72.123,30.324,85.472,114.033,80.5,183.937l-.295,1.3c-2.349,10.2-5.654,20.737-12.6,28.844-11.661-57.4-49.149-95.288-95.247-131.467L317.235,96.9c-5.723-6.9-11.967-14.07-19.515-18.937a52,52,0,0,0,.331-6.672c-.055-3.047-4.4-5.609-6.673-2.96l-.432.536c-2.96,3.593-18.509,20.865-26.378,29.728l-.981,1.107-2.374,2.7-4.008,4.8c-43.263,51.721-88.9,103.643-153.421,128.468-15.462-9.778-34.218-1.168-43.88,12.607-27.456,32,4.371,92.346,46.571,75.976,2.562,22.132,13.638,47.082,28.664,63.776-16.464,22.971-42.8,27.116-67.445,14.115-24.052-10.746-39.617-33.3-24.852-58.252q.465-.27.954-.524a79.868,79.868,0,0,0,38.154,13.5l1.034.069c8.521.4,8.386-13.017-.262-13.7C25.526,335.957.133,270.64.076,219.418-2.354,129.251,53.857,36.48,141.05,7.357Z" transform="translate(1.85 69)" fill="#c93305"/><path d="M303.944,458.184a169.731,169.731,0,0,1-22.866-1.544,155.314,155.314,0,0,1-21.606-4.5l-2.137-.7c-10.248-3.407-20.543-7.631-26.433-15.4a4.549,4.549,0,0,1-.441-4.985,6.746,6.746,0,0,1,2.362-2.6,6.179,6.179,0,0,1,3.345-1.046,4.938,4.938,0,0,1,1.245.157,45.594,45.594,0,0,1,10.335,4.613c1.729.952,3.517,1.937,5.35,2.787,13.952,6.165,29.564,9.292,46.4,9.292,20.375,0,42.227-4.634,63.194-13.4l1.032-.435a67.1,67.1,0,0,0,15.3-8.626,63.884,63.884,0,0,0,11.662-11.5,75.415,75.415,0,0,0,8.541-13.866,102.957,102.957,0,0,0,5.936-15.721c2.865-9.826,4.868-21.264,6.123-34.967,1.108-12.1,1.511-24.386,1.9-36.267.508-15.474.987-30.09,2.963-42.452a110.149,110.149,0,0,0-1.248-20,114.078,114.078,0,0,0-4.587-18.724,131.977,131.977,0,0,0-7.41-17.587,166.534,166.534,0,0,0-9.718-16.6c-14.267-21.53-33.274-40.756-51.654-59.349-5.929-6-11.529-11.663-17.014-17.435l-1.2-1.339c-4.262-4.726-8.556-9.048-14.221-10.011-1.587,4.819-5.488,8.877-9.019,12.3l-8.1,8.759c-7.162,7.73-15.67,16.876-24.469,26.1-6.306,6.405-12.5,13.029-19.05,20.041-17.218,18.422-35.021,37.469-55.083,52.423a176.006,176.006,0,0,1-15.483,10.361,138.465,138.465,0,0,1-16.451,8.344,117.362,117.362,0,0,1-17.559,5.868,109.558,109.558,0,0,1-18.809,2.933c1.58,1.43,3.1,2.969,4.577,4.457a83.281,83.281,0,0,0,6.511,6.121,2.215,2.215,0,0,1,.491,2.483,2.329,2.329,0,0,1-2.771,1.434c-3.486-.89-5.9-3.756-8.232-6.527-.479-.569-.93-1.1-1.393-1.627a28.152,28.152,0,0,0-30.375,5.087A40.662,40.662,0,0,0,82.125,282.25a36,36,0,0,0-1.242,19.475A28.937,28.937,0,0,0,84.65,310.8a29.635,29.635,0,0,0,7.166,7.719c2.111,2.235,5.225,3.873,9.521,5.006a83.879,83.879,0,0,0,11.685,1.905c6.4.738,11.929,1.375,13.429,4.192.7,1.313.486,3.018-.65,5.214,2.041,6.4,4.273,12.474,6.634,18.054a156.255,156.255,0,0,0,8.575,17.329,118.212,118.212,0,0,0,10.9,15.826,94.336,94.336,0,0,0,13.6,13.545,50.43,50.43,0,0,0,7.2,4.229c4.581,2.373,9.319,4.827,11.836,9.044a3.867,3.867,0,0,1,.3,3.019,3.129,3.129,0,0,1-1.611,1.982,12.917,12.917,0,0,1-5.5,1.21,21,21,0,0,1-10.007-2.994,69.374,69.374,0,0,1-8.764-5.975,48,48,0,0,1-19.7,20.785,49.463,49.463,0,0,1-12.585,4.766,60.032,60.032,0,0,1-13.6,1.507,77.758,77.758,0,0,1-22.46-3.476A90.926,90.926,0,0,1,69.6,424.28a78.832,78.832,0,0,1-17.064-13.814,51.341,51.341,0,0,1-10.6-16.688,32.211,32.211,0,0,1-1.162-20.034c1.926-7.055,6.407-13.649,13.317-19.6a159.724,159.724,0,0,1-19.943-21.115A154.711,154.711,0,0,1,19,309.625,165.03,165.03,0,0,1,2.18,257.81a200.608,200.608,0,0,1-.505-55.392,241.072,241.072,0,0,1,13.873-55.249A260.766,260.766,0,0,1,45.483,90.446,239.559,239.559,0,0,1,88.125,43.6a195.118,195.118,0,0,1,52.684-31.852,159.046,159.046,0,0,1,91.823-8.537,121.17,121.17,0,0,0,16.9,4.385A96.656,96.656,0,0,0,266.6,9.171a86.334,86.334,0,0,0,20.089-2.359,142.92,142.92,0,0,1,21.979-1.723,135.1,135.1,0,0,1,55.166,11.705,139.691,139.691,0,0,1,23.942,13.664A145.65,145.65,0,0,1,408.624,48.47,151.043,151.043,0,0,1,427.2,72.256a154.509,154.509,0,0,1,21.782,57.4,155.983,155.983,0,0,1,1.911,31.953,309.991,309.991,0,0,1-1.153,46.53,160.977,160.977,0,0,1-5.76,30.767,99.424,99.424,0,0,1-13.087,28.2c-.066,5.52-1.707,18.641-3.444,32.532v.006c-1.825,14.591-3.894,31.128-4.445,41.415l-.205,4.182c-1.042,20.135-3.267,41.382-12.413,60.351A87.9,87.9,0,0,1,391.1,429.375a105.285,105.285,0,0,1-25.742,16.35C347.414,453.876,326.179,458.184,303.944,458.184ZM58.189,357.039h0a40.88,40.88,0,0,0-5.907,15.518,32.479,32.479,0,0,0,1.1,14.359,36.749,36.749,0,0,0,4.2,8.963,45.833,45.833,0,0,0,6.535,7.974,57.557,57.557,0,0,0,8.457,6.806,68.749,68.749,0,0,0,9.966,5.46A65.746,65.746,0,0,0,96.4,421.586a54.1,54.1,0,0,0,13.769,1.837,46.235,46.235,0,0,0,21.751-5.3A52.2,52.2,0,0,0,149.986,402a115.782,115.782,0,0,1-19.006-29.849,117.6,117.6,0,0,1-9.658-33.927,39.17,39.17,0,0,1-14.177,2.764h-.005a35.3,35.3,0,0,1-11.919-2.076A39.3,39.3,0,0,1,84.75,333.2a50.666,50.666,0,0,1-15.155-19.31,56.23,56.23,0,0,1-4.149-12.946,52.014,52.014,0,0,1-.816-13.549,45.269,45.269,0,0,1,2.956-13.21,41.563,41.563,0,0,1,7.165-11.929,41.94,41.94,0,0,1,13-12.027,32.9,32.9,0,0,1,16.514-4.772,26.486,26.486,0,0,1,14.361,4.193,231.016,231.016,0,0,0,24.039-10.888,254.729,254.729,0,0,0,22.369-13.238A322.473,322.473,0,0,0,205.616,193.4c11.511-10.6,23.431-22.8,36.441-37.314,11.634-12.978,22.723-26.185,34-39.7l2.374-2.7c2.559-2.89,6.17-6.931,9.994-11.209,7.661-8.572,16.343-18.287,17.678-20.013a3.061,3.061,0,0,1,2.49-1.252,4.41,4.41,0,0,1,2.916,1.225,4.055,4.055,0,0,1,1.386,2.84,52.185,52.185,0,0,1-.33,6.673c8.322,5.366,15.144,13.635,21.163,20.93,12.8,10.05,23.5,19.121,32.69,27.733a266.024,266.024,0,0,1,27.847,30.044,199.69,199.69,0,0,1,11.6,16.409,176.805,176.805,0,0,1,9.787,17.613,167.636,167.636,0,0,1,7.769,19.024,171.019,171.019,0,0,1,5.55,20.644,49.047,49.047,0,0,0,8.275-14.268,108.857,108.857,0,0,0,4.62-15.877,332.7,332.7,0,0,0-.341-53.967,222.084,222.084,0,0,0-11-52.844c-13.113-37.4-36.382-63.344-69.161-77.126a99.922,99.922,0,0,0-24.823-8.55A120.7,120.7,0,0,0,312.3,19.45c-10.665,0-21.244,1.043-32.444,2.147-6.468.638-13.154,1.3-19.973,1.754l-3.47-.679c-3.56-.7-7.014-1.41-10.355-2.093l-.008,0c-17.319-3.539-32.275-6.6-48.082-6.6a118.378,118.378,0,0,0-19.9,1.67A142.741,142.741,0,0,0,155.9,21.341,188.461,188.461,0,0,0,96.744,54.082a209.537,209.537,0,0,0-24.41,23.38A223.159,223.159,0,0,0,51.8,104.48C26.82,143.1,13.723,188.884,14.923,233.4a166.327,166.327,0,0,0,1.222,19.728,173.3,173.3,0,0,0,3.673,20.2,161.366,161.366,0,0,0,6.2,19.835,137.9,137.9,0,0,0,8.8,18.62C41.944,324.261,50.6,334.426,60.534,342a76.21,76.21,0,0,0,37.035,15.209c4.5.357,6.7,4.141,6.564,7.694a6.684,6.684,0,0,1-1.574,4.183,5.629,5.629,0,0,1-4.356,1.836c-.122,0-.247,0-.372-.009l-.261-.016a75.139,75.139,0,0,1-20.615-4.31,84.192,84.192,0,0,1-18.767-9.55Zm67.2-51.24c-3.1,0-6.131-3.374-9.642-7.282a61.693,61.693,0,0,0-8.3-8.119,20.6,20.6,0,0,0-11.122-4.512c-.267-.239-.361-.468-.28-.68.418-1.1,5.313-1.595,9.684-1.595,4.025,0,8.463.424,9.307,1.37l.428.146c5.156,1.813,13.44,6.565,15.13,12.228a7.18,7.18,0,0,1-1.406,6.682A5.52,5.52,0,0,1,125.392,305.8Z" transform="translate(-13 55)"/></g></svg>