<svg xmlns="http://www.w3.org/2000/svg" width="474" height="567" viewBox="0 0 474 567"><path d="M181.792,0C230.572,0,324.7,56.53,324.7,56.53S368.9,241.752,360,294.651,304.7,412.357,227.906,412.357s-97.663-27.1-116.136-39.411-55.706-68.36-55.706-68.36S30.8,312.454,23.384,307.9c-10.531-6.465-9.252-23.467-12.58-39.909C8.351,255.877,0,243.988,0,237.242c0-24.474,17.39-22.725,26.15-28.59-19.2-18.908-14.144-84.481,10.038-118.92S133.011,0,181.792,0Z" transform="translate(54.661 86.827)" fill="#d08b5b"/><path d="M238.054,457.184a148.483,148.483,0,0,1-21.6-1.594,129.828,129.828,0,0,1-19.662-4.46l-2.381-.739a53.483,53.483,0,0,1-7.837-2.962c-3.422-1.706-4.979-4.544-6.264-8.279a5.563,5.563,0,0,1,.22-3.689,4.882,4.882,0,0,1,2.407-2.769l.706-.3A16.412,16.412,0,0,1,190,430.824a12.357,12.357,0,0,1,4.406.863c3.234,1.22,6.579,2.322,9.943,3.275a117.159,117.159,0,0,0,20.393,3.969c4.507.443,9.055.667,13.517.667A127.95,127.95,0,0,0,301.1,423.267a117.753,117.753,0,0,0,29.139-23.094A120.674,120.674,0,0,0,350.455,369.7,134.316,134.316,0,0,0,361.214,334.7a126.568,126.568,0,0,0,.55-36.631,118.233,118.233,0,0,0-4.041-18.493c-.557-1.855-1.214-3.709-1.848-5.5-.531-1.5-1.08-3.051-1.568-4.6a45.011,45.011,0,0,1-1.476-7.775c-.076-.585-.154-1.187-.236-1.776l-.105-.737c-.963-6.508-.89-13.21-.82-19.692.018-1.62.036-3.294.038-4.943,0-2.434,0-4.909,0-7.3v-.051c-.005-5.7-.011-11.6.046-17.4l.08-9.329c.025-2.747.059-6,.117-9.331a2.031,2.031,0,0,1-.316.025,2.339,2.339,0,0,1-2.345-2.035c-.237-2.96-.738-5.919-1.222-8.781-.337-1.99-.684-4.045-.942-6.088l-.167-1.312c-.565-4.372-1.28-9-3.227-13.315-2.134-4.723-3.951-9.669-5.708-14.453-1.447-3.938-2.941-8.006-4.6-11.928a141.056,141.056,0,0,0-13.554-24.7,139.388,139.388,0,0,0-18.2-21.506,133.934,133.934,0,0,0-26.936-20,146.9,146.9,0,0,0-30.926-13.031c-.279.117-.563.234-.838.346l-.006,0-.014.006c-.394.162-.8.329-1.2.5a237.217,237.217,0,0,0-38.886,21.778A206.027,206.027,0,0,0,184.6,90.539l-.509.435c-2.621,2.236-5.33,4.549-7.936,6.9-1.174,1.056-2.358,2.147-3.518,3.242-.711.669-1.464,1.39-2.3,2.2a2.882,2.882,0,0,0-1.314,1.888,4.581,4.581,0,0,0,1.2,3.31.5.5,0,0,1,.188-.039.548.548,0,0,1,.491.447.533.533,0,0,1-.245.62,3.577,3.577,0,0,1-1.681.451,3.3,3.3,0,0,1-2.573-1.339,5.2,5.2,0,0,1-.971-4.242c.463-2.05,2.124-3.969,3.59-5.662.31-.358.6-.695.878-1.027l.215-.263c2.22-2.743,4.883-5.968,7.81-9.095a199.257,199.257,0,0,1,49.717-38.151,155.109,155.109,0,0,0-23.4-2.377c-1.358-.033-2.736-.05-4.095-.05-3.108,0-6.263.088-9.375.263-7.524,4.09-14.263,7.988-20.6,11.917-5.672,3.517-11.27,7.179-16.639,10.885-2.471,1.705-5.077,3.552-8.449,5.99-.4.293-.865.6-1.354.922l-.011.007a17.851,17.851,0,0,0-3.332,2.584l-.086.105c-.639.835-2.048,3.579-1.439,4.813a1.226,1.226,0,0,0,1.216.618l.119,0h.013a.261.261,0,0,1,.258.247.266.266,0,0,1-.2.306,3.221,3.221,0,0,1-.756.1,1.731,1.731,0,0,1-1.421-.643,4.764,4.764,0,0,1-.425-3.706c.928-4.21,5.661-7.814,9.465-10.711.967-.736,1.88-1.432,2.675-2.092l.253-.212c7.9-6.71,16.223-13.254,24.743-19.45a167.273,167.273,0,0,0-38.463,10.74A169.389,169.389,0,0,0,101.309,80.12a182.082,182.082,0,0,0-36.926,36.323,220.478,220.478,0,0,0-26.4,44.65,211.654,211.654,0,0,0-8.876,23.183,137.355,137.355,0,0,0-5.347,24.2c-1.528,12.6-.764,29.957,11.557,41.12l.148-.015c.564-.056,1.147-.113,1.72-.152l.971-.059c1.224-.065,2.458-.1,3.669-.1a47.933,47.933,0,0,1,10.2.97c3.827.844,6.674,2.225,8.462,4.1a8.282,8.282,0,0,1,2.265,6.361.582.582,0,0,1-.571.519.414.414,0,0,1-.39-.26c-1.413-3.069-4.393-4.561-9.11-4.561a43.362,43.362,0,0,0-6.929.717l-3.13.516c-6.031,1-12.959,2.362-18.851,5.847a27.23,27.23,0,0,0-7.328,6.241,18.587,18.587,0,0,0-4.011,8.677c-.971,5.948,2.614,10.515,6.081,14.932l.009.011q.387.493.769.983a46.36,46.36,0,0,1,5.345,8.294,24.834,24.834,0,0,1,2.533,9.488,39.495,39.495,0,0,1-1.091,9.736c-.721,3.668-1.467,7.461-.936,11.151,1.024,7.136,6.524,10.754,16.346,10.754,6.208,0,12.834-1.432,17.913-2.68a7.519,7.519,0,0,1,1.79-.208,8.381,8.381,0,0,1,3.762.885,5.663,5.663,0,0,1,2.651,2.661A128.616,128.616,0,0,0,93.566,382.32a122.682,122.682,0,0,0,17.553,14.708c.863.59,1.727,1.17,2.563,1.731,5.455,3.659,10.607,7.115,14.393,12.832a3.212,3.212,0,0,1,.24,3.281,4.382,4.382,0,0,1-3.479,2.362c-.642.054-1.292.082-1.932.082a25.671,25.671,0,0,1-10.815-2.534,62.668,62.668,0,0,1-9.715-5.858,143.9,143.9,0,0,1-19.246-16.165,138.555,138.555,0,0,1-14.443-17.138,136.684,136.684,0,0,1-11.458-19.246l-.9.17a77.033,77.033,0,0,1-13.935,1.421,46.321,46.321,0,0,1-7.632-.6,33.483,33.483,0,0,1-7.195-2.017,27.452,27.452,0,0,1-6.5-3.77,28.077,28.077,0,0,1-5.541-5.855,22.3,22.3,0,0,1-3.838-9.676,34.3,34.3,0,0,1,.2-10.481c.207-1.33.472-2.659.727-3.945,1.091-5.49,2.121-10.674-1.027-15.881-1.2-1.982-2.59-3.875-3.936-5.7-2.619-3.562-5.327-7.245-6.664-11.687a24.042,24.042,0,0,1-.791-9.871,30.041,30.041,0,0,1,2.86-9.507A31.13,31.13,0,0,1,15.19,255.858a45.952,45.952,0,0,1,16.993-5.881c-6.726-4.05-11.816-10.315-15.13-18.619a66.722,66.722,0,0,1-4.268-24.317A98.363,98.363,0,0,1,14.025,191.7,131.6,131.6,0,0,1,17.4,176.5a216.833,216.833,0,0,1,10.784-29.038,203.234,203.234,0,0,1,73.384-86.371,177.877,177.877,0,0,1,22.845-12.671A183.311,183.311,0,0,1,174.471,33.5a179.211,179.211,0,0,1,26.084-1.927c.522,0,1.043,0,1.547.007,8.751-5.245,18.143-10.353,27.915-15.183l2.029-.995a208.134,208.134,0,0,1,21.992-9.356A131.577,131.577,0,0,1,277.195.054,4.276,4.276,0,0,1,277.869,0,4.59,4.59,0,0,1,280.8,1.111a4.855,4.855,0,0,1,1.6,2.537,3.342,3.342,0,0,1-.189,2.179,3.762,3.762,0,0,1-1.843,1.766c-11.711,5.769-23.98,10.75-35.844,15.567-7.62,3.094-15.5,6.291-23.152,9.668a181.784,181.784,0,0,1,30.055,6.032,215.658,215.658,0,0,1,34.977-11.106l3.8-.843c7.2-1.581,15.57-3.267,23.675-3.267A42.69,42.69,0,0,1,328.02,25.8a4.514,4.514,0,0,1,2.209,1.574,3.95,3.95,0,0,1,.753,2.259,4.463,4.463,0,0,1-2.963,4.212c-6.345,2.474-13.318,3.267-20.061,4.034l-.089.01-1.628.186c-8.553.987-15.488,2.07-21.825,3.406-5.258,1.109-10.541,2.411-15.7,3.869a102.434,102.434,0,0,1,9.5,5.036,213.245,213.245,0,0,1,23.531,16.236,150.025,150.025,0,0,1,20.581,19.832,159.447,159.447,0,0,1,28.346,48.173,70.3,70.3,0,0,1,3.518,14.4,49.261,49.261,0,0,1,.313,7.8c-.017,1.238-.034,2.516,0,3.779a.683.683,0,0,1,.439.469c1.9,7.56,2.457,15.689,2.992,23.55v.012c.12,1.762.244,3.585.381,5.353q.152,1.965.3,3.929c.656,8.444,1.333,17.175,1.9,25.777.184,2.782.311,5.65.433,8.425.313,7.11.637,14.461,1.962,21.436,1.006,5.3,3.243,10.328,5.406,15.192a107.3,107.3,0,0,1,4.053,10.01,133.334,133.334,0,0,1,6.519,39.779,145.631,145.631,0,0,1-5.123,40.2,144.121,144.121,0,0,1-15.945,37.225,130.346,130.346,0,0,1-25.946,30.861A138.851,138.851,0,0,1,297.56,444.6a144.348,144.348,0,0,1-39.089,11.166A149.709,149.709,0,0,1,238.054,457.184ZM71.332,301.28c-.1,0-.209-.005-.315-.016-3.576-.349-6.4-1-9.44-3.179L60.055,297a71.19,71.19,0,0,0-7.824-5,53.017,53.017,0,0,0-10.613-4.168l-1.24-.352-.042-.012-.007,0c-1.076-.306-2.189-.623-3.283-.912-1.011-.266-2.037-.5-3.047-.7a1.953,1.953,0,0,0-.991-.342c-.647,0-1.1.577-1.348,1.714a.52.52,0,0,1,.317.58.383.383,0,0,1-.387.344l-.055,0a3.223,3.223,0,0,1-2.411-1.615,3.7,3.7,0,0,1-.28-3.277c.658-1.605,2.225-2.765,4.657-3.448a24.624,24.624,0,0,1,6.509-.733c.619,0,1.27.014,1.99.042l.671.032a61.76,61.76,0,0,1,9.343,1.24,50.609,50.609,0,0,1,9.885,3.093,27.376,27.376,0,0,1,8.227,5.314,14.726,14.726,0,0,1,4.37,7.905,4.415,4.415,0,0,1-.9,3.491A2.886,2.886,0,0,1,71.332,301.28Zm-7.108-31.413a.051.051,0,0,1-.039-.017l-.011-.032V265.21a.047.047,0,0,1,.05-.047.054.054,0,0,1,.04.017l.01.031v4.608A.047.047,0,0,1,64.225,269.867Z" transform="translate(47 45)"/></svg>