<svg xmlns="http://www.w3.org/2000/svg" width="494" height="567" viewBox="0 0 494 567"><g transform="translate(20)"><path d="M415.851,130.771c-35.181-92.557-98.6-160.324-205.51-117.76a9.557,9.557,0,0,0-10.9-.2C141.2,49.377,99.259,108.006,81.084,174.117A90.618,90.618,0,0,0,49.675,185.9c-20.864,13.073-34.9,33.875-48.059,54.135-3.957,6.091-.293,16.175,7.143,17.558a62.469,62.469,0,0,0,9.614,1.054,40.922,40.922,0,0,1-3.094,8.024c-4.7,9.024,4.182,18.6,12.509,16.138a16.139,16.139,0,0,0,2.9,1.193c.114,5.112,2.741,11.955,7.94,12.988,8.408,1.8,19.582-4.631,17.6-14.035a25.247,25.247,0,0,0,7.538.193c.276,4.9.19,10.007.866,14.524,2.21,21.288,23.48,35.588,43.764,29.112,1.244,6.633,2.705,15.953,9.238,19.551,7.638,21.427,20.827,45.88,42.429,55.643-1.923,4.927-.88,10.921,4.912,14.218,39.541,22.543,87,30.171,131.7,21.79,17.866-1.064,35.273-5.1,51.981-13.7,12.184-6.272,23.385-14.237,34.319-22.448s22.637-16.212,31.369-26.877c9.484-11.583,13.9-25.211,16.764-39.716,13.129-65.839,8.594-130.486-15.255-193.2C386.33,64.407,445.362,208.41,415.851,130.771Z" transform="translate(-17 61.313)" fill="#d08b5b"/><path d="M47.975,11.5c32.839-19.37,74.719-14.357,94.448,15.649a56,56,0,0,1,7.419,17.475l.268,1.1.268,1.154a133.423,133.423,0,0,1,2.189,13.5l.847,6.924.242,1.886a98.21,98.21,0,0,0,2.666,14.26l.223.783,1.3,4.469-4.9,1.81c-9.386,3.39-11.351,3.693-16.767.862-4.229-2.211-6.437-5.187-9.375-11.218l-.425-.883-.937-1.968-.508-1.037c-1.914-3.822-3.447-7.9-5.613-9.378-2.941-2.01-12.213-2.811-18.661-2.018l-.336.043-.278.058-.477.107C88.723,67.645,78.84,76.4,72.322,85.648a49.638,49.638,0,0,0-8.634,26.579l-.021.65-.128,4.976-10.511-.224.1-1.937-.157.344c-3.311,6.981-11.631,11.63-18.592,7.009l-.248-.169-.253-.181a12.612,12.612,0,0,1-1.761-18.4l.223-.239.217-.221-.044-.021-.05-.017-.031,0c-1.643.3-3.086,1.145-5.039,2.938l-.5.47L25.885,108.3l-1.043,1.114-.448.46c-.287.289-.55.543-.8.768a9.3,9.3,0,0,1-.978.792A5.807,5.807,0,0,1,21.6,112a5.125,5.125,0,0,1-6.714-2.516,5.874,5.874,0,0,1-.471-1.437,10.429,10.429,0,0,1-.177-1.613c-.017-.388-.023-.812-.02-1.276l.012-.726.025-.788.027-.629.119-2.332a58.35,58.35,0,0,1,5.884-22.276l.349-.708.13-.257-.36.483a21.392,21.392,0,0,1-7.451,6.661l-.39.189-.381.173C8.253,86.674,4.3,86,1.9,82.8A11.4,11.4,0,0,1,.1,74.612c.658-5.947,3.01-11.392,7.615-19.338l.645-1.105,2.528-4.287C20.631,33.488,33.152,20.245,47.975,11.5Z" transform="translate(-15.403 231.927)" fill="#e8e1e1"/><path d="M287.652,449.056h-.01a120.576,120.576,0,0,1-31.032-3.932,106.056,106.056,0,0,1-29.15-12.654,7.272,7.272,0,0,1-3.175-3.914,7.726,7.726,0,0,1-.028-4.572,8.88,8.88,0,0,1,2.6-4.155,6.571,6.571,0,0,1,4.375-1.75,6.952,6.952,0,0,1,3.9,1.277,82.833,82.833,0,0,0,18.218,9.493,103.851,103.851,0,0,0,35.036,5.8c15.261,0,31.576-2.885,48.493-8.575a188.989,188.989,0,0,0,38.139-17.745,167.981,167.981,0,0,0,32.957-26.087A109.076,109.076,0,0,0,431.3,347.221a95.442,95.442,0,0,0,6.782-41.41c-.614-11.057-2.458-22.166-4.241-32.91-1.048-6.316-2.132-12.846-2.954-19.294-1.6-12.553-2.7-25.369-3.758-37.763l0-.055c-.241-2.818-.491-5.732-.742-8.6l-.5-5.57c-1.383-15.143-3.114-31.366-6.385-47.395-3.545-17.371-8.449-32.16-14.991-45.211a183.341,183.341,0,0,0-51.016-62.083,175.426,175.426,0,0,0-36.255-21.791A163.824,163.824,0,0,0,276.756,12.96a113.14,113.14,0,0,0-18.046-1.454,120.515,120.515,0,0,0-38.236,6.4,152.58,152.58,0,0,0-35.283,17.4,209.611,209.611,0,0,0-33.667,27.654A222.858,222.858,0,0,0,124.061,96.8c-3.75,5.672-7.386,11.775-10.806,18.139-3.211,5.974-6.329,12.358-9.268,18.977-3.929,8.846-7.017,18.156-10,27.16-1.1,3.322-2.241,6.756-3.406,10.118.784-.023,1.563-.035,2.315-.035a78.056,78.056,0,0,1,8.536.471,69.557,69.557,0,0,1,26.664,8.635,67.543,67.543,0,0,1,11.415,8.157,65.174,65.174,0,0,1,9.5,10.461,49.657,49.657,0,0,1,5.457,9.624,62.642,62.642,0,0,1,3.338,10.161,160.618,160.618,0,0,1,3.153,21.291c.755,7.347,1.535,14.944,3.353,22.239a3.857,3.857,0,0,1-1.712,4.207,24.558,24.558,0,0,1-13.272,3.926,22.207,22.207,0,0,1-13.471-4.411,20.906,20.906,0,0,1-7.2-10.1,20.148,20.148,0,0,1-1.023-6.13,18.622,18.622,0,0,1,.986-6.189.989.989,0,0,1,.952-.7.964.964,0,0,1,.982.957c.41,10.9,8.489,19.759,18.009,19.759a16.594,16.594,0,0,0,7.742-1.983c-1.992-6.861-2.867-14.132-3.713-21.164a156.657,156.657,0,0,0-2.855-17.882,52.052,52.052,0,0,0-6.929-16.683,53.97,53.97,0,0,0-9.731-11.154,53.417,53.417,0,0,0-11.778-7.726,58.766,58.766,0,0,0-13.211-4.492,67.1,67.1,0,0,0-14.032-1.454A75.785,75.785,0,0,0,73.9,183.758a77.8,77.8,0,0,0-18.822,7.959,91.691,91.691,0,0,0-19.948,16.076,116.576,116.576,0,0,0-15.379,20.551l-2.519,4.272a93.657,93.657,0,0,0-4.8,9.01,31.886,31.886,0,0,0-2.8,9.443c-.233,2.111.134,3.881,1.007,4.856a2.57,2.57,0,0,0,2,.862,5.308,5.308,0,0,0,2.1-.509c3.319-1.457,5.894-4.807,7.974-7.892a4.773,4.773,0,0,1,4.021-2.236,5.206,5.206,0,0,1,4.387,2.432,4.442,4.442,0,0,1,.024,4.5l-.1.176a56.973,56.973,0,0,0-4.908,11.4,51.931,51.931,0,0,0-2.18,12.208l-.118,2.31c-.124,2.7-.049,4.1.223,4.163l.021,0c.368,0,2.079-1.864,3.1-2.978.358-.39.64-.7.766-.818,2.185-2.1,4.684-4.127,8.144-4.764a4.893,4.893,0,0,1,.879-.079,5.807,5.807,0,0,1,5.218,3.56,4.116,4.116,0,0,1,.229,2.35,4.341,4.341,0,0,1-1.356,2.293l-.157.142a7.576,7.576,0,0,0,.5,11.524,5.825,5.825,0,0,0,3.506,1.2,8.413,8.413,0,0,0,5.879-2.893,11.467,11.467,0,0,0,3.115-5.953l.025-.193a4.872,4.872,0,0,1,1.639-3.209,4.575,4.575,0,0,1,2.963-1.082,4.276,4.276,0,0,1,4.3,4.291,15.59,15.59,0,0,1-1.051,6.828,18.166,18.166,0,0,1-3.67,5.791,19.9,19.9,0,0,1-6.142,4.466,17.548,17.548,0,0,1-7.314,1.668,14.992,14.992,0,0,1-7.381-1.909,15.928,15.928,0,0,1-5.509-5.127,18.54,18.54,0,0,1-2.792-6.945,12.291,12.291,0,0,1-4.649,1.438c-.3.027-.606.04-.9.04a8.647,8.647,0,0,1-6.094-2.408,10.658,10.658,0,0,1-3.044-5.987,44.372,44.372,0,0,1,1.142-18.329,12.568,12.568,0,0,1-2.939.359,12.129,12.129,0,0,1-6.115-1.7C2.21,262.514.066,258.581,0,253.227c-.06-5.029,1.734-10.233,3.25-13.713A134.509,134.509,0,0,1,17.4,214.671a121.955,121.955,0,0,1,19.366-21.246,97.59,97.59,0,0,1,23.777-15.252,79.733,79.733,0,0,1,27.376-6.858A96.644,96.644,0,0,1,90.3,153.4a199.462,199.462,0,0,1,15.162-43.438,214.031,214.031,0,0,1,24.674-39.446c19.789-25.1,44.564-45,71.645-57.555A149,149,0,0,1,224.7,4.477,123.5,123.5,0,0,1,248.769.288C251.475.1,254.257,0,257.038,0a150.4,150.4,0,0,1,45.215,7.481,183.05,183.05,0,0,1,39.064,17.7A191.084,191.084,0,0,1,375.346,51.3a181.913,181.913,0,0,1,27.666,34.056A190.123,190.123,0,0,1,421.9,124.973a212.671,212.671,0,0,1,6.208,22.069c1.59,7.009,2.948,14.375,4.152,22.52,2.235,15.124,3.572,30.643,4.866,45.651v.007c.41,4.753.833,9.668,1.278,14.483,1.63,17.645,4.312,35.05,7.151,52.813l.445,2.777a199.647,199.647,0,0,1,2.7,25.786,103.686,103.686,0,0,1-2.2,25.766,109.206,109.206,0,0,1-17.764,39.161A141.857,141.857,0,0,1,414.893,392.7a164.184,164.184,0,0,1-16.015,14.52,204.368,204.368,0,0,1-51.969,29.911,180.662,180.662,0,0,1-29.294,8.76A148.993,148.993,0,0,1,287.652,449.056ZM176.336,423.616c-4.152,0-8.58-1.444-13.535-4.415a98.474,98.474,0,0,1-11.722-8.707l-.159-.131a99.368,99.368,0,0,1-19.382-21.969,130.212,130.212,0,0,1-12.9-25.158,131.827,131.827,0,0,1-7.283-27.42,34.187,34.187,0,0,1-9.733,1.362h-.071a31.431,31.431,0,0,1-10.665-1.884,34.7,34.7,0,0,1-9.485-5.238,44.546,44.546,0,0,1-12.406-15.09,51.228,51.228,0,0,1-3.595-9.105,55.74,55.74,0,0,1-1.88-9.68c-1.406-13.476,1.974-27.146,9.274-37.5a51.876,51.876,0,0,1,6.035-7.1,52.819,52.819,0,0,1,7.2-5.916,50.589,50.589,0,0,1,16.948-7.535l.528-.119a44.246,44.246,0,0,1,8.731-.934,22.959,22.959,0,0,1,5.855.657,8.132,8.132,0,0,1,4.279,2.436,5.966,5.966,0,0,1,1.042,5.134.4.4,0,0,1-.42.335.5.5,0,0,1-.484-.335c-.607-2.068-2.426-3.117-5.407-3.117-4.675,0-10.817,2.539-12.836,3.373a53.7,53.7,0,0,0-14.3,8.834A49.356,49.356,0,0,0,83.72,260.9a47.867,47.867,0,0,0-4.911,7.51A43.935,43.935,0,0,0,73.8,285.575a48.415,48.415,0,0,0,2.021,18.095,41.238,41.238,0,0,0,3.672,8.358,35.721,35.721,0,0,0,5.543,7.242,26.523,26.523,0,0,0,7.193,5.2,21.3,21.3,0,0,0,8.576,2.166c.116,0,.237.006.358.006a24.507,24.507,0,0,0,6.337-1.184l.025-.007a24.382,24.382,0,0,1,6.268-1.177,7.913,7.913,0,0,1,3.587.787,3.319,3.319,0,0,1,1.7,2.955,7.4,7.4,0,0,1-2.515,5.015c2.4,4.372,4.713,8.89,6.95,13.26,5.649,11.034,11.491,22.443,19.219,32.483a110.8,110.8,0,0,0,18.5,19.085,74.574,74.574,0,0,0,10.594,6.982c.727.4,1.44.776,2.131,1.14l.007,0c3.474,1.831,6.475,3.413,9.05,6.774a6.606,6.606,0,0,1,.421,6.481,6.478,6.478,0,0,1-4.773,4.219A17.244,17.244,0,0,1,176.336,423.616ZM126.174,297.253a6.627,6.627,0,0,1-1.78-.251c-3.7-1.034-7.1-3.211-10.39-5.317a46.487,46.487,0,0,0-9.3-5.008,23.6,23.6,0,0,0-7.877-1.379,19.36,19.36,0,0,0-11.017,3.288.749.749,0,0,1-.43.137.962.962,0,0,1-.807-.518.8.8,0,0,1,.019-.838,21.236,21.236,0,0,1,8.013-7.251,27.824,27.824,0,0,1,10.5-2.9c.889-.078,1.8-.118,2.7-.118a34.479,34.479,0,0,1,11.766,2.14l1.907.691c4.086,1.494,8.318,3.206,11.226,6.225a6.334,6.334,0,0,1,1.732,3.478,6.716,6.716,0,0,1-.484,3.607,6.813,6.813,0,0,1-2.249,2.855A5.976,5.976,0,0,1,126.174,297.253Z" transform="translate(-20 56)"/></g></svg>