<svg xmlns="http://www.w3.org/2000/svg" width="477.51" height="567" viewBox="0 0 477.51 567"><path d="M282.307,23.677C208.405-14.2,98.288-10.126,46.29,61.508c-8.276,13.6-16.677,28.486-20.753,43.636-5.112,19.56-14.156,48.579-16.253,76.712C8.066,198.2,13.606,214.045,12.1,228.08,10.914,239.177-.448,235.8.014,246.448c.9,20.8,1.56,51.06,12.089,67.428C22,328.02,40.48,327.152,51.344,340.493c10.239,12.563,19.089,26.5,32.031,36.557,27.089,50.548,104.4,62.024,156.512,57.307C364.059,414.629,362.6,229.043,360.812,131.422,361.372,81.453,324.714,44.464,282.307,23.677Z" transform="translate(64.155 68)" fill="#d08b5b"/><path d="M210.577,507.58a115.847,115.847,0,0,1-19.921-5.7c-7.169-2.77-14.4-5.521-19.609-11.341a8.129,8.129,0,0,1,7.849-13.469c7.53,1.64,14.131,5.9,21.431,8.4a109.355,109.355,0,0,0,20.96,5.03,103.759,103.759,0,0,0,42.58-3.671,107.6,107.6,0,0,0,56.35-39.778c15.52-21.721,21.87-47.8,24.179-74.06,2.651-30.23,1.611-60.72,1.87-91.031.14-15.97,0-31.94.111-47.9.11-15.21-.3-30.39.66-45.56a5.084,5.084,0,0,1-2.07-.931c-7.19-5.22-12.83-12.64-19.7-18.36a153.1,153.1,0,0,0-22.31-15.31c-29.33-16.7-63.25-23.87-96.83-23.321a283.193,283.193,0,0,0-54.64,6.571L95.527,152.1c-11.489-7.989-24.49-13.61-37.159-19.5-1.32,5.21-5.09,10.21-7.421,14.829-3.091,6.12-5.94,12.37-8.46,18.751a272.4,272.4,0,0,0-12.22,39.62c-3.14,13.8-4.85,27.81-6.61,41.83-.86,6.87-1.81,13.829-2.19,20.74-.211,3.73-.131,7.48-.191,11.21-.05,2.551-.889,7.931,1.32,10.331a3.591,3.591,0,0,0,.59.509c12.091-3.659,25.99.35,31.521,12.74a.755.755,0,0,1-1.18.91c-11.27-9.44-30.811-4.07-36.98,8.75a30.3,30.3,0,0,0-1.83,19.6c1.75,7.53,6.429,13.8,9.349,20.869a50.317,50.317,0,0,1,3.06,12.131c.391,2.609.571,6.3,2.471,8.32,2.02,2.15,5.95,2.43,8.66,3.04a43.673,43.673,0,0,1,10.849,3.68c13.431,7.02,20.3,23.42,29.84,34.52a172.4,172.4,0,0,0,17.83,17.91c6.1,5.29,15.87,9.63,16.7,18.37.281,2.89-2.3,5.74-4.919,6.46-6.52,1.8-11.19-2.67-15.951-6.43-4.409-3.479-8.659-7.16-12.71-11.049a183.54,183.54,0,0,1-21.73-25.18c-4.691-6.51-8.609-14.92-15.34-19.63-6.87-4.8-16.142-3.561-22.87-9.13-8.131-6.73-6.49-15.88-8.861-25.011-2.29-8.78-8.31-16.05-10.139-25.07-3.261-16.141,1.63-35.91,17.38-43.86a29.234,29.234,0,0,1,2.92-1.282,5.274,5.274,0,0,1-.83-.75c-1.781-1.929-2.5-5.179-3.071-7.639-1.8-7.68-2.8-15.66-3.859-23.469-2.18-15.881-1.03-32.02,1.52-47.79a238.761,238.761,0,0,1,11.26-43.491,10.513,10.513,0,0,1-3.97-5.36c-1.69-4.91-.17-9.919.8-14.859.29-1.51.611-3.02.941-4.531-.76-48.821,40.21-89.29,80.429-111.669,45.111-25.11,98.971-35.651,150.241-30.06,25.67,2.81,51.27,9.18,73.79,22.18a125.734,125.734,0,0,1,48.41,50.229c10.53,19.981,15.85,42.891,16.439,65.411a155.266,155.266,0,0,1-3.01,33.94c-1.09,5.58-2.741,11.76-1.42,17.44,1.281,5.5,6.45,8.57,10.32,12.23a76.058,76.058,0,0,1,22.56,64.88c-2.85,20.329-15.17,41.558-33.21,52.38a36.364,36.364,0,0,1,6.28,10.56,35.921,35.921,0,0,1-.571,27.65c-3.929,9.06-11.77,20.06-20.68,24.79a18.728,18.728,0,0,1-14.33,1.63c-2.92,31.919-11.73,62.39-34.58,86.919-18.38,19.741-43.43,33.45-70.22,37.211a127.772,127.772,0,0,1-17.633,1.206A139.6,139.6,0,0,1,210.577,507.58ZM49.607,349.421c-2.57-4.931-4.48-9.521-8.6-13.46a39.76,39.76,0,0,0-14.769-8.78.614.614,0,0,1,.159-1.2,32.43,32.43,0,0,1,18.57,4.85c5.691,3.521,10.98,8.6,13.55,14.841,1.411,3.417-1.858,6.058-4.954,6.057A4.28,4.28,0,0,1,49.607,349.421Z" transform="translate(55 5)"/></svg>