<svg xmlns="http://www.w3.org/2000/svg" width="507" height="567" viewBox="0 0 507 567"><g transform="translate(33)"><path d="M151.977.371C303.547-7.083,371.943,99.635,376.367,147.3c3.071,33.088-16.478,71.225-16.478,100.791,0,15.092,18.478,47.492,9.876,69.489-19.147,48.959-59.687,103.294-111.347,103.294S139.525,435.162,82.443,353.43c-5.356-7.669-73.1-51.254-79.681-92.671C-13.632,157.595,43.825,5.69,151.977.371Z" transform="translate(43.419 82.301)" fill="#d08b5b"/><path d="M331,502.27c-4.756,0-9.829-.283-15.966-.892a242.274,242.274,0,0,1-38.4-6.54l-2.017-.536c-5.2-1.394-10.663-2.99-15.183-5.8a18.047,18.047,0,0,1-5.865-5.88,23.842,23.842,0,0,1-2.955-7.8A5.9,5.9,0,0,1,251.729,470a4.8,4.8,0,0,1,3.717-1.828h.224c.135,0,.275,0,.417,0,.556,0,1.147-.021,1.859-.065l.575-.039h.029a.32.32,0,0,1,.1-.011c.176-.026.35-.065.519-.1.149-.034.318-.072.481-.1a18.3,18.3,0,0,1,3.026-.255,23.947,23.947,0,0,1,7.725,1.443l.449.152a178.476,178.476,0,0,0,18.27,5.441c6.2,1.412,12.77,2.61,19.53,3.559l.651.08.2.03.1.01a.121.121,0,0,1,.06.011l1.93.239c1.525.18,3.063.343,4.55.5h.01c2.781.278,5.607.5,8.4.66,1.62.091,3.261.137,4.876.137a87.17,87.17,0,0,0,32.858-6.471,99.205,99.205,0,0,0,28.163-17.543,116.962,116.962,0,0,0,35.272-57.072,120.2,120.2,0,0,0,3.867-24.742,181.879,181.879,0,0,0-.447-24.719,11.816,11.816,0,0,1-.66-3.99c0-.781.043-1.553.09-2.27-.862-8.438-2.082-17.023-3.261-25.326-1.05-7.391-2.135-15.034-2.969-22.565a423.394,423.394,0,0,1-2.8-56.3,234.271,234.271,0,0,1,2.5-27.689l.471-3.3a32.216,32.216,0,0,1-15.686-7.966,32.22,32.22,0,0,1-16.007,4.295,28.4,28.4,0,0,1-14.962-4.116,35.611,35.611,0,0,1-18.708,5.238,32.3,32.3,0,0,1-16.831-4.5,29.255,29.255,0,0,1-7.829,3.983,27.6,27.6,0,0,1-8.664,1.407,26.8,26.8,0,0,1-5.726-.619,25.636,25.636,0,0,1-10.06-4.768,29.239,29.239,0,0,1-5.061.45c-.475,0-.957-.013-1.43-.037l-.447.25a33,33,0,0,1-15.338,4.183c-.288,0-.58,0-.868-.015a38.428,38.428,0,0,1-12.569-2.545,35.691,35.691,0,0,1-14.011,4.992,32.4,32.4,0,0,1-4.039.252,30.961,30.961,0,0,1-17.318-5.112,43.963,43.963,0,0,1-21.742,5.657,45.235,45.235,0,0,1-15.161-2.6,34.081,34.081,0,0,1-9.87,10.55,22.107,22.107,0,0,1,.7,7.922,32.228,32.228,0,0,1-3.261,11.683A20.9,20.9,0,0,1,189,249.917a33.152,33.152,0,0,1-10.615,17.409,32.691,32.691,0,0,1-16.169,26.813,13.347,13.347,0,0,1-1.471.732,7.26,7.26,0,0,1-1.531,1.542,17.886,17.886,0,0,1-12.417,4.4,29.828,29.828,0,0,1-11.329-2.366l-.167.009h-.011c-.084.005-.179.011-.273.013s-.169,0-.254,0a6.42,6.42,0,0,1-5.527-2.6,25.939,25.939,0,0,0-3.379.391,47.01,47.01,0,0,0-12.371,4.171,27.793,27.793,0,0,0-6.317,4.419,26.508,26.508,0,0,0-4.56,5.66,36.373,36.373,0,0,0-4.622,14.28,38.953,38.953,0,0,0,1.5,16.953,32.921,32.921,0,0,0,3.633,7.623,31.308,31.308,0,0,0,5.659,6.533,29.516,29.516,0,0,0,7.277,4.64,34.607,34.607,0,0,0,8.252,2.54,23.713,23.713,0,0,0,4.125.3c.647,0,1.3-.013,1.934-.026h.033c.626-.013,1.274-.026,1.9-.026a17.629,17.629,0,0,1,5.081.588,9.185,9.185,0,0,1,4.416,2.893,4.181,4.181,0,0,1,1.049,3.971,9.127,9.127,0,0,1-8.15,6.79,226.442,226.442,0,0,0,18.37,19.74c1.386,1.3,2.806,2.62,4.179,3.894l.052.048a222.956,222.956,0,0,1,16.73,16.667,137.64,137.64,0,0,1,9.566,12.189,84.872,84.872,0,0,1,7.662,13.441c1.869,4.182,3.483,8.536,5.044,12.747l0,.008c.477,1.287.971,2.618,1.464,3.925l.376.975c.26.656.534,1.32.8,1.961a35.171,35.171,0,0,1,2.552,7.853,12.586,12.586,0,0,1,.009,3.978,11.748,11.748,0,0,1-1.5,4.074,9.966,9.966,0,0,1-2.966,3.074,7.433,7.433,0,0,1-4.069,1.379,5.169,5.169,0,0,1-.665-.042c-8.62-1.1-11.386-7.1-13.88-14.23-.845-2.422-1.616-4.912-2.362-7.32-.987-3.185-2.007-6.479-3.207-9.65-.366-.954-.783-1.957-1.276-3.067a16.193,16.193,0,0,1-4.348.585,19.293,19.293,0,0,1-10.229-3.082,35.261,35.261,0,0,1-14.178,3c-.193,0-.39,0-.586-.005a35.594,35.594,0,0,1-9.518-1.444,33.4,33.4,0,0,1-8.447-3.857l-.244-.064-.058-.015-.016,0c-.306-.08-.622-.163-.931-.251a28.212,28.212,0,0,1-10.123,1.881,25.211,25.211,0,0,1-14.345-4.316,26.354,26.354,0,0,1-5.9-5.524,25.841,25.841,0,0,1-3.762-6.69,25.51,25.51,0,0,1-8.792-1.7A21.841,21.841,0,0,1,72.6,422.9a23.809,23.809,0,0,1-4.713-6.623,25.051,25.051,0,0,1-2.256-7.625,25.937,25.937,0,0,1-7.445-2.68,24.491,24.491,0,0,1-6.416-5.077,22.63,22.63,0,0,1-3.835-5.915,25,25,0,0,1-1.938-6.768,26.778,26.778,0,0,1-8.763-4.358,22.821,22.821,0,0,1-6.36-7.319,22.058,22.058,0,0,1-2.565-8.247,22.534,22.534,0,0,1,.668-8.194l-.366-.528a24.151,24.151,0,0,1-8.239-6.762,18.621,18.621,0,0,1-3.742-10.179,19.652,19.652,0,0,1,.715-6.682,20.066,20.066,0,0,1,.549-7.117,30.5,30.5,0,0,1-5.48-7.232,31.8,31.8,0,0,1-3.168-8.461,30.766,30.766,0,0,1-.637-8.985,28.346,28.346,0,0,1,2.114-8.8,30.9,30.9,0,0,1-7.827-16.69,29.761,29.761,0,0,1,.15-9.249,26.813,26.813,0,0,1,3.138-8.73,26.7,26.7,0,0,1-4.822-8.751A27.879,27.879,0,0,1,.04,241.768,36.271,36.271,0,0,1,3.074,229.28,66.261,66.261,0,0,1,9.4,218.058a20.844,20.844,0,0,1-4.092-6.928,22.189,22.189,0,0,1-1.286-7.963,25.174,25.174,0,0,1,2.885-10.836,40.965,40.965,0,0,1,6.614-9.164,32.7,32.7,0,0,1-1.647-10.363,33.507,33.507,0,0,1,1.6-10.11A34.669,34.669,0,0,1,25.12,145.988a19.1,19.1,0,0,1-2.339-12.89,20.734,20.734,0,0,1,4.973-10.379,41.842,41.842,0,0,1,8.927-7.582,18.973,18.973,0,0,1,1.17-13.88,23.827,23.827,0,0,1,6.007-7.744,48.969,48.969,0,0,1,8.123-5.606,22.033,22.033,0,0,1,2.373-7.742,24.677,24.677,0,0,1,4.857-6.495A23,23,0,0,1,65.794,69.2a18.544,18.544,0,0,1,7.553-1.663,16.683,16.683,0,0,1,8.132,2.117,14.235,14.235,0,0,1-.393-6.869A17.361,17.361,0,0,1,83.695,56.4a20.842,20.842,0,0,1,6.135-6.064,18.982,18.982,0,0,1,8.11-2.951,30.533,30.533,0,0,1,4.861-9.1,33.745,33.745,0,0,1,7.457-7.069,34.271,34.271,0,0,1,19.359-6.208,30.261,30.261,0,0,1,7.132.844,30.489,30.489,0,0,1,11.231-9.329A32.386,32.386,0,0,1,162.1,13.277a31.1,31.1,0,0,1,10.855,1.932,48.307,48.307,0,0,1,14.332-7.593,49.731,49.731,0,0,1,15.542-2.442A58.381,58.381,0,0,1,221.25,8.258a22.915,22.915,0,0,1,9.383-6.268A32.672,32.672,0,0,1,241.977,0c.659,0,1.323.019,1.973.058,5.848.347,11.4,2.34,16.778,4.268,5.467,1.961,11.121,3.99,17.053,4.262.757.035,1.544.053,2.339.053A108.3,108.3,0,0,0,293.739,7.49l.026,0A108.1,108.1,0,0,1,307.32,6.34a43.948,43.948,0,0,1,7.02.528,37.064,37.064,0,0,1,10.98,3.563,28.07,28.07,0,0,1,8.94,7.087,41.286,41.286,0,0,1,11.365-1.59,42.5,42.5,0,0,1,9.772,1.146A43.858,43.858,0,0,1,380,32.988a25.537,25.537,0,0,1,3.9-.3,29.9,29.9,0,0,1,16.986,5.552A27.984,27.984,0,0,1,411.6,52.4a34.751,34.751,0,0,1,12.2,2.681,38.02,38.02,0,0,1,10.625,6.637A33.972,33.972,0,0,1,446.07,83.288a26.882,26.882,0,0,1,16.09,12.5c3.635,6.2,4.973,13.785,4.091,23.18a21.568,21.568,0,0,1,9.04,9,34.838,34.838,0,0,1,3.91,12.848,22.624,22.624,0,0,1,7.69,10.684,27.446,27.446,0,0,1,1.18,13.5,15.519,15.519,0,0,1,6.252,7.149,23.1,23.1,0,0,1,2.089,9.661c-.009,1.777-.155,3.508-.3,5.182-.344,4.066-.669,7.9.918,12.008a30.453,30.453,0,0,1,1.976,7.373,23.317,23.317,0,0,1-.355,7.558l-.112.529c-.184.836-.349,1.677-.506,2.57a15.72,15.72,0,0,1,3.7,4.863,24.1,24.1,0,0,1,2.439,10.973,32.309,32.309,0,0,1-2.133,11.047,22,22,0,0,1-.7,13.6,25.088,25.088,0,0,1,3.576,7.586,24.114,24.114,0,0,1,.808,8.527,26.294,26.294,0,0,1-8.093,16.78,28.4,28.4,0,0,1-1.587,13.472,30.41,30.41,0,0,1-7.436,11.483,23.644,23.644,0,0,1-2.807,16.074,22.127,22.127,0,0,1-8.157,8.207,26.4,26.4,0,0,1-1.294,9.121,29.216,29.216,0,0,1-6.807,11.335,25.058,25.058,0,0,1-.231,8.887,26.439,26.439,0,0,1-3.229,8.336,23.6,23.6,0,0,1-14.132,10.88,12.666,12.666,0,0,1-2.984.424,128.361,128.361,0,0,1-8.081,33.052,136.287,136.287,0,0,1-9.515,19.506,134.618,134.618,0,0,1-12.5,17.721,129.626,129.626,0,0,1-15.219,15.422,123.056,123.056,0,0,1-17.676,12.61,114.508,114.508,0,0,1-19.608,9.111,111.125,111.125,0,0,1-20.972,5.219A98.439,98.439,0,0,1,331,502.27ZM136.7,339.1a5.4,5.4,0,0,1-5.054-3.268,38.59,38.59,0,0,0-4.83-8.041c-.319.447-.6.908-.932,1.464l-.3.506-.057.1c-.2.338-.409.688-.582,1.044a7.222,7.222,0,0,1-.254.916c-.02.064-.033.106-.035.114a7.667,7.667,0,0,1-5.049,4.95,4.832,4.832,0,0,1-1.6.276,5.359,5.359,0,0,1-3.4-1.3,7.113,7.113,0,0,1-2.141-3.026,6.4,6.4,0,0,1,.948-6.04,12.661,12.661,0,0,1,5.073-4.03,11.432,11.432,0,0,0-10.34,3.62.546.546,0,0,1-.408.184.649.649,0,0,1-.632-.615,9.154,9.154,0,0,1,1.052-4.733,11.463,11.463,0,0,1,3.1-3.643,16.68,16.68,0,0,1,9.117-3.4c.314-.017.63-.026.939-.026A17.666,17.666,0,0,1,128,315.48a24.089,24.089,0,0,1,5.829,3.482,48.528,48.528,0,0,1,9.2,10.216,5.385,5.385,0,0,1,.489,5.807A8.057,8.057,0,0,1,136.7,339.1Z" transform="translate(-33 7.999)"/></g></svg>