<svg xmlns="http://www.w3.org/2000/svg" width="482" height="567" viewBox="0 0 482 567"><g transform="translate(8)"><path d="M307.277,215.815C305.593,137.234,286.014,50.24,218.9,1.68c-4.275-3.1-10.691-1.6-14.234,1.94a10.587,10.587,0,0,0-7.358,5.57Q137.777,117.842,71.989,222.907C43.833,268.163,9.631,313.476,5.119,368.331c-.781,1.037-8.03,9.221-3.806,8.625a32.231,32.231,0,0,1,5.792-2.383c5.362,7.817,17.813,6.588,20.773-2.235,10.262.3,20.418,2.917,30.2,5.959,23.981,7.506,48.354,14.926,72.828,20.663,80.626,21.4,167.26-5.827,173.7-99.825,8.654-12.193,3.972-66.536,2.674-83.32Z" transform="translate(100 92)" fill="#d08b5b"/><path d="M473.939,458.959c-11.41-53.56-18.729-107.81-25.279-162.13-3.17-26.31-5.7-52.689-8.631-79.019-2.739-24.531-5.93-49.141-12.33-73.021-5.949-22.19-14.65-44.16-27.47-63.319a187.04,187.04,0,0,0-44.479-46.2C321.469,9.879,277.629-3.631,234.99.849a158.793,158.793,0,0,0-19.131,3.23c2.01-.59,4.041-1.141,6.09-1.62.66-.159.367-1.048-.28-.989C48.195,17.231,7.389,318.919,3.679,379.749q-.435,7.1-.689,14.18C1.689,404.48.719,415.06.259,425.669a273.7,273.7,0,0,0,.86,36.76c1.16,12.509,2.48,25.33,7.7,36.83,3.2,7.08,152.4-2.619,153.939-10.98A216.792,216.792,0,0,0,166.5,436.81a154.754,154.754,0,0,0-3.071-24.461c-.48-2.2-.99-6.33-2.279-9.6,13.609-25.859,28.579-50.98,43.989-75.81,32.071-51.7,66.17-102.44,92.38-157.5,13.141-27.589,26.09-56.888,32.29-87.119l1,.2a.924.924,0,0,0,.32,1.06c28.49,19.69,47.531,49.53,59.871,81.481a305.455,305.455,0,0,1,20.339,117.229c-1.589,63.34-25.6,141.62-93.53,161.64-15.5,4.57-32.239,5.86-48.12,2.52a81.768,81.768,0,0,1-21.59-7.61c-7.5-3.99-13.66-9.64-20.689-14.289-6.431-4.25-14.021,4.039-10.321,10.329,8.17,13.9,25.75,22.4,40.85,26.58,16.11,4.47,33.1,4.681,49.51,1.841,1.25-.211,2.49-.451,3.72-.711a19.964,19.964,0,0,0,4.93,11.551,19.668,19.668,0,0,0,4.66,3.889c.231,4.021,2.821,8.06,7.031,8.941,22.489,4.679,115.889-7.591,138.349-14.282,6.03-1.8,9.08-7.708,7.8-13.729" transform="translate(-8 42)"/></g></svg>