<svg xmlns="http://www.w3.org/2000/svg" width="530.996" height="567" viewBox="0 0 530.996 567"><g transform="translate(56.996)"><path d="M463.868,89.463c-2.221-5.605-6.149-12.65-12.714-12.931-5.078-15.525-17.7-31.336-35.266-30.916C364.34-7.1,299.444-4.613,231.594,6.546c-35.8,6.639-72.143,19.639-98.841,45.293-31.976,30.2-44.427,82.9-19.387,121.092-21.641,11.6-22.061,39.117-12.806,58.976-11.125,7.693-11.8,26.365.726,32.233a11.376,11.376,0,0,0,1.075,7.972c-6.211,5.17-14.295,8.989-20.978,12.272a9.881,9.881,0,0,0-5.366,6.492C54.073,305.272-.645,340.454.007,368.455c-.322,14.608,10.514,24.222,23.682,28.05-7.835,15.663-13.782,33.958-6.282,50.854,2.073,5.1,17.605,20.108,18.387,20.385,1.367,1.172,23.65-9.058,34.48-14.276,2.1,13.66,16.707,20.817,29.3,16.136,11.939-3.6,19.278-13.706,26.808-22.9,10,21.8,39.4,22.054,58.408,12.654,17.069-7.885,30.044-22.337,37.272-39.752,38.382,18.789,83.288,24.266,124.988,16.761,2.676,4.736,8.6,7.917,13.877,6.085,22.174-6.666,46.691-7.04,65.487-22.313,39.179-28.121,42.478-79.965,39.746-124.158-2.423-44.063-.3-88.493-8.312-132.08,3.476-12.833,9.258-24.178,14.608-36.234C478.266,115.025,478.144,96.232,463.868,89.463Z" transform="translate(-56 55)" fill="#d08b5b"/><path d="M279.007,0l1.523.006q3.777.025,7.539.149a277.29,277.29,0,0,1,42.627,5.1l2.365.454c3.87.758,7.336,1.518,12.865,2.809L356.9,11.1c5.587,1.3,9.7,2.2,13.493,2.927l.5.094s29.242,14.016,38.686,23.237l.942.927.4.4,4.106.13.04.518.035.005c4.077.634,7.764,2.746,11.194,6.033l.366.357.352.353a58.9,58.9,0,0,1,7.739,10.2l.666,1.049,1.193,1.893.967,1.52q.942,1.492,1.811,2.953l.571.972.411.714,10.6,6.184A18.131,18.131,0,0,1,455.161,75l.344.382.338.393,2.889,3.437-.582.606.281.37.5.691.492.7.479.709.206.312.311.673.152.336.121.277.362.186.736,1.329a48.707,48.707,0,0,1,6.02,22.774A45.409,45.409,0,0,1,465.6,123.63a34.374,34.374,0,0,1-5.239,9.642L458.3,136.1l-.421.583-.5.709-.234.337c-3.349,4.85-31.971,14.031-49.563,14.475l-.53.011-.677.007q-2.518.011-4.864-.184a90.917,90.917,0,0,1-20.445-4.319l-1.525-.493-8.1-2.721c-.258-.085-.466-.154-.61-.2l-.739-.231a26.2,26.2,0,0,0-3.963-.975l-.18-.022-.018.335-.006.316v.257c.052,3.727-2.212,6.444-5.723,8.176a31.466,31.466,0,0,1-8.733,2.481l-.577.092c-5.911.913-12.96,1.3-24.752,1.57q-.674.015-1.358-.016a32.878,32.878,0,0,1-8.221-1.609l-1.749-.5-.948-.262a17.65,17.65,0,0,0-3.665-.717l-.269-.011-.267,0a4.1,4.1,0,0,0-2.705.849l-.4.324-5.437,4.554c-.708.589-1.343,1.112-1.808,1.482l-.189.149c-7.462,5.85-14.576,9.193-22.958,9.51l-.561.017-.584.007q-.639,0-1.282-.023c-3.529-.134-7.193-1.443-12.2-3.965l-1.037-.53-.726-.379c-.371-.195-.757-.4-1.176-.624l-3.732-2-1.908-1a26.33,26.33,0,0,0-4.4-1.971l-.14-.037-.08.077a31.492,31.492,0,0,0-5.506,7.723l-.275.511-.4.761-2.6,5.168-.491.961a33.432,33.432,0,0,1-5.447,8.207,15.721,15.721,0,0,1-10.7,5.08l-.432.023-.512.013a23.368,23.368,0,0,1-6.493-.937l-.54-.155-.526-.161c-3.464-1.094-8.939-.413-13.288,1.9-4.723,2.507-7.324,6.331-7.208,11.219a53.309,53.309,0,0,0,.828,7.851l.139.775a119.462,119.462,0,0,0,2.865,11.653l2.894,9.763.327,1.139.328,1.172c.47,1.707.845,3.195,1.154,4.6,1.181,5.355,1.378,9.376.194,12.8-5.22,15.106-14.28,23.131-24.592,23.469l-.356.009h-.441c-7.922-.085-15.1-5.248-15.015-11.935a5.48,5.48,0,0,1,.374-1.944l.106-.249.051-.106-.082-.2a18.376,18.376,0,0,0-14.679-10.918l-.375-.044-.37-.036c-.363-.031-.726-.053-1.069-.065l-.336-.009-.4,0c-8.813.013-17.533,5.88-24.393,15.476a53.229,53.229,0,0,0-3.951,6.495l-.393.774-1.907,3.9-1.288,3.774c-7.1,20.779-3.5,42.522,10.351,53.764l.423.337a33.061,33.061,0,0,0,17.129,6.934c.721.074,1.447.12,2.145.139l.518.009.6,0a23.4,23.4,0,0,0,5.75-.754,7.81,7.81,0,0,0,3.12-1.453,4.741,4.741,0,0,0,.455-.441l.106-.127.04-.054,9.469,1.4c1.611,10.224,6.264,20.818,13.833,32.967l.477.761.832,1.31.846,1.311c8.906,13.7,18.839,25.233,29.757,34.084l.763.613,1.023.811.939.735c1.824,1.416,3.345,2.518,4.866,3.5l.381.244,3.591,2.275-1.667,3.91a83.856,83.856,0,0,1-15.871,24.477l-.624.658-4.6,4.741-3.536-4.5a.371.371,0,0,0-.2-.095l-.065-.007h-.036l-.048,0-.057.015-.058.026a22.346,22.346,0,0,0-6.19,4.679l-.3.314-.353.371-.486.506a38.049,38.049,0,0,1-26.047,11.537l-.63.012h-.634q-.341,0-.683-.012c-14-.388-26.548-9.358-32.715-22.5-.245-.522-.47-.692-.885-.726l-.118-.006-.148,0A4.357,4.357,0,0,0,122,441.282l-.125.157-2.361,3.171-.9,1.2c-8.42,11.054-15.333,17.1-24.618,18.936a15.557,15.557,0,0,1-2.326.269l-.5.02h-.291A25.739,25.739,0,0,1,78.7,461.849c-4.744-2.695-7.678-6.839-7.306-11.974l.028-.329.066-.549c.31-2.742-1.885-4.232-3.564-2.886l-.114.1-.139.126A67.932,67.932,0,0,1,44.222,460.87l-.758.266-1.126.384c-5.4,1.824-9.216,2.728-13.229,2.8a10.518,10.518,0,0,1-8.449-3.6,16.229,16.229,0,0,1-3.094-6l-.142-.442-.31-1.013-.192-.659c-2.486-8.748-2.54-18.1-.588-28.424,1.458-7.71,3.779-15.158,7.683-25.6l.758-2.013,1.563-4.106c.157-.412-.782-1.85-1.363-2.012l-.068-.012-.53.057c-.372.035-.747.06-1.131.075l-.584.014h-.383C9.6,390.46-.087,378.026,0,364.855c.1-12.339,6.3-22.947,18.15-35.541l1.029-1.084,1.114-1.154,1.1-1.126a248.2,248.2,0,0,1,32.5-28.1l.928-.662,1.033-.729c3.774-2.647,7.443-5.048,12.521-8.2l2.989-1.846,12.115-14.3q.436-.247.859-.493l.154-4.959,11.673.241a23.431,23.431,0,0,1-7.409-5.726c-6.625-7.856-5.794-18.77,2.262-24.132l.284-.185,3.4-2.1,2.779,2.438a18.175,18.175,0,0,0,7.665,4.181l.424.1,2.095.444.408.66.236-.342a.356.356,0,0,0-.019-.1l-.021-.049-.044-.068-.264-.324-.291-.348a55.067,55.067,0,0,0-3.878-3.988l-1.333-1.281-1.037-1.009a39.061,39.061,0,0,1-5.714-6.63,34.565,34.565,0,0,1-6.092-18.729c-.189-13.628,8.288-26.512,20.848-32.392.44-.206.764-1.669.237-2.637a103.859,103.859,0,0,1-9.427-73.945c5.7-23.215,19.882-43.707,40.185-59.4C176.309,14.385,224.659.489,275.959.01L277.514,0Z" transform="translate(-49.007 57)" fill="#ecdcbf"/><path d="M98.635,482.725c-.187,0-.367,0-.551-.005a31.12,31.12,0,0,1-14.671-3.961A26.6,26.6,0,0,1,73.1,468.589,77.248,77.248,0,0,1,51.44,479.053l-.693.205a49.092,49.092,0,0,1-13.582,2.259,22.429,22.429,0,0,1-9.5-1.9A18.278,18.278,0,0,1,20,472.809a41.085,41.085,0,0,1-5.876-17.54,75.121,75.121,0,0,1,.254-18.641c1.444-11.116,5-21.517,8.284-30.226A29.829,29.829,0,0,1,9,397.37a36.355,36.355,0,0,1-4.8-6.911,35.772,35.772,0,0,1-3.065-7.76c-1.955-7.42-1.391-15.3,1.677-23.427a70.22,70.22,0,0,1,12.5-20.32,155.145,155.145,0,0,1,18.4-18.1c6-5.064,12.75-10.154,20.627-15.563a204.093,204.093,0,0,1,22.159-13.442,112.3,112.3,0,0,1,24.1-9.352,2.293,2.293,0,0,1,.559-.072,2.018,2.018,0,0,1,1.915,1.5,2.047,2.047,0,0,1-.886,2.345c-4.336,2.758-8.793,5.456-13.1,8.065-8.055,4.876-16.384,9.918-24.217,15.53-5.534,3.963-11.091,8.363-16.516,13.08-5.108,4.44-10.264,9.305-15.326,14.459l-1.091,1.117a96.835,96.835,0,0,0-12.733,15.529,44.457,44.457,0,0,0-4.393,9.018,30.794,30.794,0,0,0-1.737,9.775,22.7,22.7,0,0,0,1.667,8.544,22.091,22.091,0,0,0,4.722,7.284,15.457,15.457,0,0,0,11.082,4.87,15.3,15.3,0,0,0,1.846-.113,4.755,4.755,0,0,1,.575-.035,6.425,6.425,0,0,1,5.1,3.022,6.365,6.365,0,0,1,1.005,5.786l-1.563,4.1c-2.959,7.817-6.268,16.927-8.077,26.12-2,10.138-1.877,18.894.361,26.769l.183.624a16.947,16.947,0,0,0,2.229,5.211,5.518,5.518,0,0,0,4.727,2.245H37.1c4.229-.075,8.655-1.482,12.827-2.916a59.7,59.7,0,0,0,11.923-5.674,66.314,66.314,0,0,0,10.474-8.044,7.314,7.314,0,0,1,5-2.161,6.981,6.981,0,0,1,5.146,2.424,8.483,8.483,0,0,1,2.061,6.608l-.027.217a6.468,6.468,0,0,0,1.678,5.307c2.832,3.249,8.539,4.949,12.713,4.949a11.509,11.509,0,0,0,2.208-.193c10.516-2.08,18.1-12.3,24.2-20.518l.644-.867a9.33,9.33,0,0,1,7.143-3.612,5.979,5.979,0,0,1,5.663,3.612,35.521,35.521,0,0,0,11.424,13.823,30.489,30.489,0,0,0,16.9,5.806c.286.008.576.012.863.012a31.533,31.533,0,0,0,9.013-1.324,34.265,34.265,0,0,0,8.319-3.776A32.382,32.382,0,0,0,191.348,456l.456-.475a28.061,28.061,0,0,1,8.07-6.3,5.411,5.411,0,0,1,6.386.921,4.918,4.918,0,0,1,1.445,3.571c-.028,5.126-1.48,8.639-5.18,12.529a48.588,48.588,0,0,1-21.739,13.032,45.294,45.294,0,0,1-12.345,1.756c-.457,0-.919-.008-1.372-.023a45.63,45.63,0,0,1-10.153-1.5,47.929,47.929,0,0,1-9.543-3.664,48.628,48.628,0,0,1-15.757-12.835c-5.153,6.161-9.777,10.517-14.551,13.709a37.5,37.5,0,0,1-8.679,4.371A30.151,30.151,0,0,1,98.635,482.725ZM349.2,459.019a179.552,179.552,0,0,1-21.025-1.236,191.751,191.751,0,0,1-22.5-3.873l-3.2-.8a30.039,30.039,0,0,1-8.456-3.176,9.52,9.52,0,0,1-4.709-7.236,6.7,6.7,0,0,1,.894-4.368,9.273,9.273,0,0,1,3.347-3.119,9.084,9.084,0,0,1,4.717-1.2,26.53,26.53,0,0,1,6.575,1.143l.587.153a193.01,193.01,0,0,0,19.691,4.118,164.257,164.257,0,0,0,24.344,1.776,184.178,184.178,0,0,0,18.887-.988,150.087,150.087,0,0,0,36.118-8.112,101.829,101.829,0,0,0,31.98-18.345c9.153-7.95,15.474-16.6,18.788-25.715,4.323-11.884,4.127-24.793,3.938-37.277-.017-1.142-.037-2.435-.052-3.689-.175-15.1-.194-30.444-.213-45.288v-.011c-.02-16.4-.041-33.366-.273-50.059-.489-35.16.112-66.352,1.838-95.357a.472.472,0,0,1,.481-.417.329.329,0,0,1,.347.3c5.1,37.04,7.894,74.068,9.95,105.4,1.12,17.06,2.455,35.106,3.969,53.639.335,4.1.731,8.31,1.114,12.378v.005c1.225,13.013,2.492,26.468,2.091,39.553a78.866,78.866,0,0,1-9.946,36.5,89.107,89.107,0,0,1-25.417,28.117c-18.276,13.433-42.19,22.091-71.08,25.736A182.815,182.815,0,0,1,349.2,459.019ZM234.931,430.726c-7.283,0-15.132-6.249-19.821-9.983-11.374-9.052-22.008-21.127-31.605-35.888l-.855-1.326c-5.725-8.941-13.6-22.5-15.88-36.971l-.374.607c-.029.044-.051.076-.065.1a9.074,9.074,0,0,1-1.433,1.528,12.463,12.463,0,0,1-5.077,2.489,28.5,28.5,0,0,1-7.416.929,33.631,33.631,0,0,1-3.4-.174,38.027,38.027,0,0,1-10.421-2.583,38.465,38.465,0,0,1-9.285-5.39,39.408,39.408,0,0,1-10.273-12.181,47.979,47.979,0,0,1-5.1-15.036,67.335,67.335,0,0,1,2.956-32.435,10.8,10.8,0,0,1-2.5.286,18.1,18.1,0,0,1-7.643-1.991,41.052,41.052,0,0,1-6.719-4.134,29.406,29.406,0,0,1-6.785-6.913,21.574,21.574,0,0,1-3.671-8.915,17.271,17.271,0,0,1,1.929-10.21,17.79,17.79,0,0,1,3.109-4.374,12.428,12.428,0,0,1,4.147-2.87,45.408,45.408,0,0,1-7.416-13.1,46.3,46.3,0,0,1-2.962-13.875A41.316,41.316,0,0,1,93.3,197.08a44.913,44.913,0,0,1,14.6-16.121,111.957,111.957,0,0,1-6.875-19.129,113.75,113.75,0,0,1-3.051-40.31,111.11,111.11,0,0,1,3.952-19.986,106.539,106.539,0,0,1,7.382-18.417,111.288,111.288,0,0,1,10.319-16.348,133.524,133.524,0,0,1,27.66-26.8A183.764,183.764,0,0,1,181.32,20.53,237.3,237.3,0,0,1,218.145,7.819a244.584,244.584,0,0,1,31.522-5.931A265.561,265.561,0,0,1,281.512,0c7.275,0,14.775.288,22.292.856,7.327.553,14.383,1.363,20.973,2.407a191.586,191.586,0,0,1,21.216,4.545,137.017,137.017,0,0,1,20.279,7.3A98.08,98.08,0,0,1,384.432,25.8a1.214,1.214,0,0,1,.486,1.374,1.173,1.173,0,0,1-1.144.787,1.579,1.579,0,0,1-.246-.02c-8.486-1.353-16.991-3.37-25.217-5.321-6.216-1.474-12.643-3-19.025-4.228-7.754-1.494-14.805-2.638-21.557-3.5-7.694-.978-14.809-1.565-21.752-1.793-3.071-.1-6.188-.153-9.264-.153a277.018,277.018,0,0,0-35.406,2.258,248.247,248.247,0,0,0-35.216,7.12,206.792,206.792,0,0,0-33.437,12.5,168.154,168.154,0,0,0-30.067,18.409,113.481,113.481,0,0,0-24.044,25.089,95.256,95.256,0,0,0-14.344,31.55,98.57,98.57,0,0,0-2.674,17.937,100.087,100.087,0,0,0,.629,18.086,99.009,99.009,0,0,0,3.892,17.665,95.771,95.771,0,0,0,7.114,16.673,7.86,7.86,0,0,1,.49,6.022,5.768,5.768,0,0,1-3,3.536,31.339,31.339,0,0,0-7.3,4.768,32.054,32.054,0,0,0-5.719,6.544,29.227,29.227,0,0,0-4.952,16.483A29.613,29.613,0,0,0,107.93,233.6a47.132,47.132,0,0,0,6.8,7.532,60.934,60.934,0,0,1,5.458,5.7,5.345,5.345,0,0,1,1.179,3.1,4.865,4.865,0,0,1-.814,2.993c.929.407,1.907.74,2.852,1.063a27.068,27.068,0,0,1,3.9,1.56,2.768,2.768,0,0,1,1.4,2.524,2.641,2.641,0,0,1-1.4,2.414,8.6,8.6,0,0,1-3.9.936,10.354,10.354,0,0,1-5.075-1.419,15.238,15.238,0,0,1-4.2-3.547,18.763,18.763,0,0,1-1.528-2.149,22.9,22.9,0,0,1-10.349-5.411,9.8,9.8,0,0,0-4.722,6.878,12.646,12.646,0,0,0,3.122,10.116c2.168,2.571,5.265,4.532,9.745,6.172l.436.158c.556.2,1.106.381,1.638.56,2.944.986,5.487,1.837,7.421,4.219a59.362,59.362,0,0,1,5.187-8.836,49.414,49.414,0,0,1,12.281-12.263,28.855,28.855,0,0,1,16.209-5.306c.732,0,1.474.032,2.207.1a23.875,23.875,0,0,1,13.414,5.6,22.745,22.745,0,0,1,4.707,5.519,21.788,21.788,0,0,1,2.71,6.882.705.705,0,0,1-.156.6.82.82,0,0,1-.612.31.548.548,0,0,1-.518-.364,14.709,14.709,0,0,0-6.614-7.269,19.9,19.9,0,0,0-9.524-2.264,24.67,24.67,0,0,0-13.048,3.732,38.221,38.221,0,0,0-12.574,14.045,62.3,62.3,0,0,0-6.311,17.949,51.072,51.072,0,0,0-.237,18.815,36.293,36.293,0,0,0,2.855,8.981,28.222,28.222,0,0,0,5.331,7.695,24.218,24.218,0,0,0,6.326,4.614A23.121,23.121,0,0,0,149,337.877a15.864,15.864,0,0,0,2.084.135,25.829,25.829,0,0,0,5.109-.617l1.606-.336a13.186,13.186,0,0,1,2.717-.342c.228,0,.455.01.673.029l1.741.234.99.464a3.1,3.1,0,0,0,.578.227c.007,0,.011,0,.012,0a3.966,3.966,0,0,0-.822-.54c.159-.013.307-.018.442-.018a3.9,3.9,0,0,1,3.046,1.327,5.159,5.159,0,0,1,1.16,3.032,1.038,1.038,0,0,1,.261.218c5.03,6.156,9.555,12.836,13.932,19.295,5.393,7.96,10.968,16.189,17.542,23.523l3.488,3.892c9.292,10.337,19.369,20.856,31.379,25.959l1.449.6a18.094,18.094,0,0,1,4.936,2.868,7.434,7.434,0,0,1,2.618,4.948,6.308,6.308,0,0,1-1.589,4.9,8.916,8.916,0,0,1-4.5,2.7A11.773,11.773,0,0,1,234.931,430.726Zm-86.675-9.446a.912.912,0,0,1-.747-.374.626.626,0,0,1-.052-.612,35.275,35.275,0,0,0,1.61-6.022c.876-4.207,1.782-8.556,4.925-11.052a6.272,6.272,0,0,1,3.9-1.523,5.939,5.939,0,0,1,3.65,1.357,11.276,11.276,0,0,1,2.8,3.334l.113.2c.929,1.687,2.07,2.543,3.39,2.543a5.6,5.6,0,0,0,3.869-2.193,13.259,13.259,0,0,0,2.6-4.5l.143-.456c.114-.375.232-.784.356-1.217a27.42,27.42,0,0,1,2.029-5.52c1.082-1.954,2.374-2.9,3.95-2.9a5.541,5.541,0,0,1,2.473.675c2.485,1.259,3.472,3.737,2.936,7.365a31.055,31.055,0,0,1-2.868,8.325,19.976,19.976,0,0,1-4.866,6.526,15.394,15.394,0,0,1-7.24,3.576,15.6,15.6,0,0,1-2.952.283,14.177,14.177,0,0,1-5.281-.985,10.77,10.77,0,0,1-6.42-6.416,4.837,4.837,0,0,1-.349-1.023,2.235,2.235,0,0,1-.578,1,50.8,50.8,0,0,0-6.746,9.238A.73.73,0,0,1,148.256,421.279ZM84.012,410.928a28.785,28.785,0,0,1-8.476-1.34.612.612,0,0,1-.464-.666.7.7,0,0,1,.639-.623,27.18,27.18,0,0,0,21.362-15.418l.412-.921c1.492-3.3,3.133-6.368,6.779-7.649a8.322,8.322,0,0,1,2.767-.474,9.483,9.483,0,0,1,6.947,3.23,12.5,12.5,0,0,1,1.586,2.48c.933,1.74,1.815,3.383,3.663,3.383a3.824,3.824,0,0,0,.984-.14c3.163-.848,5.229-4.128,7.051-7.023.5-.788.965-1.532,1.434-2.194l.437-.608c3.289-4.494,8.373-9.851,13.922-9.851a9.376,9.376,0,0,1,5.7,2.048,4.262,4.262,0,0,1,1.838,3.4,4.06,4.06,0,0,1-1.838,3.243l-.944.674-.6.422-.038.027c-3.147,2.224-6.119,4.325-8.393,7.471-.48.666-.96,1.349-1.424,2.011a39.449,39.449,0,0,1-7.134,8.382,18.424,18.424,0,0,1-11.36,4.082,14.122,14.122,0,0,1-5.724-1.154,12.482,12.482,0,0,1-4.777-3.693l-.536-.679a21.344,21.344,0,0,1-1.4-2l-.33.458-.091.131-.076.117A28.431,28.431,0,0,1,97.34,406.9,23.825,23.825,0,0,1,84.012,410.928Zm-19.9-52.476a1.565,1.565,0,0,1-1.23-.686,1.194,1.194,0,0,1-.176-1.118l.821-2.19A49.4,49.4,0,0,1,68.9,343.637a16.2,16.2,0,0,1,3.993-4.063,8.952,8.952,0,0,1,5.061-1.613,10.186,10.186,0,0,1,3.25.564,19.58,19.58,0,0,1,3.983,2.081c1.822,1.137,3.543,2.21,5.407,2.21a5.764,5.764,0,0,0,3.783-1.6,17.915,17.915,0,0,0,4.048-5.861c1.15-2.267,2.339-4.611,4.573-6.308a2.931,2.931,0,0,1,1.792-.589,4.1,4.1,0,0,1,2.413.846,3.742,3.742,0,0,1,1.441,2.041c1.076,4.3-.212,9.291-3.535,13.687a22.594,22.594,0,0,1-6.424,5.778,16.4,16.4,0,0,1-7.752,2.422c-.143,0-.287.007-.428.007a14.625,14.625,0,0,1-6.825-1.724A15.407,15.407,0,0,1,81.519,350a9.866,9.866,0,0,0-3.579-2.12,2.6,2.6,0,0,0-.51-.051c-1.755,0-3.343,1.757-4.745,3.306-.413.456-.8.886-1.171,1.245a65.99,65.99,0,0,1-6.739,5.853A1.084,1.084,0,0,1,64.116,358.452ZM170.851,307.57a8.156,8.156,0,0,1-4.169-1.142,14.645,14.645,0,0,1-4.417-4.516,30.465,30.465,0,0,0-1.938-2.486,20.387,20.387,0,0,0-5.525-4.286,36.35,36.35,0,0,0-6.487-2.676,12.826,12.826,0,0,0-3.093,2.293.554.554,0,0,1-.4.165.709.709,0,0,1-.616-.375.484.484,0,0,1,.056-.528,12.9,12.9,0,0,1,2.081-2.146l-.384-.113a1.47,1.47,0,0,1-1.041-1,1.7,1.7,0,0,1,.358-1.584c3.024-3.472,7.686-5.384,13.126-5.384a25.171,25.171,0,0,1,12.752,3.533,20.34,20.34,0,0,1,4.959,4.1,15.376,15.376,0,0,1,3.076,5.385A8.376,8.376,0,0,1,177,305.1,9.208,9.208,0,0,1,170.851,307.57Zm13.338-41.915c-.118,0-.236-.005-.349-.016a6.385,6.385,0,0,1-5.424-3.11,4.941,4.941,0,0,1-.865-3.039,7.746,7.746,0,0,1,.764-3.1l.1-.2a28.482,28.482,0,0,0,2.96-9.336,26.7,26.7,0,0,0-.5-9.775,60.658,60.658,0,0,0-3.15-8.912,61.2,61.2,0,0,1-3.12-8.8c-2.2-9.04-.407-18.825,5.185-28.3a18.614,18.614,0,0,1-9.647-6.012l.01,0a1.846,1.846,0,0,1-.291-1.95,1.4,1.4,0,0,1,1.32-.885c.043,0,.088,0,.133.005l1.775.143.4.034c2.344.2,4.558.382,6.8.382a28.182,28.182,0,0,0,7.679-.965,25.267,25.267,0,0,0,7.16-3.4l.484-.319c2.754-1.829,4.323-2.138,7.64-2.138h.081a4.506,4.506,0,0,1,3.182,1.52,3.285,3.285,0,0,1,.9,2.558l-.077.609a11.422,11.422,0,0,1-1.7,5.082,10.321,10.321,0,0,1-4.4,3.4,33.457,33.457,0,0,1-11.167,2.913c-.782.072-1.6.109-2.425.109-.717,0-1.452-.028-2.183-.082l-.333,1.919a81.912,81.912,0,0,0-1.386,11.586c-.213,7.2,2.479,13.2,5.328,19.551l.064.143a53.573,53.573,0,0,1,3.223,9.32,42.711,42.711,0,0,1,1.205,9.315,39.28,39.28,0,0,1-.976,9.311,43.1,43.1,0,0,1-3.321,9.31A6.156,6.156,0,0,1,184.189,265.654Zm41.854-85.829a5,5,0,0,1-4.071-1.938,5.85,5.85,0,0,1-1.12-2.739,8.882,8.882,0,0,1,.257-3.6c.793-2.983,2.662-5.466,4.469-7.867.511-.679,1.039-1.38,1.533-2.081a87.414,87.414,0,0,0,5.723-9.2,55.1,55.1,0,0,0,4.158-9.849,35.978,35.978,0,0,0,1.638-10.532,33.14,33.14,0,0,0-1.583-9.834,31.067,31.067,0,0,0-4.509-8.97,23.172,23.172,0,0,0-7.181-6.535,19.189,19.189,0,0,0-9.6-2.527l-.274,0h-.012a.723.723,0,0,1-.756-.74.8.8,0,0,1,.768-.854c.507-.029,1.02-.043,1.525-.043a27.808,27.808,0,0,1,16.295,5.424,34.979,34.979,0,0,1,11.049,13.471c6.264,13.254,2.515,27.98-1.733,38l-1.439,3.342a67.16,67.16,0,0,1-4.5,8.9,20.46,20.46,0,0,1-6.48,6.885A8.189,8.189,0,0,1,226.043,179.825ZM290.38,164.8a10.311,10.311,0,0,1-5.954-1.917,9.96,9.96,0,0,1-3.727-5.111,4.026,4.026,0,0,1,.193-2.875,5.2,5.2,0,0,1,1.875-2.208c5.757-3.806,9.666-8.3,11.95-13.743a45.162,45.162,0,0,0,2.768-9.437,56.736,56.736,0,0,0,.861-9.8c.078-15.757-6.323-28.981-18.511-38.244a.851.851,0,0,1-.3-.973.733.733,0,0,1,.674-.539.792.792,0,0,1,.426.136,61.54,61.54,0,0,1,18.7,19.189,62.683,62.683,0,0,1,9.294,25.139,59.235,59.235,0,0,1,.1,14.65,47.141,47.141,0,0,1-3.9,14.094,24.946,24.946,0,0,1-4.772,7.055,15.382,15.382,0,0,1-7.235,4.285A10.178,10.178,0,0,1,290.38,164.8ZM466.8,152.092a7.116,7.116,0,0,1-3.617-1.017,6.7,6.7,0,0,1-2.548-2.617,5.244,5.244,0,0,1,.467-5.624c.684-.991,1.388-1.951,2.069-2.879,2.3-3.13,4.462-6.084,5.759-9.962a40.6,40.6,0,0,0,1.957-13.782,42.864,42.864,0,0,0-10.812-28.033.883.883,0,0,1-.169-.97.9.9,0,0,1,.809-.542.94.94,0,0,1,.439.114,34.7,34.7,0,0,1,7.257,5.106,37,37,0,0,1,5.709,6.647,41.623,41.623,0,0,1,6.422,16.372,46.921,46.921,0,0,1,.561,9.242,49.765,49.765,0,0,1-1.291,9.724c-1.654,6.982-4.713,12.713-8.846,16.575A6,6,0,0,1,466.8,152.092ZM339.429,149.3a11.666,11.666,0,0,1-4.036-.729,5.152,5.152,0,0,1-3.332-3.422,5.255,5.255,0,0,1,1.181-4.726,29.362,29.362,0,0,1,6.192-5.2,26.6,26.6,0,0,0,6.776-5.946,25.33,25.33,0,0,0,4.048-8.913,35.817,35.817,0,0,0,.935-9.788l-.031-.724a63.435,63.435,0,0,0-5.212-21.883,27.658,27.658,0,0,0-6.418-9.161,14,14,0,0,0-9.477-3.757c-.133,0-.263,0-.4.005h-.021a.591.591,0,0,1-.612-.614.657.657,0,0,1,.633-.7c.367-.017.737-.026,1.1-.026a22.518,22.518,0,0,1,11.861,3.406,32.883,32.883,0,0,1,9.148,8.632,51.418,51.418,0,0,1,6.319,11.481,57.444,57.444,0,0,1,3.372,11.952c1.7,10.447.009,20.046-4.9,27.759l-.313.484a34.635,34.635,0,0,1-7.174,8.025C345.84,148.009,342.6,149.3,339.429,149.3Zm64.811-2.665a7.982,7.982,0,0,1-3.02-.616c-2.132-.869-4.627-3.357-3.5-6.169,1.1-2.748,2.586-3.892,4.471-5.342.509-.391,1.034-.8,1.6-1.262a17.393,17.393,0,0,0,4.553-6.594,37.908,37.908,0,0,0,2.732-10.288A58.371,58.371,0,0,0,411.4,105.7l-.053-.823a55.626,55.626,0,0,0-1.952-10.909A46.353,46.353,0,0,0,404.858,83.1a26.552,26.552,0,0,0-7.349-8.349,17.675,17.675,0,0,0-10.4-3.336c-.146,0-.3,0-.443.005h-.018a.486.486,0,0,1-.521-.47.614.614,0,0,1,.539-.655,20.779,20.779,0,0,1,2.626-.169,20.225,20.225,0,0,1,10.877,3.24,32,32,0,0,1,8.5,8.144,53.83,53.83,0,0,1,6.071,10.687,64.325,64.325,0,0,1,5.31,24.773,47.059,47.059,0,0,1-1.83,13.854l-.2.632a34.342,34.342,0,0,1-5.046,9.763A17.034,17.034,0,0,1,409,145.078,8.56,8.56,0,0,1,404.24,146.638Zm40.4-7.882a11.062,11.062,0,0,1-2.833-.4,3.509,3.509,0,0,1-2.26-1.8,4.48,4.48,0,0,1-.393-2.876c.615-3.352,2.071-4.736,4.087-6.651.563-.535,1.145-1.088,1.769-1.74a27.027,27.027,0,0,0,5.655-9.306,37.821,37.821,0,0,0,.987-21.948c-1.706-7.115-4.956-14.319-10.229-22.672l-.958-1.507q-.3-.469-.6-.958l-.038-.06c-4.45-7.071-10.545-16.754-19.252-16.754a12,12,0,0,0-1.443.088.811.811,0,0,1-.1.006.54.54,0,0,1-.556-.478.824.824,0,0,1,.467-.91,12.608,12.608,0,0,1,4.5-.851c3.456,0,6.935,1.465,10.633,4.48a66.709,66.709,0,0,1,8.36,8.711A122.323,122.323,0,0,1,452.267,76.3,69.831,69.831,0,0,1,459.525,91a47.3,47.3,0,0,1,.888,29.123,38.652,38.652,0,0,1-6.741,12.867l-.391.482C450.683,136.645,448.219,138.756,444.638,138.756Z" transform="translate(-57 49)"/></g></svg>