<svg xmlns="http://www.w3.org/2000/svg" width="474" height="567" viewBox="0 0 474 567"><path d="M391.332,173.382c18.127-11.626,42.861-41.291,28.8-63.786-5.709-8.8-13.494-12.1-22.04-12.369-2.037-2.556-5.422-3.305-8.581-3.323l.018-.135a57.025,57.025,0,0,0-32.185,11.011c-5.988-5.261-13.425-8.253-20.629-11.488a312.271,312.271,0,0,1,12.866-44.583c2.825-8.387-6.124-17.222-14.562-14.688,2.076-9.092-2.694-19.652-13.084-19.535-5.555,0-11.841,2.978-17.213,4.32-3.979.994-7.9,2.014-11.738,3.311-.018-.1-.028-.209-.039-.315,10.064-7.046,9.713-23.268-5.076-21.695-6.309.557-12.723,4.851-18.557,7.473-9.617.579-18.853,3.635-28.2,5.828C215.536,19.753,188.17,26.129,167.1,42.229,130.6,56.295,85.2,78.04,80.68,121.023c-64.285-24.872-112.848,54.55-54.55,85.8,11.44,5.333,24.664,8.094,37.179,5.529q-4.436,16.4-8.428,32.926c-22.263,51.151-40.263,105.208-33.788,161.35.095,10.185,13.175,16.06,20.4,8.452,5.981-7.216,13.238,1.219,11.288,8.186A12.117,12.117,0,0,0,64.313,438.4c9.485.5,17.019-5.864,23.731-11.739-.129.127.177-.066.623-.367,16.562,39.063,32.08,8.69,52.493,26.266,4.77,4.406,8.117,9.626,14.228,12.492,14.332,7.261,25.648-5.682,39.338-7.176,12.655-.932,25.168,3.449,37.3,6.4,14.171,3.441,28.459,5.243,43.016,3.629,18.613-2.066,55.749-10.476,66.739-17.4,13.466,9.038,27.323-1.682,34.725-14.025,5.177,4.984,14.972,5.748,19.132-1.938,4.138-8.571,11.872-21.671,20.766-19.73a5.4,5.4,0,0,1,1.744.747c8.313,7.067,19.045,1.7,20.261-8.569,7.88-66.547-8.194-133.305-29.567-195.931C404.179,197.959,400.308,184.346,391.332,173.382Z" transform="translate(12 32.001)" fill="#d08b5b"/><path d="M287.674,484.567c-1.131,0-2.276-.017-3.4-.051a98.841,98.841,0,0,1-30.165-5.723l-1.5-.546a114.128,114.128,0,0,1-12.434-5.316,57.069,57.069,0,0,1-11.256-7.308,1.306,1.306,0,0,1-.635-1.524,1.332,1.332,0,0,1,1.242-1.109,1.4,1.4,0,0,1,.428.071c2.109.682,4.211,1.4,6.244,2.095,6.977,2.384,13.568,4.636,20.913,5.724a124.2,124.2,0,0,0,18.122,1.287c2.927,0,5.969-.094,9.04-.28a110.831,110.831,0,0,0,26.947-5.217c2.532-.8,5.1-1.834,7.583-2.833,5.062-2.037,10.295-4.143,15.732-4.524a12.382,12.382,0,0,1,1.415-1.671,14.391,14.391,0,0,1,4.637-3.128,12.3,12.3,0,0,1,4.707-.887c3.316,0,6.692,1.114,10.265,2.293.8.264,1.627.537,2.452.8.22.07.333.19.334.356l.1-.138.062-.084-.046.058c-.037.042-.063.063-.078.063a.011.011,0,0,1-.01-.005,4.993,4.993,0,0,1,.412-1.074l.006-.013c.052-.116.093-.208.115-.262l.012-.03a36.045,36.045,0,0,0,1.193-4.369c.249-1.091.507-2.218.837-3.3,2.246-7.384,6.227-11.751,11.83-12.982a9.243,9.243,0,0,1,1.981-.208,9.549,9.549,0,0,1,4.208.953,6.22,6.22,0,0,1,2.972,2.983,6.248,6.248,0,0,0,6.145,4.087l.23,0c3.112-.071,4.364-1.752,5.584-4.829.525-1.325.988-2.684,1.435-4l0-.008c1.113-3.271,2.264-6.652,4.428-9.583A18.308,18.308,0,0,1,414,416.8c.261-.01.528-.015.794-.015,3.984,0,7.9,1.115,11.7,2.194l.495.141.388.116c.246.077.517.167.8.262l.008,0a16.362,16.362,0,0,0,4.581,1.054,2.637,2.637,0,0,0,1.471-.358c1.888-1.26,3.029-7.721,3.71-11.581.136-.771.253-1.436.359-1.967l.042-.206a109.178,109.178,0,0,0,2.109-16.916,180.957,180.957,0,0,0-2.136-35.6c-1.809-12.083-4.467-23.974-7.07-35.023-5.253-22.3-11.655-45.3-19.57-70.316-6.549-20.7-14.079-42.639-23.7-69.049a.7.7,0,0,1,.074-.667.951.951,0,0,1,.766-.376.79.79,0,0,1,.7.393c13.893,23.883,26.3,50.915,37.928,82.642,5,13.646,9.226,26.142,12.916,38.2,4.175,13.644,7.566,26.388,10.365,38.961l.4,1.805a219.373,219.373,0,0,1,5.261,38.7,140.474,140.474,0,0,1-.607,19.473,112.754,112.754,0,0,1-3.656,19.182l-.348,1.2a41.56,41.56,0,0,1-3.188,8.186,16.792,16.792,0,0,1-15.577,9.209,28.121,28.121,0,0,1-4.341-.361,46.1,46.1,0,0,1-5.8-1.44,40.629,40.629,0,0,0-6.54-1.541,7.59,7.59,0,0,0-.9-.058,3.274,3.274,0,0,0-2.6,1.013,8.046,8.046,0,0,0-1.4,2.729l-.764,2.159c-1.569,4.377-3.408,8.921-6.209,12.5a18.51,18.51,0,0,1-11.773,7.086,24.906,24.906,0,0,1-17.011-3.067l-.016.055,0,.005c-.051.17-.1.346-.146.513l-.236.9c-1.033,3.868-2.372,7.869-5.154,10.927a15.034,15.034,0,0,1-5.24,3.742,15.709,15.709,0,0,1-6.2,1.239,18,18,0,0,1-3.549-.36,31.022,31.022,0,0,1-5.723-1.963c-.528-.22-1.072-.448-1.609-.662a6.7,6.7,0,0,1-2.466,4.03,7.269,7.269,0,0,1-4.55,1.693,6.031,6.031,0,0,1-1.376-.157,9.525,9.525,0,0,1-4.73-2.572,37.987,37.987,0,0,1-9.764,5.239,96.917,96.917,0,0,1-10.491,3.2,103.665,103.665,0,0,1-13.256,2.463A113.335,113.335,0,0,1,287.674,484.567ZM149.41,477.511a7.265,7.265,0,0,1-5.848-3.14,34.128,34.128,0,0,1-3.112-5.439,27.254,27.254,0,0,0-4.354-6.938,34.068,34.068,0,0,0-7.274-5.688c-.832,2.939-3.086,5.376-6.517,7.046a24.776,24.776,0,0,1-10.63,2.272,22.683,22.683,0,0,1-6.664-.934,25.107,25.107,0,0,1-9.741-5.757,37.908,37.908,0,0,1-6.832-8.923,28.067,28.067,0,0,1-7.552,5.364,19.47,19.47,0,0,1-19.3-1.115,18.2,18.2,0,0,1-6.471-6.938,28.449,28.449,0,0,1-2.954-9.088c-.128-.787-.208-1.8-.292-2.869a43.579,43.579,0,0,0-.587-4.967l-.533.544c-4.191,4.238-9.242,8.57-14.928,8.57a11.207,11.207,0,0,1-1.839-.152,12.546,12.546,0,0,1-5.45-2.351,18.682,18.682,0,0,1-4.1-4.352,48.817,48.817,0,0,1-5.268-10.94c-5.362-14.569-4.4-30.732-2.565-46.029A340.958,340.958,0,0,1,26.355,326.5c2.1-7.67,4.586-15.5,7.384-23.269,2.678-7.438,5.732-15.064,9.075-22.667a229.509,229.509,0,0,1,11.356-22.235c2.094-3.635,4.425-7.244,6.633-10.628a52.594,52.594,0,0,1,4-5.153,54.718,54.718,0,0,0,3.778-4.83.416.416,0,0,1,.349-.2.443.443,0,0,1,.367.206.421.421,0,0,1,.011.421,25.9,25.9,0,0,0-1.595,4.709c-.2.75-.408,1.523-.647,2.282a41.6,41.6,0,0,1-2,4.841c-.428.926-.87,1.882-1.255,2.824-1.309,3.2-2.6,6.459-3.854,9.61q-.541,1.361-1.082,2.722C55.821,272.8,52.8,281,49.623,290.209A397.361,397.361,0,0,0,35.56,342.037c-2.02,10.178-3.422,18.532-4.412,26.29A199.5,199.5,0,0,0,29.384,394.9c.059,9.756,1.363,17.287,4.1,23.7a36.224,36.224,0,0,0,1.7,3.423l.376.662c.046.083.1.171.166.279l.344.55a19.5,19.5,0,0,1,3.73-3.373c.546-.421,1.018-.784,1.36-1.08l.166-.148,5.6-5.182a7.752,7.752,0,0,1,5.264-2.109,7.478,7.478,0,0,1,3.643.96,16.121,16.121,0,0,1,4.415,3.55,16.7,16.7,0,0,1,2.7,4.373,44.334,44.334,0,0,1,2.559,10.242c.276,1.628.561,3.312.92,4.959l.085.382a11.19,11.19,0,0,0,1.715,4.322,4.4,4.4,0,0,0,3.754,1.826,7.7,7.7,0,0,0,1.236-.107,9.047,9.047,0,0,0,5.563-3.515,21.459,21.459,0,0,0,3.231-5.974l.194-.534a8.475,8.475,0,0,1,3.041-4.157,7.474,7.474,0,0,1,4.333-1.368,7.839,7.839,0,0,1,4.458,1.4,8.738,8.738,0,0,1,3.174,4.129l1.034,2.732a48.388,48.388,0,0,0,4.02,8.557c1.932,3.054,4.076,5.023,6.556,6.018a8.942,8.942,0,0,0,3.347.617c3.145,0,6.407-1.39,9.284-2.617.541-.23,1.052-.448,1.556-.655a3.289,3.289,0,0,1,1.252-.244,4.441,4.441,0,0,1,2.743,1.055,4.947,4.947,0,0,1,1.654,2.4,14.139,14.139,0,0,1,.369,1.715c.649-.063,1.306-.094,1.952-.094a26.2,26.2,0,0,1,11.032,2.726,32.335,32.335,0,0,1,8.68,5.945c2.931,2.856,4.735,5.933,5.218,8.9a7.326,7.326,0,0,1-1.49,6.04A6.569,6.569,0,0,1,149.41,477.511ZM50.161,231.986a50.3,50.3,0,0,1-29.13-9.77,51.732,51.732,0,0,1-15.2-18.244A54.361,54.361,0,0,1,1.8,193.153a57.638,57.638,0,0,1-1.722-11.4A60.344,60.344,0,0,1,.8,168.96a61.165,61.165,0,0,1,3.424-12.444,59.882,59.882,0,0,1,6.053-11.539A57.886,57.886,0,0,1,18.893,134.9,54.934,54.934,0,0,1,36.168,123.99a53.943,53.943,0,0,1,19.866-3.768,55.424,55.424,0,0,1,7.739.547,52.612,52.612,0,0,1,21.673,8.221,41.194,41.194,0,0,1,8.454,7.4,59.124,59.124,0,0,1,6.455,9.2.431.431,0,0,1,.012.447.5.5,0,0,1-.429.248.461.461,0,0,1-.318-.128,54.071,54.071,0,0,0-18.041-10.709,61.366,61.366,0,0,0-20.765-3.743c-.69,0-1.384.013-2.064.04A45.379,45.379,0,0,0,40.6,136.321a47.946,47.946,0,0,0-7.894,4.827,48.7,48.7,0,0,0-6.809,6.223,47.1,47.1,0,0,0-9.319,15.31A44.1,44.1,0,0,0,13.882,180.8a41.558,41.558,0,0,0,5.594,18.213A37.8,37.8,0,0,0,32.707,212.63a33.7,33.7,0,0,0,17.655,4.5c6.642,0,13.36-1.411,19.629-2.936a5.161,5.161,0,0,1,1.215-.152,3.921,3.921,0,0,1,3.6,2.258,4.869,4.869,0,0,1-.615,5.1,26.425,26.425,0,0,1-10.769,8.109A34.431,34.431,0,0,1,50.161,231.986Zm16.123-43.653a3.745,3.745,0,0,1-2.635-1.066,2.754,2.754,0,0,1-.806-2.023,15.146,15.146,0,0,1,1.631-6.587,16.82,16.82,0,0,1,4.182-5.226c-.951-.147-1.734-.239-2.464-.288-1.336-.09-2.7-.135-4.054-.135a72.59,72.59,0,0,0-24.969,4.718l.981.551a.353.353,0,0,1,.262.4.392.392,0,0,1-.4.327.482.482,0,0,1-.066,0l-4.615.231a2.211,2.211,0,0,1-.5.06,1.8,1.8,0,0,1-1.67-1.075,2.018,2.018,0,0,1,.318-2.172,46.015,46.015,0,0,1,12.769-10.4,49.851,49.851,0,0,1,15.535-5.532l1.08-.185a79.012,79.012,0,0,1,12.442-1.1,33.049,33.049,0,0,1,11.863,1.806c3.787,1.487,6.132,3.893,6.968,7.151a5.878,5.878,0,0,1-.961,5.246,7.914,7.914,0,0,1-3.294,2.386,11.329,11.329,0,0,1-4.246.818c-.189,0-.379,0-.565-.014a46.587,46.587,0,0,1-8.616-1.546c-1.1-.268-2.228-.546-3.349-.787a66.257,66.257,0,0,0-1.8,9.928c-.1.739-.194,1.5-.3,2.26A2.563,2.563,0,0,1,66.283,188.333Zm335.348-6.928a24.966,24.966,0,0,1-4.5-.517,4.54,4.54,0,0,1-2.985-2.274,4.893,4.893,0,0,1-.552-3.954l.615-1.847a12.105,12.105,0,0,1,3.133-5.322,36.079,36.079,0,0,1,3.592-3.063c.558-.436,1.136-.886,1.688-1.342a45.76,45.76,0,0,0,9.938-10.794,32.37,32.37,0,0,0,4.7-12.151,28.156,28.156,0,0,0-.941-12.955c-2.87-9.2-10.46-15.379-20.3-16.527a41.921,41.921,0,0,0-4.822-.269,66.267,66.267,0,0,0-11.657,1.167l-3.3.6c-4.593.851-8.359,1.838-11.542,6.069a.58.58,0,0,1-.46.242.5.5,0,0,1-.482-.365c-.706-2.034-.211-4.165,1.47-6.334a20.9,20.9,0,0,1,5.248-4.52,39.979,39.979,0,0,1,9.923-4.338,64.8,64.8,0,0,1,10.648-2.139,42.84,42.84,0,0,1,5.076-.305,39.657,39.657,0,0,1,8.866.987,35.5,35.5,0,0,1,8.223,2.976,32.2,32.2,0,0,1,12.934,12,39.055,39.055,0,0,1,4.011,8.975,41.905,41.905,0,0,1,1.721,9.618,44.484,44.484,0,0,1-3.124,19.227,56.74,56.74,0,0,1-12.2,18.441,38.29,38.29,0,0,1-8.787,7.1A12.454,12.454,0,0,1,401.631,181.405ZM386.407,178.6h0c-.148,0-.3-.007-.447-.022a14.156,14.156,0,0,1-10.191-5.6c-2.58-3.27-4.132-7.573-5.2-10.955l-1.38-4.4a130.615,130.615,0,0,0-7.3-19.281,139.5,139.5,0,0,0-14.241-23.023c-2.771-3.6-5.829-7.056-8.787-10.4-2.779-3.14-5.65-6.385-8.273-9.738a1.556,1.556,0,0,1-.128-1.589,1,1,0,0,1,.907-.615,1.274,1.274,0,0,1,.451.089c7.136,2.709,14.249,7.407,21.14,13.963a113.188,113.188,0,0,1,16.233,19.685,123.339,123.339,0,0,1,7.3,12.682,25.34,25.34,0,0,1,5.6-4.914,41.044,41.044,0,0,1,6.526-3.472l.482-.2c3.119-1.3,7.677-2.84,11.68-2.84,3.648,0,6.1,1.3,7.278,3.868a5.044,5.044,0,0,1-1.141,6.025,7.79,7.79,0,0,1-5.608,1.776c-.852,0-1.716-.055-2.551-.107-.753-.048-1.464-.093-2.149-.1h-.267c-6,0-10.945,1.734-16.176,3.57l-.016.006c-.539.189-1.1.385-1.651.577,1.116,2.433,2.151,4.86,3.078,7.213.468,1.187.9,2.418,1.317,3.608a56.178,56.178,0,0,0,2.539,6.391,40.238,40.238,0,0,0,4.459,6.584c.475.611.965,1.242,1.428,1.859a4.793,4.793,0,0,1,.938,2.833,6.472,6.472,0,0,1-.713,2.96A6.033,6.033,0,0,1,386.407,178.6ZM89.733,127.1a6.017,6.017,0,0,1-2.338-.509c-3.908-1.653-4.343-5.511-4.02-8.457a39.68,39.68,0,0,1,4.513-13.451,119.285,119.285,0,0,1,7.42-12.239A117.826,117.826,0,0,1,112.478,72.4,144.764,144.764,0,0,1,133.3,56.317,189.141,189.141,0,0,1,156.58,43.7a250.57,250.57,0,0,1,24.572-9.641c19.105-6.4,39.07-10.923,58.378-15.294,11.139-2.522,22.656-5.129,33.879-8.068A346.248,346.248,0,0,0,306.664.378,5.821,5.821,0,0,1,308.7,0a5.726,5.726,0,0,1,3.174.993,7.376,7.376,0,0,1,2.288,2.5,6.858,6.858,0,0,1,.169,6.863,33.324,33.324,0,0,0-4.567,13.063l25.175-6a7.163,7.163,0,0,1,1.658-.2,7.064,7.064,0,0,1,5.576,2.749,6.544,6.544,0,0,1,1.123,5.8l-3.885,14.405a62.114,62.114,0,0,1,15.668-3.025c.139-.009.277-.014.413-.014a5.625,5.625,0,0,1,4.437,2.125,7.822,7.822,0,0,1,1.57,6.314,150.3,150.3,0,0,1-6.733,24.168L352.618,75.4c-2.507,6.529-5.465,13.215-11.563,16.927a4.175,4.175,0,0,1-2.2.622,4.613,4.613,0,0,1-4.571-4.507c-.024-5.633,2.419-10.788,4.783-15.773,1.05-2.214,2.135-4.5,2.992-6.808a143.468,143.468,0,0,0,4.351-13.873,47.553,47.553,0,0,0-13.371,6.25l-.627.425a5.713,5.713,0,0,1-3.275,1.047,6.885,6.885,0,0,1-5.257-2.728,6.8,6.8,0,0,1-1.434-5.755l.048-.19,4.744-17.788L304.671,38.7a7.768,7.768,0,0,1-1.819.224,6.409,6.409,0,0,1-4.681-1.96,8.065,8.065,0,0,1-2.163-4.862,45.471,45.471,0,0,1,.822-14.067c-15.572,4.9-31.689,8.7-45.4,11.763l-2.29.51c-3.111.691-6.262,1.382-9.309,2.049-15.029,3.295-30.567,6.7-45.56,11.03-8.075,2.331-15.336,4.733-22.2,7.341a202.624,202.624,0,0,0-21.413,9.513,172.669,172.669,0,0,0-37.343,25.65,114.361,114.361,0,0,0-15.191,16.779,105.072,105.072,0,0,0-5.867,8.873l-1.443,2.488a19.733,19.733,0,0,0-1.778,3.732l-.2.647a6.822,6.822,0,0,0-.391,3.491,4.97,4.97,0,0,0,1.548,2.027,4.325,4.325,0,0,0,2.517,1.111,1.93,1.93,0,0,0,.642-.106.237.237,0,0,1,.078-.014.2.2,0,0,1,.179.123.27.27,0,0,1-.031.284A4.641,4.641,0,0,1,89.733,127.1Z" transform="translate(8 24)"/></svg>