<svg xmlns="http://www.w3.org/2000/svg" width="489" height="567" viewBox="0 0 489 567"><g transform="translate(15)"><path d="M252.794,0c44.772,0,98.489,21.7,103.057,22.139l.123.007q3.6,0,28.168,21.46L366.4,78.2l1.435,1.371c6.869,6.585,12.732,12.588,17.361,17.319,37.792,38.634,44.584,190.324,35.678,243.223s-25.4,104.662-102.2,104.662-162.239-46.177-175.4-60.557q-13.162-14.38-29.568-13.779-.674-.851-1.338-1.7l-1.609-.228q-22.706-3.288-32.538-8.851c-12.8-7.243-26.875-45.323-26.875-53.711,0-8.3-21.013-68.717-21.433-75.11l-.006-.177c0-5.344-27.451-29.912-27.451-37.714s-5.533-7.329,0-34.822l1.608-8.077C9.955,120.778,21.48,72.306,65.422,51.244,113.71,28.1,207.57,0,252.794,0Z" transform="translate(-7.992 58.706)" fill="#d08b5b"/><path d="M113.71,370.437q-.674-.851-1.337-1.7l-1.609-.228q-22.706-3.289-32.538-8.852c-12.8-7.243-26.876-45.322-26.876-53.711,0-8.3-21.012-68.717-21.433-75.109l-.006-.177c0-5.344-27.452-29.912-27.452-37.715s-5.533-7.329,0-34.822l1.608-8.077c5.888-29.273,17.412-77.745,61.355-98.807C113.71,28.1,207.57,0,252.794,0c44.771,0,98.489,21.7,103.056,22.139l.123.006q3.6,0,28.167,21.46l-4.16,8.114c-54.082,1.58-143.016,6.4-181.838,21.138C140.419,94.764,125.67,239.313,125.67,239.313a247.443,247.443,0,0,0-40.336,25.143c-20.167,15.592-10.21,16.105-10.21,16.105s-.868,33.413,5.347,46.668,43.024,15.6,43.024,15.6l6.234,20.877-.862,9.676A33.484,33.484,0,0,0,113.71,370.437Z" transform="translate(-8 59)" fill="#9ddadb"/><path d="M314.775,466.052a107.441,107.441,0,0,1-36.652-6.453A109.31,109.31,0,0,1,244.1,439.634a38.785,38.785,0,0,0-3.673-3.343c-3.024-2.565-6.784-5.755-6.51-7.261a.962.962,0,0,1,.713-.706c.993,1.05,2.068,2.132,3.29,3.31a.639.639,0,0,1-.04-.37l-1.054-.954c-2.141-1.981-3.124-3.248-2.92-3.767.072-.183.291-.275.654-.275a3.753,3.753,0,0,1,.641.066c.076.088.153.166.235.25.057.058.115.117.174.18a14.334,14.334,0,0,1,1.453.978l.188.15-.059-.06c-1.176-1.254-1.831-2.3-1.671-2.674.045-.1.151-.156.317-.156a3.229,3.229,0,0,1,1.179.369l.334.162c1.075,1.132,2.194,2.248,3.42,3.41a.66.66,0,0,1,.07-.4l-1.081-1.045c-.966-.946-.913-1.03-.5-1.679l.006-.009c.036-.057.076-.119.117-.187-.539-.755-.753-1.293-.619-1.553a.388.388,0,0,1,.38-.177,3.37,3.37,0,0,1,2.478,1.68,2.008,2.008,0,0,1,.46-.054c1.452,0,2.8,1.566,3.983,2.948a7.1,7.1,0,0,0,2.167,2.006,111.981,111.981,0,0,0,30.806,16.943,96.657,96.657,0,0,0,32.333,5.652,92.851,92.851,0,0,0,36.88-7.639A105.016,105.016,0,0,0,381.393,422.5a132.053,132.053,0,0,0,19.187-24.94,169.334,169.334,0,0,0,14.838-32.333c8.62-25.218,12.81-54.445,12.454-86.869l-.026-3.1c-.142-14.129-.563-26.612-1.288-38.163-.86-13.7-2.139-26.125-3.911-37.976a313.468,313.468,0,0,0-7.746-37.076,238.876,238.876,0,0,0-12.8-35.46,132.358,132.358,0,0,0-6.829-12.88c-1.755-3.165-3.629-6.233-5.569-9.12a82.879,82.879,0,0,1-16.491-3.05c-2.021-.51-3.833-1.034-5.539-1.6-15.394.84-30.867,1.737-45.831,2.606h-.016c-11.177.649-22.734,1.319-34.269,1.966l-8.42.525c-10.532.677-22.72,1.618-34.091,4.225-12.376,2.838-22.445,7.325-30.785,13.717a36.737,36.737,0,0,0-6.38,5.786,47.546,47.546,0,0,0-4.922,6.79,123.725,123.725,0,0,0-7.4,15.219,141.652,141.652,0,0,1-6.233,13.193,44.553,44.553,0,0,1-8.7,11.342,66.155,66.155,0,0,0-11.814,9.944,42.677,42.677,0,0,0-6.981,10.177c-3.431,7.012-4.831,14.767-6.451,23.747v.007c-.387,2.146-.788,4.366-1.234,6.684a95.36,95.36,0,0,0,1.656,13.52c1.189,7.05,2.417,14.337,1.359,20.487a16.988,16.988,0,0,1-3.588,8.229,16.029,16.029,0,0,1-3.62,3.184,22.283,22.283,0,0,1-5.127,2.4c1.286,1.834,1.379,2.56,1.23,2.847a.4.4,0,0,1-.387.2,3.668,3.668,0,0,1-2.642-2.183l-.015,0a.448.448,0,0,1-.095.017c1.13,2.1,1.191,2.836,1.044,3.083a.255.255,0,0,1-.236.123c-.7,0-2.47-1.772-2.719-2.916a1.811,1.811,0,0,1-.75-.5c1.062,1.717,1.131,2.353,1,2.585a.3.3,0,0,1-.281.142,3.984,3.984,0,0,1-2.173-1.5c-.189-.26-.264-.472-.218-.614a19.831,19.831,0,0,0-8.809-7.369,27.506,27.506,0,0,0-11.025-2.2,30.4,30.4,0,0,0-8.106,1.09.424.424,0,0,1-.423.3.578.578,0,0,1-.336-.109c-8.665,1.878-15.469,7.566-19.676,16.451a46.556,46.556,0,0,0-3.9,13.429,59.348,59.348,0,0,0-.21,14.6c1.029,9.611,4.251,18.442,9.073,24.869,5.37,7.157,12.39,10.941,20.3,10.941a27.313,27.313,0,0,0,5.218-.52,3.722,3.722,0,0,1,.729-.084,1.131,1.131,0,0,1,1.012.44.467.467,0,0,0,.229.184c-.229-.6-.256-1.037-.081-1.292a.625.625,0,0,1,.545-.241,1.647,1.647,0,0,1,1.053.42.3.3,0,0,1,.1.2l.156-.007c.038,0,.06-.007.074-.009l.023,0a.167.167,0,0,1,.051.014l.017.006c-.152-.844-.137-1.382.043-1.6a.294.294,0,0,1,.236-.108c.891,0,3.078,3.076,3.373,3.969.037.113.04.182.008.206a1.267,1.267,0,0,1,.471-.159l-.169-.462c-.307-.819-.488-1.2-.6-1.427a1.24,1.24,0,0,1-.148-.814c0-.079,0-.17,0-.277a7.433,7.433,0,0,0-.47-1c-.136-.242-.136-.242-.068-.7l.007-.046.017-.118a1.377,1.377,0,0,1,.825-.337c.961,0,1.53,1.512,1.987,2.727.255.679.476,1.265.7,1.381a2.088,2.088,0,0,1-.448-2.082.7.7,0,0,1,.637-.407,1.188,1.188,0,0,1,.722.3A193.078,193.078,0,0,0,147,371.786a140.965,140.965,0,0,0,19.689,23.057c1.331,1.049,3.095,2.417,4.93,3.7,3.308,2.881,7.563,5.227,11.678,7.5a66.894,66.894,0,0,1,10.063,6.3.588.588,0,0,1-.1.281l.134.121.136.129,2.04.98a10.951,10.951,0,0,1,1.618,1.71,11.246,11.246,0,0,1,1.341,1.93.953.953,0,0,1-.079.8.484.484,0,0,1-.4.171,1.381,1.381,0,0,1-.551-.141c-.231-.079-.464-.168-.69-.254l-.006,0-.354-.134.017.025a.222.222,0,0,0,.034.044c.1.156.566,1.245.375,1.6a.215.215,0,0,1-.205.115.569.569,0,0,1-.174-.032l-.106-.04c-.366-.134-.732-.28-1.086-.421l-.375-.149c.445.553.865,1.154,1.236,1.683l.01.014c.1.149.205.294.3.433a3.4,3.4,0,0,1,.911,1.79c-.019.331-.181.5-.482.5a.976.976,0,0,1-.129-.009c-.56-.183-1.123-.379-1.721-.6l.162.31c.313.615.651,1.405.486,1.674a.21.21,0,0,1-.194.095.885.885,0,0,1-.334-.088c-.793-.246-1.627-.547-2.55-.921a.226.226,0,0,1-.216.136.681.681,0,0,1-.274-.076,51.533,51.533,0,0,1-7.719-3.48c-1.308-.952-2.645-1.909-3.939-2.834-.851-.609-1.729-1.237-2.6-1.865a50.552,50.552,0,0,1-5.92-4.14,128.932,128.932,0,0,1-32.5-30.1c-4.188,3.627-9.884,5.466-16.929,5.466-6.655,0-14.545-1.628-23.452-4.84A158.3,158.3,0,0,1,77.232,372.2a41.877,41.877,0,0,1-10.3-7.993,44.442,44.442,0,0,1-7.12-10.239,58.1,58.1,0,0,1-4.413-11.9,82.937,82.937,0,0,1-2.182-12.967,50.181,50.181,0,0,0-3.16-11.657c-1.428-3.612-3.156-7.055-4.985-10.7-3.209-6.393-6.845-13.64-9.489-23.331-3.029-11.1-4.312-23.79-3.924-38.785a.312.312,0,0,1-.1.01,10.208,10.208,0,0,1-2.049-.85,10.226,10.226,0,0,1-1.891-1.16l-.73-1.01a6.2,6.2,0,0,1-.979-.651l-.134.174c-.1.116-.163.175-.2.175a.026.026,0,0,1-.021-.011c-.038-.05.023-.267.067-.426.018-.065.034-.121.039-.152l-1.268-1.725c-1.695-2.314-3.477-4.78-5.2-7.164l0-.006c-1.34-1.854-2.607-3.606-3.787-5.224l-.085.149c-.057.108-.091.188-.067.226a107.315,107.315,0,0,1-8.81-14.93,58.988,58.988,0,0,1-5.267-16.1A46.051,46.051,0,0,1,.041,183.5a67.184,67.184,0,0,1,1.645-12.007c3.6-13.09,11.4-34.97,22.51-57.118A253.37,253.37,0,0,1,42.734,82.828C50.068,72.354,57.55,63.955,64.975,57.864a56.986,56.986,0,0,1,12.271-9.142,180.7,180.7,0,0,1,19.382-9.679,444.077,444.077,0,0,1,53.8-18.8A598.874,598.874,0,0,1,213.762,5.781c10.9-1.849,21.433-3.277,31.307-4.246C255.461.517,265.206,0,274.036,0a175.628,175.628,0,0,1,20.916,1.145l2.075.269a122.848,122.848,0,0,1,16.329,3.2c21.013,4.907,37.244,11.594,49.619,20.441,2.416,1.692,5.83,3.572,9.783,5.749C380.4,35.01,389.9,40.244,396.29,46.56a31.728,31.728,0,0,1,4.145,4.951,19.7,19.7,0,0,1,2.56,5.391,15.3,15.3,0,0,1,.53,5.848,18.181,18.181,0,0,1-1.945,6.323,37.492,37.492,0,0,1,4.032,12.634,27.1,27.1,0,0,1-1.155,12.546,29.6,29.6,0,0,1-2.219,7.65c7.663,11.308,14.679,24.955,21.449,41.72a479.753,479.753,0,0,1,11.825,53.637,410.314,410.314,0,0,1,5.094,54.173,473.953,473.953,0,0,1-.368,52.9c-.628,9.309-1.595,18.337-2.873,26.834a258.676,258.676,0,0,1-5.315,26.3,203.884,203.884,0,0,1-8.242,25.166,165.151,165.151,0,0,1-11.656,23.441,141.745,141.745,0,0,1-15.556,21.122,133.737,133.737,0,0,1-19.943,18.21,96.277,96.277,0,0,1-28.922,15.366A104.36,104.36,0,0,1,314.775,466.052Zm-76.651-37.291h0l.353.44a2.979,2.979,0,0,0,.681.643.554.554,0,0,1-.011-.22c-.2-.156-.414-.327-.623-.507ZM45.234,173.139c.973,13.107.27,25.316-.41,37.123-.41,7.13-.835,14.5-.859,21.815a147.723,147.723,0,0,0,1.491,22.409,120.849,120.849,0,0,0,6.161,24.078,151.1,151.1,0,0,0,13.154,26.822c4.82,8.59,6.126,16.5,7.278,23.484a84.73,84.73,0,0,0,2.013,9.831,27.842,27.842,0,0,0,4.2,8.852c4.464,6.158,12.2,10.9,24.355,14.94l1.085.415a84.7,84.7,0,0,0,9.894,3.141,42.264,42.264,0,0,0,9.993,1.32,27.44,27.44,0,0,0,5.76-.585l-.733-1.192c-.491-.807-.719-1.288-.6-1.681.076-.256.3-.468.716-.667-.019-.039-.043-.078-.068-.12l-.042-.07c-.914-1.725-1.768-3.421-2.541-5.04-.265.089-.527.157-.8.229l-.2.051a.749.749,0,0,1,.106.651.633.633,0,0,1-.475.309,17.471,17.471,0,0,1-5.682.951c-.363,0-.733-.011-1.1-.034l-.5-.038a22.817,22.817,0,0,1-5.741-1.08l-.062-.01c-.46-.075-.936-.153-1.4-.25a33.91,33.91,0,0,1-13.019-6.379,44.359,44.359,0,0,1-12.875-11.138,54.131,54.131,0,0,1-8.3-15.026,66.663,66.663,0,0,1-2.817-34.691,52.712,52.712,0,0,1,11.767-25.295A40.3,40.3,0,0,1,95.7,257.6a41.144,41.144,0,0,1,13.955-4.654,238.734,238.734,0,0,1,4.451-38.644,351.252,351.252,0,0,1,11.549-44.256,319.028,319.028,0,0,1,18.05-43.858,201.7,201.7,0,0,1,23.954-37.448c13.017-15.99,36.105-29.407,66.77-38.8A294.859,294.859,0,0,1,278.8,40.18a317.876,317.876,0,0,1,44.916-3.263c8.742,0,17.2.4,25.145,1.183.906.3,1.805.6,2.673.894,5.606.5,11.163,2.218,16.536,3.881,3.686,1.141,7.5,2.32,11.324,3.111a66.449,66.449,0,0,0-10.764-6.495,116.518,116.518,0,0,0-11.621-4.842,125.079,125.079,0,0,0-25.034-11.516,223.04,223.04,0,0,0-26.307-7.04,50.792,50.792,0,0,0-11.021-1.461c-6.84-.588-13.918-.886-21.038-.886a323.32,323.32,0,0,0-58.991,5.86c-16.837,3.108-34.657,7.375-57.779,13.836l-3.088.888c-2.5.714-5.034,1.425-7.482,2.113-23.1,6.49-46.981,13.2-66.392,27.229A114.738,114.738,0,0,0,69.264,72.91a129.893,129.893,0,0,0-9.4,10.32A168.4,168.4,0,0,0,44.13,106.347c-4.231,7.373-8.366,15.6-12.641,25.141-4,8.924-7.631,17.907-10.723,25.626a63.911,63.911,0,0,0-5.613,19.22,62.5,62.5,0,0,0,6.592,36.8,60,60,0,0,0,11.062,14.958,286.467,286.467,0,0,1,9.955-51.131,12.443,12.443,0,0,0,.583-1.978c.256-1.139.362-1.61,1.889-1.845ZM153.782,321.975c-.634,0-2.1-1.279-3.226-2.352a1.345,1.345,0,0,1-.1,1.005.355.355,0,0,1-.282.12c-.531,0-1.545-.773-3.1-2.363-.518-.53-1.007-1.058-1.4-1.483a7.068,7.068,0,0,0-.865-.879,98.585,98.585,0,0,0-18.775-11.482c-7.433-3.452-14.625-5.543-20.8-6.048l-.458-.052c-1.671-.215-2.6-.6-2.908-1.206a1.5,1.5,0,0,1,.166-1.432,4.47,4.47,0,0,1-1.674-.693c-.391-.3-.448-.58-.427-.759.047-.405.533-.7,1.153-.7h.067c-.739-.486-1.066-1.023-.92-1.509a1.386,1.386,0,0,1,1.349-.816,1.508,1.508,0,0,1,.59.115,1.156,1.156,0,0,1-.027-1.034.912.912,0,0,1,.8-.287,6.018,6.018,0,0,1,1.057.129l.142.027a4.548,4.548,0,0,0,.706.1.26.26,0,0,0,.185-.047c.6-.928,1.115-1.379,1.57-1.379a.858.858,0,0,1,.5.185l.078.056,0,0a.487.487,0,0,0,.235.125c.058,0,.1-.045.144-.141a4.108,4.108,0,0,1,1.757-.621.9.9,0,0,1,.5.136l.068.043a.425.425,0,0,0,.223.093.354.354,0,0,0,.193-.071c.762-.062,1.544-.094,2.324-.094a36.66,36.66,0,0,1,12.757,2.487,59.227,59.227,0,0,1,12.207,6.4,82.042,82.042,0,0,1,10.792,8.708,82.933,82.933,0,0,1,8.511,9.423.543.543,0,0,1-.407.166c-.849,0-2.212-1.453-2.725-2l-.01-.011-.118-.124a.457.457,0,0,1-.17.111l.274.388c.852,1.223,1.222,1.963,1.1,2.2a.165.165,0,0,1-.161.081c-.486,0-1.846-1.019-2.957-1.972a15.427,15.427,0,0,1-2.657-2.715.642.642,0,0,1-.31.09.511.511,0,0,1-.1-.01c.106.1.249.237.415.391l0,0c.818.758,2.186,2.026,2.461,2.975l.509.424c2.324,1.99,3.531,3.848,3.317,4.427a.259.259,0,0,1-.272.166c-.676,0-2.206-1.206-4.092-3.227a.869.869,0,0,1,.088.72l.188.125c1.516,1.059,2.958,3.275,2.754,3.921A.231.231,0,0,1,153.782,321.975ZM96.615,165.834a4.79,4.79,0,0,1-2.429-.63l-3.608-2.424c-5.857-3.922-11.693-7.757-18.688-11.562-2.2-1.093-3.658-2.937-3.617-4.587a3.207,3.207,0,0,1,2.263-2.8,12.144,12.144,0,0,1,4.118-.6c7.5,0,19.174,4.287,24.6,10.67,2.338,2.75,3.288,5.593,2.823,8.451A6.089,6.089,0,0,1,96.615,165.834Zm30.44-37.461a13.878,13.878,0,0,1-8.244-2.85l-3.277-2.132c-6.845-4.48-12.019-8.046-15.816-10.9-5.182-3.894-7.657-6.376-7.359-7.377.1-.344.536-.519,1.288-.519,2.928,0,10.848,2.634,23.54,7.828,1.163.5,2.388.941,3.685,1.41,4.286,1.548,8.717,3.148,10.839,6.852,1.115,2.284,1.257,4.208.41,5.564S129.466,128.372,127.055,128.372Zm26.421-38.119A9.394,9.394,0,0,1,148.7,88.9a205.528,205.528,0,0,0-18.454-10.327c-3.135-1.615-6.376-3.284-9.448-4.98a1.509,1.509,0,0,1,.171-1.358c.395-.513,1.268-.772,2.6-.772,4.361,0,12.624,2.745,17.063,4.22.571.19,1.11.369,1.549.511l.783.3c.494.184,1.005.371,1.5.551l.031.011c4.672,1.7,9.5,3.464,12.191,7.344,1,1.7,1.205,3.148.6,4.2S155.294,90.253,153.476,90.253Zm32.29-31.3c-5.634,0-10.273-3.434-14.76-6.755-1.724-1.276-3.506-2.595-5.308-3.688-1.753-1.914-2.467-3.28-2.124-4.059.227-.516.919-.777,2.057-.777,5.25,0,18.13,5.4,20.712,7.266l.113.086a4.663,4.663,0,0,1,1.949,4.265,4.4,4.4,0,0,1-2.372,3.659Zm35.572-17.192a10.7,10.7,0,0,1-4.424-1.154,27.93,27.93,0,0,1-5.99-3.988,32.1,32.1,0,0,1-4.679-3.9c-.864-.942-1.223-1.665-1.067-2.15s.8-.72,1.921-.72c3.655,0,11.913,2.7,16.066,5.262,1.565,1.38,2.223,3.207,1.677,4.653C224.365,41.033,223.088,41.759,221.339,41.759Z" transform="translate(-15 51)"/></g></svg>