<svg xmlns="http://www.w3.org/2000/svg" width="474" height="567" viewBox="0 0 474 567"><path d="M115.019.837c151.57-7.454,162.156,36.6,182.97,64.685,10.329,13.938,37,34.579,41.421,82.245,3.071,33.088-16.478,71.225-16.478,100.791,0,15.092,18.478,47.492,9.876,69.489C313.661,367.005,273.121,421.34,221.461,421.34s-147.022-28.472-204.1-110.2C-1.341,284.366-36.55,8.29,115.019.837Z" transform="translate(80.376 81.836)" fill="#d08b5b"/><path d="M413.009,275.345c-3.31-3.65-5.88-6.65-6.74-11.67a46.706,46.706,0,0,1-.59-6.4c13.29-18.58,26.212-62.467,26.21-86.471,0-33.865-12.49-66.449-32.99-93.4C358.939,24.914,292.419-2,227.319.115,164.979,2.124,98.671,25.1,59.783,74.226-69.241,237.2,39.047,415.217,118.359,452.254c6.9,3.224,29.2,2.1,26.1-4.781-8.924-19.779-15.955-56.208-17.6-64.409,2.54,1.711,5.1,3.381,7.67,5.111,4.55,3.049,10.65,6.539,16.37,5.529a.619.619,0,0,0,.45-.589c.26-5.371-3.58-10.891-6.96-14.721-4.69-5.32-9.15-10.77-14.2-15.76-2.15-2.13-4.33-4.24-6.51-6.35a192.289,192.289,0,0,1,2.84-38.109c3.93-22.07,10.71-43.57,18.5-64.73a200.184,200.184,0,0,0,18.68-15.371c14.09-13.29,24.84-29.549,34.06-46.649.11-.051.23-.111.34-.16q26.805-12.467,53.17-25.84c9.07-4.591,18.08-9.291,27.09-13.99,4.9-2.561,9.95-4.891,14.96-7.3a168.556,168.556,0,0,1-5.38,20.45c-1.82,5.511,3.74,9.58,8.66,8.67a141.977,141.977,0,0,0,47.51-18.149,148.268,148.268,0,0,0,20.46-14.961,169.918,169.918,0,0,0,21.92,26.051q7.9,7.755,16.5,14.75c-2.59,17.83-4.81,35.7-7.62,53.49-1.47,9.3-3.24,18.6-4.35,27.949-1.21,10.19,2.16,17.45,8.87,24.9,9.38,10.411,9.37,25.47,5.78,38.4-.44,1.6-.99,3.16-1.56,4.709-.12.32-.47,1.19-.6,1.531a.071.071,0,0,1-.01.039c0,.01-.01.021-.01.03s-.01.01-.02.021v.029l-.01.01c-.42.98-.87,1.94-1.32,2.9-2.05,4.33-4.34,8.561-6.72,12.721a258.23,258.23,0,0,1-43.32,55.909c-7.84,7.72-15.99,14.9-25.2,20.781-1.94,1.23-3.92,2.419-5.95,3.509-1.09.59-2.21,1.141-3.33,1.7a13.256,13.256,0,0,1-1.96.89,48.448,48.448,0,0,1-5.55,1.82c-1.01.26-2.03.481-3.06.67a.354.354,0,0,1-.06.01c-.01,0-.02.01-.03,0a.075.075,0,0,1-.05.01c-.38.03-1.06.09-1.19.09a168.346,168.346,0,0,1-42.5-5.449,133.636,133.636,0,0,1-22.13-7.52,97.971,97.971,0,0,1-10.49-5.551c-1.51-.929-2.94-2.05-4.53-2.859-2.38-1.221-4.71-1.09-7.28-1.2-3.92-.161-6.7,3.94-5.74,7.54a15.168,15.168,0,0,0,6.79,9.59,85.063,85.063,0,0,0,9.48,5.589,145.561,145.561,0,0,0,22.21,9.05,188.213,188.213,0,0,0,44.11,8.351c10.85.74,20.25-.711,30.13-5.281,10.43-4.83,19.78-12.04,28.43-19.52,19.37-16.74,36.22-37.05,50.51-58.24,13.43-19.92,23.85-41.61,20.42-66.34a47.271,47.271,0,0,0-12.12-25.879" transform="translate(3 58)"/></svg>