<svg xmlns="http://www.w3.org/2000/svg" width="605.072" height="572.8" viewBox="0 0 605.072 572.8"><g transform="translate(42.001)"><path d="M345.142,90.137C346.232,80.012,334.379,53,334.665,58.48c-19-29.3-56.085-40.821-88.08-50.493C178.664-14.435,125.626,12.644,77.9,60.637,49.73,86.954,22.922,116.351,8.779,152.782c-27.823,69.5,13.882,148.744,77.3,181.944,5.118,2.77,10.695,5.4,15.569,8.746,26.218,15.147,57.005,20.387,86.22,26.98,54.656,12.493,123.3,6.539,155.509-45.5,21.847-36.93,16.043-81.7,14.333-122.683C355.146,166.363,350.637,125.783,345.142,90.137Z" transform="translate(49 119)" fill="#d08b5b"/><path d="M34.288,512.8a37.047,37.047,0,0,1-20.506-5.951,31.574,31.574,0,0,1-6.966-6.241A30.053,30.053,0,0,1,2.138,492.8a28.7,28.7,0,0,1-1.2-18.174,38.15,38.15,0,0,1,8.447-15.266,103.409,103.409,0,0,1,12.843-12.073l1.75-1.435,1.1-.9.208-.169c4.086-3.328,8.31-6.77,12.085-10.5A56.342,56.342,0,0,0,47.221,421.7a64.6,64.6,0,0,0,6.388-17.076,103.113,103.113,0,0,0,2.352-18.134c.82-17.053-1.138-34.287-3.032-50.953-1.064-9.366-2.164-19.049-2.758-28.587-.85-13.681-1.034-27.5-.546-41.07a410.431,410.431,0,0,1,3.526-40.921,322.9,322.9,0,0,1,20.2-77.194A255,255,0,0,1,114,79.3a211.875,211.875,0,0,1,15.974-17.005,127.132,127.132,0,0,1,14.019-15.638A158.494,158.494,0,0,1,171.02,26.443a181.843,181.843,0,0,1,30.87-14.6A197.066,197.066,0,0,1,268.8,0c3.607,0,7.237.106,10.789.314a199.17,199.17,0,0,1,74.317,19.171,131.824,131.824,0,0,1,21.045,12.382c4.561,2.128,8.93,4.4,12.986,6.752,20.545,11.9,37.06,30.09,47.76,52.6a139.274,139.274,0,0,1,11.122,32.863l.357,1.871c.153.768.323,1.556.5,2.389a57.36,57.36,0,0,1,1.368,8.338,14.5,14.5,0,0,1-1.331,7.831,10.386,10.386,0,0,1-8.874,5.5c-.227,0-.453-.009-.676-.027.251,1.018.523,2.053.785,3.054l0,.008c.583,2.226,1.186,4.525,1.613,6.8l1.688,9c.334,1.788.59,3.175.832,4.5,1.9,10.421,3.276,18.962,4.33,26.879,2.545,19.021,4.826,37.993,6.78,56.391,1.262,11.85,2.558,24.695,4.081,40.424l.779,8.086c1.215,12.624,2.432,27.317,1.48,41.94a109.838,109.838,0,0,1-5.99,29.862,88.8,88.8,0,0,1-14.35,25.808,35.614,35.614,0,0,1,1.723,6.264l0,.008c.233,1.094.473,2.226.767,3.394,1.352,5.367,3.161,10.6,4.586,14.559l.2.473.037.088c.714,1.669,1.453,3.394,2.173,5.095l2.1,5,1.64,3.279a68.277,68.277,0,0,1,4.586,10.878,27.931,27.931,0,0,1,9.114,7.442,18.661,18.661,0,0,1,4.021,10.941,23.115,23.115,0,0,1-2.6,11.2,20.536,20.536,0,0,1-7.8,8.4,16.641,16.641,0,0,1-8.474,2.3,26.9,26.9,0,0,1-11.244-2.9,31.625,31.625,0,0,1-8.835,1.294,26.8,26.8,0,0,1-8.034-1.2,28.514,28.514,0,0,1-7.14,4.73,27.938,27.938,0,0,1-8.494,2.41,36.424,36.424,0,0,1-4.282.251,44.755,44.755,0,0,1-11.036-1.471,82.768,82.768,0,0,1-10.653-3.575l-.579-.234c-.227-.088-.471-.189-.77-.319a39.787,39.787,0,0,1-25.861-10.94,32.449,32.449,0,0,1-5.659-7.43,37.031,37.031,0,0,1-4.639-16.306,32.545,32.545,0,0,1,.722-8.349,29.8,29.8,0,0,1,2.957-7.895c-1.033.044-2.321.1-3.55.13-2.962.085-6.057.127-9.2.127-13.216,0-26.621-.766-37.992-1.515l-3.7-.251c-5.658-.408-11.562-1.062-16.411-3.075a16.015,16.015,0,0,1-6.344-4.409,11.984,11.984,0,0,1-2.664-7.558,2.332,2.332,0,0,1,.682-1.694,2.569,2.569,0,0,1,1.824-.783,2.331,2.331,0,0,1,.634.088c2.052.579,4.129,1.289,6.137,1.976l.006,0a66.724,66.724,0,0,0,11.276,3.131,174.405,174.405,0,0,0,18.432,1.513c1.764.082,3.587.167,5.388.267l2.272.127c6.363.348,13.215.67,20.2.67a141.12,141.12,0,0,0,27.908-2.427,144.855,144.855,0,0,0,34.61-11.931,96.016,96.016,0,0,0,14.622-8.885,78.645,78.645,0,0,0,12.558-11.594,64.124,64.124,0,0,0,9.934-15.679,84.845,84.845,0,0,0,5.6-17.631,125.789,125.789,0,0,0,2.332-18.584c.319-5.653.363-11.717.135-18.537-.608-17.972-2.175-36.227-3.69-53.88V269.7c-.925-10.777-1.882-21.922-2.609-32.881l-.869-12.988c-.8-12.1-1.384-22.261-1.642-32.512-.157-6.216-.11-12.54-.064-18.657.012-1.569.025-3.348.034-5.093.007-1.325.006-2.705,0-3.923v-.012c0-2.6,0-5.3.057-7.936.037-1.675.2-3.344.351-4.958.047-.5.1-1.058.149-1.6a8.406,8.406,0,0,1-2.44-1.949,8.17,8.17,0,0,1-1.34-2.1c-3.548-1.038-5.316-2.346-7.879-5.83a62.089,62.089,0,0,0-6.82-7.73,86.887,86.887,0,0,0-17.621-12.9,147.326,147.326,0,0,0-20.49-9.6c-6.312-2.425-13.35-4.733-21.518-7.054-13.911-3.947-28.393-6.739-42.4-9.438-8.345-1.608-16.974-3.272-25.392-5.162-6.07,8.464-12.688,16.94-19.67,25.191a429.074,429.074,0,0,1-34.394,36.014c-11.749,10.98-24.56,21.786-38.077,32.116-5.824,4.458-11.165,8.412-16.329,12.089-7.769,11.846-14.991,22.666-22.077,33.079l-3.2,4.693-.05.09c-.434.661-.854,1.328-1.281,2.01a44.663,44.663,0,0,1-2.949,4.12c-.685,1-1.392,2.02-2.1,3.029a16.929,16.929,0,0,1,3.57,2.461,4.345,4.345,0,0,1,1.361,3.358,5.556,5.556,0,0,1-1.361,3.382,6.111,6.111,0,0,1-4.839,2.275c-3.046,0-6.41-1.854-9.663-3.648a37.462,37.462,0,0,0-5.358-2.618,15.571,15.571,0,0,0-4.74,2.495,26.479,26.479,0,0,0-4.17,3.971,41.178,41.178,0,0,0-6,9.473,50.933,50.933,0,0,0-4.036,14.021,45.1,45.1,0,0,0,.276,14.56,33.742,33.742,0,0,0,4.563,11.823,28.445,28.445,0,0,0,8.847,8.868l0,0c.264.162.537.329.806.476.006.012.008.017.011.017s0,0,.009-.007c.237.152.5.3.77.451a26.787,26.787,0,0,0,11.169,3.289c.942.067,1.919.086,2.864.1a39.868,39.868,0,0,1,3.987.207,17.225,17.225,0,0,1,3.9,1.069,26.353,26.353,0,0,0,2.533.821,4.282,4.282,0,0,1,2.831,2.695,3.683,3.683,0,0,1-.341,3.434l-.082.118c-.733,1.053-1.424,2.047-2.168,2.942a85.425,85.425,0,0,1,6.721,9.4,125.122,125.122,0,0,1,7.33,13.481c1.969,2.589,3.883,5.261,5.85,8.169a177.543,177.543,0,0,1,14.02,24.894,173,173,0,0,1,9.79,26.835c6.214,22.764,7.349,41.452,3.47,57.131a50.754,50.754,0,0,1-4.661,12.085,42.351,42.351,0,0,1-7.5,10.021,35.318,35.318,0,0,1-10.135,6.993,34.451,34.451,0,0,1-12.564,3c-.584.029-1.177.043-1.763.043a35.264,35.264,0,0,1-9.333-1.25,49.066,49.066,0,0,1-12.658,5.427,57.39,57.39,0,0,1-13.291,2.048c-.462.015-.929.023-1.388.023a37.908,37.908,0,0,1-9.9-1.259,26.661,26.661,0,0,1-8.956-4.2,61.709,61.709,0,0,1-20.4,4.974c-.64.038-1.293.058-1.941.058a34.4,34.4,0,0,1-9.667-1.4,32.166,32.166,0,0,1-8.741-4.013A66.114,66.114,0,0,1,49.9,509.759,42.078,42.078,0,0,1,34.288,512.8ZM604.335,350.427a.791.791,0,0,1-.463-.147l-.081-.07-.871-.872a.891.891,0,0,1-.219-.358,1.613,1.613,0,0,1-.045-.358c0-.032,0-.062-.005-.092a.489.489,0,0,1,.145-.351.53.53,0,0,1,.375-.169,1.651,1.651,0,0,1,.54.09,1.031,1.031,0,0,1,.3.209l.841.841a.75.75,0,0,1,0,1.06A.68.68,0,0,1,604.335,350.427ZM151,288.118a6.171,6.171,0,0,1-4.86-2.1c-.836-1.005-1.611-2.1-2.431-3.258-1.954-2.762-3.974-5.617-6.88-7.182a10.755,10.755,0,0,0-5-1.321,6.749,6.749,0,0,0-4.12,1.267,6.333,6.333,0,0,0-2.342,4.1.685.685,0,0,1-.708.606.944.944,0,0,1-.952-.835,11.7,11.7,0,0,1,2.938-8.146,15.741,15.741,0,0,1,7.341-4.943,13.626,13.626,0,0,1,3.955-.568,21.138,21.138,0,0,1,10.362,3.088,28.666,28.666,0,0,1,8.1,6.93,9.228,9.228,0,0,1,2.055,5.149,6.559,6.559,0,0,1-2.055,5.112A7.871,7.871,0,0,1,151,288.118Z" transform="translate(-42 60)"/></g></svg>