<svg xmlns="http://www.w3.org/2000/svg" width="474" height="567" viewBox="0 0 474 567"><path d="M185.626,0C242.407,0,315.7,35.618,321.95,72.1c7.365,42.99,46.806,207.948,37.9,260.847s-56.9,90.98-133.7,90.98S92.031,382.043,78.87,367.663s-37.553-65.721-37.553-65.721S.2,296.473,0,262.954,26.737,217.24,26.737,217.24s-9.6-132.279,14.58-166.718S128.845,0,185.626,0Z" transform="translate(56.415 75.26)" fill="#d08b5b"/><path d="M232.855,461.078c-3.773,0-7.567-.133-11.275-.4a167.222,167.222,0,0,1-23.019-3.24l-.836-.179a44.552,44.552,0,0,1-10.569-3.321,18.168,18.168,0,0,1-7.886-7.471,4.825,4.825,0,0,1-.284-3.74,3.387,3.387,0,0,1,1.815-2.1,21.339,21.339,0,0,1,8.843-2.124,22.732,22.732,0,0,1,2.576.154,68.255,68.255,0,0,1,7.789,1.51c1.536.36,3.124.732,4.692,1.03a147.533,147.533,0,0,0,24.12,2.451c1.176.026,2.365.039,3.536.039a145.81,145.81,0,0,0,43.474-6.419A158.366,158.366,0,0,0,295.3,429.76a141.281,141.281,0,0,0,18.533-10.329c12.615-8.373,22.663-18.2,29.866-29.219a66.218,66.218,0,0,0,5.268-9.757,69.9,69.9,0,0,0,3.5-10.147,89.11,89.11,0,0,0,2.742-21.13c.274-14.349-2.1-29.065-4.4-43.3l-.006-.04c-.353-2.188-.719-4.45-1.064-6.653l-.143-.917c-5.667-36.464-10.175-65.989-14.189-92.919l-1.971-13.281c-1.042-7.06-2.071-13.7-3.065-20.128l0-.019c-3.917-25.292-7.3-47.135-8.48-75.454a.582.582,0,0,1,.151-.444.7.7,0,0,1,1.138.265c6.159,20.347,11.08,38.258,15.488,56.367,4.219,17.335,8.116,35.49,12.263,57.133L353.277,222l1,5.194c5.848,30.332,11.895,61.7,16.962,92.67l.314,1.953a209.448,209.448,0,0,1,2.7,25.485,110.017,110.017,0,0,1-1.833,25.511,77.51,77.51,0,0,1-8.43,22.6,93.879,93.879,0,0,1-14.43,19.385A139.24,139.24,0,0,1,312,442.146a170.294,170.294,0,0,1-21.576,9.109A183.99,183.99,0,0,1,268.01,457.4,173.371,173.371,0,0,1,232.855,461.078ZM105.249,416.855a14.872,14.872,0,0,1-6.029-1.385,31.008,31.008,0,0,1-5.448-3.2l-.282-.2a129,129,0,0,1-23.52-21.38,117.21,117.21,0,0,1-16.714-26,124.54,124.54,0,0,1-9.445-29.39,10.723,10.723,0,0,1-4.591,5.23,14.8,14.8,0,0,1-7.33,1.731,26.044,26.044,0,0,1-4.38-.4,27.246,27.246,0,0,1-10.773-4.368A31.362,31.362,0,0,1,8.5,329.261c-4.8-6.948-6.444-15.439-7.42-22.829-1.256-9.619-1.413-17-.509-23.93a50.906,50.906,0,0,1,4.878-16.477A32.536,32.536,0,0,1,16.22,253.432,83.618,83.618,0,0,1,9.543,229.45a152.771,152.771,0,0,1-1.052-25.068c.483-16.3,2.84-32.92,5.119-49,.593-4.18,1.2-8.5,1.771-12.724l7.761-57.91.318-2.335c.839-6.106,1.9-13.3,3.416-20.373a122.92,122.92,0,0,1,5.836-19.782,78.976,78.976,0,0,1,9.661-17.738A57.315,57.315,0,0,1,56.9,10.582,55.259,55.259,0,0,1,66.921,5.4a69.094,69.094,0,0,1,10.8-3.246A105.686,105.686,0,0,1,100.226,0c.391,0,.79,0,1.188,0l1.916.024c13.093.2,62.384,1.335,101.99,2.247,19.675.453,38.258.881,49.235,1.121l7.855.166c5.293.1,13.45.2,21.338.3,7.627.1,15.513.2,20.827.294l.624.012c1.66.031,3.347.057,4.979.082h.023c3.572.055,7.266.111,10.9.228l.777.028c4.164.177,7.354.835,10.383,3.562a6.817,6.817,0,0,1,2.053,5.641l-.023.268,7.87.69A7.351,7.351,0,0,1,347.99,18.1a7.273,7.273,0,0,1,.217,6.689l-.106.235c-2.558,5.456-4.719,18.054-6.455,28.178-.84,4.9-1.565,9.13-2.215,11.912a114.47,114.47,0,0,0-2.411,13.82c-.06.548-.112,1.106-.163,1.644-.3,3.173-.582,6.168-2.316,8.905a10.229,10.229,0,0,1-3.958,3.58,10.934,10.934,0,0,1-5,1.236,8.113,8.113,0,0,1-5.4-1.878,7.772,7.772,0,0,1-2.456-5.857,6.606,6.606,0,0,1,.03-.9c-13.468-.59-29.16-.9-45.379-.9-21.137,0-41.817.541-58.231,1.523a580.7,580.7,0,0,0-85.48,11.589c-7.143,1.513-14.31,3.179-21.3,4.95-1.427.36-2.907.678-4.473,1.015-4.771,1.026-9.7,2.087-13.607,4.445a10.412,10.412,0,0,0-4.941,6.986,28.077,28.077,0,0,0-.119,8.854c.368,3.471.872,4.078,1.51,4.847a9.017,9.017,0,0,1,1.892,4.046l.1.367a113.387,113.387,0,0,0,6.39,18.45c.326.716.7,1.438,1.063,2.137,1.357,2.615,2.759,5.317,2.017,8.383a14.048,14.048,0,0,1-3.85,6.06c-3.225,3.1-7.463,3.938-11.562,4.752a32.136,32.136,0,0,0-7.319,2.046,11.211,11.211,0,0,0-5.519,5.242,47.764,47.764,0,0,0-4.456,15.537c-.759,5.539-.975,11.362-1.165,16.5q-.045,1.228-.092,2.419l-.026.645a211.618,211.618,0,0,0,.27,22.77c.113,1.73.316,3.481.512,5.174a67.493,67.493,0,0,1,.6,7.657,22.151,22.151,0,0,1-1.178,7.529,6.172,6.172,0,0,1-2.175,2.991,5.342,5.342,0,0,1-3.126,1,6.256,6.256,0,0,1-4.979-2.638c-.315-.421-.622-.87-.937-1.375l-.284-.464-.019.01c.26.41.518.852.789,1.35a.515.515,0,0,1-.016.517.546.546,0,0,1-.452.272.463.463,0,0,1-.343-.159,15.977,15.977,0,0,0-5.527-3.963A15.75,15.75,0,0,0,40.158,255a20.711,20.711,0,0,0-6.747,1.2,27.693,27.693,0,0,0-6.4,3.228,23.984,23.984,0,0,0-8.555,10.922,40.729,40.729,0,0,0-2.915,13.75,92.835,92.835,0,0,0,.575,15.968A54.5,54.5,0,0,0,20.2,315.452a21.968,21.968,0,0,0,3.353,5.474,12.381,12.381,0,0,0,5.176,3.636,14.546,14.546,0,0,0,4.315.664c.456.023.927.048,1.405.086a19,19,0,0,1,2.785.519,15.58,15.58,0,0,0,3.4.553c.132,0,.261,0,.384-.013.077-.005.155-.008.233-.008a4.129,4.129,0,0,1,3.22,1.762,4.075,4.075,0,0,1,.763,3.541l-.054.166c-.035.107-.075.224-.119.35a1.055,1.055,0,0,1,.269.36,155.332,155.332,0,0,0,13.3,22.1,228.966,228.966,0,0,0,16.24,20.069,166.9,166.9,0,0,0,18.86,17.751,87.4,87.4,0,0,0,10.45,7.55,15.406,15.406,0,0,0,3.711,1.58c.275.077.572.139.86.2a9.832,9.832,0,0,1,1.129.28l.644.221.022.007.1.032a4.706,4.706,0,0,1,2.461,1.033,4.893,4.893,0,0,1,1.539,2.307,8.046,8.046,0,0,1-.49,6.412,9.148,9.148,0,0,1-5.75,4.338A11.743,11.743,0,0,1,105.249,416.855ZM50.054,308.178a7.371,7.371,0,0,1-4.285-1.281A7.264,7.264,0,0,1,43,302.735l-.085-.333a21.63,21.63,0,0,0-6.747-10.844,21.966,21.966,0,0,0-11.523-5.526.99.99,0,0,1-.8-.788.635.635,0,0,1,.4-.7A24.139,24.139,0,0,1,48,285.8a29.175,29.175,0,0,1,9.807,10.325,8.543,8.543,0,0,1,1.224,4.147,6.745,6.745,0,0,1-.931,3.5,8.645,8.645,0,0,1-3.427,3.22A9.95,9.95,0,0,1,50.054,308.178Z" transform="translate(53 45)"/></svg>