<svg xmlns="http://www.w3.org/2000/svg" width="474" height="567" viewBox="0 0 474 567"><path d="M355.263,99.319c11.378-8.172-5.588-35.059-11.352-43.059q-7.521-15.654-15.043-31.31c.61-8.559-7.748-16.174-16.007-13.57-7.185-5.153-19.219-2.686-22.871,5.382C210.543-17.84,73.077-3.445,65.968,103.327c-15.368,30.4-30.6,61.06-44.235,92.281-18.918,1.016-28.088,24-16.825,38.852,1.5,24.119,16.79,26.028,37.2,24.955,8.2,2.159,16.7,3.329,22.844,9.66,4.673,4.775,7.849,10.83,10.914,16.7,14.145,27.106,32.116,50.554,56.476,69.3,37.883,28.351,89.165,48.706,136.4,34.9,101.557-39.882,121.5-199.268,86.514-290.671Z" transform="translate(50 126)" fill="#d08b5b"/><path d="M252.2,456.6c-2.719,0-5.479-.1-8.2-.288a170.351,170.351,0,0,1-28.991-4.569l-2.282-.567c-8.6-2.154-17.618-4.672-25.018-9.634a8.2,8.2,0,0,1-3.294-4.005,6.941,6.941,0,0,1-.093-4.412,7.951,7.951,0,0,1,2.827-3.995,8.354,8.354,0,0,1,5.067-1.661,9.548,9.548,0,0,1,1.385.1,114.739,114.739,0,0,1,16.958,4.327c4.135,1.283,8.411,2.609,12.692,3.543,4.469.979,8.91,1.728,13.2,2.226a116.06,116.06,0,0,0,13.344.789c1.042,0,2.094-.015,3.127-.045a89.233,89.233,0,0,0,25.391-4.393A93.748,93.748,0,0,0,301.4,422.593a114.616,114.616,0,0,0,18.77-15.858,123.1,123.1,0,0,0,14.674-18.82,147.661,147.661,0,0,0,11.091-21.164,189.445,189.445,0,0,0,8.022-22.889,287.712,287.712,0,0,0,8.893-48.479c1.9-18.094,2.5-36.037,2.781-47.959.4-16.981.143-31.736-.791-45.109a277.407,277.407,0,0,0-6.5-44.591,259.188,259.188,0,0,0-13.525-41.541,230.02,230.02,0,0,0-20.665-38.459,42.557,42.557,0,0,1-10.91,2.79,28.406,28.406,0,0,1-10.9,3.607,84.5,84.5,0,0,1-11.7.562H289.55c-7.39-.009-15.355-.408-24.35-1.22-7.626-.676-15.457-1.648-23.029-2.587-14.366-1.782-29.22-3.625-43.8-3.625a140.962,140.962,0,0,0-20.042,1.332l-1.175.171c-16.383,2.465-28.238,7.192-35.235,14.049-4.344,4.251-4.939,9.815-4.673,13.735a28.585,28.585,0,0,0,3.027,10.78,21.737,21.737,0,0,0,5.987,7.625,10.415,10.415,0,0,1,4.161,8.826,7.269,7.269,0,0,1-1.146,3.418,7.768,7.768,0,0,1-3.015,2.646c-7.093,3.661-19.951,4.081-30.283,4.42-7.971.261-14.267.467-15.728,2-3.717,3.888-3.8,9.69-3.877,14.81v.008c-.007.477-.014.97-.024,1.446l-.008.366a425.112,425.112,0,0,0,1.3,47.07c.535,6.337,1.369,12.787,2.176,19.025v.008c1.123,8.688,2.285,17.672,2.663,26.516a4.684,4.684,0,0,1-1.247,3.541,5.546,5.546,0,0,1-4.019,1.6,6.055,6.055,0,0,1-3.874-1.356c-.663-.55-1.333-1.058-1.991-1.509-6.471-4.588-13.827-6.214-20.17-7.2a1.475,1.475,0,0,1-.9-.508l-.088-.112-.779.64a27.645,27.645,0,0,1,3.849,6.43.655.655,0,0,1-.054.615.5.5,0,0,1-.422.244.567.567,0,0,1-.294-.089A46.88,46.88,0,0,0,48.4,250.726a42.9,42.9,0,0,0-8.761.917,33.98,33.98,0,0,0-14.323,6.579,26.945,26.945,0,0,0-5.328,5.694,24.907,24.907,0,0,0-3.429,7.237,33.062,33.062,0,0,0-.642,15.248,32.331,32.331,0,0,0,6.243,13.943,25.051,25.051,0,0,0,7.034,6.195,30.428,30.428,0,0,0,8.278,3.3c5.825,1.453,12.188,1.622,18.341,1.785,1.537.041,3.127.083,4.666.145,2.345.1,5.565,1.193,6.92,3.97,1.423,2.922,1.423,4.964,0,8.09a5,5,0,0,1-.73,1.169c1,.828,2.026,1.778,3.323,3.077l3.571,3.6c2.184,2.2,4.749,4.821,7.216,7.506a302.521,302.521,0,0,1,19.44,23.63l.563.76c1.266,1.732,2.519,3.569,3.846,5.514,6.037,8.851,12.88,18.882,23.052,21.415,5.285,1.322,8.373,3.853,9.44,7.74a8.441,8.441,0,0,1-.881,6.481,11.056,11.056,0,0,1-4.818,4.479,13.082,13.082,0,0,1-5.721,1.243,21.806,21.806,0,0,1-8.356-1.873,36.27,36.27,0,0,1-7.333-4.2A68.772,68.772,0,0,1,95.176,388.7c-4.271-5.964-7.979-12.38-11.565-18.586l-.018-.03q-.758-1.311-1.507-2.6l-2.071-3.56c-3.728-6.432-7.634-13.377-10.947-20.584-.612-1.332-1.248-2.682-1.864-3.986-1.251-2.652-2.544-5.394-3.7-8.133-.536-1.276-1.01-2.431-1.39-3.641a10.785,10.785,0,0,1-1.641.23c-2.23.146-4.457.22-6.618.22a74.085,74.085,0,0,1-22.067-3.064,43.294,43.294,0,0,1-18.764-11.227,45.049,45.049,0,0,1-5.86-7.681,48.87,48.87,0,0,1-4.178-8.758A50.291,50.291,0,0,1,.045,278.207a43.686,43.686,0,0,1,3.607-15.813A38.066,38.066,0,0,1,13.34,249.1a36.047,36.047,0,0,1,6.59-4.58,72.5,72.5,0,0,1-7.18-18.35,146.7,146.7,0,0,1-4.37-27.39,167.387,167.387,0,0,1,.508-28.437A201.216,201.216,0,0,1,13.8,142.313,196.337,196.337,0,0,1,32.267,95,190.686,190.686,0,0,1,61.912,54.592,179.5,179.5,0,0,1,101.13,23.711,170.931,170.931,0,0,1,148.319,4.993,194.928,194.928,0,0,1,192.357,0,202.766,202.766,0,0,1,232.13,3.957a200.4,200.4,0,0,1,38.173,11.7,189.8,189.8,0,0,1,34.926,19.173,176.562,176.562,0,0,1,30.03,26.389,8.383,8.383,0,0,1,2.3,5.84,8.141,8.141,0,0,1-2.264,5.42c1.016.825,2.029,1.68,3.008,2.506l.124.1.818.689a2.848,2.848,0,0,1,.958,2.09,3.6,3.6,0,0,1-.958,2.621,3.637,3.637,0,0,1-2.5.969,2.724,2.724,0,0,1-2.209-.969L332.9,78.415c-.73-.922-1.586-2.014-2.407-3.132-.7.258-1.391.527-2.059.788l-.752.292a106.681,106.681,0,0,1,19.182,16.26,99.3,99.3,0,0,1,14.659,20.46c8.09,15.036,13.932,31.846,17.86,51.39a344.241,344.241,0,0,1,5.99,48.535c.833,14.592,1,30.6.518,48.94l-.048,1.745c-.311,10.988-.8,20.639-1.5,29.5-.834,10.588-1.965,20.182-3.457,29.33-3.476,21.3-8.887,39.77-16.544,56.465a150.535,150.535,0,0,1-11.828,21.087A146.226,146.226,0,0,1,337.221,419.2a130.256,130.256,0,0,1-18.35,16.074,111.029,111.029,0,0,1-21,11.935A115.79,115.79,0,0,1,252.2,456.6ZM70.16,291.318a7.224,7.224,0,0,1-3.386-.919l-.285-.157A107.845,107.845,0,0,0,55.728,285.1c-1.692-.733-3.441-1.491-5.138-2.276l-1.13-.531c-.553-.265-1.273-.652-2.106-1.1-3.46-1.859-8.688-4.667-12.6-4.667a4.921,4.921,0,0,0-3.2.989,5.36,5.36,0,0,0-1.72,3.467.5.5,0,0,1-.533.4.519.519,0,0,1-.547-.4c-.494-2.865-.058-5.133,1.3-6.74a8.055,8.055,0,0,1,4-2.4,20.924,20.924,0,0,1,5.8-.7c7.736,0,17.649,2.626,24.888,4.544,3.042.806,5.443,1.442,6.931,1.68l.242.036c3.966.551,5.175,3.705,4.984,6.474a9.086,9.086,0,0,1-2.016,5.086A6.132,6.132,0,0,1,70.16,291.318Z" transform="translate(45 65)"/></svg>