<svg xmlns="http://www.w3.org/2000/svg" width="474" height="567" viewBox="0 0 474 567"><path d="M364.424,212.6c-6.271-45.243-20.614-89.171-22.673-135.093q-1.837-29.477-3.674-58.956c-.465-12.274-16.409-16.415-22.5-5.541C301.735-2.339,276.947-.078,258.036.388,146.708,4.333,40.914,79.6,2.7,184.552a10.076,10.076,0,0,0,.4,7.548c-17.813,59.4,45.182,97.649,88.146,124.133,17.429,18.418,37.916,33.72,61.049,44.2A214.189,214.189,0,0,0,237.925,380.6c6.454.148,10.331-5.07,10.8-10.471,9.38-2.183,25.431.337,30.391-9.275,56.567-24.569,93.424-86.841,85.311-148.251Z" transform="translate(54 125)" fill="#d08b5b"/><path d="M268.411,438.707a149.027,149.027,0,0,1-25.557-2.261l-1.737-.31c-3.831-.694-7.013-1.363-10.014-2.1a91.527,91.527,0,0,1-10.149-3.083,56.172,56.172,0,0,1-9.4-4.467,35.332,35.332,0,0,1-7.78-6.254,9,9,0,0,1-2.207-5.123,11.066,11.066,0,0,1,.824-5.627,7.133,7.133,0,0,1,6.639-4.6,8.482,8.482,0,0,1,1.074.07,49.313,49.313,0,0,1,12.328,2.883c3.037,1.19,6.32,2.439,9.749,3.507a115.868,115.868,0,0,0,19.449,4.359,129.978,129.978,0,0,0,41.46-1.369,147.948,147.948,0,0,0,35.829-11.958A133.614,133.614,0,0,0,360.293,381.4a111.511,111.511,0,0,0,25.6-33.5,107.212,107.212,0,0,0,10.717-40.741c1.906-29.774-1.087-60.37-3.981-89.958l0-.034c-.269-2.753-.548-5.6-.817-8.39-1.611-16.717-3.688-33.693-6.172-50.456-1.811-12.221-3.1-24.65-4.355-36.67-.426-4.1-.867-8.33-1.322-12.5a1.02,1.02,0,0,1,.227-.817,1.152,1.152,0,0,1,.866-.346,1.367,1.367,0,0,1,1.3.838c.481,1.311.973,2.643,1.449,3.932l.025.067c3.056,8.276,6.216,16.835,8.669,25.482,2.628,9.266,4.58,18.877,6.467,28.171l.239,1.178c3.319,16.347,6.185,32.908,8.516,49.224a15.327,15.327,0,0,1,9.52-3.271,18.692,18.692,0,0,1,8.3,2.041c2.951,1.455,4.009,5.3,3.326,8.174a66.52,66.52,0,0,1-2.067,7.015,18.379,18.379,0,0,1,4.334,5.674c2.543,5.168,2.333,11.029-.626,17.421.175.294.377.641.571,1.013,3.694,7.174,1.739,13.606-.986,20.67a28.726,28.726,0,0,0-1.364,5.8c-.568,3.5-1.1,6.8-3.906,9.341a39.96,39.96,0,0,1-7.125,13.534,8.945,8.945,0,0,1-3.225,3.308,148.892,148.892,0,0,1-2.682,23.014,109.352,109.352,0,0,1-6.75,21.509A125.4,125.4,0,0,1,394.23,372a141.224,141.224,0,0,1-14.07,17.813,150.31,150.31,0,0,1-16.545,15.326,153.055,153.055,0,0,1-37.041,21.79,159.836,159.836,0,0,1-41.622,10.782A137.8,137.8,0,0,1,268.411,438.707ZM147.8,381.177c-6.924,0-13.821-5.248-18.856-9.08-2.88-2.189-5.648-4.44-8.23-6.691-.282.022-.569.034-.852.034A11.958,11.958,0,0,1,115,364.366a40.277,40.277,0,0,1-3.79-1.92,13.365,13.365,0,0,1-10.96-1.99,32.09,32.09,0,0,1-7.657.936,26.661,26.661,0,0,1-5.693-.586,22.446,22.446,0,0,1-9.75-4.92,22.5,22.5,0,0,1-6.845,1.087,20.362,20.362,0,0,1-10.8-3.058,19.5,19.5,0,0,1-4.443-3.717,17.1,17.1,0,0,1-2.987-4.753,7.568,7.568,0,0,1-1.229-3.934v-.556c-.175,0-.319.005-.453.005a18.7,18.7,0,0,1-6.977-1.317,17.854,17.854,0,0,1-6.17-4.137A18.754,18.754,0,0,1,31.872,323,24.7,24.7,0,0,1,19,314.3a24.349,24.349,0,0,1-4.985-11.97,27.1,27.1,0,0,1,1.466-12.54c-.185-.415-.357-.856-.511-1.31a41.784,41.784,0,0,1-5.429-10.412,31.746,31.746,0,0,1-1.851-11.417,20,20,0,0,1,.43-3.55C3.308,260.539.359,256.23.032,251.276A15.728,15.728,0,0,1,3.941,240a19.834,19.834,0,0,1-1.489-9.931,19.279,19.279,0,0,1,3.441-9.049,13.951,13.951,0,0,1,.159-2.8,26.248,26.248,0,0,1-.41-2.869,21.573,21.573,0,0,1,.805-7.741,25.219,25.219,0,0,1,3.277-6.949,30.958,30.958,0,0,1,5.125-5.867,34.3,34.3,0,0,1,6.352-4.5,49.956,49.956,0,0,1,7.49-3.26,20.912,20.912,0,0,1,2.16-.581,11.566,11.566,0,0,0,4.139-1.508c-.03-.022.082-.2.225-.431a4.418,4.418,0,0,0,.505-.969l.038-.167.014-.062a14.759,14.759,0,0,0,.289-1.51,40.515,40.515,0,0,0,.073-5.718c-.02-.591-.041-1.2-.054-1.8A269.827,269.827,0,0,1,37.4,140.4a171.724,171.724,0,0,1,5.987-30.706A131.354,131.354,0,0,1,55.681,80.956c8.408-14.4,20.217-27.466,35.1-38.84a167.281,167.281,0,0,1,22.081-14.2A198.261,198.261,0,0,1,136.848,17.04,255.838,255.838,0,0,1,187.8,3.919l1.052-.161C196.782,2.551,204.6,1.623,212.088,1c8-.665,15.883-1,23.423-1a222.3,222.3,0,0,1,39.96,3.459,182.744,182.744,0,0,1,19.495,4.679,166.166,166.166,0,0,1,18.955,6.96,143.342,143.342,0,0,1,21.84,11.929c4.126-.43,9.547-.934,14.882-1.009h.228a15.076,15.076,0,0,1,8.376,2.375,9.688,9.688,0,0,1,4.365,7.005,27.339,27.339,0,0,1,8.158,2.228,17.481,17.481,0,0,1,6.373,4.883,13.834,13.834,0,0,1,2.67,5.579,45.751,45.751,0,0,1,10.359,3.83,10.8,10.8,0,0,1,4.919,12.091c-.324.957-.7,1.909-1.118,2.831l-.322.688.191.26a10.221,10.221,0,0,1,1.078,8.285A11.811,11.811,0,0,1,390.9,82.8a37.283,37.283,0,0,1-12.05,5.04c.392,1.9.7,3.586.93,5.14a.737.737,0,0,1-.176.595.688.688,0,0,1-.506.246.6.6,0,0,1-.518-.33c.011.034,1.531,4.755,3.811,9.94a1.857,1.857,0,0,1-.139,1.814,1.941,1.941,0,0,1-1.561.9,1.548,1.548,0,0,1-1.379-.913,105.616,105.616,0,0,1-4.377-9.811c-.936-2.309-1.9-4.7-3-7.058a20.651,20.651,0,0,1-7.24-1.79,7.975,7.975,0,0,1-3.549-3.29.79.79,0,0,0-.072.108c-.018.031-.036.061-.059.092-3.29,4.232-8.167,7.688-14.909,10.566a134.11,134.11,0,0,1-18.02,5.739l-.06.016c-.775.206-1.506.4-2.241.6a272.2,272.2,0,0,1-39.049,7.15c-18.387,2.186-37.192,2.961-55.377,3.711l-.042,0c-4.508.186-9.169.378-13.751.589-1.073.048-2.162.1-3.216.153l-.063,0-1.3.063a63.661,63.661,0,0,1-33.819,14.882,59.384,59.384,0,0,1-7.351.446,61.192,61.192,0,0,1-13.376-1.462,20.959,20.959,0,0,1-9.275,5.515,41.033,41.033,0,0,1-5.585,18.566,42.625,42.625,0,0,1-13.393,14.164l.2.779c1.562,6.368,1.95,12.045,1.154,16.873a23.817,23.817,0,0,1-2.632,7.734,22.047,22.047,0,0,1-5.649,6.58,23.954,23.954,0,0,1-4.318,2.7l.337.773c2.835,6.625,4.2,12.742,4.063,18.179a25.347,25.347,0,0,1-1.722,8.732,24.226,24.226,0,0,1-5.189,7.931,8.341,8.341,0,0,1-6.052,2.516,8.935,8.935,0,0,1-7.522-4.051l-.142-.232c-.1-.177-.217-.353-.325-.523l0-.007h0c-.058-.091-.116-.182-.173-.273a2.434,2.434,0,0,1-1.243,1.227,7.713,7.713,0,0,1-3.06.741,9.48,9.48,0,0,1-4.29-1.424l-.014-.007c-.326-.164-.663-.333-1.026-.51a51.213,51.213,0,0,0-9.589-3.489,55.862,55.862,0,0,0-8.071-1.491c-16.919,6.466-28.1,26.361-25.46,45.291a36.048,36.048,0,0,0,5.27,14.532,28.389,28.389,0,0,0,4.987,5.855,24.676,24.676,0,0,0,6.553,4.192,27.072,27.072,0,0,0,10.7,2.225,24.107,24.107,0,0,0,3.238-.215,33.451,33.451,0,0,0,6.119-1.61,23.368,23.368,0,0,1,7.433-1.618,12.058,12.058,0,0,1,4.027.689,6.427,6.427,0,0,1,3.058,2.128,6.162,6.162,0,0,1,1.243,3.523,12.11,12.11,0,0,1-3.88,9.959,67.006,67.006,0,0,1,7.995,8.49c1.424,1.7,2.766,3.3,4.175,4.8,5,5.333,9.933,10.524,15.29,15.4a136.326,136.326,0,0,0,16.079,12.691l.6.393c.942.613,1.936,1.23,2.9,1.826a47.519,47.519,0,0,1,9.068,6.651,14.532,14.532,0,0,1,4.459,9.96,7.426,7.426,0,0,1-1.088,4.081,8.981,8.981,0,0,1-2.971,3.008A12.928,12.928,0,0,1,147.8,381.177ZM86.371,281.432a3.909,3.909,0,0,1-3.524-2.243,15.432,15.432,0,0,1-1.892-10.065,11.239,11.239,0,0,1,.848-2.907c-.128-.064-.257-.131-.382-.2-.181-.094-.387-.2-.59-.3l-.585-.272c-1.14-.518-11.3-5.057-16.9-5.057a4.127,4.127,0,0,0-3,.883,2.207,2.207,0,0,0-.581,1.66.531.531,0,0,1-.138.393.512.512,0,0,1-.371.145.649.649,0,0,1-.6-.389,4.516,4.516,0,0,1,.156-4.441c1-1.493,3.11-2.6,6.282-3.3a40.267,40.267,0,0,1,8.239-.781c1.2,0,2.4.047,3.288.128l.133.013a57.11,57.11,0,0,1,17.356,4.61,33.039,33.039,0,0,1,7.808,4.835,17.725,17.725,0,0,1,5.045,6.708,4.965,4.965,0,0,1-.625,4.742,6.61,6.61,0,0,1-5.269,2.962,4.793,4.793,0,0,1-1.557-.255c-2.864-.98-4.819-2.762-6.888-4.648-.808-.736-1.64-1.495-2.544-2.219-.758-.608-1.587-1.215-2.607-1.91a9.479,9.479,0,0,0,2.264,3.91l.247.231a3.793,3.793,0,0,1,1.2,4.375,5.355,5.355,0,0,1-1.918,2.395A5.1,5.1,0,0,1,86.371,281.432Z" transform="translate(12 68.001)"/></svg>