<svg xmlns="http://www.w3.org/2000/svg" width="522.998" height="579.651" viewBox="0 0 522.998 579.651"><g transform="translate(48.998)"><path d="M194.7,0l8.637,10.272q-7.174,5.055-13.544,10.159l0-.01C209.458,7.586,231.243,0,254.778,0c45.328,0,137.4,38.937,158.214,67.022,10.329,13.938,29.524,56.725,39.48,103.243,8,37.376,19.9,142.97,8,182.647-15.228,50.78-65.329,97.714-116.99,97.714S211.618,413.331,154.536,331.6c-2.61-3.737-32.584-8.069-53.967-22.1l5.614,61.848,4.267,35.977-.942,2.56Q86.537,472.014,73.1,474.71q-13.71,2.752-55.839-44.946L13.673,414.7Q0,357.062,0,352.823l.006-.515c.134-6.5,2.375-43.312,2.421-53.218V150.627Q47.737,0,88.9,0Z" transform="translate(-40.686 59.337)" fill="#d08b5b"/><path d="M75.568,556.65A10.118,10.118,0,0,1,69.1,554.3a9.224,9.224,0,0,1-3.315-6.222,12.978,12.978,0,0,1-3.938-4.983,23.2,23.2,0,0,1-1.831-6.491c-.438-3.016-.755-6.055-1.062-8.994-.376-3.6-.764-7.317-1.374-10.975l-.423.4-.218.188-.07.48a9.9,9.9,0,0,1-4.885,6.947c.413,4.531.042,10.968-4.074,15.894a10.629,10.629,0,0,1-8.142,3.576,11.015,11.015,0,0,1-1.926-.167c-.087,0-.167.006-.243.006a3.4,3.4,0,0,1-.441-.027A13.022,13.022,0,0,1,31.811,542a12.317,12.317,0,0,1-3.742-3.726,11.965,11.965,0,0,1-1.431-9.955,17.329,17.329,0,0,1-3.377-6.575,16.378,16.378,0,0,1-.247-7.326,10.735,10.735,0,0,1-3.549-3.915,14.81,14.81,0,0,1-1.57-5.136,28.6,28.6,0,0,1,1.173-11.416A19.574,19.574,0,0,1,13.362,471.5,23.56,23.56,0,0,1,8.3,458.966a25.055,25.055,0,0,1,2.354-13.292A13.455,13.455,0,0,1,5.81,435.317a13.791,13.791,0,0,1,4.829-10.68,35.242,35.242,0,0,1-3.6-10.787,16.361,16.361,0,0,1,1.533-10.356,13.785,13.785,0,0,1-3.457-10.122,12.552,12.552,0,0,1,2.691-6.881,18.8,18.8,0,0,1,5.7-4.7l.306-1.684a3.694,3.694,0,0,0,3.119-1.1,16.52,16.52,0,0,1,2.984-2.29,3.856,3.856,0,0,0,2.868-1.33,20.082,20.082,0,0,1,6.294-.969,3.743,3.743,0,0,0,2.821-1.2,4.178,4.178,0,0,0,1.03-2.615,3.762,3.762,0,0,0-3.332-4.142,3.958,3.958,0,0,0-2.822-1.2l-.852,0a14.819,14.819,0,0,0-5.856.935,6.573,6.573,0,0,0-2.808,2.236,5.572,5.572,0,0,1-2.6,4.046,6.343,6.343,0,0,1-3.6,1.126,6.1,6.1,0,0,1-3.1-.837,5.164,5.164,0,0,1-2.53-3.227,11.418,11.418,0,0,1-.085-4.13c.362-3.146-.355-6.261-1.048-9.273-.724-3.145-1.472-6.4-1.025-9.739a15.181,15.181,0,0,1,2.93-7.429,17.486,17.486,0,0,1-2.879-8.241,16.984,16.984,0,0,1,1.529-8.6,18.3,18.3,0,0,1-4.7-10.294A19.969,19.969,0,0,1,2,300.671c.022-.075.042-.152.06-.219.025-.093.05-.19.08-.284a17.05,17.05,0,0,1,1.5-3.24,16.494,16.494,0,0,1,.071-16.649,15.5,15.5,0,0,1-3.58-9.662,16.513,16.513,0,0,1,2.926-9.972c.018-.361.051-.727.084-1.081q.016-.177.032-.353a17.844,17.844,0,0,1-1.117-7.587,18.621,18.621,0,0,1,2.071-7.332,29.454,29.454,0,0,1-1.921-6.3,36.808,36.808,0,0,1,1.08-17.04c.245-.841.526-1.715.859-2.67.047-3.471.176-7.249.393-11.548a46.114,46.114,0,0,1-.9-10.136l0-2.15c0-.419-.008-.852-.013-1.3-.06-5.292-.142-12.54,3.053-16.835a14.463,14.463,0,0,1,2.4-15.336,16.3,16.3,0,0,1-2.223-7.283,14.564,14.564,0,0,1,1.69-7.651,16.143,16.143,0,0,1,1.441-2.247,26.128,26.128,0,0,1,3.164-13.755,22.82,22.82,0,0,1,6.72-7.527c-.054-.68-.076-1.268-.067-1.8a22.426,22.426,0,0,1,1.625-7.782,12.647,12.647,0,0,1-1.558-10.112,16.3,16.3,0,0,1,8.02-9.76,81.389,81.389,0,0,1,1.8-11.668,11.463,11.463,0,0,1-.979-4.137,12.455,12.455,0,0,1,.524-4.249,11.675,11.675,0,0,1,5.269-6.778c-.549-3.314-.48-8.043,2.964-11.741a11.585,11.585,0,0,1,3.96-2.787A14.434,14.434,0,0,1,44.4,39.74a13.505,13.505,0,0,1,4.27-3.314,13.934,13.934,0,0,1,5.171-1.411A15.429,15.429,0,0,1,68.7,22.69c.273,0,.549.008.821.024a11.639,11.639,0,0,1,2.325-4.383,11.01,11.01,0,0,1,4.188-3.041,11.189,11.189,0,0,1,2.628-.734A42.225,42.225,0,0,1,89.293,6.983,61.324,61.324,0,0,1,101.22,2.358,44.484,44.484,0,0,1,112.8.733,30.754,30.754,0,0,1,123.4,2.5l.482.183.54-.07c2.247-.25,4.609-.408,7.02-.47A31.58,31.58,0,0,1,142.889,0a30.819,30.819,0,0,1,16.15,4.528c.568-.024,1.144-.037,1.711-.037a45.286,45.286,0,0,1,22.827,6.452,50.291,50.291,0,0,1,9.593,7.314,48.041,48.041,0,0,1,7.509,9.371l.183.2c.122.133.246.268.358.4l1.829,2.131a58.087,58.087,0,0,1,5,6.6,22.161,22.161,0,0,0-9.67,2.316,20.577,20.577,0,0,0-7.446,6.571,3.293,3.293,0,0,0-.368,3.538,4.538,4.538,0,0,0,3.935,2.266,4,4,0,0,0,3.236-1.622l.105-.144c2.256-3.193,5.745-4.852,10.37-4.93a3.769,3.769,0,0,0,2.741-1.151c.242.881.468,1.8.692,2.811,15.409-5.993,32.521-9.032,50.862-9.032,4.939,0,10.033.223,15.141.662a26.5,26.5,0,0,0-2.443,5.1,3.509,3.509,0,0,0,.267,2.809A4.2,4.2,0,0,0,278,48.262a4.007,4.007,0,0,0,1.059.146,4.164,4.164,0,0,0,3.79-2.75l.071-.19a14.3,14.3,0,0,1,4.169-6.178,222.509,222.509,0,0,1,31.348,6.659,343.6,343.6,0,0,1,36.468,12.8,9.352,9.352,0,0,0-4.992,4.37,3.756,3.756,0,0,0,.007,3.845,4.512,4.512,0,0,0,3.745,2.171,3.5,3.5,0,0,0,3.067-1.82l.09-.158a3.708,3.708,0,0,1,.633-.889l.059-.053.352-.162.656-.188.252-.062a3.2,3.2,0,0,1,.63-.065l.269-.014c.7-.04,1.41-.04,2.1-.04h.238a3.633,3.633,0,0,0,3.53-2.328c5.9,2.662,11.761,5.486,17.42,8.392l1.358.7a136.129,136.129,0,0,1,24.995,16.337A89.243,89.243,0,0,1,419.86,99.241a73.517,73.517,0,0,1,8.488,12.327,6.156,6.156,0,0,1,.681,3.73c2.009,2.408,4.024,4.979,5.989,7.64,5.872,7.976,10.24,17.208,14.21,25.98,7.428,16.4,13.135,34.16,17.96,55.89,4.494,20.159,8.031,40.656,10.611,56.26,2.007,12.17,3.446,22.177,4.528,31.492,1.329,11.445,2.112,21.82,2.392,31.717a215.009,215.009,0,0,1-5.422,56.078,169.989,169.989,0,0,1-8.728,26.658A151.777,151.777,0,0,1,441.225,452,141.984,141.984,0,0,1,422.1,468.976a127.461,127.461,0,0,1-21.916,13,115.443,115.443,0,0,1-24.3,8.141,125.036,125.036,0,0,1-26.038,2.766,115.728,115.728,0,0,1-38.068-6.31,105.952,105.952,0,0,1-33.8-19.2,9.013,9.013,0,0,1-3.047-6.634,11.848,11.848,0,0,1,.7-4.511,10.37,10.37,0,0,1,2.346-3.775,9.918,9.918,0,0,1,7.134-2.978,12.173,12.173,0,0,1,7.784,2.978,82.366,82.366,0,0,0,27.235,15.16,96.923,96.923,0,0,0,30.8,4.887,105.691,105.691,0,0,0,35.413-6.126,99.407,99.407,0,0,0,20.137-9.966,115.042,115.042,0,0,0,17.6-13.978A132.823,132.823,0,0,0,438.9,425.421a143.488,143.488,0,0,0,21.871-43.993,174.918,174.918,0,0,0,5.638-26.137,224.707,224.707,0,0,0,2.03-26.778c.155-8.465-.108-17.5-.781-26.844-1.367-19.1-4.119-37.689-7.31-58.27l-1.811-11.648c-2.21-14.114-4.205-25.927-6.758-37.7l-.634-2.909c-2.016-9.179-3.738-16.17-5.582-22.669a187.068,187.068,0,0,0-7.6-21.992,241.928,241.928,0,0,0-10.79-21.66c-.776-1.418-1.553-2.817-2.31-4.16a5.439,5.439,0,0,1-1.8.3,5.8,5.8,0,0,1-1.745-.275,146.124,146.124,0,0,0-33.589-6.439c-3.149-.211-6.389-.317-9.63-.317-1.974,0-3.993.04-6,.118-1.711-.1-3.429-.15-5.1-.15a70.092,70.092,0,0,0-21.472,3.15c-.85-.73-1.735-1.463-2.516-2.11a5.949,5.949,0,0,1-.682-.086,6.593,6.593,0,0,1-4.609-3.911c-.052-.113-.1-.224-.132-.309-1.036-.793-2.142-1.619-3.289-2.456a4,4,0,0,1-1,.13,4.365,4.365,0,0,1-2.986-1.26,6.039,6.039,0,0,1-1.706-2.871c-.435-.294-.882-.585-1.316-.867l-.5-.326a8.946,8.946,0,0,1-1.407.246c-.309.022-.617.034-.916.034a9.9,9.9,0,0,1-4.745-1.142,10.424,10.424,0,0,1-4.6-5.33c-.272.017-.546.025-.815.025a16.485,16.485,0,0,1-8.972-2.887A29.731,29.731,0,0,1,299.16,87.9,207.49,207.49,0,0,0,263.9,75.874a210.514,210.514,0,0,0-36.782-5.589c-2.442.469-4.878,1.032-7.239,1.673-.594.162-1.452.489-2.29.817a69.21,69.21,0,0,1,8.267-.514,59.677,59.677,0,0,1,8.481.6c12.142,1.756,23.985,6.931,36.2,15.823,10.831,7.881,20.61,17.7,29.565,27.145a4.584,4.584,0,0,1,.906-.09A5.583,5.583,0,0,1,306,119.224a4.347,4.347,0,0,1-1.243,4.955l-30.9,28.631a4.176,4.176,0,0,1-.911,3.58,5.54,5.54,0,0,1-4.214,2.126,4.327,4.327,0,0,1-1.006-.117c-4.958-1.191-10.259-2.433-16.2-3.8a17.54,17.54,0,0,1-7.6,1.726,16.8,16.8,0,0,1-10.247-3.42c-.144-.111-.4-.266-.662-.43l-.005,0c-.177-.109-.361-.222-.537-.336a11.725,11.725,0,0,1-1.073.754l-.03.02-.107.069a8.356,8.356,0,0,1-4.636,1.342,9.746,9.746,0,0,1-1.524-.121,12.539,12.539,0,0,1-5.861-2.837,15.881,15.881,0,0,1-1.535-1.66c-1.139-1.329-2.556-2.984-3.475-3.161l-.07-.008a.129.129,0,0,1,.109.1c.1.521-2.287,2.742-3.06,3.3a9.06,9.06,0,0,1-5.375,1.849,8.719,8.719,0,0,1-.949-.053,10.37,10.37,0,0,1-5.592-2.69,19.857,19.857,0,0,1-4.024-4.937l-.151-.264-.063-.165-.053.177c-.01.031-.021.066-.035.1a6.756,6.756,0,0,1-1.882,2.3,7.689,7.689,0,0,1-5.138,2.02,7.905,7.905,0,0,1-1.356-.119,9.261,9.261,0,0,1-5.138-3.081l-.215-.238c-.4-.446-3.1-4.078-2.673-4.939l.049-.074-.133-.028a5.236,5.236,0,0,1-1.247.157,4.26,4.26,0,0,1-2.769-1,153.239,153.239,0,0,1-16.519-4.486c-.446,1.251-.848,2.413-1.23,3.55a49.647,49.647,0,0,1,5.274,3.958c1,.818,1.935,1.59,2.856,2.271l.064.047c4.349,3.206,9.278,6.84,14.086,10.4l18.661,13.766,2.134-.573a5.125,5.125,0,0,1,1.328-.18,5.21,5.21,0,0,1,4.74,3.462l.083.21a18.181,18.181,0,0,0,1.436,2.987c.147-.006.291-.009.429-.009a9.782,9.782,0,0,1,9.464,6.795c.22-.005.433-.007.63-.007a26.477,26.477,0,0,1,2.875.156,5.681,5.681,0,0,1,4.02,2.121,5.008,5.008,0,0,1,.846,3.98l-.044.229-.079.37a5.657,5.657,0,0,1,3.563,4.693,8.842,8.842,0,0,1,1.175,2.511c1.121,3.932-.462,8.6-1.858,12.719-.3.9-.592,1.746-.843,2.562l-.109.359c-.969,3.22-1.956,6.359-2.794,9.005l-2.364,7.439c-3.361,10.626-6.522,21.053-8.27,31.786-1.97,12.1-1.765,22.74.627,32.538a3.886,3.886,0,0,1-.622,3.407,4.079,4.079,0,0,1-3.207,1.5,4.221,4.221,0,0,1-3.471-1.828,286.87,286.87,0,0,0-19.874-24.813l-.34-.054c-4.6-.926-6.571-4.037-8.652-7.33q-.209-.33-.419-.662a8.987,8.987,0,0,1-2.535.368,8.5,8.5,0,0,1-1.6-.151,10.186,10.186,0,0,1-5.2-2.967,11.684,11.684,0,0,1-1.477-2.219,7.958,7.958,0,0,0-2.232-2.914,3.606,3.606,0,0,0-1.741-.351,18.325,18.325,0,0,0-2.521.251l-.031,0a18.1,18.1,0,0,1-2.44.247,4.842,4.842,0,0,1-.709-.047,16.969,16.969,0,0,1-4.881-1.584,27.075,27.075,0,0,0-5.224,13.432,11.114,11.114,0,0,1-1.552,4.79c.523-.019,1.037-.028,1.528-.028a40.444,40.444,0,0,1,7.393.678c10.617,1.974,18.623,8.478,23.151,18.81a.408.408,0,0,1-.027.391.381.381,0,0,1-.312.175.356.356,0,0,1-.3-.187,18.5,18.5,0,0,0-8.361-6.946,27.173,27.173,0,0,0-10.835-2.067,37.014,37.014,0,0,0-11.864,1.993,26.736,26.736,0,0,0-12.938,9.491,33.149,33.149,0,0,0-3.963,7,41.3,41.3,0,0,0-2.4,7.932,43.242,43.242,0,0,0-.8,9.171,48.1,48.1,0,0,0,1.065,9.18,52.133,52.133,0,0,0,6.99,17.009c3.634,5.7,7.92,9.366,12.739,10.9a14.7,14.7,0,0,0,4.516.657,38.955,38.955,0,0,0,5.22-.473l.021,0a39.216,39.216,0,0,1,5.277-.475,15.522,15.522,0,0,1,4.335.574,7.878,7.878,0,0,1,4.914,3.915,9.573,9.573,0,0,1,.856,6.255,13.344,13.344,0,0,1-1.76,4.58c.569,1.128,1.137,2.283,1.687,3.4l.015.03a120.069,120.069,0,0,0,5.808,10.849c4.519,7.2,10.13,13.223,15.52,18.661,7.174,7.235,12.88,12.651,18.5,17.56a110.075,110.075,0,0,0,11.476,8.414c2.7,1.807,5.5,3.674,8.145,5.7a13.716,13.716,0,0,1,4.8,6.131,10.5,10.5,0,0,1-.266,7.7,11.36,11.36,0,0,1-4.018,4.882,10.784,10.784,0,0,1-6.1,2.1,7.668,7.668,0,0,1-2.939-.57,67.573,67.573,0,0,1-13.571-7.7,134.863,134.863,0,0,1-12.108-9.938,90.652,90.652,0,0,1-9.887-10.53,88.008,88.008,0,0,1-8.064-11.97c-4.732-8.466-8.039-18.05-10.391-25.454l-.34-1.076a118.862,118.862,0,0,1-3.529-13.361c-4.333,2.368-9.454,2.865-12.986,2.866a37.127,37.127,0,0,1-5.073-.345,38.383,38.383,0,0,1-12.913-4.225,41.888,41.888,0,0,1-10.789-8.3,57.429,57.429,0,0,1-7.748-10.513c.158,1.822.265,3.574.368,5.268l.008.125q.04.652.079,1.28a23.81,23.81,0,0,1,5.462,21.5,15.7,15.7,0,0,1,4.149,8.027,16.081,16.081,0,0,1-.837,8.964,13.647,13.647,0,0,1,3.835,8.779,27.748,27.748,0,0,1-1.3,10.362,18.055,18.055,0,0,1,3.282,5.3A19.773,19.773,0,0,1,132,429.168a20.181,20.181,0,0,1-2.888,11.947l-.132.512a19.6,19.6,0,0,1,2.332,5.919,20.424,20.424,0,0,1,.367,6.246,20.928,20.928,0,0,1-1.516,6.083,20.645,20.645,0,0,1-3.315,5.429,19.734,19.734,0,0,1,2.111,6.986,13.986,13.986,0,0,1-.908,6.83,10.585,10.585,0,0,1-2.753,3.837,12.591,12.591,0,0,1-4.756,2.56,10.285,10.285,0,0,1-2.964.442,10.4,10.4,0,0,1-6.395-2.236,102.115,102.115,0,0,1,2.144,17.252,59.72,59.72,0,0,1-1.882,17.292,10.617,10.617,0,0,1-3.884,5.654,10.849,10.849,0,0,1-6.486,2.235,9.892,9.892,0,0,1-5.1-1.347,11.532,11.532,0,0,1-3.638-3.522,70.088,70.088,0,0,1-1.35,17.42,8.687,8.687,0,0,1-2.723,4.575,11.089,11.089,0,0,1-4.775,2.566,4.644,4.644,0,0,1,.552,5.594,10.357,10.357,0,0,1-3.817,3.97A9.316,9.316,0,0,1,75.568,556.65Zm-3.841-60.934a4.136,4.136,0,0,0-3.879,2.951,4.056,4.056,0,0,0,2.794,4.921,26.239,26.239,0,0,0,7.976,1.006,4.062,4.062,0,0,0,4-4,4.056,4.056,0,0,0-4-4,18.135,18.135,0,0,1-5.849-.722A3.5,3.5,0,0,0,71.727,495.717Zm-17.3-42.322h0a10.968,10.968,0,0,0-8.013,2.9,3.914,3.914,0,0,0-1.157,2.884,3.787,3.787,0,0,0,1.157,2.774,4.223,4.223,0,0,0,2.85,1.138,4.026,4.026,0,0,0,2.636-.984l.311-.28.09-.084.046-.03c.114-.073.231-.149.353-.212l-.261.171c-.034.025-.05.039-.048.043l0,0a2.293,2.293,0,0,0,.308-.131l.008,0c.086-.04.175-.081.248-.112l.081-.033.026-.006.207-.015c.366-.02.75-.02,1.057-.02h.095a4.162,4.162,0,0,0,2.931-1.3,3.669,3.669,0,0,0,1.07-2.7,4.308,4.308,0,0,0-1.195-2.812,3.87,3.87,0,0,0-2.8-1.188Zm46.766-31.1h-.111a3.686,3.686,0,0,0-2.9,1.253,4.21,4.21,0,0,0-.966,2.753,3.771,3.771,0,0,0,3.86,3.994l.856,0c3.416-.027,7.339-.226,10.671-2.271a3.826,3.826,0,0,0,1.692-2.028,3.965,3.965,0,0,0,.038-2.379,4.591,4.591,0,0,0-1.375-2.191,3.563,3.563,0,0,0-2.359-.925,3.8,3.8,0,0,0-1.876.522l-.158.092a10.943,10.943,0,0,1-5.877,1.19c-.264,0-.527,0-.789,0h-.213ZM66.521,398.1a4.05,4.05,0,0,0-2.525.951A11.553,11.553,0,0,0,60.813,401a3.341,3.341,0,0,0-1.086,3.829,4.517,4.517,0,0,0,4.1,2.859,4.013,4.013,0,0,0,2.647-1.031,3.031,3.031,0,0,1,.743-.467l.213-.09H71.7a3.762,3.762,0,0,0,1.138-.2c1.1.151,2.124.352,2.95.514l.029.006.58.112a4.557,4.557,0,0,0,.841.08,3.93,3.93,0,0,0,2.9-1.261,4.718,4.718,0,0,0,1.251-2.759,3.317,3.317,0,0,0-2.869-3.775,44.047,44.047,0,0,0-8.011-.913,21.993,21.993,0,0,0-2.366.122l-.571.072Zm-.5-78.11h0a17.462,17.462,0,0,0-10.158,3.2,4.055,4.055,0,0,0-1.622,2.2,4.316,4.316,0,0,0,.054,2.495,4.591,4.591,0,0,0,1.33,2.069,3.3,3.3,0,0,0,2.18.859,3.579,3.579,0,0,0,1.945-.616l.15-.1a13.316,13.316,0,0,1,1.594-.941,15.436,15.436,0,0,0,4.279.635,12.932,12.932,0,0,0,4.474-.79l.37-.143.221.086a4.244,4.244,0,0,0,1.793.411,4.192,4.192,0,0,0,2.75-1.075,4.678,4.678,0,0,0,1.474-2.442,3.245,3.245,0,0,0-1.979-3.8,20.984,20.984,0,0,0-8.855-2.048Zm2.961-54.018h0c.756.018,1.548.069,2.355.15,2.021.208,4.012.585,6.217,1.02a4.555,4.555,0,0,0,.874.087,4.263,4.263,0,0,0,4.116-3.976A3.655,3.655,0,0,0,82,260.864a3.506,3.506,0,0,0-2.316-1.438l-2.236-.442c-.88-.172-1.6-.307-2.277-.424a3.967,3.967,0,0,0-1.471-.419l-.265-.01H72.194a28.889,28.889,0,0,0-3.17-.189c-.348,0-.694.008-1.027.024a8.892,8.892,0,0,0-3.162.756,5.661,5.661,0,0,0-2.423,1.931,3.929,3.929,0,0,0-.324,3.693A4.015,4.015,0,0,0,66,267.064a4.475,4.475,0,0,0,2.979-1.092Zm-41.249-70.24a21.493,21.493,0,0,0-9.2,1.8,8.372,8.372,0,0,0-4.97,7.005,3.4,3.4,0,0,0,.789,2.687,3.794,3.794,0,0,0,2.828,1.137,4.718,4.718,0,0,0,2.494-.71,3.985,3.985,0,0,0,1.674-2.126,52.6,52.6,0,0,1,9.306-.836,51.894,51.894,0,0,1,5.665.311,4.5,4.5,0,0,0,1.175-4.136,3.338,3.338,0,0,0-2.416-2.4,3.468,3.468,0,0,0-2.627-2.4l-.47-.063A33.555,33.555,0,0,0,27.733,195.732ZM183.92,180.4h0a3.7,3.7,0,0,0-2.723,1.147,13.441,13.441,0,0,0-2.209,3.114l-.39.771c-.071.138-.138.263-.2.381-.1.184-.222.368-.326.531l-.1.149-.1.095-.007.007c-.039.04-.081.083-.13.136a4.341,4.341,0,0,0-1.146,3.08,3.628,3.628,0,0,0,1.146,2.576,4.386,4.386,0,0,0,2.933,1.148,3.706,3.706,0,0,0,2.725-1.148,13.462,13.462,0,0,0,2.209-3.114l.389-.77c.07-.135.136-.26.2-.381.1-.172.2-.34.308-.5l.012-.018.1-.16.159-.159.075-.078A4.341,4.341,0,0,0,188,184.121a3.629,3.629,0,0,0-1.146-2.577,4.392,4.392,0,0,0-2.934-1.147Zm-86.273-2.274c.109.059.215.127.317.192l.058.037.23.209a4.292,4.292,0,0,0,2.926,1.147,3.653,3.653,0,0,0,2.688-1.11,4.314,4.314,0,0,0,2.677-3.485,4.03,4.03,0,0,0-1.716-3.986,15.148,15.148,0,0,0-8.7-2.989,12.848,12.848,0,0,0-8.816,3.614,3.481,3.481,0,0,0-.992,3.968A4.467,4.467,0,0,0,90.3,178.51a3.853,3.853,0,0,0,2.531-.983l.132-.119c.146-.137.291-.252.414-.346A3.843,3.843,0,0,0,95.9,178h.166c.2,0,.4,0,.6,0l.383.014.206.016.026.005.18.076.154.071.007,0a2.238,2.238,0,0,0,.305.129c.007-.013-.084-.076-.282-.2Zm61.439-28.02a4.315,4.315,0,0,0-1.181.173c-5.664,1.618-7.935,7.111-8.842,11.434a4.091,4.091,0,0,0,2.794,4.921,3.735,3.735,0,0,0,.988.13,3.984,3.984,0,0,0,3.933-2.924,16.4,16.4,0,0,1,1.244-3.937l.346-.671c.164-.309.22-.359.763-.833a3.756,3.756,0,0,1,.8-.373l.1-.032a3.769,3.769,0,0,0,2.773-4.334,4.444,4.444,0,0,0-1.177-2.47A3.472,3.472,0,0,0,159.087,150.1ZM69.64,116.834h0a12.243,12.243,0,0,0-4.707.824,7.489,7.489,0,0,0-3.593,3.063,3.56,3.56,0,0,0-.157,3.724,4.472,4.472,0,0,0,3.8,2.2,3.7,3.7,0,0,0,3.141-1.728h.04c.037,0,.072,0,.107,0l.09.011,1.234-.1h.089a19.172,19.172,0,0,1,4.41.615,4.444,4.444,0,0,0,1.02.123,3.7,3.7,0,0,0,2.722-1.17,4.548,4.548,0,0,0,1.215-2.613,3.855,3.855,0,0,0-.509-2.484,3.628,3.628,0,0,0-2.321-1.573l-.772-.175a27.3,27.3,0,0,0-5.811-.72ZM246.071,80.142h0a3.742,3.742,0,0,0-2.666,1.178c-2.917,2.917-5.689,5.835-7.538,9.449a4.391,4.391,0,0,0-.377,3.032,3.857,3.857,0,0,0,1.813,2.441,3.969,3.969,0,0,0,2,.521,3.811,3.811,0,0,0,3.468-1.957c1.613-3.154,3.652-5.2,6.234-7.78l.051-.051a3.641,3.641,0,0,0,.88-4.117,4.359,4.359,0,0,0-3.869-2.716Zm-43-2.733c-3.316,1.964-5.788,5.23-7.347,9.709A3.537,3.537,0,0,0,196,89.941a4.192,4.192,0,0,0,2.518,2.1,4,4,0,0,0,1.057.145,4.149,4.149,0,0,0,3.792-2.75l.071-.19a12.327,12.327,0,0,1,1.733-3.34,6.384,6.384,0,0,1,2.385-1.93,4.175,4.175,0,0,0,2.914-4.2,6.5,6.5,0,0,1-2.125.366A6.744,6.744,0,0,1,203.067,77.408ZM88.208,64.96c.194.044.386.1.569.155l.229.08v0s-.006,0-.007,0a2,2,0,0,0,.367.284c.089.063.174.121.22.158l.027.023a3.887,3.887,0,0,0,2.663,1.1,4.467,4.467,0,0,0,3.987-2.789,3.482,3.482,0,0,0-.993-3.968A10.952,10.952,0,0,0,87.711,57a12.679,12.679,0,0,0-5.352,1.227,3.356,3.356,0,0,0-1.748,2.108,4.307,4.307,0,0,0,.313,3.365,3.76,3.76,0,0,0,3.369,1.916,5.041,5.041,0,0,0,2.049-.456c-.064.032-.1.051-.095.058s0,0,.009,0a5.306,5.306,0,0,0,.576-.163l.011,0c.132-.041.258-.08.354-.108a.72.72,0,0,0,.161.009c.1,0,.243,0,.388-.007h.029c.116,0,.226-.005.306-.005h.053l.262.016-.007,0ZM174.045,326a4.28,4.28,0,0,1-3.16-1.487l-.13-.145a45.134,45.134,0,0,0-12.4-10.046,41.123,41.123,0,0,0-15.2-4.822,5.1,5.1,0,0,1-3.676-2.1,5.966,5.966,0,0,1-1.084-3.77,4.737,4.737,0,0,1,1.121-2.9,3.9,3.9,0,0,1,3-1.258,5.75,5.75,0,0,1,.638.037,55.6,55.6,0,0,1,19.032,5.606,51.57,51.57,0,0,1,15.64,12.191,4.931,4.931,0,0,1,.813,5.468,5.9,5.9,0,0,1-1.893,2.311A4.64,4.64,0,0,1,174.045,326Z" transform="translate(-49 23)"/></g></svg>