<svg xmlns="http://www.w3.org/2000/svg" width="507" height="595" viewBox="0 0 507 595"><g transform="translate(33 28)"><path d="M336.205,51.682C303.231,4.977,220.37-.285,168,.011,64.58-.85,42.925,118.025,37.524,201.325c-11.031,1.876-21.759,5.722-29.037,14.391C-.377,226.272-3.439,244.391,4.871,256.2c5.52,7.839,14.235,10.459,23.351,10.9,30.19-2.881,36.381,24.03,51.251,44.208,38.156,51.546,104.255,68.267,164.881,68.523,20.592.548,45.4,2.093,58.586-17.281,41.652-72.2,42.559-167.947,45.127-249.763.353-20.946.264-43.12-11.86-61.1Z" transform="translate(61 121.999)" fill="#d08b5b"/><path d="M333.2,539.459a108.187,108.187,0,0,1-15.92-1.87c-3.96-.65-7.97-1.519-11.94-2.54-3.52-.82-7-1.769-10.43-2.88a54.033,54.033,0,0,1-11.86-4.69l-6.68-2.51a64.672,64.672,0,0,1-8.13-3.73l-7.26-3.39a100.038,100.038,0,0,1-8.8-4.79,1.758,1.758,0,0,1-.77-.73c-.74-.41-1.49-.8-2.23-1.22-.12-.059-.03-.409.13-.75a.626.626,0,0,1,.249-.84,1.3,1.3,0,0,1,1.15-.01,1.007,1.007,0,0,1-.1-.09c-.5-.27-.99-.53-1.48-.8a.8.8,0,0,1-.111-1.34.787.787,0,0,1,.43-.16c-.01,0-.02-.01-.03-.01-.09-.06-.02-.34.11-.65a.67.67,0,0,1,.11-1.05c.65-.51,2.17.43,2.72.74.63.35,1.271.68,1.9,1.021a.593.593,0,0,1,.249-.25c-.93-.491-1.849-.99-2.769-1.49-.571-.3-1.31-.93-.561-1.52.6-.48,2.15.34,2.89.76a.66.66,0,0,1,.311-.121c-.32-.18-.66-.349-.98-.54-.9-.5-.29-2.059.64-1.54.11.07.22.13.33.2a4.357,4.357,0,0,1,2.039.73,74.077,74.077,0,0,0,9.77,5.17c2.28,1.08,4.57,2.15,6.87,3.191a58.4,58.4,0,0,0,6.98,2.91q9.015,3.51,18.21,6.54a146.712,146.712,0,0,0,26.4,4.98c1.159.09,2.319.17,3.479.21,2.54-.02,5.08-.03,7.61-.049q7.4-.765,14.78-1.51c1.72-.24,3.4-.54,5.06-.89.87-.21,1.741-.43,2.6-.68.3-.04.6-.1.9-.149a64.695,64.695,0,0,0,6.251-2.011q1.949-.794,3.87-1.679a68.114,68.114,0,0,0,12.309-7.55q7.366-7.335,14.73-14.66l4.49-6.12a135.511,135.511,0,0,0,14.2-26.96q3.029-8.729,6.06-17.46.945-3.15,1.8-6.31,1.725-7.079,3.45-14.15.571-2.595,1.111-5.17a305.655,305.655,0,0,0,4.479-32.45c1.921-19.78,2.441-39.62,2.58-59.48q.135-17.805-.25-35.6c-.139-6.88-.239-13.76-.339-20.641-.13-7.3-.27-14.61-.461-21.91a.679.679,0,0,1,.13-.42c-.02-.859-.03-1.72-.04-2.59-.01-.57.211-.82.53-.869q-.089-7.815-.11-15.61a.768.768,0,0,1,.37-.689v-1.32a59,59,0,0,0-3.58-10.55,39.02,39.02,0,0,0-1.74-3.57,19.577,19.577,0,0,0-3.08-4.77,21.408,21.408,0,0,0-3.84-4.74c-.61-.439-1.229-.879-1.84-1.319a12.488,12.488,0,0,1-1.921-1.28c-1.19-.731-2.37-1.471-3.56-2.2-.69-.36-.24-1.26.25-1.5v-.03a1.422,1.422,0,0,1-.36-.22,58.5,58.5,0,0,0-4.5-3.84.849.849,0,0,1-.86-.14q-1.38-1.289-2.82-2.489a60.34,60.34,0,0,0-6.75-3.84,100.453,100.453,0,0,0-11.59-4.61c-.854-.281-1.714-.532-2.569-.785-1.219-.059-2.435-.124-3.651-.177A1094.648,1094.648,0,0,0,245.863,185.9q-16.708,1.349-33.367,3.211c-9.771,1.093-21.485,1.055-30.468,5.531-.38.191-.742.391-1.1.6.7,4.494,2.534,8.882,4.131,13.119,2.463,6.536,4.67,13.2,4.451,20.275a50.676,50.676,0,0,1-2.743,14.321c-.783,6.612-2.844,13-5.032,19.274-10.767,30.875-16.628,62.484-16.026,95.257a4.625,4.625,0,0,1-.534,2.3c.2,1.434.393,2.867.625,4.3.9,5.522-6.385,8.27-8.9,4.609a1.052,1.052,0,0,1-.619.3c-.64.06-1.69-.99-1.99-1.47-.39-.72-.8-1.42-1.24-2.09a1.718,1.718,0,0,0-.16-.07c.27.56.55,1.13.81,1.67.44.88-1.25,1.31-1.75.5q-.675-1.065-1.35-2.04c-.26.19-.55.24-.74-.069a33.088,33.088,0,0,0-5.511-6.88,25.615,25.615,0,0,0-10.71-5.14,37.077,37.077,0,0,0-9.47-.11,32.093,32.093,0,0,0-10.56,2.939q-3.945,2.716-7.91,5.431c-.65.68-1.27,1.39-1.85,2.129a37.491,37.491,0,0,0-4.51,7.591c-.049.17-.1.34-.149.5a31.019,31.019,0,0,0-1.43,6.961c-.031,3.01-.05,6.009-.08,9.02a39.192,39.192,0,0,0,2.929,11.32,16.025,16.025,0,0,0,3.38,5.71,25.108,25.108,0,0,0,2.79,3.91,35.292,35.292,0,0,0,6.86,3.53c.6.16,1.2.319,1.81.44a29.271,29.271,0,0,0,9.78,1.949,39.75,39.75,0,0,0,12.51-1.11,33.527,33.527,0,0,0,7.32-2.19,36.133,36.133,0,0,0,6.38-4.11c.22-.14.55-.06.91.12.44-.319.88-.63,1.31-.98.2-.139.38.031.47.211l.12-.09c.79-.54,2.96,1.15,1.98,2.15a10.49,10.49,0,0,1,1.22.89c1.74.069,5.25,3.27,4.59,3.769a38.29,38.29,0,0,1-3.06,2.371c.93.689,2.15,1.76,1.58,2.19a19.633,19.633,0,0,1-3.31,2.53c-.8.61-1.62,1.19-2.48,1.72a28.5,28.5,0,0,1-2.86,1.461c1.71,3.309,3.341,6.649,4.86,10.049a91.758,91.758,0,0,0,9.72,16.57,50.992,50.992,0,0,0,6.89,9.1,109.068,109.068,0,0,0,10.45,10.4c1.48,1.05,2.99,2.07,4.56,3.01a74.609,74.609,0,0,0,12.81,7.771c.53.29.95.93.33,1.43-.02.01-.04.01-.06.03q2.221,1.26,4.47,2.49c.589.319,1.8.94.9,1.669-.58.481-2.371-.38-3.44-.94.149.08.31.17.47.26.329.18,2.23,1.139,1.06,1.75a2.57,2.57,0,0,1-1.69-.29c-.56-.21-1.12-.44-1.67-.68.02.18-.08.35-.37.491a2.542,2.542,0,0,1-.67.02q1.829,1.035,3.669,2.04c.36.19,2.06,1.13.941,1.71a2.287,2.287,0,0,1-1.59-.26,27.864,27.864,0,0,1-2.74-1.211c-.211-.12-.42-.229-.63-.35a2.64,2.64,0,0,1-.481-.049c.98.53,1.97,1.039,2.97,1.54.59.32,1.58.97.731,1.63-.59.45-2.181-.36-3.12-.89a1.68,1.68,0,0,1-.23.23c-.7.53-2.5-.64-3.07-.95a155.211,155.211,0,0,1-14.359-8.56c-2.821-1.81-5.57-3.71-8.26-5.78a102.379,102.379,0,0,1-14.12-13.49,91.215,91.215,0,0,1-7.36-9.27,128.505,128.505,0,0,1-11.309-20.53c-.05-.11.049-.39.2-.671-.68-1.669-1.34-3.36-2-5.109-1.721.229-3.451.39-5.161.49a43.06,43.06,0,0,1-11.73-.96,40.73,40.73,0,0,1-13.15-3.929,69.83,69.83,0,0,1-6.93-3.94,40.6,40.6,0,0,1-5.69-3.65c-7.751-5.919-11.96-15.109-12.991-24.649a42.972,42.972,0,0,1-.49-12.69,42.066,42.066,0,0,1,2.01-8.921,35.969,35.969,0,0,1,10.18-16.83,31.813,31.813,0,0,1,2.63-2.419,34.86,34.86,0,0,1,9.191-5.38c.64-.31,1.29-.6,1.939-.87l-.79-1.82c-.28.08-1.25-.08-1.37-.42-.32-.869-.62-1.759-.93-2.63a1.38,1.38,0,0,1-.661.18v1.01c.011.29-.54,2.09-.84,1.15-.31-.86-.59-1.74-.89-2.61a1.143,1.143,0,0,1-.509-.57c-.031-.09-.06-.18-.1-.27-.02-.01-.049-.01-.069-.021v.31c.01.19-.491,1.63-.58,1.35a117.123,117.123,0,0,1-4.24-14.56,77.424,77.424,0,0,1-1.79-8.26q-.734-3.765-1.29-7.57c-.03-.21-.06-.419-.09-.63-.01-.049-.02-.09-.03-.14-.031-.27-.06-.55-.1-.82q-.6-4.305-.979-8.651c-.53-5.96-.741-11.949-.68-17.93-.13.05-.25.121-.38.18a57.453,57.453,0,0,1-8.136,2.731,27.906,27.906,0,0,1-21.669,12.137,28.587,28.587,0,0,1-9.4-1.09q-.471.108-.974.174c-2.463.322-4.176-.68-6.479-.986-3.687-.489-6.813-.728-9.2-2.869a6.789,6.789,0,0,1-2.111-.29,12.764,12.764,0,0,1-15.275-8.835,23.646,23.646,0,0,1-8.852-9.351,54.529,54.529,0,0,1-8.988-17.642c-.031-.061-.063-.121-.093-.184A16.709,16.709,0,0,1,.6,247.408a39.16,39.16,0,0,1,1.221-18.86,21.456,21.456,0,0,1,1.994-9.331c1.629-3.581,4.113-7.7,7.336-10.086A18.561,18.561,0,0,1,14.8,198.682,22.132,22.132,0,0,1,31.384,189.9c3.292-8.439,13.267-10.41,21.871-7.6a16.863,16.863,0,0,1,14.034-4.774,20.043,20.043,0,0,1,11.32,5.549q1.237.354,2.465.735a13.762,13.762,0,0,1,8.851-.72c5.063,1.3,8.366,5.141,10.652,9.541.729.5,1.441,1.021,2.136,1.562a8.653,8.653,0,0,1,2.085,1.337,4.715,4.715,0,0,1,2.163,2.45,35.405,35.405,0,0,1,3.552,4.246q1.192-2.758,2.462-5.477a2.991,2.991,0,0,0,3.74-1.965c4.4-11.675,12.409-33.066,19.956-42.923a51.472,51.472,0,0,1-30.244,8.84q-.686-.02-1.383-.058a46.674,46.674,0,0,1-16.93.008,88.6,88.6,0,0,1-10.525-4.634c-.828-.43-1.65-.882-2.468-1.338-.356-.3-.688-.637-1.029-.958a6.711,6.711,0,0,1-2.225-.212,13.225,13.225,0,0,1-7.384-5.26,10.462,10.462,0,0,1-.8-1.439,22.941,22.941,0,0,1-4.643-6.272,22.241,22.241,0,0,1-2.329-9.131,17.489,17.489,0,0,1,.54-9.249c.12-.32.259-.63.39-.95.06-.2.1-.41.17-.61a14.7,14.7,0,0,1,1.206-2.885,11.564,11.564,0,0,1,.895-2.705c.047-.427.105-.854.175-1.279a16.365,16.365,0,0,1,2.7-18.708,12.042,12.042,0,0,1,1.929-9.284,14.9,14.9,0,0,1,5.583-4.8,15.32,15.32,0,0,1,1.575-.549,21.2,21.2,0,0,1,2.632-2.014c.236-6.143,6.653-9.562,11.867-12.588,3.381-1.963,4.86-5.684,8.343-7.566,3.81-2.056,8.685-2.18,12.9-2.687,9.927-1.2,20.5-2.12,30.475-1.039,5.539.6,10.126,3.275,12.023,7.657,4.765.563,9.012,4,12.371,7.537,4.194,4.414,7.765,9.112,9,14.91a11.315,11.315,0,0,1,2.237,1.6,43.848,43.848,0,0,1-1.683,12.011,9.951,9.951,0,0,1-1.534,6.49,18.311,18.311,0,0,1-.344,5.594c2.28,4.045.146,10.158-3.048,14.169l-.024,2.263a2.867,2.867,0,0,0,.548-.364c14.493-12.332,29.389-10.573,46.994-17.629a323.631,323.631,0,0,1,48.348-5.665c-.215-.032-.43-.055-.644-.09a54.755,54.755,0,0,1-22.837-9.556,11.717,11.717,0,0,1-5.012-2.615,10.935,10.935,0,0,1-3.089-4.457q-.4-.429-.795-.869c-5.081-1.248-8.951-5.645-8.3-11.425a15.147,15.147,0,0,1-3.313-13.409,11.381,11.381,0,0,1-.613-10.073,10.776,10.776,0,0,1-.831-12.187,8.464,8.464,0,0,1,4.614-13.2,9.536,9.536,0,0,1,3.127-4.9,10.487,10.487,0,0,1,2.572-1.568,7.8,7.8,0,0,1,3.493-5.153,8.665,8.665,0,0,1,2.87-1.3,11.036,11.036,0,0,1,4.726-5.5,11.219,11.219,0,0,1,8.682-.941C251.348.18,259.528-2,265.2,2.175A12.7,12.7,0,0,1,280.1,3.423a12.587,12.587,0,0,1,15.53,2.42A13.663,13.663,0,0,1,314.049,11.6a13.538,13.538,0,0,1,14.376,9.7c.307.249.61.507.914.762,3.9.187,7.6,1.715,9.788,5.341a10.97,10.97,0,0,1,1.523,6.025,10.208,10.208,0,0,1,5.02,6.006,10.033,10.033,0,0,1-.523,7.162,11.546,11.546,0,0,1,1.8,13.172,10.254,10.254,0,0,1,1.369,5.567,11.49,11.49,0,0,1-3.365,7.405,9.979,9.979,0,0,1-2.391,12.682c-2.2,7.8-7.764,12.983-16.293,16.165a86.027,86.027,0,0,1-13.331,3.733,247.313,247.313,0,0,1,53.524,13.225,2.485,2.485,0,0,0,2.346-.2c.376.2.761.384,1.138.59q7.14,3.915,13.96,8.47c0-.5.01-1,.03-1.51a41.425,41.425,0,0,1,1.438-12.074,18.889,18.889,0,0,1-3.082-6.461c-1.453-5.714,1.31-13.846,6.276-15.8a15.589,15.589,0,0,1,10.547-9.691,11.927,11.927,0,0,1,1.251-1,9.9,9.9,0,0,1,3.286-1.459,11.061,11.061,0,0,1,4.476-6.711,11.827,11.827,0,0,1,11-1.343q1.013-.34,2.051-.595a14.188,14.188,0,0,1,19.641,1.184,11.731,11.731,0,0,1,11.048.475,11.559,11.559,0,0,1,5.273,7.441,12.68,12.68,0,0,1,11.786,9.012,11.376,11.376,0,0,1,9.819,9.272,10.433,10.433,0,0,1,7.817,4.856,9.862,9.862,0,0,1,1.375,4.335,10.7,10.7,0,0,1,4.092,3.426,10.413,10.413,0,0,1,1.557,8.636c.159.322.332.636.485.962a26.564,26.564,0,0,1,1.292,3.451,13.272,13.272,0,0,1,2.272,8.25c.352,1.242.693,2.487.977,3.738a40.844,40.844,0,0,1,.77,15.141,43.044,43.044,0,0,1-1.71,7.11,6.849,6.849,0,0,1-.36,1.239,37.921,37.921,0,0,1-1.679,5.36q-2.52,3.345-5.29,6.5a40.958,40.958,0,0,1-5.35,6.48,38.39,38.39,0,0,1-4.729,3.96,36.748,36.748,0,0,1-11.114,6.15c-.715-.149-1.434-.266-2.154-.382-4.549,2.5-11.7,2.787-16.08,2.77a24.294,24.294,0,0,1-12.91-3.537q.64,1.27,1.276,2.545a2.636,2.636,0,0,0-.311.186,12.532,12.532,0,0,0-2.724-3.323c-1.425-1.149-3.723-1.252-4.712.607-.018.031-.034.065-.051.1a2.826,2.826,0,0,0-.051,2.718c.147.212.293.425.439.636.052.06.1.124.158.18l-.025,0c1.364,1.1,2.709,3.792,3.982,6.408q1.293,2.294,2.451,4.658a3.484,3.484,0,0,0,2.094,1.412,3.43,3.43,0,0,0,1.366,3.208,10.366,10.366,0,0,1,.945-1.552c4.3-5.838,12.742-8.357,19.1-5.689,1.268-.214,2.543-.392,3.829-.492a46.573,46.573,0,0,1,12.6.923,26.051,26.051,0,0,1,3.663,2.632,33.837,33.837,0,0,1,2.711,2.63c.65.487,1.289,1,1.915,1.542,2.543,1.366,4.409,3.989,5.978,6.6a37.682,37.682,0,0,1,3.271,5.608c4.361,7.46,9.392,16.722,5.46,24.057a9,9,0,0,1,.9,2.62c.543,3.025-.572,5.338-2.036,7.584.193,1.566.3,3.083.382,4.419.466,7.5-1.252,17.77-7.861,20.83q-.154.186-.317.37a5.724,5.724,0,0,1-2.311,2.073,9.032,9.032,0,0,1-.77.489c-.117.1-.249.183-.37.279.138-.145.271-.3.408-.443a21.709,21.709,0,0,1-10.956,1.316,66.79,66.79,0,0,1-6.637,1.957c-6.151,1.519-14.082,2.735-20.078.146a12.408,12.408,0,0,1-4.285-2.945q.135,6.961.428,13.919c.409,11.73.39,23.45.3,35.19-.1,13.21-.47,26.43-1.18,39.63q-.5,9.945-1.57,19.85-.9,9.644-2.111,19.25a271.637,271.637,0,0,1-8.9,39.14c-1.669,5.52-3.5,11.11-5.58,16.57-.88,2.51-1.81,4.99-2.82,7.45-5.33,12.89-11.97,25.33-20.94,36.069a93.534,93.534,0,0,1-16.349,15.56,73.7,73.7,0,0,1-15.871,9.5c-11.581,5.062-24.416,6.46-36.985,6.46Q334.528,539.479,333.2,539.459ZM151.438,399.35a10.486,10.486,0,0,1-1.87-1.32c-.09-.07-.17-.15-.25-.22.26.65-.229,1.049-.88.92a6.691,6.691,0,0,1-3.07-2.551c-.03-.049-.049-.1-.08-.149a8.315,8.315,0,0,1-1.419-1.23c-.32.46-.941.8-1.22.24a14.86,14.86,0,0,0-3.94-5.9,15.45,15.45,0,0,0-3.71-3.81c-.78-.66-1.59-1.29-2.42-1.89a22.131,22.131,0,0,0-4.6-1.52c-.319-.1-.65-.16-.97-.25-.71-.13-1.409-.26-2.119-.36a38.3,38.3,0,0,0-8.69-.21,1.429,1.429,0,0,1-1.24-.84c-.65.03-1.29.059-1.939.12-1.07.04-.84-1.47-.03-1.62,1.02-.19,2.039-.33,3.039-.45a.627.627,0,0,1-.01-.27,36.015,36.015,0,0,0-5.49.139c-.8.04.15-1.44.59-1.519.2-.04.4-.06.61-.1a.276.276,0,0,1-.041-.079h-.049c-1.1.049-1.85-1.7-.53-1.94.329-.06.65-.1.969-.16a.618.618,0,0,1-.01-.46c-.57-.01-1.13-.01-1.7-.01.311-.02.54-1.36.911-1.41l.879-.12a2.213,2.213,0,0,1,.82-1.28,43.726,43.726,0,0,1,5.6-.61c.18-.42.44-.98.689-.98a51.3,51.3,0,0,1,6.1.2.328.328,0,0,1,.23-.08c.329.08.63.15.95.23a24.137,24.137,0,0,1,3.35.72,28.463,28.463,0,0,1,7.65,3.59,45.428,45.428,0,0,1,6.251,4.8,23.548,23.548,0,0,1,1.9,1.831c.97.8,1.91,1.62,2.81,2.43,1.1,1.01,2.17,2.049,3.191,3.129a21.513,21.513,0,0,1,3.749,6.18c.36.73-.08,1.17-.82,1.04a3.449,3.449,0,0,1-1.24-.61c.07.17.15.32.22.49.39.77.06,1.32-.83,1.03-.05-.031-.1-.06-.14-.09a22.932,22.932,0,0,1,1.24,2.54c.39.78.04,1.32-.84,1.02a10.47,10.47,0,0,1-1.32-.89c.19.42.39.831.56,1.26.338.666.063,1.063-.5,1.063A1.526,1.526,0,0,1,151.438,399.35Z" transform="translate(-33 -28)"/></g></svg>