<svg xmlns="http://www.w3.org/2000/svg" width="516.032" height="580.959" viewBox="0 0 516.032 580.959"><g transform="translate(38.002 13.959)"><path d="M185.625,0c56.781,0,115.511,44.012,136.324,72.1C346.015,104.572,365,260.469,356.094,313.368S302.949,423.924,226.15,423.924s-123.536-9.459-125.41-23.2-50.654-90.219-50.654-90.219S.2,296.473,0,262.954,26.736,217.24,26.736,217.24s-9.6-132.279,14.58-166.718S128.844,0,185.625,0Z" transform="translate(56.417 75.26)" fill="#d08b5b"/><path d="M318.621,519.105a165.932,165.932,0,0,1-28.257-2.44A87.867,87.867,0,0,1,279,513.925a73.405,73.405,0,0,1-11.027-4.444,49.661,49.661,0,0,1-18.057-14.736.969.969,0,0,1-.126-1.048,1.483,1.483,0,0,1,1.281-.731,1.223,1.223,0,0,1,.514.108,141.952,141.952,0,0,0,30.844,10.109,159.742,159.742,0,0,0,32.282,3.236,176.2,176.2,0,0,0,23.324-1.574,135.132,135.132,0,0,0,39.631-11.479c8-3.758,15.182-8.906,22.125-13.884,2.206-1.582,4.486-3.216,6.765-4.787a80.57,80.57,0,0,1,5.82-7.1l3.309-3.47c2.365-2.492,4.863-5.2,7.11-8.1a111.1,111.1,0,0,0,9.259-13.988,101.087,101.087,0,0,0,6.941-15.262c6.79-19.11,5.506-39.775,4.264-59.759l0-.025c-.083-1.339-.169-2.724-.251-4.081l-.111-1.876c-1.313-22.641-3.484-45.533-6.45-68.04-1.225-9.3-2.613-18.77-4.127-28.163a105.859,105.859,0,0,0-7.9-11.314,14.7,14.7,0,0,1,0,6.909,16.232,16.232,0,0,1-2.927,6.284,9.823,9.823,0,0,1-7.685,4.2,9.987,9.987,0,0,1-5.177-1.568,30.333,30.333,0,0,1-7.2-9.262,88.055,88.055,0,0,1-4.508-10.768c-2.2-5.977-4.479-12.156-8.779-17.527-2.33-3.6-7.978-8.18-16.787-13.613a306.017,306.017,0,0,0-28.767-15.287c-20.669-9.781-43.125-18.414-53.4-20.526a35.582,35.582,0,0,0,4.471,4.978c2.628,2.583,5.345,5.255,6.218,8.775a26.571,26.571,0,0,1,7.01,8.824,9.175,9.175,0,0,1,.5,6.947,8.312,8.312,0,0,1-4.077,4.349,15.219,15.219,0,0,1-7.032,1.565,24.258,24.258,0,0,1-13.57-4.483,29.459,29.459,0,0,1-6.339-5.992,35.946,35.946,0,0,1-5.063-8.835A158.42,158.42,0,0,0,275,229.7a51.288,51.288,0,0,1,2.473,13.7c.2,4.257-.077,10.058-2.506,13.519a6.212,6.212,0,0,1-5.33,2.81,13.316,13.316,0,0,1-5.64-1.53,11.534,11.534,0,0,1-3.195.468,10.263,10.263,0,0,1-4.561-1.064,12.156,12.156,0,0,1-3.694-2.851,16.883,16.883,0,0,1-3.992-9.016c-2.433,7.312-2.924,16.572-3.4,25.527a156.24,156.24,0,0,1-1.746,18.84,44.274,44.274,0,0,1-2.2,8.174,23.8,23.8,0,0,1-3.8,6.685,5.246,5.246,0,0,1-3.834,1.684,6.555,6.555,0,0,1-3.723-1.262,7.861,7.861,0,0,1-2.625-3.2,11.026,11.026,0,0,1-7.784-7.072c-1.337-3.329-1.721-7.292-2.093-11.125-.152-1.569-.3-3.051-.5-4.465-2.659,9.7-5.508,18.514-8.262,27.041-3.364,10.412-6.541,20.246-9.035,30.617a173.633,173.633,0,0,0-4.85,33.553,9.321,9.321,0,0,1,1.77,4.368,6.506,6.506,0,0,1-.706,3.726c-1.471,2.832-4.967,4.735-8.7,4.735a9.474,9.474,0,0,1-7.459-3.429,22.926,22.926,0,0,1-3.527-8.08,32.474,32.474,0,0,1-.691-8.786c.269-6.017,1.779-12.269,3.24-18.316.979-4.051,1.9-7.876,2.448-11.539a10.323,10.323,0,0,1-7.4-3.851c-1.066,4.179-.621,9.531-.229,14.253v.007q.064.771.124,1.516c-1.024,4-2.587,7.056-4.646,9.078a9.033,9.033,0,0,1-6.5,2.752,11.483,11.483,0,0,1-5.184-1.33,17.722,17.722,0,0,1-4.8-3.65,23.792,23.792,0,0,1-6.382-17.312c-.986,5.375-1.719,10.775-2.176,16.048a47.313,47.313,0,0,1,9.481,17.351,4.77,4.77,0,0,1-.676,4.372,6.493,6.493,0,0,1-5.094,2.407,5.957,5.957,0,0,1-1.093-.1,11.556,11.556,0,0,1-3.69,5.553,9.354,9.354,0,0,1-5.887,2.3,7.829,7.829,0,0,1-5.955-2.9,20.805,20.805,0,0,1-5.2-9.612,57.2,57.2,0,0,1-1.506-11.392,4.046,4.046,0,0,1-1.123-3.082,7.1,7.1,0,0,1,.818-3.02c-.106-1.85-.226-3.331-.378-4.66a51.355,51.355,0,0,0-2.256,14.621c-.118,4.928.244,9.971.6,14.848.238,3.314.485,6.739.576,10.087,7.393,4.163,15.855,5.917,24.039,7.614l1.216.252a3.283,3.283,0,0,1,2.416,2.537,3.433,3.433,0,0,1-.956,3.483,137.84,137.84,0,0,1,12.107,14.243l.017.022c.629.812,1.28,1.652,1.916,2.465,6.558,8.38,12.7,17.055,16.751,22.852l3.168,4.54.4.576c4.687,6.673,10,14.236,13.533,22.271,4.108,9.343,4.888,17.335,2.384,24.431a3.2,3.2,0,0,1-2.983,2.1,2.6,2.6,0,0,1-2.328-1.413,114.857,114.857,0,0,1-5.6-12.687c-1.476-3.748-3-7.623-4.861-11.282-3.779-7.424-8.529-14.427-13.123-21.2l-.408-.6-2.768-4.1c-4.162-6.186-9.011-13.5-13.411-20.838l-2.948-4.887a109.5,109.5,0,0,1-7.552-14.342,29.268,29.268,0,0,1-6.85.8,37.631,37.631,0,0,1-15-3.336l-.089.485-.177.871a7.567,7.567,0,0,1-7.12,5.395,5.571,5.571,0,0,1-3.352-1.079,31.249,31.249,0,0,1-9.654-12.12,45.982,45.982,0,0,1-3.726-15.078,59.366,59.366,0,0,1-4.524-9.436,18.343,18.343,0,0,1-2.665,8.75,8.961,8.961,0,0,1-7.854,3.925c-.117,0-.232,0-.351,0-4.642-.381-8.093-2.164-10.259-5.3-3.186-4.613-3.5-12.141-.9-21.2a14.4,14.4,0,0,1-4.176.679,9.2,9.2,0,0,1-4.67-1.2,10.073,10.073,0,0,1-3.323-3.222c-1.971-2.974-3.072-7.407-3.1-12.482a35.075,35.075,0,0,1,2.479-13.362,8.361,8.361,0,0,1-4.592-3.173l-.827,1.451c-3.012,5.215-6.476,10.426-11.388,13.22a10.556,10.556,0,0,1-5.214,1.35,11.6,11.6,0,0,1-8.289-3.5,9.558,9.558,0,0,1-2.659-7.247c1.043-9.942,7.606-18.177,13.953-26.142,2.526-3.169,4.911-6.163,6.979-9.268a11.736,11.736,0,0,1-1.634.113,12.979,12.979,0,0,1-2.381-.225,13.928,13.928,0,0,1-6.724,1.978,9.209,9.209,0,0,1-4.966-1.421,11.854,11.854,0,0,1-3.648-3.733,20.159,20.159,0,0,1-2.886-9.333,20.453,20.453,0,0,1,1.645-9.825c3.245-8.592,8.986-16.969,18.066-26.364l-2.163,1.292a39.422,39.422,0,0,1-5.14,2.638,14.4,14.4,0,0,1-5.39,1.183,9.824,9.824,0,0,1-2.016-.206c-5.72,3.758-11.13,5.745-15.644,5.745a10.782,10.782,0,0,1-6.809-2.114A8.243,8.243,0,0,1,3.449,247.9a11.4,11.4,0,0,1,.561-5.369,17.438,17.438,0,0,1,3.324-5.686c3.512-4.124,8.976-7.414,15.8-9.515l-.01-.145a10.533,10.533,0,0,1-2.075-12.694,17.807,17.807,0,0,1-5.914.972,19.614,19.614,0,0,1-8.643-1.993A12.049,12.049,0,0,1,.82,208.095c-1.145-2.4-1.664-6.31,2.365-11.274,7.459-7.024,15.254-11.887,23.168-14.452a26.912,26.912,0,0,1-.394-7l-.518.071c-.77.111-1.542.246-2.36.389a34.654,34.654,0,0,1-5.827.688c-3.533,0-5.9-1.257-7.444-3.955a9.112,9.112,0,0,1-1.049-5.342,7.059,7.059,0,0,1,2.347-4.846,100.356,100.356,0,0,1,15.5-10.613A66.514,66.514,0,0,1,43.841,145.1c.47-1.556.923-2.983,1.385-4.36a13.887,13.887,0,0,1-4.671-.949,17.68,17.68,0,0,1-4.328-2.4,15.159,15.159,0,0,1-5.56-7.534,8.517,8.517,0,0,1,.17-5.548,10.894,10.894,0,0,1,4.418-5.061,82.853,82.853,0,0,1,15.134-6.071,58.221,58.221,0,0,1,16.031-2.29c.5,0,1,.007,1.5.02a11.454,11.454,0,0,1-3.161-5.74,12.8,12.8,0,0,1,.27-6.317,12.37,12.37,0,0,1,9.188-8.8,12.954,12.954,0,0,1-1.367-5.9,9.365,9.365,0,0,1,1.477-4.778,14.01,14.01,0,0,1,6.52-5.135,23.832,23.832,0,0,1,9.077-1.776,22.606,22.606,0,0,1,4.04.355,14.679,14.679,0,0,1,1.882-8.252,10.38,10.38,0,0,1,6.54-5.085c-.795-4.656-.136-8.276,1.959-10.758a10.3,10.3,0,0,1,4.752-3.057,20.358,20.358,0,0,1,6.354-.9,45.914,45.914,0,0,1,14.619,2.79,11.279,11.279,0,0,1-.811-9.74,13.039,13.039,0,0,1,7.914-7.643,15.967,15.967,0,0,1,3.52-.391c3.786,0,7.828,1.3,12.358,3.983a96.9,96.9,0,0,1,11.241,8.226c1.4,1.13,2.719,2.2,4.009,3.187a12.418,12.418,0,0,1-.41-9.8,12.013,12.013,0,0,1,7.026-6.393,11.668,11.668,0,0,1,4.271-.79,19.328,19.328,0,0,1,8.069,2.073,70.344,70.344,0,0,1,7.477,4.243c.491.307.955.6,1.424.885a13.171,13.171,0,0,1,5.787-4.08,20.246,20.246,0,0,1,7.054-1.2c.394,0,.794.01,1.189.03a10.221,10.221,0,0,1,2.355-3.892,9.031,9.031,0,0,1,2.832-6.452A14.84,14.84,0,0,1,225.561,15.7a11.648,11.648,0,0,1,5.079,1.092A9.5,9.5,0,0,1,234.6,20.3,34.2,34.2,0,0,1,241.758,3.8,10.131,10.131,0,0,1,249.623,0a11.746,11.746,0,0,1,4.95,1.139,14.466,14.466,0,0,1,4.259,3.04,13.692,13.692,0,0,1,2.775,4.12,11.283,11.283,0,0,1,.951,4.834,12.041,12.041,0,0,1,4.639,2.609,12.11,12.11,0,0,1,3.393,4.774c.367-.024.735-.036,1.092-.036a15.225,15.225,0,0,1,7.659,2l.575-.708a61.664,61.664,0,0,1,11.565-11.252c4.556-3.233,9.017-4.872,13.259-4.872a18.062,18.062,0,0,1,10.017,3.189,9.938,9.938,0,0,1,3.76,4.45,10.208,10.208,0,0,1,.547,5.821l-.059.292.285-1.278a1.681,1.681,0,0,1,.095-.336,16.7,16.7,0,0,1-.4,2.066l-.021.059a9.238,9.238,0,0,1-.613,1.248c-.131.233-.254.452-.375.708a24.725,24.725,0,0,1,6.782-3.392,22.647,22.647,0,0,1,6.911-1.118,15.936,15.936,0,0,1,6.5,1.278,9.237,9.237,0,0,1,4.355,3.787c1.4,2.429,2.209,6.78-1.836,13.714L345,34.454a150.149,150.149,0,0,1,14.366-4.9A56.881,56.881,0,0,1,374.3,27.289a32.393,32.393,0,0,1,9.241,1.266,26.371,26.371,0,0,1,8.489,4.309,6.853,6.853,0,0,1,2.182,6.781,11.315,11.315,0,0,1-3.4,5.4,14.837,14.837,0,0,1-5.64,3.339l1.064-.178,1.577-.271c5.193-.9,12.3-2.122,19.008-2.122,5.163,0,9.374.746,12.514,2.216a13.2,13.2,0,0,1,4.5,3.329,12.27,12.27,0,0,1,2.6,5.306,8.812,8.812,0,0,1-1.328,7.18,14.437,14.437,0,0,1-5.8,4.687h.326A69.135,69.135,0,0,1,434.1,69.958a47.844,47.844,0,0,1,13.474,5.012,8.755,8.755,0,0,1,3.328,4.086,6.647,6.647,0,0,1,.058,4.319,9.172,9.172,0,0,1-3.587,4.643,11.042,11.042,0,0,1-6.225,1.937c-.179,0-.361,0-.54-.013a11.8,11.8,0,0,1,2.434,6.071,9.072,9.072,0,0,1-1.465,6.268,48.2,48.2,0,0,1,13.443,5.461l1.132.146c.525.065,1.066.131,1.588.193l.017,0a52.876,52.876,0,0,1,11.63,2.283,15.927,15.927,0,0,1,8.94,7.254c1.616,4.252,1.552,7.687-.188,10.21-1.977,2.866-6.123,4.445-11.673,4.445a31.975,31.975,0,0,1-15.422-3.962,10.338,10.338,0,0,1,1.306,3.2l3.3.928.413.115c12.3,3.421,26.25,7.3,34.188,17.674a8.876,8.876,0,0,1,1.209,5,11.355,11.355,0,0,1-1.45,5.073,9.759,9.759,0,0,1-2.95,3.3,7.249,7.249,0,0,1-4.145,1.309,7.758,7.758,0,0,1-1.8-.216,22.436,22.436,0,0,1,10.2,9.083,14.358,14.358,0,0,1,1.741,10.07,9.286,9.286,0,0,1-3,5.128,9,9,0,0,1-5.909,2.031,14.743,14.743,0,0,1-4.866-.9,25.9,25.9,0,0,1-5.7-2.935A7.509,7.509,0,0,1,470.26,189l4.3,2.332c5.694,3.117,11.554,6.61,15.844,11.025a22.841,22.841,0,0,1,5.034,7.5,17.19,17.19,0,0,1,.9,9.224,6.82,6.82,0,0,1-3.271,4.134,10.6,10.6,0,0,1-5.213,1.185,19.408,19.408,0,0,1-8.722-2.2,227.1,227.1,0,0,1,24.8,24.767l2.1,2.5a69.453,69.453,0,0,1,6.977,9.569,25.67,25.67,0,0,1,2.433,5.459,11.984,11.984,0,0,1,.463,5.311,9.462,9.462,0,0,1-4.826,6.559,11.978,11.978,0,0,1-5.421,1.421c-3.065,0-6.025-1.45-9.05-4.435a65.633,65.633,0,0,1-7.345-9.43c-2.283-3.318-4.438-6.451-6.7-8.539a12.274,12.274,0,0,1-5.224,16.228,12.09,12.09,0,0,1-5.753,1.5,10.773,10.773,0,0,1-5.883-1.736,13.464,13.464,0,0,1-4.726-5.636,11.969,11.969,0,0,1-2.061.18,11.838,11.838,0,0,1-1.574-.105c2.406,2.55,6.251,10.628,8.945,18.788a73.155,73.155,0,0,1,3.042,12.343c.581,4.146.423,7.3-.468,9.363a4.342,4.342,0,0,1-4.268,2.853,12.5,12.5,0,0,1-5.129-1.415,85.03,85.03,0,0,1-8.97-11.456c3.329,25.612,5.827,51.863,7.427,78.024l.567,9.447c.586,9.909,1.021,19.615-.083,29.407a95.853,95.853,0,0,1-3.366,16.571,106.52,106.52,0,0,1-6.125,15.769,128.552,128.552,0,0,1-17.169,26.39c-3.476,4.18-7.35,8.492-12.12,11.709-3.743,2.522-8.1,4.179-12.321,5.781a69.733,69.733,0,0,1-11.462,9.087,116.418,116.418,0,0,1-12.767,7.054,126.974,126.974,0,0,1-22.006,8.051,167.116,167.116,0,0,1-23.034,4.369A163.276,163.276,0,0,1,318.621,519.105ZM446.613,178.239h0l.189,1.035c.173.153.34.314.5.468l.2.191c.707.167,1.415.35,2.1.542-1.032-.836-2.093-1.6-2.994-2.237ZM459.253,153l-.222.308c-.034.045-.074.1-.117.148.688.261,1.292.5,1.846.719l.918.376.324.142C461.014,154.074,460.115,153.519,459.253,153ZM310.788,26.21v0c-.3.23-.685.486-.886.617l.25-.021c.193-.017.391-.034.589-.045.355-.265.729-.541,1.112-.821l-.552.137-.5.119-.051.012a.6.6,0,0,0-.109.031Z" transform="translate(-38 -13.959)"/></g></svg>