<svg xmlns="http://www.w3.org/2000/svg" width="550" height="567" viewBox="0 0 550 567"><g transform="translate(76)"><path d="M344.825,46.573C314.77,5.207,259.432-6.689,211.442,3.372,117.623,20.474,27.988,92.051,11.411,189.4c-25.863,58.891-9.347,151.65,65.868,158.58,10.708.6,21.315-1.861,32.043-.53,65.471,10.458,142.838,55.226,200.793,2.431,2.9,2.081,6.731,3.087,9.988,1.828,24.668-9.533,25.827-37.11,27.93-59.779q4.075-43.936,7.641-87.917c.849-50.562,20.89-113.745-10.849-157.435Z" transform="translate(47 121)" fill="#d08b5b"/><path d="M154.8,476.483a37.486,37.486,0,0,1-3.925-.207,42.264,42.264,0,0,1-15.728-4.905,35.008,35.008,0,0,1-12.052-10.635,114.786,114.786,0,0,1-25.55,10.6l-.945.259c-6.25,1.7-14.452,3.655-22.471,3.655a39.6,39.6,0,0,1-8.73-.909,27.692,27.692,0,0,1-8-3.125,25.6,25.6,0,0,1-11.08-14.243,34.893,34.893,0,0,1-.94-18.247,33.26,33.26,0,0,1,1.18-4.109c-1.447.077-2.892.116-4.294.116a67.592,67.592,0,0,1-20-2.886,38.391,38.391,0,0,1-11.28-5.5,25.972,25.972,0,0,1-8.16-9.421,28.4,28.4,0,0,1-2.8-13.68,44.937,44.937,0,0,1,2.852-13.8,110.928,110.928,0,0,1,23.74-37.92c9.113-9.758,20.655-18.885,34.3-27.128l2.1-1.255a155.592,155.592,0,0,1,17.583-9.424c7.1-3.08,13.338-4.578,19.07-4.578.416,0,.836.008,1.248.024a4.676,4.676,0,0,1-.09-.5c-1.521-11.2-1.755-22.748-1.982-33.913v-.024c-.071-3.5-.145-7.117-.257-10.663-.113-3.577-.23-7.184-.344-10.672-.324-9.933-.66-20.2-.9-30.318-.466-20.806-.511-45.352,2.68-69.66a233.531,233.531,0,0,1,5.877-30.25A173.375,173.375,0,0,1,116.38,94.216a131.8,131.8,0,0,1,17.246-27.294A140.3,140.3,0,0,1,156.85,44.486a191.34,191.34,0,0,1,29.089-18.294,226.161,226.161,0,0,1,32.1-13.372A255.427,255.427,0,0,1,251.818,4.2,267.122,267.122,0,0,1,285.93.166C288.006.056,290.219,0,292.507,0c19.564,0,46.192,4.065,73.056,11.153a354.523,354.523,0,0,1,37.146,11.9,185.8,185.8,0,0,1,29.962,14.311,114.559,114.559,0,0,1,33.1,30.937,134.2,134.2,0,0,1,17.914,35.261,149.135,149.135,0,0,1,6.957,31.016c1.008,9.084.756,15.484.233,18.2a13.017,13.017,0,0,1-2.18,5.295,5.217,5.217,0,0,1-4.167,2.337,5.4,5.4,0,0,1-1.652-.273c3.119,26.469,3.4,43.455,3.779,66.964v.018c.071,4.359.145,8.867.24,13.738l.426,21.03c.262,13.3.513,27.6.574,42.069a2.829,2.829,0,0,1,.989-.184,2.491,2.491,0,0,1,2.351,1.665.262.262,0,0,1-.02.253.365.365,0,0,1-.3.144.338.338,0,0,1-.221-.077,1.808,1.808,0,0,0-.953-.548.276.276,0,0,0-.266.176c-.343.741.773,3.484,1.359,4.172a21.29,21.29,0,0,0,3.053,2.683l.007.006c.538.418,1.047.813,1.5,1.2l3.774,3.268,3.776,3.262c3.955,3.413,9.137,7.97,14.143,12.956l1.237,1.244c1.881,1.91,3.915,3.849,5.881,5.724l.01.01c6.864,6.543,13.961,13.31,17.949,21.726a27.806,27.806,0,0,1,2.53,16.031,25.914,25.914,0,0,1-7.31,14.449,34.749,34.749,0,0,1-10.24,7.051,38.141,38.141,0,0,1,5.5,18.445,33.421,33.421,0,0,1-4.811,18.685,34.164,34.164,0,0,1-13.365,12.3,38.137,38.137,0,0,1-17.582,4.3c-.873,0-1.756-.031-2.623-.092a19.792,19.792,0,0,1-1.84,4.73,18.3,18.3,0,0,1-4.093,5.136,18.715,18.715,0,0,1-5.217,3.152,32.7,32.7,0,0,1-12.363,2.021c-1.109,0-2.254-.031-3.5-.1l-.379-.021c-22.845-1.314-43.775-7.175-62.21-17.42-.255.017-.514.026-.769.026a12.985,12.985,0,0,1-8.475-3.36,14.619,14.619,0,0,1-4.656-7.687c-3.316-.122-6.787-.394-10.61-.83a110.534,110.534,0,0,1-15.952-2.9,61.6,61.6,0,0,1-15.008-6.032,1.545,1.545,0,0,1-.739-1.776,1.67,1.67,0,0,1,1.568-1.286c1.674-.038,3.491-.057,5.556-.057,2.016,0,4.066.017,6.048.034h.1c2.01.017,4.088.035,6.131.035a153.1,153.1,0,0,0,16.475-.722,121.694,121.694,0,0,0,31.42-7.951,86.658,86.658,0,0,0,23.934-14.28,68.291,68.291,0,0,0,17-21.451,78.286,78.286,0,0,0,5.362-14.109,112.887,112.887,0,0,0,3.02-14.879c1.4-10.092,1.768-20.492,2.118-30.549v-.016c.13-3.715.264-7.556.449-11.255,1.122-22.423,2.583-47.1,4.6-77.656l.827-12.4a541.021,541.021,0,0,1,7.225-62.2c-.36.032-.754.048-1.17.048-3.671,0-9.653-1.236-16.412-3.393a152.233,152.233,0,0,1-23.229-9.719,129.156,129.156,0,0,1-23.5-15.355c-7.73-6.465-13.527-13.3-17.228-20.3a52.979,52.979,0,0,1-6.048,9.839,61.767,61.767,0,0,1-7.976,8.439,95.061,95.061,0,0,1-20.705,13.5,213.593,213.593,0,0,1-25.329,10.362c-8.986,3.115-18.6,6.042-27.9,8.872-25.072,7.634-51,15.528-70.992,28.686A95.2,95.2,0,0,0,226,200.934a74.257,74.257,0,0,0-11.032,13.412,70.349,70.349,0,0,0-7.655,16.361,83.783,83.783,0,0,0-3.678,19.79.559.559,0,0,1-.6.54.85.85,0,0,1-.868-.741l-.13-2.309c-.059-1.081-.119-2.239-.158-3.378l-.031-1.112-2.47.031a.288.288,0,0,1-.291.29.271.271,0,0,1-.259-.2,6.039,6.039,0,0,0-3.372-3.566,13.1,13.1,0,0,0-5.363-.965,33.5,33.5,0,0,0-9.526,1.62A43.388,43.388,0,0,0,168.43,247a42.449,42.449,0,0,0-9.569,9.5,32.422,32.422,0,0,0-5.451,12.263,33.653,33.653,0,0,0-.142,12.856,40.148,40.148,0,0,0,4.3,12.079,46.759,46.759,0,0,0,7.714,10.4,46.279,46.279,0,0,0,10.1,7.833c3.855,2.2,7.929,4.1,11.87,5.944a117.915,117.915,0,0,1,16.23,8.645,115.461,115.461,0,0,1,21.34,18.39,127.8,127.8,0,0,1,16.513,23.142A125.77,125.77,0,0,1,252.481,394.7a107.373,107.373,0,0,1,4.265,28.317,88.237,88.237,0,0,1-4.136,28.126c-.9,2.782-3.292,5.98-6.43,6.43a22.983,22.983,0,0,1-3.25.248,13.307,13.307,0,0,1-5.694-1.138,10,10,0,0,1-4.4-4.079,11.256,11.256,0,0,1-1.56-6.33,25.957,25.957,0,0,1-5.8,9.825,26.585,26.585,0,0,1-8.812,6.555,26.029,26.029,0,0,1-10.293,2.1,27.263,27.263,0,0,1-14.467-4.171l-.918.679a103.9,103.9,0,0,1-17.077,10.583A44.649,44.649,0,0,1,154.8,476.483ZM202.981,296.5a5.412,5.412,0,0,1-5.161-3.528l-.86-1.989a75.242,75.242,0,0,0-5.012-9.907,28.8,28.8,0,0,0-7.287-8.165,18.2,18.2,0,0,0-10.6-3.615,13.44,13.44,0,0,0-10.215,4.455.446.446,0,0,1-.337.162.544.544,0,0,1-.45-.277.5.5,0,0,1-.013-.505,15.454,15.454,0,0,1,7-6.689,21.69,21.69,0,0,1,9.552-2.1,25.251,25.251,0,0,1,4.228.358c4.918.838,9.565,3.292,14.206,7.5a95.976,95.976,0,0,1,10.763,12.308c1.923,2.471,2.329,5.166,1.144,7.589a7.974,7.974,0,0,1-2.927,3.183A7.738,7.738,0,0,1,202.981,296.5Z" transform="translate(-76 62)"/></g></svg>