<svg xmlns="http://www.w3.org/2000/svg" width="474" height="570" viewBox="0 0 474 570"><g transform="translate(0 3)"><path d="M178.112,0C234.892,0,318,37.916,324.252,74.4c7.366,42.99,23.725,204.643,14.818,257.543s-43.635,91.986-120.433,91.986S84.517,382.043,71.356,367.663s-29.11-59.129-29.11-59.129S.2,301.406,0,267.887,21.126,224.01,21.126,224.01,9.621,84.961,33.8,50.522,121.331,0,178.112,0Z" transform="translate(63.93 75.26)" fill="#d08b5b"/><path d="M201.112,508.046c-8.13-.85-16.54-.76-22.481-6.92-1.63-1.69-1.609-5.161.8-6.26,4.59-2.09,7.7-2.31,12.73-1.62,4.17.569,8.35,1.02,12.55,1.31a185.131,185.131,0,0,0,27.061-.04A141.012,141.012,0,0,0,280.251,481.5c23.55-11.12,43.781-29.342,54.7-53.25,12.69-27.75,11.87-59.9,11.28-89.72-.651-32.7-1.859-65.3-4.7-97.89-1.38-15.8-3.51-31.49-5.43-47.219q-1.517-12.54-3.971-24.94c-.859-4.371-1.979-8.681-2.9-13.02a17.14,17.14,0,0,1-2.049.2c-4.181.141-8.751-.879-11.851-3.849a8.67,8.67,0,0,1-4.519,1.41c-17.19.849-34.65-.2-51.871-.21q-25.92-.015-51.861.049c-17.269.049-34.589.211-51.849-.25-16.07-.429-32.681-.079-48.54-3.02-5.33,18.94-5.141,39.75,5.97,56.67,3.139,4.77.59,10.39-3.5,13.37-4.181,3.041-11.7,7.7-18.126,8.183-.623,1.4-1.263,2.791-1.871,4.18A143.884,143.884,0,0,0,81.4,253.622c-1,3.816-1.855,7.695-2.577,11.6.058.683.12,1.365.193,2.046a1.807,1.807,0,0,0,.02.22c.041.281.09.6.121.78.37,1.96.729,3.92,1.12,5.871q1.4,7.124,2.16,14.349c.931,8.8.841,20.241-7.74,25.451-4.59,2.79-10.09,2.5-14.941.629a62.863,62.863,0,0,1-9.029-4.789c-1.78-1.041-3.641-1.89-5.381-2.97a10.675,10.675,0,0,1-1.369-1.04,37.493,37.493,0,0,0-8.2,2.86,42.673,42.673,0,0,0-12.521,9.74c-7.569,8.39-9.84,20.21-8.78,31.18.989,10.21,5,21.939,13.069,28.731a19.115,19.115,0,0,0,12.521,4.639,26.292,26.292,0,0,0,6.581-1.08c2.17-.57,4.849-.4,6.85-1.2,2.969-1.19,6.629,2.44,5.42,5.42-.911,2.24-1.43,4.22-2.571,5.97a453.551,453.551,0,0,0,27,39.191c8.7,11.32,18.941,20.839,28.62,31.21,4.271,4.58,6.052,13.6-1.678,15.558-7.71,1.971-13.47-6.309-17.9-11.338-18.349-20.87-32.219-44.832-38.71-71.88a21.907,21.907,0,0,1-9.831,3.7,31.906,31.906,0,0,1-20.359-3.99c-23.4-13.51-29.061-50.02-18.1-72.9A41.222,41.222,0,0,1,16.687,307.33a3.346,3.346,0,0,1-.282-2.461c.423-1.58.888-3.143,1.376-4.7a1.368,1.368,0,0,1-.85-1.454q.66-6.75,1.3-13.5c-.151-6.8-.482-13.59-.4-20.43.122-10.9.781-21.79.822-32.691.13-38.02,1.679-76,1.789-114.019.059-18.591.1-37.21-.391-55.79-.01-.25-.01-.49-.019-.741-.4-14.87-4.34-34.77,10.2-44.391a8.653,8.653,0,0,1,7.97-.579c7.48-5.21,16.86-7.721,25.83-9.171,17.09-2.759,34.33-4.09,51.539-5.84A226.9,226.9,0,0,1,143.042.506c4.705.1,9.444-.067,14.189-.238,4.47-.16,8.948-.32,13.412-.252,10.439.17,20.96.56,31.44,1.42.49-.05.991-.09,1.48-.14,19.72-1.891,39.41-.191,59.12.64,18.779.79,38.609,2.73,55.47,11.719a25.958,25.958,0,0,1,5.572,3.928,17.683,17.683,0,0,1,6.176,1.979c5.428-1.1,11.488,1.335,12.772,7.634a87.529,87.529,0,0,1,1.46,27.9c-.029.219-.05.45-.08.689a58.191,58.191,0,0,1,.232,26.734q1.191,16.232,1.31,32.51c.044,7.5.378,15.126-.319,22.6-.614,6.57-3.318,11.769-7.573,16.759a3.4,3.4,0,0,1-3.283.868,4.258,4.258,0,0,1-.777-.234c2.565,5.5,4.594,11.333,6.672,16.9a249.969,249.969,0,0,1,8.769,27.049,378.3,378.3,0,0,1,9.391,56.361c3.109,33.79,4.28,67.87,4.881,101.79.58,32.14-2.25,65.659-20.561,93.14-16.009,24.04-40.389,41.49-67.54,50.909-15.45,5.37-32.559,7.36-48.879,7.85q-2.638.078-5.278.078A193.762,193.762,0,0,1,201.112,508.046ZM61.262,360.586c-5.57-3.65-8.28-10.34-13.071-14.92a56.373,56.373,0,0,0-7.58-6.011,29.984,29.984,0,0,0-3.749-2.359c-.131-.061-5.611-1.84-4.55.51.36.78-.58,1.65-1.25.96-1.9-1.93-.84-4.251.97-5.971,3.269-3.109,8.149-2.39,12.16-1.65a42.875,42.875,0,0,1,15.7,6.6c5.061,3.371,11.31,8.041,12.31,14.431.716,4.62-2.749,9.612-7.187,9.612A6.817,6.817,0,0,1,61.262,360.586Z" transform="translate(54.999 -3)"/></g></svg>