<svg xmlns="http://www.w3.org/2000/svg" width="539.998" height="601" viewBox="0 0 539.998 601"><g transform="translate(65.998 34)"><path d="M101.559.333C253.129-7.12,355.969,112.412,360.393,160.078c3.071,33.088.987,77.215.987,106.781,0,15.092,7.615,60.965-.987,82.962-19.147,48.959-40.778,87.308-100.715,87.308S108.369,406.064,76.994,366C71.265,358.681.081,305.131.081,263.038.081,173.233-6.593,5.652,101.559.333Z" transform="translate(47.928 63.534)" fill="#d08b5b"/><path d="M363.278,541.535a118.416,118.416,0,0,1-30.586-4.072l-1.274-.346a118.572,118.572,0,0,1-17.831-6.252,66.083,66.083,0,0,1-8.372-4.527,43.639,43.639,0,0,1-7.173-5.706A6.167,6.167,0,0,1,296.3,517a7.866,7.866,0,0,1,.566-3.981,6.216,6.216,0,0,1,5.573-4.191,6.017,6.017,0,0,1,2.222.446,104.262,104.262,0,0,1,9.835,4.735c2.9,1.522,5.889,3.095,8.975,4.385a109.278,109.278,0,0,0,41.377,8.218,104.077,104.077,0,0,0,14.143-.958,96.4,96.4,0,0,0,31.518-10.063,102.588,102.588,0,0,0,26.1-19.467,107.406,107.406,0,0,0,18.978-26.6,106.04,106.04,0,0,0,10.155-31.468c1.847-11.841,1.883-23.781,1.745-37.042l-.142-13.549c-.1-10.256-.167-22.187.266-34.007.5-13.872,1.466-28.157,2.94-43.671l.719-7.555c.778-8.061,1.752-17.42,3.471-26.466h-.008c-1.312,0-10.9-16.253-18-28.48a12.443,12.443,0,0,1-4.707-6.622,10.208,10.208,0,0,1-.269-1.742c-1.3-2.044-2.676-4.035-4.087-5.917l-.313-.14c-.24-.109-.426-.2-.539-.264a19.638,19.638,0,0,1-4.275-3.291,20.981,20.981,0,0,1-3.267-4.3,20.339,20.339,0,0,1-1.5-3.273,106.119,106.119,0,0,0-8.036-7.142c-.156-.125-.318-.247-.474-.364-.121-.091-.245-.185-.366-.279a20.186,20.186,0,0,1-9-6.239c-.946-.586-1.919-1.172-2.89-1.74a23.557,23.557,0,0,1-8.722-1.884,41.2,41.2,0,0,1-7.1-4.095,37.968,37.968,0,0,0-7.594-4.281,8.671,8.671,0,0,0-3.093-.535,23.473,23.473,0,0,0-6.245,1.2l-.07.02a23.813,23.813,0,0,1-6.446,1.218,10.509,10.509,0,0,1-1.494-.1,15.211,15.211,0,0,1-4.4-1.343,84.051,84.051,0,0,1-10.763,9.765c-5.732,4.282-11.542,6.186-18,8.066-3.293,3.125-6.939,6.077-11.274,6.511a229.578,229.578,0,0,1-32.438,21.317,11.213,11.213,0,0,1-5.4,1.5,45.854,45.854,0,0,1-11.629,5.179,9.57,9.57,0,0,1-2.665.372,10.589,10.589,0,0,1-1.277-.079l-3.586,2.921a12.766,12.766,0,0,1-7.7,3.066c-1.484,1.136-3.058,2.245-4.81,3.389a10.18,10.18,0,0,1-5.6,1.523c-.257,0-.518-.008-.777-.024a10.551,10.551,0,0,1-7.488,3.126,11.533,11.533,0,0,1-4.436-.9c-.587.343-1.12.625-1.675.886a18.65,18.65,0,0,1-2.567.988,18.957,18.957,0,0,1-13.844,6.061,18.481,18.481,0,0,1-1.846-.093,26.291,26.291,0,0,1-6.314,2.812,23.894,23.894,0,0,1-6.734.99c-.463,0-.93-.015-1.388-.043-.728,3.656-1.355,7.41-1.918,11.477l-.054,2.812c-.007.477-.007.819,0,1.045l0,.093c.247,6.251.44,12.608.627,18.756v.029c.182,5.969.369,12.141.606,18.211l.044.973c.045.882.1,1.818.166,2.808v.018c.492,7.851,1.166,18.6-3.816,23.908a9.757,9.757,0,0,1-3.505,2.388,13.35,13.35,0,0,1-4.979.872c-.164,0-.334,0-.5-.007a18.949,18.949,0,0,1-8.665-2.759,63.063,63.063,0,0,1-7.685-5.318l-.647-.5c-.36-.279-.722-.562-1.076-.841-1.219-.158-2.451-.369-3.642-.573a50.724,50.724,0,0,0-6.645-.836c-.544-.019-1.1-.029-1.655-.029A50.618,50.618,0,0,0,155,347.3c-8.518,1.979-15,5.724-19.28,11.13-.368.464-.743.988-1.18,1.65a8.708,8.708,0,0,1-1.69,3.13,32.019,32.019,0,0,0-2.035,16.846A46.942,46.942,0,0,0,147.4,410.316a48.294,48.294,0,0,0,15.891,8.626l.6.19c8.045,2.513,11.181,7.368,15.522,14.086l.138.214a143.221,143.221,0,0,0,13.99,18.08c3.083,3.432,6.621,6.741,10.043,9.94,7.606,7.111,15.47,14.464,19.417,24.029a3.054,3.054,0,0,1-.327,2.94,4.4,4.4,0,0,1-3.51,1.9,3.314,3.314,0,0,1-.894-.12,38.359,38.359,0,0,1-12.794-6.6,116.475,116.475,0,0,1-10.8-9.7l-.011-.01-.844-.823c-5.417-5.281-10.163-10.341-14.509-15.469a10.417,10.417,0,0,1-3.113.875,33.677,33.677,0,0,1-4.107.267,18.531,18.531,0,0,1-9.991-2.535c-.2.019-.412.028-.618.028a7.33,7.33,0,0,1-4.892-1.916,24.4,24.4,0,0,1-3.6-4.125c-.837.074-1.562.109-2.216.109a13.775,13.775,0,0,1-2.273-.172,5.75,5.75,0,0,1-1.985-.548,8.712,8.712,0,0,1-3.231-2.222,9.2,9.2,0,0,1-2.11-3.8,10.943,10.943,0,0,1-.314-4.354,10.334,10.334,0,0,1-1.189-.32,10.718,10.718,0,0,1-6.088-5.182,22.765,22.765,0,0,1-6.117-5.045,21.936,21.936,0,0,1-4.323-7.853,18.7,18.7,0,0,1-2.614-1.472,18.253,18.253,0,0,1-6.678-8.251,15.088,15.088,0,0,1-.406-10.493l.08-.221c.115-.306.334-.853.6-1.47l-.007-.095c-.036-.457-.073-.93-.1-1.4l-.083-1.5-1.2-.51a20.089,20.089,0,0,1-7.368-4.542,12.851,12.851,0,0,1-3.408-7.816,5.934,5.934,0,0,1,1.246-4.01l0-.374c-.421-.217-.787-.425-1.088-.616a11.088,11.088,0,0,1-3.839-4.184,10.566,10.566,0,0,1-1.217-5.521c.21-3.574,2.22-6.412,4.36-8.945l.627-.73.117-.132.057-.064-1.453-.457a13.814,13.814,0,0,1-2.428-.947,14.127,14.127,0,0,1-5.7-5.482l-.09-.141c-.151-.235-.306-.478-.447-.735a12.909,12.909,0,0,1-.787-9.933,9.847,9.847,0,0,1,.448-1.079,12.622,12.622,0,0,1-5.621-3.715,12.619,12.619,0,0,1-1.152-13.647,13.9,13.9,0,0,1-.138-4.107,11.143,11.143,0,0,1-3.3-5.4,10.013,10.013,0,0,1,.388-5.955,20.229,20.229,0,0,1,3.238-5.564,12.129,12.129,0,0,1,.093-8.822,15.039,15.039,0,0,1-.723-4.444,14.648,14.648,0,0,1,.708-4.7,15.085,15.085,0,0,1,2-3.958,12.1,12.1,0,0,1-2.469-4.926A9.209,9.209,0,0,1,85.153,269a45.392,45.392,0,0,1,3.457-7.1,14.458,14.458,0,0,1-1.093-5.594,13.283,13.283,0,0,1,.969-5.057,14.4,14.4,0,0,1,2.578-4.071,12,12,0,0,1,.647-6.816,9.179,9.179,0,0,1,4.44-4.957,34.963,34.963,0,0,1,5.931-2.1c.911-2.846,1.8-5.473,2.709-8.029,1.445-4.047,3.062-8.218,4.807-12.4a32.616,32.616,0,0,1-3.073,2.386,44.214,44.214,0,0,1-11.575,10.2,14.861,14.861,0,0,1-7.53,2.145,13.1,13.1,0,0,1-6.994-2.012,14.161,14.161,0,0,1-5.077-5.7,17.253,17.253,0,0,1-10.273,3.678,14.8,14.8,0,0,1-1.728-.1,13.573,13.573,0,0,1-6.825-2.77,11.165,11.165,0,0,1-4.007-6.12,10.348,10.348,0,0,1-.3-2.318,34.937,34.937,0,0,1-9.17,5,6.338,6.338,0,0,1-1.972.316,6.978,6.978,0,0,1-4.661-1.872,7.4,7.4,0,0,1-2.4-4.463,6.934,6.934,0,0,1,.733-4.274l-.41-.161c-.061-.026-.133-.057-.2-.09a9.258,9.258,0,0,1-4.722-5.1,9.5,9.5,0,0,1-3.439.649,8.693,8.693,0,0,1-5.1-1.6,8.465,8.465,0,0,1-3.2-4.6,36.521,36.521,0,0,1-.5-18.609,21.4,21.4,0,0,1-6.134-7.1,23.2,23.2,0,0,1-.124-22.043,7.787,7.787,0,0,1-4.482-4.587,9.934,9.934,0,0,1,.334-7.97A10.673,10.673,0,0,1,1.742,126.8a7.717,7.717,0,0,1-1.254-3.466,8.956,8.956,0,0,1,.594-4.144A18.5,18.5,0,0,1,4.3,113.858a27.748,27.748,0,0,1,4.689-4.335,31.145,31.145,0,0,1-3.3-8.391A7.761,7.761,0,0,1,.076,94.541,8.046,8.046,0,0,1,1.47,88.791a8.256,8.256,0,0,1,4.713-3.228,25.217,25.217,0,0,1,1.589-3.851,16.821,16.821,0,0,1-1.216-7.4A19.824,19.824,0,0,1,8.6,66.6a16.762,16.762,0,0,1,4.2-5.366,22.444,22.444,0,0,1,5.755-3.484c-1.08-3.7.36-7.4,3.95-10.14a52.75,52.75,0,0,1,14.279-7.744,16.4,16.4,0,0,1,1.609-8.617,11.4,11.4,0,0,1,6.41-5.674,14.362,14.362,0,0,1,4.846-.762h.084a17.3,17.3,0,0,1,5.922-6.728,8.262,8.262,0,0,1,4.86-1.41c3.858,0,7.528,1.982,8.925,4.819l.109.233c.069.156.143.306.213.45l.007.013c.045.092.09.184.134.278a11.844,11.844,0,0,1,3.193-5.988,13.043,13.043,0,0,1,3.932-2.8,9.811,9.811,0,0,1,3.995-.847,13.017,13.017,0,0,1,5.058,1.129,29.032,29.032,0,0,1,2.9-5.511,13.075,13.075,0,0,1,4.55-4.208,11.024,11.024,0,0,1,5.306-1.353,11.679,11.679,0,0,1,6.406,1.951A19.009,19.009,0,0,1,112.085.873a17.855,17.855,0,0,1,5.3-.873c5.052,0,9.235,2.644,12.787,8.082a6.029,6.029,0,0,1,1.166-.116,6.226,6.226,0,0,1,1.474.183c.266.065.937.325,1.213.434a6.3,6.3,0,0,1,.906.479l.168-.089A13.093,13.093,0,0,1,137.162,7.1a6.841,6.841,0,0,1,4-1.341,6.624,6.624,0,0,1,.971.073l.748-.275a18.97,18.97,0,0,1,6.243-1.1,14.926,14.926,0,0,1,6.238,1.306,13.881,13.881,0,0,1,5.18,4.106,17.355,17.355,0,0,1,2.1,3.5,13.176,13.176,0,0,1,3.571,1.8,13.209,13.209,0,0,1,2.353-.854,15.276,15.276,0,0,1,3.795-.478,16.3,16.3,0,0,1,9.722,3.3,14.87,14.87,0,0,1,4.293,5.181,11.832,11.832,0,0,1,3.465,1.455,19.363,19.363,0,0,1,2.893-1.216,30.338,30.338,0,0,1,8.918-1.319c.764,0,1.536.029,2.293.085a13.418,13.418,0,0,1,6.594,2.42,13.97,13.97,0,0,1,4.615,5.284,9.714,9.714,0,0,1-.72,10.042l-.167.239a29.044,29.044,0,0,0-1.832,2.945,23.517,23.517,0,0,1,5.514,3.376,21.3,21.3,0,0,1,4.958,5.8,23.593,23.593,0,0,1,2.586,6.8,40.408,40.408,0,0,1,.053,14.951l-.067.418h.02a7.536,7.536,0,0,1,5.926,3.962,5.546,5.546,0,0,1-.237,5.523l-.129.206c-2.215,3.421-4.272,7.134-6.261,10.724-1.225,2.211-2.492,4.5-3.792,6.711a159.412,159.412,0,0,0-27.145,12.687,124.383,124.383,0,0,0-14.911,15.139,86.657,86.657,0,0,0-6.175,8.679,4.512,4.512,0,0,0,1.965.462,4.361,4.361,0,0,0,2.986-1.234c13.116-12.154,29.6-21.648,48.99-28.218a4.408,4.408,0,0,0,2.629-2.253,197.927,197.927,0,0,1,24.381-5.3c1.136-1.083,2.317-2.158,3.46-3.2l.007,0h0c1.136-1.034,2.311-2.1,3.436-3.176a7.253,7.253,0,0,1,9.193-.981c1.289-.588,2.631-1.123,4.1-1.635l.863-.294c.156-.051.311-.106.46-.16.2-.07.4-.142.6-.2a40.41,40.41,0,0,1,11.988-1.779,63.532,63.532,0,0,1,15.993,2.348l1.216.317a21.035,21.035,0,0,0,5.469.8,24.13,24.13,0,0,0,6.032-.9l.482-.124a37.454,37.454,0,0,1,9.219-1.425,18.514,18.514,0,0,1,4.864.609c5.095,1.368,8.436,4.574,11.422,7.739l.332.354a4.547,4.547,0,0,0,4.03,1.8c.132,0,.276,0,.44,0l2.171-.064c1.17-.032,2.136-.047,3.038-.047a36.883,36.883,0,0,1,10.312,1.171,19.715,19.715,0,0,1,9.006,5.335,35.983,35.983,0,0,1,6.164,8.688l.212.452c.072.158.136.286.184.381a13.213,13.213,0,0,0,1.744-.486,11.784,11.784,0,0,1,1.158-.34,26.9,26.9,0,0,1,5.1-.512c6.7,0,12.425,2.855,17.014,8.486.648.8,1.482,2.01,2.289,3.184.757,1.1,1.539,2.239,2.173,3.042a15.737,15.737,0,0,1,1.3,1.246,12.853,12.853,0,0,0,5.381,1.443c.789.1,1.533.187,2.237.327a35.893,35.893,0,0,1,9.691,3.179,19.313,19.313,0,0,1,4.13,2.862,15.255,15.255,0,0,1,3.136,4.031,27.861,27.861,0,0,1,2.377,7.707l.009.046q.059.288.118.575a17.482,17.482,0,0,1,5.291,5.814,28.369,28.369,0,0,1,1.8,3.9,22.377,22.377,0,0,0,2.413,4.827,13.688,13.688,0,0,0,4.628,3.582l.017.009c.264.15.537.3.8.459l.76.446a34.176,34.176,0,0,1,7.708,5.878,19.88,19.88,0,0,1,4.742,8.4l.168.612c.046.153.107.343.178.564.341,1.06.855,2.66.594,3.018a.169.169,0,0,1-.144.072.414.414,0,0,1-.171-.046,8.057,8.057,0,0,0,2,.619c.374.083.726.16.994.249,4.669,1.546,7.882,3.959,9.822,7.378,1.5,2.638,1.886,5.367,2.3,8.255l0,.019q.065.455.132.915l.2,1.3c.054.33.117.7.176,1.034l.065.348.012.008c.74.32,1.475.671,2.183,1.041a11.048,11.048,0,0,1,5.706,9.467,8.472,8.472,0,0,1-1.493,4.815,14.371,14.371,0,0,1,1.688,3.525,18.957,18.957,0,0,1,.6,7.862,44.828,44.828,0,0,1-2.075,8.941c-.139.439-.244.936-.356,1.463a10.421,10.421,0,0,1-.7,2.393,6.067,6.067,0,0,1,1.424,4.412,10.582,10.582,0,0,1-.991,3.4,6.375,6.375,0,0,1-2.3,2.664,54.365,54.365,0,0,1-5.182,13.771,5.455,5.455,0,0,1-.85,1.21c.166,9.08-.15,18.342-.455,27.3-.227,6.655-.461,13.536-.5,20.281-.082,15.624.2,32.509.87,51.62.178,5.013.441,10.148.695,15.114v.013c.6,11.687,1.217,23.771.81,35.6a162.34,162.34,0,0,1-1.5,17.646,116.589,116.589,0,0,1-3.794,17.357,112.855,112.855,0,0,1-15.221,31.506,120.74,120.74,0,0,1-23.919,25.553,115.427,115.427,0,0,1-65.95,25.27C367.424,541.477,365.344,541.535,363.278,541.535Zm-177.4-144.686a5.308,5.308,0,0,1-2.556-.686c-2.351-1.28-4.057-3.437-5.708-5.522a37.936,37.936,0,0,0-2.821-3.3,45.324,45.324,0,0,0-9.519-7.15c-7-4.039-14.288-5.731-23.08-7.029a.642.642,0,0,1-.594-.582,1.033,1.033,0,0,1,.594-1.039,31.935,31.935,0,0,1,11.681-2.064,44,44,0,0,1,15.468,2.913l.614.238a58.561,58.561,0,0,1,12.67,6.856c4.8,3.542,7.563,7.212,8.206,10.905a5.7,5.7,0,0,1-1.219,4.666A4.9,4.9,0,0,1,185.877,396.849Z" transform="translate(-66 -34.001)"/></g></svg>