<svg xmlns="http://www.w3.org/2000/svg" width="474" height="579.999" viewBox="0 0 474 579.999"><g transform="translate(0 12.999)"><path d="M347.143,250.549c.514-25.093-1.814-50.809-14.008-73.237-10.588-21.05-26.3-39.3-42.423-56.282C283.984,113.943,275,106.8,275.84,96.059c.883-11.273,7.664-35.693,8.71-47.068,2.058-22.366-13.95-28.521-32.664-39.149-22.57-12.819-49.541-11.336-74-5.581C132.26,15.147,78.049,33.214,60.809,81.558c-4.144,11.923-3.11,24.472-3.935,36.84-.773,11.577-5.408,22.6-9.85,33.181C23.54,203.863,23.752,261.591,28.016,317.71c-12.54,2.9-24.665,12.7-27.429,25.7-4.632,22.762,19.24,33.284,33.34,45.587,17.2,15,29.714,34.422,45.346,50.906C180.707,551.742,404.531,500.267,358,326.062,351.687,301.307,346.2,276.265,347.143,250.549Z" transform="translate(46 -8)" fill="#d08b5b"/><path d="M121.211,4.261c24.219-5.7,50.9-7.208,73.327,5.2l2.355,1.325c17.982,10.067,32.984,16.509,30.987,38.2-1.046,11.375-7.827,35.8-8.71,47.068q-.042.534-.052,1.057l-10.411,46.649H152.118Q111.248,99.989,79.048,99.989q-31.776,0-67.322,19.568l-.949.525L0,120.7q.127-1.148.2-2.3C1.029,106.03,0,93.481,4.139,81.558,21.379,33.214,75.59,15.147,121.211,4.261Z" transform="translate(102.67 -8)" fill="#ec7495"/><path d="M234.492,516.508c-.67,0-1.349-.005-2.016-.016a127.6,127.6,0,0,1-28.118-3.429A78.035,78.035,0,0,1,178.457,502a10.341,10.341,0,0,1-4.077-5.046,8.6,8.6,0,0,1-.08-5.456,9.737,9.737,0,0,1,9.294-6.788,11.331,11.331,0,0,1,4.421.938l3,1.265c7.219,3.022,14.979,6.121,23.489,7.889a99.917,99.917,0,0,0,20.227,1.974c2.519,0,5.126-.083,7.748-.248,17.072-1.069,34.224-6.532,50.98-16.236a155.281,155.281,0,0,0,20.056-13.915,193.361,193.361,0,0,0,17.89-16.632l1.251-1.32a199.124,199.124,0,0,0,15.413-18.1,97.177,97.177,0,0,0,11.92-20.406,51.287,51.287,0,0,0,3.362-11.524,36.914,36.914,0,0,0,.052-11.959,101.1,101.1,0,0,0-4.616-16.177c-1.2-3.474-2.448-7.064-3.4-10.645a181.557,181.557,0,0,1-4.8-26.016c-.909-7.87-1.494-16.513-1.787-26.422l-.038-1.353c-.185-6.949-.234-14.031-.282-20.88-.1-14.37-.2-29.228-1.57-43.672a196.513,196.513,0,0,0-3.158-21.516,144.729,144.729,0,0,0-6.007-21.138,130.2,130.2,0,0,0-7.629-16.738,179.054,179.054,0,0,0-9.537-15.59c-6.852-10.094-14.67-19.826-22.232-29.237-5.2-6.478-10.587-13.177-15.592-19.92l-.484,2.2c-.783,3.559-1.593,7.239-2.4,10.859-.387,1.735-.767,3.5-1.135,5.205-.737,3.415-1.5,6.946-2.341,10.4l-.094.377a2.744,2.744,0,0,1-.768,3.182c-.078.061-.158.117-.235.172l-.1.074a9.046,9.046,0,0,1-2.093,3.106,7.958,7.958,0,0,1-3.62,1.883,6.876,6.876,0,0,1-1.649.209,5.632,5.632,0,0,1-4.926-2.872l-15.351.078c-2.467.013-5.049.1-7.546.176-2.817.09-5.73.184-8.6.184a68.19,68.19,0,0,1-13.883-1.174,1.249,1.249,0,0,1-1.035-1.225,1.569,1.569,0,0,1,1.035-1.578c6.756-2.11,14.347-2.609,21.687-3.09,2.554-.168,4.965-.326,7.354-.548l14.821-1.383c.69-.064,1.386-.148,1.975-.221l.994-.124,5.152-22.925c.534-2.378,1.08-4.777,1.608-7.1,1.506-6.616,3.062-13.457,4.444-20.214,3.339-16.329,7.059-32.858,10.656-48.843l0-.009.091-.4A127.214,127.214,0,0,0,256.07,39.8c-1.711,0-3.446.037-5.155.109l-1.382.06a45.383,45.383,0,0,0-7.039.764,17.3,17.3,0,0,0-6.468,2.619c-4.032,2.8-4.942,8.139-5.745,12.851-.161.943-.312,1.834-.486,2.7-3.21,15.985-5.353,31.939-6.861,44.052-.581,4.664-1.076,9.41-1.556,14l0,.021c-.254,2.43-.516,4.942-.788,7.412-.125,1.128-.234,2.281-.34,3.4-.2,2.1-.4,4.263-.72,6.365a45.654,45.654,0,0,1-1.213,5.223c-.346,1.263-.7,2.568-.968,3.859a5.069,5.069,0,0,1-1.076,4.287,5.829,5.829,0,0,1-4.4,2.258,4.479,4.479,0,0,1-3.44-1.633c-1.384-1.59-2.734-3.225-4.039-4.806a108.894,108.894,0,0,0-9.2-10.226,94.856,94.856,0,0,0-16.214-12.24,121.345,121.345,0,0,0-18.2-8.867,195.69,195.69,0,0,0-19.244-6.308,1.157,1.157,0,0,1-.81-.711,186.09,186.09,0,0,0-38.157,15.371,122.663,122.663,0,0,0-36.333,30.177,117.376,117.376,0,0,0-13.035,19.77,109.815,109.815,0,0,0-8.655,22.085,174.4,174.4,0,0,0-5.086,29.228c-.828,8.733-1.233,18.165-1.274,29.683-.03,8.829.143,18.262,1.607,27.42,1.162,7.27,3.34,13.838,5.645,20.792.862,2.6,1.753,5.289,2.577,7.991a9.548,9.548,0,0,1-.238,6.667l.751.113a51.369,51.369,0,0,1,11.3,2.973c4.569,1.909,7.124,4.328,7.593,7.192a3.04,3.04,0,0,1-.519,2.391,2.878,2.878,0,0,1-2.1,1.049c-.179.015-.359.023-.536.023-2.262,0-3.942-1.227-5.72-2.527-.614-.449-1.249-.912-1.911-1.324-.434-.268-.884-.52-1.319-.765l-.156-.088a.423.423,0,0,1-.24.076.474.474,0,0,1-.237-.067,21.5,21.5,0,0,0-10.763-2.869c-6.143,0-12.478,2.542-17.837,7.158a33.179,33.179,0,0,0-6.5,7.565,28.621,28.621,0,0,0-3.741,8.994,39.554,39.554,0,0,0-.8,11.483,37.671,37.671,0,0,0,2.536,11.136,31.669,31.669,0,0,0,5.872,9.554,27.732,27.732,0,0,0,9.2,6.736c2.411,1.091,4.91,2.062,7.328,3,4.879,1.9,9.923,3.856,14.41,6.872A71.718,71.718,0,0,1,69.35,406.5c5.85,7.011,10.843,14.793,15.673,22.318,2.566,4,5.219,8.133,7.97,12.1a75.828,75.828,0,0,0,11.943,13.839,40.246,40.246,0,0,0,5.247,3.723c3.845,2.429,7.476,4.723,8.921,9.443a6.236,6.236,0,0,1-.269,4.179,6.448,6.448,0,0,1-2.726,3.179,11.466,11.466,0,0,1-5.711,1.509,15.394,15.394,0,0,1-5.447-1.089,27.569,27.569,0,0,1-5.243-2.749,64.9,64.9,0,0,1-8.932-7.379c-6.66-6.351-12.064-14.161-16.472-20.964-1.793-2.767-3.56-5.674-5.269-8.486-6.043-9.942-12.292-20.222-21.478-27.548-4.658-3.714-10.167-5.952-15.495-8.116-2.79-1.133-5.675-2.305-8.414-3.678A39.475,39.475,0,0,1,11.9,387.834a43.688,43.688,0,0,1-7.8-12.559,54.7,54.7,0,0,1-3.624-27.9,43.91,43.91,0,0,1,11.909-25.246,30.148,30.148,0,0,1,7.366-5.489,30.624,30.624,0,0,1,8.44-3c-5.9-10.323-8.183-23.216-9.77-35.611a197.539,197.539,0,0,1-1.053-35.683l.125-2.315c1.1-19.519,3.3-42.268,11.3-63.009a128.428,128.428,0,0,1,12.207-23.947,116.676,116.676,0,0,1,17.142-20.689c1.276-1.217,2.629-2.453,4.135-3.779a8.149,8.149,0,0,1-1.062-.95,10.735,10.735,0,0,1-2.709-6.378,34.935,34.935,0,0,1,.239-7.093l0-.038q.04-.4.079-.79a117.086,117.086,0,0,1,2.733-16.35A112.1,112.1,0,0,1,71.841,70.388,115.559,115.559,0,0,1,135.3,16.361a160.454,160.454,0,0,1,16.2-4.688,175.357,175.357,0,0,1,29.667-8.645A159.707,159.707,0,0,1,211.837,0a149.358,149.358,0,0,1,19.017,1.211,141.3,141.3,0,0,1,41.794,11.95,117.192,117.192,0,0,1,18.275,10.609l.525.375a31.5,31.5,0,0,1,6.238,5.584,9.814,9.814,0,0,1,2.425,7.209,7.129,7.129,0,0,1,.135,3.646c-3.5,15.687-7.183,31.588-10.75,46.965l-.01.044c-1.014,4.371-2.062,8.891-3.09,13.338-1.035,4.473-2.028,8.931-2.862,12.7A271.418,271.418,0,0,1,306.649,133.1,224.229,224.229,0,0,1,327.5,155.6c13.768,17.168,23.418,35.043,28.682,53.128a164.2,164.2,0,0,1,4.2,18.473c1,5.841,1.762,11.961,2.345,18.708,1.082,12.534,1.345,25.381,1.6,37.806.279,13.676.568,27.817,1.951,41.582a163.364,163.364,0,0,0,4.934,27.211c1.181,4.29,2.742,8.545,4.251,12.659a131.188,131.188,0,0,1,5,15.622,57.263,57.263,0,0,1,1.413,14.494,65.639,65.639,0,0,1-2.025,14.15,94.342,94.342,0,0,1-11.671,26.423,184.515,184.515,0,0,1-35.218,41.386,174.414,174.414,0,0,1-21.9,16.288,159.371,159.371,0,0,1-24.125,12.435A139.736,139.736,0,0,1,234.492,516.508ZM134.763,98.28a81.28,81.28,0,0,1,17.652,1.926.945.945,0,0,1,0,1.808c-1.2.268-2.426.568-3.607.858l-.694.17c11.617.256,24.234,3.753,35.528,9.846a112.378,112.378,0,0,1,15.817,10.28,78.884,78.884,0,0,1,13.63,13.367,33.1,33.1,0,0,1-.427-4.337c-.093-4.291.031-8.511.15-11.708.282-7.585.785-15.627,1.583-25.31l.306-3.67c1.22-14.439,2.761-29.794,5.749-44.253a24.066,24.066,0,0,1,4.62-10.28,22.631,22.631,0,0,1,8-6.232,58.734,58.734,0,0,0-19.65-7.63,114.727,114.727,0,0,0-20.844-2.267c-1.149-.029-2.317-.043-3.472-.043a141.956,141.956,0,0,0-22.495,1.8,135.371,135.371,0,0,0-22.18,5.5,117.607,117.607,0,0,0-20.7,9.328A94.648,94.648,0,0,0,91.841,67,155.113,155.113,0,0,0,81.169,85.5a82.975,82.975,0,0,0-6.522,19.673,85.8,85.8,0,0,0-1.723,11.108c-.023.27-.036.55-.049.821a12.876,12.876,0,0,1-.113,1.375c-.076.486-.172.732-.285.732a.087.087,0,0,1-.031-.006,4.436,4.436,0,0,0,.549.848,122.956,122.956,0,0,1,29.4-15.777A94.132,94.132,0,0,1,134.763,98.28Zm74.654-88.064c-.856,0-1.726.008-2.587.022a62.341,62.341,0,0,1,15.055,5.891c5.474,3.047,9.888,7.154,14.311,13.318a46.631,46.631,0,0,1,11.939-2.267c2.836-.2,5.742-.3,8.638-.3a133.865,133.865,0,0,1,20.889,1.678c-1.848-1.138-3.715-2.223-5.55-3.222A119.212,119.212,0,0,0,249.4,15.95,139.16,139.16,0,0,0,209.418,10.216ZM62.364,365.979a6.667,6.667,0,0,1-5.392-2.487c-.99-1.295-1.869-2.573-2.72-3.808-1.109-1.611-2.155-3.13-3.361-4.58a7.512,7.512,0,0,0-.765.85l-.167.232a5.249,5.249,0,0,1-3.939,2.517,3.043,3.043,0,0,1-.4-.027l-.479-.063c-1.083-.145-3.666-.734-4.256-3.056l-.049-.22-.066-.352a6.177,6.177,0,0,1,.224-3.227,4.511,4.511,0,0,1,2.087-2.453c.085-.047.171-.089.255-.13l.01-.005.156-.078a46.017,46.017,0,0,0-9.134-3.306c-1.663-.472-3.382-.96-5.117-1.563a.639.639,0,0,1-.433-.53.6.6,0,0,1,.288-.584,16.679,16.679,0,0,1,9.025-2.27,33.691,33.691,0,0,1,11.958,2.414,39.552,39.552,0,0,1,10.5,6.109,23.358,23.358,0,0,1,7.226,9.56,4.914,4.914,0,0,1-.314,4.7A6.215,6.215,0,0,1,62.364,365.979Z" transform="translate(41 -12.999)"/></g></svg>