<svg xmlns="http://www.w3.org/2000/svg" width="574" height="664.001" viewBox="0 0 574 664.001"><g transform="translate(100 97.001)"><path d="M360.5,209.076c-2.376-30.744,1.306-62.968-10.548-92.19C329.286,68.4,271.33,52.235,226.4,33.776c-18-5.319-78.569-6.062-99.645-13.1-47.7-15.932-59.1-34.914-97-4.58A41.2,41.2,0,0,0,16.434,34.6l.12.033a10.259,10.259,0,0,0,1.939,8.854C2.059,60.289-4.818,85.473,3.614,107.834c27.517,58.189,26.223,89.652,17.357,152.208-11.578,58.4,14.879,79.733,58.7,111.509-1.784,3.459-2.154,8.056.172,11.108,50.667,71.2,146.2,105.193,228.053,69.055,33.225-14.788,48.058-50.171,56.523-82.1,9.861-35.749,12.891-73.419,4.863-109.835C366.039,242.939,361.821,226.219,360.5,209.076Z" transform="translate(37 34.68)" fill="#d08b5b"/><path d="M0,121.863l30.127,20.07L137.966,28.245,102.079,0S36.973,48.118,24.171,60.818,0,121.863,0,121.863Z" transform="translate(34.604 34.68)" fill="#9fd8e5"/><path d="M384.558,604.7a151.3,151.3,0,0,1-36.1-4.522,185.333,185.333,0,0,1-24.524-7.962,14.644,14.644,0,0,1-6.271-4.29,5.77,5.77,0,0,1-1.3-4.564c.459-2.4,2.717-4.009,5.618-4.009a9.491,9.491,0,0,1,3,.517,219.121,219.121,0,0,0,24.293,6.627,150.865,150.865,0,0,0,30.7,3.479,98.535,98.535,0,0,0,12.706-.788c16.34-2.136,29.921-5.723,41.52-10.965A94.54,94.54,0,0,0,452.37,567.5a88.027,88.027,0,0,0,15.72-15.39,102.812,102.812,0,0,0,12.736-20.939,145.116,145.116,0,0,0,9.216-27.368,227.9,227.9,0,0,0,5.159-34.678,370.83,370.83,0,0,0,.564-42.868c-.335-8.264-1-16.668-1.647-24.795-.75-9.451-1.525-19.22-1.783-28.825-.185-7.012-.269-14.137-.351-21.026-.122-10.288-.248-20.927-.71-31.383l-.256-5.957c-.3-7.031-.62-13.923-1.143-20.923-.192-.823-.377-1.663-.556-2.476-.408-1.856-.829-3.771-1.365-5.614a120.666,120.666,0,0,0-8.21-20.91,5.8,5.8,0,0,1-2.5,1.14,40.3,40.3,0,0,1-7.178.678,30.554,30.554,0,0,1-12.682-2.667,31.225,31.225,0,0,1-8.16-5.29,12.45,12.45,0,0,1-2.59-3.07l-.234,0a12.835,12.835,0,0,1-4.42-.748A8.63,8.63,0,0,1,438.414,252a8.533,8.533,0,0,1-2.033-3.875,6.981,6.981,0,0,1,.3-3.79l.092-.245-.221-.08a38.48,38.48,0,0,1-13.67,16.9,43.651,43.651,0,0,1-15.052,6.586,74.682,74.682,0,0,1-16.417,1.884c-.543.008-1.094.012-1.639.012-11.593,0-23.7-1.775-35.1-3.592-3.783-.6-6.667-1.167-9.35-1.84-.046.046-.092.095-.14.146-.075.08-.151.161-.23.234a34.875,34.875,0,0,1-11.082,7.205,33.419,33.419,0,0,1-12.569,2.44,35.1,35.1,0,0,1-13.949-2.925,49.467,49.467,0,0,1-10.4-6.171A72.069,72.069,0,0,1,288,256.668c-.086,3.336-.253,6.387-.51,9.329l-.112,1.228c-.567,5.9-1.683,11.92-5.969,16.013a14.693,14.693,0,0,1-10.524,4.068,25.2,25.2,0,0,1-7.552-1.28,42.307,42.307,0,0,1-7.263-3.138c.01.21.01.433.01.65,2.021,6.868,4.086,13.861,6.083,20.624l.041.14.465,1.576.474,1.588q.243.8.49,1.61l.005.017c1.43,4.684,2.909,9.527,3.341,14.5.471,5.419-1.14,10.719-4.311,14.177a11.994,11.994,0,0,1-9.043,4.009,15.7,15.7,0,0,1-4.527-.707c-5.176-1.556-9.429-5.405-13.542-9.128l-.013-.011c-.791-.716-1.538-1.392-2.3-2.057l-2.988-2.584a337.742,337.742,0,0,1,9.506,38.493,246.517,246.517,0,0,1,4.084,39.318,2.593,2.593,0,0,1-2.56,2.56c-.273.011-.552.017-.829.017a24.621,24.621,0,0,1-8.971-1.786,5.165,5.165,0,0,1-.55-.05,37.027,37.027,0,0,1-15-5.67,27.846,27.846,0,0,1,1.219,10.45.94.94,0,0,1-.939.825.7.7,0,0,1-.72-.6,24.571,24.571,0,0,0-9.549-14.372,29.43,29.43,0,0,0-7.9-4.292,25.769,25.769,0,0,0-8.694-1.564,21.987,21.987,0,0,0-4.09.378,31.57,31.57,0,0,0-17.393,9.875,36.062,36.062,0,0,0-5.718,8.342,36.606,36.606,0,0,0-3.23,9.663,49.41,49.41,0,0,0,1.4,22.392,56.585,56.585,0,0,0,4.258,10.635,51.172,51.172,0,0,0,6.205,9.283c3.485,4.127,9.234,9.3,16.83,10.51a22.1,22.1,0,0,0,3.437.27,21.011,21.011,0,0,0,5.894-.83,31.276,31.276,0,0,0,3.055-1.144l.645-.266a17.1,17.1,0,0,1,2.681-.752,14.834,14.834,0,0,0,2.859-.838,4.884,4.884,0,0,1,2.009-.444,4.127,4.127,0,0,1,3.7,6.155c-1.674,3.4-3.189,5.709-5.98,7.47a52.474,52.474,0,0,1,3.957,5.868c.484.8.866,1.426,1.113,1.761a176.756,176.756,0,0,0,12.24,14.98,127.692,127.692,0,0,0,14.6,13.41l2.182,1.723c4.969,3.941,9.367,7.664,12.878,13.326a6.683,6.683,0,0,1,.046,6.851,7.339,7.339,0,0,1-2.454,2.621,6.576,6.576,0,0,1-3.533,1.039h-.088a29,29,0,0,1-11.408-2.566,40.845,40.845,0,0,1-9.835-6.359c-6.585-5.625-11.913-13.044-15.347-18.135-1.166-1.739-2.3-3.63-3.38-5.62a12.01,12.01,0,0,1-1.27,1.7l.931,2.5a5.6,5.6,0,0,1-.612,5.368,7.429,7.429,0,0,1-2.81,2.371,8.218,8.218,0,0,1-3.64.875,6.433,6.433,0,0,1-3.15-.784,5.832,5.832,0,0,1-2.369-2.532,104.85,104.85,0,0,0-8.66-14.2,7.365,7.365,0,0,1-4.82-2.93c-.852-1.235-1.754-2.5-2.626-3.715-1.848-2.585-3.76-5.258-5.445-8.005-1.3-1.233-2.688-2.476-4.25-3.8l-.214.188-.013.011c-.343.3-.7.611-1.033.93a53.02,53.02,0,0,1-6.86,11.51l-.6.762a58.428,58.428,0,0,1-9.234,9.547,27.18,27.18,0,0,1-11.687,5.731,2.928,2.928,0,0,1-.546.051,3.353,3.353,0,0,1-3.029-2.09,2.466,2.466,0,0,1,.744-2.822,95.359,95.359,0,0,1,7.971-6.208,69.166,69.166,0,0,0,10.749-8.952,67.342,67.342,0,0,0,7.418-9.7l.492-.8c.328-.536.681-1.1,1.111-1.78-2.516-1.714-5.065-3.461-7.53-5.15-4.125,3.524-9.081,5.95-13.874,8.3a96.977,96.977,0,0,0-9.676,5.2l-.76.5a6.441,6.441,0,0,1-3.61,1.166,6.314,6.314,0,0,1-3.839-1.361,8.25,8.25,0,0,1-2.549-3.336,6.846,6.846,0,0,1,1.348-7.679A151.066,151.066,0,0,0,135.3,466.246l0,0h0c1.393-1.825,2.832-3.712,4.269-5.531a39.892,39.892,0,0,1-4.2-15.827c-.181-1.62-.327-3.283-.455-4.75v-.008h-.253a19.293,19.293,0,0,1-10.828-3.561l-1.249-.89a37.8,37.8,0,0,1-11.335,1.8c-.305,0-.613,0-.915-.012a10.592,10.592,0,0,1-5.817-1.836A10.172,10.172,0,0,1,101,431.341a10.966,10.966,0,0,1-.805-5.96,11.436,11.436,0,0,1,2.707-5.873,20.973,20.973,0,0,1,16.013-6.867,24.221,24.221,0,0,1,9.016,1.737c.264-.137.548-.289.82-.44a9.69,9.69,0,0,1,.144-4.975l-.132-.894a23.11,23.11,0,0,1-3.517-9.478,21.892,21.892,0,0,1,.336-8.057,13.655,13.655,0,0,1,.624-1.825c.117-.3.238-.6.348-.911a17.687,17.687,0,0,1-1.207-5.292c-.175-.208-.377-.453-.562-.712a14.309,14.309,0,0,1-2.727-9.227,14.529,14.529,0,0,1,3.367-8.391c.019-.314.048-.617.086-.9-.228-.511-.443-1.044-.639-1.582-4.62-4.661-6.642-9.38-6.183-14.427a15.02,15.02,0,0,1,3.85-8.815,5,5,0,0,1,.044-3.495,41.794,41.794,0,0,1-2.455-14.627,65.272,65.272,0,0,1,1.932-15.43,13.613,13.613,0,0,1-.761-4.981,15.284,15.284,0,0,1,4.407-9.958,14.885,14.885,0,0,1,4.5-3.174,13.081,13.081,0,0,1,5.421-1.188h.149a13.09,13.09,0,0,1,2.629.306l.012-.179a20.187,20.187,0,0,1,1.82-6.206,3.936,3.936,0,0,1-1.218-.7,68.672,68.672,0,0,1-15.629,6.015,4.744,4.744,0,0,1-1.15.142,5.5,5.5,0,0,1-4.693-2.873,4.379,4.379,0,0,1,.2-4.614,33.7,33.7,0,0,1,3.821-4.765,49.085,49.085,0,0,0-5.969.4,7.022,7.022,0,0,1-.9.057,9.768,9.768,0,0,1-5.01-1.549,13.9,13.9,0,0,1-4.1-3.849c-2.92,2.84-5.888,5.706-8.758,8.479l-.023.022a11.229,11.229,0,0,1-7.9,3.34,11.746,11.746,0,0,1-7.793-3.052,12.593,12.593,0,0,1-4.107-7.868,16.681,16.681,0,0,1-6.08-3.02,101.7,101.7,0,0,1-18.141,5.906,106.962,106.962,0,0,1-19.019,2.494c-.158.006-.318.01-.474.01a10.576,10.576,0,0,1-5.681-1.612,11.836,11.836,0,0,1-3.925-4.1,12.93,12.93,0,0,1-1.745-6.036,11.786,11.786,0,0,1,1.5-6.24,60.041,60.041,0,0,1,10.65-13.66,124.923,124.923,0,0,1-19.879,4.3,6.158,6.158,0,0,1-.811.052,11.064,11.064,0,0,1-5.592-1.813,10.076,10.076,0,0,1-3.927-4.159,44.41,44.41,0,0,1,1.33-39.08c.2-.4.423-.8.638-1.175l0-.006.158-.28c.678-1.688,1.415-3.35,2.191-4.94A25.254,25.254,0,0,1,1.44,180.624a32.681,32.681,0,0,1,2.413-16.246,10.414,10.414,0,0,1-1.21-9.19,80.525,80.525,0,0,1,6.071-12.564,77.1,77.1,0,0,1,8.119-11.206,24.271,24.271,0,0,1-2.75-11.638,29.611,29.611,0,0,1,1.217-8.155,30.337,30.337,0,0,1,8.522-13.847,41.25,41.25,0,0,1,16.92-9,48.248,48.248,0,0,1,9.8-12.19l.011-.024c.145-.319.294-.645.459-.966A34.421,34.421,0,0,1,63.273,62.414a38,38,0,0,1,7.942-3.76,42.457,42.457,0,0,1,8.629-1.946,12.57,12.57,0,0,1,2.447-6.191,10.862,10.862,0,0,1,5.373-3.889,36.65,36.65,0,0,1,5.449-10.87,15.469,15.469,0,0,1,4.738-4.287,11.383,11.383,0,0,1,11.622,0,71.829,71.829,0,0,1,9.48,6.459,13.036,13.036,0,0,1,4.568-1.163l.432-.027,9.859-.5c2.617-1.16,5.274-2.376,7.843-3.551,1.4-.642,2.991-1.369,4.537-2.069a33.146,33.146,0,0,1,8.27-5.03,33.682,33.682,0,0,1,10.43-2.51,89.562,89.562,0,0,1,8.64-2.39,95.455,95.455,0,0,1,20.331-2.274c.277,0,.556,0,.829,0,.148-1.876.217-3.759.2-5.6l-.014-.945a11.11,11.11,0,0,1,2.986-7.816A12.588,12.588,0,0,1,205.244.138,12.261,12.261,0,0,1,207.058,0a10.751,10.751,0,0,1,6.819,2.391,14.777,14.777,0,0,1,4.372,6.018l.116.29c.68,1.753,1.449,3.507,2.35,5.36a41.636,41.636,0,0,1,9.1-3.191,43.943,43.943,0,0,1,9.731-1.1,38.111,38.111,0,0,1,16.008,3.371,30.132,30.132,0,0,1,6.817,4.35,27.876,27.876,0,0,1,5.439,6.247,23.286,23.286,0,0,1,3.123,7.575,30.6,30.6,0,0,1,.635,7.956c-.217,5.38-1.52,10.853-2.781,16.145-.3,1.244-.6,2.531-.887,3.784l-1.72,7.629a13.051,13.051,0,0,1,4.148,4.236,10.274,10.274,0,0,1,1.566,5.592l-.014.3-.7,10.64a55.343,55.343,0,0,0,6.06-7.31c1.275-2.335,2.637-4.6,4.05-6.72a11.772,11.772,0,0,1,9.916-5.655,12.673,12.673,0,0,1,10.6,5.953,11.663,11.663,0,0,1,.123,11.763,72,72,0,0,1-4.5,7.581,67.366,67.366,0,0,0-4.51,11.01c3.667,1.6,5.913,5.071,6.16,9.53a28.151,28.151,0,0,1-.715,8.134,27.567,27.567,0,0,1-2.9,7.275,30.478,30.478,0,0,1-4.794,6.263,35.712,35.712,0,0,1-6.4,5.1,10.808,10.808,0,0,1-5.8,1.747,10.276,10.276,0,0,1-2.48-.307c-.425.573-.908,1.224-1.36,1.87a60.338,60.338,0,0,1,10.12,10.45,182.965,182.965,0,0,1,26.56-1.96c6.055-2.966,13.3-4.47,21.52-4.47a83.408,83.408,0,0,1,13.951,1.261,139.372,139.372,0,0,1,14,3.4l.005,0c2.639.739,5.369,1.5,8.078,2.159a104.707,104.707,0,0,0,14.111,2.083c3.1.313,6.3.636,9.44,1.147a42.336,42.336,0,0,1,13.713,4.613,32.252,32.252,0,0,1,10.376,8.887c5.54.166,11.78,2.29,17.57,5.98,7.854,5.008,15.811,10.147,23.505,15.117l.041.027c4.239,2.738,8.623,5.57,12.954,8.356,4.483,2.885,6.457,7.557,5.558,13.157l-.059.343-.409,2.22.962,1.366.84,1.184c3.5,4.926,7.117,10.019,9.347,15.39a178.445,178.445,0,0,1,12.06,20.119,146.339,146.339,0,0,1,11.471,29.4c.625,2.4,1.333,5.115,1.78,7.78a20.378,20.378,0,0,1-.432,7.615v.005c-.151.8-.308,1.633-.437,2.5-.315,2.149-.538,4.35-.754,6.477-.236,2.33-.48,4.737-.846,7.093a5.035,5.035,0,0,1-2.014,3.361,6.563,6.563,0,0,1-3.656,1.179c1,7.582,1.708,15.144,2.41,22.87,1.053,11.783,1.728,23.633,2.2,32.64,2.907,4.222,8.887,7.633,13.29,8.82a19.265,19.265,0,0,0,4.981.63c4.578,0,9.145-1.425,13.009-2.819a3.7,3.7,0,0,1,1.259-.227,3.961,3.961,0,0,1,3.377,2.128,4.318,4.318,0,0,1,.125,4.3,15.175,15.175,0,0,1-6.347,6.061,18.121,18.121,0,0,1-8.238,1.83,27.149,27.149,0,0,1-11.445-2.681,24.439,24.439,0,0,1-9.481-7.629c.142,3,.3,6.049.446,9l0,.038.023.451.148,2.871c.3,5.575.663,11.286,1.015,16.81.888,13.936,1.806,28.342,1.832,42.507.014,7.633-.226,14.559-.734,21.173a188.772,188.772,0,0,1-2.723,20.93,131.439,131.439,0,0,1-14.652,40.143,129.37,129.37,0,0,1-25.957,32.5A125.413,125.413,0,0,1,433.7,594.761a122.648,122.648,0,0,1-41.217,9.707C389.87,604.621,387.2,604.7,384.558,604.7ZM198.334,484.188h0c-1.01.216-2.006.384-2.96.5l.039.094c.278.688.566,1.4.851,2.126.822.462,1.636.893,2.42,1.28a20.544,20.544,0,0,1-.35-4Zm-50.671-13.516a22.414,22.414,0,0,1,2.54.146l0-.149-.08-.027a3.6,3.6,0,0,1-.452-.175,22.158,22.158,0,0,1-2.711-1.547l-.665,1.225-.284.529-.034.064C146.538,470.694,147.106,470.672,147.663,470.672ZM134.6,289.878c-1.013.034-1.373.512-1.368.825a.248.248,0,0,0,.249.268c.11,0,.408-.067.8-.684A3.06,3.06,0,0,1,134.6,289.878ZM249.04,152.356c-9.2.242-19.142,2.9-29.552,7.887a136.73,136.73,0,0,0-25.774,16.479,175.248,175.248,0,0,0-18.349,16.992,224.706,224.706,0,0,0-16.04,19.2,208.751,208.751,0,0,0-6.651,20.3c-.79,2.9-1.4,5.874-1.99,8.749l0,.013c-.329,1.6-.669,3.259-1.037,4.889l-.32,1.4a21.979,21.979,0,0,0-1.849,4.82,14.226,14.226,0,0,0,6.792,3.757,4.211,4.211,0,0,1,2.087,1.207,44.056,44.056,0,0,0,4.994-11.1l.039-.182a229.783,229.783,0,0,1,13.1-19.167,274.425,274.425,0,0,1,20.589-24.305A197.675,197.675,0,0,1,218.8,182.068a149.777,149.777,0,0,1,20.556-13.039,143.076,143.076,0,0,1,22.394-9.432A46.935,46.935,0,0,0,249.04,152.356ZM212.754,443.809c-.106,0-.214,0-.32-.011-6.169-.422-10.373-5.131-14.439-9.684-1.454-1.628-2.827-3.165-4.291-4.526a96.218,96.218,0,0,0-19.571-14.34,1.1,1.1,0,0,1-.529-1.257,1.118,1.118,0,0,1,1-.924h.121a77.4,77.4,0,0,1,12.495,1.612,54.336,54.336,0,0,1,11.894,4.13l.691.338a56.846,56.846,0,0,1,11.977,7.517,20.123,20.123,0,0,1,4.526,5.4,10.985,10.985,0,0,1,1.376,6.48,6.774,6.774,0,0,1-1.5,3.592A4.448,4.448,0,0,1,212.754,443.809Z" transform="translate(-100 -97.001)"/></g></svg>