<svg xmlns="http://www.w3.org/2000/svg" width="474" height="567" viewBox="0 0 474 567"><path d="M445.871,244.554c-9.151-49.9-31.715-97.378-66.368-134.527-4-4.411-7.592-11.369-13.694-12.481-6.125-12.481-17.8-21.3-27.133-31.383-20.371-20.311-39.861-43.008-66.136-55.834C150.671-39.793,33.394,103.123,8.507,210.6c-24.719,86.437,2.279,205.675,109.4,209.173,15.155,20.044,36.067,33.918,57.548,46.309,29.335,18.782,61.335,26.406,95.273,15.954,33.8,8.832,68.836-19.51,89.148-44.366,16.055-19.253,27.059-42.75,41.744-62.679,17.337-.433,32.319-15.113,34.64-32.32,16.193-29.757,15.457-65.415,9.61-98.121Z" transform="translate(18 10.999)" fill="#d08b5b"/><path d="M8.507,210.6C33.394,103.123,150.671-39.793,272.54,10.329c26.275,12.826,45.765,35.523,66.136,55.834,9.333,10.079,21.008,18.9,27.133,31.383,6.1,1.112,9.7,8.07,13.694,12.481,34.653,37.149,57.217,84.628,66.368,134.527,5.847,32.706,6.583,68.364-9.61,98.121-2.321,17.207-17.3,31.887-34.64,32.32-3.178,4.312-6.183,8.792-9.1,13.359l-.69.234-.085-5.059q-2.193-122.94-14.159-148.424-12.089-25.744-104.05-94.276l-1.866-1.389-14.392-11.885-11.168,12.61q-63.025,71.093-98.67,109.719-38.356,41.565-64.9,126.466L82,378.07l31.269,41.48C10.009,412.8-15.851,295.779,8.507,210.6Z" transform="translate(18 10.999)" fill="#9ddadb"/><path d="M267.308,502.77c-3.967,0-7.979-.192-11.924-.57a108.567,108.567,0,0,1-34.716-9.663,154.207,154.207,0,0,1-30.765-19.01.447.447,0,0,1-.158-.521.652.652,0,0,1,.584-.432.507.507,0,0,1,.255.069,123.054,123.054,0,0,0,33.6,13.024,158.913,158.913,0,0,0,35.958,3.964c1.966,0,3.968-.033,5.951-.1a126.23,126.23,0,0,0,31.16-4.984,127.846,127.846,0,0,0,28.6-12.306,129.133,129.133,0,0,0,44.6-43.406,185.517,185.517,0,0,0,14.566-28.426,8.914,8.914,0,0,1-.368-2.443,9.235,9.235,0,0,1,1.111-4.5,9.428,9.428,0,0,1,2.921-3.2c1.154-3.609,2.142-7.179,2.936-10.611a164.136,164.136,0,0,0,3.552-24.606c.233-3.062.3-6.272.37-9.377.081-3.754.165-7.635.534-11.4-.268-6.042-.625-11.463-1.089-16.571-1.813-19.969-5.463-37.057-11.158-52.238a127.777,127.777,0,0,0-29.1-44.795c-12.917-13.113-27.576-24.735-41.752-35.974-7.838-6.214-15.941-12.638-23.653-19.238a270.5,270.5,0,0,1-22.115-20.931l-1.385-1.5-.095-.031-.575.59-.073.075c-3.014,3.091-6.13,6.287-9.2,9.423l-15.026,15.327c-31.162,31.819-61.324,63.24-87.772,97.784-7.8,10.183-15.141,20.567-21.831,30.865-6.944,10.688-13.413,21.637-19.228,32.543-5.523,10.36-10.689,21.274-15.355,32.439l-1.816,4.4a104.4,104.4,0,0,0-5.794,17.1,51.525,51.525,0,0,1,6.692,9.077c1.058,1.674,2.058,3.256,3.113,4.724a129.264,129.264,0,0,0,11.827,14,108.737,108.737,0,0,0,13.871,12.323l.594.429c.982.7,2,1.364,2.987,2.01,4.816,3.154,9.365,6.133,10.069,12.483a5.715,5.715,0,0,1-1.511,4.387,9.744,9.744,0,0,1-3.857,2.666,9.172,9.172,0,0,1-3.235.585c-5.946,0-11.785-5.507-16.048-9.528-.4-.373-.766-.723-1.128-1.059a89.753,89.753,0,0,1-8.7-9.4,36.041,36.041,0,0,1-5.1.406,23.253,23.253,0,0,1-2.725-.155,86.748,86.748,0,0,1-11.92-2.211,87.921,87.921,0,0,1-22.742-9.615,102.065,102.065,0,0,1-19.33-15.089,122.057,122.057,0,0,1-15.671-19.121,137.852,137.852,0,0,1-11.766-21.713,167.934,167.934,0,0,1-9.893-31.243A208.643,208.643,0,0,1,.344,294.88a267.1,267.1,0,0,1,.384-33.05c.746-10.444,2.084-21.395,3.978-32.547A315.038,315.038,0,0,1,45.776,118.946a300.956,300.956,0,0,1,35.363-47.22A283.352,283.352,0,0,1,125.419,32.5,218.624,218.624,0,0,1,154.03,14.994a157.248,157.248,0,0,1,15.357-6.759A126.988,126.988,0,0,1,215.068,0,150.645,150.645,0,0,1,252.81,4.932a167.234,167.234,0,0,1,31.23,11.623,204.748,204.748,0,0,1,28.486,17.02,268.145,268.145,0,0,1,25.893,21.039c7.717,7.073,15.606,15.041,23.448,23.682a407.14,407.14,0,0,1,39.476,51.153,403.162,403.162,0,0,1,30.835,56.778l.884,2.005c7.538,17.161,12.54,30.44,16.22,43.058,4.705,16.135,7.1,30.916,7.308,45.188a289.1,289.1,0,0,1-2.074,40.337,201.37,201.37,0,0,1-8.823,39.362c-4.345,12.792-9.992,23.486-16.786,31.787-8.24,10.067-18.073,16.434-29.228,18.921a158.116,158.116,0,0,1-12.9,25.619,159.945,159.945,0,0,1-17.326,22.937,154.031,154.031,0,0,1-21.167,19.36,143.134,143.134,0,0,1-24.419,14.888,135.5,135.5,0,0,1-27.61,9.726A127.738,127.738,0,0,1,267.308,502.77ZM214.527,13.615a119.207,119.207,0,0,0-28.885,3.643,145.569,145.569,0,0,0-27.255,9.93c-16.122,7.7-32.4,18.711-48.379,32.734a274.443,274.443,0,0,0-37.626,40.54,293.644,293.644,0,0,0-29.05,47.093,304.623,304.623,0,0,0-30.12,106.07c-.966,10.288-1.428,20.265-1.372,29.653a224.683,224.683,0,0,0,2.079,29.8A170.475,170.475,0,0,0,20.5,342.021a136.535,136.535,0,0,0,12.128,27.1,131.2,131.2,0,0,0,30.047,34.84c10.094,8.267,22.157,14.056,37.961,18.221-.741-1.021-1.327-1.853-1.848-2.616a79.09,79.09,0,0,1-7.881-14.9.51.51,0,0,1-.357.148.48.48,0,0,1-.393-.209,30.525,30.525,0,0,1-5.729-19.194c.121-7.244,2.148-14.54,3.9-20.086,2.107-6.673,4.577-13.523,7.34-20.357,2.615-6.467,5.575-13.121,8.8-19.778,10.619-21.937,24.195-43.8,41.5-66.837,13.7-18.239,29.862-37.367,50.849-60.2,16.2-17.626,33.169-35.08,49.574-51.96l5.747-5.914c8.3-8.544,18.08-18.653,27.691-28.846,4.928-5.229,9.362-10,13.556-14.573.867-.947,1.73-1.919,2.565-2.859,3.411-3.842,6.935-7.811,11.372-10.725a4.54,4.54,0,0,1,2.508-.8,4.672,4.672,0,0,1,3.9,2.372,5.285,5.285,0,0,1,.329,5.167c-2.609,5.206-6.795,9.553-10.842,13.756-.847.879-1.722,1.789-2.57,2.693l-.5.531c-4.39,4.739-9.031,9.673-14.189,15.083-4.816,5.052-10.071,10.5-16.538,17.145,1.741-.2,3.514-.374,5.228-.54,2.95-.287,6-.583,8.97-1.035,6.83-1.036,13.4-2.576,18.923-3.945a137.888,137.888,0,0,0,19.389-6.31c1.713-.707,3.429-1.551,5.088-2.368,4.071-2,8.279-4.077,12.888-4.347.126-.007.252-.011.375-.011a5,5,0,0,1,4.687,3.017,6.8,6.8,0,0,1-.893,7.059c-3.9,4.583-10.619,6.566-16.548,8.316q-.678.2-1.335.4l-.867.261a143.057,143.057,0,0,1-20.758,4.666,122.625,122.625,0,0,1-17.857,1.384,85.676,85.676,0,0,1-11.945-.79c18.294,10.727,35.448,24,52.037,36.829q1.992,1.541,3.981,3.078l3.2,2.464c17.142,13.189,34.771,28,47.587,46.923,10.77,15.9,18.468,35.467,22.881,58.153a286,286,0,0,1,4.14,30.621,48.158,48.158,0,0,1,2.48,14.633,133.651,133.651,0,0,1-.571,15.315l-.292,3.457.022,1.014c.023,1.19.131,2.626.255,4.287a71.83,71.83,0,0,1,.224,11.5c-.411,4.468-1.643,7.464-3.767,9.158q-.057.286-.113.574l0,.012c-.06.305-.121.621-.186.93.716-.443,1.454-.916,2.19-1.408.245-.164.488-.345.723-.519l.153-.113.819-.673.08-.068a61.069,61.069,0,0,0,5.231-5.125,68.615,68.615,0,0,0,8.619-12.582c5.252-9.518,9.306-20.579,12.757-34.807a220.118,220.118,0,0,0,5.534-34.309,186.882,186.882,0,0,0-.366-34.735,77.608,77.608,0,0,0-2.146-11.289c-2.564-9.605-5.572-19.323-8.94-28.885A388.4,388.4,0,0,0,406.8,164.19a395.942,395.942,0,0,0-33.272-51.69A364.2,364.2,0,0,0,332.36,66.868,239.01,239.01,0,0,0,308,46.938a206.209,206.209,0,0,0-27.164-16.4C260.687,20.461,240.36,14.821,220.418,13.77,218.467,13.667,216.485,13.615,214.527,13.615ZM56.006,288.06a.5.5,0,0,1-.523-.4c-1.117-6.253,1.42-13.739,3.459-19.753l0-.014q.194-.571.38-1.125a129.44,129.44,0,0,1,9.84-21.28c7.81-14.015,17.2-27.251,26.95-40.7,10.3-14.212,20.2-27.021,30.29-39.159,5.047-6.077,10.174-11.978,15.238-17.54l1.964-2.143c.95-1.03,1.919-2.109,2.856-3.152,4.582-5.1,9.319-10.371,15.046-13.867a1.615,1.615,0,0,1,.849-.253,1.639,1.639,0,0,1,1.386.83,1.755,1.755,0,0,1,.075,1.731c-2.734,5.275-6.893,9.948-10.916,14.468l0,0c-1.278,1.436-2.6,2.92-3.832,4.38-4.508,5.336-9.321,11.089-15.6,18.653-11.308,13.61-21.36,26.314-30.732,38.839l-2.61,3.5c-8.385,11.254-17.2,23.4-24.883,35.926A191.024,191.024,0,0,0,64.577,267.1a83.1,83.1,0,0,0-3.27,8.868,60.269,60.269,0,0,1-4.8,11.825A.578.578,0,0,1,56.006,288.06ZM34.771,255.081a.539.539,0,0,1-.407-.206.462.462,0,0,1-.1-.4,159.106,159.106,0,0,1,6.453-21.317,195.781,195.781,0,0,1,9.117-20.327,288.145,288.145,0,0,1,23.736-37.73l.663-.905a428.25,428.25,0,0,1,28.576-35.294c5.343-5.853,10.737-11.306,16.034-16.208a208.484,208.484,0,0,1,17.338-14.444,2.239,2.239,0,0,1,1.333-.492,2.187,2.187,0,0,1,1.906,1.378,2.867,2.867,0,0,1-.227,3.016c-7.124,8.962-15.123,17.378-22.859,25.518l-.005.006c-2.514,2.645-5.113,5.38-7.645,8.094C98.558,156.632,89.02,167.78,80.338,178.908,63.47,200.528,48.68,225.366,35.123,254.84A.378.378,0,0,1,34.771,255.081Z" transform="translate(13 1.001)"/></svg>